<svg width="214" height="171" viewBox="0 0 214 171" fill="none" xmlns="http://www.w3.org/2000/svg">
<path opacity="0.8" d="M12.504 134.06C12.294 133.556 11.874 132.842 11.468 132.282L10.978 132.576C11.356 133.122 11.79 133.892 11.986 134.396L12.504 134.06ZM13.218 140.766V143.538H10.614V140.766H13.218ZM13.834 140.164H10.012V144.84H10.614V144.14H13.834V140.164ZM10.04 138.932H13.806V138.344H10.04V138.932ZM13.806 136.538H10.04V137.112H13.806V136.538ZM9.494 135.348H14.338V134.746H9.494V135.348ZM18.65 137.91V141.074H15.962V137.91H18.65ZM19.266 141.676V137.294H15.36V142.67H15.962V141.676H19.266ZM20.064 135.264H14.744V135.866H20.064V135.264ZM21.562 133.094H14.394V133.724H20.932V144C20.932 144.252 20.848 144.322 20.624 144.336C20.372 144.35 19.546 144.364 18.636 144.336C18.748 144.532 18.846 144.84 18.888 145.022C19.994 145.022 20.694 145.022 21.072 144.896C21.422 144.77 21.562 144.546 21.562 144.014V133.094ZM31.698 143.44V139.898H34.624V143.44H31.698ZM24.866 139.898H27.624V143.44H24.866V139.898ZM27.624 135.81V139.254H24.866V135.81H27.624ZM31.04 139.898V143.44H28.282V139.898H31.04ZM31.04 135.81V139.254H28.282V135.81H31.04ZM34.624 135.81V139.254H31.698V135.81H34.624ZM31.698 135.152V132.492H31.04V135.152H28.282V132.492H27.624V135.152H24.222V145.05H24.866V144.098H34.624V144.966H35.282V135.152H31.698ZM43.374 137.182V138.274H39.23V137.182H43.374ZM39.174 139.982C39.216 139.562 39.23 139.156 39.23 138.792H43.374V139.982H39.174ZM44.004 140.542V136.622H38.6V138.666C38.6 140.234 38.418 142.404 37.326 144.042C37.48 144.112 37.76 144.28 37.872 144.392C38.628 143.272 38.964 141.858 39.132 140.542H44.004ZM39.916 135.25V135.768H42.926V135.25H39.916ZM43.71 141.886V143.664H39.86V141.886H43.71ZM39.244 144.91H39.86V144.238H43.71V144.896H44.34V141.326H39.244V144.91ZM41.148 132.52C40.336 133.976 38.866 135.18 37.34 135.95C37.48 136.104 37.676 136.398 37.746 136.538C39.02 135.81 40.322 134.774 41.232 133.528C42.366 134.242 43.724 135.194 44.424 135.796L44.788 135.278C44.074 134.676 42.702 133.752 41.554 133.066C41.624 132.954 41.694 132.828 41.764 132.73L41.148 132.52ZM46.524 133.962H45.88V141.592H46.524V133.962ZM48.582 132.422V144.014C48.582 144.266 48.484 144.336 48.246 144.35C48.022 144.364 47.238 144.364 46.328 144.35C46.426 144.546 46.524 144.826 46.566 145.008C47.728 145.008 48.372 145.008 48.736 144.882C49.072 144.756 49.24 144.546 49.24 144.014V132.422H48.582ZM55.008 132.394C54.168 134.592 52.81 136.762 51.368 138.148C51.508 138.288 51.718 138.624 51.788 138.764C52.376 138.176 52.936 137.476 53.468 136.72V145.008H54.154V135.642C54.728 134.676 55.232 133.64 55.652 132.59L55.008 132.394ZM64.066 135.362V134.718H57.948C58.27 134.074 58.55 133.388 58.802 132.702L58.172 132.534C57.444 134.606 56.296 136.65 55.022 137.98C55.162 138.078 55.442 138.316 55.554 138.414C56.296 137.588 57.01 136.538 57.64 135.362H58.858V145.022H59.53V141.438H63.982V140.794H59.53V138.344H63.786V137.714H59.53V135.362H64.066ZM71.458 131.68V145.68H71.99V131.68H71.458ZM79.494 137.364C79.662 137.294 79.956 137.224 81.636 137C81.062 137.896 80.558 138.61 80.32 138.89C79.928 139.408 79.606 139.786 79.354 139.828C79.438 139.996 79.536 140.332 79.578 140.472C79.816 140.36 80.194 140.262 83.526 139.744C83.61 139.996 83.68 140.248 83.722 140.458L84.296 140.248C84.142 139.562 83.722 138.4 83.33 137.518L82.784 137.686C82.994 138.162 83.204 138.694 83.372 139.212L80.46 139.632C81.58 138.288 82.686 136.538 83.638 134.802L83.064 134.494C82.742 135.152 82.378 135.81 82.014 136.412L80.25 136.594C81.062 135.488 81.874 134.032 82.518 132.618L81.916 132.352C81.328 133.892 80.32 135.53 80.012 135.95C79.732 136.37 79.494 136.692 79.284 136.734C79.354 136.902 79.452 137.224 79.48 137.378C79.48 137.364 79.48 137.35 79.494 137.322V137.364ZM79.998 141.172C79.83 142.32 79.592 143.566 79.27 144.448C79.41 144.504 79.704 144.616 79.83 144.658C80.11 143.804 80.39 142.474 80.572 141.284L79.998 141.172ZM81.412 141.242C81.58 142.152 81.72 143.356 81.762 144.154L82.308 144.028C82.266 143.244 82.112 142.054 81.958 141.13L81.412 141.242ZM82.924 140.99C83.176 141.676 83.456 142.572 83.568 143.188L84.114 142.964C83.988 142.39 83.694 141.494 83.442 140.794L82.924 140.99ZM90.554 135.53V137.182H85.332V135.53H90.554ZM91.17 137.77V134.956H85.332V133.864C87.362 133.64 89.644 133.304 91.114 132.856L90.54 132.38C89.252 132.8 86.774 133.164 84.702 133.388V137.518C84.702 139.618 84.618 142.586 83.75 144.728C83.918 144.784 84.198 144.952 84.324 145.05C85.178 142.936 85.318 139.912 85.332 137.77H91.17ZM89.658 141.424V139.506H90.89V141.424H89.658ZM87.936 141.424V139.506H89.154V141.424H87.936ZM86.242 141.424V139.506H87.432V141.424H86.242ZM91.464 138.918H85.668V145.036H86.242V142.012H87.432V144.826H87.936V142.012H89.154V144.756H89.658V142.012H90.89V144.252C90.89 144.364 90.862 144.392 90.75 144.392C90.652 144.406 90.358 144.406 90.022 144.392C90.092 144.546 90.19 144.77 90.204 144.91C90.694 144.91 91.002 144.91 91.212 144.812C91.408 144.7 91.464 144.574 91.464 144.266V138.918ZM101.698 143.44V139.898H104.624V143.44H101.698ZM94.866 139.898H97.624V143.44H94.866V139.898ZM97.624 135.81V139.254H94.866V135.81H97.624ZM101.04 139.898V143.44H98.282V139.898H101.04ZM101.04 135.81V139.254H98.282V135.81H101.04ZM104.624 135.81V139.254H101.698V135.81H104.624ZM101.698 135.152V132.492H101.04V135.152H98.282V132.492H97.624V135.152H94.222V145.05H94.866V144.098H104.624V144.966H105.282V135.152H101.698ZM113.374 137.182V138.274H109.23V137.182H113.374ZM109.174 139.982C109.216 139.562 109.23 139.156 109.23 138.792H113.374V139.982H109.174ZM114.004 140.542V136.622H108.6V138.666C108.6 140.234 108.418 142.404 107.326 144.042C107.48 144.112 107.76 144.28 107.872 144.392C108.628 143.272 108.964 141.858 109.132 140.542H114.004ZM109.916 135.25V135.768H112.926V135.25H109.916ZM113.71 141.886V143.664H109.86V141.886H113.71ZM109.244 144.91H109.86V144.238H113.71V144.896H114.34V141.326H109.244V144.91ZM111.148 132.52C110.336 133.976 108.866 135.18 107.34 135.95C107.48 136.104 107.676 136.398 107.746 136.538C109.02 135.81 110.322 134.774 111.232 133.528C112.366 134.242 113.724 135.194 114.424 135.796L114.788 135.278C114.074 134.676 112.702 133.752 111.554 133.066C111.624 132.954 111.694 132.828 111.764 132.73L111.148 132.52ZM116.524 133.962H115.88V141.592H116.524V133.962ZM118.582 132.422V144.014C118.582 144.266 118.484 144.336 118.246 144.35C118.022 144.364 117.238 144.364 116.328 144.35C116.426 144.546 116.524 144.826 116.566 145.008C117.728 145.008 118.372 145.008 118.736 144.882C119.072 144.756 119.24 144.546 119.24 144.014V132.422H118.582ZM125.008 132.394C124.168 134.592 122.81 136.762 121.368 138.148C121.508 138.288 121.718 138.624 121.788 138.764C122.376 138.176 122.936 137.476 123.468 136.72V145.008H124.154V135.642C124.728 134.676 125.232 133.64 125.652 132.59L125.008 132.394ZM134.066 135.362V134.718H127.948C128.27 134.074 128.55 133.388 128.802 132.702L128.172 132.534C127.444 134.606 126.296 136.65 125.022 137.98C125.162 138.078 125.442 138.316 125.554 138.414C126.296 137.588 127.01 136.538 127.64 135.362H128.858V145.022H129.53V141.438H133.982V140.794H129.53V138.344H133.786V137.714H129.53V135.362H134.066ZM141.458 131.68V145.68H141.99V131.68H141.458ZM158.692 134.326C158.496 133.808 158.02 132.996 157.572 132.38L156.998 132.618C157.404 133.22 157.88 134.06 158.09 134.606L158.692 134.326ZM150.362 139.282C150.404 138.54 150.432 137.616 150.446 136.762H153.4V133.024H149.55V133.654H152.756V136.132H149.858C149.858 137.322 149.788 138.932 149.718 139.898H152.756C152.602 142.824 152.434 143.93 152.154 144.21C152.042 144.336 151.916 144.364 151.664 144.364C151.412 144.364 150.712 144.364 149.956 144.28C150.082 144.476 150.152 144.728 150.166 144.938C150.838 144.98 151.538 144.994 151.888 144.98C152.266 144.952 152.476 144.882 152.686 144.658C153.078 144.238 153.232 143.034 153.414 139.632C153.428 139.534 153.428 139.282 153.428 139.282H150.362ZM161.996 135.362V134.718H154.072V135.362H157.166C156.48 136.748 155.542 138.078 155.234 138.442C154.912 138.862 154.646 139.142 154.422 139.198C154.506 139.38 154.618 139.716 154.646 139.87C154.884 139.772 155.248 139.716 158.048 139.45C156.942 140.892 155.878 142.068 155.458 142.502C154.814 143.188 154.338 143.65 154.016 143.734C154.114 143.916 154.226 144.252 154.268 144.406C154.604 144.252 155.15 144.196 160.82 143.622C161.044 144.042 161.226 144.434 161.338 144.756L161.968 144.462C161.562 143.454 160.596 141.872 159.7 140.682L159.154 140.934C159.616 141.564 160.092 142.334 160.512 143.048L155.29 143.524C157.124 141.76 159 139.436 160.666 136.958L160.008 136.608C159.56 137.35 159.056 138.106 158.538 138.806L155.528 139.03C156.396 138.022 157.236 136.692 157.95 135.362H161.996ZM175.814 139.184C175.688 138.638 175.38 137.812 175.128 137.14L174.61 137.336C174.722 137.616 174.848 137.924 174.96 138.26L172.958 138.498C173.882 137.392 174.82 135.922 175.618 134.466L175.072 134.186C174.862 134.648 174.596 135.11 174.344 135.558L172.678 135.754C173.224 134.886 173.798 133.724 174.218 132.604L173.63 132.38C173.252 133.598 172.538 134.928 172.342 135.264C172.146 135.6 171.964 135.838 171.796 135.88C171.852 136.034 171.95 136.342 171.978 136.468C172.146 136.398 172.426 136.328 174.022 136.104C173.504 136.93 173.014 137.616 172.804 137.868C172.468 138.302 172.202 138.61 171.964 138.652C172.048 138.806 172.146 139.114 172.174 139.254C172.37 139.142 172.706 139.072 175.114 138.736C175.198 138.974 175.24 139.198 175.282 139.38L175.814 139.184ZM170.844 136.062H168.604V134.312H170.844V136.062ZM170.844 138.372H168.604V136.608H170.844V138.372ZM171.474 133.752H169.696C169.822 133.36 169.962 132.87 170.116 132.436L169.458 132.296C169.402 132.716 169.262 133.29 169.122 133.752H167.988V138.946H171.474V133.752ZM167.624 139.114C167.54 138.512 167.316 137.588 167.092 136.874L166.588 137C166.672 137.336 166.756 137.686 166.84 138.05L164.796 138.316C165.748 137.21 166.686 135.754 167.47 134.298L166.938 134.018C166.714 134.508 166.448 134.984 166.154 135.446L164.698 135.6C165.244 134.788 165.776 133.696 166.196 132.632L165.622 132.408C165.272 133.556 164.572 134.816 164.362 135.138C164.166 135.446 163.998 135.684 163.83 135.712C163.9 135.866 163.984 136.174 164.012 136.3C164.166 136.23 164.446 136.16 165.846 135.978C165.328 136.776 164.838 137.434 164.656 137.686C164.306 138.12 164.04 138.428 163.816 138.484C163.9 138.638 163.998 138.932 163.998 139.058C164.208 138.96 164.544 138.876 166.952 138.54C167.008 138.792 167.05 139.058 167.078 139.268L167.624 139.114ZM167.932 141.368C166.924 142.488 164.964 143.496 163.312 143.958C163.48 144.084 163.676 144.336 163.788 144.518C165.426 143.972 167.428 142.852 168.506 141.634L167.932 141.368ZM171.054 141.774C172.608 142.586 174.512 143.776 175.464 144.602L175.87 144.042C174.904 143.258 172.986 142.082 171.446 141.298L171.054 141.774ZM170.032 140.276V139.324H169.36V140.276H163.522V140.878H169.36V145.022H170.032V140.878H175.912V140.276H170.032ZM183.458 131.68V145.68H183.99V131.68H183.458ZM15.346 160.456H16.004V157.096H20.862V159.49H21.52V156.55H16.004V155.472H20.89V154.926H10.544V155.472H15.346V156.55H9.942V159.49H10.6V157.096H15.346V160.456ZM20.288 159.98C19.518 159.714 18.104 159.42 17.012 159.294L16.802 159.77C17.908 159.91 19.322 160.232 20.092 160.512L20.288 159.98ZM19.77 157.502C19.056 157.782 17.796 158.23 16.956 158.426L17.222 158.832C18.09 158.636 19.294 158.314 20.12 157.964L19.77 157.502ZM14.464 158.37C13.792 158.076 12.56 157.726 11.594 157.544L11.37 157.964C12.336 158.174 13.582 158.538 14.254 158.86L14.464 158.37ZM14.38 159.336C13.148 159.532 11.958 159.714 11.062 159.826L11.314 160.414C12.224 160.26 13.302 160.05 14.408 159.854L14.38 159.336ZM11.762 164.488V163.298H15.346V164.488H11.762ZM15.346 161.618V162.78H11.762V161.618H15.346ZM19.784 162.78H15.99V161.618H19.784V162.78ZM15.99 164.488V163.298H19.784V164.488H15.99ZM17.068 166.252C16.172 166.252 15.99 166.14 15.99 165.692V165.034H20.442V161.058H11.104V165.832H11.762V165.034H15.346V165.692C15.346 166.63 15.724 166.84 17.082 166.84H20.498C21.716 166.84 21.94 166.406 22.052 164.712C21.856 164.67 21.604 164.572 21.45 164.46C21.38 165.986 21.24 166.252 20.47 166.252H17.068ZM33.476 162.584V165.79H26.084V162.584H33.476ZM25.398 167.204H26.084V166.434H33.476V167.204H34.176V161.954H25.398V167.204ZM35.758 157.096V156.452H30.032V154.338H29.36V156.452H23.662V157.096H29.36V159.476H24.488V160.12H35.114V159.476H30.032V157.096H35.758ZM40.686 154.394C39.846 156.592 38.488 158.762 37.046 160.162C37.172 160.302 37.396 160.624 37.452 160.764C38.054 160.176 38.614 159.462 39.146 158.678V167.008H39.79V157.684C40.364 156.704 40.882 155.654 41.316 154.576L40.686 154.394ZM44.27 166.28C43.248 166.28 43.024 166.056 43.024 165.272V159.994L45.488 159.042V164.026H46.118V158.79L48.764 157.768C48.75 159.658 48.666 161.996 48.526 163.41L49.1 163.578C49.296 161.954 49.408 159.252 49.422 157.208L49.464 157.068L48.96 156.914L48.764 157.082L46.118 158.104V154.352H45.488V158.356L43.024 159.294V155.654H42.38V159.546L40.546 160.26L40.798 160.862L42.38 160.246V165.258C42.38 166.588 42.828 166.896 44.312 166.896H48.316C49.744 166.896 49.968 166.308 50.122 164.46C49.912 164.418 49.66 164.306 49.478 164.18C49.366 165.86 49.226 166.28 48.33 166.28H44.27Z" fill="white"/>
<path opacity="0.8" d="M20.484 113.658C21.114 113.658 21.73 113.644 21.954 113.588C21.912 113.448 21.884 113.182 21.856 112.986C21.562 113.042 20.862 113.056 20.456 113.056H16.466C15.85 113.056 15.682 112.874 15.682 112.342V110.816H21.464V110.214H15.682V108.422H15.01V112.328C15.01 113.322 15.36 113.658 16.48 113.658H20.484ZM13.974 114.428C13.386 114.624 12.784 114.806 12.21 114.988V111.936H13.946V111.278H12.21V108.352H11.552V111.278H9.424V111.936H11.552V115.212C10.656 115.478 9.83 115.73 9.2 115.912L9.438 116.57C10.054 116.374 10.782 116.136 11.552 115.898V120.126C11.552 120.336 11.468 120.392 11.286 120.392C11.118 120.406 10.516 120.406 9.83 120.392C9.928 120.574 10.04 120.854 10.082 121.022C10.978 121.022 11.482 121.008 11.79 120.896C12.084 120.784 12.21 120.588 12.21 120.112V115.674L14.072 115.072L13.974 114.428ZM20.764 115.66V117.368H15.612V115.66H20.764ZM15.612 119.748V117.956H20.764V119.748H15.612ZM14.968 121.022H15.612V120.35H20.764V120.952H21.422V115.058H14.968V121.022ZM33.896 112.328H28.618V111.572H33.896V112.328ZM33.896 113.56H28.618V112.79H33.896V113.56ZM33.896 114.806H28.618V114.022H33.896V114.806ZM27.988 111.096V115.282H34.554V111.096H31.026C31.18 110.844 31.32 110.55 31.446 110.256H35.66V109.696H33.196C33.448 109.346 33.714 108.954 33.966 108.562L33.322 108.366C33.14 108.744 32.79 109.304 32.51 109.696H29.836L30.172 109.556C30.06 109.206 29.71 108.688 29.388 108.352L28.842 108.562C29.122 108.898 29.43 109.346 29.556 109.696H27.05V110.256H30.788C30.676 110.536 30.536 110.83 30.41 111.096H27.988ZM25.426 109.724C25.286 109.36 24.992 108.786 24.782 108.338L24.222 108.506C24.418 108.968 24.684 109.57 24.838 109.948L25.426 109.724ZM25.846 118.726C26.644 119.188 27.582 119.902 28.002 120.42L28.492 119.958C28.044 119.44 27.092 118.754 26.294 118.32L25.846 118.726ZM32.986 116.668H32.342V117.578H23.592V118.152H32.342V120.126C32.342 120.322 32.286 120.378 32.034 120.378C31.81 120.392 31.012 120.406 30.004 120.378C30.102 120.56 30.2 120.784 30.242 120.966C31.446 120.966 32.146 120.966 32.524 120.854C32.902 120.742 32.986 120.56 32.986 120.126V118.152H35.786V117.578H32.986V116.668ZM26.336 112.16L26.238 112.202H25.034C25.426 111.572 25.874 110.788 26.266 110.102H23.48V110.676H25.286C24.894 111.404 24.418 112.188 24.04 112.762H25.93C25.636 113.56 25.188 114.428 24.684 115.002C24.306 115.268 23.914 115.674 23.522 116.122L23.942 116.64C24.488 115.898 25.034 115.268 25.398 115.268C25.678 115.268 26.084 115.618 26.588 115.926C27.498 116.43 28.758 116.514 30.382 116.514C31.824 116.514 34.554 116.444 35.884 116.36C35.898 116.192 35.996 115.87 36.08 115.702C34.596 115.842 32.3 115.94 30.396 115.94C28.842 115.94 27.624 115.884 26.77 115.422C26.196 115.086 25.902 114.806 25.58 114.736C26.042 114.05 26.448 113.14 26.728 112.328L26.336 112.16ZM43.136 113.224V110.998H46.832C46.062 111.796 45.208 112.538 44.298 113.224H43.136ZM49.926 113.868V113.224H45.362C46.818 112.034 48.148 110.676 49.254 109.206L48.652 108.87C48.134 109.584 47.532 110.256 46.902 110.914V110.368H43.164V108.338H42.506V110.368H38.726V110.998H42.506V113.224H37.536V113.868H43.416C41.554 115.17 39.482 116.248 37.326 117.074C37.48 117.214 37.704 117.494 37.816 117.648C39.034 117.144 40.238 116.57 41.386 115.912V119.426C41.386 120.476 41.862 120.7 43.542 120.7H47.91C49.45 120.7 49.716 120.238 49.87 118.306C49.66 118.264 49.394 118.166 49.212 118.04C49.1 119.748 48.932 120.07 47.91 120.07H43.486C42.296 120.07 42.072 119.944 42.072 119.412V117.13H48.498V116.5H42.072V115.52C42.926 115.002 43.738 114.456 44.536 113.868H49.926ZM55.498 116.248V119.048H52.572V116.248H55.498ZM55.358 111.068V113.49H52.572V111.068H55.358ZM52.572 114.106H56.002V110.452H53.748C54.028 109.864 54.308 109.122 54.546 108.492L53.832 108.324C53.678 108.94 53.37 109.822 53.104 110.452H51.928V120.63H52.572V119.65H56.114V115.632H52.572V114.106ZM64.024 109.752V109.122H56.646V109.752H59.978V111.754H57.206V118.964H57.836V112.384H59.978V120.994H60.622V112.384H62.932V118.082C62.932 118.208 62.89 118.264 62.736 118.264C62.582 118.278 62.092 118.278 61.462 118.264C61.546 118.446 61.658 118.712 61.686 118.866C62.47 118.866 62.932 118.866 63.212 118.768C63.52 118.656 63.576 118.446 63.576 118.082V111.754H60.622V109.752H64.024ZM71.724 112.16C72.186 112.16 72.62 111.824 72.62 111.264C72.62 110.69 72.186 110.368 71.724 110.368C71.262 110.368 70.828 110.69 70.828 111.264C70.828 111.824 71.262 112.16 71.724 112.16ZM71.724 119.104C72.186 119.104 72.62 118.782 72.62 118.222C72.62 117.648 72.186 117.326 71.724 117.326C71.262 117.326 70.828 117.648 70.828 118.222C70.828 118.782 71.262 119.104 71.724 119.104ZM81.216 113.364H84.198V118.446C83.148 118.628 82.112 118.81 81.216 118.964V113.364ZM84.828 118.334V113.364H86.354V112.72H81.216V110.004C82.812 109.836 84.674 109.556 85.878 109.206L85.486 108.618C84.324 108.968 82.238 109.29 80.558 109.472V119.076C80.11 119.146 79.704 119.216 79.34 119.272L79.48 119.986C81.314 119.636 84.086 119.146 86.69 118.656L86.648 118.012L84.828 118.334ZM91.534 109.094L91.408 109.136H87.306V121.05H87.936V109.78H91.058C90.498 110.9 89.714 112.412 88.944 113.7C90.652 115.016 91.198 116.052 91.212 116.99C91.212 117.508 91.086 117.956 90.708 118.166C90.498 118.264 90.232 118.32 89.938 118.334C89.532 118.376 88.916 118.362 88.314 118.292C88.44 118.502 88.538 118.768 88.552 118.964C89.056 119.006 89.7 119.02 90.19 118.978C90.554 118.922 90.904 118.838 91.156 118.684C91.674 118.39 91.87 117.76 91.856 117.032C91.856 116.01 91.394 114.946 89.7 113.588C90.498 112.272 91.352 110.704 91.996 109.43L91.534 109.094ZM97.764 119.272C96.714 119.79 95.006 120.238 93.592 120.532C93.746 120.658 93.984 120.924 94.082 121.064C95.468 120.714 97.246 120.14 98.38 119.552L97.764 119.272ZM103.616 115.338H96.014V114.302H103.616V115.338ZM103.616 116.878H96.014V115.842H103.616V116.878ZM103.616 118.446H96.014V117.396H103.616V118.446ZM104.288 113.784H95.356V118.964H104.288V113.784ZM101.068 119.678C102.692 120.126 104.246 120.63 105.17 121.022L105.884 120.63C104.862 120.224 103.196 119.706 101.614 119.314L101.068 119.678ZM96.112 110.97V109.724H99.374V110.97H96.112ZM103.518 109.724V110.97H100.046V109.724H103.518ZM100.046 112.384V111.502H104.176V109.192H100.046V108.338H99.374V109.192H95.468V111.502H99.374V112.384H93.564V112.958H105.898V112.384H100.046ZM118.428 110.676H113.528V109.332H118.428V110.676ZM118.428 112.594H113.528V111.222H118.428V112.594ZM119.072 108.786H112.898V113.14H119.072V108.786ZM111.61 114.568L110.084 115.044V111.894H111.638V111.264H110.084V108.352H109.44V111.264H107.396V111.894H109.44V115.254C108.586 115.52 107.802 115.758 107.186 115.94L107.368 116.598L109.44 115.912V120.112C109.44 120.308 109.356 120.364 109.188 120.364C109.006 120.378 108.432 120.378 107.732 120.364C107.83 120.56 107.928 120.854 107.97 121.008C108.866 121.022 109.37 120.994 109.664 120.896C109.958 120.784 110.084 120.56 110.084 120.112V115.702C110.616 115.534 111.162 115.352 111.694 115.184L111.61 114.568ZM120.108 114.792V114.19H111.96V114.792H113.892C113.248 115.954 112.254 116.976 111.204 117.69C111.344 117.788 111.582 118.026 111.68 118.138C112.254 117.718 112.842 117.172 113.374 116.57H114.858C114.088 118.026 112.884 119.314 111.554 120.168C111.708 120.252 111.946 120.49 112.03 120.602C113.388 119.65 114.704 118.236 115.53 116.57H117.056C116.496 118.236 115.558 119.664 114.368 120.63C114.522 120.742 114.76 120.938 114.872 121.036C116.076 120 117.098 118.418 117.7 116.57H118.96C118.792 119.062 118.61 120.042 118.344 120.308C118.232 120.42 118.12 120.434 117.896 120.434C117.672 120.434 117.056 120.434 116.412 120.364C116.51 120.532 116.58 120.798 116.594 120.966C117.196 121.008 117.798 121.022 118.106 121.008C118.456 120.994 118.666 120.91 118.862 120.714C119.212 120.336 119.408 119.272 119.59 116.304C119.604 116.192 119.618 115.982 119.618 115.982H113.85C114.13 115.604 114.382 115.198 114.592 114.792H120.108ZM128.392 108.912L128.28 108.94H125.046V121.036H125.676V109.57H127.986C127.65 110.536 127.16 111.768 126.656 112.888C127.79 114.078 128.098 115.072 128.098 115.898C128.098 116.332 128.014 116.78 127.762 116.948C127.65 117.032 127.482 117.074 127.3 117.074C127.048 117.102 126.726 117.088 126.348 117.06C126.474 117.256 126.544 117.508 126.558 117.676C126.88 117.704 127.23 117.704 127.524 117.676C127.79 117.648 128.028 117.564 128.21 117.438C128.574 117.186 128.714 116.598 128.714 115.94C128.714 115.03 128.434 113.994 127.328 112.804C127.832 111.67 128.392 110.312 128.826 109.192L128.392 108.912ZM132.886 112.804V116.472H130.268V112.804H132.886ZM133.516 117.088V112.202H129.652V118.264H130.268V117.088H133.516ZM137.226 109.346H129.092V109.99H135.266V120.014C135.266 120.308 135.154 120.392 134.86 120.406C134.594 120.434 133.586 120.434 132.438 120.392C132.536 120.588 132.648 120.854 132.69 121.022C134.118 121.036 134.888 121.036 135.308 120.924C135.728 120.812 135.924 120.602 135.924 120.014V109.99H137.226V109.346ZM150.918 115.184C150.792 114.638 150.484 113.812 150.232 113.14L149.714 113.336C149.826 113.616 149.952 113.924 150.064 114.26L148.062 114.498C148.986 113.392 149.924 111.922 150.722 110.466L150.176 110.186C149.966 110.648 149.7 111.11 149.448 111.558L147.782 111.754C148.328 110.886 148.902 109.724 149.322 108.604L148.734 108.38C148.356 109.598 147.642 110.928 147.446 111.264C147.25 111.6 147.068 111.838 146.9 111.88C146.956 112.034 147.054 112.342 147.082 112.468C147.25 112.398 147.53 112.328 149.126 112.104C148.608 112.93 148.118 113.616 147.908 113.868C147.572 114.302 147.306 114.61 147.068 114.652C147.152 114.806 147.25 115.114 147.278 115.254C147.474 115.142 147.81 115.072 150.218 114.736C150.302 114.974 150.344 115.198 150.386 115.38L150.918 115.184ZM145.948 112.062H143.708V110.312H145.948V112.062ZM145.948 114.372H143.708V112.608H145.948V114.372ZM146.578 109.752H144.8C144.926 109.36 145.066 108.87 145.22 108.436L144.562 108.296C144.506 108.716 144.366 109.29 144.226 109.752H143.092V114.946H146.578V109.752ZM142.728 115.114C142.644 114.512 142.42 113.588 142.196 112.874L141.692 113C141.776 113.336 141.86 113.686 141.944 114.05L139.9 114.316C140.852 113.21 141.79 111.754 142.574 110.298L142.042 110.018C141.818 110.508 141.552 110.984 141.258 111.446L139.802 111.6C140.348 110.788 140.88 109.696 141.3 108.632L140.726 108.408C140.376 109.556 139.676 110.816 139.466 111.138C139.27 111.446 139.102 111.684 138.934 111.712C139.004 111.866 139.088 112.174 139.116 112.3C139.27 112.23 139.55 112.16 140.95 111.978C140.432 112.776 139.942 113.434 139.76 113.686C139.41 114.12 139.144 114.428 138.92 114.484C139.004 114.638 139.102 114.932 139.102 115.058C139.312 114.96 139.648 114.876 142.056 114.54C142.112 114.792 142.154 115.058 142.182 115.268L142.728 115.114ZM143.036 117.368C142.028 118.488 140.068 119.496 138.416 119.958C138.584 120.084 138.78 120.336 138.892 120.518C140.53 119.972 142.532 118.852 143.61 117.634L143.036 117.368ZM146.158 117.774C147.712 118.586 149.616 119.776 150.568 120.602L150.974 120.042C150.008 119.258 148.09 118.082 146.55 117.298L146.158 117.774ZM145.136 116.276V115.324H144.464V116.276H138.626V116.878H144.464V121.022H145.136V116.878H151.016V116.276H145.136Z" fill="white"/>
<path d="M10.3259 56.5538L13.7659 49.3858L12.9019 49.0978L9.34993 56.5538L12.9019 64.0098L13.7659 63.7218L10.3259 56.5538ZM12.8539 56.5538L16.2939 49.3858L15.4299 49.0978L11.8779 56.5538L15.4299 64.0098L16.2939 63.7218L12.8539 56.5538ZM35.3601 53.1298C34.8481 52.8258 34.0641 52.4418 33.2641 52.1218C33.8401 51.6738 34.4641 51.1138 35.0241 50.6018L34.0321 50.0738C33.6481 50.5698 32.9601 51.2738 32.3841 51.7858L32.0001 51.6418C31.9201 51.1458 31.8721 50.6018 31.8401 50.0738H22.2081V51.1458H30.8321C31.1521 53.8658 31.9041 56.1858 34.3681 56.4738C35.1361 56.6018 35.5521 56.1058 35.7441 54.7938C35.5201 54.6658 35.2321 54.4098 35.0081 54.1858C34.9281 55.0018 34.8001 55.4498 34.5921 55.4178C33.2961 55.3218 32.5921 54.2338 32.2081 52.7138C33.1841 53.1138 34.1601 53.6098 34.7361 53.9778L35.3601 53.1298ZM35.4721 59.9778C34.9761 59.6258 34.1761 59.2258 33.3761 58.8738C33.9681 58.4418 34.6241 57.9138 35.2001 57.4018L34.1921 56.8578C33.7921 57.3378 33.0881 58.0098 32.4961 58.5058L32.1441 58.3778C32.0801 57.6258 32.0321 56.8418 32.0161 56.0258H28.4961V51.6578H27.3281V56.0258H24.7041V53.4818C25.5521 53.2258 26.3361 52.9378 27.0081 52.6338L26.0801 51.7378C25.0081 52.3458 23.1681 52.9378 21.5041 53.3218C21.6641 53.5618 21.8561 53.9298 21.9201 54.1858C22.4481 54.0738 23.0241 53.9458 23.5681 53.8018V56.0258H21.2801V57.1138H23.5521C23.4561 59.1138 23.0081 61.2738 21.0401 63.0178C21.3281 63.1938 21.7281 63.5778 21.9201 63.8178C24.0961 61.8658 24.5921 59.4018 24.6881 57.1138H27.3281V63.7218H28.4961V57.1138H30.9441C31.1361 60.6338 31.7121 63.5458 34.4481 63.8498C35.2961 64.0098 35.6961 63.4178 35.8881 61.8018C35.6481 61.6738 35.3601 61.4178 35.1361 61.1458C35.0561 62.2018 34.9121 62.8098 34.7041 62.7778C33.2961 62.6658 32.6081 61.3218 32.3041 59.4338C33.2641 59.8498 34.2561 60.3938 34.8161 60.7938L35.4721 59.9778ZM40.8641 51.8658V58.5378H38.8321V51.8658H40.8641ZM41.9681 50.7618H37.7441V61.1618H38.8321V59.6418H41.9681V50.7618ZM46.7201 51.3858V56.5218H44.5441V51.3858H46.7201ZM50.0641 56.5218H47.8081V51.3858H50.0641V56.5218ZM45.7601 62.4418C44.7361 62.4418 44.5441 62.2498 44.5441 61.3538V57.6098H50.0641V58.6178H51.2321V50.2818H43.3761V61.3378C43.3761 63.1138 43.9521 63.5458 45.7121 63.5458H49.6321C51.2961 63.5458 51.6641 62.8258 51.8561 60.6498C51.5201 60.5858 51.0561 60.3778 50.7681 60.1698C50.6401 61.9938 50.4801 62.4418 49.5841 62.4418H45.7601ZM59.1361 59.6258C60.8161 59.0338 61.9041 57.7218 61.9041 55.9938C61.9041 54.8738 61.4241 54.1538 60.5441 54.1538C59.8881 54.1538 59.3281 54.5538 59.3281 55.3058C59.3281 56.0578 59.8721 56.4418 60.5281 56.4418C60.6241 56.4418 60.7041 56.4418 60.8001 56.4258C60.7201 57.5138 60.0161 58.2658 58.7841 58.7778L59.1361 59.6258ZM79.9201 59.5138C79.1041 60.3138 77.9841 60.9378 76.7041 61.4498C75.4881 61.0178 74.4161 60.4898 73.5681 59.8498C73.6801 59.7378 73.8081 59.6258 73.9361 59.5138H79.9201ZM72.4001 56.0578H80.4641V57.0178H72.4001V56.0578ZM72.4001 54.3458H80.4641V55.2898H72.4001V54.3458ZM72.4001 52.6498H80.4641V53.5778H72.4001V52.6498ZM80.9761 58.5698L80.7681 58.6338H74.8001C75.0561 58.3458 75.2641 58.0738 75.4721 57.7698H81.6481V51.8818H76.6401C76.7521 51.5938 76.8641 51.3058 76.9761 50.9698H83.1841V49.9778H69.6961V50.9698H75.6801C75.6161 51.2738 75.5361 51.5778 75.4561 51.8818H71.2481V57.7698H74.1441C73.7761 58.2178 73.3281 58.6978 72.7841 59.1458C72.4961 58.8898 72.2401 58.5858 72.0161 58.2658L71.1201 58.6498C71.3921 59.0338 71.6961 59.3858 72.0001 59.7218C71.3761 60.1378 70.6401 60.5378 69.8241 60.8738C70.0641 61.0498 70.4161 61.4338 70.5761 61.6738C71.4081 61.3058 72.1281 60.8738 72.8001 60.4258C73.5201 61.0018 74.3681 61.4978 75.2801 61.9298C73.5681 62.4258 71.6321 62.7458 69.7921 62.8898C69.9681 63.1458 70.1441 63.5618 70.2241 63.8498C72.4161 63.6098 74.6881 63.1938 76.6881 62.4738C78.5441 63.1138 80.7201 63.4818 83.0721 63.6578C83.2001 63.3538 83.4401 62.9378 83.6641 62.6818C81.6481 62.5538 79.7761 62.2978 78.1281 61.8818C79.6001 61.1618 80.8481 60.2338 81.6801 59.0498L80.9761 58.5698ZM99.3921 56.5698V55.3698H92.8801C92.9441 54.7618 92.9601 54.1378 92.9601 53.5778V51.6898H98.7041V50.4898H86.1281V51.6898H91.7281V53.5618C91.7281 54.1218 91.7121 54.7458 91.6321 55.3698H85.5681V56.5698H91.3921C90.8321 58.8098 89.2801 61.1618 85.1681 62.8418C85.4241 63.0818 85.7921 63.5298 85.9361 63.8338C90.0001 62.1538 91.7441 59.8018 92.4641 57.4658C93.7281 60.5698 95.8561 62.7618 99.0401 63.8178C99.2161 63.4978 99.5681 63.0018 99.8401 62.7458C96.6081 61.8178 94.4321 59.5938 93.3121 56.5698H99.3921ZM106.336 56.2178H102.976V52.8738H106.336V56.2178ZM102.976 61.1138V57.2738H106.336V61.1138H102.976ZM104.32 49.2098C104.208 49.9618 103.92 51.0338 103.68 51.8018H101.888V63.4498H102.976V62.1858H107.424V51.8018H104.768C105.04 51.1138 105.328 50.2338 105.6 49.4498L104.32 49.2098ZM115.248 51.7538H110.464C110.736 51.0018 110.96 50.2338 111.152 49.4498L110.016 49.1778C109.504 51.3698 108.64 53.5778 107.568 54.9858C107.824 55.1458 108.336 55.4658 108.544 55.6578C109.104 54.9058 109.6 53.9298 110.048 52.8578H114.112C113.904 59.2258 113.664 61.6578 113.136 62.2178C112.976 62.4258 112.8 62.4578 112.48 62.4578C112.112 62.4578 111.152 62.4578 110.112 62.3618C110.336 62.6978 110.48 63.1778 110.512 63.5298C111.408 63.5778 112.32 63.6098 112.88 63.5458C113.424 63.4978 113.792 63.3538 114.144 62.9058C114.784 62.1218 114.992 59.6578 115.248 52.3618V51.7538ZM112.72 58.9538C112.208 58.0098 111.104 56.4738 110.208 55.3378L109.28 55.8818C110.16 57.0338 111.232 58.6178 111.712 59.5778L112.72 58.9538ZM119.968 61.5138V57.7858H128.896V61.5138H119.968ZM128.896 52.9858V56.6178H119.968V52.9858H128.896ZM124 51.8018C124.368 51.0978 124.752 50.2498 125.056 49.4658L123.584 49.1938C123.392 49.9458 123.056 50.9858 122.704 51.8018H118.8V63.8658H119.968V62.6978H128.896V63.7858H130.128V51.8018H124ZM136.528 61.4658V57.0018H144.464V61.4658H136.528ZM144.464 51.5138V55.8338H136.528V51.5138H144.464ZM135.328 50.3458V63.6738H136.528V62.6338H144.464V63.6098H145.712V50.3458H135.328ZM154.064 52.1698H155.232V49.2578H154.064V50.2818H149.456V51.3218H154.064V52.1698ZM151.984 53.3378H154.288V54.9858H151.984V53.3378ZM155.312 53.3378H157.696V54.9858H155.312V53.3378ZM158.704 53.3378H161.12V54.9858H158.704V53.3378ZM150.912 55.8338H162.24V52.5058H150.912V55.8338ZM154.4 59.3858H159.2C158.512 60.1218 157.568 60.7138 156.48 61.2098C155.92 60.6818 154.992 60.0258 154.144 59.5458L154.4 59.3858ZM159.984 58.5058H155.536C155.744 58.2978 155.936 58.0898 156.128 57.8498L154.944 57.5938C154.272 58.4258 152.992 59.2258 151.136 59.7698C151.376 59.9298 151.696 60.3298 151.856 60.5858C152.368 60.4258 152.832 60.2338 153.248 60.0258C154.016 60.4738 154.848 61.0978 155.44 61.6098C153.728 62.2018 151.76 62.5698 149.872 62.7298C150.064 62.9858 150.304 63.4818 150.384 63.7698C154.608 63.2898 159.072 61.9618 160.944 58.9378L160.192 58.4578L159.984 58.5058ZM149.584 59.2578H150.704V57.5778H162.176V59.2578H163.344V56.6178H149.584V59.2578ZM158.864 50.2818V49.2578H157.696V52.1698H158.864V51.3058H163.408V50.2818H158.864ZM169.04 51.2258C168.768 50.6818 168.208 49.8498 167.712 49.2098L166.864 49.7538C167.328 50.4098 167.904 51.3058 168.144 51.8658L169.04 51.2258ZM170.72 58.6658C170.528 58.4418 170.048 57.8338 169.536 57.2578C169.984 56.8418 170.512 56.2818 170.976 55.7698L170.256 55.1138C169.968 55.5618 169.456 56.1858 169.008 56.6818C168.816 56.4418 168.624 56.2338 168.48 56.0898V56.0578C169.232 54.9538 169.904 53.7378 170.352 52.5058L169.744 52.0258L169.552 52.0738H165.264V53.1618H168.976C168.032 55.1778 166.368 57.2258 164.832 58.4098C165.024 58.6178 165.312 59.2258 165.408 59.5458C166.064 58.9858 166.736 58.2978 167.392 57.5138V63.8498H168.48V57.4178C169.056 58.1858 169.744 59.1138 170.048 59.6258L170.72 58.6658ZM172.416 56.2018V54.0578H174.576V56.2018H172.416ZM172.416 50.9858H174.576V53.0818H172.416V50.9858ZM177.92 53.0818H175.696V50.9858H177.92V53.0818ZM177.92 56.2018H175.696V54.0578H177.92V56.2018ZM175.696 62.3938V60.0738H179.152V59.0178H175.696V57.2258H179.04V49.9458H171.328V57.2258H174.576V59.0178H171.328V60.0738H174.576V62.3938H170.672V63.4658H179.728V62.3938H175.696ZM21.6566 86.6338H23.4166L25.1606 79.5618C25.3526 78.6338 25.5606 77.7858 25.7526 76.8898H25.8166C26.0086 77.7858 26.1846 78.6338 26.3926 79.5618L28.1686 86.6338H29.9446L32.3766 74.9058H30.9526L29.7206 81.2898C29.4966 82.5378 29.2726 83.8018 29.0486 85.0818H28.9686C28.6966 83.8018 28.4246 82.5378 28.1366 81.2898L26.4886 74.9058H25.1446L23.5286 81.2898C23.2406 82.5538 22.9526 83.8178 22.6806 85.0818H22.6166C22.3926 83.8178 22.1526 82.5538 21.9286 81.2898L20.6966 74.9058H19.1606L21.6566 86.6338ZM34.2794 86.6338H35.7354V77.9458H34.2794V86.6338ZM35.0154 76.1538C35.5914 76.1538 36.0234 75.7538 36.0234 75.2098C36.0234 74.6178 35.5914 74.2658 35.0154 74.2658C34.4394 74.2658 34.0074 74.6178 34.0074 75.2098C34.0074 75.7538 34.4394 76.1538 35.0154 76.1538ZM38.6857 86.6338H40.1417V80.3298C41.0217 79.4498 41.6297 79.0018 42.5257 79.0018C43.6777 79.0018 44.1737 79.6898 44.1737 81.3218V86.6338H45.6297V81.1298C45.6297 78.9058 44.7977 77.7218 42.9737 77.7218C41.7897 77.7218 40.8937 78.3778 40.0617 79.1938H40.0137L39.8857 77.9458H38.6857V86.6338ZM51.3949 90.6338C54.0829 90.6338 55.7789 89.2418 55.7789 87.6258C55.7789 86.2018 54.7709 85.5618 52.7549 85.5618H51.0589C49.8909 85.5618 49.5389 85.1778 49.5389 84.6178C49.5389 84.1378 49.7789 83.8498 50.0989 83.5778C50.4829 83.7698 50.9629 83.8818 51.3949 83.8818C53.1549 83.8818 54.5629 82.7138 54.5629 80.8578C54.5629 80.1058 54.2749 79.4658 53.8589 79.0658H55.6349V77.9458H52.6109C52.3069 77.8338 51.8749 77.7218 51.3949 77.7218C49.6349 77.7218 48.1309 78.9218 48.1309 80.8258C48.1309 81.8658 48.6909 82.6978 49.2669 83.1618V83.2258C48.8189 83.5458 48.2909 84.1218 48.2909 84.8418C48.2909 85.5298 48.6269 85.9938 49.0909 86.2658V86.3298C48.2749 86.8578 47.7949 87.5618 47.7949 88.2978C47.7949 89.8018 49.2669 90.6338 51.3949 90.6338ZM51.3949 82.8898C50.3869 82.8898 49.5389 82.0898 49.5389 80.8258C49.5389 79.5458 50.3709 78.7938 51.3949 78.7938C52.4189 78.7938 53.2349 79.5618 53.2349 80.8258C53.2349 82.0898 52.3869 82.8898 51.3949 82.8898ZM51.6029 89.6418C50.0189 89.6418 49.0749 89.0338 49.0749 88.1058C49.0749 87.5938 49.3469 87.0818 49.9709 86.6338C50.3549 86.7298 50.7709 86.7778 51.0909 86.7778H52.5949C53.7469 86.7778 54.3709 87.0498 54.3709 87.8498C54.3709 88.7618 53.2669 89.6418 51.6029 89.6418ZM61.1887 86.6338H62.6767V74.9058H61.1887V86.6338ZM68.4842 86.8418C69.0122 86.8418 69.5882 86.6818 70.0842 86.5218L69.7962 85.4338C69.5082 85.5458 69.1082 85.6578 68.8042 85.6578C67.7962 85.6578 67.4602 85.0498 67.4602 83.9778V79.1298H69.8122V77.9458H67.4602V75.5138H66.2442L66.0682 77.9458L64.7082 78.0258V79.1298H66.0042V83.9458C66.0042 85.6898 66.6282 86.8418 68.4842 86.8418ZM77.8536 88.0098L81.4056 80.5538L77.8536 73.0978L76.9896 73.3858L80.4296 80.5538L76.9896 87.7218L77.8536 88.0098ZM75.3256 88.0098L78.8776 80.5538L75.3256 73.0978L74.4616 73.3858L77.9016 80.5538L74.4616 87.7218L75.3256 88.0098Z" fill="#00E0B8"/>
<path d="M210.746 33.2754L8.93335 33.2754V34.0521L210.746 34.0521V33.2754Z" fill="white"/>
<path d="M213.8 30.5435H200.71V36.6521H213.8V30.5435Z" fill="#00E0B8"/>
<path d="M16.1279 12.7C15.9119 12.484 15.5999 12.256 15.2639 12.04C15.5279 11.788 15.7559 11.536 15.9599 11.272L15.3359 11.068C15.1679 11.296 14.9519 11.512 14.7359 11.704C14.4239 11.536 14.1119 11.356 13.8119 11.224L13.3679 11.62C13.6439 11.752 13.9439 11.908 14.2319 12.088C13.8719 12.34 13.4879 12.568 13.0919 12.748C13.2479 12.868 13.4999 13.096 13.5839 13.216C13.9799 13 14.3879 12.748 14.7839 12.436C15.1319 12.688 15.4439 12.916 15.6479 13.132L16.1279 12.7ZM16.0919 10.552C15.8759 10.384 15.5879 10.192 15.2639 9.988C15.5159 9.748 15.7319 9.508 15.9239 9.256L15.2999 9.088C15.1439 9.28 14.9519 9.484 14.7359 9.676C14.4239 9.508 14.1239 9.352 13.8359 9.232L13.4039 9.628C13.6679 9.748 13.9679 9.892 14.2439 10.06C13.9079 10.288 13.5479 10.504 13.1759 10.672C13.3319 10.78 13.5839 10.996 13.6799 11.104C14.0519 10.912 14.4239 10.66 14.7959 10.384C15.1199 10.588 15.4319 10.816 15.6239 10.996L16.0919 10.552ZM10.5119 13.912H18.9479V15.4H19.8239V13.228H18.8879C18.9839 12.16 19.0919 10.612 19.1519 9.424H16.3799V10.036H18.2879L18.2519 10.684H16.4399V11.296H18.2159L18.1559 11.944H16.3679V12.556H18.1079C18.0839 12.796 18.0599 13.012 18.0359 13.228H11.4599L11.4119 12.556H13.0799V11.944H11.3759L11.3279 11.296H13.0319V10.684H11.2919L11.2439 10.096C11.8679 9.976 12.5759 9.82 13.1039 9.628L12.6959 9.076C12.1079 9.256 11.0759 9.544 10.3799 9.664L10.6199 13.228H9.65994V15.4H10.5119V13.912ZM20.0639 16.828H15.2639V16.612C16.2119 16.228 17.2319 15.7 17.9759 15.124L17.4359 14.68L17.2559 14.728H11.6159V15.4H16.3079C15.7319 15.748 15.0359 16.084 14.3999 16.312V16.828H9.39594V17.584H14.3999V18.94C14.3999 19.108 14.3519 19.144 14.1479 19.156C13.9679 19.156 13.2959 19.156 12.5519 19.132C12.6719 19.36 12.8159 19.66 12.8639 19.888C13.8119 19.888 14.4119 19.9 14.7959 19.768C15.1679 19.636 15.2639 19.432 15.2639 18.964V17.584H20.0639V16.828ZM29.5919 11.392H23.9159V10.144H29.5919V11.392ZM30.5159 9.424H23.0279V12.112H30.5159V9.424ZM23.4119 16.408H30.0719V17.272H23.4119V16.408ZM23.4119 14.932H30.0719V15.772H23.4119V14.932ZM23.4119 13.456H30.0719V14.296H23.4119V13.456ZM30.9839 17.932V12.796H22.5239V17.932H24.7559C23.9999 18.424 22.4639 18.976 21.2279 19.264C21.4439 19.444 21.7319 19.744 21.8879 19.924C23.1119 19.612 24.6599 19.036 25.6199 18.448L24.8279 17.932H30.9839ZM27.6959 18.532C28.9559 18.904 30.5639 19.516 31.4639 19.936L32.2319 19.288C31.2959 18.904 29.6999 18.316 28.4639 17.956L27.6959 18.532ZM35.5395 21.148H36.3435L39.9315 9.484H39.1395L35.5395 21.148Z" fill="#00E0B8"/>
<path d="M51.8431 13.752V17.096H48.3871V13.752H51.8431ZM52.9951 18.168V12.696H50.7551V9.848H53.6991V8.696H50.7551V5.608H49.5551V8.696H46.5311V9.848H49.5551V12.696H47.2351V19.288H48.3871V18.168H52.9951ZM60.2111 6.52H54.7231V11.816C54.7231 14.248 54.5311 17.416 52.4831 19.608C52.7871 19.736 53.2671 20.072 53.4591 20.28C55.5871 17.96 55.8911 14.408 55.8911 11.816V7.608H59.0591V11.336C58.5471 10.808 57.5071 9.992 56.6431 9.368L55.9391 10.04C56.7871 10.664 57.8111 11.576 58.3231 12.136L59.0591 11.368V13.08C57.8591 13.72 56.6751 14.328 55.8431 14.728L56.4031 15.832C57.2031 15.352 58.1311 14.76 59.0591 14.2V18.616C59.0591 18.872 58.9631 18.968 58.7071 18.968C58.4831 18.968 57.6351 18.984 56.7391 18.952C56.8991 19.272 57.0751 19.8 57.0911 20.104C58.3391 20.104 59.1231 20.088 59.5871 19.88C60.0511 19.688 60.2111 19.336 60.2111 18.616V6.52ZM64.0991 8.552H74.9951V10.888H76.1951V7.416H70.4991C70.3071 6.888 69.9071 6.104 69.5551 5.512L68.4031 5.848C68.6591 6.312 68.9471 6.92 69.1391 7.416H62.9311V10.888H64.0991V8.552ZM70.1631 15.384H74.8991V14.264H70.1631V11.656H74.2431V10.52H64.9791V11.656H68.9471V18.264C67.6511 17.768 66.6271 16.84 66.0191 15.144C66.1631 14.504 66.2911 13.816 66.3871 13.08L65.2031 12.952C64.8511 15.832 63.9871 18.104 62.2111 19.464C62.4991 19.64 62.9791 20.056 63.1711 20.28C64.2271 19.368 65.0111 18.152 65.5551 16.664C67.0111 19.384 69.3951 19.96 72.7231 19.96H76.4191C76.4831 19.608 76.6751 19.064 76.8671 18.76C76.0991 18.792 73.3631 18.792 72.7871 18.792C71.8431 18.792 70.9631 18.744 70.1631 18.584V15.384ZM81.3311 16.44V12.392H82.8511V11.288H81.3311V7.816H83.1711V6.696H78.4511V7.816H80.2591V11.288H78.5631V12.392H80.2591V16.776C79.5071 17 78.8191 17.208 78.2591 17.368L78.5151 18.488C79.8591 18.088 81.5871 17.528 83.2191 17L83.0591 15.912L81.3311 16.44ZM90.3231 7.752V9.128H86.9951C87.1071 8.728 87.2351 8.232 87.3631 7.752H90.3231ZM92.8671 9.128H91.4111V6.824H87.5871C87.6671 6.424 87.7471 6.056 87.8271 5.688L86.7551 5.592C86.6751 5.96 86.5791 6.392 86.4831 6.824H84.0351V7.752H86.2431C86.1311 8.232 86.0031 8.712 85.8751 9.128H83.2191V10.088H92.8671V9.128ZM85.1071 17.544C85.2351 17.064 85.3471 16.504 85.4591 16.008H87.9551V17.544H85.1071ZM85.1231 11.784H90.7071V13.208H85.1231V11.784ZM92.8831 17.544H89.0751V16.008H92.4991V15.096H89.0751V14.088H91.8271V10.888H84.0511V14.088H87.9551V15.096H83.4271V16.008H84.4031C84.2111 16.856 83.9871 17.816 83.7631 18.488H87.9551V20.216H89.0751V18.488H92.8831V17.544Z" fill="white"/>
</svg>
