<svg width="214" height="103" viewBox="0 0 214 103" fill="none" xmlns="http://www.w3.org/2000/svg">
<path opacity="0.8" d="M20.0111 91.658C20.6411 91.658 21.2571 91.644 21.4811 91.588C21.4391 91.448 21.4111 91.182 21.3831 90.986C21.0891 91.042 20.3891 91.056 19.9831 91.056H15.9931C15.3771 91.056 15.2091 90.874 15.2091 90.342V88.816H20.9911V88.214H15.2091V86.422H14.5371V90.328C14.5371 91.322 14.8871 91.658 16.0071 91.658H20.0111ZM13.5011 92.428C12.9131 92.624 12.3111 92.806 11.7371 92.988V89.936H13.4731V89.278H11.7371V86.352H11.0791V89.278H8.9511V89.936H11.0791V93.212C10.1831 93.478 9.3571 93.73 8.7271 93.912L8.9651 94.57C9.5811 94.374 10.3091 94.136 11.0791 93.898V98.126C11.0791 98.336 10.9951 98.392 10.8131 98.392C10.6451 98.406 10.0431 98.406 9.3571 98.392C9.4551 98.574 9.5671 98.854 9.6091 99.022C10.5051 99.022 11.0091 99.008 11.3171 98.896C11.6111 98.784 11.7371 98.588 11.7371 98.112V93.674L13.5991 93.072L13.5011 92.428ZM20.2911 93.66V95.368H15.1391V93.66H20.2911ZM15.1391 97.748V95.956H20.2911V97.748H15.1391ZM14.4951 99.022H15.1391V98.35H20.2911V98.952H20.9491V93.058H14.4951V99.022ZM33.4231 90.328H28.1451V89.572H33.4231V90.328ZM33.4231 91.56H28.1451V90.79H33.4231V91.56ZM33.4231 92.806H28.1451V92.022H33.4231V92.806ZM27.5151 89.096V93.282H34.0811V89.096H30.5531C30.7071 88.844 30.8471 88.55 30.9731 88.256H35.1871V87.696H32.7231C32.9751 87.346 33.2411 86.954 33.4931 86.562L32.8491 86.366C32.6671 86.744 32.3171 87.304 32.0371 87.696H29.3631L29.6991 87.556C29.5871 87.206 29.2371 86.688 28.9151 86.352L28.3691 86.562C28.6491 86.898 28.9571 87.346 29.0831 87.696H26.5771V88.256H30.3151C30.2031 88.536 30.0631 88.83 29.9371 89.096H27.5151ZM24.9531 87.724C24.8131 87.36 24.5191 86.786 24.3091 86.338L23.7491 86.506C23.9451 86.968 24.2111 87.57 24.3651 87.948L24.9531 87.724ZM25.3731 96.726C26.1711 97.188 27.1091 97.902 27.5291 98.42L28.0191 97.958C27.5711 97.44 26.6191 96.754 25.8211 96.32L25.3731 96.726ZM32.5131 94.668H31.8691V95.578H23.1191V96.152H31.8691V98.126C31.8691 98.322 31.8131 98.378 31.5611 98.378C31.3371 98.392 30.5391 98.406 29.5311 98.378C29.6291 98.56 29.7271 98.784 29.7691 98.966C30.9731 98.966 31.6731 98.966 32.0511 98.854C32.4291 98.742 32.5131 98.56 32.5131 98.126V96.152H35.3131V95.578H32.5131V94.668ZM25.8631 90.16L25.7651 90.202H24.5611C24.9531 89.572 25.4011 88.788 25.7931 88.102H23.0071V88.676H24.8131C24.4211 89.404 23.9451 90.188 23.5671 90.762H25.4571C25.1631 91.56 24.7151 92.428 24.2111 93.002C23.8331 93.268 23.4411 93.674 23.0491 94.122L23.4691 94.64C24.0151 93.898 24.5611 93.268 24.9251 93.268C25.2051 93.268 25.6111 93.618 26.1151 93.926C27.0251 94.43 28.2851 94.514 29.9091 94.514C31.3511 94.514 34.0811 94.444 35.4111 94.36C35.4251 94.192 35.5231 93.87 35.6071 93.702C34.1231 93.842 31.8271 93.94 29.9231 93.94C28.3691 93.94 27.1511 93.884 26.2971 93.422C25.7231 93.086 25.4291 92.806 25.1071 92.736C25.5691 92.05 25.9751 91.14 26.2551 90.328L25.8631 90.16ZM42.6631 91.224V88.998H46.3591C45.5891 89.796 44.7351 90.538 43.8251 91.224H42.6631ZM49.4531 91.868V91.224H44.8891C46.3451 90.034 47.6751 88.676 48.7811 87.206L48.1791 86.87C47.6611 87.584 47.0591 88.256 46.4291 88.914V88.368H42.6911V86.338H42.0331V88.368H38.2531V88.998H42.0331V91.224H37.0631V91.868H42.9431C41.0811 93.17 39.0091 94.248 36.8531 95.074C37.0071 95.214 37.2311 95.494 37.3431 95.648C38.5611 95.144 39.7651 94.57 40.9131 93.912V97.426C40.9131 98.476 41.3891 98.7 43.0691 98.7H47.4371C48.9771 98.7 49.2431 98.238 49.3971 96.306C49.1871 96.264 48.9211 96.166 48.7391 96.04C48.6271 97.748 48.4591 98.07 47.4371 98.07H43.0131C41.8231 98.07 41.5991 97.944 41.5991 97.412V95.13H48.0251V94.5H41.5991V93.52C42.4531 93.002 43.2651 92.456 44.0631 91.868H49.4531ZM55.0251 94.248V97.048H52.0991V94.248H55.0251ZM54.8851 89.068V91.49H52.0991V89.068H54.8851ZM52.0991 92.106H55.5291V88.452H53.2751C53.5551 87.864 53.8351 87.122 54.0731 86.492L53.3591 86.324C53.2051 86.94 52.8971 87.822 52.6311 88.452H51.4551V98.63H52.0991V97.65H55.6411V93.632H52.0991V92.106ZM63.5511 87.752V87.122H56.1731V87.752H59.5051V89.754H56.7331V96.964H57.3631V90.384H59.5051V98.994H60.1491V90.384H62.4591V96.082C62.4591 96.208 62.4171 96.264 62.2631 96.264C62.1091 96.278 61.6191 96.278 60.9891 96.264C61.0731 96.446 61.1851 96.712 61.2131 96.866C61.9971 96.866 62.4591 96.866 62.7391 96.768C63.0471 96.656 63.1031 96.446 63.1031 96.082V89.754H60.1491V87.752H63.5511ZM71.2511 90.16C71.7131 90.16 72.1471 89.824 72.1471 89.264C72.1471 88.69 71.7131 88.368 71.2511 88.368C70.7891 88.368 70.3551 88.69 70.3551 89.264C70.3551 89.824 70.7891 90.16 71.2511 90.16ZM71.2511 97.104C71.7131 97.104 72.1471 96.782 72.1471 96.222C72.1471 95.648 71.7131 95.326 71.2511 95.326C70.7891 95.326 70.3551 95.648 70.3551 96.222C70.3551 96.782 70.7891 97.104 71.2511 97.104ZM82.0031 91.798C81.4151 91.322 80.2391 90.692 79.2871 90.3L78.9371 90.818C79.8891 91.21 81.0511 91.868 81.6251 92.372L82.0031 91.798ZM79.8051 98.84C80.6731 97.58 81.7651 95.746 82.5491 94.262L82.0731 93.814C81.2191 95.382 80.0571 97.3 79.2591 98.378L79.8051 98.84ZM79.5531 86.996C80.5471 87.402 81.7651 88.074 82.3531 88.578L82.7311 88.004C82.1291 87.514 80.9251 86.856 79.9171 86.478L79.5531 86.996ZM87.5751 97.79V93.058H91.1031V92.414H87.5751V88.158H91.3131V87.514H83.4871V88.158H86.9031V92.414H83.7391V93.058H86.9031V97.79H82.8991V98.434H91.4811V97.79H87.5751ZM94.0011 88.312H104.515V89.964H105.187V87.71H100.049C99.8531 87.29 99.5451 86.702 99.2511 86.268L98.5791 86.464C98.8311 86.828 99.0831 87.318 99.2651 87.71H93.3431V89.964H94.0011V88.312ZM103.787 94.584C103.171 95.06 102.121 95.746 101.281 96.194C100.693 95.648 100.217 95.004 99.8671 94.262H105.131V93.66H95.1911C95.2051 93.352 95.2051 93.058 95.2051 92.792V92.316H103.255V91.728H95.2051V90.426H104.095V89.81H94.5331V92.778C94.5331 94.584 94.3371 96.95 92.8251 98.686C92.9931 98.756 93.2591 98.952 93.3711 99.092C94.5611 97.72 94.9951 95.9 95.1491 94.262H96.6051V97.454C96.6051 98.028 96.1711 98.308 95.9331 98.42C96.0451 98.588 96.2131 98.882 96.2551 99.064C96.5071 98.896 96.9271 98.784 100.763 97.86C100.749 97.72 100.749 97.468 100.763 97.3L97.2771 98.042V94.262H99.2091C100.245 96.656 102.373 98.224 105.271 98.84C105.369 98.672 105.537 98.406 105.691 98.266C104.109 97.986 102.751 97.384 101.687 96.558C102.527 96.138 103.549 95.55 104.305 94.976L103.787 94.584ZM119.383 91.63V91H112.103C112.355 90.51 112.593 89.992 112.789 89.474L112.285 89.334C112.803 89.18 113.293 88.998 113.783 88.802C115.323 89.376 116.709 89.978 117.675 90.496L118.151 89.964C117.241 89.502 115.967 88.984 114.595 88.466C115.785 87.934 116.863 87.36 117.745 86.688L117.199 86.338C116.289 87.024 115.113 87.64 113.783 88.172C112.229 87.612 110.563 87.08 109.093 86.674L108.645 87.108C109.989 87.472 111.501 87.962 112.957 88.494C111.305 89.082 109.499 89.558 107.791 89.88C107.931 90.006 108.155 90.286 108.253 90.454C109.485 90.174 110.787 89.824 112.075 89.404C111.865 89.95 111.613 90.482 111.333 91H107.119V91.63H110.955C109.947 93.198 108.547 94.598 106.853 95.55C106.993 95.676 107.175 95.9 107.287 96.054C108.113 95.578 108.883 95.004 109.555 94.36V98.154H110.227V94.164H113.447V99.022H114.105V94.164H117.619V97.202C117.619 97.384 117.563 97.44 117.325 97.454C117.115 97.468 116.387 97.468 115.435 97.44C115.533 97.622 115.645 97.846 115.687 98.042C116.807 98.042 117.479 98.042 117.829 97.93C118.179 97.804 118.277 97.622 118.277 97.202V93.548H114.105V92.036H113.447V93.548H110.339C110.857 92.946 111.333 92.302 111.739 91.63H119.383ZM139.59 91.63V91H132.31C132.562 90.51 132.8 89.992 132.996 89.474L132.492 89.334C133.01 89.18 133.5 88.998 133.99 88.802C135.53 89.376 136.916 89.978 137.882 90.496L138.358 89.964C137.448 89.502 136.174 88.984 134.802 88.466C135.992 87.934 137.07 87.36 137.952 86.688L137.406 86.338C136.496 87.024 135.32 87.64 133.99 88.172C132.436 87.612 130.77 87.08 129.3 86.674L128.852 87.108C130.196 87.472 131.708 87.962 133.164 88.494C131.512 89.082 129.706 89.558 127.998 89.88C128.138 90.006 128.362 90.286 128.46 90.454C129.692 90.174 130.994 89.824 132.282 89.404C132.072 89.95 131.82 90.482 131.54 91H127.326V91.63H131.162C130.154 93.198 128.754 94.598 127.06 95.55C127.2 95.676 127.382 95.9 127.494 96.054C128.32 95.578 129.09 95.004 129.762 94.36V98.154H130.434V94.164H133.654V99.022H134.312V94.164H137.826V97.202C137.826 97.384 137.77 97.44 137.532 97.454C137.322 97.468 136.594 97.468 135.642 97.44C135.74 97.622 135.852 97.846 135.894 98.042C137.014 98.042 137.686 98.042 138.036 97.93C138.386 97.804 138.484 97.622 138.484 97.202V93.548H134.312V92.036H133.654V93.548H130.546C131.064 92.946 131.54 92.302 131.946 91.63H139.59ZM153.59 91.63V91H146.31C146.562 90.51 146.8 89.992 146.996 89.474L146.492 89.334C147.01 89.18 147.5 88.998 147.99 88.802C149.53 89.376 150.916 89.978 151.882 90.496L152.358 89.964C151.448 89.502 150.174 88.984 148.802 88.466C149.992 87.934 151.07 87.36 151.952 86.688L151.406 86.338C150.496 87.024 149.32 87.64 147.99 88.172C146.436 87.612 144.77 87.08 143.3 86.674L142.852 87.108C144.196 87.472 145.708 87.962 147.164 88.494C145.512 89.082 143.706 89.558 141.998 89.88C142.138 90.006 142.362 90.286 142.46 90.454C143.692 90.174 144.994 89.824 146.282 89.404C146.072 89.95 145.82 90.482 145.54 91H141.326V91.63H145.162C144.154 93.198 142.754 94.598 141.06 95.55C141.2 95.676 141.382 95.9 141.494 96.054C142.32 95.578 143.09 95.004 143.762 94.36V98.154H144.434V94.164H147.654V99.022H148.312V94.164H151.826V97.202C151.826 97.384 151.77 97.44 151.532 97.454C151.322 97.468 150.594 97.468 149.642 97.44C149.74 97.622 149.852 97.846 149.894 98.042C151.014 98.042 151.686 98.042 152.036 97.93C152.386 97.804 152.484 97.622 152.484 97.202V93.548H148.312V92.036H147.654V93.548H144.546C145.064 92.946 145.54 92.302 145.946 91.63H153.59Z" fill="white"/>
<path d="M9.8531 56.5538L13.2931 49.3858L12.4291 49.0978L8.8771 56.5538L12.4291 64.0098L13.2931 63.7218L9.8531 56.5538ZM12.3811 56.5538L15.8211 49.3858L14.9571 49.0978L11.4051 56.5538L14.9571 64.0098L15.8211 63.7218L12.3811 56.5538ZM25.2072 61.9298V58.2978H32.3112V61.9298H25.2072ZM31.6872 51.9298C30.7752 53.2738 29.4472 54.4578 27.9112 55.4178C27.1272 54.6658 25.7832 53.6578 24.6952 52.8898C25.0632 52.5698 25.4312 52.2658 25.7672 51.9298H31.6872ZM33.5272 57.1938H27.1752C29.8312 55.7858 32.1352 53.8178 33.4472 51.2738L32.6472 50.7778L32.4552 50.8418H26.7912C27.1912 50.3938 27.5272 49.9298 27.8312 49.4818L26.5032 49.1938C25.5432 50.7138 23.7352 52.4898 21.1592 53.7378C21.4152 53.9138 21.7992 54.3618 21.9752 54.6338C22.6152 54.3138 23.2072 53.9458 23.7672 53.5618C24.8232 54.3458 26.0392 55.3058 26.8072 56.0738C24.9192 57.0978 22.8072 57.8498 20.7752 58.2658C21.0152 58.5218 21.2872 59.0338 21.3832 59.3538C22.2632 59.1458 23.1592 58.8898 24.0392 58.5858V63.8498H25.2072V63.0178H32.3112V63.8498H33.5272V57.1938ZM38.2632 63.6898C39.3352 62.8578 39.8632 61.4338 40.1992 60.1058L39.1912 59.7858C38.9032 61.0338 38.3112 62.3458 37.3352 63.0818L38.2632 63.6898ZM41.2552 60.2498C41.5272 61.1938 41.6872 62.3938 41.6392 63.1778L42.6952 63.0338C42.6952 62.2658 42.5352 61.0498 42.2312 60.1218L41.2552 60.2498ZM43.6872 60.0738C44.0712 60.9058 44.4072 61.9938 44.5192 62.6818L45.5112 62.4258C45.3672 61.7218 45.0312 60.6498 44.6152 59.8498L43.6872 60.0738ZM48.4872 55.9458C48.3752 56.6018 48.2632 57.2578 48.1512 57.8018H41.1912C41.7832 57.2258 42.3112 56.6018 42.8232 55.9458H48.4872ZM47.1912 53.0978C47.0792 53.7378 46.9512 54.3938 46.8072 54.9218H43.5432C43.9432 54.3298 44.3112 53.7218 44.6472 53.0978H47.1912ZM50.8552 57.8018H49.2392C49.4152 56.9538 49.5912 55.8498 49.7512 54.9218H47.9112C48.1032 54.0898 48.2952 52.9858 48.4552 52.0418H45.1752C45.5592 51.2418 45.8952 50.4098 46.1992 49.5778L45.0312 49.2418C44.7272 50.1858 44.3432 51.1298 43.8952 52.0418H41.0312L41.9112 51.6578C41.7032 51.0178 41.1272 50.0418 40.5992 49.3218L39.5912 49.7218C40.0872 50.4418 40.5992 51.4018 40.8232 52.0418H37.6552V53.0978H43.3352C41.7832 55.8178 39.5592 58.2178 36.5992 59.7538C36.8072 59.9938 37.0952 60.4578 37.2392 60.7458C38.2632 60.2018 39.1912 59.5618 40.0392 58.8578H49.6232C49.3672 61.3538 49.1112 62.3618 48.7752 62.6818C48.6312 62.8258 48.4712 62.8418 48.2152 62.8418C47.9112 62.8418 47.1912 62.8418 46.4232 62.7618C46.5992 63.0498 46.7112 63.5138 46.7272 63.8178C47.5272 63.8658 48.2952 63.8818 48.6952 63.8338C49.1432 63.8018 49.4472 63.7058 49.7192 63.4178C50.2152 62.9058 50.5192 61.6098 50.8072 58.3138L50.8552 57.8018ZM48.0712 61.5618C47.8632 61.0018 47.3672 60.1058 46.8552 59.4658L46.0232 59.7698C46.5192 60.4418 46.9992 61.3378 47.2072 61.9458L48.0712 61.5618ZM56.2472 49.3058C55.3352 51.7378 53.8632 54.1218 52.2952 55.6578C52.5192 55.9298 52.8392 56.5378 52.9672 56.8258C53.5112 56.2338 54.0712 55.5778 54.5832 54.8418V63.8178H55.7192V53.0658C56.3432 51.9778 56.9032 50.8258 57.3672 49.6418L56.2472 49.3058ZM59.1592 56.0578C58.7272 57.9458 57.9752 59.8498 56.9672 61.0658C57.2552 61.2258 57.7672 61.5298 57.9912 61.7218C58.9672 60.3938 59.8152 58.3778 60.3272 56.2818L59.1592 56.0578ZM65.9272 53.4178C65.7992 54.2338 65.6552 55.0818 65.5592 55.6578L66.5512 55.8498C66.7592 55.0018 67.0472 53.6258 67.2552 52.4578L66.4392 52.2658L66.2472 52.3138H59.7672C60.0872 51.4338 60.3752 50.5058 60.6152 49.5778L59.4472 49.3218C58.9192 51.6578 57.9912 53.9458 56.8232 55.4178C57.0792 55.5938 57.5752 55.9938 57.7672 56.1698C58.3432 55.4178 58.8712 54.4738 59.3192 53.4178H61.7512V62.4098C61.7512 62.6178 61.6872 62.6818 61.4792 62.6818C61.2712 62.6818 60.5832 62.6978 59.8312 62.6658C59.9912 63.0018 60.1832 63.5298 60.2472 63.8658C61.2552 63.8658 61.9272 63.8338 62.3592 63.6258C62.7752 63.4338 62.9192 63.0818 62.9192 62.4098V53.4178H65.9272ZM64.0872 56.2818C64.9352 57.9618 65.7352 60.2018 65.9912 61.6578L67.1272 61.2738C66.8552 59.8178 66.0392 57.6258 65.1272 55.9298L64.0872 56.2818ZM73.8632 56.2178H70.5032V52.8738H73.8632V56.2178ZM70.5032 61.1138V57.2738H73.8632V61.1138H70.5032ZM71.8472 49.2098C71.7352 49.9618 71.4472 51.0338 71.2072 51.8018H69.4152V63.4498H70.5032V62.1858H74.9512V51.8018H72.2952C72.5672 51.1138 72.8552 50.2338 73.1272 49.4498L71.8472 49.2098ZM82.7752 51.7538H77.9912C78.2632 51.0018 78.4872 50.2338 78.6792 49.4498L77.5432 49.1778C77.0312 51.3698 76.1672 53.5778 75.0952 54.9858C75.3512 55.1458 75.8632 55.4658 76.0712 55.6578C76.6312 54.9058 77.1272 53.9298 77.5752 52.8578H81.6392C81.4312 59.2258 81.1912 61.6578 80.6632 62.2178C80.5032 62.4258 80.3272 62.4578 80.0072 62.4578C79.6392 62.4578 78.6792 62.4578 77.6392 62.3618C77.8632 62.6978 78.0072 63.1778 78.0392 63.5298C78.9352 63.5778 79.8472 63.6098 80.4072 63.5458C80.9512 63.4978 81.3192 63.3538 81.6712 62.9058C82.3112 62.1218 82.5192 59.6578 82.7752 52.3618V51.7538ZM80.2472 58.9538C79.7352 58.0098 78.6312 56.4738 77.7352 55.3378L76.8072 55.8818C77.6872 57.0338 78.7592 58.6178 79.2392 59.5778L80.2472 58.9538ZM88.6312 51.2418C88.3912 50.6818 87.8632 49.8498 87.3992 49.1938L86.4872 49.6578C86.9192 50.3138 87.4312 51.2098 87.6712 51.7858L88.6312 51.2418ZM89.0472 59.2578V61.8978H86.3752V59.2578H89.0472ZM90.1032 58.2658H85.3352V63.6418H86.3752V62.8898H90.1032V58.2658ZM85.3352 57.0818H89.9752V56.1378H85.3352V57.0818ZM89.9752 54.0578H85.3352V55.0018H89.9752V54.0578ZM84.6792 52.9378H90.5192V51.9618H84.6792V52.9378ZM91.5592 59.4818C92.2312 60.2178 93.0472 61.2578 93.4152 61.8978L94.3432 61.3378C93.9752 60.6978 93.1272 59.7058 92.4552 59.0018L91.5592 59.4818ZM97.3512 55.7218H96.1832V57.2898H90.6152V58.3778H96.1832V62.4578C96.1832 62.6658 96.1032 62.7138 95.8792 62.7298C95.6712 62.7298 94.9512 62.7298 94.1672 62.7138C94.3272 63.0338 94.5032 63.4818 94.5672 63.8178C95.6072 63.8178 96.3112 63.8018 96.7592 63.6098C97.2072 63.4338 97.3512 63.1298 97.3512 62.4738V58.3778H99.2552V57.2898H97.3512V55.7218ZM95.4472 51.1458V49.2578H94.2792V51.1458H90.5992V52.2498H94.2792V54.2978H91.1112V55.3698H98.7592V54.2978H95.4472V52.2498H99.3032V51.1458H95.4472ZM107.521 64.0098L111.073 56.5538L107.521 49.0978L106.657 49.3858L110.097 56.5538L106.657 63.7218L107.521 64.0098ZM104.993 64.0098L108.545 56.5538L104.993 49.0978L104.129 49.3858L107.569 56.5538L104.129 63.7218L104.993 64.0098ZM125.521 59.4338C124.801 60.5058 123.745 61.7058 122.801 62.5058C123.089 62.6818 123.569 63.0018 123.809 63.1778C124.705 62.3138 125.809 60.9698 126.625 59.8178L125.521 59.4338ZM125.473 56.2178H132.113V57.7058H125.473V56.2178ZM125.473 53.8338H132.113V55.3218H125.473V53.8338ZM133.313 58.6498V52.8898H128.705C128.929 52.4898 129.169 52.0578 129.409 51.6258L128.033 51.4178C127.889 51.8338 127.665 52.4098 127.425 52.8898H124.305V58.6498H128.209V62.5378C128.209 62.7298 128.145 62.7938 127.889 62.8098C127.649 62.8098 126.833 62.8098 125.905 62.7938C126.049 63.0978 126.225 63.5298 126.273 63.8498C127.489 63.8498 128.273 63.8498 128.753 63.6578C129.233 63.4818 129.361 63.1778 129.361 62.5538V58.6498H133.313ZM130.705 59.9618C131.665 61.0018 132.929 62.4098 133.521 63.2738L134.513 62.6338C133.873 61.8178 132.593 60.4578 131.649 59.4658L130.705 59.9618ZM134.577 50.1378H121.697V54.6498C121.697 57.0818 121.553 60.5058 120.161 62.9378C120.465 63.0498 120.961 63.3378 121.185 63.5298C122.657 60.9858 122.865 57.2098 122.865 54.6498V51.2258H134.577V50.1378ZM148.497 52.3458H143.489V50.8578H148.497V52.3458ZM148.497 54.7778H143.489V53.2578H148.497V54.7778ZM149.681 49.8978H142.337V55.7378H149.681V49.8978ZM139.841 51.8658V58.5378H137.969V51.8658H139.841ZM140.945 50.7618H136.865V61.1618H137.969V59.6418H140.945V50.7618ZM143.009 62.1858V60.4898H149.041V62.1858H143.009ZM149.041 57.8818V59.4818H143.009V57.8818H149.041ZM141.841 56.8578V63.8498H143.009V63.2258H149.041V63.7698H150.241V56.8578H141.841ZM151.729 65.4978H152.801L157.585 49.9458H156.529L151.729 65.4978ZM172.859 54.6818V53.4818H166.235C166.411 51.9618 166.427 50.5058 166.443 49.2578H165.179C165.163 50.4738 165.179 51.9458 165.003 53.4818H158.843V54.6818H164.811C164.235 57.8498 162.683 61.0978 158.475 62.8738C158.811 63.1138 159.179 63.5458 159.355 63.8498C161.227 63.0178 162.587 61.9138 163.595 60.6338C164.667 61.5618 165.931 62.8418 166.523 63.6738L167.531 62.8898C166.875 62.0258 165.515 60.7298 164.411 59.8338L163.947 60.1538C164.987 58.6978 165.579 57.0818 165.931 55.4498C167.147 59.3218 169.195 62.3458 172.379 63.8818C172.587 63.5458 172.971 63.0498 173.275 62.7938C170.091 61.4338 167.995 58.3938 166.907 54.6818H172.859ZM178.779 53.7538C178.763 55.2898 178.619 57.1138 177.835 58.9218C177.275 58.4418 176.699 57.9938 176.139 57.5778C176.459 56.5058 176.779 55.2098 177.067 53.8658L178.779 53.7538ZM180.507 53.6418V52.6338L179.867 52.6658V51.5138H178.779V52.7298L177.307 52.7938C177.531 51.6258 177.739 50.4418 177.883 49.3858L176.779 49.3058C176.651 50.3938 176.443 51.6418 176.203 52.8578C175.563 52.8898 174.955 52.9218 174.443 52.9378L174.571 54.0258L175.979 53.9458C175.627 55.4658 175.259 56.9058 174.891 57.9618C175.659 58.5218 176.523 59.2258 177.323 59.9138C176.667 61.0338 175.723 62.1058 174.363 63.0658C174.635 63.2418 175.003 63.6098 175.179 63.8498C176.523 62.8738 177.483 61.8018 178.187 60.6658C178.827 61.2738 179.371 61.8338 179.771 62.2818L180.491 61.3538C180.075 60.8738 179.435 60.2818 178.731 59.6578C179.691 57.5778 179.851 55.4658 179.867 53.6898L180.507 53.6418ZM183.547 55.8658V55.6738V51.2578H186.059V55.8658H183.547ZM189.115 55.8658H187.227V51.2578H188.827V50.1378H180.763V51.2578H182.395V55.6738V55.8658H180.331V56.9858H182.363C182.251 59.1138 181.755 61.4978 179.995 63.2098C180.267 63.3698 180.715 63.7058 180.923 63.9298C182.875 62.0418 183.403 59.4178 183.515 56.9858H186.059V63.8658H187.227V56.9858H189.115V55.8658Z" fill="#00E0B8"/>
<path d="M210.273 33.2754L8.46057 33.2754V34.0521L210.273 34.0521V33.2754Z" fill="white"/>
<path d="M213.328 30.5435H200.238V36.6521H213.328V30.5435Z" fill="#00E0B8"/>
<path d="M15.6551 12.7C15.4391 12.484 15.1271 12.256 14.7911 12.04C15.0551 11.788 15.2831 11.536 15.4871 11.272L14.8631 11.068C14.6951 11.296 14.4791 11.512 14.2631 11.704C13.9511 11.536 13.6391 11.356 13.3391 11.224L12.8951 11.62C13.1711 11.752 13.4711 11.908 13.7591 12.088C13.3991 12.34 13.0151 12.568 12.6191 12.748C12.7751 12.868 13.0271 13.096 13.1111 13.216C13.5071 13 13.9151 12.748 14.3111 12.436C14.6591 12.688 14.9711 12.916 15.1751 13.132L15.6551 12.7ZM15.6191 10.552C15.4031 10.384 15.1151 10.192 14.7911 9.988C15.0431 9.748 15.2591 9.508 15.4511 9.256L14.8271 9.088C14.6711 9.28 14.4791 9.484 14.2631 9.676C13.9511 9.508 13.6511 9.352 13.3631 9.232L12.9311 9.628C13.1951 9.748 13.4951 9.892 13.7711 10.06C13.4351 10.288 13.0751 10.504 12.7031 10.672C12.8591 10.78 13.1111 10.996 13.2071 11.104C13.5791 10.912 13.9511 10.66 14.3231 10.384C14.6471 10.588 14.9591 10.816 15.1511 10.996L15.6191 10.552ZM10.0391 13.912H18.4751V15.4H19.3511V13.228H18.4151C18.5111 12.16 18.6191 10.612 18.6791 9.424H15.9071V10.036H17.8151L17.7791 10.684H15.9671V11.296H17.7431L17.6831 11.944H15.8951V12.556H17.6351C17.6111 12.796 17.5871 13.012 17.5631 13.228H10.9871L10.9391 12.556H12.6071V11.944H10.9031L10.8551 11.296H12.5591V10.684H10.8191L10.7711 10.096C11.3951 9.976 12.1031 9.82 12.6311 9.628L12.2231 9.076C11.6351 9.256 10.6031 9.544 9.9071 9.664L10.1471 13.228H9.1871V15.4H10.0391V13.912ZM19.5911 16.828H14.7911V16.612C15.7391 16.228 16.7591 15.7 17.5031 15.124L16.9631 14.68L16.7831 14.728H11.1431V15.4H15.8351C15.2591 15.748 14.5631 16.084 13.9271 16.312V16.828H8.9231V17.584H13.9271V18.94C13.9271 19.108 13.8791 19.144 13.6751 19.156C13.4951 19.156 12.8231 19.156 12.0791 19.132C12.1991 19.36 12.3431 19.66 12.3911 19.888C13.3391 19.888 13.9391 19.9 14.3231 19.768C14.6951 19.636 14.7911 19.432 14.7911 18.964V17.584H19.5911V16.828ZM29.1191 11.392H23.4431V10.144H29.1191V11.392ZM30.0431 9.424H22.5551V12.112H30.0431V9.424ZM22.9391 16.408H29.5991V17.272H22.9391V16.408ZM22.9391 14.932H29.5991V15.772H22.9391V14.932ZM22.9391 13.456H29.5991V14.296H22.9391V13.456ZM30.5111 17.932V12.796H22.0511V17.932H24.2831C23.5271 18.424 21.9911 18.976 20.7551 19.264C20.9711 19.444 21.2591 19.744 21.4151 19.924C22.6391 19.612 24.1871 19.036 25.1471 18.448L24.3551 17.932H30.5111ZM27.2231 18.532C28.4831 18.904 30.0911 19.516 30.9911 19.936L31.7591 19.288C30.8231 18.904 29.2271 18.316 27.9911 17.956L27.2231 18.532ZM35.0667 21.148H35.8707L39.4587 9.484H38.6667L35.0667 21.148Z" fill="#00E0B8"/>
<path d="M48.0571 14.232L48.6331 12.44C49.0491 11.112 49.4331 9.848 49.8011 8.472H49.8651C50.2491 9.832 50.6171 11.112 51.0491 12.44L51.6091 14.232H48.0571ZM53.0971 19H54.6651L50.6811 7.272H49.0331L45.0491 19H46.5531L47.6891 15.416H51.9771L53.0971 19ZM56.1918 19H57.6478V12.696C58.5278 11.816 59.1358 11.368 60.0318 11.368C61.1838 11.368 61.6798 12.056 61.6798 13.688V19H63.1358V13.496C63.1358 11.272 62.3038 10.088 60.4798 10.088C59.2958 10.088 58.3998 10.744 57.5678 11.56H57.5198L57.3918 10.312H56.1918V19ZM65.9731 19H67.4291V10.312H65.9731V19ZM66.7091 8.52C67.2851 8.52 67.7171 8.12 67.7171 7.576C67.7171 6.984 67.2851 6.632 66.7091 6.632C66.1331 6.632 65.7011 6.984 65.7011 7.576C65.7011 8.12 66.1331 8.52 66.7091 8.52ZM73.1153 19.208C73.6433 19.208 74.2193 19.048 74.7153 18.888L74.4273 17.8C74.1393 17.912 73.7393 18.024 73.4353 18.024C72.4273 18.024 72.0913 17.416 72.0913 16.344V11.496H74.4433V10.312H72.0913V7.88H70.8753L70.6993 10.312L69.3393 10.392V11.496H70.6353V16.312C70.6353 18.056 71.2593 19.208 73.1153 19.208ZM78.02 19.208C79.092 19.208 80.068 18.648 80.9 17.96H80.948L81.076 19H82.276V13.656C82.276 11.512 81.38 10.088 79.268 10.088C77.876 10.088 76.644 10.712 75.844 11.224L76.42 12.232C77.108 11.768 78.02 11.304 79.028 11.304C80.452 11.304 80.82 12.376 80.82 13.496C77.124 13.912 75.476 14.856 75.476 16.744C75.476 18.312 76.564 19.208 78.02 19.208ZM78.436 18.04C77.572 18.04 76.9 17.64 76.9 16.648C76.9 15.528 77.892 14.808 80.82 14.456V16.888C79.972 17.64 79.284 18.04 78.436 18.04Z" fill="white"/>
</svg>
