<svg width="214" height="103" viewBox="0 0 214 103" fill="none" xmlns="http://www.w3.org/2000/svg">
<path opacity="0.8" d="M20.5383 91.658C21.1683 91.658 21.7843 91.644 22.0083 91.588C21.9663 91.448 21.9383 91.182 21.9103 90.986C21.6163 91.042 20.9163 91.056 20.5103 91.056H16.5203C15.9043 91.056 15.7363 90.874 15.7363 90.342V88.816H21.5183V88.214H15.7363V86.422H15.0643V90.328C15.0643 91.322 15.4143 91.658 16.5343 91.658H20.5383ZM14.0283 92.428C13.4403 92.624 12.8383 92.806 12.2643 92.988V89.936H14.0003V89.278H12.2643V86.352H11.6063V89.278H9.47832V89.936H11.6063V93.212C10.7103 93.478 9.88432 93.73 9.25432 93.912L9.49232 94.57C10.1083 94.374 10.8363 94.136 11.6063 93.898V98.126C11.6063 98.336 11.5223 98.392 11.3403 98.392C11.1723 98.406 10.5703 98.406 9.88432 98.392C9.98232 98.574 10.0943 98.854 10.1363 99.022C11.0323 99.022 11.5363 99.008 11.8443 98.896C12.1383 98.784 12.2643 98.588 12.2643 98.112V93.674L14.1263 93.072L14.0283 92.428ZM20.8183 93.66V95.368H15.6663V93.66H20.8183ZM15.6663 97.748V95.956H20.8183V97.748H15.6663ZM15.0223 99.022H15.6663V98.35H20.8183V98.952H21.4763V93.058H15.0223V99.022ZM33.9503 90.328H28.6723V89.572H33.9503V90.328ZM33.9503 91.56H28.6723V90.79H33.9503V91.56ZM33.9503 92.806H28.6723V92.022H33.9503V92.806ZM28.0423 89.096V93.282H34.6083V89.096H31.0803C31.2343 88.844 31.3743 88.55 31.5003 88.256H35.7143V87.696H33.2503C33.5023 87.346 33.7683 86.954 34.0203 86.562L33.3763 86.366C33.1943 86.744 32.8443 87.304 32.5643 87.696H29.8903L30.2263 87.556C30.1143 87.206 29.7643 86.688 29.4423 86.352L28.8963 86.562C29.1763 86.898 29.4843 87.346 29.6103 87.696H27.1043V88.256H30.8423C30.7303 88.536 30.5903 88.83 30.4643 89.096H28.0423ZM25.4803 87.724C25.3403 87.36 25.0463 86.786 24.8363 86.338L24.2763 86.506C24.4723 86.968 24.7383 87.57 24.8923 87.948L25.4803 87.724ZM25.9003 96.726C26.6983 97.188 27.6363 97.902 28.0563 98.42L28.5463 97.958C28.0983 97.44 27.1463 96.754 26.3483 96.32L25.9003 96.726ZM33.0403 94.668H32.3963V95.578H23.6463V96.152H32.3963V98.126C32.3963 98.322 32.3403 98.378 32.0883 98.378C31.8643 98.392 31.0663 98.406 30.0583 98.378C30.1563 98.56 30.2543 98.784 30.2963 98.966C31.5003 98.966 32.2003 98.966 32.5783 98.854C32.9563 98.742 33.0403 98.56 33.0403 98.126V96.152H35.8403V95.578H33.0403V94.668ZM26.3903 90.16L26.2923 90.202H25.0883C25.4803 89.572 25.9283 88.788 26.3203 88.102H23.5343V88.676H25.3403C24.9483 89.404 24.4723 90.188 24.0943 90.762H25.9843C25.6903 91.56 25.2423 92.428 24.7383 93.002C24.3603 93.268 23.9683 93.674 23.5763 94.122L23.9963 94.64C24.5423 93.898 25.0883 93.268 25.4523 93.268C25.7323 93.268 26.1383 93.618 26.6423 93.926C27.5523 94.43 28.8123 94.514 30.4363 94.514C31.8783 94.514 34.6083 94.444 35.9383 94.36C35.9523 94.192 36.0503 93.87 36.1343 93.702C34.6503 93.842 32.3543 93.94 30.4503 93.94C28.8963 93.94 27.6783 93.884 26.8243 93.422C26.2503 93.086 25.9563 92.806 25.6343 92.736C26.0963 92.05 26.5023 91.14 26.7823 90.328L26.3903 90.16ZM43.1903 91.224V88.998H46.8863C46.1163 89.796 45.2623 90.538 44.3523 91.224H43.1903ZM49.9803 91.868V91.224H45.4163C46.8723 90.034 48.2023 88.676 49.3083 87.206L48.7063 86.87C48.1883 87.584 47.5863 88.256 46.9563 88.914V88.368H43.2183V86.338H42.5603V88.368H38.7803V88.998H42.5603V91.224H37.5903V91.868H43.4703C41.6083 93.17 39.5363 94.248 37.3803 95.074C37.5343 95.214 37.7583 95.494 37.8703 95.648C39.0883 95.144 40.2923 94.57 41.4403 93.912V97.426C41.4403 98.476 41.9163 98.7 43.5963 98.7H47.9643C49.5043 98.7 49.7703 98.238 49.9243 96.306C49.7143 96.264 49.4483 96.166 49.2663 96.04C49.1543 97.748 48.9863 98.07 47.9643 98.07H43.5403C42.3503 98.07 42.1263 97.944 42.1263 97.412V95.13H48.5523V94.5H42.1263V93.52C42.9803 93.002 43.7923 92.456 44.5903 91.868H49.9803ZM55.5523 94.248V97.048H52.6263V94.248H55.5523ZM55.4123 89.068V91.49H52.6263V89.068H55.4123ZM52.6263 92.106H56.0563V88.452H53.8023C54.0823 87.864 54.3623 87.122 54.6003 86.492L53.8863 86.324C53.7323 86.94 53.4243 87.822 53.1583 88.452H51.9823V98.63H52.6263V97.65H56.1683V93.632H52.6263V92.106ZM64.0783 87.752V87.122H56.7003V87.752H60.0323V89.754H57.2603V96.964H57.8903V90.384H60.0323V98.994H60.6763V90.384H62.9863V96.082C62.9863 96.208 62.9443 96.264 62.7903 96.264C62.6363 96.278 62.1463 96.278 61.5163 96.264C61.6003 96.446 61.7123 96.712 61.7403 96.866C62.5243 96.866 62.9863 96.866 63.2663 96.768C63.5743 96.656 63.6303 96.446 63.6303 96.082V89.754H60.6763V87.752H64.0783ZM71.7783 90.16C72.2403 90.16 72.6743 89.824 72.6743 89.264C72.6743 88.69 72.2403 88.368 71.7783 88.368C71.3163 88.368 70.8823 88.69 70.8823 89.264C70.8823 89.824 71.3163 90.16 71.7783 90.16ZM71.7783 97.104C72.2403 97.104 72.6743 96.782 72.6743 96.222C72.6743 95.648 72.2403 95.326 71.7783 95.326C71.3163 95.326 70.8823 95.648 70.8823 96.222C70.8823 96.782 71.3163 97.104 71.7783 97.104ZM83.3283 86.912L83.2163 86.94H79.9963V99.022H80.6263V87.57H82.9363C82.5863 88.536 82.0963 89.796 81.6063 90.902C82.7263 92.078 83.0343 93.072 83.0343 93.898C83.0343 94.332 82.9503 94.78 82.7123 94.934C82.5863 95.018 82.4323 95.06 82.2363 95.074C81.9983 95.088 81.6763 95.074 81.3123 95.06C81.4243 95.242 81.4943 95.494 81.5083 95.662C81.8163 95.69 82.1663 95.69 82.4743 95.662C82.7263 95.634 82.9783 95.55 83.1463 95.438C83.5103 95.186 83.6643 94.598 83.6643 93.94C83.6643 93.03 83.3703 92.022 82.2643 90.818C82.7683 89.698 83.3423 88.312 83.7623 87.192L83.3283 86.912ZM85.0643 92.442H87.4723V93.982H85.0643V92.442ZM85.0643 90.384H87.4723V91.896H85.0643V90.384ZM90.5943 90.384V91.896H88.1163V90.384H90.5943ZM90.5943 93.982H88.1163V92.442H90.5943V93.982ZM91.2383 94.542V89.824H88.1163V88.522H91.8823V87.92H88.1163V86.352H87.4723V87.92H83.8043V88.522H87.4723V89.824H84.4343V94.542H86.8143C85.9043 95.886 84.4063 97.188 83.0623 97.818C83.2163 97.958 83.4123 98.196 83.5243 98.35C84.9383 97.594 86.5483 96.124 87.4723 94.598V99.008H88.1163V94.57C88.9563 96.068 90.4123 97.566 91.7703 98.294C91.8683 98.126 92.0923 97.888 92.2323 97.762C90.9443 97.146 89.5583 95.872 88.7323 94.542H91.2383ZM104.916 95.27C103.222 97.02 99.7363 98.056 95.8303 98.476C95.9703 98.644 96.1103 98.924 96.1803 99.092C100.142 98.602 103.726 97.496 105.518 95.592L104.916 95.27ZM102.676 91.868C101.346 92.736 98.8543 93.38 96.6983 93.674C96.8523 93.814 96.9783 94.052 97.0763 94.192C99.2743 93.814 101.78 93.128 103.236 92.176L102.676 91.868ZM103.544 93.632C102.102 94.752 99.3443 95.564 96.7963 95.956C96.9223 96.096 97.0623 96.32 97.1603 96.488C99.7783 96.04 102.55 95.158 104.118 93.954L103.544 93.632ZM96.4603 91.196C97.6363 90.874 98.9243 90.468 100.1 89.992C101.248 90.384 102.312 90.818 103.054 91.168L103.586 90.72C102.872 90.398 101.906 90.034 100.87 89.656C101.724 89.264 102.508 88.83 103.124 88.382L102.914 88.256H105.476V87.668H100.562C100.422 87.234 100.17 86.632 99.8763 86.156L99.2743 86.338C99.4983 86.73 99.7083 87.248 99.8483 87.668H94.5843V88.256H102.34C101.752 88.662 100.982 89.054 100.128 89.404C99.0223 89.04 97.8883 88.704 96.8803 88.466L96.3203 88.872C97.2723 89.096 98.3083 89.39 99.3303 89.726C98.1683 90.16 96.9223 90.524 95.8163 90.79C95.9003 90.874 96.0123 91.056 96.0963 91.196H94.5563V93.394C94.5563 94.906 94.3883 97.048 93.2963 98.644C93.4503 98.714 93.7303 98.924 93.8423 99.036C94.9903 97.384 95.2143 95.032 95.2143 93.408V91.798H105.812V91.196H96.4603ZM110.04 96.558C110.894 97.104 111.902 97.93 112.378 98.462L112.826 97.986C112.35 97.454 111.314 96.67 110.488 96.152L110.04 96.558ZM110.712 92.946H116.844V92.442H110.712V92.946ZM109.522 90.076H112.224C112.14 90.692 111.706 91.364 109.942 91.7C110.068 91.812 110.236 92.022 110.292 92.176C112.252 91.686 112.742 90.874 112.826 90.076H114.604V90.846C114.604 91.476 114.828 91.616 115.724 91.616H117.698C117.782 91.616 117.866 91.616 117.936 91.602V93.814H109.522V90.076ZM112.84 88.522H114.604V89.558H112.84V88.522ZM117.936 90.076V91.112C117.908 91.14 117.824 91.154 117.614 91.154H115.766C115.29 91.154 115.22 91.098 115.22 90.846V90.076H117.936ZM120.078 95.354H116.634V94.332H118.594V89.558H115.22V88.522H119.728V87.934H116.214C116.522 87.528 116.872 87.024 117.152 86.562L116.494 86.31C116.284 86.772 115.85 87.458 115.514 87.934H111.902L112.07 87.836C111.818 87.43 111.258 86.8 110.81 86.338L110.264 86.604C110.656 86.996 111.104 87.528 111.37 87.934H107.786V88.522H112.238V89.558H108.892V94.332H115.976V95.354H107.464V95.942H115.976V98.14C115.976 98.336 115.934 98.378 115.668 98.406C115.43 98.42 114.674 98.42 113.624 98.392C113.736 98.602 113.834 98.826 113.876 99.022C115.038 99.022 115.752 99.022 116.144 98.91C116.536 98.798 116.634 98.602 116.634 98.14V95.942H120.078V95.354ZM125.366 98H126.136V91.532C126.136 90.692 126.08 89.572 126.038 88.718H126.094L126.892 91L129.048 96.908H129.72L131.862 91L132.66 88.718H132.716C132.674 89.572 132.618 90.692 132.618 91.532V98H133.416V87.794H132.296L130.196 93.66C129.944 94.402 129.706 95.158 129.44 95.9H129.384L128.586 93.66L126.486 87.794H125.366V98ZM136.301 98H137.113V90.538H136.301V98ZM136.721 88.788C137.085 88.788 137.407 88.522 137.407 88.144C137.407 87.724 137.085 87.472 136.721 87.472C136.343 87.472 136.035 87.724 136.035 88.144C136.035 88.522 136.343 88.788 136.721 88.788ZM139.897 98H140.709V95.984L142.319 94.08L144.727 98H145.623L142.795 93.492L145.231 90.538H144.307L140.737 94.934H140.709V86.87H139.897V98ZM149.849 98.182C150.927 98.182 151.627 97.832 152.229 97.454L151.921 96.852C151.361 97.244 150.731 97.496 149.933 97.496C148.323 97.496 147.245 96.222 147.203 94.402H152.495C152.523 94.22 152.537 94.024 152.537 93.814C152.537 91.63 151.459 90.342 149.653 90.342C147.959 90.342 146.377 91.854 146.377 94.276C146.377 96.726 147.931 98.182 149.849 98.182ZM147.203 93.758C147.357 92.05 148.449 91.042 149.667 91.042C150.969 91.042 151.795 91.952 151.795 93.758H147.203Z" fill="white"/>
<path d="M10.3803 56.5538L13.8203 49.3858L12.9563 49.0978L9.40432 56.5538L12.9563 64.0098L13.8203 63.7218L10.3803 56.5538ZM12.9083 56.5538L16.3483 49.3858L15.4843 49.0978L11.9323 56.5538L15.4843 64.0098L16.3483 63.7218L12.9083 56.5538ZM24.5024 55.6418C23.9264 55.1618 22.7904 54.5058 21.8784 54.1058L21.2224 54.9218C22.1344 55.3538 23.2544 56.0578 23.8304 56.5698L24.5024 55.6418ZM22.7264 63.5938C23.4144 62.1058 24.2144 60.0898 24.8064 58.4258L23.8944 57.7538C23.2384 59.5778 22.3264 61.6898 21.6864 62.9378L22.7264 63.5938ZM22.0704 50.2818C23.0304 50.7298 24.2304 51.4658 24.8064 51.9778L25.5104 51.0658C24.9024 50.5698 23.6864 49.8658 22.7424 49.4658L22.0704 50.2818ZM35.4624 52.1378V51.0498H28.1504C28.3584 50.5538 28.5664 50.0418 28.7424 49.5298L27.5744 49.2418C26.9984 51.0978 26.0224 52.9538 24.8864 54.1698C25.1904 54.3138 25.6864 54.6338 25.9264 54.8258C26.5184 54.1058 27.1264 53.1778 27.6384 52.1378H35.4624ZM28.9984 58.5058C29.7024 59.0978 30.5184 59.9458 30.8864 60.4898L31.6224 59.9938C31.2224 59.4178 30.3904 58.6178 29.6864 58.0738L28.9984 58.5058ZM27.3024 60.4898C27.4144 59.7538 27.5424 58.9058 27.6544 58.0258H33.4304C33.3664 59.0498 33.2864 59.8498 33.2064 60.4898H27.3024ZM33.5904 54.7138C33.5584 55.5458 33.5264 56.2658 33.4784 56.9378H31.2064L31.8784 56.4738C31.5264 55.9618 30.7424 55.2098 30.0704 54.7138L29.4144 55.1458C30.0864 55.6578 30.8384 56.4098 31.1744 56.9378H27.8144C27.9104 56.1858 28.0064 55.4338 28.1024 54.7138H33.5904ZM35.8624 58.0258V56.9378H34.5984C34.6304 56.1378 34.6784 55.2418 34.7264 54.2338C34.7264 54.0898 34.7424 53.6738 34.7424 53.6738H27.0944C26.9984 54.6658 26.8544 55.8018 26.7104 56.9378H25.0784V58.0258H26.5504C26.3744 59.3378 26.1664 60.6018 25.9744 61.5458H33.0464C32.9344 62.0578 32.8224 62.3778 32.6784 62.5218C32.5344 62.7138 32.3744 62.7458 32.0864 62.7458C31.7984 62.7458 31.0464 62.7298 30.2304 62.6658C30.3904 62.9538 30.5024 63.3698 30.5344 63.6738C31.3024 63.7218 32.1024 63.7538 32.5504 63.7058C33.0304 63.6578 33.3664 63.5298 33.6544 63.1458C33.8784 62.8738 34.0384 62.4098 34.1984 61.5458H35.4144V60.4898H34.3424C34.4064 59.8338 34.4704 59.0178 34.5504 58.0258H35.8624ZM50.5664 49.8658H49.3504V51.8818H45.1264V49.2418H43.8944V51.8818H39.7664V49.8658H38.5984V52.9538H50.5664V49.8658ZM51.4144 55.2898V54.2178H38.5024V57.2738C38.5024 58.9538 38.3584 61.1778 37.1104 62.8098C37.3824 62.9538 37.8784 63.3378 38.0704 63.5778C39.4144 61.8018 39.6704 59.1618 39.6704 57.2898V55.2898H51.4144ZM51.6544 59.3858H46.4064V57.6738H50.8064V56.6498H40.9824V57.6738H45.1744V59.3858H40.1824V60.4578H45.1744V63.8658H46.4064V60.4578H51.6544V59.3858ZM67.4464 56.5698V55.3698H60.9344C60.9984 54.7618 61.0144 54.1378 61.0144 53.5778V51.6898H66.7584V50.4898H54.1824V51.6898H59.7824V53.5618C59.7824 54.1218 59.7664 54.7458 59.6864 55.3698H53.6224V56.5698H59.4464C58.8864 58.8098 57.3344 61.1618 53.2224 62.8418C53.4784 63.0818 53.8464 63.5298 53.9904 63.8338C58.0544 62.1538 59.7984 59.8018 60.5184 57.4658C61.7824 60.5698 63.9104 62.7618 67.0944 63.8178C67.2704 63.4978 67.6224 63.0018 67.8944 62.7458C64.6624 61.8178 62.4864 59.5938 61.3664 56.5698H67.4464ZM70.9344 52.1858H74.4224C74.2144 54.4738 73.5104 55.5138 69.9744 56.0258C70.1824 56.2658 70.4544 56.6978 70.5344 56.9858C74.4864 56.3298 75.3824 55.0018 75.6224 52.1858H77.6704V54.7298C77.6704 55.9778 78.0224 56.4098 79.3504 56.4098H82.1664C82.6784 56.4098 83.2384 56.3938 83.5104 56.3138C83.4784 56.0418 83.4304 55.5778 83.3824 55.2578C83.0944 55.3218 82.4704 55.3538 82.1024 55.3538H79.3664C78.9184 55.3538 78.8384 55.1938 78.8384 54.7458V52.1858H81.9744V54.2818H83.1744V51.0978H77.4464C77.2064 50.5218 76.8064 49.7538 76.4384 49.1618L75.2224 49.5138C75.5104 49.9778 75.7824 50.5858 76.0064 51.0978H69.7664V54.6658H70.9344V52.1858ZM77.1584 58.9378H81.8304V57.8178H71.1744V58.9378H75.9424V62.3778H69.7344V63.5138H83.3344V62.3778H77.1584V58.9378ZM92.0486 64.0098L95.6006 56.5538L92.0486 49.0978L91.1846 49.3858L94.6246 56.5538L91.1846 63.7218L92.0486 64.0098ZM89.5206 64.0098L93.0726 56.5538L89.5206 49.0978L88.6566 49.3858L92.0966 56.5538L88.6566 63.7218L89.5206 64.0098Z" fill="#00E0B8"/>
<path d="M210.801 33.2754L8.98779 33.2754V34.0521L210.801 34.0521V33.2754Z" fill="white"/>
<path d="M213.855 30.5435H200.765V36.6521H213.855V30.5435Z" fill="#00E0B8"/>
<path d="M16.1823 12.7C15.9663 12.484 15.6543 12.256 15.3183 12.04C15.5823 11.788 15.8103 11.536 16.0143 11.272L15.3903 11.068C15.2223 11.296 15.0063 11.512 14.7903 11.704C14.4783 11.536 14.1663 11.356 13.8663 11.224L13.4223 11.62C13.6983 11.752 13.9983 11.908 14.2863 12.088C13.9263 12.34 13.5423 12.568 13.1463 12.748C13.3023 12.868 13.5543 13.096 13.6383 13.216C14.0343 13 14.4423 12.748 14.8383 12.436C15.1863 12.688 15.4983 12.916 15.7023 13.132L16.1823 12.7ZM16.1463 10.552C15.9303 10.384 15.6423 10.192 15.3183 9.988C15.5703 9.748 15.7863 9.508 15.9783 9.256L15.3543 9.088C15.1983 9.28 15.0063 9.484 14.7903 9.676C14.4783 9.508 14.1783 9.352 13.8903 9.232L13.4583 9.628C13.7223 9.748 14.0223 9.892 14.2983 10.06C13.9623 10.288 13.6023 10.504 13.2303 10.672C13.3863 10.78 13.6383 10.996 13.7343 11.104C14.1063 10.912 14.4783 10.66 14.8503 10.384C15.1743 10.588 15.4863 10.816 15.6783 10.996L16.1463 10.552ZM10.5663 13.912H19.0023V15.4H19.8783V13.228H18.9423C19.0383 12.16 19.1463 10.612 19.2063 9.424H16.4343V10.036H18.3423L18.3063 10.684H16.4943V11.296H18.2703L18.2103 11.944H16.4223V12.556H18.1623C18.1383 12.796 18.1143 13.012 18.0903 13.228H11.5143L11.4663 12.556H13.1343V11.944H11.4303L11.3823 11.296H13.0863V10.684H11.3463L11.2983 10.096C11.9223 9.976 12.6303 9.82 13.1583 9.628L12.7503 9.076C12.1623 9.256 11.1303 9.544 10.4343 9.664L10.6743 13.228H9.71432V15.4H10.5663V13.912ZM20.1183 16.828H15.3183V16.612C16.2663 16.228 17.2863 15.7 18.0303 15.124L17.4903 14.68L17.3103 14.728H11.6703V15.4H16.3623C15.7863 15.748 15.0903 16.084 14.4543 16.312V16.828H9.45032V17.584H14.4543V18.94C14.4543 19.108 14.4063 19.144 14.2023 19.156C14.0223 19.156 13.3503 19.156 12.6063 19.132C12.7263 19.36 12.8703 19.66 12.9183 19.888C13.8663 19.888 14.4663 19.9 14.8503 19.768C15.2223 19.636 15.3183 19.432 15.3183 18.964V17.584H20.1183V16.828ZM29.6463 11.392H23.9703V10.144H29.6463V11.392ZM30.5703 9.424H23.0823V12.112H30.5703V9.424ZM23.4663 16.408H30.1263V17.272H23.4663V16.408ZM23.4663 14.932H30.1263V15.772H23.4663V14.932ZM23.4663 13.456H30.1263V14.296H23.4663V13.456ZM31.0383 17.932V12.796H22.5783V17.932H24.8103C24.0543 18.424 22.5183 18.976 21.2823 19.264C21.4983 19.444 21.7863 19.744 21.9423 19.924C23.1663 19.612 24.7143 19.036 25.6743 18.448L24.8823 17.932H31.0383ZM27.7503 18.532C29.0103 18.904 30.6183 19.516 31.5183 19.936L32.2863 19.288C31.3503 18.904 29.7543 18.316 28.5183 17.956L27.7503 18.532ZM35.5939 21.148H36.3979L39.9859 9.484H39.1939L35.5939 21.148Z" fill="#00E0B8"/>
<path d="M51.5135 15.864C50.8575 16.056 50.1855 16.264 49.5295 16.456V12.392H51.3855V11.288H49.5295V7.816H51.5455V6.696H46.3935V7.816H48.4255V11.288H46.5695V12.392H48.4255V16.76C47.5935 17.016 46.8415 17.224 46.2335 17.384L46.4735 18.52C47.9295 18.088 49.8655 17.496 51.6735 16.952L51.5135 15.864ZM58.1055 9.864C57.7535 12.168 57.1295 14.008 56.1535 15.448C55.1295 13.928 54.4575 12.04 54.0255 9.864H58.1055ZM60.8895 9.864V8.712H56.3135L57.3055 8.28C56.9855 7.544 56.2495 6.392 55.5935 5.56L54.5535 6.008C55.1935 6.856 55.8815 7.992 56.1855 8.712H51.5615V9.864H52.8415C53.3535 12.504 54.1375 14.712 55.3535 16.44C54.2015 17.656 52.6815 18.52 50.6495 19.144C50.9055 19.4 51.3055 19.912 51.4655 20.184C53.4015 19.496 54.9215 18.6 56.1055 17.4C57.1775 18.6 58.5375 19.512 60.2655 20.12C60.4415 19.8 60.8095 19.32 61.0655 19.064C59.3215 18.52 57.9775 17.624 56.9215 16.44C58.1375 14.792 58.9055 12.664 59.3535 9.864H60.8895ZM75.6575 5.8C74.1535 6.28 71.4335 6.68 69.1295 6.936C69.2575 7.16 69.4015 7.544 69.4495 7.784C71.8175 7.576 74.6495 7.176 76.4895 6.616L75.6575 5.8ZM75.0815 10.216C75.4655 9.576 75.9295 8.648 76.3295 7.8L75.3215 7.496C75.0655 8.216 74.5855 9.272 74.1855 9.912L75.0815 10.216ZM73.4175 9.976C73.3215 9.384 73.0335 8.472 72.7135 7.8L71.8015 7.992C72.0895 8.696 72.3775 9.624 72.4575 10.232L73.4175 9.976ZM71.4175 10.136C71.2575 9.56 70.8575 8.696 70.4415 8.072L69.5775 8.408C69.9775 9.064 70.3615 9.928 70.5055 10.52L71.4175 10.136ZM64.2335 16.632C64.2495 16.44 64.2495 16.28 64.2495 16.104V15.496H67.3535V16.632H64.2335ZM67.3535 13.512V14.632H64.2495V13.512H67.3535ZM68.3775 12.6H63.2095V16.088C63.2095 17.208 63.1295 18.536 62.4095 19.528C62.6335 19.672 63.0175 20.088 63.1615 20.312C63.7695 19.528 64.0575 18.488 64.1695 17.48H67.3535V19.032C67.3535 19.208 67.2895 19.272 67.0815 19.272C66.8895 19.272 66.2495 19.288 65.5135 19.256C65.6575 19.528 65.8175 19.912 65.8655 20.2C66.8735 20.2 67.4815 20.184 67.8655 20.008C68.2655 19.848 68.3775 19.576 68.3775 19.032V12.6ZM66.4095 9.752H68.4575V8.888H66.4095V7.928H68.8575V7.032H66.4095V5.608H65.2895V7.032H62.7135V7.928H65.2895V8.888H63.1455V9.752H65.2895V10.792H62.4575V11.704H69.0815V10.792H66.4095V9.752ZM74.9535 15.496H73.2255V14.008H74.9535V15.496ZM73.2255 11.576H74.9535V12.952H73.2255V11.576ZM77.0175 12.952H75.9775V10.584H69.8335V11.576H72.1215V12.952H69.0975V14.008H72.1215V15.496H69.7855V16.488H72.1215V18.904C72.1215 19.08 72.0735 19.144 71.8815 19.144C71.6895 19.144 71.0495 19.144 70.3935 19.128C70.5375 19.432 70.6975 19.864 70.7455 20.184C71.6735 20.184 72.2975 20.152 72.6975 19.992C73.1135 19.816 73.2255 19.528 73.2255 18.904V16.488H75.9775V14.008H77.0175V12.952Z" fill="white"/>
</svg>
