<svg width="207" height="102" viewBox="0 0 207 102" fill="none" xmlns="http://www.w3.org/2000/svg">
<path opacity="0.8" d="M7.092 46.24V47.104H10.704V46.24H7.092ZM6.684 46.24V51.448C6.684 52.564 7.02 52.84 8.124 52.84C8.364 52.84 9.888 52.84 10.14 52.84C11.244 52.84 11.496 52.288 11.616 50.332C11.364 50.272 10.98 50.116 10.776 49.948C10.716 51.676 10.62 51.988 10.092 51.988C9.744 51.988 8.472 51.988 8.22 51.988C7.668 51.988 7.572 51.904 7.572 51.448V46.24H6.684ZM6.636 42.472V43.336H10.284V47.92H11.16V42.472H6.636ZM0.972 44.596V52.912H1.704V45.364H5.04V52.756H5.784V44.596H0.972ZM1.344 49.432V50.104H5.388V49.432H1.344ZM1.344 51.364V52.096H5.388V51.364H1.344ZM0.684 42.388V43.204H6.048V42.388H0.684ZM2.412 42.616V45.148H3.06V42.616H2.412ZM3.756 42.616V45.148H4.416V42.616H3.756ZM2.532 45.136V46.312C2.532 46.96 2.412 47.752 1.704 48.364C1.824 48.424 2.028 48.604 2.112 48.712C2.856 48.028 3.036 47.068 3.036 46.324V45.136H2.532ZM3.696 45.136V47.632C3.696 48.22 3.84 48.328 4.32 48.328C4.416 48.328 4.824 48.328 4.908 48.328C5.244 48.328 5.412 48.22 5.472 47.968C5.316 47.92 5.112 47.86 4.992 47.764C4.98 47.8 4.944 47.8 4.812 47.8C4.74 47.8 4.428 47.8 4.368 47.8C4.236 47.8 4.212 47.776 4.212 47.632V45.136H3.696ZM12.672 48.784V49.588H23.328V48.784H12.672ZM17.508 47.668V52.936H18.42V47.668H17.508ZM17.1 49.096C16.116 50.368 14.184 51.508 12.432 52.048C12.636 52.228 12.9 52.576 13.044 52.804C14.796 52.168 16.752 50.884 17.844 49.432L17.1 49.096ZM18.84 49.12L18.084 49.48C19.176 50.896 21.132 52.12 22.956 52.72C23.088 52.48 23.364 52.132 23.556 51.952C21.732 51.46 19.812 50.368 18.84 49.12ZM17.04 45.796H18.924V47.116H17.04V45.796ZM17.04 43.816H18.924V45.112H17.04V43.816ZM16.26 43.108V47.824H19.716V43.108H16.26ZM17.664 41.92C17.592 42.352 17.424 42.988 17.28 43.408L17.988 43.564C18.168 43.18 18.372 42.604 18.564 42.064L17.664 41.92ZM12.756 44.26C13.356 44.752 14.064 45.448 14.376 45.928L14.796 45.268C14.484 44.812 13.764 44.14 13.152 43.684L12.756 44.26ZM14.94 46.024C15.288 46.708 15.624 47.632 15.72 48.208L16.356 47.956C16.248 47.404 15.9 46.504 15.54 45.832L14.94 46.024ZM15.24 43.672C14.748 44.764 13.872 46.3 13.176 47.236L13.764 47.512C14.46 46.588 15.312 45.136 15.948 43.948L15.24 43.672ZM14.304 42.004C14.064 42.7 13.608 43.684 13.26 44.296L13.86 44.56C14.232 43.96 14.664 43.048 15.024 42.268L14.304 42.004ZM12.648 47.164L12.744 47.944C13.62 47.8 14.688 47.656 15.792 47.476L15.78 46.828C14.592 46.96 13.464 47.092 12.648 47.164ZM19.644 44.164C20.28 44.716 21 45.496 21.312 46.024L21.78 45.4C21.456 44.896 20.724 44.14 20.1 43.612L19.644 44.164ZM21.876 45.928C22.284 46.684 22.68 47.668 22.8 48.304L23.472 48.028C23.34 47.416 22.92 46.432 22.5 45.7L21.876 45.928ZM22.176 43.66C21.684 44.764 20.772 46.312 20.064 47.26L20.652 47.536C21.372 46.6 22.248 45.136 22.884 43.948L22.176 43.66ZM21.3 41.968C21.06 42.664 20.592 43.648 20.232 44.26L20.832 44.524C21.216 43.924 21.66 43.024 22.032 42.232L21.3 41.968ZM19.692 47.164L19.8 47.944C20.676 47.824 21.768 47.68 22.872 47.536L22.86 46.876C21.672 46.984 20.532 47.092 19.692 47.164ZM26.712 44.224V44.884H29.64V44.224H26.712ZM26.592 51.76V52.444H30.336V51.76H26.592ZM26.052 46.912V47.512H30.06V46.912H26.052ZM25.668 45.544V47.5C25.668 48.88 25.512 50.764 24.396 52.132C24.564 52.24 24.888 52.528 25.008 52.696C26.232 51.208 26.46 49.036 26.46 47.524V45.544H25.668ZM26.112 45.544V46.216H29.628V48.22H26.088V48.892H30.444V45.544H26.112ZM26.268 49.636V52.948H27.048V50.32H29.82V52.864H30.624V49.636H26.268ZM31.428 43.372V50.02H32.292V43.372H31.428ZM34.128 42.148V51.784C34.128 52 34.044 52.072 33.816 52.072C33.6 52.084 32.88 52.096 32.064 52.06C32.196 52.324 32.34 52.732 32.376 52.96C33.456 52.972 34.104 52.948 34.476 52.792C34.848 52.648 35.004 52.384 35.004 51.772V42.148H34.128ZM27.564 42.04C26.976 43.024 25.884 44.248 24.396 45.136C24.576 45.268 24.852 45.556 24.972 45.76C26.556 44.728 27.66 43.468 28.344 42.496V42.232H28.056V42.04H27.564ZM27.732 42.04V42.676H27.912C28.788 43.312 29.88 44.368 30.444 44.992L31.044 44.32C30.432 43.684 29.292 42.712 28.38 42.04H27.732ZM41.844 43.936L41.424 44.8H47.532V43.936H41.844ZM43.344 46.54V47.368H47.256V46.54H43.344ZM43.332 49.18V50.032H47.424V49.18H43.332ZM42.888 44.212V52.96H43.812V44.212H42.888ZM42.3 42.064C41.712 43.828 40.74 45.58 39.648 46.696C39.852 46.84 40.212 47.164 40.344 47.32C41.448 46.084 42.492 44.2 43.176 42.292L42.3 42.064ZM39.42 41.968C38.736 43.792 37.62 45.592 36.42 46.756C36.588 46.972 36.864 47.452 36.948 47.668C38.256 46.324 39.492 44.272 40.284 42.244L39.42 41.968ZM38.136 45.064V52.948H39.048V44.176L39.024 44.164L38.136 45.064ZM54.24 41.44H53.748V53.44H54.24V41.44ZM67.044 47.152V51.616C67.044 52.648 67.32 52.948 68.4 52.948C68.616 52.948 69.912 52.948 70.14 52.948C71.16 52.948 71.4 52.42 71.508 50.452C71.268 50.392 70.872 50.236 70.68 50.08C70.62 51.808 70.548 52.096 70.08 52.096C69.792 52.096 68.724 52.096 68.496 52.096C68.028 52.096 67.944 52.012 67.944 51.616V47.152H67.044ZM63.876 47.212C63.684 49.576 63.276 51.316 60.408 52.192C60.6 52.372 60.864 52.744 60.972 52.96C64.044 51.952 64.608 49.936 64.824 47.212H63.876ZM61.656 42.808C62.256 43.756 62.868 45.028 63.072 45.82L63.936 45.472C63.708 44.668 63.072 43.432 62.46 42.52L61.656 42.808ZM69.54 42.376C69.192 43.336 68.532 44.668 68.016 45.472L68.784 45.784C69.312 45.004 69.972 43.768 70.476 42.724L69.54 42.376ZM60.648 46.516V47.368H71.376V46.516H60.648ZM65.508 41.92V46.864H66.42V41.92H65.508ZM75.744 43.72V44.296H80.28V43.72H75.744ZM77.964 42.592C79.14 43.456 81.168 44.344 82.788 44.788C82.884 44.584 83.076 44.26 83.244 44.092C81.528 43.684 79.608 42.916 78.3 41.968H77.544C76.56 42.82 74.664 43.684 72.804 44.2C72.948 44.38 73.128 44.68 73.212 44.872C75.048 44.308 76.944 43.408 77.964 42.592ZM80.508 47.764C81.18 48.412 82.26 49.084 83.184 49.48C83.292 49.3 83.472 49.024 83.616 48.844C82.62 48.496 81.552 47.884 80.82 47.164H80.136C79.596 47.824 78.54 48.532 77.496 48.94C77.652 49.096 77.82 49.36 77.904 49.528C78.924 49.084 79.932 48.4 80.508 47.764ZM75.336 45.616C75.516 45.904 75.708 46.312 75.78 46.576L76.5 46.36C76.428 46.12 76.212 45.724 76.02 45.436L75.336 45.616ZM79.968 45.352C79.836 45.664 79.584 46.12 79.392 46.432L80.004 46.624C80.22 46.336 80.472 45.952 80.736 45.544L79.968 45.352ZM74.268 44.896V45.496H81.66V44.896H74.268ZM73.428 46.468V47.092H82.62V46.468H73.428ZM77.544 43.972V46.732H78.396V43.972H77.544ZM73.764 48.796V49.36H76.956V48.796H73.764ZM73.392 50.836C73.584 51.172 73.764 51.64 73.836 51.928L74.424 51.748C74.352 51.46 74.16 51.016 73.956 50.68L73.392 50.836ZM76.644 50.596C76.548 50.896 76.356 51.328 76.2 51.628L76.716 51.784C76.884 51.52 77.052 51.16 77.244 50.776L76.644 50.596ZM72.912 49.972V50.572H77.604V49.972H72.912ZM74.94 49.048V52.12H75.636V49.048H74.94ZM72.624 52.18L72.732 52.816C74.016 52.684 75.852 52.48 77.604 52.288V51.688C75.744 51.892 73.86 52.072 72.624 52.18ZM78.816 48.796V49.36H82.248V48.796H78.816ZM78.408 50.86C78.624 51.208 78.828 51.676 78.912 52L79.536 51.784C79.452 51.496 79.224 51.028 79.008 50.692L78.408 50.86ZM81.984 50.668C81.84 50.992 81.588 51.496 81.372 51.82L81.924 51.988C82.14 51.676 82.38 51.268 82.608 50.848L81.984 50.668ZM77.964 50.008V50.608H83.208V50.008H77.964ZM77.76 51.988V52.624H83.412V51.988H77.76ZM80.112 49.012V52.192H80.856V49.012H80.112ZM74.976 47.164C74.484 47.764 73.596 48.436 72.444 48.928C72.612 49.024 72.828 49.252 72.948 49.408C74.172 48.82 75.048 48.136 75.612 47.572V47.344H75.384V47.164H74.976ZM75.132 47.164V47.704H75.312C76.008 48.1 76.872 48.748 77.34 49.144L77.892 48.652C77.364 48.208 76.416 47.584 75.672 47.164H75.132Z" fill="white"/>
<path d="M202.929 25.1299L0 25.1299L0 26.0199L202.929 26.0199V25.1299Z" fill="white"/>
<path d="M207 22L190 22V29H207V22Z" fill="#00E0B8"/>
<path d="M5.04 16.182C7.14 16.182 8.736 15.062 8.736 11.758V5.738H7.49V11.8C7.49 14.278 6.412 15.048 5.04 15.048C3.71 15.048 2.66 14.278 2.66 11.8V5.738H1.358V11.758C1.358 15.062 2.954 16.182 5.04 16.182ZM10.7478 16H12.0218V10.484C12.7918 9.714 13.3238 9.322 14.1078 9.322C15.1158 9.322 15.5498 9.924 15.5498 11.352V16H16.8238V11.184C16.8238 9.238 16.0958 8.202 14.4998 8.202C13.4638 8.202 12.6798 8.776 11.9518 9.49H11.9098L11.7978 8.398H10.7478V16ZM20.6644 16.182C22.4564 16.182 23.4364 15.16 23.4364 13.928C23.4364 12.486 22.2184 12.038 21.1124 11.618C20.2584 11.296 19.4324 11.03 19.4324 10.302C19.4324 9.714 19.8664 9.21 20.8184 9.21C21.5044 9.21 22.0364 9.49 22.5684 9.882L23.1844 9.056C22.5824 8.594 21.7564 8.202 20.8184 8.202C19.1664 8.202 18.2004 9.154 18.2004 10.358C18.2004 11.646 19.4044 12.164 20.4684 12.556C21.3084 12.878 22.2044 13.228 22.2044 13.998C22.2044 14.656 21.7144 15.188 20.7064 15.188C19.7964 15.188 19.1104 14.824 18.4524 14.292L17.8224 15.132C18.5504 15.734 19.5864 16.182 20.6644 16.182ZM26.6748 16.182C27.1368 16.182 27.6408 16.042 28.0748 15.902L27.8228 14.95C27.5708 15.048 27.2208 15.146 26.9548 15.146C26.0728 15.146 25.7788 14.614 25.7788 13.676V9.434H27.8368V8.398H25.7788V6.27H24.7148L24.5608 8.398L23.3708 8.468V9.434H24.5048V13.648C24.5048 15.174 25.0508 16.182 26.6748 16.182ZM31.6771 16.182C33.5391 16.182 35.2051 14.726 35.2051 12.206C35.2051 9.672 33.5391 8.202 31.6771 8.202C29.8151 8.202 28.1491 9.672 28.1491 12.206C28.1491 14.726 29.8151 16.182 31.6771 16.182ZM31.6771 15.118C30.3611 15.118 29.4791 13.956 29.4791 12.206C29.4791 10.456 30.3611 9.266 31.6771 9.266C32.9931 9.266 33.8891 10.456 33.8891 12.206C33.8891 13.956 32.9931 15.118 31.6771 15.118ZM36.5833 19.206H37.8573V16.63L37.8293 15.3C38.5153 15.86 39.2433 16.182 39.9293 16.182C41.6793 16.182 43.2333 14.684 43.2333 12.08C43.2333 9.742 42.1693 8.202 40.2093 8.202C39.3273 8.202 38.4733 8.706 37.7873 9.266H37.7453L37.6333 8.398H36.5833V19.206ZM39.7193 15.118C39.2153 15.118 38.5433 14.908 37.8573 14.32V10.33C38.5993 9.644 39.2573 9.28 39.9013 9.28C41.3433 9.28 41.9033 10.414 41.9033 12.094C41.9033 13.984 40.9793 15.118 39.7193 15.118ZM44.635 19.206H45.909V16.63L45.881 15.3C46.567 15.86 47.295 16.182 47.981 16.182C49.731 16.182 51.285 14.684 51.285 12.08C51.285 9.742 50.221 8.202 48.261 8.202C47.379 8.202 46.525 8.706 45.839 9.266H45.797L45.685 8.398H44.635V19.206ZM47.771 15.118C47.267 15.118 46.595 14.908 45.909 14.32V10.33C46.651 9.644 47.309 9.28 47.953 9.28C49.395 9.28 49.955 10.414 49.955 12.094C49.955 13.984 49.031 15.118 47.771 15.118ZM54.2178 16.182C55.1558 16.182 56.0098 15.692 56.7378 15.09H56.7798L56.8918 16H57.9418V11.324C57.9418 9.448 57.1578 8.202 55.3098 8.202C54.0918 8.202 53.0138 8.748 52.3138 9.196L52.8178 10.078C53.4198 9.672 54.2178 9.266 55.0998 9.266C56.3458 9.266 56.6678 10.204 56.6678 11.184C53.4338 11.548 51.9918 12.374 51.9918 14.026C51.9918 15.398 52.9438 16.182 54.2178 16.182ZM54.5818 15.16C53.8258 15.16 53.2378 14.81 53.2378 13.942C53.2378 12.962 54.1058 12.332 56.6678 12.024V14.152C55.9258 14.81 55.3238 15.16 54.5818 15.16ZM63.0862 16.182C64.8362 16.182 66.3902 14.684 66.3902 12.066C66.3902 9.742 65.3262 8.202 63.3522 8.202C62.5122 8.202 61.6582 8.678 60.9722 9.28L61.0142 7.908V4.856H59.7402V16H60.7622L60.8742 15.216H60.9162C61.5882 15.832 62.3862 16.182 63.0862 16.182ZM62.8762 15.118C62.3722 15.118 61.6862 14.908 61.0142 14.32V10.33C61.7422 9.644 62.4142 9.28 63.0582 9.28C64.5002 9.28 65.0602 10.414 65.0602 12.094C65.0602 13.984 64.1362 15.118 62.8762 15.118ZM69.1085 16.182C69.4445 16.182 69.6685 16.14 69.8505 16.07L69.6685 15.09C69.5285 15.118 69.4725 15.118 69.4025 15.118C69.2065 15.118 69.0385 14.964 69.0385 14.572V4.856H67.7645V14.488C67.7645 15.566 68.1565 16.182 69.1085 16.182ZM74.1927 16.182C75.2287 16.182 76.0407 15.832 76.7127 15.398L76.2507 14.558C75.6907 14.936 75.0887 15.16 74.3467 15.16C72.9047 15.16 71.9107 14.124 71.8267 12.5H76.9507C76.9787 12.318 77.0067 12.052 77.0067 11.772C77.0067 9.602 75.9147 8.202 73.9827 8.202C72.2187 8.202 70.5527 9.742 70.5527 12.206C70.5527 14.712 72.1767 16.182 74.1927 16.182ZM71.8127 11.59C71.9667 10.092 72.9187 9.224 73.9967 9.224C75.1867 9.224 75.8867 10.05 75.8867 11.59H71.8127Z" fill="#00E0B8"/>
</svg>
