<svg width="214" height="103" viewBox="0 0 214 103" fill="none" xmlns="http://www.w3.org/2000/svg">
<path opacity="0.8" d="M20.4839 91.658C21.1139 91.658 21.7299 91.644 21.9539 91.588C21.9119 91.448 21.8839 91.182 21.8559 90.986C21.5619 91.042 20.8619 91.056 20.4559 91.056H16.4659C15.8499 91.056 15.6819 90.874 15.6819 90.342V88.816H21.4639V88.214H15.6819V86.422H15.0099V90.328C15.0099 91.322 15.3599 91.658 16.4799 91.658H20.4839ZM13.9739 92.428C13.3859 92.624 12.7839 92.806 12.2099 92.988V89.936H13.9459V89.278H12.2099V86.352H11.5519V89.278H9.42388V89.936H11.5519V93.212C10.6559 93.478 9.82988 93.73 9.19988 93.912L9.43788 94.57C10.0539 94.374 10.7819 94.136 11.5519 93.898V98.126C11.5519 98.336 11.4679 98.392 11.2859 98.392C11.1179 98.406 10.5159 98.406 9.82988 98.392C9.92788 98.574 10.0399 98.854 10.0819 99.022C10.9779 99.022 11.4819 99.008 11.7899 98.896C12.0839 98.784 12.2099 98.588 12.2099 98.112V93.674L14.0719 93.072L13.9739 92.428ZM20.7639 93.66V95.368H15.6119V93.66H20.7639ZM15.6119 97.748V95.956H20.7639V97.748H15.6119ZM14.9679 99.022H15.6119V98.35H20.7639V98.952H21.4219V93.058H14.9679V99.022ZM33.8959 90.328H28.6179V89.572H33.8959V90.328ZM33.8959 91.56H28.6179V90.79H33.8959V91.56ZM33.8959 92.806H28.6179V92.022H33.8959V92.806ZM27.9879 89.096V93.282H34.5539V89.096H31.0259C31.1799 88.844 31.3199 88.55 31.4459 88.256H35.6599V87.696H33.1959C33.4479 87.346 33.7139 86.954 33.9659 86.562L33.3219 86.366C33.1399 86.744 32.7899 87.304 32.5099 87.696H29.8359L30.1719 87.556C30.0599 87.206 29.7099 86.688 29.3879 86.352L28.8419 86.562C29.1219 86.898 29.4299 87.346 29.5559 87.696H27.0499V88.256H30.7879C30.6759 88.536 30.5359 88.83 30.4099 89.096H27.9879ZM25.4259 87.724C25.2859 87.36 24.9919 86.786 24.7819 86.338L24.2219 86.506C24.4179 86.968 24.6839 87.57 24.8379 87.948L25.4259 87.724ZM25.8459 96.726C26.6439 97.188 27.5819 97.902 28.0019 98.42L28.4919 97.958C28.0439 97.44 27.0919 96.754 26.2939 96.32L25.8459 96.726ZM32.9859 94.668H32.3419V95.578H23.5919V96.152H32.3419V98.126C32.3419 98.322 32.2859 98.378 32.0339 98.378C31.8099 98.392 31.0119 98.406 30.0039 98.378C30.1019 98.56 30.1999 98.784 30.2419 98.966C31.4459 98.966 32.1459 98.966 32.5239 98.854C32.9019 98.742 32.9859 98.56 32.9859 98.126V96.152H35.7859V95.578H32.9859V94.668ZM26.3359 90.16L26.2379 90.202H25.0339C25.4259 89.572 25.8739 88.788 26.2659 88.102H23.4799V88.676H25.2859C24.8939 89.404 24.4179 90.188 24.0399 90.762H25.9299C25.6359 91.56 25.1879 92.428 24.6839 93.002C24.3059 93.268 23.9139 93.674 23.5219 94.122L23.9419 94.64C24.4879 93.898 25.0339 93.268 25.3979 93.268C25.6779 93.268 26.0839 93.618 26.5879 93.926C27.4979 94.43 28.7579 94.514 30.3819 94.514C31.8239 94.514 34.5539 94.444 35.8839 94.36C35.8979 94.192 35.9959 93.87 36.0799 93.702C34.5959 93.842 32.2999 93.94 30.3959 93.94C28.8419 93.94 27.6239 93.884 26.7699 93.422C26.1959 93.086 25.9019 92.806 25.5799 92.736C26.0419 92.05 26.4479 91.14 26.7279 90.328L26.3359 90.16ZM43.1359 91.224V88.998H46.8319C46.0619 89.796 45.2079 90.538 44.2979 91.224H43.1359ZM49.9259 91.868V91.224H45.3619C46.8179 90.034 48.1479 88.676 49.2539 87.206L48.6519 86.87C48.1339 87.584 47.5319 88.256 46.9019 88.914V88.368H43.1639V86.338H42.5059V88.368H38.7259V88.998H42.5059V91.224H37.5359V91.868H43.4159C41.5539 93.17 39.4819 94.248 37.3259 95.074C37.4799 95.214 37.7039 95.494 37.8159 95.648C39.0339 95.144 40.2379 94.57 41.3859 93.912V97.426C41.3859 98.476 41.8619 98.7 43.5419 98.7H47.9099C49.4499 98.7 49.7159 98.238 49.8699 96.306C49.6599 96.264 49.3939 96.166 49.2119 96.04C49.0999 97.748 48.9319 98.07 47.9099 98.07H43.4859C42.2959 98.07 42.0719 97.944 42.0719 97.412V95.13H48.4979V94.5H42.0719V93.52C42.9259 93.002 43.7379 92.456 44.5359 91.868H49.9259ZM55.4979 94.248V97.048H52.5719V94.248H55.4979ZM55.3579 89.068V91.49H52.5719V89.068H55.3579ZM52.5719 92.106H56.0019V88.452H53.7479C54.0279 87.864 54.3079 87.122 54.5459 86.492L53.8319 86.324C53.6779 86.94 53.3699 87.822 53.1039 88.452H51.9279V98.63H52.5719V97.65H56.1139V93.632H52.5719V92.106ZM64.0239 87.752V87.122H56.6459V87.752H59.9779V89.754H57.2059V96.964H57.8359V90.384H59.9779V98.994H60.6219V90.384H62.9319V96.082C62.9319 96.208 62.8899 96.264 62.7359 96.264C62.5819 96.278 62.0919 96.278 61.4619 96.264C61.5459 96.446 61.6579 96.712 61.6859 96.866C62.4699 96.866 62.9319 96.866 63.2119 96.768C63.5199 96.656 63.5759 96.446 63.5759 96.082V89.754H60.6219V87.752H64.0239ZM71.7239 90.16C72.1859 90.16 72.6199 89.824 72.6199 89.264C72.6199 88.69 72.1859 88.368 71.7239 88.368C71.2619 88.368 70.8279 88.69 70.8279 89.264C70.8279 89.824 71.2619 90.16 71.7239 90.16ZM71.7239 97.104C72.1859 97.104 72.6199 96.782 72.6199 96.222C72.6199 95.648 72.1859 95.326 71.7239 95.326C71.2619 95.326 70.8279 95.648 70.8279 96.222C70.8279 96.782 71.2619 97.104 71.7239 97.104ZM82.4759 91.798C81.8879 91.322 80.7119 90.692 79.7599 90.3L79.4099 90.818C80.3619 91.21 81.5239 91.868 82.0979 92.372L82.4759 91.798ZM80.2779 98.84C81.1459 97.58 82.2379 95.746 83.0219 94.262L82.5459 93.814C81.6919 95.382 80.5299 97.3 79.7319 98.378L80.2779 98.84ZM80.0259 86.996C81.0199 87.402 82.2379 88.074 82.8259 88.578L83.2039 88.004C82.6019 87.514 81.3979 86.856 80.3899 86.478L80.0259 86.996ZM88.0479 97.79V93.058H91.5759V92.414H88.0479V88.158H91.7859V87.514H83.9599V88.158H87.3759V92.414H84.2119V93.058H87.3759V97.79H83.3719V98.434H91.9539V97.79H88.0479ZM94.4739 88.312H104.988V89.964H105.66V87.71H100.522C100.326 87.29 100.018 86.702 99.7239 86.268L99.0519 86.464C99.3039 86.828 99.5559 87.318 99.7379 87.71H93.8159V89.964H94.4739V88.312ZM104.26 94.584C103.644 95.06 102.594 95.746 101.754 96.194C101.166 95.648 100.69 95.004 100.34 94.262H105.604V93.66H95.6639C95.6779 93.352 95.6779 93.058 95.6779 92.792V92.316H103.728V91.728H95.6779V90.426H104.568V89.81H95.0059V92.778C95.0059 94.584 94.8099 96.95 93.2979 98.686C93.4659 98.756 93.7319 98.952 93.8439 99.092C95.0339 97.72 95.4679 95.9 95.6219 94.262H97.0779V97.454C97.0779 98.028 96.6439 98.308 96.4059 98.42C96.5179 98.588 96.6859 98.882 96.7279 99.064C96.9799 98.896 97.3999 98.784 101.236 97.86C101.222 97.72 101.222 97.468 101.236 97.3L97.7499 98.042V94.262H99.6819C100.718 96.656 102.846 98.224 105.744 98.84C105.842 98.672 106.01 98.406 106.164 98.266C104.582 97.986 103.224 97.384 102.16 96.558C103 96.138 104.022 95.55 104.778 94.976L104.26 94.584ZM119.856 91.63V91H112.576C112.828 90.51 113.066 89.992 113.262 89.474L112.758 89.334C113.276 89.18 113.766 88.998 114.256 88.802C115.796 89.376 117.182 89.978 118.148 90.496L118.624 89.964C117.714 89.502 116.44 88.984 115.068 88.466C116.258 87.934 117.336 87.36 118.218 86.688L117.672 86.338C116.762 87.024 115.586 87.64 114.256 88.172C112.702 87.612 111.036 87.08 109.566 86.674L109.118 87.108C110.462 87.472 111.974 87.962 113.43 88.494C111.778 89.082 109.972 89.558 108.264 89.88C108.404 90.006 108.628 90.286 108.726 90.454C109.958 90.174 111.26 89.824 112.548 89.404C112.338 89.95 112.086 90.482 111.806 91H107.592V91.63H111.428C110.42 93.198 109.02 94.598 107.326 95.55C107.466 95.676 107.648 95.9 107.76 96.054C108.586 95.578 109.356 95.004 110.028 94.36V98.154H110.7V94.164H113.92V99.022H114.578V94.164H118.092V97.202C118.092 97.384 118.036 97.44 117.798 97.454C117.588 97.468 116.86 97.468 115.908 97.44C116.006 97.622 116.118 97.846 116.16 98.042C117.28 98.042 117.952 98.042 118.302 97.93C118.652 97.804 118.75 97.622 118.75 97.202V93.548H114.578V92.036H113.92V93.548H110.812C111.33 92.946 111.806 92.302 112.212 91.63H119.856ZM140.063 91.63V91H132.783C133.035 90.51 133.273 89.992 133.469 89.474L132.965 89.334C133.483 89.18 133.973 88.998 134.463 88.802C136.003 89.376 137.389 89.978 138.355 90.496L138.831 89.964C137.921 89.502 136.647 88.984 135.275 88.466C136.465 87.934 137.543 87.36 138.425 86.688L137.879 86.338C136.969 87.024 135.793 87.64 134.463 88.172C132.909 87.612 131.243 87.08 129.773 86.674L129.325 87.108C130.669 87.472 132.181 87.962 133.637 88.494C131.985 89.082 130.179 89.558 128.471 89.88C128.611 90.006 128.835 90.286 128.933 90.454C130.165 90.174 131.467 89.824 132.755 89.404C132.545 89.95 132.293 90.482 132.013 91H127.799V91.63H131.635C130.627 93.198 129.227 94.598 127.533 95.55C127.673 95.676 127.855 95.9 127.967 96.054C128.793 95.578 129.563 95.004 130.235 94.36V98.154H130.907V94.164H134.127V99.022H134.785V94.164H138.299V97.202C138.299 97.384 138.243 97.44 138.005 97.454C137.795 97.468 137.067 97.468 136.115 97.44C136.213 97.622 136.325 97.846 136.367 98.042C137.487 98.042 138.159 98.042 138.509 97.93C138.859 97.804 138.957 97.622 138.957 97.202V93.548H134.785V92.036H134.127V93.548H131.019C131.537 92.946 132.013 92.302 132.419 91.63H140.063ZM154.063 91.63V91H146.783C147.035 90.51 147.273 89.992 147.469 89.474L146.965 89.334C147.483 89.18 147.973 88.998 148.463 88.802C150.003 89.376 151.389 89.978 152.355 90.496L152.831 89.964C151.921 89.502 150.647 88.984 149.275 88.466C150.465 87.934 151.543 87.36 152.425 86.688L151.879 86.338C150.969 87.024 149.793 87.64 148.463 88.172C146.909 87.612 145.243 87.08 143.773 86.674L143.325 87.108C144.669 87.472 146.181 87.962 147.637 88.494C145.985 89.082 144.179 89.558 142.471 89.88C142.611 90.006 142.835 90.286 142.933 90.454C144.165 90.174 145.467 89.824 146.755 89.404C146.545 89.95 146.293 90.482 146.013 91H141.799V91.63H145.635C144.627 93.198 143.227 94.598 141.533 95.55C141.673 95.676 141.855 95.9 141.967 96.054C142.793 95.578 143.563 95.004 144.235 94.36V98.154H144.907V94.164H148.127V99.022H148.785V94.164H152.299V97.202C152.299 97.384 152.243 97.44 152.005 97.454C151.795 97.468 151.067 97.468 150.115 97.44C150.213 97.622 150.325 97.846 150.367 98.042C151.487 98.042 152.159 98.042 152.509 97.93C152.859 97.804 152.957 97.622 152.957 97.202V93.548H148.785V92.036H148.127V93.548H145.019C145.537 92.946 146.013 92.302 146.419 91.63H154.063Z" fill="white"/>
<path d="M10.3259 56.5538L13.7659 49.3858L12.9019 49.0978L9.34987 56.5538L12.9019 64.0098L13.7659 63.7218L10.3259 56.5538ZM12.8539 56.5538L16.2939 49.3858L15.4299 49.0978L11.8779 56.5538L15.4299 64.0098L16.2939 63.7218L12.8539 56.5538ZM21.84 59.4818C21.68 60.7618 21.44 62.1698 21.072 63.1458C21.328 63.2258 21.824 63.3858 22.064 63.5138C22.384 62.5218 22.704 61.0178 22.864 59.6578L21.84 59.4818ZM23.632 59.6098C23.808 60.7138 24 62.1698 24.032 63.1298L25.04 62.9378C24.976 61.9778 24.784 60.5378 24.576 59.4338L23.632 59.6098ZM25.344 59.2578C25.68 60.2018 26.048 61.4498 26.208 62.2498L27.152 61.9138C26.992 61.1298 26.592 59.9138 26.24 58.9858L25.344 59.2578ZM25.088 55.5138C25.28 55.9778 25.488 56.4898 25.648 57.0018L23.04 57.3538C24.336 55.9458 25.584 54.1538 26.624 52.3458L25.616 51.7378C25.28 52.4258 24.864 53.1138 24.464 53.7698L22.688 53.9298C23.616 52.7298 24.528 51.1618 25.264 49.6578L24.176 49.1938C23.488 50.9378 22.32 52.7618 21.984 53.2418C21.632 53.7058 21.344 54.0578 21.072 54.1218C21.2 54.3938 21.376 54.9538 21.44 55.1938C21.664 55.0818 22.032 55.0018 23.76 54.8098C23.152 55.6898 22.608 56.3618 22.352 56.6498C21.888 57.2098 21.504 57.6098 21.168 57.6898C21.296 57.9778 21.472 58.5538 21.536 58.7938C21.856 58.6178 22.336 58.4898 25.952 57.9298C26.048 58.2658 26.128 58.5858 26.176 58.8418L27.184 58.4578C26.976 57.6418 26.48 56.2498 26.016 55.2258L25.088 55.5138ZM32.688 62.5858C32.464 62.5858 32.304 62.5538 32.144 62.5058C31.984 62.3938 31.92 62.0898 31.92 61.6258V59.3858H33.952V60.2658H35.024V53.9618H33.952V58.2818H31.92V52.4898H35.712V51.3858H31.92V49.2738H30.816V51.3858H27.456V52.4898H30.816V58.2818H28.864V53.9778H27.824V59.3858H30.816V61.4658C30.816 62.8258 30.976 63.1138 31.328 63.3378C31.632 63.5458 32.112 63.6098 32.496 63.6098H33.808C34.192 63.6098 34.624 63.5778 34.928 63.4818C35.232 63.3858 35.44 63.1938 35.568 62.9058C35.696 62.6178 35.792 61.8658 35.808 61.2738C35.44 61.1778 35.056 60.9858 34.8 60.7618C34.784 61.4338 34.736 61.9458 34.672 62.1698C34.624 62.3778 34.48 62.4898 34.352 62.5218C34.208 62.5698 33.952 62.5858 33.696 62.5858H32.688ZM40.832 58.6978H48.08V59.8178H40.832V58.6978ZM48.08 53.4498V54.5218H40.832V53.4498H48.08ZM48.08 56.9698V57.9298H40.832V56.9698H48.08ZM48.08 56.2018H40.832V55.2898H48.08V56.2018ZM51.504 59.8178H49.264V52.6338H44.656C44.72 52.3298 44.784 51.9938 44.848 51.6258H51.104V50.6018H45.024L45.232 49.3698L43.968 49.2258C43.936 49.6258 43.888 50.1218 43.824 50.6018H37.856V51.6258H43.68C43.648 51.9938 43.584 52.3298 43.52 52.6338H39.68V59.8178H37.408V60.8258H51.504V59.8178ZM42.016 61.1458C41.008 61.8178 39.008 62.6018 37.408 63.0338C37.664 63.2578 38.032 63.6258 38.224 63.8658C39.808 63.4178 41.792 62.6178 43.056 61.8178L42.016 61.1458ZM45.936 61.8658C47.712 62.4578 49.52 63.2258 50.608 63.8338L51.568 63.0018C50.4 62.4258 48.448 61.6578 46.672 61.0978L45.936 61.8658ZM59.9941 64.0098L63.5461 56.5538L59.9941 49.0978L59.1301 49.3858L62.5701 56.5538L59.1301 63.7218L59.9941 64.0098ZM57.4661 64.0098L61.0181 56.5538L57.4661 49.0978L56.6021 49.3858L60.0421 56.5538L56.6021 63.7218L57.4661 64.0098ZM77.9941 59.4338C77.2741 60.5058 76.2181 61.7058 75.2741 62.5058C75.5621 62.6818 76.0421 63.0018 76.2821 63.1778C77.1781 62.3138 78.2821 60.9698 79.0981 59.8178L77.9941 59.4338ZM77.9461 56.2178H84.5861V57.7058H77.9461V56.2178ZM77.9461 53.8338H84.5861V55.3218H77.9461V53.8338ZM85.7861 58.6498V52.8898H81.1781C81.4021 52.4898 81.6421 52.0578 81.8821 51.6258L80.5061 51.4178C80.3621 51.8338 80.1381 52.4098 79.8981 52.8898H76.7781V58.6498H80.6821V62.5378C80.6821 62.7298 80.6181 62.7938 80.3621 62.8098C80.1221 62.8098 79.3061 62.8098 78.3781 62.7938C78.5221 63.0978 78.6981 63.5298 78.7461 63.8498C79.9621 63.8498 80.7461 63.8498 81.2261 63.6578C81.7061 63.4818 81.8341 63.1778 81.8341 62.5538V58.6498H85.7861ZM83.1781 59.9618C84.1381 61.0018 85.4021 62.4098 85.9941 63.2738L86.9861 62.6338C86.3461 61.8178 85.0661 60.4578 84.1221 59.4658L83.1781 59.9618ZM87.0501 50.1378H74.1701V54.6498C74.1701 57.0818 74.0261 60.5058 72.6341 62.9378C72.9381 63.0498 73.4341 63.3378 73.6581 63.5298C75.1301 60.9858 75.3381 57.2098 75.3381 54.6498V51.2258H87.0501V50.1378ZM100.97 52.3458H95.9621V50.8578H100.97V52.3458ZM100.97 54.7778H95.9621V53.2578H100.97V54.7778ZM102.154 49.8978H94.8101V55.7378H102.154V49.8978ZM92.3141 51.8658V58.5378H90.4421V51.8658H92.3141ZM93.4181 50.7618H89.3381V61.1618H90.4421V59.6418H93.4181V50.7618ZM95.4821 62.1858V60.4898H101.514V62.1858H95.4821ZM101.514 57.8818V59.4818H95.4821V57.8818H101.514ZM94.3141 56.8578V63.8498H95.4821V63.2258H101.514V63.7698H102.714V56.8578H94.3141ZM104.202 65.4978H105.274L110.058 49.9458H109.002L104.202 65.4978ZM121.396 56.5858C121.268 58.0578 121.076 60.1058 120.9 61.8178H116.436C116.74 60.3618 117.076 58.4898 117.38 56.5858H121.396ZM122.132 61.8178C122.372 59.7378 122.596 57.2098 122.708 55.4498L121.796 55.3538L121.588 55.4178H117.556C117.748 54.2498 117.924 53.0498 118.084 51.9778H124.228V50.8098H112.26V51.9778H116.82C116.676 53.0498 116.5 54.2338 116.308 55.4178H113.14V56.5858H116.116C115.796 58.4898 115.46 60.3618 115.14 61.8178H111.252V62.9858H125.38V61.8178H122.132ZM130.66 57.7378C130.788 56.7938 130.836 55.8818 130.836 55.0498H138.148V57.7378H130.66ZM138.148 51.2578V53.9138H130.836V51.2578H138.148ZM139.38 50.0898H129.636V54.9858C129.636 57.5298 129.38 60.7778 126.836 63.0178C127.076 63.1938 127.556 63.6258 127.716 63.8818C129.268 62.5218 130.068 60.7138 130.468 58.9058H138.148V62.1058C138.148 62.4578 138.02 62.5698 137.652 62.5858C137.284 62.5858 136.004 62.6018 134.66 62.5538C134.868 62.8898 135.092 63.4498 135.172 63.7858C136.884 63.7858 137.94 63.7698 138.548 63.5618C139.14 63.3698 139.38 62.9538 139.38 62.1218V50.0898ZM157.236 56.5698V55.3698H150.724C150.788 54.7618 150.804 54.1378 150.804 53.5778V51.6898H156.548V50.4898H143.972V51.6898H149.572V53.5618C149.572 54.1218 149.556 54.7458 149.476 55.3698H143.412V56.5698H149.236C148.676 58.8098 147.124 61.1618 143.012 62.8418C143.268 63.0818 143.636 63.5298 143.78 63.8338C147.844 62.1538 149.588 59.8018 150.308 57.4658C151.572 60.5698 153.7 62.7618 156.884 63.8178C157.06 63.4978 157.412 63.0018 157.684 62.7458C154.452 61.8178 152.276 59.5938 151.156 56.5698H157.236Z" fill="#00E0B8"/>
<path d="M210.746 33.2754L8.93335 33.2754V34.0521L210.746 34.0521V33.2754Z" fill="white"/>
<path d="M213.8 30.5435H200.71V36.6521H213.8V30.5435Z" fill="#00E0B8"/>
<path d="M16.1279 12.7C15.9119 12.484 15.5999 12.256 15.2639 12.04C15.5279 11.788 15.7559 11.536 15.9599 11.272L15.3359 11.068C15.1679 11.296 14.9519 11.512 14.7359 11.704C14.4239 11.536 14.1119 11.356 13.8119 11.224L13.3679 11.62C13.6439 11.752 13.9439 11.908 14.2319 12.088C13.8719 12.34 13.4879 12.568 13.0919 12.748C13.2479 12.868 13.4999 13.096 13.5839 13.216C13.9799 13 14.3879 12.748 14.7839 12.436C15.1319 12.688 15.4439 12.916 15.6479 13.132L16.1279 12.7ZM16.0919 10.552C15.8759 10.384 15.5879 10.192 15.2639 9.988C15.5159 9.748 15.7319 9.508 15.9239 9.256L15.2999 9.088C15.1439 9.28 14.9519 9.484 14.7359 9.676C14.4239 9.508 14.1239 9.352 13.8359 9.232L13.4039 9.628C13.6679 9.748 13.9679 9.892 14.2439 10.06C13.9079 10.288 13.5479 10.504 13.1759 10.672C13.3319 10.78 13.5839 10.996 13.6799 11.104C14.0519 10.912 14.4239 10.66 14.7959 10.384C15.1199 10.588 15.4319 10.816 15.6239 10.996L16.0919 10.552ZM10.5119 13.912H18.9479V15.4H19.8239V13.228H18.8879C18.9839 12.16 19.0919 10.612 19.1519 9.424H16.3799V10.036H18.2879L18.2519 10.684H16.4399V11.296H18.2159L18.1559 11.944H16.3679V12.556H18.1079C18.0839 12.796 18.0599 13.012 18.0359 13.228H11.4599L11.4119 12.556H13.0799V11.944H11.3759L11.3279 11.296H13.0319V10.684H11.2919L11.2439 10.096C11.8679 9.976 12.5759 9.82 13.1039 9.628L12.6959 9.076C12.1079 9.256 11.0759 9.544 10.3799 9.664L10.6199 13.228H9.65988V15.4H10.5119V13.912ZM20.0639 16.828H15.2639V16.612C16.2119 16.228 17.2319 15.7 17.9759 15.124L17.4359 14.68L17.2559 14.728H11.6159V15.4H16.3079C15.7319 15.748 15.0359 16.084 14.3999 16.312V16.828H9.39588V17.584H14.3999V18.94C14.3999 19.108 14.3519 19.144 14.1479 19.156C13.9679 19.156 13.2959 19.156 12.5519 19.132C12.6719 19.36 12.8159 19.66 12.8639 19.888C13.8119 19.888 14.4119 19.9 14.7959 19.768C15.1679 19.636 15.2639 19.432 15.2639 18.964V17.584H20.0639V16.828ZM29.5919 11.392H23.9159V10.144H29.5919V11.392ZM30.5159 9.424H23.0279V12.112H30.5159V9.424ZM23.4119 16.408H30.0719V17.272H23.4119V16.408ZM23.4119 14.932H30.0719V15.772H23.4119V14.932ZM23.4119 13.456H30.0719V14.296H23.4119V13.456ZM30.9839 17.932V12.796H22.5239V17.932H24.7559C23.9999 18.424 22.4639 18.976 21.2279 19.264C21.4439 19.444 21.7319 19.744 21.8879 19.924C23.1119 19.612 24.6599 19.036 25.6199 18.448L24.8279 17.932H30.9839ZM27.6959 18.532C28.9559 18.904 30.5639 19.516 31.4639 19.936L32.2319 19.288C31.2959 18.904 29.6999 18.316 28.4639 17.956L27.6959 18.532ZM35.5395 21.148H36.3435L39.9315 9.484H39.1395L35.5395 21.148Z" fill="#00E0B8"/>
<path d="M51.3151 7.64V8.616H48.6111V7.64H51.3151ZM55.0431 8.616H52.3711V7.64H55.0431V8.616ZM58.8511 9.4V10.52H56.1311V9.4H58.8511ZM52.3711 9.4H55.0431V10.52H52.3711V9.4ZM48.6111 9.4H51.3151V10.52H48.6111V9.4ZM53.2831 12.856L52.9631 13.24C53.5871 13.56 54.4511 14.104 54.9311 14.424L55.4911 13.72C55.1231 13.48 54.5311 13.16 53.9871 12.856H59.5071C59.3311 13.304 59.0911 13.72 58.8831 14.04L59.8271 14.264C60.1951 13.736 60.5951 12.936 60.9471 12.216L60.1631 12.008L59.9871 12.04H48.6111V11.544V11.304H59.9551V8.616H56.1311V7.64H60.6111V6.696H54.9631C54.8351 6.312 54.6751 5.864 54.4991 5.496L53.3631 5.704C53.4591 6.008 53.5871 6.36 53.6831 6.696H47.5071V11.544C47.5071 13.928 47.3951 17.224 46.1151 19.576C46.3551 19.672 46.8351 20.008 47.0271 20.232C48.1791 18.152 48.5151 15.24 48.5951 12.856H53.2831ZM56.6591 13.56C57.2991 14.152 58.1311 14.984 58.5471 15.48L59.2991 14.936C58.8671 14.44 58.0191 13.656 57.3791 13.096L56.6591 13.56ZM49.6351 15.464C50.1311 14.936 50.6431 14.136 51.0271 13.576L50.2271 13.096C49.8591 13.656 49.3151 14.44 48.8191 14.904L49.6351 15.464ZM51.9871 16.856H56.8351C56.1791 17.352 55.3311 17.784 54.3711 18.12C53.4271 17.816 52.5471 17.432 51.7951 17L51.9871 16.856ZM57.8911 16.056L57.6831 16.104H52.9791C53.2351 15.88 53.4751 15.672 53.6671 15.448H55.6671C56.5631 15.448 56.8511 15.176 56.9471 14.136C56.6751 14.104 56.3231 13.992 56.1151 13.864C56.0671 14.584 55.9711 14.68 55.5231 14.68H53.1711C52.5151 14.68 52.4031 14.632 52.4031 14.312V13.32H51.4271V14.312C51.4271 15.064 51.6351 15.336 52.4031 15.416C52.0191 15.768 51.5551 16.12 51.0111 16.472C50.6431 16.2 50.3231 15.912 50.0671 15.608L49.1551 16.008C49.4431 16.36 49.7631 16.664 50.1311 16.952C49.5711 17.24 48.9631 17.496 48.3071 17.736C48.5471 17.896 48.8351 18.216 48.9791 18.44C49.6671 18.152 50.3071 17.864 50.8991 17.528C51.5071 17.928 52.1791 18.28 52.8991 18.6C51.4111 18.984 49.7791 19.256 48.2111 19.4C48.3871 19.624 48.6111 20.008 48.6911 20.264C50.5631 20.04 52.5311 19.688 54.2591 19.096C55.9711 19.656 57.9071 20.008 59.9071 20.2C60.0351 19.912 60.2911 19.48 60.4991 19.24C58.8351 19.112 57.2191 18.872 55.7631 18.52C56.8991 17.992 57.8911 17.336 58.5791 16.52L57.8911 16.056ZM74.6431 8.248H69.6511V6.968H74.6431V8.248ZM74.6431 10.344H69.6511V9.064H74.6431V10.344ZM75.7471 6.104H68.5631V11.208H75.7471V6.104ZM67.3151 13.688L67.1711 12.616L65.6351 13.064V9.912H67.2351V8.824H65.6351V5.624H64.4991V8.824H62.3391V9.912H64.4991V13.4C63.5711 13.672 62.7391 13.912 62.0671 14.072L62.3391 15.224L64.4991 14.552V18.776C64.4991 19.016 64.4191 19.08 64.2111 19.08C64.0031 19.096 63.3471 19.096 62.6271 19.064C62.7871 19.384 62.9311 19.912 62.9791 20.2C64.0351 20.216 64.6751 20.184 65.0911 19.992C65.4911 19.784 65.6351 19.448 65.6351 18.776V14.216L67.3151 13.688ZM76.8991 13.208V12.216H67.5071V13.208H69.5391C68.8031 14.424 67.7631 15.512 66.6431 16.264C66.8671 16.424 67.2511 16.792 67.4271 16.968C68.0351 16.52 68.6271 15.96 69.1871 15.32H70.5631C69.6991 16.84 68.3871 18.168 66.9471 19.048C67.1871 19.208 67.5871 19.576 67.7311 19.752C69.2511 18.696 70.7231 17.144 71.6831 15.32H73.0751C72.4351 17.064 71.3951 18.584 70.0991 19.576C70.3551 19.736 70.7551 20.056 70.9471 20.232C72.2751 19.064 73.4431 17.336 74.1471 15.32H75.2511C75.0751 17.816 74.8671 18.792 74.6271 19.08C74.4991 19.224 74.3551 19.24 74.1151 19.24C73.8751 19.24 73.2511 19.24 72.5951 19.176C72.7551 19.432 72.8671 19.88 72.8831 20.168C73.5711 20.216 74.2271 20.216 74.5951 20.184C74.9951 20.152 75.2671 20.04 75.5071 19.784C75.9231 19.32 76.1311 18.088 76.3231 14.824C76.3391 14.664 76.3551 14.36 76.3551 14.36H69.9391C70.1951 13.992 70.4351 13.608 70.6431 13.208H76.8991Z" fill="white"/>
</svg>
