<svg width="214" height="103" viewBox="0 0 214 103" fill="none" xmlns="http://www.w3.org/2000/svg">
<path opacity="0.8" d="M20.0112 91.658C20.6412 91.658 21.2572 91.644 21.4812 91.588C21.4392 91.448 21.4112 91.182 21.3832 90.986C21.0892 91.042 20.3892 91.056 19.9832 91.056H15.9932C15.3772 91.056 15.2092 90.874 15.2092 90.342V88.816H20.9912V88.214H15.2092V86.422H14.5372V90.328C14.5372 91.322 14.8872 91.658 16.0072 91.658H20.0112ZM13.5012 92.428C12.9132 92.624 12.3112 92.806 11.7372 92.988V89.936H13.4732V89.278H11.7372V86.352H11.0792V89.278H8.95122V89.936H11.0792V93.212C10.1832 93.478 9.35722 93.73 8.72722 93.912L8.96522 94.57C9.58122 94.374 10.3092 94.136 11.0792 93.898V98.126C11.0792 98.336 10.9952 98.392 10.8132 98.392C10.6452 98.406 10.0432 98.406 9.35722 98.392C9.45522 98.574 9.56722 98.854 9.60922 99.022C10.5052 99.022 11.0092 99.008 11.3172 98.896C11.6112 98.784 11.7372 98.588 11.7372 98.112V93.674L13.5992 93.072L13.5012 92.428ZM20.2912 93.66V95.368H15.1392V93.66H20.2912ZM15.1392 97.748V95.956H20.2912V97.748H15.1392ZM14.4952 99.022H15.1392V98.35H20.2912V98.952H20.9492V93.058H14.4952V99.022ZM33.4232 90.328H28.1452V89.572H33.4232V90.328ZM33.4232 91.56H28.1452V90.79H33.4232V91.56ZM33.4232 92.806H28.1452V92.022H33.4232V92.806ZM27.5152 89.096V93.282H34.0812V89.096H30.5532C30.7072 88.844 30.8472 88.55 30.9732 88.256H35.1872V87.696H32.7232C32.9752 87.346 33.2412 86.954 33.4932 86.562L32.8492 86.366C32.6672 86.744 32.3172 87.304 32.0372 87.696H29.3632L29.6992 87.556C29.5872 87.206 29.2372 86.688 28.9152 86.352L28.3692 86.562C28.6492 86.898 28.9572 87.346 29.0832 87.696H26.5772V88.256H30.3152C30.2032 88.536 30.0632 88.83 29.9372 89.096H27.5152ZM24.9532 87.724C24.8132 87.36 24.5192 86.786 24.3092 86.338L23.7492 86.506C23.9452 86.968 24.2112 87.57 24.3652 87.948L24.9532 87.724ZM25.3732 96.726C26.1712 97.188 27.1092 97.902 27.5292 98.42L28.0192 97.958C27.5712 97.44 26.6192 96.754 25.8212 96.32L25.3732 96.726ZM32.5132 94.668H31.8692V95.578H23.1192V96.152H31.8692V98.126C31.8692 98.322 31.8132 98.378 31.5612 98.378C31.3372 98.392 30.5392 98.406 29.5312 98.378C29.6292 98.56 29.7272 98.784 29.7692 98.966C30.9732 98.966 31.6732 98.966 32.0512 98.854C32.4292 98.742 32.5132 98.56 32.5132 98.126V96.152H35.3132V95.578H32.5132V94.668ZM25.8632 90.16L25.7652 90.202H24.5612C24.9532 89.572 25.4012 88.788 25.7932 88.102H23.0072V88.676H24.8132C24.4212 89.404 23.9452 90.188 23.5672 90.762H25.4572C25.1632 91.56 24.7152 92.428 24.2112 93.002C23.8332 93.268 23.4412 93.674 23.0492 94.122L23.4692 94.64C24.0152 93.898 24.5612 93.268 24.9252 93.268C25.2052 93.268 25.6112 93.618 26.1152 93.926C27.0252 94.43 28.2852 94.514 29.9092 94.514C31.3512 94.514 34.0812 94.444 35.4112 94.36C35.4252 94.192 35.5232 93.87 35.6072 93.702C34.1232 93.842 31.8272 93.94 29.9232 93.94C28.3692 93.94 27.1512 93.884 26.2972 93.422C25.7232 93.086 25.4292 92.806 25.1072 92.736C25.5692 92.05 25.9752 91.14 26.2552 90.328L25.8632 90.16ZM42.6632 91.224V88.998H46.3592C45.5892 89.796 44.7352 90.538 43.8252 91.224H42.6632ZM49.4532 91.868V91.224H44.8892C46.3452 90.034 47.6752 88.676 48.7812 87.206L48.1792 86.87C47.6612 87.584 47.0592 88.256 46.4292 88.914V88.368H42.6912V86.338H42.0332V88.368H38.2532V88.998H42.0332V91.224H37.0632V91.868H42.9432C41.0812 93.17 39.0092 94.248 36.8532 95.074C37.0072 95.214 37.2312 95.494 37.3432 95.648C38.5612 95.144 39.7652 94.57 40.9132 93.912V97.426C40.9132 98.476 41.3892 98.7 43.0692 98.7H47.4372C48.9772 98.7 49.2432 98.238 49.3972 96.306C49.1872 96.264 48.9212 96.166 48.7392 96.04C48.6272 97.748 48.4592 98.07 47.4372 98.07H43.0132C41.8232 98.07 41.5992 97.944 41.5992 97.412V95.13H48.0252V94.5H41.5992V93.52C42.4532 93.002 43.2652 92.456 44.0632 91.868H49.4532ZM55.0252 94.248V97.048H52.0992V94.248H55.0252ZM54.8852 89.068V91.49H52.0992V89.068H54.8852ZM52.0992 92.106H55.5292V88.452H53.2752C53.5552 87.864 53.8352 87.122 54.0732 86.492L53.3592 86.324C53.2052 86.94 52.8972 87.822 52.6312 88.452H51.4552V98.63H52.0992V97.65H55.6412V93.632H52.0992V92.106ZM63.5512 87.752V87.122H56.1732V87.752H59.5052V89.754H56.7332V96.964H57.3632V90.384H59.5052V98.994H60.1492V90.384H62.4592V96.082C62.4592 96.208 62.4172 96.264 62.2632 96.264C62.1092 96.278 61.6192 96.278 60.9892 96.264C61.0732 96.446 61.1852 96.712 61.2132 96.866C61.9972 96.866 62.4592 96.866 62.7392 96.768C63.0472 96.656 63.1032 96.446 63.1032 96.082V89.754H60.1492V87.752H63.5512ZM71.2512 90.16C71.7132 90.16 72.1472 89.824 72.1472 89.264C72.1472 88.69 71.7132 88.368 71.2512 88.368C70.7892 88.368 70.3552 88.69 70.3552 89.264C70.3552 89.824 70.7892 90.16 71.2512 90.16ZM71.2512 97.104C71.7132 97.104 72.1472 96.782 72.1472 96.222C72.1472 95.648 71.7132 95.326 71.2512 95.326C70.7892 95.326 70.3552 95.648 70.3552 96.222C70.3552 96.782 70.7892 97.104 71.2512 97.104ZM82.8012 86.912L82.6892 86.94H79.4692V99.022H80.0992V87.57H82.4092C82.0592 88.536 81.5692 89.796 81.0792 90.902C82.1992 92.078 82.5072 93.072 82.5072 93.898C82.5072 94.332 82.4232 94.78 82.1852 94.934C82.0592 95.018 81.9052 95.06 81.7092 95.074C81.4712 95.088 81.1492 95.074 80.7852 95.06C80.8972 95.242 80.9672 95.494 80.9812 95.662C81.2892 95.69 81.6392 95.69 81.9472 95.662C82.1992 95.634 82.4512 95.55 82.6192 95.438C82.9832 95.186 83.1372 94.598 83.1372 93.94C83.1372 93.03 82.8432 92.022 81.7372 90.818C82.2412 89.698 82.8152 88.312 83.2352 87.192L82.8012 86.912ZM84.5372 92.442H86.9452V93.982H84.5372V92.442ZM84.5372 90.384H86.9452V91.896H84.5372V90.384ZM90.0672 90.384V91.896H87.5892V90.384H90.0672ZM90.0672 93.982H87.5892V92.442H90.0672V93.982ZM90.7112 94.542V89.824H87.5892V88.522H91.3552V87.92H87.5892V86.352H86.9452V87.92H83.2772V88.522H86.9452V89.824H83.9072V94.542H86.2872C85.3772 95.886 83.8792 97.188 82.5352 97.818C82.6892 97.958 82.8852 98.196 82.9972 98.35C84.4112 97.594 86.0212 96.124 86.9452 94.598V99.008H87.5892V94.57C88.4292 96.068 89.8852 97.566 91.2432 98.294C91.3412 98.126 91.5652 97.888 91.7052 97.762C90.4172 97.146 89.0312 95.872 88.2052 94.542H90.7112ZM104.389 95.27C102.695 97.02 99.2092 98.056 95.3032 98.476C95.4432 98.644 95.5832 98.924 95.6532 99.092C99.6152 98.602 103.199 97.496 104.991 95.592L104.389 95.27ZM102.149 91.868C100.819 92.736 98.3272 93.38 96.1712 93.674C96.3252 93.814 96.4512 94.052 96.5492 94.192C98.7472 93.814 101.253 93.128 102.709 92.176L102.149 91.868ZM103.017 93.632C101.575 94.752 98.8172 95.564 96.2692 95.956C96.3952 96.096 96.5352 96.32 96.6332 96.488C99.2512 96.04 102.023 95.158 103.591 93.954L103.017 93.632ZM95.9332 91.196C97.1092 90.874 98.3972 90.468 99.5732 89.992C100.721 90.384 101.785 90.818 102.527 91.168L103.059 90.72C102.345 90.398 101.379 90.034 100.343 89.656C101.197 89.264 101.981 88.83 102.597 88.382L102.387 88.256H104.949V87.668H100.035C99.8952 87.234 99.6432 86.632 99.3492 86.156L98.7472 86.338C98.9712 86.73 99.1812 87.248 99.3212 87.668H94.0572V88.256H101.813C101.225 88.662 100.455 89.054 99.6012 89.404C98.4952 89.04 97.3612 88.704 96.3532 88.466L95.7932 88.872C96.7452 89.096 97.7812 89.39 98.8032 89.726C97.6412 90.16 96.3952 90.524 95.2892 90.79C95.3732 90.874 95.4852 91.056 95.5692 91.196H94.0292V93.394C94.0292 94.906 93.8612 97.048 92.7692 98.644C92.9232 98.714 93.2032 98.924 93.3152 99.036C94.4632 97.384 94.6872 95.032 94.6872 93.408V91.798H105.285V91.196H95.9332ZM109.513 96.558C110.367 97.104 111.375 97.93 111.851 98.462L112.299 97.986C111.823 97.454 110.787 96.67 109.961 96.152L109.513 96.558ZM110.185 92.946H116.317V92.442H110.185V92.946ZM108.995 90.076H111.697C111.613 90.692 111.179 91.364 109.415 91.7C109.541 91.812 109.709 92.022 109.765 92.176C111.725 91.686 112.215 90.874 112.299 90.076H114.077V90.846C114.077 91.476 114.301 91.616 115.197 91.616H117.171C117.255 91.616 117.339 91.616 117.409 91.602V93.814H108.995V90.076ZM112.313 88.522H114.077V89.558H112.313V88.522ZM117.409 90.076V91.112C117.381 91.14 117.297 91.154 117.087 91.154H115.239C114.763 91.154 114.693 91.098 114.693 90.846V90.076H117.409ZM119.551 95.354H116.107V94.332H118.067V89.558H114.693V88.522H119.201V87.934H115.687C115.995 87.528 116.345 87.024 116.625 86.562L115.967 86.31C115.757 86.772 115.323 87.458 114.987 87.934H111.375L111.543 87.836C111.291 87.43 110.731 86.8 110.283 86.338L109.737 86.604C110.129 86.996 110.577 87.528 110.843 87.934H107.259V88.522H111.711V89.558H108.365V94.332H115.449V95.354H106.937V95.942H115.449V98.14C115.449 98.336 115.407 98.378 115.141 98.406C114.903 98.42 114.147 98.42 113.097 98.392C113.209 98.602 113.307 98.826 113.349 99.022C114.511 99.022 115.225 99.022 115.617 98.91C116.009 98.798 116.107 98.602 116.107 98.14V95.942H119.551V95.354ZM124.839 98H125.609V91.532C125.609 90.692 125.553 89.572 125.511 88.718H125.567L126.365 91L128.521 96.908H129.193L131.335 91L132.133 88.718H132.189C132.147 89.572 132.091 90.692 132.091 91.532V98H132.889V87.794H131.769L129.669 93.66C129.417 94.402 129.179 95.158 128.913 95.9H128.857L128.059 93.66L125.959 87.794H124.839V98ZM135.774 98H136.586V90.538H135.774V98ZM136.194 88.788C136.558 88.788 136.88 88.522 136.88 88.144C136.88 87.724 136.558 87.472 136.194 87.472C135.816 87.472 135.508 87.724 135.508 88.144C135.508 88.522 135.816 88.788 136.194 88.788ZM139.37 98H140.182V95.984L141.792 94.08L144.2 98H145.096L142.268 93.492L144.704 90.538H143.78L140.21 94.934H140.182V86.87H139.37V98ZM149.322 98.182C150.4 98.182 151.1 97.832 151.702 97.454L151.394 96.852C150.834 97.244 150.204 97.496 149.406 97.496C147.796 97.496 146.718 96.222 146.676 94.402H151.968C151.996 94.22 152.01 94.024 152.01 93.814C152.01 91.63 150.932 90.342 149.126 90.342C147.432 90.342 145.85 91.854 145.85 94.276C145.85 96.726 147.404 98.182 149.322 98.182ZM146.676 93.758C146.83 92.05 147.922 91.042 149.14 91.042C150.442 91.042 151.268 91.952 151.268 93.758H146.676Z" fill="white"/>
<path d="M9.85322 56.5538L13.2932 49.3858L12.4292 49.0978L8.87722 56.5538L12.4292 64.0098L13.2932 63.7218L9.85322 56.5538ZM12.3812 56.5538L15.8212 49.3858L14.9572 49.0978L11.4052 56.5538L14.9572 64.0098L15.8212 63.7218L12.3812 56.5538ZM33.5913 50.6978V51.7698H31.2713V50.6978H33.5913ZM33.7833 54.6018C34.1993 54.6018 34.6473 54.5858 34.8553 54.5218C34.8233 54.2978 34.7753 53.9298 34.7593 53.6738C34.5193 53.7218 34.0553 53.7378 33.7513 53.7378H31.6873C31.3353 53.7378 31.2713 53.5938 31.2713 53.1618V52.5858H34.6313V49.8978H30.2793V53.1298C30.2793 54.2018 30.5513 54.6018 31.6393 54.6018H33.7833ZM28.4713 50.6818V51.7538H26.1833V50.6818H28.4713ZM26.1833 53.7858V52.5698H29.4953V49.8818H25.2233V53.1458C25.2233 53.7538 24.9833 53.9458 24.8073 54.0578C24.9353 54.2818 25.1593 54.7298 25.2233 55.0018C25.4953 54.8418 25.9273 54.7458 29.0953 54.1858C29.1433 53.9778 29.2393 53.5938 29.3193 53.3218L26.1833 53.7858ZM28.5353 56.9538H31.1273V58.4258H28.5353V56.9538ZM35.0953 58.4258H32.2313V56.9538H34.4553V56.0258H32.2313V54.8738H31.1273V56.0258H28.5353V54.8738H27.4313V56.0258H25.2713V56.9538H27.4313V58.4258H24.6633V59.3698H35.0953V58.4258ZM34.7593 61.3538C33.9753 60.7458 32.6313 59.9778 31.3993 59.4018L30.6313 59.9618C31.7993 60.5538 33.0313 61.3058 33.7193 61.9138L34.7593 61.3538ZM28.0873 59.4338C27.3353 60.1058 26.1193 60.7618 24.9673 61.2258C25.2393 61.3698 25.6553 61.7538 25.8633 61.9618C26.9673 61.4178 28.2793 60.6018 29.1433 59.7858L28.0873 59.4338ZM23.7993 51.9778C23.5593 51.2898 23.0953 50.2018 22.7433 49.3698L21.6873 49.6578C22.0233 50.5058 22.4553 51.6418 22.6953 52.3458L23.7993 51.9778ZM23.8153 56.6658L23.6233 56.7138H22.7433C23.1913 55.6098 23.7033 54.2658 24.1033 53.1138H20.7753V54.1858H22.5673C22.1513 55.4498 21.6233 56.8098 21.1753 57.7538H23.2553C22.9513 59.0178 22.4553 60.3938 21.7673 61.3058L21.7993 61.3218C21.3993 61.6738 20.9513 62.2338 20.5193 62.8578L21.3353 63.9298C21.7993 62.9218 22.3433 61.9138 22.6953 61.9138C23.0633 61.9138 23.6393 62.4578 24.2793 62.8418C25.4633 63.5458 26.8713 63.7218 28.9673 63.7218C30.8553 63.7218 33.8953 63.6258 35.0953 63.5458C35.1113 63.1938 35.2873 62.6338 35.4313 62.3138C33.6553 62.4898 31.0633 62.6498 28.9993 62.6498C27.1113 62.6498 25.6713 62.5378 24.5353 61.8498C23.8953 61.4658 23.5113 61.1458 23.1913 60.9698C23.7993 59.8338 24.2473 58.3778 24.5033 56.9698L23.8153 56.6658ZM41.2553 55.9938L39.8153 56.4738V53.5618H41.4313V52.4578H39.8153V49.2738H38.6953V52.4578H36.7753V53.5618H38.6953V56.8258C37.9113 57.0818 37.1913 57.3058 36.6153 57.4658L36.9033 58.6018C37.4633 58.4258 38.0713 58.2338 38.6953 58.0098V62.4098C38.6953 62.6178 38.6153 62.6818 38.4233 62.6818C38.2473 62.6978 37.6073 62.6978 36.9193 62.6658C37.0793 63.0018 37.2233 63.4818 37.2713 63.7858C38.2793 63.7858 38.8873 63.7538 39.2553 63.5618C39.6553 63.3698 39.8153 63.0498 39.8153 62.3938V57.6258C40.3433 57.4658 40.8713 57.2738 41.4153 57.0818L41.2553 55.9938ZM48.2313 57.1458C48.0713 57.5938 47.7833 58.2018 47.5593 58.6658H44.9833L45.1433 58.6178C45.0633 58.2178 44.7593 57.6098 44.5193 57.1458H48.2313ZM45.5913 50.7138H47.1913V52.3778H45.5913V50.7138ZM44.6473 52.3778H43.1273V50.7138H44.6473V52.3778ZM48.1353 50.7138H49.7513V52.3778H48.1353V50.7138ZM51.1593 60.7458H46.8873V59.5938H50.5993V58.6658H48.6313C48.8553 58.2818 49.1113 57.8338 49.3513 57.4018L48.4073 57.1458H50.9513V56.2018H46.8873V55.0818H50.4233V54.1698H46.8873V53.2258H50.7593V49.8498H42.1513V53.2258H45.7513V54.1698H42.3273V55.0818H45.7513V56.2018H41.6393V57.1458H44.4393L43.5273 57.3698C43.7353 57.7698 43.9433 58.2818 44.0713 58.6658H41.9593V59.5938H45.7513V60.7458H41.4153V61.6738H45.7513V63.8658H46.8873V61.6738H51.1593V60.7458ZM59.5215 64.0098L63.0735 56.5538L59.5215 49.0978L58.6575 49.3858L62.0975 56.5538L58.6575 63.7218L59.5215 64.0098ZM56.9935 64.0098L60.5455 56.5538L56.9935 49.0978L56.1295 49.3858L59.5695 56.5538L56.1295 63.7218L56.9935 64.0098Z" fill="#00E0B8"/>
<path d="M210.273 33.2754L8.46069 33.2754V34.0521L210.273 34.0521V33.2754Z" fill="white"/>
<path d="M213.328 30.5435H200.238V36.6521H213.328V30.5435Z" fill="#00E0B8"/>
<path d="M15.6552 12.7C15.4392 12.484 15.1272 12.256 14.7912 12.04C15.0552 11.788 15.2832 11.536 15.4872 11.272L14.8632 11.068C14.6952 11.296 14.4792 11.512 14.2632 11.704C13.9512 11.536 13.6392 11.356 13.3392 11.224L12.8952 11.62C13.1712 11.752 13.4712 11.908 13.7592 12.088C13.3992 12.34 13.0152 12.568 12.6192 12.748C12.7752 12.868 13.0272 13.096 13.1112 13.216C13.5072 13 13.9152 12.748 14.3112 12.436C14.6592 12.688 14.9712 12.916 15.1752 13.132L15.6552 12.7ZM15.6192 10.552C15.4032 10.384 15.1152 10.192 14.7912 9.988C15.0432 9.748 15.2592 9.508 15.4512 9.256L14.8272 9.088C14.6712 9.28 14.4792 9.484 14.2632 9.676C13.9512 9.508 13.6512 9.352 13.3632 9.232L12.9312 9.628C13.1952 9.748 13.4952 9.892 13.7712 10.06C13.4352 10.288 13.0752 10.504 12.7032 10.672C12.8592 10.78 13.1112 10.996 13.2072 11.104C13.5792 10.912 13.9512 10.66 14.3232 10.384C14.6472 10.588 14.9592 10.816 15.1512 10.996L15.6192 10.552ZM10.0392 13.912H18.4752V15.4H19.3512V13.228H18.4152C18.5112 12.16 18.6192 10.612 18.6792 9.424H15.9072V10.036H17.8152L17.7792 10.684H15.9672V11.296H17.7432L17.6832 11.944H15.8952V12.556H17.6352C17.6112 12.796 17.5872 13.012 17.5632 13.228H10.9872L10.9392 12.556H12.6072V11.944H10.9032L10.8552 11.296H12.5592V10.684H10.8192L10.7712 10.096C11.3952 9.976 12.1032 9.82 12.6312 9.628L12.2232 9.076C11.6352 9.256 10.6032 9.544 9.90722 9.664L10.1472 13.228H9.18722V15.4H10.0392V13.912ZM19.5912 16.828H14.7912V16.612C15.7392 16.228 16.7592 15.7 17.5032 15.124L16.9632 14.68L16.7832 14.728H11.1432V15.4H15.8352C15.2592 15.748 14.5632 16.084 13.9272 16.312V16.828H8.92322V17.584H13.9272V18.94C13.9272 19.108 13.8792 19.144 13.6752 19.156C13.4952 19.156 12.8232 19.156 12.0792 19.132C12.1992 19.36 12.3432 19.66 12.3912 19.888C13.3392 19.888 13.9392 19.9 14.3232 19.768C14.6952 19.636 14.7912 19.432 14.7912 18.964V17.584H19.5912V16.828ZM29.1192 11.392H23.4432V10.144H29.1192V11.392ZM30.0432 9.424H22.5552V12.112H30.0432V9.424ZM22.9392 16.408H29.5992V17.272H22.9392V16.408ZM22.9392 14.932H29.5992V15.772H22.9392V14.932ZM22.9392 13.456H29.5992V14.296H22.9392V13.456ZM30.5112 17.932V12.796H22.0512V17.932H24.2832C23.5272 18.424 21.9912 18.976 20.7552 19.264C20.9712 19.444 21.2592 19.744 21.4152 19.924C22.6392 19.612 24.1872 19.036 25.1472 18.448L24.3552 17.932H30.5112ZM27.2232 18.532C28.4832 18.904 30.0912 19.516 30.9912 19.936L31.7592 19.288C30.8232 18.904 29.2272 18.316 27.9912 17.956L27.2232 18.532ZM35.0668 21.148H35.8708L39.4588 9.484H38.6668L35.0668 21.148Z" fill="#00E0B8"/>
<path d="M49.1932 5.688C48.3772 8.088 47.0172 10.488 45.5612 12.024C45.7692 12.28 46.1212 12.904 46.2492 13.176C46.6812 12.68 47.1292 12.12 47.5452 11.512V20.2H48.6812V9.64C49.3052 8.488 49.8652 7.256 50.2972 6.008L49.1932 5.688ZM56.6012 15.608V13.464H58.1532V15.608H56.6012ZM54.0732 15.608V13.464H55.6572V15.608H54.0732ZM51.5932 15.608V13.464H53.1292V15.608H51.5932ZM59.2572 12.424H50.5052V20.216H51.5932V16.616H53.1292V19.944H54.0732V16.616H55.6572V19.912H56.6012V16.616H58.1532V18.824C58.1532 18.952 58.1212 19 57.9772 19H57.0652C57.2092 19.288 57.3532 19.72 57.3692 20.024C58.0732 20.024 58.5372 20.008 58.8412 19.832C59.1772 19.64 59.2572 19.352 59.2572 18.84V12.424ZM52.2812 10.008C53.2572 9.24 54.1852 8.344 54.9212 7.416C55.6252 8.344 56.5212 9.256 57.4652 10.008H52.2812ZM54.8572 5.544C53.7212 7.464 51.4012 9.512 49.2892 10.456C49.5932 10.696 49.9292 11.144 50.1212 11.448C50.6812 11.16 51.2732 10.776 51.8332 10.376V11.048H57.9772V10.392C58.5212 10.776 59.0652 11.112 59.6092 11.368C59.8012 11.048 60.2012 10.568 60.4892 10.344C58.6812 9.624 56.6492 8.072 55.5452 6.552C55.6412 6.44 55.7372 6.296 55.8012 6.152L54.8572 5.544ZM69.1932 9.56L69.7212 9.4C69.6412 9 69.3692 8.376 69.0812 7.912H72.8092C72.6172 8.408 72.2972 9.096 72.0252 9.56H69.1932ZM72.2492 15.512H69.7212V14.296H72.2492V15.512ZM68.0252 8.056C68.3132 8.52 68.5532 9.128 68.6652 9.56H66.4732V17.608H67.5612V10.504H70.5052V11.592H68.1212V12.408H70.5052V13.544H68.8412V16.872H69.7212V16.264H73.1292V13.544H71.4172V12.408H73.8012V11.592H71.4172V10.504H74.4572V16.44C74.4572 16.6 74.4092 16.664 74.2172 16.68C74.0092 16.696 73.4012 16.696 72.6812 16.664C72.8092 16.952 72.9852 17.384 73.0332 17.688C73.9772 17.688 74.6332 17.672 75.0492 17.496C75.4652 17.304 75.5612 17.016 75.5612 16.44V9.56H73.1452C73.4332 9.112 73.7212 8.568 73.9932 8.024L73.5772 7.912H76.1372V6.952H71.6732C71.4332 6.488 71.0652 5.928 70.7132 5.512L69.7692 5.88C70.0092 6.2 70.2332 6.584 70.4412 6.952H65.8972V7.912H68.5692L68.0252 8.056ZM64.7612 8.232C64.5052 7.544 64.0252 6.504 63.6732 5.672L62.6332 6.008C62.9692 6.84 63.4812 7.944 63.7212 8.648L64.7612 8.232ZM65.0972 13.032L64.9052 13.08H63.8172C64.2812 11.992 64.8092 10.632 65.2412 9.48H61.8012V10.552H63.7052C63.2412 11.816 62.6972 13.176 62.2332 14.12H64.3612C64.1212 15.224 63.7372 16.456 63.3052 17.352C62.7772 17.64 62.1692 18.344 61.5452 19.224L62.3612 20.296C62.8412 19.288 63.3692 18.28 63.7372 18.28C64.0892 18.28 64.6812 18.824 65.3212 19.208C66.5052 19.912 67.8972 20.088 70.0092 20.088C71.8972 20.088 74.9372 19.992 76.1212 19.912C76.1532 19.56 76.3292 19 76.4892 18.68C74.6972 18.856 72.1052 19.016 70.0572 19.016C68.1532 19.016 66.7132 18.904 65.5772 18.216C65.0172 17.88 64.6492 17.592 64.3452 17.4C64.8892 16.232 65.3372 14.648 65.6412 13.24L65.0972 13.032Z" fill="white"/>
</svg>
