<svg width="214" height="149" viewBox="0 0 214 149" fill="none" xmlns="http://www.w3.org/2000/svg">
<path opacity="0.8" d="M12.5582 112.06C12.3482 111.556 11.9282 110.842 11.5222 110.282L11.0322 110.576C11.4102 111.122 11.8442 111.892 12.0402 112.396L12.5582 112.06ZM13.2722 118.766V121.538H10.6682V118.766H13.2722ZM13.8882 118.164H10.0662V122.84H10.6682V122.14H13.8882V118.164ZM10.0942 116.932H13.8602V116.344H10.0942V116.932ZM13.8602 114.538H10.0942V115.112H13.8602V114.538ZM9.5482 113.348H14.3922V112.746H9.5482V113.348ZM18.7042 115.91V119.074H16.0162V115.91H18.7042ZM19.3202 119.676V115.294H15.4142V120.67H16.0162V119.676H19.3202ZM20.1182 113.264H14.7982V113.866H20.1182V113.264ZM21.6162 111.094H14.4482V111.724H20.9862V122C20.9862 122.252 20.9022 122.322 20.6782 122.336C20.4262 122.35 19.6002 122.364 18.6902 122.336C18.8022 122.532 18.9002 122.84 18.9422 123.022C20.0482 123.022 20.7482 123.022 21.1262 122.896C21.4762 122.77 21.6162 122.546 21.6162 122.014V111.094ZM31.7522 121.44V117.898H34.6782V121.44H31.7522ZM24.9202 117.898H27.6782V121.44H24.9202V117.898ZM27.6782 113.81V117.254H24.9202V113.81H27.6782ZM31.0942 117.898V121.44H28.3362V117.898H31.0942ZM31.0942 113.81V117.254H28.3362V113.81H31.0942ZM34.6782 113.81V117.254H31.7522V113.81H34.6782ZM31.7522 113.152V110.492H31.0942V113.152H28.3362V110.492H27.6782V113.152H24.2762V123.05H24.9202V122.098H34.6782V122.966H35.3362V113.152H31.7522ZM43.4282 115.182V116.274H39.2842V115.182H43.4282ZM39.2282 117.982C39.2702 117.562 39.2842 117.156 39.2842 116.792H43.4282V117.982H39.2282ZM44.0582 118.542V114.622H38.6542V116.666C38.6542 118.234 38.4722 120.404 37.3802 122.042C37.5342 122.112 37.8142 122.28 37.9262 122.392C38.6822 121.272 39.0182 119.858 39.1862 118.542H44.0582ZM39.9702 113.25V113.768H42.9802V113.25H39.9702ZM43.7642 119.886V121.664H39.9142V119.886H43.7642ZM39.2982 122.91H39.9142V122.238H43.7642V122.896H44.3942V119.326H39.2982V122.91ZM41.2022 110.52C40.3902 111.976 38.9202 113.18 37.3942 113.95C37.5342 114.104 37.7302 114.398 37.8002 114.538C39.0742 113.81 40.3762 112.774 41.2862 111.528C42.4202 112.242 43.7782 113.194 44.4782 113.796L44.8422 113.278C44.1282 112.676 42.7562 111.752 41.6082 111.066C41.6782 110.954 41.7482 110.828 41.8182 110.73L41.2022 110.52ZM46.5782 111.962H45.9342V119.592H46.5782V111.962ZM48.6362 110.422V122.014C48.6362 122.266 48.5382 122.336 48.3002 122.35C48.0762 122.364 47.2922 122.364 46.3822 122.35C46.4802 122.546 46.5782 122.826 46.6202 123.008C47.7822 123.008 48.4262 123.008 48.7902 122.882C49.1262 122.756 49.2942 122.546 49.2942 122.014V110.422H48.6362ZM55.0622 110.394C54.2222 112.592 52.8642 114.762 51.4222 116.148C51.5622 116.288 51.7722 116.624 51.8422 116.764C52.4302 116.176 52.9902 115.476 53.5222 114.72V123.008H54.2082V113.642C54.7822 112.676 55.2862 111.64 55.7062 110.59L55.0622 110.394ZM64.1202 113.362V112.718H58.0022C58.3242 112.074 58.6042 111.388 58.8562 110.702L58.2262 110.534C57.4982 112.606 56.3502 114.65 55.0762 115.98C55.2162 116.078 55.4962 116.316 55.6082 116.414C56.3502 115.588 57.0642 114.538 57.6942 113.362H58.9122V123.022H59.5842V119.438H64.0362V118.794H59.5842V116.344H63.8402V115.714H59.5842V113.362H64.1202ZM71.5122 109.68V123.68H72.0442V109.68H71.5122ZM79.5482 115.364C79.7162 115.294 80.0102 115.224 81.6902 115C81.1162 115.896 80.6122 116.61 80.3742 116.89C79.9822 117.408 79.6602 117.786 79.4082 117.828C79.4922 117.996 79.5902 118.332 79.6322 118.472C79.8702 118.36 80.2482 118.262 83.5802 117.744C83.6642 117.996 83.7342 118.248 83.7762 118.458L84.3502 118.248C84.1962 117.562 83.7762 116.4 83.3842 115.518L82.8382 115.686C83.0482 116.162 83.2582 116.694 83.4262 117.212L80.5142 117.632C81.6342 116.288 82.7402 114.538 83.6922 112.802L83.1182 112.494C82.7962 113.152 82.4322 113.81 82.0682 114.412L80.3042 114.594C81.1162 113.488 81.9282 112.032 82.5722 110.618L81.9702 110.352C81.3822 111.892 80.3742 113.53 80.0662 113.95C79.7862 114.37 79.5482 114.692 79.3382 114.734C79.4082 114.902 79.5062 115.224 79.5342 115.378C79.5342 115.364 79.5342 115.35 79.5482 115.322V115.364ZM80.0522 119.172C79.8842 120.32 79.6462 121.566 79.3242 122.448C79.4642 122.504 79.7582 122.616 79.8842 122.658C80.1642 121.804 80.4442 120.474 80.6262 119.284L80.0522 119.172ZM81.4662 119.242C81.6342 120.152 81.7742 121.356 81.8162 122.154L82.3622 122.028C82.3202 121.244 82.1662 120.054 82.0122 119.13L81.4662 119.242ZM82.9782 118.99C83.2302 119.676 83.5102 120.572 83.6222 121.188L84.1682 120.964C84.0422 120.39 83.7482 119.494 83.4962 118.794L82.9782 118.99ZM90.6082 113.53V115.182H85.3862V113.53H90.6082ZM91.2242 115.77V112.956H85.3862V111.864C87.4162 111.64 89.6982 111.304 91.1682 110.856L90.5942 110.38C89.3062 110.8 86.8282 111.164 84.7562 111.388V115.518C84.7562 117.618 84.6722 120.586 83.8042 122.728C83.9722 122.784 84.2522 122.952 84.3782 123.05C85.2322 120.936 85.3722 117.912 85.3862 115.77H91.2242ZM89.7122 119.424V117.506H90.9442V119.424H89.7122ZM87.9902 119.424V117.506H89.2082V119.424H87.9902ZM86.2962 119.424V117.506H87.4862V119.424H86.2962ZM91.5182 116.918H85.7222V123.036H86.2962V120.012H87.4862V122.826H87.9902V120.012H89.2082V122.756H89.7122V120.012H90.9442V122.252C90.9442 122.364 90.9162 122.392 90.8042 122.392C90.7062 122.406 90.4122 122.406 90.0762 122.392C90.1462 122.546 90.2442 122.77 90.2582 122.91C90.7482 122.91 91.0562 122.91 91.2662 122.812C91.4622 122.7 91.5182 122.574 91.5182 122.266V116.918ZM101.752 121.44V117.898H104.678V121.44H101.752ZM94.9202 117.898H97.6782V121.44H94.9202V117.898ZM97.6782 113.81V117.254H94.9202V113.81H97.6782ZM101.094 117.898V121.44H98.3362V117.898H101.094ZM101.094 113.81V117.254H98.3362V113.81H101.094ZM104.678 113.81V117.254H101.752V113.81H104.678ZM101.752 113.152V110.492H101.094V113.152H98.3362V110.492H97.6782V113.152H94.2762V123.05H94.9202V122.098H104.678V122.966H105.336V113.152H101.752ZM113.428 115.182V116.274H109.284V115.182H113.428ZM109.228 117.982C109.27 117.562 109.284 117.156 109.284 116.792H113.428V117.982H109.228ZM114.058 118.542V114.622H108.654V116.666C108.654 118.234 108.472 120.404 107.38 122.042C107.534 122.112 107.814 122.28 107.926 122.392C108.682 121.272 109.018 119.858 109.186 118.542H114.058ZM109.97 113.25V113.768H112.98V113.25H109.97ZM113.764 119.886V121.664H109.914V119.886H113.764ZM109.298 122.91H109.914V122.238H113.764V122.896H114.394V119.326H109.298V122.91ZM111.202 110.52C110.39 111.976 108.92 113.18 107.394 113.95C107.534 114.104 107.73 114.398 107.8 114.538C109.074 113.81 110.376 112.774 111.286 111.528C112.42 112.242 113.778 113.194 114.478 113.796L114.842 113.278C114.128 112.676 112.756 111.752 111.608 111.066C111.678 110.954 111.748 110.828 111.818 110.73L111.202 110.52ZM116.578 111.962H115.934V119.592H116.578V111.962ZM118.636 110.422V122.014C118.636 122.266 118.538 122.336 118.3 122.35C118.076 122.364 117.292 122.364 116.382 122.35C116.48 122.546 116.578 122.826 116.62 123.008C117.782 123.008 118.426 123.008 118.79 122.882C119.126 122.756 119.294 122.546 119.294 122.014V110.422H118.636ZM125.062 110.394C124.222 112.592 122.864 114.762 121.422 116.148C121.562 116.288 121.772 116.624 121.842 116.764C122.43 116.176 122.99 115.476 123.522 114.72V123.008H124.208V113.642C124.782 112.676 125.286 111.64 125.706 110.59L125.062 110.394ZM134.12 113.362V112.718H128.002C128.324 112.074 128.604 111.388 128.856 110.702L128.226 110.534C127.498 112.606 126.35 114.65 125.076 115.98C125.216 116.078 125.496 116.316 125.608 116.414C126.35 115.588 127.064 114.538 127.694 113.362H128.912V123.022H129.584V119.438H134.036V118.794H129.584V116.344H133.84V115.714H129.584V113.362H134.12ZM141.512 109.68V123.68H142.044V109.68H141.512ZM151.046 119.634H154.406V119.06H151.046V119.634ZM153.356 113.642H152.152V111.584H153.356V113.642ZM155.092 116.82C155.064 116.834 155.008 116.834 154.868 116.834H154.126C153.916 116.834 153.888 116.806 153.888 116.638V114.258H155.092V116.82ZM150.374 121.342V114.258H151.648V115.322C151.648 116.092 151.438 117.058 150.374 117.786C150.5 117.856 150.682 118.024 150.766 118.136C151.9 117.338 152.166 116.218 152.166 115.322V114.258H153.37V116.638C153.37 117.254 153.538 117.352 154.112 117.352H154.966H155.092V121.342H150.374ZM149.492 111.584H151.564V113.642H149.786V122.98H150.374V121.93H155.092V122.798H155.68V113.642H153.944V111.584H156.044V110.982H149.492V111.584ZM158.242 122.266C157.556 122.266 157.416 122.154 157.416 121.678V116.274H161.742V110.968H156.702V111.612H161.098V115.616H156.758V121.664C156.758 122.672 157.094 122.896 158.214 122.896H160.776C161.924 122.896 162.148 122.308 162.246 120.082C162.05 120.04 161.784 119.914 161.602 119.802C161.546 121.888 161.434 122.266 160.734 122.266H158.242ZM174.398 113.152H169.386V111.542H174.398V113.152ZM174.398 115.336H169.386V113.712H174.398V115.336ZM175.07 110.968H168.742V115.924H175.07V110.968ZM166.684 112.368V118.64H164.64V112.368H166.684ZM167.328 111.738H164.01V120.684H164.64V119.284H167.328V111.738ZM168.91 121.818V119.984H174.93V121.818H168.91ZM174.93 117.66V119.382H168.91V117.66H174.93ZM168.252 117.058V123.008H168.91V122.42H174.93V122.952H175.602V117.058H168.252ZM183.512 109.68V123.68H184.044V109.68H183.512ZM12.3062 138.974H14.1122V138.372H12.3062V136.524H13.6642V135.922H10.2062C10.8782 135.25 11.5222 134.424 12.0402 133.556C12.8382 134.312 13.7482 135.25 14.2382 135.824L14.6302 135.362C14.1402 134.788 13.1602 133.822 12.3342 133.066C12.4182 132.898 12.5022 132.744 12.5862 132.576L11.9982 132.394C11.3962 133.696 10.4022 134.956 9.3522 135.796C9.4642 135.936 9.6602 136.244 9.7162 136.384C9.8702 136.244 10.0242 136.104 10.1782 135.95V136.524H11.7042V138.372H9.4922V138.974H11.7042V143.44C10.8082 143.608 10.0102 143.762 9.3802 143.874L9.5622 144.49C10.8362 144.238 12.6142 143.874 14.2802 143.524L14.2382 142.95C13.5802 143.09 12.9362 143.216 12.3062 143.342V138.974ZM9.7442 139.954C9.9682 140.794 10.1922 141.928 10.2762 142.67L10.8502 142.516C10.7522 141.802 10.5142 140.682 10.2762 139.842L9.7442 139.954ZM13.4682 142.516C13.7062 141.816 13.9302 140.71 14.1682 139.856L13.6082 139.66C13.4962 140.444 13.2442 141.634 13.0342 142.348L13.4682 142.516ZM16.3522 135.782C16.4782 135.306 16.6322 134.746 16.7862 134.186H20.1042C20.0202 134.634 19.9082 135.208 19.7822 135.782H16.3522ZM21.1122 139.142C20.6782 139.814 19.9362 140.71 19.3482 141.354C19.1102 141.186 18.8862 141.018 18.6622 140.864V138.302H22.1062V137.672H20.0202C20.3282 136.37 20.6502 134.746 20.8462 133.64L20.3842 133.556L20.2722 133.598H16.9402C17.0242 133.192 17.1362 132.772 17.2202 132.408L16.5622 132.324C16.2962 133.598 15.8482 135.334 15.4982 136.37H19.6842C19.5862 136.832 19.4882 137.266 19.3902 137.672H14.4342V138.302H18.0322V140.948C16.7582 141.97 15.4002 142.978 14.5182 143.594L14.9382 144.098C15.8342 143.412 16.9542 142.53 18.0322 141.634V144.224C18.0322 144.378 17.9902 144.42 17.8222 144.434C17.6542 144.434 17.1362 144.448 16.4922 144.42C16.5902 144.616 16.6882 144.854 16.7162 145.036C17.5002 145.036 18.0042 145.022 18.2982 144.924C18.5782 144.812 18.6622 144.63 18.6622 144.21V141.536C19.8242 142.362 21.0982 143.398 21.7842 144.098L22.1762 143.608C21.6442 143.076 20.7202 142.348 19.7822 141.662C20.3842 141.06 21.0982 140.22 21.6582 139.492L21.1122 139.142ZM17.1642 140.878C16.8422 140.388 16.1142 139.632 15.5122 139.086L15.0222 139.394C15.6382 139.968 16.3382 140.752 16.6882 141.256L17.1642 140.878ZM35.2522 133.696H30.4082C30.2542 133.262 29.9882 132.674 29.6802 132.254L29.0362 132.422C29.2882 132.786 29.5122 133.29 29.6662 133.696H24.4022V134.326H35.2522V133.696ZM28.0282 136.776C27.9022 136.16 27.4962 135.194 27.0202 134.494L26.4042 134.662C26.8522 135.362 27.2442 136.328 27.3702 136.986L28.0282 136.776ZM33.3622 139.688V141.452H26.3062V139.688H33.3622ZM26.3062 143.874V142.04H33.3622V143.874H26.3062ZM25.6342 145.036H26.3062V144.476H33.3622V144.994H34.0482V139.086H25.6342V145.036ZM32.1022 137.014C32.4942 136.328 32.9562 135.418 33.3062 134.662L32.6062 134.452C32.3262 135.208 31.8082 136.3 31.3882 137.014H23.6042V137.644H35.9662V137.014H32.1022ZM48.3142 135.152H42.4202V133.556H48.3142V135.152ZM48.3142 137.322H42.4202V135.712H48.3142V137.322ZM49.0142 132.982H41.7342V137.896H49.0142V132.982ZM40.3482 137.784C39.7742 137.392 38.6542 136.762 37.8282 136.328L37.4502 136.818C38.2902 137.266 39.4102 137.938 39.9982 138.33L40.3482 137.784ZM38.4582 144.826C39.2562 143.566 40.2782 141.718 41.0202 140.262L40.5442 139.814C39.7462 141.382 38.6542 143.286 37.8982 144.378L38.4582 144.826ZM38.1502 132.982C39.0462 133.458 40.1942 134.13 40.7962 134.564L41.1742 133.99C40.5582 133.584 39.3822 132.94 38.5282 132.506L38.1502 132.982ZM42.4622 144.126V140.99H45.3182V140.374H42.4622V138.386H41.8042V143.832C41.8042 144.28 41.5802 144.364 41.3982 144.42C41.4822 144.588 41.6082 144.896 41.6362 145.092C41.9022 144.938 42.2942 144.798 45.4162 144.014C45.3742 143.888 45.3182 143.622 45.2902 143.454L42.4622 144.126ZM47.1242 144.336C46.6062 144.336 46.5222 144.252 46.5222 143.874V140.976H49.7982V140.36H46.5222V138.358H45.8502V143.874C45.8502 144.728 46.1022 144.924 47.0822 144.924H49.0842C49.9242 144.924 50.1202 144.532 50.2042 142.992C50.0082 142.95 49.7422 142.838 49.5882 142.726C49.5462 144.084 49.4622 144.336 49.0282 144.336H47.1242ZM63.2522 133.696H58.4082C58.2542 133.262 57.9882 132.674 57.6802 132.254L57.0362 132.422C57.2882 132.786 57.5122 133.29 57.6662 133.696H52.4022V134.326H63.2522V133.696ZM56.0282 136.776C55.9022 136.16 55.4962 135.194 55.0202 134.494L54.4042 134.662C54.8522 135.362 55.2442 136.328 55.3702 136.986L56.0282 136.776ZM61.3622 139.688V141.452H54.3062V139.688H61.3622ZM54.3062 143.874V142.04H61.3622V143.874H54.3062ZM53.6342 145.036H54.3062V144.476H61.3622V144.994H62.0482V139.086H53.6342V145.036ZM60.1022 137.014C60.4942 136.328 60.9562 135.418 61.3062 134.662L60.6062 134.452C60.3262 135.208 59.8082 136.3 59.3882 137.014H51.6042V137.644H63.9662V137.014H60.1022Z" fill="white"/>
<path opacity="0.8" d="M20.5382 91.658C21.1682 91.658 21.7842 91.644 22.0082 91.588C21.9662 91.448 21.9382 91.182 21.9102 90.986C21.6162 91.042 20.9162 91.056 20.5102 91.056H16.5202C15.9042 91.056 15.7362 90.874 15.7362 90.342V88.816H21.5182V88.214H15.7362V86.422H15.0642V90.328C15.0642 91.322 15.4142 91.658 16.5342 91.658H20.5382ZM14.0282 92.428C13.4402 92.624 12.8382 92.806 12.2642 92.988V89.936H14.0002V89.278H12.2642V86.352H11.6062V89.278H9.4782V89.936H11.6062V93.212C10.7102 93.478 9.8842 93.73 9.2542 93.912L9.4922 94.57C10.1082 94.374 10.8362 94.136 11.6062 93.898V98.126C11.6062 98.336 11.5222 98.392 11.3402 98.392C11.1722 98.406 10.5702 98.406 9.8842 98.392C9.9822 98.574 10.0942 98.854 10.1362 99.022C11.0322 99.022 11.5362 99.008 11.8442 98.896C12.1382 98.784 12.2642 98.588 12.2642 98.112V93.674L14.1262 93.072L14.0282 92.428ZM20.8182 93.66V95.368H15.6662V93.66H20.8182ZM15.6662 97.748V95.956H20.8182V97.748H15.6662ZM15.0222 99.022H15.6662V98.35H20.8182V98.952H21.4762V93.058H15.0222V99.022ZM33.9502 90.328H28.6722V89.572H33.9502V90.328ZM33.9502 91.56H28.6722V90.79H33.9502V91.56ZM33.9502 92.806H28.6722V92.022H33.9502V92.806ZM28.0422 89.096V93.282H34.6082V89.096H31.0802C31.2342 88.844 31.3742 88.55 31.5002 88.256H35.7142V87.696H33.2502C33.5022 87.346 33.7682 86.954 34.0202 86.562L33.3762 86.366C33.1942 86.744 32.8442 87.304 32.5642 87.696H29.8902L30.2262 87.556C30.1142 87.206 29.7642 86.688 29.4422 86.352L28.8962 86.562C29.1762 86.898 29.4842 87.346 29.6102 87.696H27.1042V88.256H30.8422C30.7302 88.536 30.5902 88.83 30.4642 89.096H28.0422ZM25.4802 87.724C25.3402 87.36 25.0462 86.786 24.8362 86.338L24.2762 86.506C24.4722 86.968 24.7382 87.57 24.8922 87.948L25.4802 87.724ZM25.9002 96.726C26.6982 97.188 27.6362 97.902 28.0562 98.42L28.5462 97.958C28.0982 97.44 27.1462 96.754 26.3482 96.32L25.9002 96.726ZM33.0402 94.668H32.3962V95.578H23.6462V96.152H32.3962V98.126C32.3962 98.322 32.3402 98.378 32.0882 98.378C31.8642 98.392 31.0662 98.406 30.0582 98.378C30.1562 98.56 30.2542 98.784 30.2962 98.966C31.5002 98.966 32.2002 98.966 32.5782 98.854C32.9562 98.742 33.0402 98.56 33.0402 98.126V96.152H35.8402V95.578H33.0402V94.668ZM26.3902 90.16L26.2922 90.202H25.0882C25.4802 89.572 25.9282 88.788 26.3202 88.102H23.5342V88.676H25.3402C24.9482 89.404 24.4722 90.188 24.0942 90.762H25.9842C25.6902 91.56 25.2422 92.428 24.7382 93.002C24.3602 93.268 23.9682 93.674 23.5762 94.122L23.9962 94.64C24.5422 93.898 25.0882 93.268 25.4522 93.268C25.7322 93.268 26.1382 93.618 26.6422 93.926C27.5522 94.43 28.8122 94.514 30.4362 94.514C31.8782 94.514 34.6082 94.444 35.9382 94.36C35.9522 94.192 36.0502 93.87 36.1342 93.702C34.6502 93.842 32.3542 93.94 30.4502 93.94C28.8962 93.94 27.6782 93.884 26.8242 93.422C26.2502 93.086 25.9562 92.806 25.6342 92.736C26.0962 92.05 26.5022 91.14 26.7822 90.328L26.3902 90.16ZM43.1902 91.224V88.998H46.8862C46.1162 89.796 45.2622 90.538 44.3522 91.224H43.1902ZM49.9802 91.868V91.224H45.4162C46.8722 90.034 48.2022 88.676 49.3082 87.206L48.7062 86.87C48.1882 87.584 47.5862 88.256 46.9562 88.914V88.368H43.2182V86.338H42.5602V88.368H38.7802V88.998H42.5602V91.224H37.5902V91.868H43.4702C41.6082 93.17 39.5362 94.248 37.3802 95.074C37.5342 95.214 37.7582 95.494 37.8702 95.648C39.0882 95.144 40.2922 94.57 41.4402 93.912V97.426C41.4402 98.476 41.9162 98.7 43.5962 98.7H47.9642C49.5042 98.7 49.7702 98.238 49.9242 96.306C49.7142 96.264 49.4482 96.166 49.2662 96.04C49.1542 97.748 48.9862 98.07 47.9642 98.07H43.5402C42.3502 98.07 42.1262 97.944 42.1262 97.412V95.13H48.5522V94.5H42.1262V93.52C42.9802 93.002 43.7922 92.456 44.5902 91.868H49.9802ZM55.5522 94.248V97.048H52.6262V94.248H55.5522ZM55.4122 89.068V91.49H52.6262V89.068H55.4122ZM52.6262 92.106H56.0562V88.452H53.8022C54.0822 87.864 54.3622 87.122 54.6002 86.492L53.8862 86.324C53.7322 86.94 53.4242 87.822 53.1582 88.452H51.9822V98.63H52.6262V97.65H56.1682V93.632H52.6262V92.106ZM64.0782 87.752V87.122H56.7002V87.752H60.0322V89.754H57.2602V96.964H57.8902V90.384H60.0322V98.994H60.6762V90.384H62.9862V96.082C62.9862 96.208 62.9442 96.264 62.7902 96.264C62.6362 96.278 62.1462 96.278 61.5162 96.264C61.6002 96.446 61.7122 96.712 61.7402 96.866C62.5242 96.866 62.9862 96.866 63.2662 96.768C63.5742 96.656 63.6302 96.446 63.6302 96.082V89.754H60.6762V87.752H64.0782ZM71.7782 90.16C72.2402 90.16 72.6742 89.824 72.6742 89.264C72.6742 88.69 72.2402 88.368 71.7782 88.368C71.3162 88.368 70.8822 88.69 70.8822 89.264C70.8822 89.824 71.3162 90.16 71.7782 90.16ZM71.7782 97.104C72.2402 97.104 72.6742 96.782 72.6742 96.222C72.6742 95.648 72.2402 95.326 71.7782 95.326C71.3162 95.326 70.8822 95.648 70.8822 96.222C70.8822 96.782 71.3162 97.104 71.7782 97.104ZM83.3282 86.912L83.2162 86.94H79.9962V99.022H80.6262V87.57H82.9362C82.5862 88.536 82.0962 89.796 81.6062 90.902C82.7262 92.078 83.0342 93.072 83.0342 93.898C83.0342 94.332 82.9502 94.78 82.7122 94.934C82.5862 95.018 82.4322 95.06 82.2362 95.074C81.9982 95.088 81.6762 95.074 81.3122 95.06C81.4242 95.242 81.4942 95.494 81.5082 95.662C81.8162 95.69 82.1662 95.69 82.4742 95.662C82.7262 95.634 82.9782 95.55 83.1462 95.438C83.5102 95.186 83.6642 94.598 83.6642 93.94C83.6642 93.03 83.3702 92.022 82.2642 90.818C82.7682 89.698 83.3422 88.312 83.7622 87.192L83.3282 86.912ZM85.0642 92.442H87.4722V93.982H85.0642V92.442ZM85.0642 90.384H87.4722V91.896H85.0642V90.384ZM90.5942 90.384V91.896H88.1162V90.384H90.5942ZM90.5942 93.982H88.1162V92.442H90.5942V93.982ZM91.2382 94.542V89.824H88.1162V88.522H91.8822V87.92H88.1162V86.352H87.4722V87.92H83.8042V88.522H87.4722V89.824H84.4342V94.542H86.8142C85.9042 95.886 84.4062 97.188 83.0622 97.818C83.2162 97.958 83.4122 98.196 83.5242 98.35C84.9382 97.594 86.5482 96.124 87.4722 94.598V99.008H88.1162V94.57C88.9562 96.068 90.4122 97.566 91.7702 98.294C91.8682 98.126 92.0922 97.888 92.2322 97.762C90.9442 97.146 89.5582 95.872 88.7322 94.542H91.2382ZM104.916 95.27C103.222 97.02 99.7362 98.056 95.8302 98.476C95.9702 98.644 96.1102 98.924 96.1802 99.092C100.142 98.602 103.726 97.496 105.518 95.592L104.916 95.27ZM102.676 91.868C101.346 92.736 98.8542 93.38 96.6982 93.674C96.8522 93.814 96.9782 94.052 97.0762 94.192C99.2742 93.814 101.78 93.128 103.236 92.176L102.676 91.868ZM103.544 93.632C102.102 94.752 99.3442 95.564 96.7962 95.956C96.9222 96.096 97.0622 96.32 97.1602 96.488C99.7782 96.04 102.55 95.158 104.118 93.954L103.544 93.632ZM96.4602 91.196C97.6362 90.874 98.9242 90.468 100.1 89.992C101.248 90.384 102.312 90.818 103.054 91.168L103.586 90.72C102.872 90.398 101.906 90.034 100.87 89.656C101.724 89.264 102.508 88.83 103.124 88.382L102.914 88.256H105.476V87.668H100.562C100.422 87.234 100.17 86.632 99.8762 86.156L99.2742 86.338C99.4982 86.73 99.7082 87.248 99.8482 87.668H94.5842V88.256H102.34C101.752 88.662 100.982 89.054 100.128 89.404C99.0222 89.04 97.8882 88.704 96.8802 88.466L96.3202 88.872C97.2722 89.096 98.3082 89.39 99.3302 89.726C98.1682 90.16 96.9222 90.524 95.8162 90.79C95.9002 90.874 96.0122 91.056 96.0962 91.196H94.5562V93.394C94.5562 94.906 94.3882 97.048 93.2962 98.644C93.4502 98.714 93.7302 98.924 93.8422 99.036C94.9902 97.384 95.2142 95.032 95.2142 93.408V91.798H105.812V91.196H96.4602ZM110.04 96.558C110.894 97.104 111.902 97.93 112.378 98.462L112.826 97.986C112.35 97.454 111.314 96.67 110.488 96.152L110.04 96.558ZM110.712 92.946H116.844V92.442H110.712V92.946ZM109.522 90.076H112.224C112.14 90.692 111.706 91.364 109.942 91.7C110.068 91.812 110.236 92.022 110.292 92.176C112.252 91.686 112.742 90.874 112.826 90.076H114.604V90.846C114.604 91.476 114.828 91.616 115.724 91.616H117.698C117.782 91.616 117.866 91.616 117.936 91.602V93.814H109.522V90.076ZM112.84 88.522H114.604V89.558H112.84V88.522ZM117.936 90.076V91.112C117.908 91.14 117.824 91.154 117.614 91.154H115.766C115.29 91.154 115.22 91.098 115.22 90.846V90.076H117.936ZM120.078 95.354H116.634V94.332H118.594V89.558H115.22V88.522H119.728V87.934H116.214C116.522 87.528 116.872 87.024 117.152 86.562L116.494 86.31C116.284 86.772 115.85 87.458 115.514 87.934H111.902L112.07 87.836C111.818 87.43 111.258 86.8 110.81 86.338L110.264 86.604C110.656 86.996 111.104 87.528 111.37 87.934H107.786V88.522H112.238V89.558H108.892V94.332H115.976V95.354H107.464V95.942H115.976V98.14C115.976 98.336 115.934 98.378 115.668 98.406C115.43 98.42 114.674 98.42 113.624 98.392C113.736 98.602 113.834 98.826 113.876 99.022C115.038 99.022 115.752 99.022 116.144 98.91C116.536 98.798 116.634 98.602 116.634 98.14V95.942H120.078V95.354ZM125.366 98H126.136V91.532C126.136 90.692 126.08 89.572 126.038 88.718H126.094L126.892 91L129.048 96.908H129.72L131.862 91L132.66 88.718H132.716C132.674 89.572 132.618 90.692 132.618 91.532V98H133.416V87.794H132.296L130.196 93.66C129.944 94.402 129.706 95.158 129.44 95.9H129.384L128.586 93.66L126.486 87.794H125.366V98ZM136.301 98H137.113V90.538H136.301V98ZM136.721 88.788C137.085 88.788 137.407 88.522 137.407 88.144C137.407 87.724 137.085 87.472 136.721 87.472C136.343 87.472 136.035 87.724 136.035 88.144C136.035 88.522 136.343 88.788 136.721 88.788ZM139.897 98H140.709V95.984L142.319 94.08L144.727 98H145.623L142.795 93.492L145.231 90.538H144.307L140.737 94.934H140.709V86.87H139.897V98ZM149.849 98.182C150.927 98.182 151.627 97.832 152.229 97.454L151.921 96.852C151.361 97.244 150.731 97.496 149.933 97.496C148.323 97.496 147.245 96.222 147.203 94.402H152.495C152.523 94.22 152.537 94.024 152.537 93.814C152.537 91.63 151.459 90.342 149.653 90.342C147.959 90.342 146.377 91.854 146.377 94.276C146.377 96.726 147.931 98.182 149.849 98.182ZM147.203 93.758C147.357 92.05 148.449 91.042 149.667 91.042C150.969 91.042 151.795 91.952 151.795 93.758H147.203Z" fill="white"/>
<path d="M10.3802 56.5538L13.8202 49.3858L12.9562 49.0978L9.40419 56.5538L12.9562 64.0098L13.8202 63.7218L10.3802 56.5538ZM12.9082 56.5538L16.3482 49.3858L15.4842 49.0978L11.9322 56.5538L15.4842 64.0098L16.3482 63.7218L12.9082 56.5538ZM32.6943 58.8738C32.0863 59.9138 31.1583 60.7298 30.0383 61.3378C28.9343 60.7138 28.0863 59.8978 27.5263 58.8738H32.6943ZM33.5583 57.8018L33.3503 57.8498H26.0223V58.8738H26.3743C26.9823 60.1058 27.8143 61.0978 28.9023 61.8658C27.6703 62.3778 26.2783 62.6818 24.8383 62.8738C25.0303 63.1298 25.2543 63.5778 25.3343 63.8818C26.9823 63.6098 28.5983 63.1778 29.9903 62.5218C31.3343 63.1938 32.9343 63.6418 34.8383 63.8658C34.9503 63.5458 35.2543 63.0818 35.4783 62.8258C33.8303 62.6658 32.3743 62.3618 31.1583 61.8658C32.5343 60.9698 33.6383 59.7698 34.2783 58.1378L33.5583 57.8018ZM32.9023 53.1298H27.2863V54.5698C27.2863 55.4178 26.9823 56.2658 25.1743 56.8738C25.3983 57.0658 25.7823 57.5298 25.8943 57.7858C27.9423 57.0178 28.3903 55.7858 28.3903 54.6018V54.1538H31.7503V55.4818C31.7503 56.7298 32.0063 57.1618 33.1583 57.1618H34.4543C34.7583 57.1618 35.1103 57.1618 35.3183 57.0818C35.2863 56.7938 35.2383 56.3138 35.2063 55.9938C34.9823 56.0578 34.6623 56.0738 34.4223 56.0738H33.1903C32.9503 56.0738 32.9023 55.9298 32.9023 55.4978V53.1298ZM30.6303 51.0658C30.4703 50.5538 30.1023 49.7698 29.7503 49.1618L28.6143 49.4658C28.8543 49.9458 29.1263 50.5698 29.3183 51.0658H23.7023V54.8738C23.3823 54.1698 22.7423 53.0818 22.2143 52.2978L21.2543 52.6818C21.8143 53.5618 22.4703 54.7138 22.7263 55.4498L23.7023 55.0018V55.7858C23.7023 56.2178 23.7023 56.6498 23.6703 57.1138C22.6943 57.6738 21.7503 58.2178 21.0943 58.5538L21.5263 59.6258C22.1663 59.2258 22.8703 58.7778 23.5743 58.3298C23.3823 60.0258 22.8863 61.7858 21.6543 63.1778C21.9263 63.3218 22.4223 63.6738 22.5983 63.8978C24.5823 61.6578 24.8703 58.2818 24.8703 55.7858V52.1538H35.7503V51.0658H30.6303ZM49.7823 51.0658V54.7298H46.1343V51.0658H49.7823ZM49.9583 61.2578C51.3663 61.2578 51.7023 60.5858 51.8783 58.4098C51.5423 58.3458 51.0783 58.1538 50.8063 57.9458C50.7103 59.7698 50.5983 60.1698 49.9103 60.1698H47.0783C46.2783 60.1698 46.1343 60.0258 46.1343 59.3378V55.7858H50.9343V50.0098H44.9823V59.3378C44.9823 60.8578 45.4623 61.2578 46.9823 61.2578H49.9583ZM41.7183 58.6178H44.0063V57.5618H41.7183V55.1938H44.1503V54.1218H41.4623V52.1058H43.7663V51.0498H41.4623V49.2738H40.3263V51.0498H37.7343V52.1058H40.3263V54.1218H37.3343V55.1938H40.6143V61.1938C39.9743 60.6498 39.5103 59.8658 39.1583 58.7458C39.2063 58.0418 39.2383 57.2898 39.2543 56.5218L38.1343 56.4418C38.0863 59.2898 37.9103 61.8178 36.9823 63.4178C37.2543 63.5458 37.7663 63.8498 37.9743 63.9938C38.4543 63.0978 38.7423 62.0098 38.9343 60.7298C40.1023 62.9058 42.0063 63.4498 45.3823 63.4498H51.4783C51.5583 63.0978 51.7823 62.5538 51.9743 62.2658C50.9983 62.3138 46.1343 62.3138 45.3663 62.2978C43.8463 62.2978 42.6623 62.1858 41.7183 61.8338V58.6178ZM67.6703 57.1298V55.9458H61.1103V52.9218H66.4863V51.7538H61.1103V49.2418H59.8783V51.7538H54.6463V52.9218H59.8783V55.9458H53.3983V57.1298H58.4383C57.4143 58.9378 56.0863 60.6498 55.6383 61.1138C55.1743 61.6738 54.8063 62.0578 54.4703 62.1378C54.6303 62.4418 54.8063 63.0498 54.8703 63.3058C55.4943 63.0658 56.3743 63.0018 65.0303 62.3138C65.3503 62.8258 65.6063 63.2898 65.8143 63.7058L66.9503 63.0818C66.2143 61.6898 64.6623 59.5778 63.2223 58.0098L62.1823 58.4898C62.9023 59.3218 63.6703 60.3138 64.3423 61.2738L56.4383 61.8338C57.6383 60.5218 58.8543 58.8578 59.9263 57.1298H67.6703ZM73.4943 51.4018C73.3343 50.8098 72.9503 49.9298 72.5823 49.2418L71.5743 49.5938C71.8943 50.2818 72.2783 51.1938 72.4383 51.7858L73.4943 51.4018ZM72.1823 55.0818V53.0178H75.5583V51.8978H69.3823V53.0178H71.0943V55.4498C71.0943 57.7698 70.8863 60.6818 69.0623 63.1458C69.3343 63.3058 69.7343 63.5938 69.9103 63.8178C71.7183 61.4178 72.1183 58.6498 72.1823 56.1698H73.9903C73.8783 60.5378 73.7343 62.0898 73.4943 62.4418C73.3663 62.6338 73.2383 62.6658 73.0463 62.6658C72.8063 62.6658 72.3103 62.6498 71.7343 62.6018C71.9103 62.8898 72.0223 63.3378 72.0383 63.6578C72.6143 63.6898 73.1743 63.6898 73.5263 63.6418C73.9103 63.6098 74.1983 63.4818 74.4383 63.1458C74.8223 62.6018 74.9503 60.8578 75.0783 55.6258C75.0943 55.4498 75.0943 55.0818 75.0943 55.0818H72.1823ZM83.5903 52.4578V51.3698H78.0703C78.3103 50.7618 78.5343 50.1218 78.7103 49.4498L77.5583 49.2418C77.0943 51.1298 76.2303 52.9378 75.0943 54.1058C75.3663 54.2818 75.8303 54.6498 76.0383 54.8258C76.5983 54.1858 77.1423 53.3698 77.5903 52.4578H83.5903ZM82.7423 55.6898C82.2463 56.2498 81.4943 56.9218 80.8063 57.4818C80.5663 56.6178 80.4063 55.7058 80.2623 54.7778C81.3663 54.4738 82.4223 54.1218 83.2863 53.7538L82.3263 52.9218C81.0303 53.5618 78.7103 54.2178 76.6623 54.6498V61.5458C76.6623 62.2818 76.3423 62.6658 76.1183 62.8578C76.2943 63.0498 76.6143 63.4978 76.7263 63.7538C76.9983 63.4818 77.4463 63.2738 80.3743 61.9138C80.2943 61.6578 80.2143 61.1778 80.1983 60.8578L77.7983 61.9138V55.3858C78.2783 55.2738 78.7743 55.1618 79.2543 55.0338C79.7983 58.8258 80.8703 62.0098 82.9983 63.6098C83.1743 63.2898 83.5423 62.8578 83.8143 62.6498C82.5983 61.8018 81.7183 60.3138 81.1103 58.4898C81.9103 57.9298 82.8703 57.1458 83.6063 56.4258L82.7423 55.6898ZM99.2703 50.2178H91.4623V51.3378H99.2703V50.2178ZM88.7903 49.2418C87.9903 50.3778 86.4543 51.8178 85.1263 52.7138C85.3343 52.9378 85.6543 53.4018 85.8303 53.6578C87.2543 52.6498 88.8863 51.0978 89.9263 49.6898L88.7903 49.2418ZM89.4463 52.6498C88.3423 54.4578 86.6143 56.2978 84.9663 57.4658C85.2063 57.7058 85.6223 58.2178 85.7983 58.4578C86.3903 57.9938 86.9983 57.4178 87.6063 56.7938V63.8978H88.7903V55.4818C89.4463 54.6978 90.0543 53.8818 90.5503 53.0658L89.4463 52.6498ZM99.7343 54.5858H90.7743V55.7218H96.1183V62.3138C96.1183 62.5858 96.0223 62.6498 95.7183 62.6658C95.4143 62.6818 94.3583 62.6818 93.2223 62.6498C93.3983 62.9858 93.5583 63.4818 93.6063 63.8018C95.1743 63.8018 96.0703 63.8018 96.6143 63.6258C97.1423 63.4338 97.3183 63.0658 97.3183 62.3298V55.7218H99.7343V54.5858ZM108.048 64.0098L111.6 56.5538L108.048 49.0978L107.184 49.3858L110.624 56.5538L107.184 63.7218L108.048 64.0098ZM105.52 64.0098L109.072 56.5538L105.52 49.0978L104.656 49.3858L108.096 56.5538L104.656 63.7218L105.52 64.0098Z" fill="#00E0B8"/>
<path d="M210.8 33.2754L8.98761 33.2754V34.0521L210.8 34.0521V33.2754Z" fill="white"/>
<path d="M213.855 30.5435H200.765V36.6521H213.855V30.5435Z" fill="#00E0B8"/>
<path d="M16.1822 12.7C15.9662 12.484 15.6542 12.256 15.3182 12.04C15.5822 11.788 15.8102 11.536 16.0142 11.272L15.3902 11.068C15.2222 11.296 15.0062 11.512 14.7902 11.704C14.4782 11.536 14.1662 11.356 13.8662 11.224L13.4222 11.62C13.6982 11.752 13.9982 11.908 14.2862 12.088C13.9262 12.34 13.5422 12.568 13.1462 12.748C13.3022 12.868 13.5542 13.096 13.6382 13.216C14.0342 13 14.4422 12.748 14.8382 12.436C15.1862 12.688 15.4982 12.916 15.7022 13.132L16.1822 12.7ZM16.1462 10.552C15.9302 10.384 15.6422 10.192 15.3182 9.988C15.5702 9.748 15.7862 9.508 15.9782 9.256L15.3542 9.088C15.1982 9.28 15.0062 9.484 14.7902 9.676C14.4782 9.508 14.1782 9.352 13.8902 9.232L13.4582 9.628C13.7222 9.748 14.0222 9.892 14.2982 10.06C13.9622 10.288 13.6022 10.504 13.2302 10.672C13.3862 10.78 13.6382 10.996 13.7342 11.104C14.1062 10.912 14.4782 10.66 14.8502 10.384C15.1742 10.588 15.4862 10.816 15.6782 10.996L16.1462 10.552ZM10.5662 13.912H19.0022V15.4H19.8782V13.228H18.9422C19.0382 12.16 19.1462 10.612 19.2062 9.424H16.4342V10.036H18.3422L18.3062 10.684H16.4942V11.296H18.2702L18.2102 11.944H16.4222V12.556H18.1622C18.1382 12.796 18.1142 13.012 18.0902 13.228H11.5142L11.4662 12.556H13.1342V11.944H11.4302L11.3822 11.296H13.0862V10.684H11.3462L11.2982 10.096C11.9222 9.976 12.6302 9.82 13.1582 9.628L12.7502 9.076C12.1622 9.256 11.1302 9.544 10.4342 9.664L10.6742 13.228H9.7142V15.4H10.5662V13.912ZM20.1182 16.828H15.3182V16.612C16.2662 16.228 17.2862 15.7 18.0302 15.124L17.4902 14.68L17.3102 14.728H11.6702V15.4H16.3622C15.7862 15.748 15.0902 16.084 14.4542 16.312V16.828H9.4502V17.584H14.4542V18.94C14.4542 19.108 14.4062 19.144 14.2022 19.156C14.0222 19.156 13.3502 19.156 12.6062 19.132C12.7262 19.36 12.8702 19.66 12.9182 19.888C13.8662 19.888 14.4662 19.9 14.8502 19.768C15.2222 19.636 15.3182 19.432 15.3182 18.964V17.584H20.1182V16.828ZM29.6462 11.392H23.9702V10.144H29.6462V11.392ZM30.5702 9.424H23.0822V12.112H30.5702V9.424ZM23.4662 16.408H30.1262V17.272H23.4662V16.408ZM23.4662 14.932H30.1262V15.772H23.4662V14.932ZM23.4662 13.456H30.1262V14.296H23.4662V13.456ZM31.0382 17.932V12.796H22.5782V17.932H24.8102C24.0542 18.424 22.5182 18.976 21.2822 19.264C21.4982 19.444 21.7862 19.744 21.9422 19.924C23.1662 19.612 24.7142 19.036 25.6742 18.448L24.8822 17.932H31.0382ZM27.7502 18.532C29.0102 18.904 30.6182 19.516 31.5182 19.936L32.2862 19.288C31.3502 18.904 29.7542 18.316 28.5182 17.956L27.7502 18.532ZM35.5938 21.148H36.3978L39.9858 9.484H39.1938L35.5938 21.148Z" fill="#00E0B8"/>
<path d="M50.5694 7.656C50.2654 7.112 49.6414 6.264 49.0814 5.624L48.1694 6.168C48.6974 6.808 49.3214 7.704 49.6094 8.264L50.5694 7.656ZM51.3534 8.312L51.1454 8.36H46.5214V9.448H50.5534C49.5774 11.416 47.8494 13.336 46.1854 14.392C46.3614 14.6 46.6174 15.192 46.7134 15.528C47.3694 15.064 48.0574 14.456 48.7134 13.784V20.2H49.8014V13.336C50.3934 13.992 51.1134 14.872 51.4494 15.336L52.1374 14.376C51.8334 14.024 50.6654 12.808 50.0414 12.216C50.8094 11.144 51.4814 9.976 51.9614 8.76L51.3534 8.312ZM56.9694 14.728V12.488H59.2414V14.728H56.9694ZM53.5614 14.728V12.488H55.8014V14.728H53.5614ZM55.8014 9.208V11.416H53.5614V9.208H55.8014ZM59.2414 9.208V11.416H56.9694V9.208H59.2414ZM56.9694 8.136V5.608H55.8014V8.136H52.4734V16.552H53.5614V15.8H55.8014V20.2H56.9694V15.8H59.2414V16.44H60.3774V8.136H56.9694ZM72.4734 7.688C72.2494 7.128 71.7694 6.28 71.3054 5.608L70.2974 6.024C70.6974 6.68 71.1934 7.592 71.4014 8.152L72.4734 7.688ZM65.7694 5.672C64.9534 8.088 63.6414 10.472 62.2014 12.024C62.4094 12.296 62.7454 12.872 62.8574 13.128C63.3694 12.52 63.8974 11.832 64.3774 11.064V20.28H65.4814V9.144C65.9934 8.136 66.4574 7.064 66.8254 5.992L65.7694 5.672ZM74.5854 16.088V18.616H68.5854V16.088H74.5854ZM67.5454 20.232H68.5854V19.608H74.5854V20.184H75.6414V15.096H67.5454V20.232ZM67.7694 13.752H75.4814V12.776H67.7694V13.752ZM75.4814 10.536H67.7694V11.512H75.4814V10.536ZM66.6174 8.248V9.256H76.7454V8.248H66.6174ZM84.3614 10.776L83.3214 11.688C84.4574 12.616 85.8174 13.976 86.8574 15.24L87.9454 14.328C86.9534 13.144 85.4974 11.704 84.3614 10.776ZM99.4654 8.696C99.4654 10.12 99.1614 11.96 95.9294 13.224C96.1694 13.432 96.5534 13.832 96.7134 14.12C100.217 12.648 100.617 10.456 100.617 8.728V8.2H102.985V13.912H104.121V8.2H108.697V7.176H102.601C102.377 6.712 102.009 6.024 101.657 5.544L100.521 5.832C100.793 6.232 101.065 6.744 101.273 7.176H94.5694V8.2H99.4654V8.696ZM104.713 9.368C105.689 10.248 106.793 11.496 107.273 12.328L108.281 11.784C107.753 10.952 106.649 9.752 105.657 8.904L104.713 9.368ZM97.0334 8.84C96.4894 9.768 95.5774 10.712 94.6814 11.336C94.9374 11.496 95.3694 11.848 95.5614 12.04C96.4414 11.32 97.4494 10.2 98.0894 9.176L97.0334 8.84ZM108.729 16.168V15.096H102.025C102.137 14.632 102.233 14.136 102.313 13.592H101.113C101.033 14.136 100.937 14.632 100.825 15.096H94.6014V16.168H100.393C99.5934 17.704 97.9774 18.728 94.4254 19.256C94.6334 19.496 94.9054 19.944 94.9854 20.232C99.0654 19.56 100.841 18.2 101.673 16.168H108.729ZM101.881 17.176C103.945 18.088 106.761 19.416 108.169 20.232L108.793 19.224C107.337 18.44 104.505 17.176 102.473 16.312L101.881 17.176ZM115.449 9.64L115.241 9.688H110.969V10.76H114.793C113.977 13.32 112.329 15.304 110.457 16.424C110.745 16.6 111.177 17.016 111.353 17.272C113.481 15.896 115.337 13.4 116.185 9.976L115.449 9.64ZM110.825 19.656H124.377V18.504H110.825V19.656ZM123.257 9.24C122.633 10.2 121.657 11.432 120.777 12.344C120.201 11.384 119.721 10.328 119.369 9.256C120.489 8.488 121.593 7.608 122.425 6.744L121.625 6.136L121.353 6.2H112.425V7.272H120.217C119.321 8.088 118.105 8.952 117.049 9.512V16.344C117.049 16.584 116.969 16.648 116.681 16.664C116.409 16.68 115.417 16.68 114.345 16.648C114.505 16.984 114.681 17.416 114.745 17.752C116.137 17.752 117.033 17.752 117.561 17.576C118.073 17.384 118.249 17.064 118.249 16.344V9.944L118.521 9.784C119.577 12.968 121.417 15.784 123.801 17.208C123.993 16.888 124.361 16.456 124.649 16.232C123.369 15.56 122.249 14.488 121.321 13.192C122.265 12.296 123.369 11.016 124.265 9.944L123.257 9.24ZM132.361 10.776L131.321 11.688C132.457 12.616 133.817 13.976 134.857 15.24L135.945 14.328C134.953 13.144 133.497 11.704 132.361 10.776ZM148.873 8.264H155.481V9.864H156.633V7.208H153.049C152.857 6.712 152.505 6.04 152.169 5.528L151.129 5.896C151.369 6.28 151.593 6.776 151.785 7.208H147.753V9.896H148.873V8.264ZM145.929 10.072C145.881 11.64 145.689 13.496 144.969 15.32C144.537 14.904 144.073 14.456 143.657 14.056C143.929 12.952 144.185 11.576 144.425 10.168L145.929 10.072ZM147.465 18.056C147.065 17.528 146.441 16.824 145.737 16.12C146.649 13.992 146.873 11.832 146.921 10.008L147.625 9.96V8.92L146.937 8.952V7.88H145.945V9.016L144.585 9.08C144.777 7.896 144.921 6.728 145.017 5.688L144.009 5.64C143.929 6.696 143.769 7.928 143.609 9.128L142.249 9.192L142.377 10.296L143.433 10.232C143.161 11.8 142.857 13.304 142.569 14.392C143.177 14.984 143.849 15.672 144.505 16.344C143.945 17.432 143.177 18.472 142.105 19.432C142.361 19.592 142.729 19.928 142.889 20.136C143.897 19.208 144.665 18.2 145.241 17.144C145.817 17.8 146.345 18.424 146.697 18.904L147.465 18.056ZM151.049 11.656C150.921 12.792 150.729 13.768 150.505 14.664C150.041 14.264 149.465 13.784 148.921 13.4C149.145 12.84 149.369 12.264 149.561 11.656H151.049ZM151.321 10.696H149.817C149.913 10.328 149.993 9.976 150.073 9.592L149.113 9.416C148.745 11.448 148.057 13.368 147.065 14.616C147.257 14.84 147.513 15.352 147.609 15.576C147.945 15.176 148.217 14.728 148.489 14.248C149.081 14.696 149.721 15.24 150.153 15.704C149.497 17.496 148.537 18.696 147.273 19.48C147.481 19.656 147.881 20.04 148.025 20.296C150.297 18.808 151.705 15.88 152.137 10.808L151.497 10.664L151.321 10.696ZM154.185 19.16C153.961 19.16 153.833 19.144 153.705 19.096C153.561 19.032 153.497 18.76 153.497 18.328V11.304H155.225V15.208C155.225 15.352 155.193 15.4 155.033 15.4C154.873 15.416 154.393 15.416 153.801 15.4C153.929 15.688 154.041 16.072 154.089 16.344C154.921 16.344 155.465 16.344 155.801 16.184C156.153 16.008 156.233 15.72 156.233 15.208V10.376H152.521V18.2C152.521 19.352 152.649 19.608 152.953 19.8C153.225 19.992 153.673 20.056 154.009 20.056H155.177C155.529 20.056 155.929 20.024 156.201 19.928C156.489 19.816 156.665 19.624 156.777 19.336C156.873 19.048 156.953 18.264 156.969 17.592C156.649 17.496 156.297 17.32 156.057 17.128C156.041 17.864 156.009 18.44 155.977 18.712C155.913 18.936 155.785 19.048 155.673 19.096C155.561 19.144 155.305 19.16 155.065 19.16H154.185ZM161.849 9.144H163.017V7.896H165.273V6.824H163.017V5.624H161.849V6.824H158.649V7.896H161.849V9.144ZM166.697 12.472H164.425V10.888H166.697V12.472ZM170.697 13.496V15.976L170.681 15.96C170.649 16.024 170.585 16.04 170.265 16.04H168.393C167.881 16.04 167.817 15.976 167.817 15.608V13.496H170.697ZM160.601 18.296V13.496H163.353V13.784C163.353 14.616 162.873 16.168 160.777 17.016C161.001 17.208 161.369 17.544 161.529 17.768C163.881 16.728 164.425 14.76 164.425 13.784V13.496H166.697V15.624C166.697 16.728 167.017 17.016 168.297 17.016H170.409C170.505 17.016 170.601 17.016 170.697 17V18.296H160.601ZM158.681 10.888H163.353V12.472H159.465V20.2H160.601V19.368H170.697V20.152H171.865V12.472H167.817V10.888H172.585V9.8H158.681V10.888ZM169.449 6.824V5.624H168.281V6.824H165.929V7.896H168.281V9.112H169.449V7.896H172.681V6.824H169.449Z" fill="white"/>
</svg>
