<svg width="207" height="102" viewBox="0 0 207 102" fill="none" xmlns="http://www.w3.org/2000/svg">
<path opacity="0.8" d="M7.38 48.076V52.852H7.992V48.076H7.38ZM8.916 48.076V52.852H9.54V48.076H8.916ZM4.692 42.652V43.444H11.304V42.652H4.692ZM6.144 49.936V50.62H10.932V49.936H6.144ZM5.16 44.236V46.876C5.16 48.496 5.04 50.704 3.876 52.288C4.056 52.384 4.404 52.636 4.536 52.792C5.772 51.112 5.976 48.616 5.976 46.888V44.236H5.16ZM5.52 44.236V44.98H10.14V46.276H5.52V47.02H11.004V44.236H5.52ZM5.808 47.836V52.972H6.48V48.544H10.98V47.836H5.808ZM10.5 47.836V52.096C10.5 52.204 10.476 52.228 10.392 52.228C10.296 52.228 10.056 52.228 9.756 52.216C9.852 52.432 9.972 52.744 9.996 52.96C10.452 52.96 10.764 52.936 10.98 52.828C11.208 52.684 11.256 52.468 11.256 52.108V47.836H10.5ZM2.352 41.932C2.052 42.724 1.5 43.9 1.08 44.596L1.68 44.86C2.124 44.188 2.688 43.108 3.12 42.22L2.352 41.932ZM3.624 43.3C3 44.56 1.92 46.348 1.068 47.416L1.608 47.704C2.472 46.672 3.576 44.968 4.368 43.636L3.624 43.3ZM0.432 44.416C1.068 45.016 1.788 45.868 2.088 46.444L2.592 45.784C2.28 45.244 1.548 44.428 0.912 43.84L0.432 44.416ZM3.168 46.012C3.612 46.828 4.02 47.908 4.152 48.58L4.824 48.292C4.704 47.62 4.26 46.564 3.804 45.772L3.168 46.012ZM0.336 47.236L0.432 48.04C1.476 47.968 2.844 47.884 4.2 47.8V47.032C2.76 47.116 1.332 47.188 0.336 47.236ZM3.396 48.928C3.672 49.624 3.9 50.536 3.96 51.136L4.632 50.932C4.572 50.344 4.32 49.432 4.032 48.748L3.396 48.928ZM1.056 48.784C0.924 49.828 0.696 50.908 0.312 51.64C0.492 51.712 0.84 51.868 0.984 51.976C1.356 51.208 1.644 50.044 1.8 48.916L1.056 48.784ZM2.268 47.584V52.96H3.048V47.584H2.268ZM13.74 51.316V52.204H22.284V51.316H13.74ZM13.728 47.812V48.664H22.404V47.812H13.728ZM13.176 44.32V52.972H14.028V45.196H21.984V52.912H22.872V44.32H13.176ZM16.056 42.052V51.904H16.932V42.052H16.056ZM18.96 42.052V51.856H19.848V42.052H18.96ZM30.24 41.44H29.748V53.44H30.24V41.44ZM43.3446 43.18V43.972H50.2926V43.18H43.3446ZM46.3326 41.932V52.96H47.2086V41.932H46.3326ZM47.5806 48.604L46.9326 48.82C47.5806 50.236 48.7926 51.64 50.0046 52.348C50.1366 52.132 50.4126 51.808 50.6046 51.64C49.4166 51.064 48.2046 49.84 47.5806 48.604ZM44.6406 47.332H48.9486V48.4H44.6406V47.332ZM44.6406 45.628H48.9486V46.684H44.6406V45.628ZM43.8366 44.956V49.084H49.7886V44.956H43.8366ZM45.9246 48.616C45.2406 49.864 43.8966 51.112 42.6126 51.7C42.8166 51.88 43.0926 52.192 43.2246 52.408C44.5326 51.7 45.9006 50.32 46.6446 48.868L45.9246 48.616ZM39.9366 42.448V52.972H40.7526V43.264H42.7686V42.448H39.9366ZM42.4926 42.448V42.688C42.2406 43.516 41.7966 44.944 41.3646 46.036C42.2286 46.972 42.4446 47.788 42.4446 48.436C42.4446 48.796 42.3846 49.12 42.1926 49.252C42.0966 49.324 41.9646 49.36 41.8206 49.36C41.6286 49.384 41.4006 49.372 41.1246 49.348C41.2566 49.576 41.3286 49.924 41.3406 50.14C41.6166 50.152 41.9166 50.152 42.1566 50.128C42.3966 50.092 42.6126 50.02 42.7806 49.912C43.1166 49.672 43.2486 49.168 43.2486 48.52C43.2486 47.776 43.0566 46.936 42.1686 45.94C42.5766 44.98 43.0206 43.744 43.3686 42.76L42.7926 42.412L42.6486 42.448H42.4926ZM51.6486 46.156V46.924H62.3766V46.156H51.6486ZM52.2486 42.952V43.708H61.9446V42.952H52.2486ZM56.4846 41.932V43.444H57.3966V41.932H56.4846ZM52.5966 46.54V48.148C52.5966 49.408 52.4406 51.16 51.3006 52.444C51.5046 52.552 51.8766 52.852 52.0206 53.02C53.2446 51.64 53.4966 49.6 53.4966 48.16V46.54H52.5966ZM53.8446 44.224C55.8486 44.704 58.3086 45.58 59.6526 46.204L60.3366 45.676C58.9326 45.076 56.4726 44.224 54.5526 43.756L53.8446 44.224ZM59.3286 43.444C58.0926 44.404 55.5006 45.244 53.4246 45.676C53.5446 45.832 53.7126 46.12 53.7846 46.288C55.9566 45.808 58.5006 44.908 60.0126 43.816L59.3286 43.444ZM59.3406 46.792C58.2246 47.488 56.1006 48.004 54.3126 48.244C54.4926 48.424 54.6726 48.7 54.7926 48.892C56.6646 48.58 58.7886 48.004 60.0726 47.188L59.3406 46.792ZM60.0846 48.244C58.8966 49.168 56.5686 49.828 54.4206 50.14C54.6006 50.32 54.7806 50.608 54.8886 50.812C57.1446 50.428 59.4846 49.708 60.8526 48.64L60.0846 48.244ZM61.1886 49.672C59.7726 51.124 56.8806 51.928 53.6886 52.264C53.8566 52.468 54.0366 52.804 54.1206 53.032C57.4566 52.624 60.4086 51.736 62.0046 50.08L61.1886 49.672ZM63.5286 49.684V50.428H74.4246V49.684H63.5286ZM63.7686 43.228V43.96H74.1366V43.228H63.7686ZM65.2926 47.164V47.716H72.5886V47.164H65.2926ZM70.7406 48.808V51.964C70.7406 52.12 70.6926 52.156 70.4766 52.18C70.2726 52.18 69.6246 52.18 68.8326 52.156C68.9646 52.408 69.0966 52.732 69.1446 52.972C70.1046 52.972 70.7286 52.972 71.1246 52.84C71.5086 52.72 71.6166 52.48 71.6166 51.976V48.808H70.7406ZM65.6766 50.932C66.3966 51.376 67.2486 52.06 67.6446 52.54L68.2446 51.952C67.8246 51.472 66.9486 50.824 66.2406 50.392L65.6766 50.932ZM65.8686 42.208C66.2286 42.592 66.6486 43.132 66.8406 43.48L67.6086 43.12C67.3926 42.772 66.9606 42.256 66.6006 41.896L65.8686 42.208ZM65.5566 45.268H72.3606V48.34H65.5566V45.268ZM64.7286 44.68V48.928H73.2246V44.68H64.7286ZM71.1486 41.908C70.9566 42.328 70.5846 42.952 70.2966 43.348L70.9686 43.6C71.3046 43.24 71.7126 42.7 72.0726 42.184L71.1486 41.908ZM69.5406 43.576V45.748C69.5406 46.42 69.7566 46.564 70.6566 46.564C70.8366 46.564 72.0006 46.564 72.1926 46.564C72.7326 46.564 72.9486 46.456 73.0086 46.168C72.8046 46.144 72.5406 46.072 72.3726 45.976C72.3486 46.036 72.2886 46.048 72.0726 46.048C71.8566 46.048 70.9206 46.048 70.7406 46.048C70.3926 46.048 70.3326 46 70.3326 45.76V43.576H69.5406ZM67.5246 43.564V45.004C67.5246 45.568 67.3206 46.18 65.7726 46.468C65.9286 46.6 66.1326 46.876 66.2166 47.044C67.9326 46.6 68.3046 45.808 68.3046 45.004V43.564H67.5246ZM82.2773 43.4688H83.373L86.168 50.4238L88.957 43.4688H90.0586L86.5898 52H85.7344L82.2773 43.4688ZM81.9199 43.4688H82.8867L83.0449 48.6719V52H81.9199V43.4688ZM89.4434 43.4688H90.4102V52H89.2852V48.6719L89.4434 43.4688ZM93.4102 45.6602V52H92.3203V45.6602H93.4102ZM92.2383 43.9785C92.2383 43.8027 92.291 43.6543 92.3965 43.5332C92.5059 43.4121 92.666 43.3516 92.877 43.3516C93.084 43.3516 93.2422 43.4121 93.3516 43.5332C93.4648 43.6543 93.5215 43.8027 93.5215 43.9785C93.5215 44.1465 93.4648 44.291 93.3516 44.4121C93.2422 44.5293 93.084 44.5879 92.877 44.5879C92.666 44.5879 92.5059 44.5293 92.3965 44.4121C92.291 44.291 92.2383 44.1465 92.2383 43.9785ZM96.2402 43V52H95.1504V43H96.2402ZM100.113 45.6602L97.3477 48.6191L95.8008 50.2246L95.7129 49.0703L96.8203 47.7461L98.7891 45.6602H100.113ZM99.123 52L96.8613 48.9766L97.4238 48.0098L100.4 52H99.123ZM103.746 52.1172C103.305 52.1172 102.904 52.043 102.545 51.8945C102.189 51.7422 101.883 51.5293 101.625 51.2559C101.371 50.9824 101.176 50.6582 101.039 50.2832C100.902 49.9082 100.834 49.498 100.834 49.0527V48.8066C100.834 48.291 100.91 47.832 101.062 47.4297C101.215 47.0234 101.422 46.6797 101.684 46.3984C101.945 46.1172 102.242 45.9043 102.574 45.7598C102.906 45.6152 103.25 45.543 103.605 45.543C104.059 45.543 104.449 45.6211 104.777 45.7773C105.109 45.9336 105.381 46.1523 105.592 46.4336C105.803 46.7109 105.959 47.0391 106.061 47.418C106.162 47.793 106.213 48.2031 106.213 48.6484V49.1348H101.479V48.25H105.129V48.168C105.113 47.8867 105.055 47.6133 104.953 47.3477C104.855 47.082 104.699 46.8633 104.484 46.6914C104.27 46.5195 103.977 46.4336 103.605 46.4336C103.359 46.4336 103.133 46.4863 102.926 46.5918C102.719 46.6934 102.541 46.8457 102.393 47.0488C102.244 47.252 102.129 47.5 102.047 47.793C101.965 48.0859 101.924 48.4238 101.924 48.8066V49.0527C101.924 49.3535 101.965 49.6367 102.047 49.9023C102.133 50.1641 102.256 50.3945 102.416 50.5938C102.58 50.793 102.777 50.9492 103.008 51.0625C103.242 51.1758 103.508 51.2324 103.805 51.2324C104.188 51.2324 104.512 51.1543 104.777 50.998C105.043 50.8418 105.275 50.6328 105.475 50.3711L106.131 50.8926C105.994 51.0996 105.82 51.2969 105.609 51.4844C105.398 51.6719 105.139 51.8242 104.83 51.9414C104.525 52.0586 104.164 52.1172 103.746 52.1172Z" fill="white"/>
<path d="M202.929 25.1299L0 25.1299L0 26.0199L202.929 26.0199V25.1299Z" fill="white"/>
<path d="M207 22L190 22V29H207V22Z" fill="#00E0B8"/>
<path d="M2.534 16H4.074L5.6 9.812C5.768 9 5.95 8.258 6.118 7.474H6.174C6.342 8.258 6.496 9 6.678 9.812L8.232 16H9.786L11.914 5.724H10.668L9.59 11.324C9.394 12.416 9.198 13.522 9.002 14.642H8.932C8.694 13.522 8.456 12.416 8.204 11.324L6.776 5.724H5.586L4.172 11.324C3.92 12.43 3.668 13.536 3.43 14.642H3.374C3.178 13.536 2.968 12.43 2.772 11.324L1.694 5.724H0.364L2.534 16ZM15.0829 16.182C16.0209 16.182 16.8749 15.692 17.6029 15.09H17.6449L17.7569 16H18.8069V11.324C18.8069 9.448 18.0229 8.202 16.1749 8.202C14.9569 8.202 13.8789 8.748 13.1789 9.196L13.6829 10.078C14.2849 9.672 15.0829 9.266 15.9649 9.266C17.2109 9.266 17.5329 10.204 17.5329 11.184C14.2989 11.548 12.8569 12.374 12.8569 14.026C12.8569 15.398 13.8089 16.182 15.0829 16.182ZM15.4469 15.16C14.6909 15.16 14.1029 14.81 14.1029 13.942C14.1029 12.962 14.9709 12.332 17.5329 12.024V14.152C16.7909 14.81 16.1889 15.16 15.4469 15.16ZM21.2353 16H22.5093V10.484C23.2793 9.714 23.8113 9.322 24.5953 9.322C25.6033 9.322 26.0373 9.924 26.0373 11.352V16H27.3113V11.184C27.3113 9.238 26.5833 8.202 24.9873 8.202C23.9513 8.202 23.1673 8.776 22.4393 9.49H22.3973L22.2853 8.398H21.2353V16ZM32.3839 16.182C33.2939 16.182 34.0919 15.692 34.6939 15.104H34.7359L34.8479 16H35.8839V4.856H34.6239V7.782L34.6799 9.098C34.0079 8.538 33.4339 8.202 32.5379 8.202C30.8019 8.202 29.2479 9.742 29.2479 12.206C29.2479 14.74 30.4799 16.182 32.3839 16.182ZM32.6639 15.118C31.3199 15.118 30.5639 14.026 30.5639 12.192C30.5639 10.456 31.5299 9.28 32.7619 9.28C33.3919 9.28 33.9659 9.504 34.6239 10.078V14.068C33.9799 14.768 33.3639 15.118 32.6639 15.118ZM41.5415 16.182C42.5775 16.182 43.3895 15.832 44.0615 15.398L43.5995 14.558C43.0395 14.936 42.4375 15.16 41.6955 15.16C40.2535 15.16 39.2595 14.124 39.1755 12.5H44.2995C44.3275 12.318 44.3555 12.052 44.3555 11.772C44.3555 9.602 43.2635 8.202 41.3315 8.202C39.5675 8.202 37.9015 9.742 37.9015 12.206C37.9015 14.712 39.5255 16.182 41.5415 16.182ZM39.1615 11.576C39.3155 10.092 40.2675 9.224 41.3455 9.224C42.5355 9.224 43.2355 10.05 43.2355 11.576H39.1615ZM46.2275 16H47.5015V11.114C48.0055 9.812 48.7895 9.364 49.4195 9.364C49.7275 9.364 49.9095 9.392 50.1615 9.49L50.3995 8.37C50.1615 8.244 49.9235 8.202 49.5875 8.202C48.7335 8.202 47.9635 8.818 47.4315 9.784H47.3895L47.2775 8.398H46.2275V16ZM54.5708 16.182C55.6068 16.182 56.4188 15.832 57.0908 15.398L56.6288 14.558C56.0688 14.936 55.4668 15.16 54.7248 15.16C53.2828 15.16 52.2888 14.124 52.2048 12.5H57.3288C57.3568 12.318 57.3848 12.052 57.3848 11.772C57.3848 9.602 56.2928 8.202 54.3608 8.202C52.5968 8.202 50.9308 9.742 50.9308 12.206C50.9308 14.712 52.5548 16.182 54.5708 16.182ZM52.1908 11.576C52.3448 10.092 53.2968 9.224 54.3748 9.224C55.5648 9.224 56.2648 10.05 56.2648 11.576H52.1908ZM59.2568 16H60.5308V11.114C61.0348 9.812 61.8188 9.364 62.4488 9.364C62.7568 9.364 62.9388 9.392 63.1908 9.49L63.4288 8.37C63.1908 8.244 62.9528 8.202 62.6168 8.202C61.7628 8.202 60.9928 8.818 60.4608 9.784H60.4188L60.3068 8.398H59.2568V16Z" fill="#00E0B8"/>
</svg>
