<svg width="214" height="103" viewBox="0 0 214 103" fill="none" xmlns="http://www.w3.org/2000/svg">
<path opacity="0.8" d="M20.4841 91.658C21.1141 91.658 21.7301 91.644 21.9541 91.588C21.9121 91.448 21.8841 91.182 21.8561 90.986C21.5621 91.042 20.8621 91.056 20.4561 91.056H16.4661C15.8501 91.056 15.6821 90.874 15.6821 90.342V88.816H21.4641V88.214H15.6821V86.422H15.0101V90.328C15.0101 91.322 15.3601 91.658 16.4801 91.658H20.4841ZM13.9741 92.428C13.3861 92.624 12.7841 92.806 12.2101 92.988V89.936H13.9461V89.278H12.2101V86.352H11.5521V89.278H9.42412V89.936H11.5521V93.212C10.6561 93.478 9.83012 93.73 9.20012 93.912L9.43812 94.57C10.0541 94.374 10.7821 94.136 11.5521 93.898V98.126C11.5521 98.336 11.4681 98.392 11.2861 98.392C11.1181 98.406 10.5161 98.406 9.83012 98.392C9.92812 98.574 10.0401 98.854 10.0821 99.022C10.9781 99.022 11.4821 99.008 11.7901 98.896C12.0841 98.784 12.2101 98.588 12.2101 98.112V93.674L14.0721 93.072L13.9741 92.428ZM20.7641 93.66V95.368H15.6121V93.66H20.7641ZM15.6121 97.748V95.956H20.7641V97.748H15.6121ZM14.9681 99.022H15.6121V98.35H20.7641V98.952H21.4221V93.058H14.9681V99.022ZM33.8961 90.328H28.6181V89.572H33.8961V90.328ZM33.8961 91.56H28.6181V90.79H33.8961V91.56ZM33.8961 92.806H28.6181V92.022H33.8961V92.806ZM27.9881 89.096V93.282H34.5541V89.096H31.0261C31.1801 88.844 31.3201 88.55 31.4461 88.256H35.6601V87.696H33.1961C33.4481 87.346 33.7141 86.954 33.9661 86.562L33.3221 86.366C33.1401 86.744 32.7901 87.304 32.5101 87.696H29.8361L30.1721 87.556C30.0601 87.206 29.7101 86.688 29.3881 86.352L28.8421 86.562C29.1221 86.898 29.4301 87.346 29.5561 87.696H27.0501V88.256H30.7881C30.6761 88.536 30.5361 88.83 30.4101 89.096H27.9881ZM25.4261 87.724C25.2861 87.36 24.9921 86.786 24.7821 86.338L24.2221 86.506C24.4181 86.968 24.6841 87.57 24.8381 87.948L25.4261 87.724ZM25.8461 96.726C26.6441 97.188 27.5821 97.902 28.0021 98.42L28.4921 97.958C28.0441 97.44 27.0921 96.754 26.2941 96.32L25.8461 96.726ZM32.9861 94.668H32.3421V95.578H23.5921V96.152H32.3421V98.126C32.3421 98.322 32.2861 98.378 32.0341 98.378C31.8101 98.392 31.0121 98.406 30.0041 98.378C30.1021 98.56 30.2001 98.784 30.2421 98.966C31.4461 98.966 32.1461 98.966 32.5241 98.854C32.9021 98.742 32.9861 98.56 32.9861 98.126V96.152H35.7861V95.578H32.9861V94.668ZM26.3361 90.16L26.2381 90.202H25.0341C25.4261 89.572 25.8741 88.788 26.2661 88.102H23.4801V88.676H25.2861C24.8941 89.404 24.4181 90.188 24.0401 90.762H25.9301C25.6361 91.56 25.1881 92.428 24.6841 93.002C24.3061 93.268 23.9141 93.674 23.5221 94.122L23.9421 94.64C24.4881 93.898 25.0341 93.268 25.3981 93.268C25.6781 93.268 26.0841 93.618 26.5881 93.926C27.4981 94.43 28.7581 94.514 30.3821 94.514C31.8241 94.514 34.5541 94.444 35.8841 94.36C35.8981 94.192 35.9961 93.87 36.0801 93.702C34.5961 93.842 32.3001 93.94 30.3961 93.94C28.8421 93.94 27.6241 93.884 26.7701 93.422C26.1961 93.086 25.9021 92.806 25.5801 92.736C26.0421 92.05 26.4481 91.14 26.7281 90.328L26.3361 90.16ZM43.1361 91.224V88.998H46.8321C46.0621 89.796 45.2081 90.538 44.2981 91.224H43.1361ZM49.9261 91.868V91.224H45.3621C46.8181 90.034 48.1481 88.676 49.2541 87.206L48.6521 86.87C48.1341 87.584 47.5321 88.256 46.9021 88.914V88.368H43.1641V86.338H42.5061V88.368H38.7261V88.998H42.5061V91.224H37.5361V91.868H43.4161C41.5541 93.17 39.4821 94.248 37.3261 95.074C37.4801 95.214 37.7041 95.494 37.8161 95.648C39.0341 95.144 40.2381 94.57 41.3861 93.912V97.426C41.3861 98.476 41.8621 98.7 43.5421 98.7H47.9101C49.4501 98.7 49.7161 98.238 49.8701 96.306C49.6601 96.264 49.3941 96.166 49.2121 96.04C49.1001 97.748 48.9321 98.07 47.9101 98.07H43.4861C42.2961 98.07 42.0721 97.944 42.0721 97.412V95.13H48.4981V94.5H42.0721V93.52C42.9261 93.002 43.7381 92.456 44.5361 91.868H49.9261ZM55.4981 94.248V97.048H52.5721V94.248H55.4981ZM55.3581 89.068V91.49H52.5721V89.068H55.3581ZM52.5721 92.106H56.0021V88.452H53.7481C54.0281 87.864 54.3081 87.122 54.5461 86.492L53.8321 86.324C53.6781 86.94 53.3701 87.822 53.1041 88.452H51.9281V98.63H52.5721V97.65H56.1141V93.632H52.5721V92.106ZM64.0241 87.752V87.122H56.6461V87.752H59.9781V89.754H57.2061V96.964H57.8361V90.384H59.9781V98.994H60.6221V90.384H62.9321V96.082C62.9321 96.208 62.8901 96.264 62.7361 96.264C62.5821 96.278 62.0921 96.278 61.4621 96.264C61.5461 96.446 61.6581 96.712 61.6861 96.866C62.4701 96.866 62.9321 96.866 63.2121 96.768C63.5201 96.656 63.5761 96.446 63.5761 96.082V89.754H60.6221V87.752H64.0241ZM71.7241 90.16C72.1861 90.16 72.6201 89.824 72.6201 89.264C72.6201 88.69 72.1861 88.368 71.7241 88.368C71.2621 88.368 70.8281 88.69 70.8281 89.264C70.8281 89.824 71.2621 90.16 71.7241 90.16ZM71.7241 97.104C72.1861 97.104 72.6201 96.782 72.6201 96.222C72.6201 95.648 72.1861 95.326 71.7241 95.326C71.2621 95.326 70.8281 95.648 70.8281 96.222C70.8281 96.782 71.2621 97.104 71.7241 97.104ZM83.2741 86.912L83.1621 86.94H79.9421V99.022H80.5721V87.57H82.8821C82.5321 88.536 82.0421 89.796 81.5521 90.902C82.6721 92.078 82.9801 93.072 82.9801 93.898C82.9801 94.332 82.8961 94.78 82.6581 94.934C82.5321 95.018 82.3781 95.06 82.1821 95.074C81.9441 95.088 81.6221 95.074 81.2581 95.06C81.3701 95.242 81.4401 95.494 81.4541 95.662C81.7621 95.69 82.1121 95.69 82.4201 95.662C82.6721 95.634 82.9241 95.55 83.0921 95.438C83.4561 95.186 83.6101 94.598 83.6101 93.94C83.6101 93.03 83.3161 92.022 82.2101 90.818C82.7141 89.698 83.2881 88.312 83.7081 87.192L83.2741 86.912ZM85.0101 92.442H87.4181V93.982H85.0101V92.442ZM85.0101 90.384H87.4181V91.896H85.0101V90.384ZM90.5401 90.384V91.896H88.0621V90.384H90.5401ZM90.5401 93.982H88.0621V92.442H90.5401V93.982ZM91.1841 94.542V89.824H88.0621V88.522H91.8281V87.92H88.0621V86.352H87.4181V87.92H83.7501V88.522H87.4181V89.824H84.3801V94.542H86.7601C85.8501 95.886 84.3521 97.188 83.0081 97.818C83.1621 97.958 83.3581 98.196 83.4701 98.35C84.8841 97.594 86.4941 96.124 87.4181 94.598V99.008H88.0621V94.57C88.9021 96.068 90.3581 97.566 91.7161 98.294C91.8141 98.126 92.0381 97.888 92.1781 97.762C90.8901 97.146 89.5041 95.872 88.6781 94.542H91.1841ZM104.862 95.27C103.168 97.02 99.6821 98.056 95.7761 98.476C95.9161 98.644 96.0561 98.924 96.1261 99.092C100.088 98.602 103.672 97.496 105.464 95.592L104.862 95.27ZM102.622 91.868C101.292 92.736 98.8001 93.38 96.6441 93.674C96.7981 93.814 96.9241 94.052 97.0221 94.192C99.2201 93.814 101.726 93.128 103.182 92.176L102.622 91.868ZM103.49 93.632C102.048 94.752 99.2901 95.564 96.7421 95.956C96.8681 96.096 97.0081 96.32 97.1061 96.488C99.7241 96.04 102.496 95.158 104.064 93.954L103.49 93.632ZM96.4061 91.196C97.5821 90.874 98.8701 90.468 100.046 89.992C101.194 90.384 102.258 90.818 103 91.168L103.532 90.72C102.818 90.398 101.852 90.034 100.816 89.656C101.67 89.264 102.454 88.83 103.07 88.382L102.86 88.256H105.422V87.668H100.508C100.368 87.234 100.116 86.632 99.8221 86.156L99.2201 86.338C99.4441 86.73 99.6541 87.248 99.7941 87.668H94.5301V88.256H102.286C101.698 88.662 100.928 89.054 100.074 89.404C98.9681 89.04 97.8341 88.704 96.8261 88.466L96.2661 88.872C97.2181 89.096 98.2541 89.39 99.2761 89.726C98.1141 90.16 96.8681 90.524 95.7621 90.79C95.8461 90.874 95.9581 91.056 96.0421 91.196H94.5021V93.394C94.5021 94.906 94.3341 97.048 93.2421 98.644C93.3961 98.714 93.6761 98.924 93.7881 99.036C94.9361 97.384 95.1601 95.032 95.1601 93.408V91.798H105.758V91.196H96.4061ZM109.986 96.558C110.84 97.104 111.848 97.93 112.324 98.462L112.772 97.986C112.296 97.454 111.26 96.67 110.434 96.152L109.986 96.558ZM110.658 92.946H116.79V92.442H110.658V92.946ZM109.468 90.076H112.17C112.086 90.692 111.652 91.364 109.888 91.7C110.014 91.812 110.182 92.022 110.238 92.176C112.198 91.686 112.688 90.874 112.772 90.076H114.55V90.846C114.55 91.476 114.774 91.616 115.67 91.616H117.644C117.728 91.616 117.812 91.616 117.882 91.602V93.814H109.468V90.076ZM112.786 88.522H114.55V89.558H112.786V88.522ZM117.882 90.076V91.112C117.854 91.14 117.77 91.154 117.56 91.154H115.712C115.236 91.154 115.166 91.098 115.166 90.846V90.076H117.882ZM120.024 95.354H116.58V94.332H118.54V89.558H115.166V88.522H119.674V87.934H116.16C116.468 87.528 116.818 87.024 117.098 86.562L116.44 86.31C116.23 86.772 115.796 87.458 115.46 87.934H111.848L112.016 87.836C111.764 87.43 111.204 86.8 110.756 86.338L110.21 86.604C110.602 86.996 111.05 87.528 111.316 87.934H107.732V88.522H112.184V89.558H108.838V94.332H115.922V95.354H107.41V95.942H115.922V98.14C115.922 98.336 115.88 98.378 115.614 98.406C115.376 98.42 114.62 98.42 113.57 98.392C113.682 98.602 113.78 98.826 113.822 99.022C114.984 99.022 115.698 99.022 116.09 98.91C116.482 98.798 116.58 98.602 116.58 98.14V95.942H120.024V95.354ZM125.312 98H126.082V91.532C126.082 90.692 126.026 89.572 125.984 88.718H126.04L126.838 91L128.994 96.908H129.666L131.808 91L132.606 88.718H132.662C132.62 89.572 132.564 90.692 132.564 91.532V98H133.362V87.794H132.242L130.142 93.66C129.89 94.402 129.652 95.158 129.386 95.9H129.33L128.532 93.66L126.432 87.794H125.312V98ZM136.247 98H137.059V90.538H136.247V98ZM136.667 88.788C137.031 88.788 137.353 88.522 137.353 88.144C137.353 87.724 137.031 87.472 136.667 87.472C136.289 87.472 135.981 87.724 135.981 88.144C135.981 88.522 136.289 88.788 136.667 88.788ZM139.843 98H140.655V95.984L142.265 94.08L144.673 98H145.569L142.741 93.492L145.177 90.538H144.253L140.683 94.934H140.655V86.87H139.843V98ZM149.795 98.182C150.873 98.182 151.573 97.832 152.175 97.454L151.867 96.852C151.307 97.244 150.677 97.496 149.879 97.496C148.269 97.496 147.191 96.222 147.149 94.402H152.441C152.469 94.22 152.483 94.024 152.483 93.814C152.483 91.63 151.405 90.342 149.599 90.342C147.905 90.342 146.323 91.854 146.323 94.276C146.323 96.726 147.877 98.182 149.795 98.182ZM147.149 93.758C147.303 92.05 148.395 91.042 149.613 91.042C150.915 91.042 151.741 91.952 151.741 93.758H147.149Z" fill="white"/>
<path d="M10.3261 56.5538L13.7661 49.3858L12.9021 49.0978L9.35012 56.5538L12.9021 64.0098L13.7661 63.7218L10.3261 56.5538ZM12.8541 56.5538L16.2941 49.3858L15.4301 49.0978L11.8781 56.5538L15.4301 64.0098L16.2941 63.7218L12.8541 56.5538ZM25.7442 58.6818C25.2002 58.9058 24.6402 59.1298 24.0962 59.3218V54.2018H25.8882V53.0658H24.0962V49.4338H22.9442V53.0658H21.1522V54.2018H22.9442V59.7698C22.2242 60.0418 21.5842 60.2818 21.0402 60.4418L21.4882 61.6258C22.7682 61.1138 24.4002 60.4098 25.9522 59.7378L25.7442 58.6818ZM29.0082 60.9058C28.2562 61.6258 26.7522 62.5058 25.5682 63.0338C25.8082 63.2738 26.1602 63.6258 26.3042 63.8658C27.5042 63.3058 29.0242 62.4098 30.0322 61.5778L29.0082 60.9058ZM31.6162 61.6098C32.7042 62.2658 34.0642 63.2418 34.7362 63.8658L35.5202 63.0338C34.8322 62.4258 33.4242 61.4978 32.3522 60.8898L31.6162 61.6098ZM28.3042 58.7618H33.2162V59.8338H28.3042V58.7618ZM33.2162 53.6098V54.6338H28.3042V53.6098H33.2162ZM33.2162 56.2978H28.3042V55.3538H33.2162V56.2978ZM28.3042 57.0338H33.2162V58.0258H28.3042V57.0338ZM34.3042 59.8338V52.7778H30.6562C30.7522 52.4418 30.8482 52.0898 30.9442 51.7058H35.3282V50.7298H31.1682C31.2802 50.2658 31.3762 49.7858 31.4722 49.3538L30.2082 49.2738C30.1602 49.7058 30.0962 50.2178 30.0002 50.7298H26.4322V51.7058H29.8242C29.7602 52.0898 29.6802 52.4418 29.6002 52.7778H27.2482V59.8338H25.8242V60.8738H35.7602V59.8338H34.3042ZM40.9602 51.2418C40.7522 50.6658 40.2562 49.8338 39.8242 49.1778L38.9602 49.6578C39.3762 50.3138 39.8562 51.2098 40.0802 51.7858L40.9602 51.2418ZM41.3602 59.2578V61.8978H38.9602V59.2578H41.3602ZM42.4162 58.2658H37.9042V63.6418H38.9602V62.8898H42.4162V58.2658ZM37.9202 57.0818H42.3842V56.1378H37.9202V57.0818ZM37.9202 54.0578V55.0018H42.3682V54.0578H37.9202ZM37.2962 52.9378H42.9442V51.9618H37.2962V52.9378ZM47.4242 56.0418V59.0498H44.9602V56.0418H47.4242ZM48.4642 60.0898V55.0018H43.9362V61.1458H44.9602V60.0898H48.4642ZM49.2002 52.6018H43.3602V53.6258H49.2002V52.6018ZM51.2002 50.0578H42.9922V51.1618H50.0962V62.3298C50.0962 62.5858 50.0002 62.6818 49.7282 62.6818C49.4722 62.6978 48.5282 62.7138 47.5522 62.6658C47.7282 62.9698 47.9042 63.5298 47.9522 63.8498C49.2162 63.8498 50.0642 63.8338 50.5602 63.6258C51.0242 63.4338 51.2002 63.0658 51.2002 62.3298V50.0578ZM59.9944 64.0098L63.5464 56.5538L59.9944 49.0978L59.1304 49.3858L62.5704 56.5538L59.1304 63.7218L59.9944 64.0098ZM57.4664 64.0098L61.0184 56.5538L57.4664 49.0978L56.6024 49.3858L60.0424 56.5538L56.6024 63.7218L57.4664 64.0098Z" fill="#00E0B8"/>
<path d="M210.746 33.2754L8.93359 33.2754V34.0521L210.746 34.0521V33.2754Z" fill="white"/>
<path d="M213.801 30.5435H200.711V36.6521H213.801V30.5435Z" fill="#00E0B8"/>
<path d="M16.1281 12.7C15.9121 12.484 15.6001 12.256 15.2641 12.04C15.5281 11.788 15.7561 11.536 15.9601 11.272L15.3361 11.068C15.1681 11.296 14.9521 11.512 14.7361 11.704C14.4241 11.536 14.1121 11.356 13.8121 11.224L13.3681 11.62C13.6441 11.752 13.9441 11.908 14.2321 12.088C13.8721 12.34 13.4881 12.568 13.0921 12.748C13.2481 12.868 13.5001 13.096 13.5841 13.216C13.9801 13 14.3881 12.748 14.7841 12.436C15.1321 12.688 15.4441 12.916 15.6481 13.132L16.1281 12.7ZM16.0921 10.552C15.8761 10.384 15.5881 10.192 15.2641 9.988C15.5161 9.748 15.7321 9.508 15.9241 9.256L15.3001 9.088C15.1441 9.28 14.9521 9.484 14.7361 9.676C14.4241 9.508 14.1241 9.352 13.8361 9.232L13.4041 9.628C13.6681 9.748 13.9681 9.892 14.2441 10.06C13.9081 10.288 13.5481 10.504 13.1761 10.672C13.3321 10.78 13.5841 10.996 13.6801 11.104C14.0521 10.912 14.4241 10.66 14.7961 10.384C15.1201 10.588 15.4321 10.816 15.6241 10.996L16.0921 10.552ZM10.5121 13.912H18.9481V15.4H19.8241V13.228H18.8881C18.9841 12.16 19.0921 10.612 19.1521 9.424H16.3801V10.036H18.2881L18.2521 10.684H16.4401V11.296H18.2161L18.1561 11.944H16.3681V12.556H18.1081C18.0841 12.796 18.0601 13.012 18.0361 13.228H11.4601L11.4121 12.556H13.0801V11.944H11.3761L11.3281 11.296H13.0321V10.684H11.2921L11.2441 10.096C11.8681 9.976 12.5761 9.82 13.1041 9.628L12.6961 9.076C12.1081 9.256 11.0761 9.544 10.3801 9.664L10.6201 13.228H9.66012V15.4H10.5121V13.912ZM20.0641 16.828H15.2641V16.612C16.2121 16.228 17.2321 15.7 17.9761 15.124L17.4361 14.68L17.2561 14.728H11.6161V15.4H16.3081C15.7321 15.748 15.0361 16.084 14.4001 16.312V16.828H9.39612V17.584H14.4001V18.94C14.4001 19.108 14.3521 19.144 14.1481 19.156C13.9681 19.156 13.2961 19.156 12.5521 19.132C12.6721 19.36 12.8161 19.66 12.8641 19.888C13.8121 19.888 14.4121 19.9 14.7961 19.768C15.1681 19.636 15.2641 19.432 15.2641 18.964V17.584H20.0641V16.828ZM29.5921 11.392H23.9161V10.144H29.5921V11.392ZM30.5161 9.424H23.0281V12.112H30.5161V9.424ZM23.4121 16.408H30.0721V17.272H23.4121V16.408ZM23.4121 14.932H30.0721V15.772H23.4121V14.932ZM23.4121 13.456H30.0721V14.296H23.4121V13.456ZM30.9841 17.932V12.796H22.5241V17.932H24.7561C24.0001 18.424 22.4641 18.976 21.2281 19.264C21.4441 19.444 21.7321 19.744 21.8881 19.924C23.1121 19.612 24.6601 19.036 25.6201 18.448L24.8281 17.932H30.9841ZM27.6961 18.532C28.9561 18.904 30.5641 19.516 31.4641 19.936L32.2321 19.288C31.2961 18.904 29.7001 18.316 28.4641 17.956L27.6961 18.532ZM35.5397 21.148H36.3437L39.9317 9.484H39.1397L35.5397 21.148Z" fill="#00E0B8"/>
<path d="M51.1393 15.72C52.0673 15.24 53.0913 14.6 53.8753 13.96L53.1553 13.336L52.8993 13.4H47.1393V14.36H51.6833C51.1553 14.76 50.5313 15.128 49.9873 15.416V16.136C48.6113 16.184 47.3313 16.232 46.3233 16.264L46.4033 17.304L49.9873 17.144V18.968C49.9873 19.128 49.9393 19.176 49.7313 19.176C49.5393 19.192 48.8193 19.192 48.0833 19.176C48.2273 19.464 48.4033 19.864 48.4513 20.184C49.4913 20.184 50.1473 20.168 50.5793 20.008C51.0273 19.848 51.1393 19.56 51.1393 18.984V17.08C52.2753 17.032 53.4433 16.968 54.6113 16.904L54.6433 15.928C53.4593 15.976 52.2753 16.04 51.1393 16.088V15.72ZM52.6593 11.64H48.4353V10.04H52.6593V11.64ZM53.7473 9.144H47.4113V12.536H53.7473V9.144ZM49.5393 5.928C49.7473 6.28 49.9553 6.728 50.1313 7.128H46.4513V8.152H54.6593V7.128H51.3153C51.1233 6.648 50.8193 6.04 50.5313 5.576L49.5393 5.928ZM59.9873 6.44L59.8113 6.488H55.1713V20.232H56.3393V7.608H59.2673C58.7713 8.872 58.0833 10.6 57.4113 11.96C59.0273 13.352 59.4913 14.552 59.4913 15.56C59.4913 16.136 59.3793 16.616 59.0433 16.824C58.8513 16.936 58.6113 17 58.3553 17C58.0353 17.032 57.5873 17.032 57.1233 16.984C57.3153 17.32 57.4273 17.8 57.4433 18.136C57.9073 18.168 58.4193 18.168 58.8193 18.12C59.2033 18.072 59.5713 17.96 59.8433 17.768C60.4033 17.4 60.6273 16.648 60.6273 15.688C60.6113 14.552 60.2113 13.272 58.6113 11.816C59.3473 10.344 60.1793 8.504 60.8353 7L59.9873 6.44ZM74.8993 11.96H64.5633V14.808C64.5633 16.296 64.3713 18.216 62.9313 19.608C63.2033 19.72 63.6993 20.12 63.8753 20.344C65.4433 18.792 65.7153 16.52 65.7153 14.84V12.968H73.6513V15.896C70.8673 16.392 67.9553 16.856 66.1473 17.128L66.5313 18.2C68.4993 17.848 71.1233 17.304 73.6513 16.792V18.84C73.6513 19.064 73.5553 19.16 73.2673 19.16C73.0273 19.176 71.9553 19.176 70.9633 19.144C71.1073 19.448 71.2513 19.848 71.2993 20.168C72.6913 20.168 73.6353 20.184 74.1633 20.024C74.7073 19.864 74.8993 19.56 74.8993 18.84V11.96ZM66.2273 14.392C68.2273 14.696 70.7553 15.384 72.0833 15.96L72.4513 15.08C71.0913 14.52 68.5633 13.896 66.6113 13.624L66.2273 14.392ZM65.9393 10.152C66.6753 9.576 67.4273 8.936 68.1633 8.232H71.8113L71.1393 8.648C71.6673 9.016 72.2113 9.432 72.7393 9.864L65.9393 10.152ZM76.5633 7.16H69.2353C69.6193 6.76 70.0033 6.328 70.3713 5.912L69.1873 5.416C68.7233 6.008 68.1953 6.616 67.6833 7.16H62.5953V8.232H66.6113C66.0033 8.792 65.4913 9.24 65.2193 9.416C64.6593 9.896 64.2433 10.184 63.8753 10.248C64.0033 10.584 64.1633 11.144 64.2273 11.384C64.7713 11.192 65.5873 11.176 73.7793 10.76C74.2113 11.176 74.5953 11.576 74.8833 11.912L75.8913 11.224C75.1233 10.36 73.6353 9.128 72.3393 8.232H76.5633V7.16ZM84.6593 8.408H91.2673V9.992H92.3713V7.432H88.6433C88.5473 6.92 88.2753 6.12 87.9393 5.512L86.9313 5.816C87.1713 6.296 87.3953 6.936 87.5073 7.432H83.5873V9.992H84.6593V8.408ZM85.6353 15.016H90.2433V16.504H85.6353V15.016ZM85.6353 12.696H90.2433V14.168H85.6353V12.696ZM84.5473 17.4H91.3793V11.8H84.5473V17.4ZM84.8833 9.736V10.68H90.9793V9.736H84.8833ZM83.3633 15.8C82.6913 16.024 81.9873 16.232 81.3313 16.44V12.392H82.8833V11.288H81.3313V7.816H83.0753V6.696H78.4033V7.816H80.2753V11.288H78.6273V12.392H80.2753V16.76C79.4913 16.984 78.7713 17.208 78.1953 17.368L78.4353 18.504C79.8433 18.072 81.7153 17.48 83.4913 16.888L83.3633 15.8ZM83.2193 18.696V19.752H92.7873V18.696H83.2193Z" fill="white"/>
</svg>
