<svg width="207" height="102" viewBox="0 0 207 102" fill="none" xmlns="http://www.w3.org/2000/svg">
<path opacity="0.8" d="M6.41016 51.0801V52H1.89258V51.0801H6.41016ZM2.12109 43.4688V52H0.990234V43.4688H2.12109ZM5.8125 47.1367V48.0566H1.89258V47.1367H5.8125ZM6.35156 43.4688V44.3945H1.89258V43.4688H6.35156ZM10.1191 52H8.33789L8.34961 51.0801H10.1191C10.7285 51.0801 11.2363 50.9531 11.6426 50.6992C12.0488 50.4414 12.3535 50.082 12.5566 49.6211C12.7637 49.1562 12.8672 48.6133 12.8672 47.9922V47.4707C12.8672 46.9824 12.8086 46.5488 12.6914 46.1699C12.5742 45.7871 12.4023 45.4648 12.1758 45.2031C11.9492 44.9375 11.6719 44.7363 11.3438 44.5996C11.0195 44.4629 10.6465 44.3945 10.2246 44.3945H8.30273V43.4688H10.2246C10.7832 43.4688 11.293 43.5625 11.7539 43.75C12.2148 43.9336 12.6113 44.2012 12.9434 44.5527C13.2793 44.9004 13.5371 45.3223 13.7168 45.8184C13.8965 46.3105 13.9863 46.8652 13.9863 47.4824V47.9922C13.9863 48.6094 13.8965 49.166 13.7168 49.6621C13.5371 50.1543 13.2773 50.5742 12.9375 50.9219C12.6016 51.2695 12.1953 51.5371 11.7188 51.7246C11.2461 51.9082 10.7129 52 10.1191 52ZM8.94141 43.4688V52H7.81055V43.4688H8.94141ZM16.043 43.4688H17.1387L19.9336 50.4238L22.7227 43.4688H23.8242L20.3555 52H19.5L16.043 43.4688ZM15.6855 43.4688H16.6523L16.8105 48.6719V52H15.6855V43.4688ZM23.209 43.4688H24.1758V52H23.0508V48.6719L23.209 43.4688ZM27.5599 49.18V49.792H34.7479V49.18H27.5599ZM27.5839 47.704V48.352H34.3759V50.62H27.5839V51.28H35.2639V47.704H27.5839ZM30.6559 48.028V51.64C30.6559 52.624 31.0399 52.864 32.3839 52.864C32.6839 52.864 34.8559 52.864 35.1679 52.864C36.3079 52.864 36.5839 52.492 36.7159 51.028C36.4639 50.98 36.1279 50.86 35.9239 50.716C35.8639 51.928 35.7559 52.144 35.1079 52.144C34.6399 52.144 32.7919 52.144 32.4319 52.144C31.6639 52.144 31.5199 52.06 31.5199 51.652V48.028H30.6559ZM27.1159 47.704V51.904H27.9799V47.704H27.1159ZM26.7799 42.436V43.144H35.5519V42.436H26.7799ZM27.5239 45.184V45.76H30.0679V45.184H27.5239ZM27.2839 46.42V46.984H30.0799V46.42H27.2839ZM32.2039 46.42V46.984H35.0839V46.42H32.2039ZM32.2039 45.184V45.76H34.7959V45.184H32.2039ZM30.6919 42.712V47.296H31.5679V42.712H30.6919ZM26.0839 43.876V46.216H26.8999V44.536H35.4199V46.216H36.2719V43.876H26.0839ZM38.5039 43.024V43.828H47.9239V43.024H38.5039ZM37.8199 45.832V46.648H48.5239V45.832H37.8199ZM40.0279 49.72V50.44H46.3879V49.72H40.0279ZM40.0399 51.76V52.528H46.3999V51.76H40.0399ZM42.6799 41.92V43.468H43.6159V41.92H42.6799ZM39.5839 47.692V52.972H40.4839V48.46H45.9799V52.948H46.9159V47.692H39.5839ZM45.3799 43.792C45.1999 44.356 44.8399 45.16 44.5399 45.676L45.3799 45.904C45.6799 45.424 46.0399 44.692 46.3519 44.032L45.3799 43.792ZM40.1599 44.032C40.4959 44.596 40.7959 45.376 40.8799 45.904L41.8039 45.664C41.7079 45.16 41.3959 44.404 41.0239 43.84L40.1599 44.032ZM54.7159 47.764V48.904H55.6159V47.764H54.7159ZM54.7039 48.748C53.6119 49.672 51.4759 50.44 49.6279 50.776C49.7959 50.944 50.0239 51.244 50.1319 51.448C52.0039 51.052 54.1999 50.152 55.4119 49.084L54.7039 48.748ZM55.7119 48.712L54.9679 48.892C55.8319 51.1 57.5599 52.456 60.1879 52.996C60.3079 52.768 60.5239 52.432 60.7039 52.264C58.1959 51.844 56.4679 50.62 55.7119 48.712ZM59.2639 49.324C58.6399 49.78 57.5719 50.38 56.7919 50.74L57.3559 51.196C58.1479 50.848 59.1559 50.332 59.9239 49.792L59.2639 49.324ZM51.2839 52.12L51.4399 52.876C52.7119 52.672 54.4999 52.384 56.2039 52.108L56.1679 51.376C54.3559 51.664 52.4959 51.952 51.2839 52.12ZM49.8319 48.484V49.216H60.5119V48.484H49.8319ZM56.4799 42.388V46.444H57.2959V42.388H56.4799ZM59.2159 42.04V47.044C59.2159 47.188 59.1799 47.236 58.9999 47.248C58.8199 47.26 58.2319 47.26 57.5719 47.236C57.6919 47.452 57.8239 47.764 57.8599 47.992C58.7119 47.992 59.2639 47.98 59.6119 47.86C59.9479 47.728 60.0559 47.512 60.0559 47.056V42.04H59.2159ZM52.4839 41.92V48.016H53.2759V41.92H52.4839ZM54.7399 45.448V46.924C54.7399 47.02 54.7039 47.044 54.5959 47.056C54.4999 47.068 54.1879 47.068 53.7919 47.056C53.8879 47.224 54.0079 47.44 54.0439 47.632C54.5719 47.632 54.9319 47.632 55.1839 47.524C55.4359 47.416 55.4959 47.248 55.4959 46.912V45.448H54.7399ZM50.3839 45.448V47.704H51.1039V46.06H55.0879V45.448H50.3839ZM49.7839 44.152V44.812H55.8439V44.152H49.7839ZM51.0319 42.784L50.7679 43.42H55.4239V42.784H51.0319ZM50.9239 41.968C50.7079 42.616 50.3719 43.3 49.9519 43.792C50.1319 43.876 50.4559 44.032 50.5999 44.14C50.9839 43.636 51.3799 42.856 51.6319 42.136L50.9239 41.968ZM52.5319 50.452V52.432H53.3959V50.128L52.9879 49.984L52.5319 50.452ZM67.0159 43.936L66.5959 44.8H72.7039V43.936H67.0159ZM68.5159 46.54V47.368H72.4279V46.54H68.5159ZM68.5039 49.18V50.032H72.5959V49.18H68.5039ZM68.0599 44.212V52.96H68.9839V44.212H68.0599ZM67.4719 42.064C66.8839 43.828 65.9119 45.58 64.8199 46.696C65.0239 46.84 65.3839 47.164 65.5159 47.32C66.6199 46.084 67.6639 44.2 68.3479 42.292L67.4719 42.064ZM64.5919 41.968C63.9079 43.792 62.7919 45.592 61.5919 46.756C61.7599 46.972 62.0359 47.452 62.1199 47.668C63.4279 46.324 64.6639 44.272 65.4559 42.244L64.5919 41.968ZM63.3079 45.064V52.948H64.2199V44.176L64.1959 44.164L63.3079 45.064ZM79.4119 41.44H78.9199V53.44H79.4119V41.44ZM89.2031 48.0098H87.041L87.0293 47.1016H88.9922C89.3164 47.1016 89.5996 47.0469 89.8418 46.9375C90.084 46.8281 90.2715 46.6719 90.4043 46.4688C90.541 46.2617 90.6094 46.0156 90.6094 45.7305C90.6094 45.418 90.5488 45.1641 90.4277 44.9688C90.3105 44.7695 90.1289 44.625 89.8828 44.5352C89.6406 44.4414 89.332 44.3945 88.957 44.3945H87.293V52H86.1621V43.4688H88.957C89.3945 43.4688 89.7852 43.5137 90.1289 43.6035C90.4727 43.6895 90.7637 43.8262 91.002 44.0137C91.2441 44.1973 91.4277 44.4316 91.5527 44.7168C91.6777 45.002 91.7402 45.3438 91.7402 45.7422C91.7402 46.0938 91.6504 46.4121 91.4707 46.6973C91.291 46.9785 91.041 47.209 90.7207 47.3887C90.4043 47.5684 90.0332 47.6836 89.6074 47.7344L89.2031 48.0098ZM89.1504 52H86.5957L87.2344 51.0801H89.1504C89.5098 51.0801 89.8145 51.0176 90.0645 50.8926C90.3184 50.7676 90.5117 50.5918 90.6445 50.3652C90.7773 50.1348 90.8438 49.8633 90.8438 49.5508C90.8438 49.2344 90.7871 48.9609 90.6738 48.7305C90.5605 48.5 90.3828 48.3223 90.1406 48.1973C89.8984 48.0723 89.5859 48.0098 89.2031 48.0098H87.5918L87.6035 47.1016H89.8066L90.0469 47.4297C90.457 47.4648 90.8047 47.582 91.0898 47.7812C91.375 47.9766 91.5918 48.2266 91.7402 48.5312C91.8926 48.8359 91.9688 49.1719 91.9688 49.5391C91.9688 50.0703 91.8516 50.5195 91.6172 50.8867C91.3867 51.25 91.0605 51.5273 90.6387 51.7188C90.2168 51.9062 89.7207 52 89.1504 52ZM94.6523 43V52H93.5625V43H94.6523ZM100.131 50.916V47.6523C100.131 47.4023 100.08 47.1855 99.9785 47.002C99.8809 46.8145 99.7324 46.6699 99.5332 46.5684C99.334 46.4668 99.0879 46.416 98.7949 46.416C98.5215 46.416 98.2812 46.4629 98.0742 46.5566C97.8711 46.6504 97.7109 46.7734 97.5938 46.9258C97.4805 47.0781 97.4238 47.2422 97.4238 47.418H96.3398C96.3398 47.1914 96.3984 46.9668 96.5156 46.7441C96.6328 46.5215 96.8008 46.3203 97.0195 46.1406C97.2422 45.957 97.5078 45.8125 97.8164 45.707C98.1289 45.5977 98.4766 45.543 98.8594 45.543C99.3203 45.543 99.7266 45.6211 100.078 45.7773C100.434 45.9336 100.711 46.1699 100.91 46.4863C101.113 46.7988 101.215 47.1914 101.215 47.6641V50.6172C101.215 50.8281 101.232 51.0527 101.268 51.291C101.307 51.5293 101.363 51.7344 101.438 51.9062V52H100.307C100.252 51.875 100.209 51.709 100.178 51.502C100.146 51.291 100.131 51.0957 100.131 50.916ZM100.318 48.1562L100.33 48.918H99.2344C98.9258 48.918 98.6504 48.9434 98.4082 48.9941C98.166 49.041 97.9629 49.1133 97.7988 49.2109C97.6348 49.3086 97.5098 49.4316 97.4238 49.5801C97.3379 49.7246 97.2949 49.8945 97.2949 50.0898C97.2949 50.2891 97.3398 50.4707 97.4297 50.6348C97.5195 50.7988 97.6543 50.9297 97.834 51.0273C98.0176 51.1211 98.2422 51.168 98.5078 51.168C98.8398 51.168 99.1328 51.0977 99.3867 50.957C99.6406 50.8164 99.8418 50.6445 99.9902 50.4414C100.143 50.2383 100.225 50.041 100.236 49.8496L100.699 50.3711C100.672 50.5352 100.598 50.7168 100.477 50.916C100.355 51.1152 100.193 51.3066 99.9902 51.4902C99.791 51.6699 99.5527 51.8203 99.2754 51.9414C99.002 52.0586 98.6934 52.1172 98.3496 52.1172C97.9199 52.1172 97.543 52.0332 97.2188 51.8652C96.8984 51.6973 96.6484 51.4727 96.4688 51.1914C96.293 50.9062 96.2051 50.5879 96.2051 50.2363C96.2051 49.8965 96.2715 49.5977 96.4043 49.3398C96.5371 49.0781 96.7285 48.8613 96.9785 48.6895C97.2285 48.5137 97.5293 48.3809 97.8809 48.291C98.2324 48.2012 98.625 48.1562 99.0586 48.1562H100.318ZM107.643 51.1094V52H103.031V51.1094H107.643ZM107.473 46.4277L103.277 52H102.615V51.2031L106.781 45.6602H107.473V46.4277ZM106.992 45.6602V46.5566H102.662V45.6602H106.992ZM111.41 52.1172C110.969 52.1172 110.568 52.043 110.209 51.8945C109.854 51.7422 109.547 51.5293 109.289 51.2559C109.035 50.9824 108.84 50.6582 108.703 50.2832C108.566 49.9082 108.498 49.498 108.498 49.0527V48.8066C108.498 48.291 108.574 47.832 108.727 47.4297C108.879 47.0234 109.086 46.6797 109.348 46.3984C109.609 46.1172 109.906 45.9043 110.238 45.7598C110.57 45.6152 110.914 45.543 111.27 45.543C111.723 45.543 112.113 45.6211 112.441 45.7773C112.773 45.9336 113.045 46.1523 113.256 46.4336C113.467 46.7109 113.623 47.0391 113.725 47.418C113.826 47.793 113.877 48.2031 113.877 48.6484V49.1348H109.143V48.25H112.793V48.168C112.777 47.8867 112.719 47.6133 112.617 47.3477C112.52 47.082 112.363 46.8633 112.148 46.6914C111.934 46.5195 111.641 46.4336 111.27 46.4336C111.023 46.4336 110.797 46.4863 110.59 46.5918C110.383 46.6934 110.205 46.8457 110.057 47.0488C109.908 47.252 109.793 47.5 109.711 47.793C109.629 48.0859 109.588 48.4238 109.588 48.8066V49.0527C109.588 49.3535 109.629 49.6367 109.711 49.9023C109.797 50.1641 109.92 50.3945 110.08 50.5938C110.244 50.793 110.441 50.9492 110.672 51.0625C110.906 51.1758 111.172 51.2324 111.469 51.2324C111.852 51.2324 112.176 51.1543 112.441 50.998C112.707 50.8418 112.939 50.6328 113.139 50.3711L113.795 50.8926C113.658 51.0996 113.484 51.2969 113.273 51.4844C113.062 51.6719 112.803 51.8242 112.494 51.9414C112.189 52.0586 111.828 52.1172 111.41 52.1172Z" fill="white"/>
<path d="M202.929 25.1299L0 25.1299L0 26.0199L202.929 26.0199V25.1299Z" fill="white"/>
<path d="M207 22L190 22V29H207V22Z" fill="#00E0B8"/>
<path d="M4.256 16.182C6.398 16.182 7.742 14.894 7.742 13.27C7.742 11.744 6.818 11.044 5.628 10.526L4.158 9.896C3.36 9.56 2.464 9.182 2.464 8.188C2.464 7.264 3.22 6.676 4.382 6.676C5.334 6.676 6.09 7.054 6.72 7.642L7.406 6.816C6.678 6.06 5.6 5.542 4.382 5.542C2.52 5.542 1.148 6.69 1.148 8.272C1.148 9.77 2.282 10.498 3.234 10.904L4.718 11.548C5.684 11.982 6.426 12.318 6.426 13.368C6.426 14.376 5.614 15.048 4.27 15.048C3.206 15.048 2.17 14.544 1.442 13.774L0.658 14.656C1.554 15.594 2.8 16.182 4.256 16.182ZM9.64152 19.206H10.9155V16.63L10.8875 15.3C11.5735 15.86 12.3015 16.182 12.9875 16.182C14.7375 16.182 16.2915 14.684 16.2915 12.08C16.2915 9.742 15.2275 8.202 13.2675 8.202C12.3855 8.202 11.5315 8.706 10.8455 9.266H10.8035L10.6915 8.398H9.64152V19.206ZM12.7775 15.118C12.2735 15.118 11.6015 14.908 10.9155 14.32V10.33C11.6575 9.644 12.3155 9.28 12.9595 9.28C14.4015 9.28 14.9615 10.414 14.9615 12.094C14.9615 13.984 14.0375 15.118 12.7775 15.118ZM19.8544 16.182C20.7924 16.182 21.6464 15.692 22.3744 15.09H22.4164L22.5284 16H23.5784V11.324C23.5784 9.448 22.7944 8.202 20.9464 8.202C19.7284 8.202 18.6504 8.748 17.9504 9.196L18.4544 10.078C19.0564 9.672 19.8544 9.266 20.7364 9.266C21.9824 9.266 22.3044 10.204 22.3044 11.184C19.0704 11.548 17.6284 12.374 17.6284 14.026C17.6284 15.398 18.5804 16.182 19.8544 16.182ZM20.2184 15.16C19.4624 15.16 18.8744 14.81 18.8744 13.942C18.8744 12.962 19.7424 12.332 22.3044 12.024V14.152C21.5624 14.81 20.9604 15.16 20.2184 15.16ZM29.0028 16.182C29.9128 16.182 30.7808 15.832 31.4668 15.216L30.9068 14.362C30.4308 14.796 29.8148 15.118 29.1148 15.118C27.7148 15.118 26.7628 13.956 26.7628 12.206C26.7628 10.456 27.7708 9.266 29.1568 9.266C29.7588 9.266 30.2208 9.546 30.6688 9.938L31.3268 9.098C30.7808 8.622 30.0948 8.202 29.1008 8.202C27.1548 8.202 25.4328 9.672 25.4328 12.206C25.4328 14.726 26.9868 16.182 29.0028 16.182ZM35.854 16.182C36.89 16.182 37.702 15.832 38.374 15.398L37.912 14.558C37.352 14.936 36.75 15.16 36.008 15.16C34.566 15.16 33.572 14.124 33.488 12.5H38.612C38.64 12.318 38.668 12.052 38.668 11.772C38.668 9.602 37.576 8.202 35.644 8.202C33.88 8.202 32.214 9.742 32.214 12.206C32.214 14.712 33.838 16.182 35.854 16.182ZM33.474 11.576C33.628 10.092 34.58 9.224 35.658 9.224C36.848 9.224 37.548 10.05 37.548 11.576H33.474ZM43.7828 16H46.4148C49.5088 16 51.2028 14.082 51.2028 10.834C51.2028 7.572 49.5088 5.724 46.3588 5.724H43.7828V16ZM45.0848 14.936V6.788H46.2468C48.6688 6.788 49.8588 8.23 49.8588 10.834C49.8588 13.424 48.6688 14.936 46.2468 14.936H45.0848ZM53.2821 16H54.5561V8.398H53.2821V16ZM53.9261 6.83C54.4301 6.83 54.7801 6.494 54.7801 5.976C54.7801 5.486 54.4301 5.15 53.9261 5.15C53.4221 5.15 53.0721 5.486 53.0721 5.976C53.0721 6.494 53.4221 6.83 53.9261 6.83ZM58.7756 16H60.2596L62.9616 8.398H61.7016L60.2596 12.724C60.0356 13.466 59.7976 14.25 59.5596 14.964H59.5036C59.2656 14.25 59.0276 13.466 58.7896 12.724L57.3616 8.398H56.0316L58.7756 16ZM64.4384 16H65.7124V8.398H64.4384V16ZM65.0824 6.83C65.5864 6.83 65.9364 6.494 65.9364 5.976C65.9364 5.486 65.5864 5.15 65.0824 5.15C64.5784 5.15 64.2284 5.486 64.2284 5.976C64.2284 6.494 64.5784 6.83 65.0824 6.83ZM68.2939 16H69.5679V10.484C70.3379 9.714 70.8699 9.322 71.6539 9.322C72.6619 9.322 73.0959 9.924 73.0959 11.352V16H74.3699V11.184C74.3699 9.238 73.6419 8.202 72.0459 8.202C71.0099 8.202 70.2259 8.776 69.4979 9.49H69.4559L69.3439 8.398H68.2939V16ZM79.4145 19.5C81.7665 19.5 83.2645 18.282 83.2645 16.868C83.2645 15.622 82.3685 15.062 80.6045 15.062H79.1205C78.0985 15.062 77.7905 14.726 77.7905 14.236C77.7905 13.816 78.0005 13.564 78.2805 13.326C78.6165 13.494 79.0365 13.592 79.4145 13.592C80.9545 13.592 82.1865 12.57 82.1865 10.946C82.1865 10.288 81.9345 9.728 81.5705 9.378H83.1245V8.398H80.4785C80.2125 8.3 79.8345 8.202 79.4145 8.202C77.8745 8.202 76.5585 9.252 76.5585 10.918C76.5585 11.828 77.0485 12.556 77.5525 12.962V13.018C77.1605 13.298 76.6985 13.802 76.6985 14.432C76.6985 15.034 76.9925 15.44 77.3985 15.678V15.734C76.6845 16.196 76.2785 16.812 76.2785 17.456C76.2785 18.772 77.5525 19.5 79.4145 19.5ZM79.4145 12.724C78.5325 12.724 77.7905 12.024 77.7905 10.918C77.7905 9.798 78.5185 9.14 79.4145 9.14C80.3105 9.14 81.0385 9.812 81.0385 10.918C81.0385 12.024 80.2825 12.724 79.4145 12.724ZM79.5965 18.632C78.2245 18.632 77.3985 18.1 77.3985 17.288C77.3985 16.84 77.6225 16.392 78.1685 16C78.5045 16.084 78.8685 16.126 79.1485 16.126H80.4645C81.4725 16.126 82.0185 16.364 82.0185 17.064C82.0185 17.862 81.0525 18.632 79.5965 18.632Z" fill="#00E0B8"/>
</svg>
