<svg width="382" height="73" viewBox="0 0 382 73" fill="none" xmlns="http://www.w3.org/2000/svg">
<mask id="path-1-outside-1_602_826" maskUnits="userSpaceOnUse" x="-0.222046" y="0.117676" width="383" height="73" fill="black">
<rect fill="white" x="-0.222046" y="0.117676" width="383" height="73"/>
<path d="M46.817 44.4177L40.472 25.6647C40.002 24.474 39.5006 23.0797 38.968 21.4817C38.4353 19.8523 37.9026 18.0977 37.37 16.2177C36.9 18.129 36.3986 19.8993 35.866 21.5287C35.3333 23.158 34.832 24.568 34.362 25.7587L28.064 44.4177H46.817ZM72.056 70.5967H59.742C58.3633 70.5967 57.251 70.2833 56.405 69.6567C55.559 68.9987 54.9166 68.1683 54.478 67.1657L50.436 55.2277H24.398L20.356 67.1657C20.0113 68.043 19.3846 68.842 18.476 69.5627C17.5986 70.252 16.502 70.5967 15.186 70.5967H2.77795L29.286 2.11768H45.548L72.056 70.5967Z"/>
<path d="M101.613 35.7227C105.749 35.7227 108.726 34.7357 110.543 32.7617C112.36 30.7877 113.269 28.0303 113.269 24.4897C113.269 22.923 113.034 21.4973 112.564 20.2127C112.094 18.928 111.373 17.8313 110.402 16.9227C109.462 15.9827 108.256 15.262 106.783 14.7607C105.342 14.2593 103.618 14.0087 101.613 14.0087H93.3411V35.7227H101.613ZM101.613 2.11768C106.438 2.11768 110.574 2.69734 114.021 3.85667C117.499 4.98467 120.35 6.55134 122.575 8.55667C124.831 10.562 126.492 12.9277 127.557 15.6537C128.622 18.3797 129.155 21.325 129.155 24.4897C129.155 27.905 128.607 31.0383 127.51 33.8897C126.413 36.741 124.737 39.185 122.481 41.2217C120.225 43.2583 117.358 44.8563 113.88 46.0157C110.433 47.1437 106.344 47.7077 101.613 47.7077H93.3411V70.5967H77.4551V2.11768H101.613Z"/>
<path d="M161.373 35.7227C165.509 35.7227 168.486 34.7357 170.303 32.7617C172.12 30.7877 173.029 28.0303 173.029 24.4897C173.029 22.923 172.794 21.4973 172.324 20.2127C171.854 18.928 171.133 17.8313 170.162 16.9227C169.222 15.9827 168.016 15.262 166.543 14.7607C165.102 14.2593 163.378 14.0087 161.373 14.0087H153.101V35.7227H161.373ZM161.373 2.11768C166.198 2.11768 170.334 2.69734 173.781 3.85667C177.259 4.98467 180.11 6.55134 182.335 8.55667C184.591 10.562 186.252 12.9277 187.317 15.6537C188.382 18.3797 188.915 21.325 188.915 24.4897C188.915 27.905 188.367 31.0383 187.27 33.8897C186.173 36.741 184.497 39.185 182.241 41.2217C179.985 43.2583 177.118 44.8563 173.64 46.0157C170.193 47.1437 166.104 47.7077 161.373 47.7077H153.101V70.5967H137.215V2.11768H161.373Z"/>
<path d="M212.955 14.3377V30.3177H234.481V42.0677H212.955V58.3767H241.061V70.5967H196.975V2.11768H241.061V14.3377H212.955Z"/>
<path d="M312.993 36.3337C312.993 41.2843 312.132 45.859 310.408 50.0577C308.716 54.225 306.319 57.844 303.217 60.9147C300.115 63.954 296.371 66.3353 291.984 68.0587C287.629 69.7507 282.788 70.5967 277.461 70.5967H250.859V2.11768H277.461C282.788 2.11768 287.629 2.97934 291.984 4.70267C296.371 6.42601 300.115 8.80734 303.217 11.8467C306.319 14.886 308.716 18.505 310.408 22.7037C312.132 26.871 312.993 31.4143 312.993 36.3337ZM296.731 36.3337C296.731 32.9497 296.293 29.8947 295.415 27.1687C294.538 24.4427 293.269 22.1397 291.608 20.2597C289.979 18.3483 287.974 16.8913 285.592 15.8887C283.211 14.8547 280.501 14.3377 277.461 14.3377H266.839V58.3767H277.461C280.501 58.3767 283.211 57.8753 285.592 56.8727C287.974 55.8387 289.979 54.3817 291.608 52.5017C293.269 50.5903 294.538 48.2717 295.415 45.5457C296.293 42.8197 296.731 39.749 296.731 36.3337Z"/>
<path d="M350.945 58.0477C353.076 58.0477 354.971 57.703 356.632 57.0137C358.324 56.293 359.75 55.2747 360.909 53.9587C362.068 52.6427 362.946 51.0447 363.541 49.1647C364.168 47.2533 364.481 45.0913 364.481 42.6787V2.11768H380.367V42.6787C380.367 46.8773 379.678 50.7313 378.299 54.2407C376.952 57.75 375.009 60.7737 372.471 63.3117C369.933 65.8497 366.847 67.8237 363.212 69.2337C359.577 70.6437 355.488 71.3487 350.945 71.3487C346.37 71.3487 342.266 70.6437 338.631 69.2337C334.996 67.8237 331.91 65.8497 329.372 63.3117C326.834 60.7737 324.891 57.75 323.544 54.2407C322.197 50.7313 321.523 46.8773 321.523 42.6787V2.11768H337.409V42.6317C337.409 45.0443 337.707 47.2063 338.302 49.1177C338.929 50.9977 339.822 52.6113 340.981 53.9587C342.14 55.2747 343.55 56.293 345.211 57.0137C346.903 57.703 348.814 58.0477 350.945 58.0477Z"/>
</mask>
<path d="M46.817 44.4177L40.472 25.6647C40.002 24.474 39.5006 23.0797 38.968 21.4817C38.4353 19.8523 37.9026 18.0977 37.37 16.2177C36.9 18.129 36.3986 19.8993 35.866 21.5287C35.3333 23.158 34.832 24.568 34.362 25.7587L28.064 44.4177H46.817ZM72.056 70.5967H59.742C58.3633 70.5967 57.251 70.2833 56.405 69.6567C55.559 68.9987 54.9166 68.1683 54.478 67.1657L50.436 55.2277H24.398L20.356 67.1657C20.0113 68.043 19.3846 68.842 18.476 69.5627C17.5986 70.252 16.502 70.5967 15.186 70.5967H2.77795L29.286 2.11768H45.548L72.056 70.5967Z" fill="black"/>
<path d="M101.613 35.7227C105.749 35.7227 108.726 34.7357 110.543 32.7617C112.36 30.7877 113.269 28.0303 113.269 24.4897C113.269 22.923 113.034 21.4973 112.564 20.2127C112.094 18.928 111.373 17.8313 110.402 16.9227C109.462 15.9827 108.256 15.262 106.783 14.7607C105.342 14.2593 103.618 14.0087 101.613 14.0087H93.3411V35.7227H101.613ZM101.613 2.11768C106.438 2.11768 110.574 2.69734 114.021 3.85667C117.499 4.98467 120.35 6.55134 122.575 8.55667C124.831 10.562 126.492 12.9277 127.557 15.6537C128.622 18.3797 129.155 21.325 129.155 24.4897C129.155 27.905 128.607 31.0383 127.51 33.8897C126.413 36.741 124.737 39.185 122.481 41.2217C120.225 43.2583 117.358 44.8563 113.88 46.0157C110.433 47.1437 106.344 47.7077 101.613 47.7077H93.3411V70.5967H77.4551V2.11768H101.613Z" fill="black"/>
<path d="M161.373 35.7227C165.509 35.7227 168.486 34.7357 170.303 32.7617C172.12 30.7877 173.029 28.0303 173.029 24.4897C173.029 22.923 172.794 21.4973 172.324 20.2127C171.854 18.928 171.133 17.8313 170.162 16.9227C169.222 15.9827 168.016 15.262 166.543 14.7607C165.102 14.2593 163.378 14.0087 161.373 14.0087H153.101V35.7227H161.373ZM161.373 2.11768C166.198 2.11768 170.334 2.69734 173.781 3.85667C177.259 4.98467 180.11 6.55134 182.335 8.55667C184.591 10.562 186.252 12.9277 187.317 15.6537C188.382 18.3797 188.915 21.325 188.915 24.4897C188.915 27.905 188.367 31.0383 187.27 33.8897C186.173 36.741 184.497 39.185 182.241 41.2217C179.985 43.2583 177.118 44.8563 173.64 46.0157C170.193 47.1437 166.104 47.7077 161.373 47.7077H153.101V70.5967H137.215V2.11768H161.373Z" fill="black"/>
<path d="M212.955 14.3377V30.3177H234.481V42.0677H212.955V58.3767H241.061V70.5967H196.975V2.11768H241.061V14.3377H212.955Z" fill="black"/>
<path d="M312.993 36.3337C312.993 41.2843 312.132 45.859 310.408 50.0577C308.716 54.225 306.319 57.844 303.217 60.9147C300.115 63.954 296.371 66.3353 291.984 68.0587C287.629 69.7507 282.788 70.5967 277.461 70.5967H250.859V2.11768H277.461C282.788 2.11768 287.629 2.97934 291.984 4.70267C296.371 6.42601 300.115 8.80734 303.217 11.8467C306.319 14.886 308.716 18.505 310.408 22.7037C312.132 26.871 312.993 31.4143 312.993 36.3337ZM296.731 36.3337C296.731 32.9497 296.293 29.8947 295.415 27.1687C294.538 24.4427 293.269 22.1397 291.608 20.2597C289.979 18.3483 287.974 16.8913 285.592 15.8887C283.211 14.8547 280.501 14.3377 277.461 14.3377H266.839V58.3767H277.461C280.501 58.3767 283.211 57.8753 285.592 56.8727C287.974 55.8387 289.979 54.3817 291.608 52.5017C293.269 50.5903 294.538 48.2717 295.415 45.5457C296.293 42.8197 296.731 39.749 296.731 36.3337Z" fill="black"/>
<path d="M350.945 58.0477C353.076 58.0477 354.971 57.703 356.632 57.0137C358.324 56.293 359.75 55.2747 360.909 53.9587C362.068 52.6427 362.946 51.0447 363.541 49.1647C364.168 47.2533 364.481 45.0913 364.481 42.6787V2.11768H380.367V42.6787C380.367 46.8773 379.678 50.7313 378.299 54.2407C376.952 57.75 375.009 60.7737 372.471 63.3117C369.933 65.8497 366.847 67.8237 363.212 69.2337C359.577 70.6437 355.488 71.3487 350.945 71.3487C346.37 71.3487 342.266 70.6437 338.631 69.2337C334.996 67.8237 331.91 65.8497 329.372 63.3117C326.834 60.7737 324.891 57.75 323.544 54.2407C322.197 50.7313 321.523 46.8773 321.523 42.6787V2.11768H337.409V42.6317C337.409 45.0443 337.707 47.2063 338.302 49.1177C338.929 50.9977 339.822 52.6113 340.981 53.9587C342.14 55.2747 343.55 56.293 345.211 57.0137C346.903 57.703 348.814 58.0477 350.945 58.0477Z" fill="black"/>
<path d="M46.817 44.4177L40.472 25.6647C40.002 24.474 39.5006 23.0797 38.968 21.4817C38.4353 19.8523 37.9026 18.0977 37.37 16.2177C36.9 18.129 36.3986 19.8993 35.866 21.5287C35.3333 23.158 34.832 24.568 34.362 25.7587L28.064 44.4177H46.817ZM72.056 70.5967H59.742C58.3633 70.5967 57.251 70.2833 56.405 69.6567C55.559 68.9987 54.9166 68.1683 54.478 67.1657L50.436 55.2277H24.398L20.356 67.1657C20.0113 68.043 19.3846 68.842 18.476 69.5627C17.5986 70.252 16.502 70.5967 15.186 70.5967H2.77795L29.286 2.11768H45.548L72.056 70.5967Z" stroke="url(#paint0_linear_602_826)" stroke-width="3" mask="url(#path-1-outside-1_602_826)"/>
<path d="M101.613 35.7227C105.749 35.7227 108.726 34.7357 110.543 32.7617C112.36 30.7877 113.269 28.0303 113.269 24.4897C113.269 22.923 113.034 21.4973 112.564 20.2127C112.094 18.928 111.373 17.8313 110.402 16.9227C109.462 15.9827 108.256 15.262 106.783 14.7607C105.342 14.2593 103.618 14.0087 101.613 14.0087H93.3411V35.7227H101.613ZM101.613 2.11768C106.438 2.11768 110.574 2.69734 114.021 3.85667C117.499 4.98467 120.35 6.55134 122.575 8.55667C124.831 10.562 126.492 12.9277 127.557 15.6537C128.622 18.3797 129.155 21.325 129.155 24.4897C129.155 27.905 128.607 31.0383 127.51 33.8897C126.413 36.741 124.737 39.185 122.481 41.2217C120.225 43.2583 117.358 44.8563 113.88 46.0157C110.433 47.1437 106.344 47.7077 101.613 47.7077H93.3411V70.5967H77.4551V2.11768H101.613Z" stroke="url(#paint1_linear_602_826)" stroke-width="3" mask="url(#path-1-outside-1_602_826)"/>
<path d="M161.373 35.7227C165.509 35.7227 168.486 34.7357 170.303 32.7617C172.12 30.7877 173.029 28.0303 173.029 24.4897C173.029 22.923 172.794 21.4973 172.324 20.2127C171.854 18.928 171.133 17.8313 170.162 16.9227C169.222 15.9827 168.016 15.262 166.543 14.7607C165.102 14.2593 163.378 14.0087 161.373 14.0087H153.101V35.7227H161.373ZM161.373 2.11768C166.198 2.11768 170.334 2.69734 173.781 3.85667C177.259 4.98467 180.11 6.55134 182.335 8.55667C184.591 10.562 186.252 12.9277 187.317 15.6537C188.382 18.3797 188.915 21.325 188.915 24.4897C188.915 27.905 188.367 31.0383 187.27 33.8897C186.173 36.741 184.497 39.185 182.241 41.2217C179.985 43.2583 177.118 44.8563 173.64 46.0157C170.193 47.1437 166.104 47.7077 161.373 47.7077H153.101V70.5967H137.215V2.11768H161.373Z" stroke="url(#paint2_linear_602_826)" stroke-width="3" mask="url(#path-1-outside-1_602_826)"/>
<path d="M212.955 14.3377V30.3177H234.481V42.0677H212.955V58.3767H241.061V70.5967H196.975V2.11768H241.061V14.3377H212.955Z" stroke="url(#paint3_linear_602_826)" stroke-width="3" mask="url(#path-1-outside-1_602_826)"/>
<path d="M312.993 36.3337C312.993 41.2843 312.132 45.859 310.408 50.0577C308.716 54.225 306.319 57.844 303.217 60.9147C300.115 63.954 296.371 66.3353 291.984 68.0587C287.629 69.7507 282.788 70.5967 277.461 70.5967H250.859V2.11768H277.461C282.788 2.11768 287.629 2.97934 291.984 4.70267C296.371 6.42601 300.115 8.80734 303.217 11.8467C306.319 14.886 308.716 18.505 310.408 22.7037C312.132 26.871 312.993 31.4143 312.993 36.3337ZM296.731 36.3337C296.731 32.9497 296.293 29.8947 295.415 27.1687C294.538 24.4427 293.269 22.1397 291.608 20.2597C289.979 18.3483 287.974 16.8913 285.592 15.8887C283.211 14.8547 280.501 14.3377 277.461 14.3377H266.839V58.3767H277.461C280.501 58.3767 283.211 57.8753 285.592 56.8727C287.974 55.8387 289.979 54.3817 291.608 52.5017C293.269 50.5903 294.538 48.2717 295.415 45.5457C296.293 42.8197 296.731 39.749 296.731 36.3337Z" stroke="url(#paint4_linear_602_826)" stroke-width="3" mask="url(#path-1-outside-1_602_826)"/>
<path d="M350.945 58.0477C353.076 58.0477 354.971 57.703 356.632 57.0137C358.324 56.293 359.75 55.2747 360.909 53.9587C362.068 52.6427 362.946 51.0447 363.541 49.1647C364.168 47.2533 364.481 45.0913 364.481 42.6787V2.11768H380.367V42.6787C380.367 46.8773 379.678 50.7313 378.299 54.2407C376.952 57.75 375.009 60.7737 372.471 63.3117C369.933 65.8497 366.847 67.8237 363.212 69.2337C359.577 70.6437 355.488 71.3487 350.945 71.3487C346.37 71.3487 342.266 70.6437 338.631 69.2337C334.996 67.8237 331.91 65.8497 329.372 63.3117C326.834 60.7737 324.891 57.75 323.544 54.2407C322.197 50.7313 321.523 46.8773 321.523 42.6787V2.11768H337.409V42.6317C337.409 45.0443 337.707 47.2063 338.302 49.1177C338.929 50.9977 339.822 52.6113 340.981 53.9587C342.14 55.2747 343.55 56.293 345.211 57.0137C346.903 57.703 348.814 58.0477 350.945 58.0477Z" stroke="url(#paint5_linear_602_826)" stroke-width="3" mask="url(#path-1-outside-1_602_826)"/>
<defs>
<linearGradient id="paint0_linear_602_826" x1="63.1344" y1="11.2868" x2="78.7884" y2="103.154" gradientUnits="userSpaceOnUse">
<stop stop-color="#FFF176"/>
<stop offset="1" stop-color="#00E0B8"/>
</linearGradient>
<linearGradient id="paint1_linear_602_826" x1="63.1344" y1="11.2868" x2="78.7884" y2="103.154" gradientUnits="userSpaceOnUse">
<stop stop-color="#FFF176"/>
<stop offset="1" stop-color="#00E0B8"/>
</linearGradient>
<linearGradient id="paint2_linear_602_826" x1="63.1344" y1="11.2868" x2="78.7884" y2="103.154" gradientUnits="userSpaceOnUse">
<stop stop-color="#FFF176"/>
<stop offset="1" stop-color="#00E0B8"/>
</linearGradient>
<linearGradient id="paint3_linear_602_826" x1="63.1344" y1="11.2868" x2="78.7884" y2="103.154" gradientUnits="userSpaceOnUse">
<stop stop-color="#FFF176"/>
<stop offset="1" stop-color="#00E0B8"/>
</linearGradient>
<linearGradient id="paint4_linear_602_826" x1="63.1344" y1="11.2868" x2="78.7884" y2="103.154" gradientUnits="userSpaceOnUse">
<stop stop-color="#FFF176"/>
<stop offset="1" stop-color="#00E0B8"/>
</linearGradient>
<linearGradient id="paint5_linear_602_826" x1="63.1344" y1="11.2868" x2="78.7884" y2="103.154" gradientUnits="userSpaceOnUse">
<stop stop-color="#FFF176"/>
<stop offset="1" stop-color="#00E0B8"/>
</linearGradient>
</defs>
</svg>
