<svg width="207" height="102" viewBox="0 0 207 102" fill="none" xmlns="http://www.w3.org/2000/svg">
<path opacity="0.8" d="M7.092 46.24V47.104H10.704V46.24H7.092ZM6.684 46.24V51.448C6.684 52.564 7.02 52.84 8.124 52.84C8.364 52.84 9.888 52.84 10.14 52.84C11.244 52.84 11.496 52.288 11.616 50.332C11.364 50.272 10.98 50.116 10.776 49.948C10.716 51.676 10.62 51.988 10.092 51.988C9.744 51.988 8.472 51.988 8.22 51.988C7.668 51.988 7.572 51.904 7.572 51.448V46.24H6.684ZM6.636 42.472V43.336H10.284V47.92H11.16V42.472H6.636ZM0.972 44.596V52.912H1.704V45.364H5.04V52.756H5.784V44.596H0.972ZM1.344 49.432V50.104H5.388V49.432H1.344ZM1.344 51.364V52.096H5.388V51.364H1.344ZM0.684 42.388V43.204H6.048V42.388H0.684ZM2.412 42.616V45.148H3.06V42.616H2.412ZM3.756 42.616V45.148H4.416V42.616H3.756ZM2.532 45.136V46.312C2.532 46.96 2.412 47.752 1.704 48.364C1.824 48.424 2.028 48.604 2.112 48.712C2.856 48.028 3.036 47.068 3.036 46.324V45.136H2.532ZM3.696 45.136V47.632C3.696 48.22 3.84 48.328 4.32 48.328C4.416 48.328 4.824 48.328 4.908 48.328C5.244 48.328 5.412 48.22 5.472 47.968C5.316 47.92 5.112 47.86 4.992 47.764C4.98 47.8 4.944 47.8 4.812 47.8C4.74 47.8 4.428 47.8 4.368 47.8C4.236 47.8 4.212 47.776 4.212 47.632V45.136H3.696ZM12.672 48.784V49.588H23.328V48.784H12.672ZM17.508 47.668V52.936H18.42V47.668H17.508ZM17.1 49.096C16.116 50.368 14.184 51.508 12.432 52.048C12.636 52.228 12.9 52.576 13.044 52.804C14.796 52.168 16.752 50.884 17.844 49.432L17.1 49.096ZM18.84 49.12L18.084 49.48C19.176 50.896 21.132 52.12 22.956 52.72C23.088 52.48 23.364 52.132 23.556 51.952C21.732 51.46 19.812 50.368 18.84 49.12ZM17.04 45.796H18.924V47.116H17.04V45.796ZM17.04 43.816H18.924V45.112H17.04V43.816ZM16.26 43.108V47.824H19.716V43.108H16.26ZM17.664 41.92C17.592 42.352 17.424 42.988 17.28 43.408L17.988 43.564C18.168 43.18 18.372 42.604 18.564 42.064L17.664 41.92ZM12.756 44.26C13.356 44.752 14.064 45.448 14.376 45.928L14.796 45.268C14.484 44.812 13.764 44.14 13.152 43.684L12.756 44.26ZM14.94 46.024C15.288 46.708 15.624 47.632 15.72 48.208L16.356 47.956C16.248 47.404 15.9 46.504 15.54 45.832L14.94 46.024ZM15.24 43.672C14.748 44.764 13.872 46.3 13.176 47.236L13.764 47.512C14.46 46.588 15.312 45.136 15.948 43.948L15.24 43.672ZM14.304 42.004C14.064 42.7 13.608 43.684 13.26 44.296L13.86 44.56C14.232 43.96 14.664 43.048 15.024 42.268L14.304 42.004ZM12.648 47.164L12.744 47.944C13.62 47.8 14.688 47.656 15.792 47.476L15.78 46.828C14.592 46.96 13.464 47.092 12.648 47.164ZM19.644 44.164C20.28 44.716 21 45.496 21.312 46.024L21.78 45.4C21.456 44.896 20.724 44.14 20.1 43.612L19.644 44.164ZM21.876 45.928C22.284 46.684 22.68 47.668 22.8 48.304L23.472 48.028C23.34 47.416 22.92 46.432 22.5 45.7L21.876 45.928ZM22.176 43.66C21.684 44.764 20.772 46.312 20.064 47.26L20.652 47.536C21.372 46.6 22.248 45.136 22.884 43.948L22.176 43.66ZM21.3 41.968C21.06 42.664 20.592 43.648 20.232 44.26L20.832 44.524C21.216 43.924 21.66 43.024 22.032 42.232L21.3 41.968ZM19.692 47.164L19.8 47.944C20.676 47.824 21.768 47.68 22.872 47.536L22.86 46.876C21.672 46.984 20.532 47.092 19.692 47.164ZM26.712 44.224V44.884H29.64V44.224H26.712ZM26.592 51.76V52.444H30.336V51.76H26.592ZM26.052 46.912V47.512H30.06V46.912H26.052ZM25.668 45.544V47.5C25.668 48.88 25.512 50.764 24.396 52.132C24.564 52.24 24.888 52.528 25.008 52.696C26.232 51.208 26.46 49.036 26.46 47.524V45.544H25.668ZM26.112 45.544V46.216H29.628V48.22H26.088V48.892H30.444V45.544H26.112ZM26.268 49.636V52.948H27.048V50.32H29.82V52.864H30.624V49.636H26.268ZM31.428 43.372V50.02H32.292V43.372H31.428ZM34.128 42.148V51.784C34.128 52 34.044 52.072 33.816 52.072C33.6 52.084 32.88 52.096 32.064 52.06C32.196 52.324 32.34 52.732 32.376 52.96C33.456 52.972 34.104 52.948 34.476 52.792C34.848 52.648 35.004 52.384 35.004 51.772V42.148H34.128ZM27.564 42.04C26.976 43.024 25.884 44.248 24.396 45.136C24.576 45.268 24.852 45.556 24.972 45.76C26.556 44.728 27.66 43.468 28.344 42.496V42.232H28.056V42.04H27.564ZM27.732 42.04V42.676H27.912C28.788 43.312 29.88 44.368 30.444 44.992L31.044 44.32C30.432 43.684 29.292 42.712 28.38 42.04H27.732ZM41.844 43.936L41.424 44.8H47.532V43.936H41.844ZM43.344 46.54V47.368H47.256V46.54H43.344ZM43.332 49.18V50.032H47.424V49.18H43.332ZM42.888 44.212V52.96H43.812V44.212H42.888ZM42.3 42.064C41.712 43.828 40.74 45.58 39.648 46.696C39.852 46.84 40.212 47.164 40.344 47.32C41.448 46.084 42.492 44.2 43.176 42.292L42.3 42.064ZM39.42 41.968C38.736 43.792 37.62 45.592 36.42 46.756C36.588 46.972 36.864 47.452 36.948 47.668C38.256 46.324 39.492 44.272 40.284 42.244L39.42 41.968ZM38.136 45.064V52.948H39.048V44.176L39.024 44.164L38.136 45.064ZM54.24 41.44H53.748V53.44H54.24V41.44ZM67.044 47.152V51.616C67.044 52.648 67.32 52.948 68.4 52.948C68.616 52.948 69.912 52.948 70.14 52.948C71.16 52.948 71.4 52.42 71.508 50.452C71.268 50.392 70.872 50.236 70.68 50.08C70.62 51.808 70.548 52.096 70.08 52.096C69.792 52.096 68.724 52.096 68.496 52.096C68.028 52.096 67.944 52.012 67.944 51.616V47.152H67.044ZM63.876 47.212C63.684 49.576 63.276 51.316 60.408 52.192C60.6 52.372 60.864 52.744 60.972 52.96C64.044 51.952 64.608 49.936 64.824 47.212H63.876ZM61.656 42.808C62.256 43.756 62.868 45.028 63.072 45.82L63.936 45.472C63.708 44.668 63.072 43.432 62.46 42.52L61.656 42.808ZM69.54 42.376C69.192 43.336 68.532 44.668 68.016 45.472L68.784 45.784C69.312 45.004 69.972 43.768 70.476 42.724L69.54 42.376ZM60.648 46.516V47.368H71.376V46.516H60.648ZM65.508 41.92V46.864H66.42V41.92H65.508ZM75.744 43.72V44.296H80.28V43.72H75.744ZM77.964 42.592C79.14 43.456 81.168 44.344 82.788 44.788C82.884 44.584 83.076 44.26 83.244 44.092C81.528 43.684 79.608 42.916 78.3 41.968H77.544C76.56 42.82 74.664 43.684 72.804 44.2C72.948 44.38 73.128 44.68 73.212 44.872C75.048 44.308 76.944 43.408 77.964 42.592ZM80.508 47.764C81.18 48.412 82.26 49.084 83.184 49.48C83.292 49.3 83.472 49.024 83.616 48.844C82.62 48.496 81.552 47.884 80.82 47.164H80.136C79.596 47.824 78.54 48.532 77.496 48.94C77.652 49.096 77.82 49.36 77.904 49.528C78.924 49.084 79.932 48.4 80.508 47.764ZM75.336 45.616C75.516 45.904 75.708 46.312 75.78 46.576L76.5 46.36C76.428 46.12 76.212 45.724 76.02 45.436L75.336 45.616ZM79.968 45.352C79.836 45.664 79.584 46.12 79.392 46.432L80.004 46.624C80.22 46.336 80.472 45.952 80.736 45.544L79.968 45.352ZM74.268 44.896V45.496H81.66V44.896H74.268ZM73.428 46.468V47.092H82.62V46.468H73.428ZM77.544 43.972V46.732H78.396V43.972H77.544ZM73.764 48.796V49.36H76.956V48.796H73.764ZM73.392 50.836C73.584 51.172 73.764 51.64 73.836 51.928L74.424 51.748C74.352 51.46 74.16 51.016 73.956 50.68L73.392 50.836ZM76.644 50.596C76.548 50.896 76.356 51.328 76.2 51.628L76.716 51.784C76.884 51.52 77.052 51.16 77.244 50.776L76.644 50.596ZM72.912 49.972V50.572H77.604V49.972H72.912ZM74.94 49.048V52.12H75.636V49.048H74.94ZM72.624 52.18L72.732 52.816C74.016 52.684 75.852 52.48 77.604 52.288V51.688C75.744 51.892 73.86 52.072 72.624 52.18ZM78.816 48.796V49.36H82.248V48.796H78.816ZM78.408 50.86C78.624 51.208 78.828 51.676 78.912 52L79.536 51.784C79.452 51.496 79.224 51.028 79.008 50.692L78.408 50.86ZM81.984 50.668C81.84 50.992 81.588 51.496 81.372 51.82L81.924 51.988C82.14 51.676 82.38 51.268 82.608 50.848L81.984 50.668ZM77.964 50.008V50.608H83.208V50.008H77.964ZM77.76 51.988V52.624H83.412V51.988H77.76ZM80.112 49.012V52.192H80.856V49.012H80.112ZM74.976 47.164C74.484 47.764 73.596 48.436 72.444 48.928C72.612 49.024 72.828 49.252 72.948 49.408C74.172 48.82 75.048 48.136 75.612 47.572V47.344H75.384V47.164H74.976ZM75.132 47.164V47.704H75.312C76.008 48.1 76.872 48.748 77.34 49.144L77.892 48.652C77.364 48.208 76.416 47.584 75.672 47.164H75.132Z" fill="white"/>
<path d="M202.929 25.1299L0 25.1299L0 26.0199L202.929 26.0199V25.1299Z" fill="white"/>
<path d="M207 22L190 22V29H207V22Z" fill="#00E0B8"/>
<path d="M3.542 16H4.844V6.83H7.952V5.738H0.434V6.83H3.542V16ZM9.66886 16H10.9429V10.484C11.7129 9.714 12.2449 9.322 13.0289 9.322C14.0369 9.322 14.4709 9.924 14.4709 11.352V16H15.7449V11.184C15.7449 9.238 15.0169 8.202 13.4209 8.202C12.3849 8.202 11.6009 8.776 10.9009 9.476L10.9429 7.908V4.856H9.66886V16ZM21.2388 16.182C22.2748 16.182 23.0868 15.832 23.7588 15.398L23.2968 14.558C22.7368 14.936 22.1348 15.16 21.3928 15.16C19.9508 15.16 18.9568 14.124 18.8728 12.5H23.9968C24.0248 12.318 24.0528 12.052 24.0528 11.772C24.0528 9.602 22.9608 8.202 21.0288 8.202C19.2648 8.202 17.5988 9.742 17.5988 12.206C17.5988 14.712 19.2228 16.182 21.2388 16.182ZM18.8588 11.59C19.0128 10.092 19.9648 9.224 21.0428 9.224C22.2328 9.224 22.9328 10.05 22.9328 11.59H18.8588ZM31.0576 16H32.5556L35.8176 5.738H34.5016L32.8496 11.296C32.4856 12.5 32.2336 13.48 31.8556 14.684H31.7996C31.4076 13.48 31.1696 12.5 30.8056 11.296L29.1396 5.738H27.7816L31.0576 16ZM37.1083 16H38.3823V8.398H37.1083V16ZM37.7523 6.83C38.2563 6.83 38.6343 6.48 38.6343 6.004C38.6343 5.486 38.2563 5.178 37.7523 5.178C37.2483 5.178 36.8703 5.486 36.8703 6.004C36.8703 6.48 37.2483 6.83 37.7523 6.83ZM42.3078 16.182C42.6438 16.182 42.8678 16.14 43.0498 16.07L42.8678 15.09C42.7278 15.118 42.6718 15.118 42.6018 15.118C42.4058 15.118 42.2378 14.964 42.2378 14.572V4.856H40.9638V14.488C40.9638 15.566 41.3558 16.182 42.3078 16.182ZM46.3 16.182C46.636 16.182 46.86 16.14 47.042 16.07L46.86 15.09C46.72 15.118 46.664 15.118 46.594 15.118C46.398 15.118 46.23 14.964 46.23 14.572V4.856H44.956V14.488C44.956 15.566 45.348 16.182 46.3 16.182ZM50.6982 16.182C51.6362 16.182 52.4902 15.692 53.2182 15.09H53.2602L53.3722 16H54.4222V11.324C54.4222 9.448 53.6382 8.202 51.7902 8.202C50.5722 8.202 49.4942 8.748 48.7942 9.196L49.2982 10.078C49.9002 9.672 50.6982 9.266 51.5802 9.266C52.8262 9.266 53.1482 10.204 53.1482 11.184C49.9142 11.548 48.4722 12.374 48.4722 14.026C48.4722 15.398 49.4242 16.182 50.6982 16.182ZM51.0622 15.16C50.3062 15.16 49.7182 14.81 49.7182 13.942C49.7182 12.962 50.5862 12.332 53.1482 12.024V14.152C52.4062 14.81 51.8042 15.16 51.0622 15.16ZM56.8505 16H58.1245V8.398H56.8505V16ZM57.4945 6.83C57.9985 6.83 58.3765 6.48 58.3765 6.004C58.3765 5.486 57.9985 5.178 57.4945 5.178C56.9905 5.178 56.6125 5.486 56.6125 6.004C56.6125 6.48 56.9905 6.83 57.4945 6.83ZM60.706 16H61.98V10.484C62.75 9.714 63.282 9.322 64.066 9.322C65.074 9.322 65.508 9.924 65.508 11.352V16H66.782V11.184C66.782 9.238 66.054 8.202 64.458 8.202C63.422 8.202 62.638 8.776 61.91 9.49H61.868L61.756 8.398H60.706V16Z" fill="#00E0B8"/>
</svg>
