<svg width="207" height="102" viewBox="0 0 207 102" fill="none" xmlns="http://www.w3.org/2000/svg">
<path opacity="0.8" d="M7.38 48.076V52.852H7.992V48.076H7.38ZM8.916 48.076V52.852H9.54V48.076H8.916ZM4.692 42.652V43.444H11.304V42.652H4.692ZM6.144 49.936V50.62H10.932V49.936H6.144ZM5.16 44.236V46.876C5.16 48.496 5.04 50.704 3.876 52.288C4.056 52.384 4.404 52.636 4.536 52.792C5.772 51.112 5.976 48.616 5.976 46.888V44.236H5.16ZM5.52 44.236V44.98H10.14V46.276H5.52V47.02H11.004V44.236H5.52ZM5.808 47.836V52.972H6.48V48.544H10.98V47.836H5.808ZM10.5 47.836V52.096C10.5 52.204 10.476 52.228 10.392 52.228C10.296 52.228 10.056 52.228 9.756 52.216C9.852 52.432 9.972 52.744 9.996 52.96C10.452 52.96 10.764 52.936 10.98 52.828C11.208 52.684 11.256 52.468 11.256 52.108V47.836H10.5ZM2.352 41.932C2.052 42.724 1.5 43.9 1.08 44.596L1.68 44.86C2.124 44.188 2.688 43.108 3.12 42.22L2.352 41.932ZM3.624 43.3C3 44.56 1.92 46.348 1.068 47.416L1.608 47.704C2.472 46.672 3.576 44.968 4.368 43.636L3.624 43.3ZM0.432 44.416C1.068 45.016 1.788 45.868 2.088 46.444L2.592 45.784C2.28 45.244 1.548 44.428 0.912 43.84L0.432 44.416ZM3.168 46.012C3.612 46.828 4.02 47.908 4.152 48.58L4.824 48.292C4.704 47.62 4.26 46.564 3.804 45.772L3.168 46.012ZM0.336 47.236L0.432 48.04C1.476 47.968 2.844 47.884 4.2 47.8V47.032C2.76 47.116 1.332 47.188 0.336 47.236ZM3.396 48.928C3.672 49.624 3.9 50.536 3.96 51.136L4.632 50.932C4.572 50.344 4.32 49.432 4.032 48.748L3.396 48.928ZM1.056 48.784C0.924 49.828 0.696 50.908 0.312 51.64C0.492 51.712 0.84 51.868 0.984 51.976C1.356 51.208 1.644 50.044 1.8 48.916L1.056 48.784ZM2.268 47.584V52.96H3.048V47.584H2.268ZM13.74 51.316V52.204H22.284V51.316H13.74ZM13.728 47.812V48.664H22.404V47.812H13.728ZM13.176 44.32V52.972H14.028V45.196H21.984V52.912H22.872V44.32H13.176ZM16.056 42.052V51.904H16.932V42.052H16.056ZM18.96 42.052V51.856H19.848V42.052H18.96ZM30.24 41.44H29.748V53.44H30.24V41.44ZM40.368 43.18V43.972H47.316V43.18H40.368ZM43.356 41.932V52.96H44.232V41.932H43.356ZM44.604 48.604L43.956 48.82C44.604 50.236 45.816 51.64 47.028 52.348C47.16 52.132 47.436 51.808 47.628 51.64C46.44 51.064 45.228 49.84 44.604 48.604ZM41.664 47.332H45.972V48.4H41.664V47.332ZM41.664 45.628H45.972V46.684H41.664V45.628ZM40.86 44.956V49.084H46.812V44.956H40.86ZM42.948 48.616C42.264 49.864 40.92 51.112 39.636 51.7C39.84 51.88 40.116 52.192 40.248 52.408C41.556 51.7 42.924 50.32 43.668 48.868L42.948 48.616ZM36.96 42.448V52.972H37.776V43.264H39.792V42.448H36.96ZM39.516 42.448V42.688C39.264 43.516 38.82 44.944 38.388 46.036C39.252 46.972 39.468 47.788 39.468 48.436C39.468 48.796 39.408 49.12 39.216 49.252C39.12 49.324 38.988 49.36 38.844 49.36C38.652 49.384 38.424 49.372 38.148 49.348C38.28 49.576 38.352 49.924 38.364 50.14C38.64 50.152 38.94 50.152 39.18 50.128C39.42 50.092 39.636 50.02 39.804 49.912C40.14 49.672 40.272 49.168 40.272 48.52C40.272 47.776 40.08 46.936 39.192 45.94C39.6 44.98 40.044 43.744 40.392 42.76L39.816 42.412L39.672 42.448H39.516ZM48.672 46.156V46.924H59.4V46.156H48.672ZM49.272 42.952V43.708H58.968V42.952H49.272ZM53.508 41.932V43.444H54.42V41.932H53.508ZM49.62 46.54V48.148C49.62 49.408 49.464 51.16 48.324 52.444C48.528 52.552 48.9 52.852 49.044 53.02C50.268 51.64 50.52 49.6 50.52 48.16V46.54H49.62ZM50.868 44.224C52.872 44.704 55.332 45.58 56.676 46.204L57.36 45.676C55.956 45.076 53.496 44.224 51.576 43.756L50.868 44.224ZM56.352 43.444C55.116 44.404 52.524 45.244 50.448 45.676C50.568 45.832 50.736 46.12 50.808 46.288C52.98 45.808 55.524 44.908 57.036 43.816L56.352 43.444ZM56.364 46.792C55.248 47.488 53.124 48.004 51.336 48.244C51.516 48.424 51.696 48.7 51.816 48.892C53.688 48.58 55.812 48.004 57.096 47.188L56.364 46.792ZM57.108 48.244C55.92 49.168 53.592 49.828 51.444 50.14C51.624 50.32 51.804 50.608 51.912 50.812C54.168 50.428 56.508 49.708 57.876 48.64L57.108 48.244ZM58.212 49.672C56.796 51.124 53.904 51.928 50.712 52.264C50.88 52.468 51.06 52.804 51.144 53.032C54.48 52.624 57.432 51.736 59.028 50.08L58.212 49.672ZM60.552 49.684V50.428H71.448V49.684H60.552ZM60.792 43.228V43.96H71.16V43.228H60.792ZM62.316 47.164V47.716H69.612V47.164H62.316ZM67.764 48.808V51.964C67.764 52.12 67.716 52.156 67.5 52.18C67.296 52.18 66.648 52.18 65.856 52.156C65.988 52.408 66.12 52.732 66.168 52.972C67.128 52.972 67.752 52.972 68.148 52.84C68.532 52.72 68.64 52.48 68.64 51.976V48.808H67.764ZM62.7 50.932C63.42 51.376 64.272 52.06 64.668 52.54L65.268 51.952C64.848 51.472 63.972 50.824 63.264 50.392L62.7 50.932ZM62.892 42.208C63.252 42.592 63.672 43.132 63.864 43.48L64.632 43.12C64.416 42.772 63.984 42.256 63.624 41.896L62.892 42.208ZM62.58 45.268H69.384V48.34H62.58V45.268ZM61.752 44.68V48.928H70.248V44.68H61.752ZM68.172 41.908C67.98 42.328 67.608 42.952 67.32 43.348L67.992 43.6C68.328 43.24 68.736 42.7 69.096 42.184L68.172 41.908ZM66.564 43.576V45.748C66.564 46.42 66.78 46.564 67.68 46.564C67.86 46.564 69.024 46.564 69.216 46.564C69.756 46.564 69.972 46.456 70.032 46.168C69.828 46.144 69.564 46.072 69.396 45.976C69.372 46.036 69.312 46.048 69.096 46.048C68.88 46.048 67.944 46.048 67.764 46.048C67.416 46.048 67.356 46 67.356 45.76V43.576H66.564ZM64.548 43.564V45.004C64.548 45.568 64.344 46.18 62.796 46.468C62.952 46.6 63.156 46.876 63.24 47.044C64.956 46.6 65.328 45.808 65.328 45.004V43.564H64.548ZM79.3008 43.4688H80.3965L83.1914 50.4238L85.9805 43.4688H87.082L83.6133 52H82.7578L79.3008 43.4688ZM78.9434 43.4688H79.9102L80.0684 48.6719V52H78.9434V43.4688ZM86.4668 43.4688H87.4336V52H86.3086V48.6719L86.4668 43.4688ZM90.4336 45.6602V52H89.3438V45.6602H90.4336ZM89.2617 43.9785C89.2617 43.8027 89.3145 43.6543 89.4199 43.5332C89.5293 43.4121 89.6895 43.3516 89.9004 43.3516C90.1074 43.3516 90.2656 43.4121 90.375 43.5332C90.4883 43.6543 90.5449 43.8027 90.5449 43.9785C90.5449 44.1465 90.4883 44.291 90.375 44.4121C90.2656 44.5293 90.1074 44.5879 89.9004 44.5879C89.6895 44.5879 89.5293 44.5293 89.4199 44.4121C89.3145 44.291 89.2617 44.1465 89.2617 43.9785ZM93.2637 43V52H92.1738V43H93.2637ZM97.1367 45.6602L94.3711 48.6191L92.8242 50.2246L92.7363 49.0703L93.8438 47.7461L95.8125 45.6602H97.1367ZM96.1465 52L93.8848 48.9766L94.4473 48.0098L97.4238 52H96.1465ZM100.77 52.1172C100.328 52.1172 99.9277 52.043 99.5684 51.8945C99.2129 51.7422 98.9062 51.5293 98.6484 51.2559C98.3945 50.9824 98.1992 50.6582 98.0625 50.2832C97.9258 49.9082 97.8574 49.498 97.8574 49.0527V48.8066C97.8574 48.291 97.9336 47.832 98.0859 47.4297C98.2383 47.0234 98.4453 46.6797 98.707 46.3984C98.9688 46.1172 99.2656 45.9043 99.5977 45.7598C99.9297 45.6152 100.273 45.543 100.629 45.543C101.082 45.543 101.473 45.6211 101.801 45.7773C102.133 45.9336 102.404 46.1523 102.615 46.4336C102.826 46.7109 102.982 47.0391 103.084 47.418C103.186 47.793 103.236 48.2031 103.236 48.6484V49.1348H98.502V48.25H102.152V48.168C102.137 47.8867 102.078 47.6133 101.977 47.3477C101.879 47.082 101.723 46.8633 101.508 46.6914C101.293 46.5195 101 46.4336 100.629 46.4336C100.383 46.4336 100.156 46.4863 99.9492 46.5918C99.7422 46.6934 99.5645 46.8457 99.416 47.0488C99.2676 47.252 99.1523 47.5 99.0703 47.793C98.9883 48.0859 98.9473 48.4238 98.9473 48.8066V49.0527C98.9473 49.3535 98.9883 49.6367 99.0703 49.9023C99.1562 50.1641 99.2793 50.3945 99.4395 50.5938C99.6035 50.793 99.8008 50.9492 100.031 51.0625C100.266 51.1758 100.531 51.2324 100.828 51.2324C101.211 51.2324 101.535 51.1543 101.801 50.998C102.066 50.8418 102.299 50.6328 102.498 50.3711L103.154 50.8926C103.018 51.0996 102.844 51.2969 102.633 51.4844C102.422 51.6719 102.162 51.8242 101.854 51.9414C101.549 52.0586 101.188 52.1172 100.77 52.1172Z" fill="white"/>
<path d="M202.929 25.1299L0 25.1299L0 26.0199L202.929 26.0199V25.1299Z" fill="white"/>
<path d="M207 22L190 22V29H207V22Z" fill="#00E0B8"/>
<path d="M8.89 6.998H9.856V6.2H13.202V5.276H9.856V4.296H8.89V5.276H7.476V6.2H8.89V6.998ZM4.06 6.984H5.026V6.186H6.538V5.262H5.026V4.296H4.06V5.262H0.938V6.186H4.06V6.984ZM4.746 8.482C4.536 8.818 4.312 9.154 4.088 9.42H2.352C2.618 9.112 2.856 8.804 3.052 8.482H4.746ZM5.838 11.268H4.48V10.162H5.838V11.268ZM5.838 13.06H4.48V11.94H5.838V13.06ZM2.422 11.268V10.162H3.696V11.268H2.422ZM3.696 11.94V13.06H2.422V11.94H3.696ZM1.568 13.816H6.734V9.42H5.082C5.418 9 5.74 8.538 6.006 8.09L5.446 7.67L5.264 7.726H3.528C3.668 7.474 3.794 7.236 3.906 6.998L2.954 6.83C2.52 7.824 1.694 9.042 0.532 9.966C0.756 10.106 1.05 10.4 1.204 10.582C1.316 10.47 1.442 10.372 1.568 10.26V13.816ZM1.204 17.05C1.764 16.42 2.128 15.412 2.38 14.558L1.638 14.264C1.414 15.076 1.008 16.07 0.476 16.644L1.204 17.05ZM2.744 14.502C2.898 15.23 3.01 16.168 2.982 16.77L3.738 16.672C3.738 16.07 3.626 15.146 3.458 14.432L2.744 14.502ZM4.032 14.46C4.326 15.146 4.578 16.042 4.648 16.63L5.39 16.448C5.292 15.888 5.012 14.992 4.732 14.334L4.032 14.46ZM5.418 14.362C5.81 15.006 6.23 15.888 6.398 16.448L7.098 16.21C6.93 15.65 6.482 14.796 6.076 14.166L5.418 14.362ZM13.076 11.198V10.274H10.612V8.398C11.41 8.202 12.166 7.964 12.782 7.726L11.998 7.026C10.892 7.53 8.848 7.992 7.098 8.3C7.196 8.496 7.336 8.818 7.378 9.028C8.106 8.916 8.862 8.776 9.618 8.622V10.274H7.056V11.198H9.31C8.708 12.71 7.742 14.208 6.734 14.964C6.958 15.146 7.266 15.482 7.42 15.72C8.232 14.978 9.016 13.774 9.618 12.472V17.078H10.612V12.332C11.228 13.634 12.04 14.908 12.768 15.65C12.936 15.426 13.23 15.104 13.454 14.95C12.544 14.152 11.55 12.64 10.906 11.198H13.076ZM18.06 6.032C17.85 5.542 17.402 4.814 16.996 4.24L16.198 4.646C16.562 5.22 17.024 6.004 17.234 6.508L18.06 6.032ZM18.438 13.046V15.356H16.1V13.046H18.438ZM19.362 12.178H15.19V16.882H16.1V16.224H19.362V12.178ZM15.19 11.142H19.25V10.316H15.19V11.142ZM19.25 8.496H15.19V9.322H19.25V8.496ZM14.616 7.516H19.726V6.662H14.616V7.516ZM20.636 13.242C21.224 13.886 21.938 14.796 22.26 15.356L23.072 14.866C22.75 14.32 22.008 13.438 21.42 12.822L20.636 13.242ZM25.704 9.952H24.682V11.324H19.796V12.276H24.682V15.846C24.682 16.028 24.612 16.07 24.416 16.084C24.234 16.084 23.604 16.084 22.918 16.07C23.044 16.35 23.198 16.742 23.254 17.036C24.178 17.036 24.794 17.022 25.186 16.854C25.578 16.7 25.704 16.434 25.704 15.86V12.276H27.37V11.324H25.704V9.952ZM24.038 5.948V4.296H23.016V5.948H19.796V6.914H23.016V8.706H20.244V9.644H26.936V8.706H24.038V6.914H27.412V5.948H24.038ZM41.104 5.57H28.896V6.634H34.818V15.37C34.818 15.692 34.692 15.79 34.356 15.804C33.978 15.818 32.718 15.818 31.416 15.776C31.626 16.084 31.836 16.616 31.92 16.952C33.53 16.952 34.566 16.938 35.168 16.742C35.756 16.56 35.994 16.21 35.994 15.384V6.634H41.104V5.57ZM50.274 10.68L53.284 4.408L52.528 4.156L49.42 10.68L52.528 17.204L53.284 16.952L50.274 10.68ZM52.486 10.68L55.496 4.408L54.74 4.156L51.632 10.68L54.74 17.204L55.496 16.952L52.486 10.68ZM60.76 6.088V8.734H58.142V6.088H60.76ZM58.142 12.472V9.686H60.76V12.472H58.142ZM61.726 13.438V5.15H57.162V14.726H58.142V13.438H61.726ZM63.938 11.66C64.008 11.03 64.022 10.414 64.022 9.84V9.21H67.928V11.66H63.938ZM67.928 5.864V8.258H64.022V5.864H67.928ZM68.936 4.884H63.014V9.84C63.014 12.01 62.776 14.642 60.424 16.448C60.634 16.588 61.026 16.938 61.194 17.162C62.776 15.944 63.49 14.278 63.798 12.612H67.928V15.692C67.928 15.944 67.83 16.028 67.564 16.042C67.34 16.042 66.458 16.056 65.548 16.028C65.716 16.294 65.884 16.756 65.94 17.036C67.13 17.036 67.9 17.008 68.348 16.854C68.796 16.672 68.936 16.35 68.936 15.692V4.884ZM73.57 14.978V11.072H80.514V14.978H73.57ZM80.514 6.27V10.05H73.57V6.27H80.514ZM72.52 5.248V16.91H73.57V16H80.514V16.854H81.606V5.248H72.52ZM92.246 6.494C91.966 5.92 91.294 4.94 90.734 4.226L89.838 4.688C90.37 5.416 91.014 6.438 91.294 7.04L92.246 6.494ZM95.34 6.984L95.116 7.054H85.456V8.062H94.346C92.792 10.176 90.02 12.682 87.472 14.152C87.416 14.138 87.36 14.124 87.29 14.124C86.576 14.124 85.666 14.88 84.742 15.888L85.512 16.84C86.17 15.916 86.828 15.104 87.276 15.104C87.584 15.104 88.018 15.552 88.592 15.916C89.516 16.504 90.664 16.672 92.344 16.672C93.688 16.672 96.082 16.588 97.118 16.518C97.132 16.21 97.3 15.664 97.426 15.398C96.082 15.538 94.01 15.65 92.386 15.65C90.818 15.65 89.684 15.552 88.802 14.992C88.662 14.908 88.55 14.824 88.438 14.74C91.294 12.976 94.402 10.078 96.124 7.516L95.34 6.984ZM108.64 13.914V12.682H109.97V13.914H108.64ZM106.666 13.914V12.682H107.926V13.914H106.666ZM104.72 13.914V12.682H105.952V13.914H104.72ZM110.824 11.87H103.908V17.064H104.72V14.698H105.952V16.952H106.666V14.698H107.926V16.952H108.64V14.698H109.97V16.084C109.97 16.21 109.942 16.238 109.816 16.252C109.704 16.266 109.396 16.266 108.976 16.252C109.088 16.476 109.214 16.826 109.27 17.078C109.816 17.078 110.236 17.064 110.488 16.91C110.768 16.756 110.824 16.532 110.824 16.084V11.87ZM105.28 8.09H109.34V7.264H105.28V8.09ZM109.284 9.476H110.166V10.652H109.284V9.476ZM108.724 11.324H110.726V8.804H108.724V11.324ZM106.89 9.476H107.758V10.652H106.89V9.476ZM108.318 11.324V8.804H106.344V11.324H108.318ZM104.524 9.476H105.322V10.652H104.524V9.476ZM103.964 11.324H105.896V8.804H103.964V11.324ZM107.086 4.366C106.414 5.318 105.098 6.326 103.306 6.97C102.844 6.438 102.116 5.738 101.374 5.164C101.472 4.968 101.542 4.758 101.626 4.576L100.926 4.212C100.366 5.57 99.414 6.858 98.476 7.684C98.602 7.936 98.812 8.496 98.868 8.734C99.064 8.538 99.26 8.342 99.456 8.104V8.734H100.59V10.246H98.812V11.156H100.59V15.202C99.862 15.384 99.176 15.552 98.658 15.65L98.868 16.588C99.988 16.294 101.542 15.874 103.012 15.468L102.956 14.628L101.36 15.02V11.156H102.97V10.246H101.36V8.734H102.578V7.824H99.694C100.142 7.264 100.576 6.606 100.968 5.934C101.682 6.536 102.424 7.264 102.886 7.824L103.306 6.984C103.474 7.166 103.67 7.502 103.782 7.74C105.252 7.138 106.4 6.34 107.268 5.444C108.178 6.354 109.676 7.25 110.852 7.67C110.978 7.432 111.244 7.054 111.426 6.858C110.166 6.48 108.612 5.682 107.772 4.856C107.842 4.772 107.898 4.688 107.968 4.604L107.086 4.366ZM102.214 14.516C102.424 13.872 102.662 12.85 102.886 11.982L102.2 11.73C102.088 12.486 101.836 13.592 101.654 14.278L102.214 14.516ZM99.022 12.08C99.218 12.906 99.414 13.97 99.47 14.67L100.114 14.446C100.044 13.76 99.848 12.71 99.638 11.884L99.022 12.08ZM115.472 17.204L118.58 10.68L115.472 4.156L114.716 4.408L117.726 10.68L114.716 16.952L115.472 17.204ZM113.26 17.204L116.368 10.68L113.26 4.156L112.504 4.408L115.514 10.68L112.504 16.952L113.26 17.204Z" fill="#00E0B8"/>
</svg>
