<svg width="214" height="103" viewBox="0 0 214 103" fill="none" xmlns="http://www.w3.org/2000/svg">
<path opacity="0.8" d="M20.5382 91.658C21.1682 91.658 21.7842 91.644 22.0082 91.588C21.9662 91.448 21.9382 91.182 21.9102 90.986C21.6162 91.042 20.9162 91.056 20.5102 91.056H16.5202C15.9042 91.056 15.7362 90.874 15.7362 90.342V88.816H21.5182V88.214H15.7362V86.422H15.0642V90.328C15.0642 91.322 15.4142 91.658 16.5342 91.658H20.5382ZM14.0282 92.428C13.4402 92.624 12.8382 92.806 12.2642 92.988V89.936H14.0002V89.278H12.2642V86.352H11.6062V89.278H9.4782V89.936H11.6062V93.212C10.7102 93.478 9.8842 93.73 9.2542 93.912L9.4922 94.57C10.1082 94.374 10.8362 94.136 11.6062 93.898V98.126C11.6062 98.336 11.5222 98.392 11.3402 98.392C11.1722 98.406 10.5702 98.406 9.8842 98.392C9.9822 98.574 10.0942 98.854 10.1362 99.022C11.0322 99.022 11.5362 99.008 11.8442 98.896C12.1382 98.784 12.2642 98.588 12.2642 98.112V93.674L14.1262 93.072L14.0282 92.428ZM20.8182 93.66V95.368H15.6662V93.66H20.8182ZM15.6662 97.748V95.956H20.8182V97.748H15.6662ZM15.0222 99.022H15.6662V98.35H20.8182V98.952H21.4762V93.058H15.0222V99.022ZM33.9502 90.328H28.6722V89.572H33.9502V90.328ZM33.9502 91.56H28.6722V90.79H33.9502V91.56ZM33.9502 92.806H28.6722V92.022H33.9502V92.806ZM28.0422 89.096V93.282H34.6082V89.096H31.0802C31.2342 88.844 31.3742 88.55 31.5002 88.256H35.7142V87.696H33.2502C33.5022 87.346 33.7682 86.954 34.0202 86.562L33.3762 86.366C33.1942 86.744 32.8442 87.304 32.5642 87.696H29.8902L30.2262 87.556C30.1142 87.206 29.7642 86.688 29.4422 86.352L28.8962 86.562C29.1762 86.898 29.4842 87.346 29.6102 87.696H27.1042V88.256H30.8422C30.7302 88.536 30.5902 88.83 30.4642 89.096H28.0422ZM25.4802 87.724C25.3402 87.36 25.0462 86.786 24.8362 86.338L24.2762 86.506C24.4722 86.968 24.7382 87.57 24.8922 87.948L25.4802 87.724ZM25.9002 96.726C26.6982 97.188 27.6362 97.902 28.0562 98.42L28.5462 97.958C28.0982 97.44 27.1462 96.754 26.3482 96.32L25.9002 96.726ZM33.0402 94.668H32.3962V95.578H23.6462V96.152H32.3962V98.126C32.3962 98.322 32.3402 98.378 32.0882 98.378C31.8642 98.392 31.0662 98.406 30.0582 98.378C30.1562 98.56 30.2542 98.784 30.2962 98.966C31.5002 98.966 32.2002 98.966 32.5782 98.854C32.9562 98.742 33.0402 98.56 33.0402 98.126V96.152H35.8402V95.578H33.0402V94.668ZM26.3902 90.16L26.2922 90.202H25.0882C25.4802 89.572 25.9282 88.788 26.3202 88.102H23.5342V88.676H25.3402C24.9482 89.404 24.4722 90.188 24.0942 90.762H25.9842C25.6902 91.56 25.2422 92.428 24.7382 93.002C24.3602 93.268 23.9682 93.674 23.5762 94.122L23.9962 94.64C24.5422 93.898 25.0882 93.268 25.4522 93.268C25.7322 93.268 26.1382 93.618 26.6422 93.926C27.5522 94.43 28.8122 94.514 30.4362 94.514C31.8782 94.514 34.6082 94.444 35.9382 94.36C35.9522 94.192 36.0502 93.87 36.1342 93.702C34.6502 93.842 32.3542 93.94 30.4502 93.94C28.8962 93.94 27.6782 93.884 26.8242 93.422C26.2502 93.086 25.9562 92.806 25.6342 92.736C26.0962 92.05 26.5022 91.14 26.7822 90.328L26.3902 90.16ZM43.1902 91.224V88.998H46.8862C46.1162 89.796 45.2622 90.538 44.3522 91.224H43.1902ZM49.9802 91.868V91.224H45.4162C46.8722 90.034 48.2022 88.676 49.3082 87.206L48.7062 86.87C48.1882 87.584 47.5862 88.256 46.9562 88.914V88.368H43.2182V86.338H42.5602V88.368H38.7802V88.998H42.5602V91.224H37.5902V91.868H43.4702C41.6082 93.17 39.5362 94.248 37.3802 95.074C37.5342 95.214 37.7582 95.494 37.8702 95.648C39.0882 95.144 40.2922 94.57 41.4402 93.912V97.426C41.4402 98.476 41.9162 98.7 43.5962 98.7H47.9642C49.5042 98.7 49.7702 98.238 49.9242 96.306C49.7142 96.264 49.4482 96.166 49.2662 96.04C49.1542 97.748 48.9862 98.07 47.9642 98.07H43.5402C42.3502 98.07 42.1262 97.944 42.1262 97.412V95.13H48.5522V94.5H42.1262V93.52C42.9802 93.002 43.7922 92.456 44.5902 91.868H49.9802ZM55.5522 94.248V97.048H52.6262V94.248H55.5522ZM55.4122 89.068V91.49H52.6262V89.068H55.4122ZM52.6262 92.106H56.0562V88.452H53.8022C54.0822 87.864 54.3622 87.122 54.6002 86.492L53.8862 86.324C53.7322 86.94 53.4242 87.822 53.1582 88.452H51.9822V98.63H52.6262V97.65H56.1682V93.632H52.6262V92.106ZM64.0782 87.752V87.122H56.7002V87.752H60.0322V89.754H57.2602V96.964H57.8902V90.384H60.0322V98.994H60.6762V90.384H62.9862V96.082C62.9862 96.208 62.9442 96.264 62.7902 96.264C62.6362 96.278 62.1462 96.278 61.5162 96.264C61.6002 96.446 61.7122 96.712 61.7402 96.866C62.5242 96.866 62.9862 96.866 63.2662 96.768C63.5742 96.656 63.6302 96.446 63.6302 96.082V89.754H60.6762V87.752H64.0782ZM71.7782 90.16C72.2402 90.16 72.6742 89.824 72.6742 89.264C72.6742 88.69 72.2402 88.368 71.7782 88.368C71.3162 88.368 70.8822 88.69 70.8822 89.264C70.8822 89.824 71.3162 90.16 71.7782 90.16ZM71.7782 97.104C72.2402 97.104 72.6742 96.782 72.6742 96.222C72.6742 95.648 72.2402 95.326 71.7782 95.326C71.3162 95.326 70.8822 95.648 70.8822 96.222C70.8822 96.782 71.3162 97.104 71.7782 97.104ZM82.5302 91.798C81.9422 91.322 80.7662 90.692 79.8142 90.3L79.4642 90.818C80.4162 91.21 81.5782 91.868 82.1522 92.372L82.5302 91.798ZM80.3322 98.84C81.2002 97.58 82.2922 95.746 83.0762 94.262L82.6002 93.814C81.7462 95.382 80.5842 97.3 79.7862 98.378L80.3322 98.84ZM80.0802 86.996C81.0742 87.402 82.2922 88.074 82.8802 88.578L83.2582 88.004C82.6562 87.514 81.4522 86.856 80.4442 86.478L80.0802 86.996ZM88.1022 97.79V93.058H91.6302V92.414H88.1022V88.158H91.8402V87.514H84.0142V88.158H87.4302V92.414H84.2662V93.058H87.4302V97.79H83.4262V98.434H92.0082V97.79H88.1022ZM94.5282 88.312H105.042V89.964H105.714V87.71H100.576C100.38 87.29 100.072 86.702 99.7782 86.268L99.1062 86.464C99.3582 86.828 99.6102 87.318 99.7922 87.71H93.8702V89.964H94.5282V88.312ZM104.314 94.584C103.698 95.06 102.648 95.746 101.808 96.194C101.22 95.648 100.744 95.004 100.394 94.262H105.658V93.66H95.7182C95.7322 93.352 95.7322 93.058 95.7322 92.792V92.316H103.782V91.728H95.7322V90.426H104.622V89.81H95.0602V92.778C95.0602 94.584 94.8642 96.95 93.3522 98.686C93.5202 98.756 93.7862 98.952 93.8982 99.092C95.0882 97.72 95.5222 95.9 95.6762 94.262H97.1322V97.454C97.1322 98.028 96.6982 98.308 96.4602 98.42C96.5722 98.588 96.7402 98.882 96.7822 99.064C97.0342 98.896 97.4542 98.784 101.29 97.86C101.276 97.72 101.276 97.468 101.29 97.3L97.8042 98.042V94.262H99.7362C100.772 96.656 102.9 98.224 105.798 98.84C105.896 98.672 106.064 98.406 106.218 98.266C104.636 97.986 103.278 97.384 102.214 96.558C103.054 96.138 104.076 95.55 104.832 94.976L104.314 94.584ZM119.91 91.63V91H112.63C112.882 90.51 113.12 89.992 113.316 89.474L112.812 89.334C113.33 89.18 113.82 88.998 114.31 88.802C115.85 89.376 117.236 89.978 118.202 90.496L118.678 89.964C117.768 89.502 116.494 88.984 115.122 88.466C116.312 87.934 117.39 87.36 118.272 86.688L117.726 86.338C116.816 87.024 115.64 87.64 114.31 88.172C112.756 87.612 111.09 87.08 109.62 86.674L109.172 87.108C110.516 87.472 112.028 87.962 113.484 88.494C111.832 89.082 110.026 89.558 108.318 89.88C108.458 90.006 108.682 90.286 108.78 90.454C110.012 90.174 111.314 89.824 112.602 89.404C112.392 89.95 112.14 90.482 111.86 91H107.646V91.63H111.482C110.474 93.198 109.074 94.598 107.38 95.55C107.52 95.676 107.702 95.9 107.814 96.054C108.64 95.578 109.41 95.004 110.082 94.36V98.154H110.754V94.164H113.974V99.022H114.632V94.164H118.146V97.202C118.146 97.384 118.09 97.44 117.852 97.454C117.642 97.468 116.914 97.468 115.962 97.44C116.06 97.622 116.172 97.846 116.214 98.042C117.334 98.042 118.006 98.042 118.356 97.93C118.706 97.804 118.804 97.622 118.804 97.202V93.548H114.632V92.036H113.974V93.548H110.866C111.384 92.946 111.86 92.302 112.266 91.63H119.91ZM140.117 91.63V91H132.837C133.089 90.51 133.327 89.992 133.523 89.474L133.019 89.334C133.537 89.18 134.027 88.998 134.517 88.802C136.057 89.376 137.443 89.978 138.409 90.496L138.885 89.964C137.975 89.502 136.701 88.984 135.329 88.466C136.519 87.934 137.597 87.36 138.479 86.688L137.933 86.338C137.023 87.024 135.847 87.64 134.517 88.172C132.963 87.612 131.297 87.08 129.827 86.674L129.379 87.108C130.723 87.472 132.235 87.962 133.691 88.494C132.039 89.082 130.233 89.558 128.525 89.88C128.665 90.006 128.889 90.286 128.987 90.454C130.219 90.174 131.521 89.824 132.809 89.404C132.599 89.95 132.347 90.482 132.067 91H127.853V91.63H131.689C130.681 93.198 129.281 94.598 127.587 95.55C127.727 95.676 127.909 95.9 128.021 96.054C128.847 95.578 129.617 95.004 130.289 94.36V98.154H130.961V94.164H134.181V99.022H134.839V94.164H138.353V97.202C138.353 97.384 138.297 97.44 138.059 97.454C137.849 97.468 137.121 97.468 136.169 97.44C136.267 97.622 136.379 97.846 136.421 98.042C137.541 98.042 138.213 98.042 138.563 97.93C138.913 97.804 139.011 97.622 139.011 97.202V93.548H134.839V92.036H134.181V93.548H131.073C131.591 92.946 132.067 92.302 132.473 91.63H140.117ZM154.117 91.63V91H146.837C147.089 90.51 147.327 89.992 147.523 89.474L147.019 89.334C147.537 89.18 148.027 88.998 148.517 88.802C150.057 89.376 151.443 89.978 152.409 90.496L152.885 89.964C151.975 89.502 150.701 88.984 149.329 88.466C150.519 87.934 151.597 87.36 152.479 86.688L151.933 86.338C151.023 87.024 149.847 87.64 148.517 88.172C146.963 87.612 145.297 87.08 143.827 86.674L143.379 87.108C144.723 87.472 146.235 87.962 147.691 88.494C146.039 89.082 144.233 89.558 142.525 89.88C142.665 90.006 142.889 90.286 142.987 90.454C144.219 90.174 145.521 89.824 146.809 89.404C146.599 89.95 146.347 90.482 146.067 91H141.853V91.63H145.689C144.681 93.198 143.281 94.598 141.587 95.55C141.727 95.676 141.909 95.9 142.021 96.054C142.847 95.578 143.617 95.004 144.289 94.36V98.154H144.961V94.164H148.181V99.022H148.839V94.164H152.353V97.202C152.353 97.384 152.297 97.44 152.059 97.454C151.849 97.468 151.121 97.468 150.169 97.44C150.267 97.622 150.379 97.846 150.421 98.042C151.541 98.042 152.213 98.042 152.563 97.93C152.913 97.804 153.011 97.622 153.011 97.202V93.548H148.839V92.036H148.181V93.548H145.073C145.591 92.946 146.067 92.302 146.473 91.63H154.117Z" fill="white"/>
<path d="M10.3802 56.5538L13.8202 49.3858L12.9562 49.0978L9.40419 56.5538L12.9562 64.0098L13.8202 63.7218L10.3802 56.5538ZM12.9082 56.5538L16.3482 49.3858L15.4842 49.0978L11.9322 56.5538L15.4842 64.0098L16.3482 63.7218L12.9082 56.5538ZM26.6943 53.2738C26.6943 55.0178 26.5503 57.1938 25.2543 59.2578C24.5503 58.6818 23.8303 58.1058 23.1423 57.5938C23.4623 56.3938 23.7983 54.9378 24.0863 53.4498L26.6943 53.2738ZM27.8623 51.3698H26.6943V52.1538L24.3103 52.2818C24.4703 51.2898 24.6303 50.2978 24.7423 49.3858L23.5103 49.3058C23.4303 50.2338 23.2703 51.2898 23.1103 52.3458L21.0943 52.4418L21.2383 53.6258L22.8863 53.5138C22.5503 55.1938 22.1823 56.7938 21.8143 57.9458C22.6943 58.6018 23.6863 59.4018 24.5823 60.2018C23.7823 61.1938 22.6623 62.1378 21.1263 62.9698C21.4143 63.1778 21.7823 63.5778 21.9583 63.8658C23.5103 63.0178 24.6463 62.0418 25.4943 61.0178C26.2143 61.7058 26.8543 62.3618 27.3023 62.8898L28.1823 61.9618C27.6863 61.4178 26.9823 60.7458 26.1983 60.0418C27.6863 57.7218 27.8623 55.2418 27.8623 53.2898V53.2098L28.5343 53.1618L28.5503 52.0578L27.8623 52.0898V51.3698ZM30.2783 61.1298V52.1058H33.7343V61.1298H30.2783ZM29.1423 50.9698V63.4498H30.2783V62.2658H33.7343V63.2258H34.9023V50.9698H29.1423ZM40.2943 55.3058V53.6578H43.8943V55.3058H40.2943ZM40.2943 51.0498H43.8943V52.6818H40.2943V51.0498ZM48.7583 52.6818H45.1263V51.0498H48.7583V52.6818ZM48.7583 55.3058H45.1263V53.6578H48.7583V55.3058ZM51.4783 58.7778V57.6738H45.1263V56.3298H50.0223V50.0098H39.0943V56.3298H43.8943V57.6738H37.5423V58.7778H42.9023C41.4943 60.2978 39.2223 61.6738 37.1423 62.3458C37.3983 62.5858 37.7823 63.0498 37.9423 63.3218C40.0223 62.5378 42.3583 61.0178 43.8943 59.2738V63.8658H45.1263V59.1938C46.6943 60.8898 49.0463 62.4418 51.0783 63.2578C51.2543 62.9698 51.6223 62.5058 51.8943 62.2658C49.8783 61.5938 47.5903 60.2498 46.1183 58.7778H51.4783ZM65.5583 51.8018C65.4143 53.7218 65.2383 54.5218 64.9663 54.7778C64.8223 54.9058 64.6783 54.9218 64.4063 54.9218C64.1023 54.9218 63.3183 54.9058 62.5183 54.8418C62.7103 55.1298 62.8543 55.5938 62.8863 55.9298C63.7023 55.9778 64.4863 55.9778 64.9023 55.9458C65.3663 55.9138 65.6703 55.8338 65.9583 55.5298C66.3743 55.0818 66.5823 53.9778 66.7743 51.2098C66.8063 51.0338 66.8223 50.6978 66.8223 50.6978H61.3023C61.3983 50.2818 61.4623 49.8498 61.5263 49.4018L60.3103 49.2418C59.9743 52.0258 59.1423 54.2338 57.4463 55.5618C57.7343 55.7378 58.2463 56.1218 58.4543 56.3138C59.6703 55.2258 60.5183 53.7218 61.0463 51.8018H65.5583ZM57.6063 51.1298C56.9663 50.5378 55.7023 49.8178 54.6783 49.3858L54.0223 50.2338C55.0463 50.7138 56.2943 51.4978 56.9023 52.0738L57.6063 51.1298ZM56.7743 55.2738C56.1343 54.7458 54.8383 54.0578 53.8143 53.6578L53.1743 54.5218C54.2143 54.9858 55.4783 55.7218 56.1183 56.2658L56.7743 55.2738ZM56.5343 57.7378C55.6543 59.5458 54.5023 61.6258 53.6863 62.8578L54.6943 63.6258C55.5743 62.1538 56.6303 60.1698 57.4143 58.4898L56.5343 57.7378ZM65.2383 57.7538C64.6623 58.8418 63.8303 59.7698 62.8223 60.5058C61.8303 59.7218 61.0463 58.7938 60.4863 57.7538H65.2383ZM66.0863 56.6338L65.8623 56.6818H58.3103V57.7538H60.1663L59.3823 58.0258C60.0063 59.2258 60.8383 60.2658 61.8463 61.1458C60.4543 61.9458 58.8543 62.4898 57.2063 62.7778C57.4303 63.0338 57.7023 63.5298 57.7983 63.8338C59.5903 63.4498 61.3023 62.8258 62.7903 61.8978C64.0383 62.7778 65.4943 63.4338 67.1103 63.8498C67.2703 63.5298 67.6063 63.0338 67.8783 62.7938C66.3583 62.4738 64.9823 61.9298 63.7983 61.1938C65.1423 60.1218 66.2143 58.7458 66.8543 56.9698L66.0863 56.6338ZM80.4543 56.9698H73.7823V55.3538H80.4543V56.9698ZM73.7343 59.6738C73.7663 59.2578 73.7823 58.8738 73.7823 58.4898V58.0098H80.4543V59.6738H73.7343ZM83.4943 52.4258V51.3058H75.3343C75.5743 50.7298 75.7823 50.1218 75.9583 49.5298L74.7743 49.2418C74.5823 49.9298 74.3423 50.6178 74.0703 51.3058H69.5743V52.4258H73.5583C72.5663 54.4898 71.1263 56.3778 69.2543 57.6418C69.4783 57.8818 69.8463 58.3138 70.0063 58.5698C70.9823 57.8818 71.8463 57.0338 72.5983 56.1218V58.4578C72.5983 59.9778 72.4543 61.7378 71.1263 63.0178C71.3823 63.1938 71.8143 63.6898 71.9583 63.9458C72.9023 63.0658 73.3823 61.8658 73.5903 60.6978H80.4543V62.3618C80.4543 62.6018 80.3583 62.6818 80.0863 62.6978C79.7983 62.6978 78.8383 62.7138 77.7663 62.6658C77.9423 63.0018 78.1183 63.4818 78.1663 63.8338C79.5263 63.8338 80.4223 63.8178 80.9503 63.6258C81.4623 63.4338 81.6223 63.0818 81.6223 62.3618V54.2818H73.8783C74.2303 53.6898 74.5503 53.0498 74.8543 52.4258H83.4943ZM88.7743 49.3058C87.8623 51.7378 86.3903 54.1218 84.8223 55.6578C85.0463 55.9298 85.3663 56.5378 85.4943 56.8258C86.0383 56.2338 86.5983 55.5778 87.1103 54.8418V63.8178H88.2463V53.0658C88.8703 51.9778 89.4303 50.8258 89.8943 49.6418L88.7743 49.3058ZM91.6863 56.0578C91.2543 57.9458 90.5023 59.8498 89.4943 61.0658C89.7823 61.2258 90.2943 61.5298 90.5183 61.7218C91.4943 60.3938 92.3423 58.3778 92.8543 56.2818L91.6863 56.0578ZM98.4543 53.4178C98.3263 54.2338 98.1823 55.0818 98.0863 55.6578L99.0783 55.8498C99.2863 55.0018 99.5743 53.6258 99.7823 52.4578L98.9663 52.2658L98.7743 52.3138H92.2943C92.6143 51.4338 92.9023 50.5058 93.1423 49.5778L91.9743 49.3218C91.4463 51.6578 90.5183 53.9458 89.3503 55.4178C89.6063 55.5938 90.1023 55.9938 90.2943 56.1698C90.8703 55.4178 91.3983 54.4738 91.8463 53.4178H94.2783V62.4098C94.2783 62.6178 94.2143 62.6818 94.0063 62.6818C93.7983 62.6818 93.1103 62.6978 92.3583 62.6658C92.5183 63.0018 92.7103 63.5298 92.7743 63.8658C93.7823 63.8658 94.4543 63.8338 94.8863 63.6258C95.3023 63.4338 95.4463 63.0818 95.4463 62.4098V53.4178H98.4543ZM96.6143 56.2818C97.4623 57.9618 98.2623 60.2018 98.5183 61.6578L99.6543 61.2738C99.3823 59.8178 98.5663 57.6258 97.6543 55.9298L96.6143 56.2818ZM108.048 64.0098L111.6 56.5538L108.048 49.0978L107.184 49.3858L110.624 56.5538L107.184 63.7218L108.048 64.0098ZM105.52 64.0098L109.072 56.5538L105.52 49.0978L104.656 49.3858L108.096 56.5538L104.656 63.7218L105.52 64.0098ZM126.048 59.4338C125.328 60.5058 124.272 61.7058 123.328 62.5058C123.616 62.6818 124.096 63.0018 124.336 63.1778C125.232 62.3138 126.336 60.9698 127.152 59.8178L126.048 59.4338ZM126 56.2178H132.64V57.7058H126V56.2178ZM126 53.8338H132.64V55.3218H126V53.8338ZM133.84 58.6498V52.8898H129.232C129.456 52.4898 129.696 52.0578 129.936 51.6258L128.56 51.4178C128.416 51.8338 128.192 52.4098 127.952 52.8898H124.832V58.6498H128.736V62.5378C128.736 62.7298 128.672 62.7938 128.416 62.8098C128.176 62.8098 127.36 62.8098 126.432 62.7938C126.576 63.0978 126.752 63.5298 126.8 63.8498C128.016 63.8498 128.8 63.8498 129.28 63.6578C129.76 63.4818 129.888 63.1778 129.888 62.5538V58.6498H133.84ZM131.232 59.9618C132.192 61.0018 133.456 62.4098 134.048 63.2738L135.04 62.6338C134.4 61.8178 133.12 60.4578 132.176 59.4658L131.232 59.9618ZM135.104 50.1378H122.224V54.6498C122.224 57.0818 122.08 60.5058 120.688 62.9378C120.992 63.0498 121.488 63.3378 121.712 63.5298C123.184 60.9858 123.392 57.2098 123.392 54.6498V51.2258H135.104V50.1378ZM149.024 52.3458H144.016V50.8578H149.024V52.3458ZM149.024 54.7778H144.016V53.2578H149.024V54.7778ZM150.208 49.8978H142.864V55.7378H150.208V49.8978ZM140.368 51.8658V58.5378H138.496V51.8658H140.368ZM141.472 50.7618H137.392V61.1618H138.496V59.6418H141.472V50.7618ZM143.536 62.1858V60.4898H149.568V62.1858H143.536ZM149.568 57.8818V59.4818H143.536V57.8818H149.568ZM142.368 56.8578V63.8498H143.536V63.2258H149.568V63.7698H150.768V56.8578H142.368ZM152.256 65.4978H153.328L158.112 49.9458H157.056L152.256 65.4978ZM168.57 52.6498H169.722V51.3538H173.322V50.2818H169.722V49.2578H168.57V50.2818H166.634V51.3538H168.57V52.6498ZM162.922 52.6338H164.09V51.3538H166.09V50.2818H164.09V49.2578H162.922V50.2818H159.386V51.3538H162.922V52.6338ZM162.218 55.9618H170.554V57.2738H162.218V55.9618ZM162.218 53.8018H170.554V55.0978H162.218V53.8018ZM173.402 60.5058V59.4338H166.682C166.794 59.0498 166.874 58.6178 166.954 58.1698H171.722V52.9058H161.082V58.1698H165.786C165.706 58.6178 165.61 59.0498 165.482 59.4338H159.306V60.5058H164.938C164.074 61.7218 162.41 62.4578 158.986 62.8258C159.178 63.0818 159.45 63.5778 159.53 63.8818C163.562 63.3218 165.386 62.2818 166.282 60.5058H173.402ZM166.698 61.4018C168.794 62.0898 171.594 63.1938 173.034 63.8658L173.61 62.9218C172.122 62.2658 169.306 61.2258 167.258 60.5858L166.698 61.4018ZM183.594 51.6098C183.37 50.9378 182.826 49.9138 182.346 49.1618L181.114 49.5138C181.594 50.2978 182.106 51.3698 182.298 52.0258L183.594 51.6098ZM185.69 53.2258C184.89 55.3858 183.818 57.1458 182.394 58.5858C180.89 57.0818 179.738 55.2578 178.906 53.2258H185.69ZM189.546 53.2258V52.0578H175.21V53.2258H177.674C178.602 55.6418 179.866 57.7218 181.514 59.4178C179.77 60.8898 177.626 61.9778 174.986 62.7298C175.226 63.0018 175.578 63.5458 175.722 63.8338C178.378 62.9858 180.586 61.8338 182.378 60.2658C184.154 61.8658 186.33 63.0338 188.938 63.7698C189.13 63.4338 189.466 62.9378 189.754 62.6658C187.21 62.0418 185.05 60.9058 183.29 59.4178C184.89 57.7698 186.122 55.7538 187.034 53.2258H189.546ZM200.666 52.5698H201.834V51.4498H205.354V50.4098H201.834V49.2578H200.666V50.4098H198.634V51.4498H200.666V52.5698ZM194.858 52.5698H196.026V51.4498H198.042V50.4098H196.026V49.2578H194.858V50.4098H191.354V51.4498H194.858V52.5698ZM197.626 53.9458V55.3058H193.178V53.9458H197.626ZM193.178 56.2178H198.73V53.0338H192.122V56.4898C192.122 58.4258 191.994 61.1298 190.922 63.0818C191.162 63.1938 191.658 63.4658 191.834 63.6418C192.986 61.5938 193.178 58.5858 193.178 56.5058V56.2178ZM198.458 57.9138V57.0658H193.834V57.9138H198.458ZM193.962 60.2978C193.706 61.1778 193.306 62.0418 192.762 62.6818C192.986 62.7938 193.37 63.0338 193.562 63.1618C194.074 62.4898 194.554 61.4658 194.842 60.5058L193.962 60.2978ZM199.066 59.7218V58.8578H193.194V59.7218H195.642V63.7698H196.682V59.7218H199.066ZM197.274 60.6018C197.786 61.3378 198.25 62.3298 198.426 62.9858L199.29 62.5858C199.082 61.9458 198.602 60.9698 198.074 60.2658L197.274 60.6018ZM205.658 55.1298H203.962V52.5858H202.81V55.1298H199.082V56.1858H202.81V62.4418C202.81 62.6818 202.73 62.7458 202.49 62.7618C202.266 62.7618 201.466 62.7778 200.586 62.7458C200.746 63.0818 200.906 63.5618 200.938 63.8658C202.138 63.8658 202.89 63.8498 203.354 63.6578C203.802 63.4658 203.962 63.1458 203.962 62.4418V56.1858H205.658V55.1298ZM201.914 60.3618C201.69 59.4818 201.13 58.2018 200.49 57.2258L199.594 57.5458C200.202 58.5218 200.794 59.8498 200.954 60.7298L201.914 60.3618Z" fill="#00E0B8"/>
<path d="M210.8 33.2754L8.98755 33.2754V34.0521L210.8 34.0521V33.2754Z" fill="white"/>
<path d="M213.855 30.5435H200.765V36.6521H213.855V30.5435Z" fill="#00E0B8"/>
<path d="M16.1822 12.7C15.9662 12.484 15.6542 12.256 15.3182 12.04C15.5822 11.788 15.8102 11.536 16.0142 11.272L15.3902 11.068C15.2222 11.296 15.0062 11.512 14.7902 11.704C14.4782 11.536 14.1662 11.356 13.8662 11.224L13.4222 11.62C13.6982 11.752 13.9982 11.908 14.2862 12.088C13.9262 12.34 13.5422 12.568 13.1462 12.748C13.3022 12.868 13.5542 13.096 13.6382 13.216C14.0342 13 14.4422 12.748 14.8382 12.436C15.1862 12.688 15.4982 12.916 15.7022 13.132L16.1822 12.7ZM16.1462 10.552C15.9302 10.384 15.6422 10.192 15.3182 9.988C15.5702 9.748 15.7862 9.508 15.9782 9.256L15.3542 9.088C15.1982 9.28 15.0062 9.484 14.7902 9.676C14.4782 9.508 14.1782 9.352 13.8902 9.232L13.4582 9.628C13.7222 9.748 14.0222 9.892 14.2982 10.06C13.9622 10.288 13.6022 10.504 13.2302 10.672C13.3862 10.78 13.6382 10.996 13.7342 11.104C14.1062 10.912 14.4782 10.66 14.8502 10.384C15.1742 10.588 15.4862 10.816 15.6782 10.996L16.1462 10.552ZM10.5662 13.912H19.0022V15.4H19.8782V13.228H18.9422C19.0382 12.16 19.1462 10.612 19.2062 9.424H16.4342V10.036H18.3422L18.3062 10.684H16.4942V11.296H18.2702L18.2102 11.944H16.4222V12.556H18.1622C18.1382 12.796 18.1142 13.012 18.0902 13.228H11.5142L11.4662 12.556H13.1342V11.944H11.4302L11.3822 11.296H13.0862V10.684H11.3462L11.2982 10.096C11.9222 9.976 12.6302 9.82 13.1582 9.628L12.7502 9.076C12.1622 9.256 11.1302 9.544 10.4342 9.664L10.6742 13.228H9.7142V15.4H10.5662V13.912ZM20.1182 16.828H15.3182V16.612C16.2662 16.228 17.2862 15.7 18.0302 15.124L17.4902 14.68L17.3102 14.728H11.6702V15.4H16.3622C15.7862 15.748 15.0902 16.084 14.4542 16.312V16.828H9.4502V17.584H14.4542V18.94C14.4542 19.108 14.4062 19.144 14.2022 19.156C14.0222 19.156 13.3502 19.156 12.6062 19.132C12.7262 19.36 12.8702 19.66 12.9182 19.888C13.8662 19.888 14.4662 19.9 14.8502 19.768C15.2222 19.636 15.3182 19.432 15.3182 18.964V17.584H20.1182V16.828ZM29.6462 11.392H23.9702V10.144H29.6462V11.392ZM30.5702 9.424H23.0822V12.112H30.5702V9.424ZM23.4662 16.408H30.1262V17.272H23.4662V16.408ZM23.4662 14.932H30.1262V15.772H23.4662V14.932ZM23.4662 13.456H30.1262V14.296H23.4662V13.456ZM31.0382 17.932V12.796H22.5782V17.932H24.8102C24.0542 18.424 22.5182 18.976 21.2822 19.264C21.4982 19.444 21.7862 19.744 21.9422 19.924C23.1662 19.612 24.7142 19.036 25.6742 18.448L24.8822 17.932H31.0382ZM27.7502 18.532C29.0102 18.904 30.6182 19.516 31.5182 19.936L32.2862 19.288C31.3502 18.904 29.7542 18.316 28.5182 17.956L27.7502 18.532ZM35.5938 21.148H36.3978L39.9858 9.484H39.1938L35.5938 21.148Z" fill="#00E0B8"/>
<path d="M57.8494 8.664H49.3214V7.144H57.8494V8.664ZM57.8494 11.08H49.3214V9.544H57.8494V11.08ZM59.0494 6.2H48.1534V12.04H59.0494V6.2ZM59.8814 13.928H54.6654C54.4414 13.432 54.0734 12.696 53.7534 12.136L52.5534 12.456C52.7934 12.888 53.0494 13.464 53.2574 13.928H47.3694V15.016H59.8814V13.928ZM51.8974 18.152C51.6574 17.352 51.1774 16.152 50.7134 15.224L49.5934 15.528C49.9934 16.472 50.4894 17.736 50.6974 18.52L51.8974 18.152ZM56.1054 18.632C56.6974 17.736 57.3694 16.616 57.9134 15.624L56.6494 15.304C56.2174 16.296 55.4814 17.688 54.8414 18.632H46.4094V19.752H60.8574V18.632H56.1054ZM68.1054 13.688L67.9774 12.616L66.1854 13.08V10.776C67.1294 9.768 68.1534 8.376 68.8574 7.176L68.0734 6.616L67.8334 6.68H62.7774V7.784H67.1134C66.5374 8.744 65.7214 9.864 65.0174 10.616V13.368C63.9934 13.64 63.0494 13.864 62.3294 14.008L62.5374 15.208C63.2734 15.016 64.1214 14.792 65.0174 14.536V18.872C65.0174 19.08 64.9374 19.144 64.7134 19.16C64.5214 19.16 63.8174 19.16 63.0334 19.128C63.1934 19.448 63.3854 19.912 63.4654 20.216C64.5054 20.216 65.1614 20.2 65.5934 20.008C66.0414 19.832 66.1854 19.528 66.1854 18.888V14.216L68.1054 13.688ZM74.4734 9.656C74.1214 11.736 73.5774 13.496 72.7454 14.936C71.9454 13.4 71.3694 11.624 71.0014 9.656H74.4734ZM76.9374 9.656V8.536H71.3534C71.7054 7.704 72.0094 6.808 72.2334 5.896L71.0814 5.64C70.4894 7.976 69.4814 10.216 68.1374 11.656C68.3774 11.912 68.7614 12.488 68.8894 12.744C69.3534 12.232 69.7694 11.64 70.1854 10.952C70.6174 12.872 71.2254 14.584 72.0414 16.024C70.9854 17.4 69.6094 18.44 67.7534 19.208C67.9934 19.464 68.3294 19.992 68.4574 20.28C70.2334 19.464 71.6094 18.408 72.6974 17.096C73.6254 18.424 74.7934 19.496 76.2654 20.2C76.4574 19.896 76.8094 19.432 77.0814 19.208C75.5614 18.552 74.3774 17.464 73.4174 16.072C74.5054 14.376 75.2094 12.264 75.7054 9.656H76.9374Z" fill="white"/>
</svg>
