<svg width="207" height="102" viewBox="0 0 207 102" fill="none" xmlns="http://www.w3.org/2000/svg">
<path opacity="0.8" d="M5.544 47.764V48.904H6.444V47.764H5.544ZM5.532 48.748C4.44 49.672 2.304 50.44 0.456 50.776C0.624 50.944 0.852 51.244 0.96 51.448C2.832 51.052 5.028 50.152 6.24 49.084L5.532 48.748ZM6.54 48.712L5.796 48.892C6.66 51.1 8.388 52.456 11.016 52.996C11.136 52.768 11.352 52.432 11.532 52.264C9.024 51.844 7.296 50.62 6.54 48.712ZM10.092 49.324C9.468 49.78 8.4 50.38 7.62 50.74L8.184 51.196C8.976 50.848 9.984 50.332 10.752 49.792L10.092 49.324ZM2.112 52.12L2.268 52.876C3.54 52.672 5.328 52.384 7.032 52.108L6.996 51.376C5.184 51.664 3.324 51.952 2.112 52.12ZM0.66 48.484V49.216H11.34V48.484H0.66ZM7.308 42.388V46.444H8.124V42.388H7.308ZM10.044 42.04V47.044C10.044 47.188 10.008 47.236 9.828 47.248C9.648 47.26 9.06 47.26 8.4 47.236C8.52 47.452 8.652 47.764 8.688 47.992C9.54 47.992 10.092 47.98 10.44 47.86C10.776 47.728 10.884 47.512 10.884 47.056V42.04H10.044ZM3.312 41.92V48.016H4.104V41.92H3.312ZM5.568 45.448V46.924C5.568 47.02 5.532 47.044 5.424 47.056C5.328 47.068 5.016 47.068 4.62 47.056C4.716 47.224 4.836 47.44 4.872 47.632C5.4 47.632 5.76 47.632 6.012 47.524C6.264 47.416 6.324 47.248 6.324 46.912V45.448H5.568ZM1.212 45.448V47.704H1.932V46.06H5.916V45.448H1.212ZM0.612 44.152V44.812H6.672V44.152H0.612ZM1.86 42.784L1.596 43.42H6.252V42.784H1.86ZM1.752 41.968C1.536 42.616 1.2 43.3 0.78 43.792C0.96 43.876 1.284 44.032 1.428 44.14C1.812 43.636 2.208 42.856 2.46 42.136L1.752 41.968ZM3.36 50.452V52.432H4.224V50.128L3.816 49.984L3.36 50.452ZM17.844 43.936L17.424 44.8H23.532V43.936H17.844ZM19.344 46.54V47.368H23.256V46.54H19.344ZM19.332 49.18V50.032H23.424V49.18H19.332ZM18.888 44.212V52.96H19.812V44.212H18.888ZM18.3 42.064C17.712 43.828 16.74 45.58 15.648 46.696C15.852 46.84 16.212 47.164 16.344 47.32C17.448 46.084 18.492 44.2 19.176 42.292L18.3 42.064ZM15.42 41.968C14.736 43.792 13.62 45.592 12.42 46.756C12.588 46.972 12.864 47.452 12.948 47.668C14.256 46.324 15.492 44.272 16.284 42.244L15.42 41.968ZM14.136 45.064V52.948H15.048V44.176L15.024 44.164L14.136 45.064ZM29.376 42.292C29.292 43.888 29.292 49.66 24.396 52.156C24.672 52.36 24.972 52.636 25.128 52.864C30.096 50.164 30.276 44.176 30.372 42.292H29.376ZM30.336 42.532L29.472 42.616C29.556 43.72 29.892 50.428 34.98 52.864C35.124 52.612 35.4 52.312 35.664 52.108C30.72 49.84 30.372 43.468 30.336 42.532ZM42.24 41.44H41.748V53.44H42.24V41.44ZM49.848 45.7V46.54H54.336V45.7H49.848ZM49.416 43.144V51.424H50.256V43.444L49.416 43.144ZM48.42 51.208L48.588 52.132C50.148 51.868 52.416 51.496 54.528 51.124L54.48 50.26C52.26 50.62 49.92 51.004 48.42 51.208ZM53.292 41.932C52.44 42.448 50.94 43.012 49.62 43.396C49.74 43.576 49.884 43.888 49.932 44.092C51.336 43.708 52.944 43.168 54.06 42.58L53.292 41.932ZM52.2 46.06V51.1L53.016 50.992V46.06H52.2ZM54.84 42.688V53.008H55.716V43.54H58.68V42.688H54.84ZM58.452 42.688V42.988C58.032 43.948 57.324 45.592 56.652 46.804C57.984 47.848 58.392 48.736 58.392 49.492C58.392 49.924 58.296 50.26 58.02 50.416C57.852 50.512 57.648 50.548 57.444 50.56C57.168 50.572 56.796 50.572 56.412 50.536C56.568 50.8 56.664 51.196 56.676 51.448C57.048 51.472 57.48 51.472 57.816 51.436C58.152 51.4 58.428 51.304 58.656 51.172C59.112 50.872 59.304 50.32 59.292 49.576C59.292 48.724 58.968 47.776 57.636 46.672C58.236 45.592 58.92 44.236 59.448 43.084L58.776 42.652L58.632 42.688H58.452ZM63.132 43.216H68.988V44.104H63.132V43.216ZM62.268 42.616V44.704H69.888V42.616H62.268ZM65.544 41.92V45.652H66.432V41.92H65.544ZM60.648 45.352V46.06H71.352V45.352H60.648ZM63.048 48.532H69.084V49.276H63.048V48.532ZM63.048 49.84H69.084V50.596H63.048V49.84ZM63.048 47.236H69.084V47.968H63.048V47.236ZM62.172 46.648V51.172H69.984V46.648H62.172ZM66.972 51.772C68.28 52.156 69.576 52.624 70.332 52.972L71.364 52.516C70.488 52.156 69.036 51.676 67.716 51.316L66.972 51.772ZM64.2 51.292C63.336 51.724 61.884 52.096 60.636 52.336C60.84 52.492 61.152 52.828 61.296 53.008C62.496 52.708 64.032 52.192 65.004 51.652L64.2 51.292ZM76.44 46.912V47.68H83.532V46.912H76.44ZM77.616 48.532V49.252H82.692V48.532H77.616ZM78.24 47.128C77.724 48.268 76.788 49.3 75.78 49.972C75.96 50.092 76.248 50.368 76.38 50.512C77.376 49.756 78.396 48.604 78.984 47.332L78.24 47.128ZM79.068 48.652C78.432 50.056 77.292 51.292 76.02 52.072C76.2 52.192 76.488 52.48 76.608 52.612C77.868 51.76 79.08 50.416 79.8 48.856L79.068 48.652ZM80.832 48.7C80.376 50.248 79.5 51.616 78.396 52.48C78.588 52.6 78.9 52.84 79.032 52.972C80.124 52.024 81.06 50.56 81.588 48.868L80.832 48.7ZM82.308 48.532V48.664C82.176 50.992 82.032 51.868 81.804 52.096C81.708 52.204 81.6 52.216 81.432 52.216C81.24 52.216 80.784 52.216 80.28 52.168C80.4 52.372 80.484 52.708 80.496 52.936C81.012 52.96 81.516 52.96 81.792 52.936C82.092 52.924 82.296 52.84 82.488 52.636C82.788 52.288 82.956 51.352 83.1 48.892C83.112 48.772 83.124 48.532 83.124 48.532H82.308ZM78.06 44.536H81.816V45.484H78.06V44.536ZM78.06 42.964H81.816V43.9H78.06V42.964ZM77.232 42.304V46.144H82.656V42.304H77.232ZM72.324 48.304L72.528 49.192C73.596 48.868 74.976 48.436 76.284 48.028L76.176 47.224C74.76 47.632 73.296 48.064 72.324 48.304ZM72.528 44.344V45.184H76.224V44.344H72.528ZM74.16 41.932V51.868C74.16 52.048 74.088 52.096 73.932 52.096C73.788 52.108 73.284 52.108 72.744 52.084C72.864 52.336 72.984 52.732 73.02 52.96C73.8 52.96 74.292 52.936 74.604 52.78C74.916 52.636 75.024 52.384 75.024 51.868V41.932H74.16ZM94.5131 42.748V43.588H101.509V42.748H94.5131ZM99.6131 43.168V51.832C99.6131 52.072 99.5171 52.144 99.2651 52.156C99.0011 52.168 98.1131 52.168 97.1651 52.144C97.2851 52.384 97.4291 52.732 97.4771 52.96C98.7131 52.972 99.4451 52.96 99.8771 52.828C100.297 52.696 100.477 52.456 100.477 51.832V43.168H99.6131ZM95.3291 45.292V46.072H97.5251V48.868H95.3291V49.648H98.3291V45.292H95.3291ZM94.9211 45.292V50.56H95.7131V45.292H94.9211ZM90.9131 42.448V52.972H91.7291V43.264H93.7091V42.448H90.9131ZM93.4931 42.448V42.688C93.2411 43.504 92.7971 44.884 92.3531 45.976C93.2291 46.924 93.4451 47.764 93.4451 48.424C93.4451 48.784 93.3731 49.12 93.1931 49.252C93.0851 49.324 92.9651 49.348 92.8091 49.36C92.6171 49.384 92.3891 49.372 92.1131 49.348C92.2451 49.576 92.3291 49.924 92.3411 50.14C92.6051 50.152 92.9051 50.152 93.1451 50.128C93.3971 50.092 93.6011 50.02 93.7691 49.9C94.1051 49.66 94.2491 49.144 94.2491 48.496C94.2491 47.752 94.0451 46.876 93.1691 45.88C93.5771 44.92 94.0211 43.744 94.3691 42.76L93.7811 42.412L93.6491 42.448H93.4931ZM102.625 48.784V49.588H113.281V48.784H102.625ZM107.461 47.668V52.936H108.373V47.668H107.461ZM107.053 49.096C106.069 50.368 104.137 51.508 102.385 52.048C102.589 52.228 102.853 52.576 102.997 52.804C104.749 52.168 106.705 50.884 107.797 49.432L107.053 49.096ZM108.793 49.12L108.037 49.48C109.129 50.896 111.085 52.12 112.909 52.72C113.041 52.48 113.317 52.132 113.509 51.952C111.685 51.46 109.765 50.368 108.793 49.12ZM106.993 45.796H108.877V47.116H106.993V45.796ZM106.993 43.816H108.877V45.112H106.993V43.816ZM106.213 43.108V47.824H109.669V43.108H106.213ZM107.617 41.92C107.545 42.352 107.377 42.988 107.233 43.408L107.941 43.564C108.121 43.18 108.325 42.604 108.517 42.064L107.617 41.92ZM102.709 44.26C103.309 44.752 104.017 45.448 104.329 45.928L104.749 45.268C104.437 44.812 103.717 44.14 103.105 43.684L102.709 44.26ZM104.893 46.024C105.241 46.708 105.577 47.632 105.673 48.208L106.309 47.956C106.201 47.404 105.853 46.504 105.493 45.832L104.893 46.024ZM105.193 43.672C104.701 44.764 103.825 46.3 103.129 47.236L103.717 47.512C104.413 46.588 105.265 45.136 105.901 43.948L105.193 43.672ZM104.257 42.004C104.017 42.7 103.561 43.684 103.213 44.296L103.813 44.56C104.185 43.96 104.617 43.048 104.977 42.268L104.257 42.004ZM102.601 47.164L102.697 47.944C103.573 47.8 104.641 47.656 105.745 47.476L105.733 46.828C104.545 46.96 103.417 47.092 102.601 47.164ZM109.597 44.164C110.233 44.716 110.953 45.496 111.265 46.024L111.733 45.4C111.409 44.896 110.677 44.14 110.053 43.612L109.597 44.164ZM111.829 45.928C112.237 46.684 112.633 47.668 112.753 48.304L113.425 48.028C113.293 47.416 112.873 46.432 112.453 45.7L111.829 45.928ZM112.129 43.66C111.637 44.764 110.725 46.312 110.017 47.26L110.605 47.536C111.325 46.6 112.201 45.136 112.837 43.948L112.129 43.66ZM111.253 41.968C111.013 42.664 110.545 43.648 110.185 44.26L110.785 44.524C111.169 43.924 111.613 43.024 111.985 42.232L111.253 41.968ZM109.645 47.164L109.753 47.944C110.629 47.824 111.721 47.68 112.825 47.536L112.813 46.876C111.625 46.984 110.485 47.092 109.645 47.164Z" fill="white"/>
<path d="M202.929 25.1299L0 25.1299L0 26.0199L202.929 26.0199V25.1299Z" fill="white"/>
<path d="M207 22L190 22V29H207V22Z" fill="#00E0B8"/>
<path d="M2.044 11.142C2.072 10.47 2.1 9.7 2.114 8.958H4.858V4.94H0.91V5.878H3.892V8.02H1.204C1.204 9.308 1.148 11.016 1.05 12.08H3.878C3.724 14.642 3.584 15.65 3.332 15.902C3.206 16.042 3.066 16.07 2.842 16.07C2.576 16.07 1.918 16.056 1.218 15.986C1.414 16.28 1.526 16.686 1.554 17.008C2.226 17.05 2.898 17.05 3.248 17.022C3.654 16.98 3.906 16.882 4.144 16.602C4.522 16.168 4.704 14.908 4.872 11.604C4.886 11.464 4.886 11.142 4.886 11.142H2.044ZM12.082 11.996C11.662 12.444 10.962 13.074 10.374 13.55C9.87 12.948 9.464 12.29 9.128 11.618H13.23V10.708H7.378V9.56H12.446V8.762H7.378V7.67H12.446V6.886H7.378V5.794H12.964V4.94H6.37V10.708H5.222V11.618H6.062V15.384C6.062 15.916 5.838 16.112 5.656 16.224C5.796 16.434 6.034 16.868 6.09 17.106C6.342 16.924 6.734 16.728 9.394 15.776C9.352 15.58 9.31 15.188 9.31 14.936L7.042 15.692V11.618H8.19C9.156 13.858 10.85 15.874 12.796 16.868C12.95 16.602 13.272 16.238 13.51 16.042C12.558 15.622 11.648 14.964 10.878 14.152C11.494 13.732 12.236 13.172 12.866 12.64L12.082 11.996ZM25.732 8.09V8.874H23.548V8.09H25.732ZM23.548 10.26V9.532H25.732V10.26H23.548ZM20.454 10.26V9.532H22.582V10.26H20.454ZM22.582 8.09V8.874H20.454V8.09H22.582ZM22.582 7.362H19.544V12.192H20.454V10.918H22.582V11.968H23.548V10.918H25.732V11.366C25.732 11.506 25.69 11.548 25.536 11.548C25.41 11.548 24.976 11.548 24.486 11.534C24.598 11.73 24.724 11.996 24.78 12.22C25.48 12.22 25.956 12.22 26.25 12.094C26.572 11.982 26.656 11.814 26.656 11.38V7.362H23.548V6.648H27.23V5.808H26.446L26.782 5.332C26.278 5.052 25.368 4.604 24.682 4.296L24.206 4.884C24.752 5.164 25.438 5.528 25.97 5.808H23.548V4.296H22.582V5.808H18.942V6.648H22.582V7.362ZM18.844 8.944V7.978H17.346V4.296H16.338V7.978H14.616V8.944H16.338V17.064H17.346V8.944H18.844ZM27.384 12.99H25.354V12.276H24.402V12.99H18.508V13.858H20.44L19.894 14.39C20.594 14.894 21.518 15.636 21.994 16.07L22.652 15.37C22.19 14.978 21.322 14.334 20.65 13.858H24.402V15.958C24.402 16.126 24.36 16.168 24.136 16.182C23.94 16.196 23.254 16.196 22.47 16.182C22.596 16.434 22.722 16.798 22.764 17.064C23.772 17.064 24.43 17.064 24.836 16.91C25.242 16.756 25.354 16.504 25.354 15.972V13.858H27.384V12.99ZM34.608 11.142C34.272 10.736 32.788 9.028 32.326 8.594V8.272H34.314V7.278H32.326V4.282H31.304V7.278H28.812V8.272H31.122C30.59 10.204 29.512 12.36 28.462 13.536C28.644 13.788 28.896 14.194 29.022 14.502C29.862 13.522 30.702 11.898 31.304 10.218V17.05H32.326V9.84C32.9 10.568 33.614 11.534 33.922 12.038L34.608 11.142ZM41.104 8.272V7.278H38.458V4.282H37.436V7.278H34.916V8.272H37.212C36.568 10.512 35.266 12.794 33.936 14.096C34.132 14.334 34.412 14.726 34.552 15.006C35.644 13.914 36.694 12.094 37.436 10.176V17.05H38.458V10.134C39.074 11.968 39.886 13.676 40.74 14.754C40.922 14.474 41.286 14.124 41.538 13.942C40.418 12.724 39.354 10.484 38.724 8.272H41.104ZM53.4049 10.68L56.4149 4.408L55.6589 4.156L52.5509 10.68L55.6589 17.204L56.4149 16.952L53.4049 10.68ZM55.6169 10.68L58.6269 4.408L57.8709 4.156L54.7629 10.68L57.8709 17.204L58.6269 16.952L55.6169 10.68ZM66.9149 8.972C68.4409 8.132 70.1489 6.886 71.3109 5.724L70.5269 5.15L70.2889 5.206H61.2869V6.228H69.1969C68.2449 7.026 66.9569 7.894 65.8509 8.426V11.268C64.1429 10.4 62.7009 9.364 61.6929 8.23L60.8109 8.734C62.0849 10.19 63.8349 11.45 65.8509 12.43V15.65C65.8509 15.902 65.7529 15.972 65.4729 15.986C65.1789 16 64.1569 16 63.0649 15.972C63.2329 16.252 63.4289 16.714 63.4989 17.008C64.8289 17.008 65.7109 16.994 66.2149 16.826C66.7329 16.672 66.9149 16.35 66.9149 15.664V12.92C68.5249 13.606 70.2469 14.138 71.9969 14.474C72.1369 14.194 72.4309 13.718 72.6689 13.494C70.6809 13.144 68.6929 12.542 66.9149 11.772V8.972ZM86.0809 6.452C85.7869 5.92 85.1289 5.15 84.5549 4.59L83.7989 5.038C84.3729 5.598 85.0029 6.424 85.2829 6.928L86.0809 6.452ZM74.6989 17.092C75.3429 16.35 76.0289 15.23 76.5329 14.264L75.5669 14.012C75.1049 14.95 74.3769 16.028 73.7469 16.686L74.6989 17.092ZM79.2069 6.382C79.0109 7.124 78.7589 7.81 78.4789 8.426C77.9469 7.908 77.1909 7.278 76.5049 6.802C76.5749 6.662 76.6589 6.522 76.7429 6.382H79.2069ZM79.7249 5.486L79.5429 5.528H77.1769C77.3449 5.178 77.4989 4.814 77.6389 4.464L76.6589 4.17C76.1549 5.724 75.0909 7.572 73.7889 8.692C73.9149 8.902 74.1529 9.322 74.2369 9.56C74.9229 8.972 75.5529 8.244 76.0849 7.446C76.7989 7.964 77.5829 8.664 78.0589 9.196C77.0649 10.862 75.6369 12.01 73.9709 12.71C74.1949 12.878 74.5449 13.284 74.6849 13.508C77.3589 12.276 79.5289 9.854 80.3549 5.752L79.7249 5.486ZM76.8969 9.378C75.8189 9.658 74.7689 9.938 74.0129 10.092L74.2789 10.918C75.1189 10.652 76.0429 10.372 77.0089 10.05L76.8969 9.378ZM77.9609 14.404C78.1289 15.23 78.2409 16.308 78.2549 16.952L79.2629 16.812C79.2489 16.182 79.1089 15.118 78.9269 14.306L77.9609 14.404ZM86.5149 13.046C85.9969 11.786 84.8069 9.826 83.7009 8.244H86.3749V7.25H83.3789C83.4209 6.816 83.4349 6.382 83.4349 5.976V4.45H82.4409V5.976C82.4409 6.368 82.4269 6.802 82.3709 7.25H80.1449V8.244H82.2169C81.8669 9.826 80.9709 11.576 78.8149 13.018C79.0809 13.2 79.4309 13.48 79.5989 13.69C81.6709 12.304 82.6369 10.61 83.0709 8.986C84.1069 10.526 85.1289 12.346 85.5909 13.508L86.5149 13.046ZM80.8449 14.376C81.1949 15.202 81.5449 16.28 81.6709 16.938L82.6789 16.728C82.5529 16.07 82.1609 14.992 81.7829 14.194L80.8449 14.376ZM83.7149 14.306C84.4149 15.174 85.1989 16.364 85.5349 17.106L86.5149 16.658C86.1369 15.916 85.3109 14.754 84.6109 13.914L83.7149 14.306ZM87.8029 9.98V11.114H100.515V9.98H87.8029ZM105.149 10.75H110.903V11.45C110.735 11.604 110.567 11.744 110.399 11.884C108.593 12.01 106.773 12.122 105.149 12.22V10.75ZM110.903 6.592V7.88H105.149V6.592H110.903ZM110.903 9.966H105.149V8.678H110.903V9.966ZM113.269 8.748C112.877 9.336 112.443 9.896 111.953 10.428V5.668H108.117C108.355 5.29 108.593 4.856 108.789 4.45L107.543 4.254C107.417 4.66 107.207 5.192 106.969 5.668H104.113V12.276C103.301 12.318 102.573 12.36 101.943 12.388L102.097 13.424C103.945 13.298 106.465 13.102 109.027 12.892C106.941 14.278 104.477 15.314 101.817 16.014C102.027 16.224 102.363 16.714 102.503 16.952C105.625 16.028 108.523 14.684 110.903 12.822V15.608C110.903 15.902 110.805 16 110.511 16C110.203 16.014 109.153 16.028 108.047 15.972C108.215 16.28 108.383 16.77 108.439 17.064C109.853 17.078 110.763 17.064 111.281 16.896C111.799 16.7 111.953 16.35 111.953 15.622V11.926C112.821 11.128 113.591 10.246 114.263 9.266L113.269 8.748ZM118.603 17.204L121.711 10.68L118.603 4.156L117.847 4.408L120.857 10.68L117.847 16.952L118.603 17.204ZM116.391 17.204L119.499 10.68L116.391 4.156L115.635 4.408L118.645 10.68L115.635 16.952L116.391 17.204Z" fill="#00E0B8"/>
</svg>
