<svg width="207" height="102" viewBox="0 0 207 102" fill="none" xmlns="http://www.w3.org/2000/svg">
<path opacity="0.8" d="M7.38 48.076V52.852H7.992V48.076H7.38ZM8.916 48.076V52.852H9.54V48.076H8.916ZM4.692 42.652V43.444H11.304V42.652H4.692ZM6.144 49.936V50.62H10.932V49.936H6.144ZM5.16 44.236V46.876C5.16 48.496 5.04 50.704 3.876 52.288C4.056 52.384 4.404 52.636 4.536 52.792C5.772 51.112 5.976 48.616 5.976 46.888V44.236H5.16ZM5.52 44.236V44.98H10.14V46.276H5.52V47.02H11.004V44.236H5.52ZM5.808 47.836V52.972H6.48V48.544H10.98V47.836H5.808ZM10.5 47.836V52.096C10.5 52.204 10.476 52.228 10.392 52.228C10.296 52.228 10.056 52.228 9.756 52.216C9.852 52.432 9.972 52.744 9.996 52.96C10.452 52.96 10.764 52.936 10.98 52.828C11.208 52.684 11.256 52.468 11.256 52.108V47.836H10.5ZM2.352 41.932C2.052 42.724 1.5 43.9 1.08 44.596L1.68 44.86C2.124 44.188 2.688 43.108 3.12 42.22L2.352 41.932ZM3.624 43.3C3 44.56 1.92 46.348 1.068 47.416L1.608 47.704C2.472 46.672 3.576 44.968 4.368 43.636L3.624 43.3ZM0.432 44.416C1.068 45.016 1.788 45.868 2.088 46.444L2.592 45.784C2.28 45.244 1.548 44.428 0.912 43.84L0.432 44.416ZM3.168 46.012C3.612 46.828 4.02 47.908 4.152 48.58L4.824 48.292C4.704 47.62 4.26 46.564 3.804 45.772L3.168 46.012ZM0.336 47.236L0.432 48.04C1.476 47.968 2.844 47.884 4.2 47.8V47.032C2.76 47.116 1.332 47.188 0.336 47.236ZM3.396 48.928C3.672 49.624 3.9 50.536 3.96 51.136L4.632 50.932C4.572 50.344 4.32 49.432 4.032 48.748L3.396 48.928ZM1.056 48.784C0.924 49.828 0.696 50.908 0.312 51.64C0.492 51.712 0.84 51.868 0.984 51.976C1.356 51.208 1.644 50.044 1.8 48.916L1.056 48.784ZM2.268 47.584V52.96H3.048V47.584H2.268ZM13.74 51.316V52.204H22.284V51.316H13.74ZM13.728 47.812V48.664H22.404V47.812H13.728ZM13.176 44.32V52.972H14.028V45.196H21.984V52.912H22.872V44.32H13.176ZM16.056 42.052V51.904H16.932V42.052H16.056ZM18.96 42.052V51.856H19.848V42.052H18.96ZM30.24 41.44H29.748V53.44H30.24V41.44ZM40.368 43.18V43.972H47.316V43.18H40.368ZM43.356 41.932V52.96H44.232V41.932H43.356ZM44.604 48.604L43.956 48.82C44.604 50.236 45.816 51.64 47.028 52.348C47.16 52.132 47.436 51.808 47.628 51.64C46.44 51.064 45.228 49.84 44.604 48.604ZM41.664 47.332H45.972V48.4H41.664V47.332ZM41.664 45.628H45.972V46.684H41.664V45.628ZM40.86 44.956V49.084H46.812V44.956H40.86ZM42.948 48.616C42.264 49.864 40.92 51.112 39.636 51.7C39.84 51.88 40.116 52.192 40.248 52.408C41.556 51.7 42.924 50.32 43.668 48.868L42.948 48.616ZM36.96 42.448V52.972H37.776V43.264H39.792V42.448H36.96ZM39.516 42.448V42.688C39.264 43.516 38.82 44.944 38.388 46.036C39.252 46.972 39.468 47.788 39.468 48.436C39.468 48.796 39.408 49.12 39.216 49.252C39.12 49.324 38.988 49.36 38.844 49.36C38.652 49.384 38.424 49.372 38.148 49.348C38.28 49.576 38.352 49.924 38.364 50.14C38.64 50.152 38.94 50.152 39.18 50.128C39.42 50.092 39.636 50.02 39.804 49.912C40.14 49.672 40.272 49.168 40.272 48.52C40.272 47.776 40.08 46.936 39.192 45.94C39.6 44.98 40.044 43.744 40.392 42.76L39.816 42.412L39.672 42.448H39.516ZM48.672 46.156V46.924H59.4V46.156H48.672ZM49.272 42.952V43.708H58.968V42.952H49.272ZM53.508 41.932V43.444H54.42V41.932H53.508ZM49.62 46.54V48.148C49.62 49.408 49.464 51.16 48.324 52.444C48.528 52.552 48.9 52.852 49.044 53.02C50.268 51.64 50.52 49.6 50.52 48.16V46.54H49.62ZM50.868 44.224C52.872 44.704 55.332 45.58 56.676 46.204L57.36 45.676C55.956 45.076 53.496 44.224 51.576 43.756L50.868 44.224ZM56.352 43.444C55.116 44.404 52.524 45.244 50.448 45.676C50.568 45.832 50.736 46.12 50.808 46.288C52.98 45.808 55.524 44.908 57.036 43.816L56.352 43.444ZM56.364 46.792C55.248 47.488 53.124 48.004 51.336 48.244C51.516 48.424 51.696 48.7 51.816 48.892C53.688 48.58 55.812 48.004 57.096 47.188L56.364 46.792ZM57.108 48.244C55.92 49.168 53.592 49.828 51.444 50.14C51.624 50.32 51.804 50.608 51.912 50.812C54.168 50.428 56.508 49.708 57.876 48.64L57.108 48.244ZM58.212 49.672C56.796 51.124 53.904 51.928 50.712 52.264C50.88 52.468 51.06 52.804 51.144 53.032C54.48 52.624 57.432 51.736 59.028 50.08L58.212 49.672ZM60.552 49.684V50.428H71.448V49.684H60.552ZM60.792 43.228V43.96H71.16V43.228H60.792ZM62.316 47.164V47.716H69.612V47.164H62.316ZM67.764 48.808V51.964C67.764 52.12 67.716 52.156 67.5 52.18C67.296 52.18 66.648 52.18 65.856 52.156C65.988 52.408 66.12 52.732 66.168 52.972C67.128 52.972 67.752 52.972 68.148 52.84C68.532 52.72 68.64 52.48 68.64 51.976V48.808H67.764ZM62.7 50.932C63.42 51.376 64.272 52.06 64.668 52.54L65.268 51.952C64.848 51.472 63.972 50.824 63.264 50.392L62.7 50.932ZM62.892 42.208C63.252 42.592 63.672 43.132 63.864 43.48L64.632 43.12C64.416 42.772 63.984 42.256 63.624 41.896L62.892 42.208ZM62.58 45.268H69.384V48.34H62.58V45.268ZM61.752 44.68V48.928H70.248V44.68H61.752ZM68.172 41.908C67.98 42.328 67.608 42.952 67.32 43.348L67.992 43.6C68.328 43.24 68.736 42.7 69.096 42.184L68.172 41.908ZM66.564 43.576V45.748C66.564 46.42 66.78 46.564 67.68 46.564C67.86 46.564 69.024 46.564 69.216 46.564C69.756 46.564 69.972 46.456 70.032 46.168C69.828 46.144 69.564 46.072 69.396 45.976C69.372 46.036 69.312 46.048 69.096 46.048C68.88 46.048 67.944 46.048 67.764 46.048C67.416 46.048 67.356 46 67.356 45.76V43.576H66.564ZM64.548 43.564V45.004C64.548 45.568 64.344 46.18 62.796 46.468C62.952 46.6 63.156 46.876 63.24 47.044C64.956 46.6 65.328 45.808 65.328 45.004V43.564H64.548ZM79.3008 43.4688H80.3965L83.1914 50.4238L85.9805 43.4688H87.082L83.6133 52H82.7578L79.3008 43.4688ZM78.9434 43.4688H79.9102L80.0684 48.6719V52H78.9434V43.4688ZM86.4668 43.4688H87.4336V52H86.3086V48.6719L86.4668 43.4688ZM90.4336 45.6602V52H89.3438V45.6602H90.4336ZM89.2617 43.9785C89.2617 43.8027 89.3145 43.6543 89.4199 43.5332C89.5293 43.4121 89.6895 43.3516 89.9004 43.3516C90.1074 43.3516 90.2656 43.4121 90.375 43.5332C90.4883 43.6543 90.5449 43.8027 90.5449 43.9785C90.5449 44.1465 90.4883 44.291 90.375 44.4121C90.2656 44.5293 90.1074 44.5879 89.9004 44.5879C89.6895 44.5879 89.5293 44.5293 89.4199 44.4121C89.3145 44.291 89.2617 44.1465 89.2617 43.9785ZM93.2637 43V52H92.1738V43H93.2637ZM97.1367 45.6602L94.3711 48.6191L92.8242 50.2246L92.7363 49.0703L93.8438 47.7461L95.8125 45.6602H97.1367ZM96.1465 52L93.8848 48.9766L94.4473 48.0098L97.4238 52H96.1465ZM100.77 52.1172C100.328 52.1172 99.9277 52.043 99.5684 51.8945C99.2129 51.7422 98.9062 51.5293 98.6484 51.2559C98.3945 50.9824 98.1992 50.6582 98.0625 50.2832C97.9258 49.9082 97.8574 49.498 97.8574 49.0527V48.8066C97.8574 48.291 97.9336 47.832 98.0859 47.4297C98.2383 47.0234 98.4453 46.6797 98.707 46.3984C98.9688 46.1172 99.2656 45.9043 99.5977 45.7598C99.9297 45.6152 100.273 45.543 100.629 45.543C101.082 45.543 101.473 45.6211 101.801 45.7773C102.133 45.9336 102.404 46.1523 102.615 46.4336C102.826 46.7109 102.982 47.0391 103.084 47.418C103.186 47.793 103.236 48.2031 103.236 48.6484V49.1348H98.502V48.25H102.152V48.168C102.137 47.8867 102.078 47.6133 101.977 47.3477C101.879 47.082 101.723 46.8633 101.508 46.6914C101.293 46.5195 101 46.4336 100.629 46.4336C100.383 46.4336 100.156 46.4863 99.9492 46.5918C99.7422 46.6934 99.5645 46.8457 99.416 47.0488C99.2676 47.252 99.1523 47.5 99.0703 47.793C98.9883 48.0859 98.9473 48.4238 98.9473 48.8066V49.0527C98.9473 49.3535 98.9883 49.6367 99.0703 49.9023C99.1562 50.1641 99.2793 50.3945 99.4395 50.5938C99.6035 50.793 99.8008 50.9492 100.031 51.0625C100.266 51.1758 100.531 51.2324 100.828 51.2324C101.211 51.2324 101.535 51.1543 101.801 50.998C102.066 50.8418 102.299 50.6328 102.498 50.3711L103.154 50.8926C103.018 51.0996 102.844 51.2969 102.633 51.4844C102.422 51.6719 102.162 51.8242 101.854 51.9414C101.549 52.0586 101.188 52.1172 100.77 52.1172Z" fill="white"/>
<path d="M202.929 25.1299L0 25.1299L0 26.0199L202.929 26.0199V25.1299Z" fill="white"/>
<path d="M207 22L190 22V29H207V22Z" fill="#00E0B8"/>
<path d="M4.872 13.13C5.684 12.71 6.58 12.15 7.266 11.59L6.636 11.044L6.412 11.1H1.372V11.94H5.348C4.886 12.29 4.34 12.612 3.864 12.864V13.494C2.66 13.536 1.54 13.578 0.658 13.606L0.728 14.516L3.864 14.376V15.972C3.864 16.112 3.822 16.154 3.64 16.154C3.472 16.168 2.842 16.168 2.198 16.154C2.324 16.406 2.478 16.756 2.52 17.036C3.43 17.036 4.004 17.022 4.382 16.882C4.774 16.742 4.872 16.49 4.872 15.986V14.32C5.866 14.278 6.888 14.222 7.91 14.166L7.938 13.312C6.902 13.354 5.866 13.41 4.872 13.452V13.13ZM6.202 9.56H2.506V8.16H6.202V9.56ZM7.154 7.376H1.61V10.344H7.154V7.376ZM3.472 4.562C3.654 4.87 3.836 5.262 3.99 5.612H0.77V6.508H7.952V5.612H5.026C4.858 5.192 4.592 4.66 4.34 4.254L3.472 4.562ZM12.614 5.01L12.46 5.052H8.4V17.078H9.422V6.032H11.984C11.55 7.138 10.948 8.65 10.36 9.84C11.774 11.058 12.18 12.108 12.18 12.99C12.18 13.494 12.082 13.914 11.788 14.096C11.62 14.194 11.41 14.25 11.186 14.25C10.906 14.278 10.514 14.278 10.108 14.236C10.276 14.53 10.374 14.95 10.388 15.244C10.794 15.272 11.242 15.272 11.592 15.23C11.928 15.188 12.25 15.09 12.488 14.922C12.978 14.6 13.174 13.942 13.174 13.102C13.16 12.108 12.81 10.988 11.41 9.714C12.054 8.426 12.782 6.816 13.356 5.5L12.614 5.01ZM26.278 4.45C24.962 4.87 22.582 5.22 20.566 5.444C20.678 5.64 20.804 5.976 20.846 6.186C22.918 6.004 25.396 5.654 27.006 5.164L26.278 4.45ZM25.774 8.314C26.11 7.754 26.516 6.942 26.866 6.2L25.984 5.934C25.76 6.564 25.34 7.488 24.99 8.048L25.774 8.314ZM24.318 8.104C24.234 7.586 23.982 6.788 23.702 6.2L22.904 6.368C23.156 6.984 23.408 7.796 23.478 8.328L24.318 8.104ZM22.568 8.244C22.428 7.74 22.078 6.984 21.714 6.438L20.958 6.732C21.308 7.306 21.644 8.062 21.77 8.58L22.568 8.244ZM16.282 13.928C16.296 13.76 16.296 13.62 16.296 13.466V12.934H19.012V13.928H16.282ZM19.012 11.198V12.178H16.296V11.198H19.012ZM19.908 10.4H15.386V13.452C15.386 14.432 15.316 15.594 14.686 16.462C14.882 16.588 15.218 16.952 15.344 17.148C15.876 16.462 16.128 15.552 16.226 14.67H19.012V16.028C19.012 16.182 18.956 16.238 18.774 16.238C18.606 16.238 18.046 16.252 17.402 16.224C17.528 16.462 17.668 16.798 17.71 17.05C18.592 17.05 19.124 17.036 19.46 16.882C19.81 16.742 19.908 16.504 19.908 16.028V10.4ZM18.186 7.908H19.978V7.152H18.186V6.312H20.328V5.528H18.186V4.282H17.206V5.528H14.952V6.312H17.206V7.152H15.33V7.908H17.206V8.818H14.728V9.616H20.524V8.818H18.186V7.908ZM25.662 12.934H24.15V11.632H25.662V12.934ZM24.15 9.504H25.662V10.708H24.15V9.504ZM27.468 10.708H26.558V8.636H21.182V9.504H23.184V10.708H20.538V11.632H23.184V12.934H21.14V13.802H23.184V15.916C23.184 16.07 23.142 16.126 22.974 16.126C22.806 16.126 22.246 16.126 21.672 16.112C21.798 16.378 21.938 16.756 21.98 17.036C22.792 17.036 23.338 17.008 23.688 16.868C24.052 16.714 24.15 16.462 24.15 15.916V13.802H26.558V11.632H27.468V10.708ZM36.274 10.68L39.284 4.408L38.528 4.156L35.42 10.68L38.528 17.204L39.284 16.952L36.274 10.68ZM38.486 10.68L41.496 4.408L40.74 4.156L37.632 10.68L40.74 17.204L41.496 16.952L38.486 10.68ZM45.458 9.91V10.652H46.34C46.116 12.304 45.64 13.69 44.702 14.586C44.884 14.684 45.178 14.908 45.29 15.034C45.92 14.376 46.368 13.522 46.69 12.486C46.872 13.382 47.222 14.264 47.838 15.006C47.964 14.866 48.244 14.628 48.412 14.544C47.208 13.144 47.11 11.366 47.11 9.91H45.458ZM50.302 9.91V10.652H51.212C50.988 12.234 50.512 13.592 49.616 14.474C49.798 14.586 50.092 14.81 50.204 14.936C50.806 14.278 51.254 13.424 51.576 12.416C51.758 13.326 52.122 14.222 52.794 14.964C52.92 14.838 53.242 14.614 53.424 14.53C52.108 13.158 52.01 11.38 52.01 9.91H50.302ZM55.048 6.144V5.122H43.022V6.144H48.44V7.894H43.512V17.036H44.506V8.86H48.44V16.994H49.42V8.86H53.55V15.846C53.55 16.056 53.494 16.112 53.284 16.126C53.06 16.14 52.332 16.14 51.576 16.112C51.716 16.364 51.87 16.77 51.926 17.036C52.92 17.036 53.606 17.022 54.04 16.868C54.446 16.7 54.572 16.42 54.572 15.846V7.894H49.42V6.144H55.048ZM59.36 4.352C58.66 6.466 57.54 8.566 56.294 9.924C56.476 10.176 56.756 10.75 56.84 10.974C57.316 10.442 57.764 9.812 58.198 9.126V17.078H59.192V7.334C59.626 6.466 60.004 5.542 60.312 4.618L59.36 4.352ZM66.08 13.368H63.714V11.198H66.08V13.368ZM67.452 8.874V8.076H65.296V6.494H64.442V8.076H62.342V8.874H64.442V10.414H62.916V14.138H66.906V10.414H65.296V8.874H67.452ZM61.768 15.3V6.046H67.928V15.3H61.768ZM60.802 5.136V17.05H61.768V16.224H67.928V16.938H68.922V5.136H60.802ZM76.412 4.338C76.37 6.466 76.454 13.27 70.644 16.21C70.966 16.434 71.302 16.742 71.484 17.022C74.9 15.202 76.384 12.066 77.028 9.266C77.7 11.87 79.198 15.328 82.698 16.966C82.852 16.672 83.16 16.322 83.454 16.084C78.512 13.886 77.672 8.034 77.462 6.368C77.532 5.542 77.546 4.842 77.56 4.338H76.412ZM89.152 10.386H86.212V7.46H89.152V10.386ZM86.212 14.67V11.31H89.152V14.67H86.212ZM87.388 4.254C87.29 4.912 87.038 5.85 86.828 6.522H85.26V16.714H86.212V15.608H90.104V6.522H87.78C88.018 5.92 88.27 5.15 88.508 4.464L87.388 4.254ZM96.95 6.48H92.764C93.002 5.822 93.198 5.15 93.366 4.464L92.372 4.226C91.924 6.144 91.168 8.076 90.23 9.308C90.454 9.448 90.902 9.728 91.084 9.896C91.574 9.238 92.008 8.384 92.4 7.446H95.956C95.774 13.018 95.564 15.146 95.102 15.636C94.962 15.818 94.808 15.846 94.528 15.846C94.206 15.846 93.366 15.846 92.456 15.762C92.652 16.056 92.778 16.476 92.806 16.784C93.59 16.826 94.388 16.854 94.878 16.798C95.354 16.756 95.676 16.63 95.984 16.238C96.544 15.552 96.726 13.396 96.95 7.012V6.48ZM94.738 12.78C94.29 11.954 93.324 10.61 92.54 9.616L91.728 10.092C92.498 11.1 93.436 12.486 93.856 13.326L94.738 12.78ZM108.584 6.298C108.01 5.696 106.82 4.842 105.882 4.282L105.252 4.968C106.19 5.57 107.366 6.48 107.926 7.082L108.584 6.298ZM103.81 13.354C104.356 12.248 104.65 10.344 104.818 8.916L104.02 8.734C103.88 10.148 103.558 11.954 102.998 13.046L103.81 13.354ZM103.32 11.87C103.096 11.492 102.074 10.022 101.724 9.56V9.252H103.334V8.272H101.724V5.794C102.312 5.626 102.872 5.444 103.334 5.234L102.69 4.394C101.808 4.828 100.282 5.234 98.98 5.486C99.092 5.724 99.232 6.074 99.288 6.312C99.75 6.228 100.254 6.13 100.744 6.018V8.272H98.826V9.252H100.632C100.156 10.834 99.302 12.64 98.518 13.648C98.7 13.9 98.966 14.348 99.064 14.642C99.666 13.844 100.268 12.584 100.744 11.282V17.092H101.724V10.848C102.088 11.506 102.494 12.29 102.676 12.71L103.32 11.87ZM111.426 13.256C111.244 12.136 110.684 10.428 110.068 9.112L109.186 9.378C109.718 8.118 110.166 6.774 110.572 5.346L109.578 5.15C108.85 7.838 107.884 10.26 106.568 12.276V7.292H105.574V13.634C104.79 14.572 103.922 15.412 102.928 16.112C103.166 16.28 103.6 16.63 103.768 16.826C104.412 16.336 105.014 15.776 105.574 15.174V15.356C105.574 16.602 105.882 16.938 107.044 16.938H108.906C109.956 16.938 110.222 16.35 110.334 14.348C110.068 14.306 109.662 14.138 109.438 13.942C109.382 15.664 109.298 16.028 108.822 16.028H107.17C106.652 16.028 106.568 15.93 106.568 15.37V13.998C107.59 12.654 108.458 11.114 109.172 9.392C109.774 10.694 110.32 12.402 110.488 13.536L111.426 13.256ZM114.142 6.424H123.858V8.202H124.908V5.486H119.63C119.532 5.08 119.364 4.562 119.182 4.142L118.202 4.31C118.342 4.66 118.468 5.108 118.552 5.486H113.12V8.202H114.142V6.424ZM119.896 8.104C119.378 7.614 118.328 6.998 117.488 6.634L116.942 7.236C117.81 7.628 118.846 8.272 119.35 8.776L119.896 8.104ZM114.576 8.272C114.198 9.112 113.526 10.148 112.714 10.764L113.554 11.268C114.366 10.596 114.982 9.532 115.43 8.664L114.576 8.272ZM121.072 12.038C122.29 12.038 122.584 11.632 122.724 9.994C122.458 9.938 122.08 9.798 121.856 9.63C121.786 10.988 121.674 11.184 121.002 11.184H118.174C117.95 11.184 117.768 11.184 117.628 11.156C119.546 10.218 121.282 9.014 122.5 7.53L121.604 7.096C120.554 8.412 118.986 9.49 117.194 10.358V8.062H116.256V10.736V10.778C115.094 11.268 113.834 11.66 112.574 11.982C112.77 12.192 113.064 12.626 113.19 12.85C114.31 12.528 115.43 12.136 116.522 11.674C116.774 11.954 117.264 12.038 118.118 12.038H121.072ZM122.78 15.454H119.49V12.486H118.454V15.454H115.318V13.228H114.296V16.448H122.78V17.05H123.802V13.116H122.78V15.454ZM122.206 8.86C123.074 9.63 124.096 10.736 124.53 11.478L125.328 10.904C124.852 10.162 123.816 9.098 122.948 8.342L122.206 8.86ZM129.472 17.204L132.58 10.68L129.472 4.156L128.716 4.408L131.726 10.68L128.716 16.952L129.472 17.204ZM127.26 17.204L130.368 10.68L127.26 4.156L126.504 4.408L129.514 10.68L126.504 16.952L127.26 17.204Z" fill="#00E0B8"/>
</svg>
