<svg width="207" height="102" viewBox="0 0 207 102" fill="none" xmlns="http://www.w3.org/2000/svg">
<path opacity="0.8" d="M5.844 43.936L5.424 44.8H11.532V43.936H5.844ZM7.344 46.54V47.368H11.256V46.54H7.344ZM7.332 49.18V50.032H11.424V49.18H7.332ZM6.888 44.212V52.96H7.812V44.212H6.888ZM6.3 42.064C5.712 43.828 4.74 45.58 3.648 46.696C3.852 46.84 4.212 47.164 4.344 47.32C5.448 46.084 6.492 44.2 7.176 42.292L6.3 42.064ZM3.42 41.968C2.736 43.792 1.62 45.592 0.42 46.756C0.588 46.972 0.864 47.452 0.948 47.668C2.256 46.324 3.492 44.272 4.284 42.244L3.42 41.968ZM2.136 45.064V52.948H3.048V44.176L3.024 44.164L2.136 45.064ZM17.208 42.52V43.36H22.692V42.52H17.208ZM17.22 44.536V45.328H21.384V44.536H17.22ZM17.508 46.396V51.004H18.3V46.396H17.508ZM17.964 46.396V47.176H20.124V49.396H17.964V50.176H20.94V46.396H17.964ZM22.248 42.52V51.748C22.248 51.964 22.176 52.036 21.948 52.036C21.72 52.048 20.916 52.06 20.1 52.024C20.232 52.288 20.364 52.708 20.412 52.96C21.492 52.96 22.188 52.948 22.596 52.792C22.992 52.636 23.124 52.348 23.124 51.76V42.52H22.248ZM13.02 45.556V46.276H16.536V45.556H13.02ZM13.056 42.352V43.072H16.488V42.352H13.056ZM13.02 47.164V47.884H16.536V47.164H13.02ZM12.456 43.924V44.668H16.872V43.924H12.456ZM13.416 48.784V49.528H15.744V51.532H13.416V52.288H16.536V48.784H13.416ZM13.008 48.784V52.84H13.788V48.784H13.008ZM29.844 43.936L29.424 44.8H35.532V43.936H29.844ZM31.344 46.54V47.368H35.256V46.54H31.344ZM31.332 49.18V50.032H35.424V49.18H31.332ZM30.888 44.212V52.96H31.812V44.212H30.888ZM30.3 42.064C29.712 43.828 28.74 45.58 27.648 46.696C27.852 46.84 28.212 47.164 28.344 47.32C29.448 46.084 30.492 44.2 31.176 42.292L30.3 42.064ZM27.42 41.968C26.736 43.792 25.62 45.592 24.42 46.756C24.588 46.972 24.864 47.452 24.948 47.668C26.256 46.324 27.492 44.272 28.284 42.244L27.42 41.968ZM26.136 45.064V52.948H27.048V44.176L27.024 44.164L26.136 45.064ZM37.74 51.316V52.204H46.284V51.316H37.74ZM37.728 47.812V48.664H46.404V47.812H37.728ZM37.176 44.32V52.972H38.028V45.196H45.984V52.912H46.872V44.32H37.176ZM40.056 42.052V51.904H40.932V42.052H40.056ZM42.96 42.052V51.856H43.848V42.052H42.96ZM54.24 41.44H53.748V53.44H54.24V41.44ZM61.848 45.7V46.54H66.336V45.7H61.848ZM61.416 43.144V51.424H62.256V43.444L61.416 43.144ZM60.42 51.208L60.588 52.132C62.148 51.868 64.416 51.496 66.528 51.124L66.48 50.26C64.26 50.62 61.92 51.004 60.42 51.208ZM65.292 41.932C64.44 42.448 62.94 43.012 61.62 43.396C61.74 43.576 61.884 43.888 61.932 44.092C63.336 43.708 64.944 43.168 66.06 42.58L65.292 41.932ZM64.2 46.06V51.1L65.016 50.992V46.06H64.2ZM66.84 42.688V53.008H67.716V43.54H70.68V42.688H66.84ZM70.452 42.688V42.988C70.032 43.948 69.324 45.592 68.652 46.804C69.984 47.848 70.392 48.736 70.392 49.492C70.392 49.924 70.296 50.26 70.02 50.416C69.852 50.512 69.648 50.548 69.444 50.56C69.168 50.572 68.796 50.572 68.412 50.536C68.568 50.8 68.664 51.196 68.676 51.448C69.048 51.472 69.48 51.472 69.816 51.436C70.152 51.4 70.428 51.304 70.656 51.172C71.112 50.872 71.304 50.32 71.292 49.576C71.292 48.724 70.968 47.776 69.636 46.672C70.236 45.592 70.92 44.236 71.448 43.084L70.776 42.652L70.632 42.688H70.452ZM75.132 43.216H80.988V44.104H75.132V43.216ZM74.268 42.616V44.704H81.888V42.616H74.268ZM77.544 41.92V45.652H78.432V41.92H77.544ZM72.648 45.352V46.06H83.352V45.352H72.648ZM75.048 48.532H81.084V49.276H75.048V48.532ZM75.048 49.84H81.084V50.596H75.048V49.84ZM75.048 47.236H81.084V47.968H75.048V47.236ZM74.172 46.648V51.172H81.984V46.648H74.172ZM78.972 51.772C80.28 52.156 81.576 52.624 82.332 52.972L83.364 52.516C82.488 52.156 81.036 51.676 79.716 51.316L78.972 51.772ZM76.2 51.292C75.336 51.724 73.884 52.096 72.636 52.336C72.84 52.492 73.152 52.828 73.296 53.008C74.496 52.708 76.032 52.192 77.004 51.652L76.2 51.292ZM88.44 46.912V47.68H95.532V46.912H88.44ZM89.616 48.532V49.252H94.692V48.532H89.616ZM90.24 47.128C89.724 48.268 88.788 49.3 87.78 49.972C87.96 50.092 88.248 50.368 88.38 50.512C89.376 49.756 90.396 48.604 90.984 47.332L90.24 47.128ZM91.068 48.652C90.432 50.056 89.292 51.292 88.02 52.072C88.2 52.192 88.488 52.48 88.608 52.612C89.868 51.76 91.08 50.416 91.8 48.856L91.068 48.652ZM92.832 48.7C92.376 50.248 91.5 51.616 90.396 52.48C90.588 52.6 90.9 52.84 91.032 52.972C92.124 52.024 93.06 50.56 93.588 48.868L92.832 48.7ZM94.308 48.532V48.664C94.176 50.992 94.032 51.868 93.804 52.096C93.708 52.204 93.6 52.216 93.432 52.216C93.24 52.216 92.784 52.216 92.28 52.168C92.4 52.372 92.484 52.708 92.496 52.936C93.012 52.96 93.516 52.96 93.792 52.936C94.092 52.924 94.296 52.84 94.488 52.636C94.788 52.288 94.956 51.352 95.1 48.892C95.112 48.772 95.124 48.532 95.124 48.532H94.308ZM90.06 44.536H93.816V45.484H90.06V44.536ZM90.06 42.964H93.816V43.9H90.06V42.964ZM89.232 42.304V46.144H94.656V42.304H89.232ZM84.324 48.304L84.528 49.192C85.596 48.868 86.976 48.436 88.284 48.028L88.176 47.224C86.76 47.632 85.296 48.064 84.324 48.304ZM84.528 44.344V45.184H88.224V44.344H84.528ZM86.16 41.932V51.868C86.16 52.048 86.088 52.096 85.932 52.096C85.788 52.108 85.284 52.108 84.744 52.084C84.864 52.336 84.984 52.732 85.02 52.96C85.8 52.96 86.292 52.936 86.604 52.78C86.916 52.636 87.024 52.384 87.024 51.868V41.932H86.16ZM106.513 42.748V43.588H113.509V42.748H106.513ZM111.613 43.168V51.832C111.613 52.072 111.517 52.144 111.265 52.156C111.001 52.168 110.113 52.168 109.165 52.144C109.285 52.384 109.429 52.732 109.477 52.96C110.713 52.972 111.445 52.96 111.877 52.828C112.297 52.696 112.477 52.456 112.477 51.832V43.168H111.613ZM107.329 45.292V46.072H109.525V48.868H107.329V49.648H110.329V45.292H107.329ZM106.921 45.292V50.56H107.713V45.292H106.921ZM102.913 42.448V52.972H103.729V43.264H105.709V42.448H102.913ZM105.493 42.448V42.688C105.241 43.504 104.797 44.884 104.353 45.976C105.229 46.924 105.445 47.764 105.445 48.424C105.445 48.784 105.373 49.12 105.193 49.252C105.085 49.324 104.965 49.348 104.809 49.36C104.617 49.384 104.389 49.372 104.113 49.348C104.245 49.576 104.329 49.924 104.341 50.14C104.605 50.152 104.905 50.152 105.145 50.128C105.397 50.092 105.601 50.02 105.769 49.9C106.105 49.66 106.249 49.144 106.249 48.496C106.249 47.752 106.045 46.876 105.169 45.88C105.577 44.92 106.021 43.744 106.369 42.76L105.781 42.412L105.649 42.448H105.493ZM114.625 48.784V49.588H125.281V48.784H114.625ZM119.461 47.668V52.936H120.373V47.668H119.461ZM119.053 49.096C118.069 50.368 116.137 51.508 114.385 52.048C114.589 52.228 114.853 52.576 114.997 52.804C116.749 52.168 118.705 50.884 119.797 49.432L119.053 49.096ZM120.793 49.12L120.037 49.48C121.129 50.896 123.085 52.12 124.909 52.72C125.041 52.48 125.317 52.132 125.509 51.952C123.685 51.46 121.765 50.368 120.793 49.12ZM118.993 45.796H120.877V47.116H118.993V45.796ZM118.993 43.816H120.877V45.112H118.993V43.816ZM118.213 43.108V47.824H121.669V43.108H118.213ZM119.617 41.92C119.545 42.352 119.377 42.988 119.233 43.408L119.941 43.564C120.121 43.18 120.325 42.604 120.517 42.064L119.617 41.92ZM114.709 44.26C115.309 44.752 116.017 45.448 116.329 45.928L116.749 45.268C116.437 44.812 115.717 44.14 115.105 43.684L114.709 44.26ZM116.893 46.024C117.241 46.708 117.577 47.632 117.673 48.208L118.309 47.956C118.201 47.404 117.853 46.504 117.493 45.832L116.893 46.024ZM117.193 43.672C116.701 44.764 115.825 46.3 115.129 47.236L115.717 47.512C116.413 46.588 117.265 45.136 117.901 43.948L117.193 43.672ZM116.257 42.004C116.017 42.7 115.561 43.684 115.213 44.296L115.813 44.56C116.185 43.96 116.617 43.048 116.977 42.268L116.257 42.004ZM114.601 47.164L114.697 47.944C115.573 47.8 116.641 47.656 117.745 47.476L117.733 46.828C116.545 46.96 115.417 47.092 114.601 47.164ZM121.597 44.164C122.233 44.716 122.953 45.496 123.265 46.024L123.733 45.4C123.409 44.896 122.677 44.14 122.053 43.612L121.597 44.164ZM123.829 45.928C124.237 46.684 124.633 47.668 124.753 48.304L125.425 48.028C125.293 47.416 124.873 46.432 124.453 45.7L123.829 45.928ZM124.129 43.66C123.637 44.764 122.725 46.312 122.017 47.26L122.605 47.536C123.325 46.6 124.201 45.136 124.837 43.948L124.129 43.66ZM123.253 41.968C123.013 42.664 122.545 43.648 122.185 44.26L122.785 44.524C123.169 43.924 123.613 43.024 123.985 42.232L123.253 41.968ZM121.645 47.164L121.753 47.944C122.629 47.824 123.721 47.68 124.825 47.536L124.813 46.876C123.625 46.984 122.485 47.092 121.645 47.164Z" fill="white"/>
<path d="M202.929 25.1299L0 25.1299L0 26.0199L202.929 26.0199V25.1299Z" fill="white"/>
<path d="M207 22L190 22V29H207V22Z" fill="#00E0B8"/>
<path d="M6.832 5.066L6.622 5.136H0.84V6.102H5.824C5.208 6.83 4.382 7.614 3.64 8.118V10.806C2.45 11.114 1.358 11.394 0.532 11.604L0.756 12.64L3.64 11.842V15.762C3.64 15.972 3.57 16.028 3.346 16.042C3.15 16.042 2.436 16.042 1.652 16.014C1.82 16.322 1.946 16.77 1.988 17.064C3.01 17.078 3.696 17.05 4.116 16.882C4.522 16.7 4.648 16.406 4.648 15.776V11.576L7.49 10.792L7.35 9.812C6.454 10.064 5.544 10.316 4.648 10.54V8.538C5.67 7.754 6.804 6.62 7.532 5.584L6.832 5.066ZM10.108 16C9.576 16 9.464 15.874 9.464 15.16V4.618H8.442V15.132C8.442 16.546 8.764 16.938 9.982 16.938H11.942C13.146 16.938 13.412 16.154 13.524 13.844C13.244 13.774 12.838 13.592 12.586 13.382C12.516 15.482 12.432 16 11.872 16H10.108ZM24.766 6.466H17.36V5.598H24.766V6.466ZM24.766 8.062H17.36V7.18H24.766V8.062ZM25.788 4.856H16.352V8.818H25.788V4.856ZM25.732 13.48C25.186 13.844 24.304 14.334 23.562 14.67C22.974 14.306 22.484 13.858 22.106 13.368H27.174V12.57H16.8C16.814 12.304 16.828 12.066 16.828 11.828H25.942V11.114H16.828V10.4H26.95V9.602H15.792V11.506C15.792 12.976 15.666 15.034 14.63 16.546C14.868 16.658 15.33 16.952 15.512 17.134C16.254 16.056 16.576 14.656 16.73 13.368H18.214V15.146C18.214 15.748 17.78 16.056 17.514 16.196C17.682 16.406 17.892 16.826 17.962 17.078C18.2 16.91 18.634 16.798 21.91 15.972C21.91 15.776 21.924 15.384 21.966 15.132L19.194 15.762V13.368H21.098C22.232 15.202 24.262 16.392 26.852 16.854C26.992 16.574 27.244 16.196 27.468 15.986C26.278 15.818 25.228 15.524 24.332 15.09C25.018 14.782 25.816 14.39 26.432 13.97L25.732 13.48ZM32.606 11.506C31.136 12.36 29.624 13.242 28.63 13.76L29.05 14.684C30.156 14.04 31.57 13.2 32.886 12.374L32.606 11.506ZM32.564 10.008C31.99 9.35 30.87 8.272 29.932 7.446L29.134 7.964C30.044 8.79 31.164 9.938 31.724 10.638L32.564 10.008ZM34.342 5.01H28.938V6.018H33.32V15.58C33.32 15.846 33.236 15.916 32.97 15.93C32.718 15.944 31.794 15.944 30.884 15.902C31.038 16.182 31.206 16.686 31.262 16.966C32.424 16.966 33.25 16.952 33.726 16.77C34.188 16.602 34.342 16.266 34.342 15.58V5.01ZM38.808 11.296C37.366 12.108 35.854 12.976 34.846 13.48L35.364 14.418C36.442 13.788 37.814 12.934 39.088 12.136L38.808 11.296ZM38.822 9.896C38.262 9.238 37.114 8.174 36.176 7.39L35.392 7.936C36.316 8.734 37.45 9.896 38.024 10.568L38.822 9.896ZM40.67 5.01H35.168V6.018H39.634V15.566C39.634 15.832 39.536 15.916 39.27 15.93C38.976 15.944 37.968 15.958 36.988 15.902C37.156 16.196 37.31 16.7 37.366 16.98C38.612 16.98 39.522 16.966 40.012 16.784C40.502 16.63 40.67 16.28 40.67 15.566V5.01ZM50.274 10.68L53.284 4.408L52.528 4.156L49.42 10.68L52.528 17.204L53.284 16.952L50.274 10.68ZM52.486 10.68L55.496 4.408L54.74 4.156L51.632 10.68L54.74 17.204L55.496 16.952L52.486 10.68ZM59.29 4.66V5.64H61.782C60.396 7.18 58.31 8.762 56.574 9.574C56.812 9.798 57.092 10.148 57.218 10.414C59.178 9.364 61.558 7.432 63 5.654C64.442 7.516 66.654 9.322 68.768 10.316C68.908 10.05 69.258 9.616 69.468 9.406C67.256 8.482 64.848 6.606 63.546 4.66H59.29ZM63.49 13.41H67.466V12.486H63.49V10.344H66.92V9.406H59.108V10.344H62.426V12.486H58.506V13.41H62.426V15.734H57.12V16.686H68.95V15.734H63.49V13.41ZM77.042 5.752H74.844C74.648 5.29 74.34 4.688 74.046 4.212L73.038 4.478C73.234 4.856 73.472 5.332 73.654 5.752H70.91V6.62H77.042V5.752ZM73.22 8.622C73.164 8.104 72.926 7.32 72.646 6.718L71.82 6.914C72.058 7.53 72.282 8.342 72.352 8.86L73.22 8.622ZM71.988 12.906C71.708 13.816 71.218 14.768 70.672 15.426C70.882 15.538 71.232 15.804 71.4 15.93C71.918 15.23 72.506 14.138 72.842 13.144L71.988 12.906ZM77.098 12.164V11.268H74.564V9.798H77.252V8.916H75.474C75.74 8.328 76.006 7.572 76.258 6.9L75.306 6.704C75.138 7.348 74.816 8.272 74.55 8.916H70.686V9.798H73.542V11.268H70.756V12.164H73.542V17.022H74.564V12.164H77.098ZM75.194 13.2C75.614 13.872 76.118 14.838 76.342 15.44L77.084 15.02C76.846 14.418 76.356 13.508 75.908 12.822L75.194 13.2ZM83.356 8.972H78.904V6.312C80.374 6.088 81.97 5.738 83.118 5.304L82.292 4.534C81.284 4.954 79.506 5.374 77.938 5.626V10.442C77.938 12.304 77.826 14.698 76.65 16.378C76.874 16.49 77.28 16.812 77.448 17.008C78.722 15.188 78.904 12.444 78.904 10.442V9.952H80.822V17.008H81.83V9.952H83.356V8.972ZM89.152 10.386H86.212V7.46H89.152V10.386ZM86.212 14.67V11.31H89.152V14.67H86.212ZM87.388 4.254C87.29 4.912 87.038 5.85 86.828 6.522H85.26V16.714H86.212V15.608H90.104V6.522H87.78C88.018 5.92 88.27 5.15 88.508 4.464L87.388 4.254ZM96.95 6.48H92.764C93.002 5.822 93.198 5.15 93.366 4.464L92.372 4.226C91.924 6.144 91.168 8.076 90.23 9.308C90.454 9.448 90.902 9.728 91.084 9.896C91.574 9.238 92.008 8.384 92.4 7.446H95.956C95.774 13.018 95.564 15.146 95.102 15.636C94.962 15.818 94.808 15.846 94.528 15.846C94.206 15.846 93.366 15.846 92.456 15.762C92.652 16.056 92.778 16.476 92.806 16.784C93.59 16.826 94.388 16.854 94.878 16.798C95.354 16.756 95.676 16.63 95.984 16.238C96.544 15.552 96.726 13.396 96.95 7.012V6.48ZM94.738 12.78C94.29 11.954 93.324 10.61 92.54 9.616L91.728 10.092C92.498 11.1 93.436 12.486 93.856 13.326L94.738 12.78ZM110.852 6.984C110.404 6.326 109.424 5.346 108.626 4.66L107.828 5.206C108.64 5.92 109.592 6.928 110.012 7.586L110.852 6.984ZM109.606 10.036C109.13 10.932 108.514 11.786 107.772 12.584C107.534 11.66 107.338 10.582 107.198 9.392H111.202V8.398H107.086C106.974 7.152 106.918 5.808 106.918 4.408H105.854C105.868 5.78 105.924 7.124 106.05 8.398H102.844V5.962C103.698 5.78 104.51 5.556 105.182 5.318L104.44 4.464C103.124 4.954 100.87 5.43 98.91 5.724C99.05 5.976 99.19 6.34 99.246 6.592C100.072 6.48 100.954 6.34 101.822 6.172V8.398H98.826V9.392H101.822V11.842C100.604 12.094 99.47 12.332 98.63 12.472L98.924 13.522C99.764 13.34 100.772 13.102 101.822 12.878V15.72C101.822 15.972 101.738 16.042 101.486 16.042C101.248 16.056 100.422 16.07 99.526 16.028C99.68 16.322 99.862 16.798 99.918 17.078C101.052 17.078 101.808 17.05 102.242 16.882C102.676 16.714 102.844 16.406 102.844 15.734V12.626C103.698 12.43 104.566 12.234 105.42 12.024L105.35 11.086C104.524 11.268 103.67 11.45 102.844 11.632V9.392H106.134C106.316 10.904 106.582 12.29 106.918 13.452C105.924 14.376 104.776 15.146 103.6 15.72C103.866 15.944 104.16 16.294 104.314 16.546C105.364 16 106.358 15.3 107.268 14.488C107.912 16.126 108.752 17.106 109.858 17.106C110.908 17.106 111.272 16.434 111.468 14.124C111.174 14.026 110.81 13.788 110.586 13.564C110.502 15.356 110.334 16.07 109.956 16.07C109.256 16.07 108.626 15.174 108.094 13.704C109.074 12.71 109.9 11.604 110.53 10.414L109.606 10.036ZM115.472 17.204L118.58 10.68L115.472 4.156L114.716 4.408L117.726 10.68L114.716 16.952L115.472 17.204ZM113.26 17.204L116.368 10.68L113.26 4.156L112.504 4.408L115.514 10.68L112.504 16.952L113.26 17.204Z" fill="#00E0B8"/>
</svg>
