<svg width="207" height="102" viewBox="0 0 207 102" fill="none" xmlns="http://www.w3.org/2000/svg">
<path opacity="0.8" d="M6.41016 51.0801V52H1.89258V51.0801H6.41016ZM2.12109 43.4688V52H0.990234V43.4688H2.12109ZM5.8125 47.1367V48.0566H1.89258V47.1367H5.8125ZM6.35156 43.4688V44.3945H1.89258V43.4688H6.35156ZM10.1191 52H8.33789L8.34961 51.0801H10.1191C10.7285 51.0801 11.2363 50.9531 11.6426 50.6992C12.0488 50.4414 12.3535 50.082 12.5566 49.6211C12.7637 49.1562 12.8672 48.6133 12.8672 47.9922V47.4707C12.8672 46.9824 12.8086 46.5488 12.6914 46.1699C12.5742 45.7871 12.4023 45.4648 12.1758 45.2031C11.9492 44.9375 11.6719 44.7363 11.3438 44.5996C11.0195 44.4629 10.6465 44.3945 10.2246 44.3945H8.30273V43.4688H10.2246C10.7832 43.4688 11.293 43.5625 11.7539 43.75C12.2148 43.9336 12.6113 44.2012 12.9434 44.5527C13.2793 44.9004 13.5371 45.3223 13.7168 45.8184C13.8965 46.3105 13.9863 46.8652 13.9863 47.4824V47.9922C13.9863 48.6094 13.8965 49.166 13.7168 49.6621C13.5371 50.1543 13.2773 50.5742 12.9375 50.9219C12.6016 51.2695 12.1953 51.5371 11.7188 51.7246C11.2461 51.9082 10.7129 52 10.1191 52ZM8.94141 43.4688V52H7.81055V43.4688H8.94141ZM16.043 43.4688H17.1387L19.9336 50.4238L22.7227 43.4688H23.8242L20.3555 52H19.5L16.043 43.4688ZM15.6855 43.4688H16.6523L16.8105 48.6719V52H15.6855V43.4688ZM23.209 43.4688H24.1758V52H23.0508V48.6719L23.209 43.4688ZM27.5599 49.18V49.792H34.7479V49.18H27.5599ZM27.5839 47.704V48.352H34.3759V50.62H27.5839V51.28H35.2639V47.704H27.5839ZM30.6559 48.028V51.64C30.6559 52.624 31.0399 52.864 32.3839 52.864C32.6839 52.864 34.8559 52.864 35.1679 52.864C36.3079 52.864 36.5839 52.492 36.7159 51.028C36.4639 50.98 36.1279 50.86 35.9239 50.716C35.8639 51.928 35.7559 52.144 35.1079 52.144C34.6399 52.144 32.7919 52.144 32.4319 52.144C31.6639 52.144 31.5199 52.06 31.5199 51.652V48.028H30.6559ZM27.1159 47.704V51.904H27.9799V47.704H27.1159ZM26.7799 42.436V43.144H35.5519V42.436H26.7799ZM27.5239 45.184V45.76H30.0679V45.184H27.5239ZM27.2839 46.42V46.984H30.0799V46.42H27.2839ZM32.2039 46.42V46.984H35.0839V46.42H32.2039ZM32.2039 45.184V45.76H34.7959V45.184H32.2039ZM30.6919 42.712V47.296H31.5679V42.712H30.6919ZM26.0839 43.876V46.216H26.8999V44.536H35.4199V46.216H36.2719V43.876H26.0839ZM38.5039 43.024V43.828H47.9239V43.024H38.5039ZM37.8199 45.832V46.648H48.5239V45.832H37.8199ZM40.0279 49.72V50.44H46.3879V49.72H40.0279ZM40.0399 51.76V52.528H46.3999V51.76H40.0399ZM42.6799 41.92V43.468H43.6159V41.92H42.6799ZM39.5839 47.692V52.972H40.4839V48.46H45.9799V52.948H46.9159V47.692H39.5839ZM45.3799 43.792C45.1999 44.356 44.8399 45.16 44.5399 45.676L45.3799 45.904C45.6799 45.424 46.0399 44.692 46.3519 44.032L45.3799 43.792ZM40.1599 44.032C40.4959 44.596 40.7959 45.376 40.8799 45.904L41.8039 45.664C41.7079 45.16 41.3959 44.404 41.0239 43.84L40.1599 44.032ZM54.7159 47.764V48.904H55.6159V47.764H54.7159ZM54.7039 48.748C53.6119 49.672 51.4759 50.44 49.6279 50.776C49.7959 50.944 50.0239 51.244 50.1319 51.448C52.0039 51.052 54.1999 50.152 55.4119 49.084L54.7039 48.748ZM55.7119 48.712L54.9679 48.892C55.8319 51.1 57.5599 52.456 60.1879 52.996C60.3079 52.768 60.5239 52.432 60.7039 52.264C58.1959 51.844 56.4679 50.62 55.7119 48.712ZM59.2639 49.324C58.6399 49.78 57.5719 50.38 56.7919 50.74L57.3559 51.196C58.1479 50.848 59.1559 50.332 59.9239 49.792L59.2639 49.324ZM51.2839 52.12L51.4399 52.876C52.7119 52.672 54.4999 52.384 56.2039 52.108L56.1679 51.376C54.3559 51.664 52.4959 51.952 51.2839 52.12ZM49.8319 48.484V49.216H60.5119V48.484H49.8319ZM56.4799 42.388V46.444H57.2959V42.388H56.4799ZM59.2159 42.04V47.044C59.2159 47.188 59.1799 47.236 58.9999 47.248C58.8199 47.26 58.2319 47.26 57.5719 47.236C57.6919 47.452 57.8239 47.764 57.8599 47.992C58.7119 47.992 59.2639 47.98 59.6119 47.86C59.9479 47.728 60.0559 47.512 60.0559 47.056V42.04H59.2159ZM52.4839 41.92V48.016H53.2759V41.92H52.4839ZM54.7399 45.448V46.924C54.7399 47.02 54.7039 47.044 54.5959 47.056C54.4999 47.068 54.1879 47.068 53.7919 47.056C53.8879 47.224 54.0079 47.44 54.0439 47.632C54.5719 47.632 54.9319 47.632 55.1839 47.524C55.4359 47.416 55.4959 47.248 55.4959 46.912V45.448H54.7399ZM50.3839 45.448V47.704H51.1039V46.06H55.0879V45.448H50.3839ZM49.7839 44.152V44.812H55.8439V44.152H49.7839ZM51.0319 42.784L50.7679 43.42H55.4239V42.784H51.0319ZM50.9239 41.968C50.7079 42.616 50.3719 43.3 49.9519 43.792C50.1319 43.876 50.4559 44.032 50.5999 44.14C50.9839 43.636 51.3799 42.856 51.6319 42.136L50.9239 41.968ZM52.5319 50.452V52.432H53.3959V50.128L52.9879 49.984L52.5319 50.452ZM67.0159 43.936L66.5959 44.8H72.7039V43.936H67.0159ZM68.5159 46.54V47.368H72.4279V46.54H68.5159ZM68.5039 49.18V50.032H72.5959V49.18H68.5039ZM68.0599 44.212V52.96H68.9839V44.212H68.0599ZM67.4719 42.064C66.8839 43.828 65.9119 45.58 64.8199 46.696C65.0239 46.84 65.3839 47.164 65.5159 47.32C66.6199 46.084 67.6639 44.2 68.3479 42.292L67.4719 42.064ZM64.5919 41.968C63.9079 43.792 62.7919 45.592 61.5919 46.756C61.7599 46.972 62.0359 47.452 62.1199 47.668C63.4279 46.324 64.6639 44.272 65.4559 42.244L64.5919 41.968ZM63.3079 45.064V52.948H64.2199V44.176L64.1959 44.164L63.3079 45.064ZM79.4119 41.44H78.9199V53.44H79.4119V41.44ZM89.2031 48.0098H87.041L87.0293 47.1016H88.9922C89.3164 47.1016 89.5996 47.0469 89.8418 46.9375C90.084 46.8281 90.2715 46.6719 90.4043 46.4688C90.541 46.2617 90.6094 46.0156 90.6094 45.7305C90.6094 45.418 90.5488 45.1641 90.4277 44.9688C90.3105 44.7695 90.1289 44.625 89.8828 44.5352C89.6406 44.4414 89.332 44.3945 88.957 44.3945H87.293V52H86.1621V43.4688H88.957C89.3945 43.4688 89.7852 43.5137 90.1289 43.6035C90.4727 43.6895 90.7637 43.8262 91.002 44.0137C91.2441 44.1973 91.4277 44.4316 91.5527 44.7168C91.6777 45.002 91.7402 45.3438 91.7402 45.7422C91.7402 46.0938 91.6504 46.4121 91.4707 46.6973C91.291 46.9785 91.041 47.209 90.7207 47.3887C90.4043 47.5684 90.0332 47.6836 89.6074 47.7344L89.2031 48.0098ZM89.1504 52H86.5957L87.2344 51.0801H89.1504C89.5098 51.0801 89.8145 51.0176 90.0645 50.8926C90.3184 50.7676 90.5117 50.5918 90.6445 50.3652C90.7773 50.1348 90.8438 49.8633 90.8438 49.5508C90.8438 49.2344 90.7871 48.9609 90.6738 48.7305C90.5605 48.5 90.3828 48.3223 90.1406 48.1973C89.8984 48.0723 89.5859 48.0098 89.2031 48.0098H87.5918L87.6035 47.1016H89.8066L90.0469 47.4297C90.457 47.4648 90.8047 47.582 91.0898 47.7812C91.375 47.9766 91.5918 48.2266 91.7402 48.5312C91.8926 48.8359 91.9688 49.1719 91.9688 49.5391C91.9688 50.0703 91.8516 50.5195 91.6172 50.8867C91.3867 51.25 91.0605 51.5273 90.6387 51.7188C90.2168 51.9062 89.7207 52 89.1504 52ZM94.6523 43V52H93.5625V43H94.6523ZM100.131 50.916V47.6523C100.131 47.4023 100.08 47.1855 99.9785 47.002C99.8809 46.8145 99.7324 46.6699 99.5332 46.5684C99.334 46.4668 99.0879 46.416 98.7949 46.416C98.5215 46.416 98.2812 46.4629 98.0742 46.5566C97.8711 46.6504 97.7109 46.7734 97.5938 46.9258C97.4805 47.0781 97.4238 47.2422 97.4238 47.418H96.3398C96.3398 47.1914 96.3984 46.9668 96.5156 46.7441C96.6328 46.5215 96.8008 46.3203 97.0195 46.1406C97.2422 45.957 97.5078 45.8125 97.8164 45.707C98.1289 45.5977 98.4766 45.543 98.8594 45.543C99.3203 45.543 99.7266 45.6211 100.078 45.7773C100.434 45.9336 100.711 46.1699 100.91 46.4863C101.113 46.7988 101.215 47.1914 101.215 47.6641V50.6172C101.215 50.8281 101.232 51.0527 101.268 51.291C101.307 51.5293 101.363 51.7344 101.438 51.9062V52H100.307C100.252 51.875 100.209 51.709 100.178 51.502C100.146 51.291 100.131 51.0957 100.131 50.916ZM100.318 48.1562L100.33 48.918H99.2344C98.9258 48.918 98.6504 48.9434 98.4082 48.9941C98.166 49.041 97.9629 49.1133 97.7988 49.2109C97.6348 49.3086 97.5098 49.4316 97.4238 49.5801C97.3379 49.7246 97.2949 49.8945 97.2949 50.0898C97.2949 50.2891 97.3398 50.4707 97.4297 50.6348C97.5195 50.7988 97.6543 50.9297 97.834 51.0273C98.0176 51.1211 98.2422 51.168 98.5078 51.168C98.8398 51.168 99.1328 51.0977 99.3867 50.957C99.6406 50.8164 99.8418 50.6445 99.9902 50.4414C100.143 50.2383 100.225 50.041 100.236 49.8496L100.699 50.3711C100.672 50.5352 100.598 50.7168 100.477 50.916C100.355 51.1152 100.193 51.3066 99.9902 51.4902C99.791 51.6699 99.5527 51.8203 99.2754 51.9414C99.002 52.0586 98.6934 52.1172 98.3496 52.1172C97.9199 52.1172 97.543 52.0332 97.2188 51.8652C96.8984 51.6973 96.6484 51.4727 96.4688 51.1914C96.293 50.9062 96.2051 50.5879 96.2051 50.2363C96.2051 49.8965 96.2715 49.5977 96.4043 49.3398C96.5371 49.0781 96.7285 48.8613 96.9785 48.6895C97.2285 48.5137 97.5293 48.3809 97.8809 48.291C98.2324 48.2012 98.625 48.1562 99.0586 48.1562H100.318ZM107.643 51.1094V52H103.031V51.1094H107.643ZM107.473 46.4277L103.277 52H102.615V51.2031L106.781 45.6602H107.473V46.4277ZM106.992 45.6602V46.5566H102.662V45.6602H106.992ZM111.41 52.1172C110.969 52.1172 110.568 52.043 110.209 51.8945C109.854 51.7422 109.547 51.5293 109.289 51.2559C109.035 50.9824 108.84 50.6582 108.703 50.2832C108.566 49.9082 108.498 49.498 108.498 49.0527V48.8066C108.498 48.291 108.574 47.832 108.727 47.4297C108.879 47.0234 109.086 46.6797 109.348 46.3984C109.609 46.1172 109.906 45.9043 110.238 45.7598C110.57 45.6152 110.914 45.543 111.27 45.543C111.723 45.543 112.113 45.6211 112.441 45.7773C112.773 45.9336 113.045 46.1523 113.256 46.4336C113.467 46.7109 113.623 47.0391 113.725 47.418C113.826 47.793 113.877 48.2031 113.877 48.6484V49.1348H109.143V48.25H112.793V48.168C112.777 47.8867 112.719 47.6133 112.617 47.3477C112.52 47.082 112.363 46.8633 112.148 46.6914C111.934 46.5195 111.641 46.4336 111.27 46.4336C111.023 46.4336 110.797 46.4863 110.59 46.5918C110.383 46.6934 110.205 46.8457 110.057 47.0488C109.908 47.252 109.793 47.5 109.711 47.793C109.629 48.0859 109.588 48.4238 109.588 48.8066V49.0527C109.588 49.3535 109.629 49.6367 109.711 49.9023C109.797 50.1641 109.92 50.3945 110.08 50.5938C110.244 50.793 110.441 50.9492 110.672 51.0625C110.906 51.1758 111.172 51.2324 111.469 51.2324C111.852 51.2324 112.176 51.1543 112.441 50.998C112.707 50.8418 112.939 50.6328 113.139 50.3711L113.795 50.8926C113.658 51.0996 113.484 51.2969 113.273 51.4844C113.062 51.6719 112.803 51.8242 112.494 51.9414C112.189 52.0586 111.828 52.1172 111.41 52.1172Z" fill="white"/>
<path d="M202.929 25.1299L0 25.1299L0 26.0199L202.929 26.0199V25.1299Z" fill="white"/>
<path d="M207 22L190 22V29H207V22Z" fill="#00E0B8"/>
<path d="M1.4 16H2.576V10.316C2.576 9.434 2.478 8.188 2.422 7.292H2.478L3.29 9.63L5.236 14.964H6.104L8.05 9.63L8.862 7.292H8.918C8.848 8.188 8.75 9.434 8.75 10.316V16H9.968V5.724H8.4L6.44 11.226C6.202 11.94 5.978 12.654 5.74 13.368H5.67C5.418 12.654 5.18 11.94 4.942 11.226L2.968 5.724H1.4V16ZM15.6033 16.182C17.4653 16.182 19.1313 14.726 19.1313 12.206C19.1313 9.672 17.4653 8.202 15.6033 8.202C13.7413 8.202 12.0753 9.672 12.0753 12.206C12.0753 14.726 13.7413 16.182 15.6033 16.182ZM15.6033 15.118C14.2873 15.118 13.4053 13.956 13.4053 12.206C13.4053 10.456 14.2873 9.266 15.6033 9.266C16.9193 9.266 17.8153 10.456 17.8153 12.206C17.8153 13.956 16.9193 15.118 15.6033 15.118ZM21.1396 16H22.4136V11.114C22.9176 9.812 23.7016 9.364 24.3316 9.364C24.6396 9.364 24.8216 9.392 25.0736 9.49L25.3116 8.37C25.0736 8.244 24.8356 8.202 24.4996 8.202C23.6456 8.202 22.8756 8.818 22.3436 9.784H22.3016L22.1896 8.398H21.1396V16ZM26.5673 16H27.8413V10.484C28.6113 9.714 29.1433 9.322 29.9273 9.322C30.9353 9.322 31.3693 9.924 31.3693 11.352V16H32.6433V11.184C32.6433 9.238 31.9153 8.202 30.3193 8.202C29.2833 8.202 28.4993 8.776 27.7713 9.49H27.7293L27.6173 8.398H26.5673V16ZM35.1259 16H36.3999V8.398H35.1259V16ZM35.7699 6.83C36.2739 6.83 36.6239 6.494 36.6239 5.976C36.6239 5.486 36.2739 5.15 35.7699 5.15C35.2659 5.15 34.9159 5.486 34.9159 5.976C34.9159 6.494 35.2659 6.83 35.7699 6.83ZM38.9814 16H40.2554V10.484C41.0254 9.714 41.5574 9.322 42.3414 9.322C43.3494 9.322 43.7834 9.924 43.7834 11.352V16H45.0574V11.184C45.0574 9.238 44.3294 8.202 42.7334 8.202C41.6974 8.202 40.9134 8.776 40.1854 9.49H40.1434L40.0314 8.398H38.9814V16ZM50.102 19.5C52.454 19.5 53.952 18.282 53.952 16.868C53.952 15.622 53.056 15.062 51.292 15.062H49.808C48.786 15.062 48.478 14.726 48.478 14.236C48.478 13.816 48.688 13.564 48.968 13.326C49.304 13.494 49.724 13.592 50.102 13.592C51.642 13.592 52.874 12.57 52.874 10.946C52.874 10.288 52.622 9.728 52.258 9.378H53.812V8.398H51.166C50.9 8.3 50.522 8.202 50.102 8.202C48.562 8.202 47.246 9.252 47.246 10.918C47.246 11.828 47.736 12.556 48.24 12.962V13.018C47.848 13.298 47.386 13.802 47.386 14.432C47.386 15.034 47.68 15.44 48.086 15.678V15.734C47.372 16.196 46.966 16.812 46.966 17.456C46.966 18.772 48.24 19.5 50.102 19.5ZM50.102 12.724C49.22 12.724 48.478 12.024 48.478 10.918C48.478 9.798 49.206 9.14 50.102 9.14C50.998 9.14 51.726 9.812 51.726 10.918C51.726 12.024 50.97 12.724 50.102 12.724ZM50.284 18.632C48.912 18.632 48.086 18.1 48.086 17.288C48.086 16.84 48.31 16.392 48.856 16C49.192 16.084 49.556 16.126 49.836 16.126H51.152C52.16 16.126 52.706 16.364 52.706 17.064C52.706 17.862 51.74 18.632 50.284 18.632ZM58.6715 16H59.9735V12.752L61.7375 10.652L64.8175 16H66.2595L62.5495 9.644L65.7555 5.724H64.2995L60.0155 10.89H59.9735V5.724H58.6715V16ZM67.6103 16H68.8843V8.398H67.6103V16ZM68.2543 6.83C68.7583 6.83 69.1083 6.494 69.1083 5.976C69.1083 5.486 68.7583 5.15 68.2543 5.15C67.7503 5.15 67.4003 5.486 67.4003 5.976C67.4003 6.494 67.7503 6.83 68.2543 6.83ZM71.4657 16H72.7397V10.484C73.5097 9.714 74.0417 9.322 74.8257 9.322C75.8337 9.322 76.2677 9.924 76.2677 11.352V16H77.5417V11.184C77.5417 9.238 76.8137 8.202 75.2177 8.202C74.1817 8.202 73.3977 8.776 72.6697 9.49H72.6277L72.5157 8.398H71.4657V16ZM82.5863 19.5C84.9383 19.5 86.4363 18.282 86.4363 16.868C86.4363 15.622 85.5403 15.062 83.7763 15.062H82.2923C81.2703 15.062 80.9623 14.726 80.9623 14.236C80.9623 13.816 81.1723 13.564 81.4523 13.326C81.7883 13.494 82.2083 13.592 82.5863 13.592C84.1263 13.592 85.3583 12.57 85.3583 10.946C85.3583 10.288 85.1063 9.728 84.7423 9.378H86.2963V8.398H83.6503C83.3843 8.3 83.0063 8.202 82.5863 8.202C81.0463 8.202 79.7303 9.252 79.7303 10.918C79.7303 11.828 80.2203 12.556 80.7243 12.962V13.018C80.3323 13.298 79.8703 13.802 79.8703 14.432C79.8703 15.034 80.1643 15.44 80.5703 15.678V15.734C79.8563 16.196 79.4503 16.812 79.4503 17.456C79.4503 18.772 80.7243 19.5 82.5863 19.5ZM82.5863 12.724C81.7043 12.724 80.9623 12.024 80.9623 10.918C80.9623 9.798 81.6903 9.14 82.5863 9.14C83.4823 9.14 84.2103 9.812 84.2103 10.918C84.2103 12.024 83.4543 12.724 82.5863 12.724ZM82.7683 18.632C81.3963 18.632 80.5703 18.1 80.5703 17.288C80.5703 16.84 80.7943 16.392 81.3403 16C81.6763 16.084 82.0403 16.126 82.3203 16.126H83.6363C84.6443 16.126 85.1903 16.364 85.1903 17.064C85.1903 17.862 84.2243 18.632 82.7683 18.632ZM90.2979 16.182C91.2079 16.182 92.0059 15.692 92.6079 15.104H92.6499L92.7619 16H93.7979V4.856H92.5379V7.782L92.5939 9.098C91.9219 8.538 91.3479 8.202 90.4519 8.202C88.7159 8.202 87.1619 9.742 87.1619 12.206C87.1619 14.74 88.3939 16.182 90.2979 16.182ZM90.5779 15.118C89.2339 15.118 88.4779 14.026 88.4779 12.192C88.4779 10.456 89.4439 9.28 90.6759 9.28C91.3059 9.28 91.8799 9.504 92.5379 10.078V14.068C91.8939 14.768 91.2779 15.118 90.5779 15.118ZM99.3436 16.182C101.206 16.182 102.872 14.726 102.872 12.206C102.872 9.672 101.206 8.202 99.3436 8.202C97.4816 8.202 95.8156 9.672 95.8156 12.206C95.8156 14.726 97.4816 16.182 99.3436 16.182ZM99.3436 15.118C98.0276 15.118 97.1456 13.956 97.1456 12.206C97.1456 10.456 98.0276 9.266 99.3436 9.266C100.66 9.266 101.556 10.456 101.556 12.206C101.556 13.956 100.66 15.118 99.3436 15.118ZM104.88 16H106.154V10.484C106.854 9.7 107.498 9.322 108.072 9.322C109.038 9.322 109.486 9.924 109.486 11.352V16H110.76V10.484C111.474 9.7 112.09 9.322 112.678 9.322C113.644 9.322 114.092 9.924 114.092 11.352V16H115.366V11.184C115.366 9.238 114.624 8.202 113.056 8.202C112.132 8.202 111.334 8.804 110.55 9.658C110.242 8.762 109.612 8.202 108.45 8.202C107.54 8.202 106.742 8.776 106.084 9.504H106.042L105.93 8.398H104.88V16Z" fill="#00E0B8"/>
</svg>
