<svg width="160" height="39" viewBox="0 0 160 39" fill="none" xmlns="http://www.w3.org/2000/svg">
<rect x="0.5" y="1.33984" width="159" height="37" rx="9.5" fill="black" stroke="url(#paint0_linear_95_36)"/>
<path d="M41.84 13.9618V15.6718H52.046V13.9618H41.84ZM47.366 27.1738C48.608 27.8218 50.282 28.8298 51.074 29.4958L52.478 28.0018C51.614 27.3538 49.904 26.4178 48.68 25.8418L47.366 27.1738ZM44.774 25.8058C43.838 26.5438 42.038 27.4618 40.616 27.9658C41.066 28.3798 41.642 29.0098 41.966 29.4238C43.388 28.8658 45.26 27.9298 46.484 27.0838L44.774 25.8058ZM41.264 24.3478V26.1838H52.478V24.3478H41.264ZM43.568 18.7138V19.8298H50.3V18.7138H43.568ZM43.568 20.5318V21.6838H50.426V20.5318H43.568ZM43.586 22.4218V23.5918H50.12V22.4218H43.586ZM42.668 16.5718V24.8878H44.54V17.9578H49.13V24.8878H51.074V16.5718H42.668ZM45.818 12.5938C45.71 14.1058 45.404 16.1938 45.098 17.5618L46.862 17.7418C47.276 16.4638 47.78 14.4658 48.104 12.6658L45.818 12.5938ZM35.63 16.7338V18.7678H41.318V16.7338H35.63ZM37.43 12.8098V24.8338H39.464V12.8098H37.43ZM35.396 25.0858L36.17 27.2458C37.736 26.6698 39.662 25.9138 41.462 25.1758L41.12 23.2678C39.032 23.9698 36.818 24.6898 35.396 25.0858ZM60.794 18.5698V29.4598H63.044V18.5698H60.794ZM57.77 21.7558H66.284V22.7278H57.77V21.7558ZM57.77 19.2538H66.284V20.2078H57.77V19.2538ZM55.646 17.5978V24.3838H68.498V17.5978H55.646ZM53.954 25.3198V27.1738H70.082V25.3198H53.954ZM56.924 14.5558H59.462V15.5998H56.924V14.5558ZM54.998 13.2598V16.8778H61.478V13.2598H54.998ZM64.466 14.5558H67.058V15.5998H64.466V14.5558ZM62.558 13.2598V16.8778H69.074V13.2598H62.558ZM71.864 24.3658V26.2018H88.136V24.3658H71.864ZM73.628 21.2338V22.9078H84.41V21.2338H73.628ZM78.812 23.5918V27.3898C78.812 27.6418 78.686 27.7138 78.344 27.7318C78.038 27.7498 76.616 27.7498 75.572 27.6958C75.86 28.1998 76.184 28.9198 76.31 29.4778C77.894 29.4778 79.082 29.4778 79.928 29.2438C80.792 28.9738 81.098 28.5238 81.098 27.4798V23.5918H78.812ZM83.942 21.2158V21.6118C82.916 22.2778 80.72 23.1238 78.812 23.5738C79.082 23.8618 79.586 24.4198 79.82 24.7618C82.196 24.2038 84.536 23.3218 86.372 22.3318L85.004 21.1258L84.536 21.2158H83.942ZM76.364 18.0118H83.618V19.0198H76.364V18.0118ZM74.204 16.5358V20.4958H85.904V16.5358H74.204ZM72.116 13.8898V15.7078H87.83V13.8898H72.116ZM78.398 12.7918C78.686 13.5298 78.956 14.5018 79.046 15.1138L81.368 14.6818C81.278 14.0518 80.954 13.1158 80.612 12.4138L78.398 12.7918ZM90.998 13.3678C91.502 14.2138 92.132 15.3658 92.42 16.0678L94.148 15.2038C93.86 14.5198 93.23 13.4578 92.708 12.6298L90.998 13.3678ZM100.142 22.2598V28.2538H102.068V22.2598H100.142ZM99.188 17.5078H103.22V18.7858H99.188V17.5078ZM97.28 15.8698V20.4238H105.218V15.8698H97.28ZM96.362 21.2158V29.4418H98.36V22.9438H103.922V29.4238H105.992V21.2158H96.362ZM97.514 24.1498V25.7518H105.002V24.1498H97.514ZM97.532 26.9938V28.7218H105.02V26.9938H97.532ZM96.272 13.3138V15.1318H106.064V13.3138H96.272ZM89.882 15.8878V17.8318H95.264V15.8878H89.882ZM94.346 20.0998L93.14 21.1258C93.752 21.7738 94.976 23.1238 95.534 23.8978L96.794 22.1698C96.416 21.8098 94.85 20.4238 94.346 20.0998ZM94.472 15.8878V16.2838C93.59 18.9118 91.448 21.5578 89.198 22.9078C89.522 23.3038 90.044 24.3838 90.224 24.9598C92.708 23.2498 95.21 20.0638 96.452 16.5718L95.264 15.8158L94.904 15.8878H94.472ZM92.042 22.0438V29.4598H94.148V19.5058L92.042 22.0438ZM107.774 17.9038V19.9018H116.414V17.9038H107.774ZM117.278 14.7358V24.8518H119.384V14.7358H117.278ZM111.212 14.3398V29.4418H113.336V14.3398H111.212ZM121.544 12.8998V26.8138C121.544 27.1558 121.4 27.2638 121.058 27.2638C120.68 27.2638 119.528 27.2638 118.34 27.2278C118.646 27.8398 118.988 28.8298 119.096 29.4598C120.752 29.4598 121.94 29.3878 122.696 29.0458C123.434 28.6858 123.686 28.0918 123.686 26.8138V12.8998H121.544ZM114.83 12.6298C113.084 13.4218 110.186 14.0878 107.558 14.4838C107.81 14.9338 108.116 15.6898 108.206 16.1758C110.924 15.7978 114.092 15.1858 116.378 14.2858L114.83 12.6298ZM111.194 18.8578C110.474 20.9638 108.908 23.5918 107.36 25.0858C107.72 25.6618 108.26 26.5618 108.476 27.2098C110.168 25.4098 111.752 22.1878 112.652 19.4878L111.194 18.8578ZM113.012 20.6758L111.896 21.7918C112.778 22.6018 114.452 24.3478 115.244 25.3198L116.468 23.4658C115.946 22.9978 113.714 21.1258 113.012 20.6758Z" fill="white"/>
<defs>
<linearGradient id="paint0_linear_95_36" x1="25.5755" y1="5.87263" x2="36.4965" y2="55.3512" gradientUnits="userSpaceOnUse">
<stop stop-color="#FFF176"/>
<stop offset="1" stop-color="#00E0B8"/>
</linearGradient>
</defs>
</svg>
