<svg width="207" height="102" viewBox="0 0 207 102" fill="none" xmlns="http://www.w3.org/2000/svg">
<path opacity="0.8" d="M5.544 47.764V48.904H6.444V47.764H5.544ZM5.532 48.748C4.44 49.672 2.304 50.44 0.456 50.776C0.624 50.944 0.852 51.244 0.96 51.448C2.832 51.052 5.028 50.152 6.24 49.084L5.532 48.748ZM6.54 48.712L5.796 48.892C6.66 51.1 8.388 52.456 11.016 52.996C11.136 52.768 11.352 52.432 11.532 52.264C9.024 51.844 7.296 50.62 6.54 48.712ZM10.092 49.324C9.468 49.78 8.4 50.38 7.62 50.74L8.184 51.196C8.976 50.848 9.984 50.332 10.752 49.792L10.092 49.324ZM2.112 52.12L2.268 52.876C3.54 52.672 5.328 52.384 7.032 52.108L6.996 51.376C5.184 51.664 3.324 51.952 2.112 52.12ZM0.66 48.484V49.216H11.34V48.484H0.66ZM7.308 42.388V46.444H8.124V42.388H7.308ZM10.044 42.04V47.044C10.044 47.188 10.008 47.236 9.828 47.248C9.648 47.26 9.06 47.26 8.4 47.236C8.52 47.452 8.652 47.764 8.688 47.992C9.54 47.992 10.092 47.98 10.44 47.86C10.776 47.728 10.884 47.512 10.884 47.056V42.04H10.044ZM3.312 41.92V48.016H4.104V41.92H3.312ZM5.568 45.448V46.924C5.568 47.02 5.532 47.044 5.424 47.056C5.328 47.068 5.016 47.068 4.62 47.056C4.716 47.224 4.836 47.44 4.872 47.632C5.4 47.632 5.76 47.632 6.012 47.524C6.264 47.416 6.324 47.248 6.324 46.912V45.448H5.568ZM1.212 45.448V47.704H1.932V46.06H5.916V45.448H1.212ZM0.612 44.152V44.812H6.672V44.152H0.612ZM1.86 42.784L1.596 43.42H6.252V42.784H1.86ZM1.752 41.968C1.536 42.616 1.2 43.3 0.78 43.792C0.96 43.876 1.284 44.032 1.428 44.14C1.812 43.636 2.208 42.856 2.46 42.136L1.752 41.968ZM3.36 50.452V52.432H4.224V50.128L3.816 49.984L3.36 50.452ZM17.844 43.936L17.424 44.8H23.532V43.936H17.844ZM19.344 46.54V47.368H23.256V46.54H19.344ZM19.332 49.18V50.032H23.424V49.18H19.332ZM18.888 44.212V52.96H19.812V44.212H18.888ZM18.3 42.064C17.712 43.828 16.74 45.58 15.648 46.696C15.852 46.84 16.212 47.164 16.344 47.32C17.448 46.084 18.492 44.2 19.176 42.292L18.3 42.064ZM15.42 41.968C14.736 43.792 13.62 45.592 12.42 46.756C12.588 46.972 12.864 47.452 12.948 47.668C14.256 46.324 15.492 44.272 16.284 42.244L15.42 41.968ZM14.136 45.064V52.948H15.048V44.176L15.024 44.164L14.136 45.064ZM29.376 42.292C29.292 43.888 29.292 49.66 24.396 52.156C24.672 52.36 24.972 52.636 25.128 52.864C30.096 50.164 30.276 44.176 30.372 42.292H29.376ZM30.336 42.532L29.472 42.616C29.556 43.72 29.892 50.428 34.98 52.864C35.124 52.612 35.4 52.312 35.664 52.108C30.72 49.84 30.372 43.468 30.336 42.532ZM40.5996 43.4688L37.043 52.7324H36.1113L39.6738 43.4688H40.5996ZM46.165 42.52V43.36H51.649V42.52H46.165ZM46.177 44.536V45.328H50.341V44.536H46.177ZM46.465 46.396V51.004H47.257V46.396H46.465ZM46.921 46.396V47.176H49.081V49.396H46.921V50.176H49.897V46.396H46.921ZM51.205 42.52V51.748C51.205 51.964 51.133 52.036 50.905 52.036C50.677 52.048 49.873 52.06 49.057 52.024C49.189 52.288 49.321 52.708 49.369 52.96C50.449 52.96 51.145 52.948 51.553 52.792C51.949 52.636 52.081 52.348 52.081 51.76V42.52H51.205ZM41.977 45.556V46.276H45.493V45.556H41.977ZM42.013 42.352V43.072H45.445V42.352H42.013ZM41.977 47.164V47.884H45.493V47.164H41.977ZM41.413 43.924V44.668H45.829V43.924H41.413ZM42.373 48.784V49.528H44.701V51.532H42.373V52.288H45.493V48.784H42.373ZM41.965 48.784V52.84H42.745V48.784H41.965ZM57.5566 43.4688L54 52.7324H53.0684L56.6309 43.4688H57.5566ZM59.6541 51.316V52.204H68.1981V51.316H59.6541ZM59.6421 47.812V48.664H68.3181V47.812H59.6421ZM59.0901 44.32V52.972H59.9421V45.196H67.8981V52.912H68.7861V44.32H59.0901ZM61.9701 42.052V51.904H62.8461V42.052H61.9701ZM64.8741 42.052V51.856H65.7621V42.052H64.8741ZM76.1541 41.44H75.6621V53.44H76.1541V41.44ZM83.7621 45.7V46.54H88.2501V45.7H83.7621ZM83.3301 43.144V51.424H84.1701V43.444L83.3301 43.144ZM82.3341 51.208L82.5021 52.132C84.0621 51.868 86.3301 51.496 88.4421 51.124L88.3941 50.26C86.1741 50.62 83.8341 51.004 82.3341 51.208ZM87.2061 41.932C86.3541 42.448 84.8541 43.012 83.5341 43.396C83.6541 43.576 83.7981 43.888 83.8461 44.092C85.2501 43.708 86.8581 43.168 87.9741 42.58L87.2061 41.932ZM86.1141 46.06V51.1L86.9301 50.992V46.06H86.1141ZM88.7541 42.688V53.008H89.6301V43.54H92.5941V42.688H88.7541ZM92.3661 42.688V42.988C91.9461 43.948 91.2381 45.592 90.5661 46.804C91.8981 47.848 92.3061 48.736 92.3061 49.492C92.3061 49.924 92.2101 50.26 91.9341 50.416C91.7661 50.512 91.5621 50.548 91.3581 50.56C91.0821 50.572 90.7101 50.572 90.3261 50.536C90.4821 50.8 90.5781 51.196 90.5901 51.448C90.9621 51.472 91.3941 51.472 91.7301 51.436C92.0661 51.4 92.3421 51.304 92.5701 51.172C93.0261 50.872 93.2181 50.32 93.2061 49.576C93.2061 48.724 92.8821 47.776 91.5501 46.672C92.1501 45.592 92.8341 44.236 93.3621 43.084L92.6901 42.652L92.5461 42.688H92.3661ZM97.0461 43.216H102.902V44.104H97.0461V43.216ZM96.1821 42.616V44.704H103.802V42.616H96.1821ZM99.4581 41.92V45.652H100.346V41.92H99.4581ZM94.5621 45.352V46.06H105.266V45.352H94.5621ZM96.9621 48.532H102.998V49.276H96.9621V48.532ZM96.9621 49.84H102.998V50.596H96.9621V49.84ZM96.9621 47.236H102.998V47.968H96.9621V47.236ZM96.0861 46.648V51.172H103.898V46.648H96.0861ZM100.886 51.772C102.194 52.156 103.49 52.624 104.246 52.972L105.278 52.516C104.402 52.156 102.95 51.676 101.63 51.316L100.886 51.772ZM98.1141 51.292C97.2501 51.724 95.7981 52.096 94.5501 52.336C94.7541 52.492 95.0661 52.828 95.2101 53.008C96.4101 52.708 97.9461 52.192 98.9181 51.652L98.1141 51.292ZM110.354 46.912V47.68H117.446V46.912H110.354ZM111.53 48.532V49.252H116.606V48.532H111.53ZM112.154 47.128C111.638 48.268 110.702 49.3 109.694 49.972C109.874 50.092 110.162 50.368 110.294 50.512C111.29 49.756 112.31 48.604 112.898 47.332L112.154 47.128ZM112.982 48.652C112.346 50.056 111.206 51.292 109.934 52.072C110.114 52.192 110.402 52.48 110.522 52.612C111.782 51.76 112.994 50.416 113.714 48.856L112.982 48.652ZM114.746 48.7C114.29 50.248 113.414 51.616 112.31 52.48C112.502 52.6 112.814 52.84 112.946 52.972C114.038 52.024 114.974 50.56 115.502 48.868L114.746 48.7ZM116.222 48.532V48.664C116.09 50.992 115.946 51.868 115.718 52.096C115.622 52.204 115.514 52.216 115.346 52.216C115.154 52.216 114.698 52.216 114.194 52.168C114.314 52.372 114.398 52.708 114.41 52.936C114.926 52.96 115.43 52.96 115.706 52.936C116.006 52.924 116.21 52.84 116.402 52.636C116.702 52.288 116.87 51.352 117.014 48.892C117.026 48.772 117.038 48.532 117.038 48.532H116.222ZM111.974 44.536H115.73V45.484H111.974V44.536ZM111.974 42.964H115.73V43.9H111.974V42.964ZM111.146 42.304V46.144H116.57V42.304H111.146ZM106.238 48.304L106.442 49.192C107.51 48.868 108.89 48.436 110.198 48.028L110.09 47.224C108.674 47.632 107.21 48.064 106.238 48.304ZM106.442 44.344V45.184H110.138V44.344H106.442ZM108.074 41.932V51.868C108.074 52.048 108.002 52.096 107.846 52.096C107.702 52.108 107.198 52.108 106.658 52.084C106.778 52.336 106.898 52.732 106.934 52.96C107.714 52.96 108.206 52.936 108.518 52.78C108.83 52.636 108.938 52.384 108.938 51.868V41.932H108.074ZM128.427 42.748V43.588H135.423V42.748H128.427ZM133.527 43.168V51.832C133.527 52.072 133.431 52.144 133.179 52.156C132.915 52.168 132.027 52.168 131.079 52.144C131.199 52.384 131.343 52.732 131.391 52.96C132.627 52.972 133.359 52.96 133.791 52.828C134.211 52.696 134.391 52.456 134.391 51.832V43.168H133.527ZM129.243 45.292V46.072H131.439V48.868H129.243V49.648H132.243V45.292H129.243ZM128.835 45.292V50.56H129.627V45.292H128.835ZM124.827 42.448V52.972H125.643V43.264H127.623V42.448H124.827ZM127.407 42.448V42.688C127.155 43.504 126.711 44.884 126.267 45.976C127.143 46.924 127.359 47.764 127.359 48.424C127.359 48.784 127.287 49.12 127.107 49.252C126.999 49.324 126.879 49.348 126.723 49.36C126.531 49.384 126.303 49.372 126.027 49.348C126.159 49.576 126.243 49.924 126.255 50.14C126.519 50.152 126.819 50.152 127.059 50.128C127.311 50.092 127.515 50.02 127.683 49.9C128.019 49.66 128.163 49.144 128.163 48.496C128.163 47.752 127.959 46.876 127.083 45.88C127.491 44.92 127.935 43.744 128.283 42.76L127.695 42.412L127.563 42.448H127.407ZM136.539 48.784V49.588H147.195V48.784H136.539ZM141.375 47.668V52.936H142.287V47.668H141.375ZM140.967 49.096C139.983 50.368 138.051 51.508 136.299 52.048C136.503 52.228 136.767 52.576 136.911 52.804C138.663 52.168 140.619 50.884 141.711 49.432L140.967 49.096ZM142.707 49.12L141.951 49.48C143.043 50.896 144.999 52.12 146.823 52.72C146.955 52.48 147.231 52.132 147.423 51.952C145.599 51.46 143.679 50.368 142.707 49.12ZM140.907 45.796H142.791V47.116H140.907V45.796ZM140.907 43.816H142.791V45.112H140.907V43.816ZM140.127 43.108V47.824H143.583V43.108H140.127ZM141.531 41.92C141.459 42.352 141.291 42.988 141.147 43.408L141.855 43.564C142.035 43.18 142.239 42.604 142.431 42.064L141.531 41.92ZM136.623 44.26C137.223 44.752 137.931 45.448 138.243 45.928L138.663 45.268C138.351 44.812 137.631 44.14 137.019 43.684L136.623 44.26ZM138.807 46.024C139.155 46.708 139.491 47.632 139.587 48.208L140.223 47.956C140.115 47.404 139.767 46.504 139.407 45.832L138.807 46.024ZM139.107 43.672C138.615 44.764 137.739 46.3 137.043 47.236L137.631 47.512C138.327 46.588 139.179 45.136 139.815 43.948L139.107 43.672ZM138.171 42.004C137.931 42.7 137.475 43.684 137.127 44.296L137.727 44.56C138.099 43.96 138.531 43.048 138.891 42.268L138.171 42.004ZM136.515 47.164L136.611 47.944C137.487 47.8 138.555 47.656 139.659 47.476L139.647 46.828C138.459 46.96 137.331 47.092 136.515 47.164ZM143.511 44.164C144.147 44.716 144.867 45.496 145.179 46.024L145.647 45.4C145.323 44.896 144.591 44.14 143.967 43.612L143.511 44.164ZM145.743 45.928C146.151 46.684 146.547 47.668 146.667 48.304L147.339 48.028C147.207 47.416 146.787 46.432 146.367 45.7L145.743 45.928ZM146.043 43.66C145.551 44.764 144.639 46.312 143.931 47.26L144.519 47.536C145.239 46.6 146.115 45.136 146.751 43.948L146.043 43.66ZM145.167 41.968C144.927 42.664 144.459 43.648 144.099 44.26L144.699 44.524C145.083 43.924 145.527 43.024 145.899 42.232L145.167 41.968ZM143.559 47.164L143.667 47.944C144.543 47.824 145.635 47.68 146.739 47.536L146.727 46.876C145.539 46.984 144.399 47.092 143.559 47.164ZM7.38 70.076V74.852H7.992V70.076H7.38ZM8.916 70.076V74.852H9.54V70.076H8.916ZM4.692 64.652V65.444H11.304V64.652H4.692ZM6.144 71.936V72.62H10.932V71.936H6.144ZM5.16 66.236V68.876C5.16 70.496 5.04 72.704 3.876 74.288C4.056 74.384 4.404 74.636 4.536 74.792C5.772 73.112 5.976 70.616 5.976 68.888V66.236H5.16ZM5.52 66.236V66.98H10.14V68.276H5.52V69.02H11.004V66.236H5.52ZM5.808 69.836V74.972H6.48V70.544H10.98V69.836H5.808ZM10.5 69.836V74.096C10.5 74.204 10.476 74.228 10.392 74.228C10.296 74.228 10.056 74.228 9.756 74.216C9.852 74.432 9.972 74.744 9.996 74.96C10.452 74.96 10.764 74.936 10.98 74.828C11.208 74.684 11.256 74.468 11.256 74.108V69.836H10.5ZM2.352 63.932C2.052 64.724 1.5 65.9 1.08 66.596L1.68 66.86C2.124 66.188 2.688 65.108 3.12 64.22L2.352 63.932ZM3.624 65.3C3 66.56 1.92 68.348 1.068 69.416L1.608 69.704C2.472 68.672 3.576 66.968 4.368 65.636L3.624 65.3ZM0.432 66.416C1.068 67.016 1.788 67.868 2.088 68.444L2.592 67.784C2.28 67.244 1.548 66.428 0.912 65.84L0.432 66.416ZM3.168 68.012C3.612 68.828 4.02 69.908 4.152 70.58L4.824 70.292C4.704 69.62 4.26 68.564 3.804 67.772L3.168 68.012ZM0.336 69.236L0.432 70.04C1.476 69.968 2.844 69.884 4.2 69.8V69.032C2.76 69.116 1.332 69.188 0.336 69.236ZM3.396 70.928C3.672 71.624 3.9 72.536 3.96 73.136L4.632 72.932C4.572 72.344 4.32 71.432 4.032 70.748L3.396 70.928ZM1.056 70.784C0.924 71.828 0.696 72.908 0.312 73.64C0.492 73.712 0.84 73.868 0.984 73.976C1.356 73.208 1.644 72.044 1.8 70.916L1.056 70.784ZM2.268 69.584V74.96H3.048V69.584H2.268ZM13.74 73.316V74.204H22.284V73.316H13.74ZM13.728 69.812V70.664H22.404V69.812H13.728ZM13.176 66.32V74.972H14.028V67.196H21.984V74.912H22.872V66.32H13.176ZM16.056 64.052V73.904H16.932V64.052H16.056ZM18.96 64.052V73.856H19.848V64.052H18.96ZM30.24 63.44H29.748V75.44H30.24V63.44ZM40.368 65.18V65.972H47.316V65.18H40.368ZM43.356 63.932V74.96H44.232V63.932H43.356ZM44.604 70.604L43.956 70.82C44.604 72.236 45.816 73.64 47.028 74.348C47.16 74.132 47.436 73.808 47.628 73.64C46.44 73.064 45.228 71.84 44.604 70.604ZM41.664 69.332H45.972V70.4H41.664V69.332ZM41.664 67.628H45.972V68.684H41.664V67.628ZM40.86 66.956V71.084H46.812V66.956H40.86ZM42.948 70.616C42.264 71.864 40.92 73.112 39.636 73.7C39.84 73.88 40.116 74.192 40.248 74.408C41.556 73.7 42.924 72.32 43.668 70.868L42.948 70.616ZM36.96 64.448V74.972H37.776V65.264H39.792V64.448H36.96ZM39.516 64.448V64.688C39.264 65.516 38.82 66.944 38.388 68.036C39.252 68.972 39.468 69.788 39.468 70.436C39.468 70.796 39.408 71.12 39.216 71.252C39.12 71.324 38.988 71.36 38.844 71.36C38.652 71.384 38.424 71.372 38.148 71.348C38.28 71.576 38.352 71.924 38.364 72.14C38.64 72.152 38.94 72.152 39.18 72.128C39.42 72.092 39.636 72.02 39.804 71.912C40.14 71.672 40.272 71.168 40.272 70.52C40.272 69.776 40.08 68.936 39.192 67.94C39.6 66.98 40.044 65.744 40.392 64.76L39.816 64.412L39.672 64.448H39.516ZM48.672 68.156V68.924H59.4V68.156H48.672ZM49.272 64.952V65.708H58.968V64.952H49.272ZM53.508 63.932V65.444H54.42V63.932H53.508ZM49.62 68.54V70.148C49.62 71.408 49.464 73.16 48.324 74.444C48.528 74.552 48.9 74.852 49.044 75.02C50.268 73.64 50.52 71.6 50.52 70.16V68.54H49.62ZM50.868 66.224C52.872 66.704 55.332 67.58 56.676 68.204L57.36 67.676C55.956 67.076 53.496 66.224 51.576 65.756L50.868 66.224ZM56.352 65.444C55.116 66.404 52.524 67.244 50.448 67.676C50.568 67.832 50.736 68.12 50.808 68.288C52.98 67.808 55.524 66.908 57.036 65.816L56.352 65.444ZM56.364 68.792C55.248 69.488 53.124 70.004 51.336 70.244C51.516 70.424 51.696 70.7 51.816 70.892C53.688 70.58 55.812 70.004 57.096 69.188L56.364 68.792ZM57.108 70.244C55.92 71.168 53.592 71.828 51.444 72.14C51.624 72.32 51.804 72.608 51.912 72.812C54.168 72.428 56.508 71.708 57.876 70.64L57.108 70.244ZM58.212 71.672C56.796 73.124 53.904 73.928 50.712 74.264C50.88 74.468 51.06 74.804 51.144 75.032C54.48 74.624 57.432 73.736 59.028 72.08L58.212 71.672ZM60.552 71.684V72.428H71.448V71.684H60.552ZM60.792 65.228V65.96H71.16V65.228H60.792ZM62.316 69.164V69.716H69.612V69.164H62.316ZM67.764 70.808V73.964C67.764 74.12 67.716 74.156 67.5 74.18C67.296 74.18 66.648 74.18 65.856 74.156C65.988 74.408 66.12 74.732 66.168 74.972C67.128 74.972 67.752 74.972 68.148 74.84C68.532 74.72 68.64 74.48 68.64 73.976V70.808H67.764ZM62.7 72.932C63.42 73.376 64.272 74.06 64.668 74.54L65.268 73.952C64.848 73.472 63.972 72.824 63.264 72.392L62.7 72.932ZM62.892 64.208C63.252 64.592 63.672 65.132 63.864 65.48L64.632 65.12C64.416 64.772 63.984 64.256 63.624 63.896L62.892 64.208ZM62.58 67.268H69.384V70.34H62.58V67.268ZM61.752 66.68V70.928H70.248V66.68H61.752ZM68.172 63.908C67.98 64.328 67.608 64.952 67.32 65.348L67.992 65.6C68.328 65.24 68.736 64.7 69.096 64.184L68.172 63.908ZM66.564 65.576V67.748C66.564 68.42 66.78 68.564 67.68 68.564C67.86 68.564 69.024 68.564 69.216 68.564C69.756 68.564 69.972 68.456 70.032 68.168C69.828 68.144 69.564 68.072 69.396 67.976C69.372 68.036 69.312 68.048 69.096 68.048C68.88 68.048 67.944 68.048 67.764 68.048C67.416 68.048 67.356 68 67.356 67.76V65.576H66.564ZM64.548 65.564V67.004C64.548 67.568 64.344 68.18 62.796 68.468C62.952 68.6 63.156 68.876 63.24 69.044C64.956 68.6 65.328 67.808 65.328 67.004V65.564H64.548ZM79.3008 65.4688H80.3965L83.1914 72.4238L85.9805 65.4688H87.082L83.6133 74H82.7578L79.3008 65.4688ZM78.9434 65.4688H79.9102L80.0684 70.6719V74H78.9434V65.4688ZM86.4668 65.4688H87.4336V74H86.3086V70.6719L86.4668 65.4688ZM90.4336 67.6602V74H89.3438V67.6602H90.4336ZM89.2617 65.9785C89.2617 65.8027 89.3145 65.6543 89.4199 65.5332C89.5293 65.4121 89.6895 65.3516 89.9004 65.3516C90.1074 65.3516 90.2656 65.4121 90.375 65.5332C90.4883 65.6543 90.5449 65.8027 90.5449 65.9785C90.5449 66.1465 90.4883 66.291 90.375 66.4121C90.2656 66.5293 90.1074 66.5879 89.9004 66.5879C89.6895 66.5879 89.5293 66.5293 89.4199 66.4121C89.3145 66.291 89.2617 66.1465 89.2617 65.9785ZM93.2637 65V74H92.1738V65H93.2637ZM97.1367 67.6602L94.3711 70.6191L92.8242 72.2246L92.7363 71.0703L93.8438 69.7461L95.8125 67.6602H97.1367ZM96.1465 74L93.8848 70.9766L94.4473 70.0098L97.4238 74H96.1465ZM100.77 74.1172C100.328 74.1172 99.9277 74.043 99.5684 73.8945C99.2129 73.7422 98.9062 73.5293 98.6484 73.2559C98.3945 72.9824 98.1992 72.6582 98.0625 72.2832C97.9258 71.9082 97.8574 71.498 97.8574 71.0527V70.8066C97.8574 70.291 97.9336 69.832 98.0859 69.4297C98.2383 69.0234 98.4453 68.6797 98.707 68.3984C98.9688 68.1172 99.2656 67.9043 99.5977 67.7598C99.9297 67.6152 100.273 67.543 100.629 67.543C101.082 67.543 101.473 67.6211 101.801 67.7773C102.133 67.9336 102.404 68.1523 102.615 68.4336C102.826 68.7109 102.982 69.0391 103.084 69.418C103.186 69.793 103.236 70.2031 103.236 70.6484V71.1348H98.502V70.25H102.152V70.168C102.137 69.8867 102.078 69.6133 101.977 69.3477C101.879 69.082 101.723 68.8633 101.508 68.6914C101.293 68.5195 101 68.4336 100.629 68.4336C100.383 68.4336 100.156 68.4863 99.9492 68.5918C99.7422 68.6934 99.5645 68.8457 99.416 69.0488C99.2676 69.252 99.1523 69.5 99.0703 69.793C98.9883 70.0859 98.9473 70.4238 98.9473 70.8066V71.0527C98.9473 71.3535 98.9883 71.6367 99.0703 71.9023C99.1562 72.1641 99.2793 72.3945 99.4395 72.5938C99.6035 72.793 99.8008 72.9492 100.031 73.0625C100.266 73.1758 100.531 73.2324 100.828 73.2324C101.211 73.2324 101.535 73.1543 101.801 72.998C102.066 72.8418 102.299 72.6328 102.498 72.3711L103.154 72.8926C103.018 73.0996 102.844 73.2969 102.633 73.4844C102.422 73.6719 102.162 73.8242 101.854 73.9414C101.549 74.0586 101.188 74.1172 100.77 74.1172Z" fill="white"/>
<path d="M202.929 25.1299L0 25.1299L0 26.0199L202.929 26.0199V25.1299Z" fill="white"/>
<path d="M207 22L190 22V29H207V22Z" fill="#00E0B8"/>
<path d="M12.32 6.074H7.826C7.602 5.514 7.238 4.786 6.916 4.212L5.964 4.52C6.216 4.996 6.482 5.57 6.692 6.074H1.806V7.04H12.32V6.074ZM13.202 10.61V9.63H9.604C9.94 8.958 10.318 8.104 10.626 7.348L9.548 7.082C9.338 7.824 8.918 8.888 8.554 9.63H4.732L5.418 9.378C5.292 8.79 4.858 7.838 4.452 7.124L3.5 7.418C3.864 8.104 4.242 9.028 4.396 9.63H0.812V10.61H6.44V12.794H1.484V13.788H6.44V17.078H7.49V13.788H12.614V12.794H7.49V10.61H13.202ZM17.696 7.236H18.718V6.214H20.692V5.304H18.718V4.282H17.696V5.304H14.896V6.214H17.696V7.236ZM18.746 8.706C19.656 8.552 20.51 8.356 21.196 8.118L20.468 7.39C19.236 7.824 16.94 8.146 15.022 8.328C15.134 8.538 15.26 8.888 15.302 9.112C16.072 9.056 16.926 8.958 17.766 8.846V10.47H14.896V11.394H17.43C16.73 12.878 15.596 14.362 14.546 15.132C14.756 15.314 15.064 15.664 15.246 15.888C16.128 15.132 17.052 13.914 17.766 12.584V17.064H18.746V12.878C19.418 13.466 20.244 14.25 20.608 14.656L21.252 13.858C20.902 13.536 19.334 12.318 18.746 11.898V11.394H21.28V10.47H18.746V8.706ZM22.008 14.488H23.002V8.09H22.008V14.488ZM25.256 15.79C25.256 16.014 25.172 16.07 24.934 16.084C24.724 16.098 23.954 16.098 23.128 16.07C23.268 16.35 23.436 16.784 23.478 17.078C24.57 17.078 25.27 17.064 25.704 16.882C26.11 16.714 26.264 16.434 26.264 15.804V7.404H25.256V15.79ZM24.346 5.304V4.282H23.324V5.304H21.266V6.214H23.324V7.264H24.346V6.214H27.188V5.304H24.346ZM37.968 10.008C37.324 9.462 36.064 8.58 35.098 7.978L35.112 7.922H37.968V7.11H35.322C35.392 6.76 35.434 6.382 35.476 5.99H34.58C34.552 6.382 34.496 6.76 34.426 7.11H32.018V7.922H34.202C33.824 8.846 33.152 9.532 31.85 9.98C32.032 10.12 32.256 10.428 32.34 10.624C33.572 10.176 34.328 9.532 34.804 8.692C35.728 9.322 36.792 10.092 37.38 10.624L37.968 10.008ZM38.808 10.932H31.22V5.724H38.808V10.932ZM39.9 4.828H30.198V11.814H39.9V4.828ZM34.034 12.5C34.748 13.172 35.532 14.138 35.882 14.768L36.75 14.264C36.4 13.62 35.588 12.71 34.86 12.066L34.034 12.5ZM29.708 16.35C30.408 15.496 30.926 14.124 31.276 13.046L30.38 12.71C30.072 13.746 29.498 15.034 28.784 15.846L29.708 16.35ZM34.062 15.86C33.264 15.86 33.124 15.776 33.124 15.384V12.668H32.088V15.398C32.088 16.504 32.48 16.812 33.992 16.812H36.862C38.164 16.812 38.486 16.35 38.626 14.46C38.332 14.39 37.898 14.236 37.66 14.068C37.59 15.622 37.478 15.86 36.792 15.86H34.062ZM38.206 12.822C39.06 13.83 39.928 15.216 40.236 16.126L41.188 15.65C40.852 14.74 39.956 13.396 39.088 12.416L38.206 12.822ZM50.274 10.68L53.284 4.408L52.528 4.156L49.42 10.68L52.528 17.204L53.284 16.952L50.274 10.68ZM52.486 10.68L55.496 4.408L54.74 4.156L51.632 10.68L54.74 17.204L55.496 16.952L52.486 10.68ZM64.288 13.438C65.702 14.53 67.424 16.084 68.222 17.078L69.174 16.448C68.306 15.426 66.57 13.942 65.17 12.892L64.288 13.438ZM60.69 12.934C59.878 14.138 58.226 15.538 56.728 16.392C56.966 16.574 57.344 16.896 57.554 17.12C59.08 16.182 60.746 14.726 61.782 13.354L60.69 12.934ZM59.304 6.326H66.682V10.638H59.304V6.326ZM58.254 5.332V11.646H67.774V5.332H58.254ZM78.05 6.998H75.796V5.822H78.05V6.998ZM81.368 7.852V9.742H79.044V7.852H81.368ZM75.796 7.852H78.05V9.742H75.796V7.852ZM72.702 7.852H74.802V9.742H72.702V7.852ZM74.802 6.998H71.708V10.596H82.39V6.998H79.044V5.822H82.978V4.898H71.022V5.822H74.802V6.998ZM79.114 13.13C78.61 13.816 77.966 14.348 77.182 14.768C76.202 14.586 75.208 14.39 74.2 14.222C74.452 13.9 74.718 13.522 74.984 13.13H79.114ZM83.202 13.13V12.234H80.794C80.878 12.066 80.934 11.884 80.99 11.716L79.996 11.422C79.898 11.716 79.786 11.968 79.646 12.234H75.572C75.838 11.828 76.076 11.408 76.258 11.002L75.25 10.764C75.012 11.226 74.732 11.73 74.41 12.234H70.798V13.13H73.822C73.402 13.732 72.968 14.306 72.562 14.754C73.668 14.936 74.76 15.146 75.81 15.356C74.466 15.804 72.814 16.042 70.756 16.168C70.924 16.406 71.106 16.784 71.176 17.078C73.808 16.868 75.866 16.462 77.42 15.72C79.268 16.14 80.864 16.616 82.026 17.05L82.964 16.308C81.802 15.888 80.248 15.468 78.54 15.076C79.282 14.558 79.884 13.914 80.346 13.13H83.202ZM87.738 4.338C86.954 6.466 85.652 8.552 84.28 9.896C84.476 10.134 84.756 10.666 84.868 10.918C85.344 10.4 85.834 9.826 86.282 9.182V17.036H87.276V7.628C87.822 6.676 88.312 5.668 88.718 4.632L87.738 4.338ZM90.286 10.246C89.908 11.898 89.25 13.564 88.368 14.628C88.62 14.768 89.068 15.034 89.264 15.202C90.118 14.04 90.86 12.276 91.308 10.442L90.286 10.246ZM96.208 7.936C96.096 8.65 95.97 9.392 95.886 9.896L96.754 10.064C96.936 9.322 97.188 8.118 97.37 7.096L96.656 6.928L96.488 6.97H90.818C91.098 6.2 91.35 5.388 91.56 4.576L90.538 4.352C90.076 6.396 89.264 8.398 88.242 9.686C88.466 9.84 88.9 10.19 89.068 10.344C89.572 9.686 90.034 8.86 90.426 7.936H92.554V15.804C92.554 15.986 92.498 16.042 92.316 16.042C92.134 16.042 91.532 16.056 90.874 16.028C91.014 16.322 91.182 16.784 91.238 17.078C92.12 17.078 92.708 17.05 93.086 16.868C93.45 16.7 93.576 16.392 93.576 15.804V7.936H96.208ZM94.598 10.442C95.34 11.912 96.04 13.872 96.264 15.146L97.258 14.81C97.02 13.536 96.306 11.618 95.508 10.134L94.598 10.442ZM107.394 11.828H110.544V10.848H107.394V8.174H106.358V10.848H103.222V11.828H106.358V15.762H102.676V16.742H111.09V15.762H107.394V11.828ZM103.88 6.452C104.132 5.822 104.37 5.178 104.552 4.548L103.488 4.282C103.292 4.996 103.04 5.738 102.746 6.452H98.924V7.446H102.284C101.416 9.224 100.184 10.876 98.588 12.01C98.756 12.234 99.022 12.668 99.12 12.948C99.708 12.528 100.254 12.066 100.744 11.534V17.008H101.766V10.302C102.424 9.406 102.97 8.454 103.46 7.446H111.09V6.452H103.88ZM116.816 5.458C118.132 6.396 119.756 7.768 120.526 8.636L121.268 7.866C120.47 6.984 118.804 5.668 117.502 4.772L116.816 5.458ZM122.626 9.224C123.41 10.862 124.166 13.06 124.446 14.502L125.468 14.096C125.174 12.654 124.404 10.512 123.592 8.846L122.626 9.224ZM113.932 9.21C113.736 10.848 113.274 13.032 112.672 14.46L113.708 14.894C114.282 13.41 114.716 11.044 114.94 9.406L113.932 9.21ZM116.158 8.16V15.048C116.158 16.434 116.578 16.812 118.09 16.812H120.904C122.458 16.812 122.78 16.042 122.934 13.396C122.64 13.312 122.206 13.13 121.954 12.934C121.842 15.342 121.716 15.832 120.848 15.832H118.174C117.376 15.832 117.208 15.706 117.208 15.062V8.16H116.158ZM133.084 15.37V9.826H138.292V8.79H133.084V4.506H131.992V15.37H126.77V16.406H139.244V15.37H133.084ZM143.472 17.204L146.58 10.68L143.472 4.156L142.716 4.408L145.726 10.68L142.716 16.952L143.472 17.204ZM141.26 17.204L144.368 10.68L141.26 4.156L140.504 4.408L143.514 10.68L140.504 16.952L141.26 17.204Z" fill="#00E0B8"/>
</svg>
