<svg width="214" height="127" viewBox="0 0 214 127" fill="none" xmlns="http://www.w3.org/2000/svg">
<path opacity="0.8" d="M12.0311 112.06C11.8211 111.556 11.4011 110.842 10.9951 110.282L10.5051 110.576C10.8831 111.122 11.3171 111.892 11.5131 112.396L12.0311 112.06ZM12.7451 118.766V121.538H10.1411V118.766H12.7451ZM13.3611 118.164H9.53907V122.84H10.1411V122.14H13.3611V118.164ZM9.56707 116.932H13.3331V116.344H9.56707V116.932ZM13.3331 114.538H9.56707V115.112H13.3331V114.538ZM9.02107 113.348H13.8651V112.746H9.02107V113.348ZM18.1771 115.91V119.074H15.4891V115.91H18.1771ZM18.7931 119.676V115.294H14.8871V120.67H15.4891V119.676H18.7931ZM19.5911 113.264H14.2711V113.866H19.5911V113.264ZM21.0891 111.094H13.9211V111.724H20.4591V122C20.4591 122.252 20.3751 122.322 20.1511 122.336C19.8991 122.35 19.0731 122.364 18.1631 122.336C18.2751 122.532 18.3731 122.84 18.4151 123.022C19.5211 123.022 20.2211 123.022 20.5991 122.896C20.9491 122.77 21.0891 122.546 21.0891 122.014V111.094ZM31.2251 121.44V117.898H34.1511V121.44H31.2251ZM24.3931 117.898H27.1511V121.44H24.3931V117.898ZM27.1511 113.81V117.254H24.3931V113.81H27.1511ZM30.5671 117.898V121.44H27.8091V117.898H30.5671ZM30.5671 113.81V117.254H27.8091V113.81H30.5671ZM34.1511 113.81V117.254H31.2251V113.81H34.1511ZM31.2251 113.152V110.492H30.5671V113.152H27.8091V110.492H27.1511V113.152H23.7491V123.05H24.3931V122.098H34.1511V122.966H34.8091V113.152H31.2251ZM42.9011 115.182V116.274H38.7571V115.182H42.9011ZM38.7011 117.982C38.7431 117.562 38.7571 117.156 38.7571 116.792H42.9011V117.982H38.7011ZM43.5311 118.542V114.622H38.1271V116.666C38.1271 118.234 37.9451 120.404 36.8531 122.042C37.0071 122.112 37.2871 122.28 37.3991 122.392C38.1551 121.272 38.4911 119.858 38.6591 118.542H43.5311ZM39.4431 113.25V113.768H42.4531V113.25H39.4431ZM43.2371 119.886V121.664H39.3871V119.886H43.2371ZM38.7711 122.91H39.3871V122.238H43.2371V122.896H43.8671V119.326H38.7711V122.91ZM40.6751 110.52C39.8631 111.976 38.3931 113.18 36.8671 113.95C37.0071 114.104 37.2031 114.398 37.2731 114.538C38.5471 113.81 39.8491 112.774 40.7591 111.528C41.8931 112.242 43.2511 113.194 43.9511 113.796L44.3151 113.278C43.6011 112.676 42.2291 111.752 41.0811 111.066C41.1511 110.954 41.2211 110.828 41.2911 110.73L40.6751 110.52ZM46.0511 111.962H45.4071V119.592H46.0511V111.962ZM48.1091 110.422V122.014C48.1091 122.266 48.0111 122.336 47.7731 122.35C47.5491 122.364 46.7651 122.364 45.8551 122.35C45.9531 122.546 46.0511 122.826 46.0931 123.008C47.2551 123.008 47.8991 123.008 48.2631 122.882C48.5991 122.756 48.7671 122.546 48.7671 122.014V110.422H48.1091ZM54.5351 110.394C53.6951 112.592 52.3371 114.762 50.8951 116.148C51.0351 116.288 51.2451 116.624 51.3151 116.764C51.9031 116.176 52.4631 115.476 52.9951 114.72V123.008H53.6811V113.642C54.2551 112.676 54.7591 111.64 55.1791 110.59L54.5351 110.394ZM63.5931 113.362V112.718H57.4751C57.7971 112.074 58.0771 111.388 58.3291 110.702L57.6991 110.534C56.9711 112.606 55.8231 114.65 54.5491 115.98C54.6891 116.078 54.9691 116.316 55.0811 116.414C55.8231 115.588 56.5371 114.538 57.1671 113.362H58.3851V123.022H59.0571V119.438H63.5091V118.794H59.0571V116.344H63.3131V115.714H59.0571V113.362H63.5931ZM70.9851 109.68V123.68H71.5171V109.68H70.9851ZM79.0211 115.364C79.1891 115.294 79.4831 115.224 81.1631 115C80.5891 115.896 80.0851 116.61 79.8471 116.89C79.4551 117.408 79.1331 117.786 78.8811 117.828C78.9651 117.996 79.0631 118.332 79.1051 118.472C79.3431 118.36 79.7211 118.262 83.0531 117.744C83.1371 117.996 83.2071 118.248 83.2491 118.458L83.8231 118.248C83.6691 117.562 83.2491 116.4 82.8571 115.518L82.3111 115.686C82.5211 116.162 82.7311 116.694 82.8991 117.212L79.9871 117.632C81.1071 116.288 82.2131 114.538 83.1651 112.802L82.5911 112.494C82.2691 113.152 81.9051 113.81 81.5411 114.412L79.7771 114.594C80.5891 113.488 81.4011 112.032 82.0451 110.618L81.4431 110.352C80.8551 111.892 79.8471 113.53 79.5391 113.95C79.2591 114.37 79.0211 114.692 78.8111 114.734C78.8811 114.902 78.9791 115.224 79.0071 115.378C79.0071 115.364 79.0071 115.35 79.0211 115.322V115.364ZM79.5251 119.172C79.3571 120.32 79.1191 121.566 78.7971 122.448C78.9371 122.504 79.2311 122.616 79.3571 122.658C79.6371 121.804 79.9171 120.474 80.0991 119.284L79.5251 119.172ZM80.9391 119.242C81.1071 120.152 81.2471 121.356 81.2891 122.154L81.8351 122.028C81.7931 121.244 81.6391 120.054 81.4851 119.13L80.9391 119.242ZM82.4511 118.99C82.7031 119.676 82.9831 120.572 83.0951 121.188L83.6411 120.964C83.5151 120.39 83.2211 119.494 82.9691 118.794L82.4511 118.99ZM90.0811 113.53V115.182H84.8591V113.53H90.0811ZM90.6971 115.77V112.956H84.8591V111.864C86.8891 111.64 89.1711 111.304 90.6411 110.856L90.0671 110.38C88.7791 110.8 86.3011 111.164 84.2291 111.388V115.518C84.2291 117.618 84.1451 120.586 83.2771 122.728C83.4451 122.784 83.7251 122.952 83.8511 123.05C84.7051 120.936 84.8451 117.912 84.8591 115.77H90.6971ZM89.1851 119.424V117.506H90.4171V119.424H89.1851ZM87.4631 119.424V117.506H88.6811V119.424H87.4631ZM85.7691 119.424V117.506H86.9591V119.424H85.7691ZM90.9911 116.918H85.1951V123.036H85.7691V120.012H86.9591V122.826H87.4631V120.012H88.6811V122.756H89.1851V120.012H90.4171V122.252C90.4171 122.364 90.3891 122.392 90.2771 122.392C90.1791 122.406 89.8851 122.406 89.5491 122.392C89.6191 122.546 89.7171 122.77 89.7311 122.91C90.2211 122.91 90.5291 122.91 90.7391 122.812C90.9351 122.7 90.9911 122.574 90.9911 122.266V116.918ZM101.225 121.44V117.898H104.151V121.44H101.225ZM94.3931 117.898H97.1511V121.44H94.3931V117.898ZM97.1511 113.81V117.254H94.3931V113.81H97.1511ZM100.567 117.898V121.44H97.8091V117.898H100.567ZM100.567 113.81V117.254H97.8091V113.81H100.567ZM104.151 113.81V117.254H101.225V113.81H104.151ZM101.225 113.152V110.492H100.567V113.152H97.8091V110.492H97.1511V113.152H93.7491V123.05H94.3931V122.098H104.151V122.966H104.809V113.152H101.225ZM112.901 115.182V116.274H108.757V115.182H112.901ZM108.701 117.982C108.743 117.562 108.757 117.156 108.757 116.792H112.901V117.982H108.701ZM113.531 118.542V114.622H108.127V116.666C108.127 118.234 107.945 120.404 106.853 122.042C107.007 122.112 107.287 122.28 107.399 122.392C108.155 121.272 108.491 119.858 108.659 118.542H113.531ZM109.443 113.25V113.768H112.453V113.25H109.443ZM113.237 119.886V121.664H109.387V119.886H113.237ZM108.771 122.91H109.387V122.238H113.237V122.896H113.867V119.326H108.771V122.91ZM110.675 110.52C109.863 111.976 108.393 113.18 106.867 113.95C107.007 114.104 107.203 114.398 107.273 114.538C108.547 113.81 109.849 112.774 110.759 111.528C111.893 112.242 113.251 113.194 113.951 113.796L114.315 113.278C113.601 112.676 112.229 111.752 111.081 111.066C111.151 110.954 111.221 110.828 111.291 110.73L110.675 110.52ZM116.051 111.962H115.407V119.592H116.051V111.962ZM118.109 110.422V122.014C118.109 122.266 118.011 122.336 117.773 122.35C117.549 122.364 116.765 122.364 115.855 122.35C115.953 122.546 116.051 122.826 116.093 123.008C117.255 123.008 117.899 123.008 118.263 122.882C118.599 122.756 118.767 122.546 118.767 122.014V110.422H118.109ZM124.535 110.394C123.695 112.592 122.337 114.762 120.895 116.148C121.035 116.288 121.245 116.624 121.315 116.764C121.903 116.176 122.463 115.476 122.995 114.72V123.008H123.681V113.642C124.255 112.676 124.759 111.64 125.179 110.59L124.535 110.394ZM133.593 113.362V112.718H127.475C127.797 112.074 128.077 111.388 128.329 110.702L127.699 110.534C126.971 112.606 125.823 114.65 124.549 115.98C124.689 116.078 124.969 116.316 125.081 116.414C125.823 115.588 126.537 114.538 127.167 113.362H128.385V123.022H129.057V119.438H133.509V118.794H129.057V116.344H133.313V115.714H129.057V113.362H133.593ZM140.985 109.68V123.68H141.517V109.68H140.985ZM151.779 116.974H153.585V116.372H151.779V114.524H153.137V113.922H149.679C150.351 113.25 150.995 112.424 151.513 111.556C152.311 112.312 153.221 113.25 153.711 113.824L154.103 113.362C153.613 112.788 152.633 111.822 151.807 111.066C151.891 110.898 151.975 110.744 152.059 110.576L151.471 110.394C150.869 111.696 149.875 112.956 148.825 113.796C148.937 113.936 149.133 114.244 149.189 114.384C149.343 114.244 149.497 114.104 149.651 113.95V114.524H151.177V116.372H148.965V116.974H151.177V121.44C150.281 121.608 149.483 121.762 148.853 121.874L149.035 122.49C150.309 122.238 152.087 121.874 153.753 121.524L153.711 120.95C153.053 121.09 152.409 121.216 151.779 121.342V116.974ZM149.217 117.954C149.441 118.794 149.665 119.928 149.749 120.67L150.323 120.516C150.225 119.802 149.987 118.682 149.749 117.842L149.217 117.954ZM152.941 120.516C153.179 119.816 153.403 118.71 153.641 117.856L153.081 117.66C152.969 118.444 152.717 119.634 152.507 120.348L152.941 120.516ZM155.825 113.782C155.951 113.306 156.105 112.746 156.259 112.186H159.577C159.493 112.634 159.381 113.208 159.255 113.782H155.825ZM160.585 117.142C160.151 117.814 159.409 118.71 158.821 119.354C158.583 119.186 158.359 119.018 158.135 118.864V116.302H161.579V115.672H159.493C159.801 114.37 160.123 112.746 160.319 111.64L159.857 111.556L159.745 111.598H156.413C156.497 111.192 156.609 110.772 156.693 110.408L156.035 110.324C155.769 111.598 155.321 113.334 154.971 114.37H159.157C159.059 114.832 158.961 115.266 158.863 115.672H153.907V116.302H157.505V118.948C156.231 119.97 154.873 120.978 153.991 121.594L154.411 122.098C155.307 121.412 156.427 120.53 157.505 119.634V122.224C157.505 122.378 157.463 122.42 157.295 122.434C157.127 122.434 156.609 122.448 155.965 122.42C156.063 122.616 156.161 122.854 156.189 123.036C156.973 123.036 157.477 123.022 157.771 122.924C158.051 122.812 158.135 122.63 158.135 122.21V119.536C159.297 120.362 160.571 121.398 161.257 122.098L161.649 121.608C161.117 121.076 160.193 120.348 159.255 119.662C159.857 119.06 160.571 118.22 161.131 117.492L160.585 117.142ZM156.637 118.878C156.315 118.388 155.587 117.632 154.985 117.086L154.495 117.394C155.111 117.968 155.811 118.752 156.161 119.256L156.637 118.878ZM174.725 111.696H169.881C169.727 111.262 169.461 110.674 169.153 110.254L168.509 110.422C168.761 110.786 168.985 111.29 169.139 111.696H163.875V112.326H174.725V111.696ZM167.501 114.776C167.375 114.16 166.969 113.194 166.493 112.494L165.877 112.662C166.325 113.362 166.717 114.328 166.843 114.986L167.501 114.776ZM172.835 117.688V119.452H165.779V117.688H172.835ZM165.779 121.874V120.04H172.835V121.874H165.779ZM165.107 123.036H165.779V122.476H172.835V122.994H173.521V117.086H165.107V123.036ZM171.575 115.014C171.967 114.328 172.429 113.418 172.779 112.662L172.079 112.452C171.799 113.208 171.281 114.3 170.861 115.014H163.077V115.644H175.439V115.014H171.575ZM187.787 113.152H181.893V111.556H187.787V113.152ZM187.787 115.322H181.893V113.712H187.787V115.322ZM188.487 110.982H181.207V115.896H188.487V110.982ZM179.821 115.784C179.247 115.392 178.127 114.762 177.301 114.328L176.923 114.818C177.763 115.266 178.883 115.938 179.471 116.33L179.821 115.784ZM177.931 122.826C178.729 121.566 179.751 119.718 180.493 118.262L180.017 117.814C179.219 119.382 178.127 121.286 177.371 122.378L177.931 122.826ZM177.623 110.982C178.519 111.458 179.667 112.13 180.269 112.564L180.647 111.99C180.031 111.584 178.855 110.94 178.001 110.506L177.623 110.982ZM181.935 122.126V118.99H184.791V118.374H181.935V116.386H181.277V121.832C181.277 122.28 181.053 122.364 180.871 122.42C180.955 122.588 181.081 122.896 181.109 123.092C181.375 122.938 181.767 122.798 184.889 122.014C184.847 121.888 184.791 121.622 184.763 121.454L181.935 122.126ZM186.597 122.336C186.079 122.336 185.995 122.252 185.995 121.874V118.976H189.271V118.36H185.995V116.358H185.323V121.874C185.323 122.728 185.575 122.924 186.555 122.924H188.557C189.397 122.924 189.593 122.532 189.677 120.992C189.481 120.95 189.215 120.838 189.061 120.726C189.019 122.084 188.935 122.336 188.501 122.336H186.597ZM202.725 111.696H197.881C197.727 111.262 197.461 110.674 197.153 110.254L196.509 110.422C196.761 110.786 196.985 111.29 197.139 111.696H191.875V112.326H202.725V111.696ZM195.501 114.776C195.375 114.16 194.969 113.194 194.493 112.494L193.877 112.662C194.325 113.362 194.717 114.328 194.843 114.986L195.501 114.776ZM200.835 117.688V119.452H193.779V117.688H200.835ZM193.779 121.874V120.04H200.835V121.874H193.779ZM193.107 123.036H193.779V122.476H200.835V122.994H201.521V117.086H193.107V123.036ZM199.575 115.014C199.967 114.328 200.429 113.418 200.779 112.662L200.079 112.452C199.799 113.208 199.281 114.3 198.861 115.014H191.077V115.644H203.439V115.014H199.575Z" fill="white"/>
<path opacity="0.8" d="M20.0111 91.658C20.6411 91.658 21.2571 91.644 21.4811 91.588C21.4391 91.448 21.4111 91.182 21.3831 90.986C21.0891 91.042 20.3891 91.056 19.9831 91.056H15.9931C15.3771 91.056 15.2091 90.874 15.2091 90.342V88.816H20.9911V88.214H15.2091V86.422H14.5371V90.328C14.5371 91.322 14.8871 91.658 16.0071 91.658H20.0111ZM13.5011 92.428C12.9131 92.624 12.3111 92.806 11.7371 92.988V89.936H13.4731V89.278H11.7371V86.352H11.0791V89.278H8.9511V89.936H11.0791V93.212C10.1831 93.478 9.3571 93.73 8.7271 93.912L8.9651 94.57C9.5811 94.374 10.3091 94.136 11.0791 93.898V98.126C11.0791 98.336 10.9951 98.392 10.8131 98.392C10.6451 98.406 10.0431 98.406 9.3571 98.392C9.4551 98.574 9.5671 98.854 9.6091 99.022C10.5051 99.022 11.0091 99.008 11.3171 98.896C11.6111 98.784 11.7371 98.588 11.7371 98.112V93.674L13.5991 93.072L13.5011 92.428ZM20.2911 93.66V95.368H15.1391V93.66H20.2911ZM15.1391 97.748V95.956H20.2911V97.748H15.1391ZM14.4951 99.022H15.1391V98.35H20.2911V98.952H20.9491V93.058H14.4951V99.022ZM33.4231 90.328H28.1451V89.572H33.4231V90.328ZM33.4231 91.56H28.1451V90.79H33.4231V91.56ZM33.4231 92.806H28.1451V92.022H33.4231V92.806ZM27.5151 89.096V93.282H34.0811V89.096H30.5531C30.7071 88.844 30.8471 88.55 30.9731 88.256H35.1871V87.696H32.7231C32.9751 87.346 33.2411 86.954 33.4931 86.562L32.8491 86.366C32.6671 86.744 32.3171 87.304 32.0371 87.696H29.3631L29.6991 87.556C29.5871 87.206 29.2371 86.688 28.9151 86.352L28.3691 86.562C28.6491 86.898 28.9571 87.346 29.0831 87.696H26.5771V88.256H30.3151C30.2031 88.536 30.0631 88.83 29.9371 89.096H27.5151ZM24.9531 87.724C24.8131 87.36 24.5191 86.786 24.3091 86.338L23.7491 86.506C23.9451 86.968 24.2111 87.57 24.3651 87.948L24.9531 87.724ZM25.3731 96.726C26.1711 97.188 27.1091 97.902 27.5291 98.42L28.0191 97.958C27.5711 97.44 26.6191 96.754 25.8211 96.32L25.3731 96.726ZM32.5131 94.668H31.8691V95.578H23.1191V96.152H31.8691V98.126C31.8691 98.322 31.8131 98.378 31.5611 98.378C31.3371 98.392 30.5391 98.406 29.5311 98.378C29.6291 98.56 29.7271 98.784 29.7691 98.966C30.9731 98.966 31.6731 98.966 32.0511 98.854C32.4291 98.742 32.5131 98.56 32.5131 98.126V96.152H35.3131V95.578H32.5131V94.668ZM25.8631 90.16L25.7651 90.202H24.5611C24.9531 89.572 25.4011 88.788 25.7931 88.102H23.0071V88.676H24.8131C24.4211 89.404 23.9451 90.188 23.5671 90.762H25.4571C25.1631 91.56 24.7151 92.428 24.2111 93.002C23.8331 93.268 23.4411 93.674 23.0491 94.122L23.4691 94.64C24.0151 93.898 24.5611 93.268 24.9251 93.268C25.2051 93.268 25.6111 93.618 26.1151 93.926C27.0251 94.43 28.2851 94.514 29.9091 94.514C31.3511 94.514 34.0811 94.444 35.4111 94.36C35.4251 94.192 35.5231 93.87 35.6071 93.702C34.1231 93.842 31.8271 93.94 29.9231 93.94C28.3691 93.94 27.1511 93.884 26.2971 93.422C25.7231 93.086 25.4291 92.806 25.1071 92.736C25.5691 92.05 25.9751 91.14 26.2551 90.328L25.8631 90.16ZM42.6631 91.224V88.998H46.3591C45.5891 89.796 44.7351 90.538 43.8251 91.224H42.6631ZM49.4531 91.868V91.224H44.8891C46.3451 90.034 47.6751 88.676 48.7811 87.206L48.1791 86.87C47.6611 87.584 47.0591 88.256 46.4291 88.914V88.368H42.6911V86.338H42.0331V88.368H38.2531V88.998H42.0331V91.224H37.0631V91.868H42.9431C41.0811 93.17 39.0091 94.248 36.8531 95.074C37.0071 95.214 37.2311 95.494 37.3431 95.648C38.5611 95.144 39.7651 94.57 40.9131 93.912V97.426C40.9131 98.476 41.3891 98.7 43.0691 98.7H47.4371C48.9771 98.7 49.2431 98.238 49.3971 96.306C49.1871 96.264 48.9211 96.166 48.7391 96.04C48.6271 97.748 48.4591 98.07 47.4371 98.07H43.0131C41.8231 98.07 41.5991 97.944 41.5991 97.412V95.13H48.0251V94.5H41.5991V93.52C42.4531 93.002 43.2651 92.456 44.0631 91.868H49.4531ZM55.0251 94.248V97.048H52.0991V94.248H55.0251ZM54.8851 89.068V91.49H52.0991V89.068H54.8851ZM52.0991 92.106H55.5291V88.452H53.2751C53.5551 87.864 53.8351 87.122 54.0731 86.492L53.3591 86.324C53.2051 86.94 52.8971 87.822 52.6311 88.452H51.4551V98.63H52.0991V97.65H55.6411V93.632H52.0991V92.106ZM63.5511 87.752V87.122H56.1731V87.752H59.5051V89.754H56.7331V96.964H57.3631V90.384H59.5051V98.994H60.1491V90.384H62.4591V96.082C62.4591 96.208 62.4171 96.264 62.2631 96.264C62.1091 96.278 61.6191 96.278 60.9891 96.264C61.0731 96.446 61.1851 96.712 61.2131 96.866C61.9971 96.866 62.4591 96.866 62.7391 96.768C63.0471 96.656 63.1031 96.446 63.1031 96.082V89.754H60.1491V87.752H63.5511ZM71.2511 90.16C71.7131 90.16 72.1471 89.824 72.1471 89.264C72.1471 88.69 71.7131 88.368 71.2511 88.368C70.7891 88.368 70.3551 88.69 70.3551 89.264C70.3551 89.824 70.7891 90.16 71.2511 90.16ZM71.2511 97.104C71.7131 97.104 72.1471 96.782 72.1471 96.222C72.1471 95.648 71.7131 95.326 71.2511 95.326C70.7891 95.326 70.3551 95.648 70.3551 96.222C70.3551 96.782 70.7891 97.104 71.2511 97.104ZM82.8011 86.912L82.6891 86.94H79.4691V99.022H80.0991V87.57H82.4091C82.0591 88.536 81.5691 89.796 81.0791 90.902C82.1991 92.078 82.5071 93.072 82.5071 93.898C82.5071 94.332 82.4231 94.78 82.1851 94.934C82.0591 95.018 81.9051 95.06 81.7091 95.074C81.4711 95.088 81.1491 95.074 80.7851 95.06C80.8971 95.242 80.9671 95.494 80.9811 95.662C81.2891 95.69 81.6391 95.69 81.9471 95.662C82.1991 95.634 82.4511 95.55 82.6191 95.438C82.9831 95.186 83.1371 94.598 83.1371 93.94C83.1371 93.03 82.8431 92.022 81.7371 90.818C82.2411 89.698 82.8151 88.312 83.2351 87.192L82.8011 86.912ZM84.5371 92.442H86.9451V93.982H84.5371V92.442ZM84.5371 90.384H86.9451V91.896H84.5371V90.384ZM90.0671 90.384V91.896H87.5891V90.384H90.0671ZM90.0671 93.982H87.5891V92.442H90.0671V93.982ZM90.7111 94.542V89.824H87.5891V88.522H91.3551V87.92H87.5891V86.352H86.9451V87.92H83.2771V88.522H86.9451V89.824H83.9071V94.542H86.2871C85.3771 95.886 83.8791 97.188 82.5351 97.818C82.6891 97.958 82.8851 98.196 82.9971 98.35C84.4111 97.594 86.0211 96.124 86.9451 94.598V99.008H87.5891V94.57C88.4291 96.068 89.8851 97.566 91.2431 98.294C91.3411 98.126 91.5651 97.888 91.7051 97.762C90.4171 97.146 89.0311 95.872 88.2051 94.542H90.7111ZM104.389 95.27C102.695 97.02 99.2091 98.056 95.3031 98.476C95.4431 98.644 95.5831 98.924 95.6531 99.092C99.6151 98.602 103.199 97.496 104.991 95.592L104.389 95.27ZM102.149 91.868C100.819 92.736 98.3271 93.38 96.1711 93.674C96.3251 93.814 96.4511 94.052 96.5491 94.192C98.7471 93.814 101.253 93.128 102.709 92.176L102.149 91.868ZM103.017 93.632C101.575 94.752 98.8171 95.564 96.2691 95.956C96.3951 96.096 96.5351 96.32 96.6331 96.488C99.2511 96.04 102.023 95.158 103.591 93.954L103.017 93.632ZM95.9331 91.196C97.1091 90.874 98.3971 90.468 99.5731 89.992C100.721 90.384 101.785 90.818 102.527 91.168L103.059 90.72C102.345 90.398 101.379 90.034 100.343 89.656C101.197 89.264 101.981 88.83 102.597 88.382L102.387 88.256H104.949V87.668H100.035C99.8951 87.234 99.6431 86.632 99.3491 86.156L98.7471 86.338C98.9711 86.73 99.1811 87.248 99.3211 87.668H94.0571V88.256H101.813C101.225 88.662 100.455 89.054 99.6011 89.404C98.4951 89.04 97.3611 88.704 96.3531 88.466L95.7931 88.872C96.7451 89.096 97.7811 89.39 98.8031 89.726C97.6411 90.16 96.3951 90.524 95.2891 90.79C95.3731 90.874 95.4851 91.056 95.5691 91.196H94.0291V93.394C94.0291 94.906 93.8611 97.048 92.7691 98.644C92.9231 98.714 93.2031 98.924 93.3151 99.036C94.4631 97.384 94.6871 95.032 94.6871 93.408V91.798H105.285V91.196H95.9331ZM109.513 96.558C110.367 97.104 111.375 97.93 111.851 98.462L112.299 97.986C111.823 97.454 110.787 96.67 109.961 96.152L109.513 96.558ZM110.185 92.946H116.317V92.442H110.185V92.946ZM108.995 90.076H111.697C111.613 90.692 111.179 91.364 109.415 91.7C109.541 91.812 109.709 92.022 109.765 92.176C111.725 91.686 112.215 90.874 112.299 90.076H114.077V90.846C114.077 91.476 114.301 91.616 115.197 91.616H117.171C117.255 91.616 117.339 91.616 117.409 91.602V93.814H108.995V90.076ZM112.313 88.522H114.077V89.558H112.313V88.522ZM117.409 90.076V91.112C117.381 91.14 117.297 91.154 117.087 91.154H115.239C114.763 91.154 114.693 91.098 114.693 90.846V90.076H117.409ZM119.551 95.354H116.107V94.332H118.067V89.558H114.693V88.522H119.201V87.934H115.687C115.995 87.528 116.345 87.024 116.625 86.562L115.967 86.31C115.757 86.772 115.323 87.458 114.987 87.934H111.375L111.543 87.836C111.291 87.43 110.731 86.8 110.283 86.338L109.737 86.604C110.129 86.996 110.577 87.528 110.843 87.934H107.259V88.522H111.711V89.558H108.365V94.332H115.449V95.354H106.937V95.942H115.449V98.14C115.449 98.336 115.407 98.378 115.141 98.406C114.903 98.42 114.147 98.42 113.097 98.392C113.209 98.602 113.307 98.826 113.349 99.022C114.511 99.022 115.225 99.022 115.617 98.91C116.009 98.798 116.107 98.602 116.107 98.14V95.942H119.551V95.354ZM124.839 98H125.609V91.532C125.609 90.692 125.553 89.572 125.511 88.718H125.567L126.365 91L128.521 96.908H129.193L131.335 91L132.133 88.718H132.189C132.147 89.572 132.091 90.692 132.091 91.532V98H132.889V87.794H131.769L129.669 93.66C129.417 94.402 129.179 95.158 128.913 95.9H128.857L128.059 93.66L125.959 87.794H124.839V98ZM135.774 98H136.586V90.538H135.774V98ZM136.194 88.788C136.558 88.788 136.88 88.522 136.88 88.144C136.88 87.724 136.558 87.472 136.194 87.472C135.816 87.472 135.508 87.724 135.508 88.144C135.508 88.522 135.816 88.788 136.194 88.788ZM139.37 98H140.182V95.984L141.792 94.08L144.2 98H145.096L142.268 93.492L144.704 90.538H143.78L140.21 94.934H140.182V86.87H139.37V98ZM149.322 98.182C150.4 98.182 151.1 97.832 151.702 97.454L151.394 96.852C150.834 97.244 150.204 97.496 149.406 97.496C147.796 97.496 146.718 96.222 146.676 94.402H151.968C151.996 94.22 152.01 94.024 152.01 93.814C152.01 91.63 150.932 90.342 149.126 90.342C147.432 90.342 145.85 91.854 145.85 94.276C145.85 96.726 147.404 98.182 149.322 98.182ZM146.676 93.758C146.83 92.05 147.922 91.042 149.14 91.042C150.442 91.042 151.268 91.952 151.268 93.758H146.676Z" fill="white"/>
<path d="M9.8531 56.5538L13.2931 49.3858L12.4291 49.0978L8.8771 56.5538L12.4291 64.0098L13.2931 63.7218L9.8531 56.5538ZM12.3811 56.5538L15.8211 49.3858L14.9571 49.0978L11.4051 56.5538L14.9571 64.0098L15.8211 63.7218L12.3811 56.5538ZM24.8392 62.8418C27.2872 62.8418 28.8232 61.3698 28.8232 59.5138C28.8232 57.7698 27.7672 56.9698 26.4072 56.3778L24.7272 55.6578C23.8152 55.2738 22.7912 54.8418 22.7912 53.7058C22.7912 52.6498 23.6552 51.9778 24.9832 51.9778C26.0712 51.9778 26.9352 52.4098 27.6552 53.0818L28.4392 52.1378C27.6072 51.2738 26.3752 50.6818 24.9832 50.6818C22.8552 50.6818 21.2872 51.9938 21.2872 53.8018C21.2872 55.5138 22.5832 56.3458 23.6712 56.8098L25.3672 57.5458C26.4712 58.0418 27.3192 58.4258 27.3192 59.6258C27.3192 60.7778 26.3912 61.5458 24.8552 61.5458C23.6392 61.5458 22.4552 60.9698 21.6072 60.0898L20.7272 61.0978C21.7512 62.1698 23.1752 62.8418 24.8392 62.8418ZM34.3701 62.8418C36.4981 62.8418 38.4021 61.1778 38.4021 58.2978C38.4021 55.4018 36.4981 53.7218 34.3701 53.7218C32.2421 53.7218 30.3381 55.4018 30.3381 58.2978C30.3381 61.1778 32.2421 62.8418 34.3701 62.8418ZM34.3701 61.6258C32.8661 61.6258 31.8581 60.2978 31.8581 58.2978C31.8581 56.2978 32.8661 54.9378 34.3701 54.9378C35.8741 54.9378 36.8981 56.2978 36.8981 58.2978C36.8981 60.2978 35.8741 61.6258 34.3701 61.6258ZM40.6972 62.6338H42.1532V56.3298C43.0332 55.4498 43.6412 55.0018 44.5372 55.0018C45.6892 55.0018 46.1852 55.6898 46.1852 57.3218V62.6338H47.6412V57.1298C47.6412 54.9058 46.8092 53.7218 44.9852 53.7218C43.8012 53.7218 42.9052 54.3778 42.0732 55.1938H42.0252L41.8972 53.9458H40.6972V62.6338ZM53.4065 66.6338C56.0945 66.6338 57.7905 65.2418 57.7905 63.6258C57.7905 62.2018 56.7825 61.5618 54.7665 61.5618H53.0705C51.9025 61.5618 51.5505 61.1778 51.5505 60.6178C51.5505 60.1378 51.7905 59.8498 52.1105 59.5778C52.4945 59.7698 52.9745 59.8818 53.4065 59.8818C55.1665 59.8818 56.5745 58.7138 56.5745 56.8578C56.5745 56.1058 56.2865 55.4658 55.8705 55.0658H57.6465V53.9458H54.6225C54.3185 53.8338 53.8865 53.7218 53.4065 53.7218C51.6465 53.7218 50.1425 54.9218 50.1425 56.8258C50.1425 57.8658 50.7025 58.6978 51.2785 59.1618V59.2258C50.8305 59.5458 50.3025 60.1218 50.3025 60.8418C50.3025 61.5298 50.6385 61.9938 51.1025 62.2658V62.3298C50.2865 62.8578 49.8065 63.5618 49.8065 64.2978C49.8065 65.8018 51.2785 66.6338 53.4065 66.6338ZM53.4065 58.8898C52.3985 58.8898 51.5505 58.0898 51.5505 56.8258C51.5505 55.5458 52.3825 54.7938 53.4065 54.7938C54.4305 54.7938 55.2465 55.5618 55.2465 56.8258C55.2465 58.0898 54.3985 58.8898 53.4065 58.8898ZM53.6145 65.6418C52.0305 65.6418 51.0865 65.0338 51.0865 64.1058C51.0865 63.5938 51.3585 63.0818 51.9825 62.6338C52.3665 62.7298 52.7825 62.7778 53.1025 62.7778H54.6065C55.7585 62.7778 56.3825 63.0498 56.3825 63.8498C56.3825 64.7618 55.2785 65.6418 53.6145 65.6418ZM65.5682 64.0098L69.1202 56.5538L65.5682 49.0978L64.7042 49.3858L68.1442 56.5538L64.7042 63.7218L65.5682 64.0098ZM63.0402 64.0098L66.5922 56.5538L63.0402 49.0978L62.1762 49.3858L65.6162 56.5538L62.1762 63.7218L63.0402 64.0098ZM92.1442 52.1538V51.0818H81.8082C82.1602 50.5698 82.4802 50.0258 82.7522 49.4818L81.6962 49.1458C80.9282 50.7138 79.6482 52.2338 78.3042 53.1938C78.5442 53.4178 78.9122 53.8978 79.0402 54.1218C79.7282 53.5778 80.4002 52.9058 81.0082 52.1538H92.1442ZM79.9362 63.8658C80.5282 63.0178 81.1522 61.6898 81.5522 60.6498L80.4322 60.3618C80.0322 61.4018 79.3762 62.6498 78.8162 63.4178L79.9362 63.8658ZM83.1042 60.8098C83.2962 61.7698 83.4402 63.0018 83.4402 63.7378L84.6082 63.5618C84.5922 62.8418 84.4162 61.6418 84.2082 60.7138L83.1042 60.8098ZM86.4002 60.7778C86.8002 61.7218 87.2162 62.9538 87.3602 63.7058L88.5282 63.4658C88.3682 62.7138 87.9362 61.4978 87.4882 60.5858L86.4002 60.7778ZM89.6962 60.7138C90.2722 61.7058 90.9922 63.0338 91.2962 63.8338L92.4482 63.3378C92.0962 62.5538 91.3602 61.2418 90.7682 60.2818L89.6962 60.7138ZM82.0802 55.9138H83.7442V58.6338H82.0802V55.9138ZM86.6242 55.9138V58.6338H84.7682V55.9138H86.6242ZM89.4082 55.9138V58.6338H87.6482V55.9138H89.4082ZM90.5122 58.6338V55.9138H92.3202V54.8418H90.5122V53.0658H89.4082V54.8418H87.6482V53.0658H86.6242V54.8418H84.7682V53.0658H83.7442V54.8418H82.0802V53.0658H81.0082V54.8418H79.0882V55.9138H81.0082V58.6338H78.5602V59.7058H92.6402V58.6338H90.5122ZM100.928 49.3058C100.88 51.7378 100.976 59.5138 94.3362 62.8738C94.7042 63.1298 95.0882 63.4818 95.2962 63.8018C99.2002 61.7218 100.896 58.1378 101.632 54.9378C102.4 57.9138 104.112 61.8658 108.112 63.7378C108.288 63.4018 108.64 63.0018 108.976 62.7298C103.328 60.2178 102.368 53.5298 102.128 51.6258C102.208 50.6818 102.224 49.8818 102.24 49.3058H100.928ZM113.568 51.4498H111.104V52.1538H117.152V51.4498H114.656V50.7298H117.584V50.0258H114.656V49.2418H113.568V50.0258H110.592V50.7298H113.568V51.4498ZM114.112 61.6098V60.7938H121.088V61.6098H114.112ZM121.088 57.4658V58.2978H114.112V57.4658H121.088ZM113.68 53.3858V54.5378H112.208C112.256 54.2018 112.272 53.8978 112.272 53.6098V53.3858H113.68ZM116.128 54.5378H114.576V53.3858H116.128V54.5378ZM114.112 59.0818H121.088V59.9938H114.112V59.0818ZM122.256 57.4658H124.256V56.5698H111.376C111.712 56.1698 111.92 55.6898 112.048 55.2258H117.104V52.6978H111.328V53.5938C111.328 54.3458 111.184 55.3698 110.384 56.1858C110.56 56.2818 110.864 56.4738 111.072 56.6498V57.4658H112.96V61.6098H110.56V62.5058H121.088V63.8978H122.256V62.5058H124.576V61.6098H122.256V57.4658ZM122.384 53.2898C122.016 53.7698 121.52 54.1698 120.944 54.5058C120.336 54.1698 119.84 53.7538 119.472 53.2898H122.384ZM123.136 52.5218L122.944 52.5538H118.496C119.456 51.9938 119.712 51.2578 119.728 50.5698H121.792V51.2098C121.792 52.0098 121.952 52.3778 122.8 52.3778H123.904C124.16 52.3778 124.496 52.3618 124.656 52.3138C124.64 52.0738 124.608 51.8018 124.592 51.5458C124.4 51.6098 124.048 51.6258 123.872 51.6258H123.024C122.816 51.6258 122.784 51.5298 122.784 51.2258V49.7218H118.768V50.5058C118.768 51.0498 118.56 51.5778 117.392 52.0418C117.568 52.1538 117.84 52.4418 118 52.6818V53.2898H118.448C118.848 53.9298 119.376 54.4738 120.032 54.9378C119.2 55.2578 118.256 55.4818 117.312 55.6098C117.488 55.8178 117.696 56.1858 117.792 56.4418C118.912 56.2498 120.016 55.9618 120.976 55.4978C121.856 55.9458 122.864 56.2338 124 56.4258C124.144 56.1538 124.4 55.7858 124.624 55.5778C123.616 55.4658 122.72 55.2418 121.92 54.9538C122.736 54.4098 123.376 53.6738 123.76 52.7778L123.136 52.5218Z" fill="#00E0B8"/>
<path d="M210.273 33.2754L8.46051 33.2754V34.0521L210.273 34.0521V33.2754Z" fill="white"/>
<path d="M213.328 30.5435H200.238V36.6521H213.328V30.5435Z" fill="#00E0B8"/>
<path d="M15.6551 12.7C15.4391 12.484 15.1271 12.256 14.7911 12.04C15.0551 11.788 15.2831 11.536 15.4871 11.272L14.8631 11.068C14.6951 11.296 14.4791 11.512 14.2631 11.704C13.9511 11.536 13.6391 11.356 13.3391 11.224L12.8951 11.62C13.1711 11.752 13.4711 11.908 13.7591 12.088C13.3991 12.34 13.0151 12.568 12.6191 12.748C12.7751 12.868 13.0271 13.096 13.1111 13.216C13.5071 13 13.9151 12.748 14.3111 12.436C14.6591 12.688 14.9711 12.916 15.1751 13.132L15.6551 12.7ZM15.6191 10.552C15.4031 10.384 15.1151 10.192 14.7911 9.988C15.0431 9.748 15.2591 9.508 15.4511 9.256L14.8271 9.088C14.6711 9.28 14.4791 9.484 14.2631 9.676C13.9511 9.508 13.6511 9.352 13.3631 9.232L12.9311 9.628C13.1951 9.748 13.4951 9.892 13.7711 10.06C13.4351 10.288 13.0751 10.504 12.7031 10.672C12.8591 10.78 13.1111 10.996 13.2071 11.104C13.5791 10.912 13.9511 10.66 14.3231 10.384C14.6471 10.588 14.9591 10.816 15.1511 10.996L15.6191 10.552ZM10.0391 13.912H18.4751V15.4H19.3511V13.228H18.4151C18.5111 12.16 18.6191 10.612 18.6791 9.424H15.9071V10.036H17.8151L17.7791 10.684H15.9671V11.296H17.7431L17.6831 11.944H15.8951V12.556H17.6351C17.6111 12.796 17.5871 13.012 17.5631 13.228H10.9871L10.9391 12.556H12.6071V11.944H10.9031L10.8551 11.296H12.5591V10.684H10.8191L10.7711 10.096C11.3951 9.976 12.1031 9.82 12.6311 9.628L12.2231 9.076C11.6351 9.256 10.6031 9.544 9.90707 9.664L10.1471 13.228H9.18707V15.4H10.0391V13.912ZM19.5911 16.828H14.7911V16.612C15.7391 16.228 16.7591 15.7 17.5031 15.124L16.9631 14.68L16.7831 14.728H11.1431V15.4H15.8351C15.2591 15.748 14.5631 16.084 13.9271 16.312V16.828H8.92307V17.584H13.9271V18.94C13.9271 19.108 13.8791 19.144 13.6751 19.156C13.4951 19.156 12.8231 19.156 12.0791 19.132C12.1991 19.36 12.3431 19.66 12.3911 19.888C13.3391 19.888 13.9391 19.9 14.3231 19.768C14.6951 19.636 14.7911 19.432 14.7911 18.964V17.584H19.5911V16.828ZM29.1191 11.392H23.4431V10.144H29.1191V11.392ZM30.0431 9.424H22.5551V12.112H30.0431V9.424ZM22.9391 16.408H29.5991V17.272H22.9391V16.408ZM22.9391 14.932H29.5991V15.772H22.9391V14.932ZM22.9391 13.456H29.5991V14.296H22.9391V13.456ZM30.5111 17.932V12.796H22.0511V17.932H24.2831C23.5271 18.424 21.9911 18.976 20.7551 19.264C20.9711 19.444 21.2591 19.744 21.4151 19.924C22.6391 19.612 24.1871 19.036 25.1471 18.448L24.3551 17.932H30.5111ZM27.2231 18.532C28.4831 18.904 30.0911 19.516 30.9911 19.936L31.7591 19.288C30.8231 18.904 29.2271 18.316 27.9911 17.956L27.2231 18.532ZM35.0667 21.148H35.8707L39.4587 9.484H38.6667L35.0667 21.148Z" fill="#00E0B8"/>
<path d="M52.3611 11.992H53.5451V9.368C55.6571 10.216 58.1371 11.336 59.4491 12.088L60.0891 11.16C58.6011 10.344 55.7371 9.144 53.5451 8.344V8.312H59.8811V7.272H53.5451V5.608H52.3611V7.272H46.1531V8.312H51.5611C50.0731 9.528 47.7531 10.6 45.7051 11.128C45.9291 11.352 46.2811 11.8 46.4571 12.072C48.4731 11.48 50.7771 10.312 52.3611 8.952V11.992ZM53.5291 15.08C54.9371 14.52 56.3771 13.72 57.4331 12.92L56.6811 12.264L56.4091 12.328H48.6971V13.384H54.9691C54.1851 13.848 53.2411 14.296 52.3611 14.6V15.416H45.9291V16.52H52.3611V18.824C52.3611 19.032 52.2971 19.08 52.0091 19.096C51.7371 19.112 50.7291 19.112 49.6411 19.08C49.8491 19.384 50.1051 19.864 50.2011 20.184C51.4971 20.184 52.2811 20.168 52.8251 19.992C53.3531 19.8 53.5291 19.496 53.5291 18.84V16.52H60.0891V15.416H53.5291V15.08ZM64.8091 15.736C64.2011 16.792 62.9691 18.12 61.8971 18.984C62.1371 19.16 62.5531 19.512 62.7771 19.72C63.8971 18.792 65.1451 17.384 65.9451 16.136L64.8091 15.736ZM65.2251 11.096H72.8731V13.656H65.2251V11.096ZM74.1051 14.712V10.056H64.0571V14.712H68.4411V18.824C68.4411 19.048 68.3771 19.128 68.0731 19.128C67.7851 19.144 66.7931 19.144 65.7051 19.112C65.8651 19.448 66.0411 19.912 66.1051 20.248C67.5131 20.264 68.4251 20.264 68.9691 20.072C69.5131 19.88 69.6731 19.56 69.6731 18.856V14.712H74.1051ZM71.9291 16.312C73.0011 17.368 74.2651 18.872 74.8571 19.784L75.8971 19.08C75.2571 18.184 73.9291 16.744 72.9051 15.72L71.9291 16.312ZM70.0251 7.608C69.7371 7 69.2251 6.136 68.7771 5.512L67.6571 5.864C68.0091 6.408 68.3611 7.064 68.6331 7.608H62.0891V8.776H75.9451V7.608H70.0251ZM80.8091 15.736C80.2011 16.792 78.9691 18.12 77.8971 18.984C78.1371 19.16 78.5531 19.512 78.7771 19.72C79.8971 18.792 81.1451 17.384 81.9451 16.136L80.8091 15.736ZM81.2251 11.096H88.8731V13.656H81.2251V11.096ZM90.1051 14.712V10.056H80.0571V14.712H84.4411V18.824C84.4411 19.048 84.3771 19.128 84.0731 19.128C83.7851 19.144 82.7931 19.144 81.7051 19.112C81.8651 19.448 82.0411 19.912 82.1051 20.248C83.5131 20.264 84.4251 20.264 84.9691 20.072C85.5131 19.88 85.6731 19.56 85.6731 18.856V14.712H90.1051ZM87.9291 16.312C89.0011 17.368 90.2651 18.872 90.8571 19.784L91.8971 19.08C91.2571 18.184 89.9291 16.744 88.9051 15.72L87.9291 16.312ZM86.0251 7.608C85.7371 7 85.2251 6.136 84.7771 5.512L83.6571 5.864C84.0091 6.408 84.3611 7.064 84.6331 7.608H78.0891V8.776H91.9451V7.608H86.0251Z" fill="white"/>
</svg>
