<svg width="28" height="28" viewBox="0 0 28 28" fill="none" xmlns="http://www.w3.org/2000/svg">
<path fill-rule="evenodd" clip-rule="evenodd" d="M17.9995 5.7959H15.4995C13.2995 5.7959 11.4995 7.69477 11.4995 9.89346V12.292H8.99951V15.5901H11.3995V22.0862H14.6995V15.5901H17.0995L17.9995 12.392H14.6995V9.89346C14.6995 9.4937 15.0995 9.09394 15.4995 9.09394H17.9995V5.7959Z" fill="white"/>
<path fill-rule="evenodd" clip-rule="evenodd" d="M14 1.99951C7.37202 1.99951 2 7.36919 2 13.9918C2 20.6144 7.37202 25.984 14 25.984C20.628 25.984 26 20.6144 26 13.9918C26 7.36919 20.628 1.99951 14 1.99951ZM0 13.9918C0 6.2635 6.26857 -0.000488281 14 -0.000488281C21.7314 -0.000488281 28 6.2635 28 13.9918C28 21.7201 21.7314 27.984 14 27.984C6.26857 27.984 0 21.7201 0 13.9918Z" fill="white"/>
</svg>
