<svg width="28" height="28" viewBox="0 0 28 28" fill="none" xmlns="http://www.w3.org/2000/svg">
<path d="M14.0005 26.9845C21.1802 26.9845 27.0005 21.1677 27.0005 13.9923C27.0005 6.81684 21.1802 1 14.0005 1C6.82078 1 1.00049 6.81684 1.00049 13.9923C1.00049 21.1677 6.82078 26.9845 14.0005 26.9845Z" stroke="#BBD293" stroke-width="2"/>
<path d="M11.0005 7H16.5005C18.7005 7 20.5005 8.79893 20.5005 10.9976V16.4944C20.5005 18.693 18.7005 20.492 16.5005 20.492H11.0005C8.80049 20.492 7.00049 18.693 7.00049 16.4944V10.9976C7.00049 8.79893 8.80049 7 11.0005 7Z" fill="#BBD293"/>
<path d="M14.0705 17.3616C13.3705 17.3616 12.6705 17.1618 12.0705 16.6621C11.2705 16.1624 10.7705 15.3628 10.6705 14.4634C10.3705 12.6644 11.6705 10.8655 13.5705 10.5657C13.8705 10.5657 14.2705 10.5657 14.5705 10.5657C16.0705 10.7656 17.1705 11.9648 17.4705 13.464C17.5705 14.3634 17.3705 15.2629 16.8705 15.9625C16.3705 16.6621 15.5705 17.1618 14.6705 17.2617C14.3705 17.3616 14.1705 17.3616 14.0705 17.3616ZM14.0705 11.5651C13.9705 11.5651 13.8705 11.5651 13.7705 11.5651C13.0705 11.765 12.4705 12.0648 12.1705 12.5645C11.7705 13.0642 11.5705 13.6638 11.6705 14.2635C11.7705 14.9631 12.1705 15.4628 12.6705 15.8625C13.1705 16.1624 13.7705 16.3622 14.3705 16.2623C14.9705 16.1624 15.5705 15.8625 15.8705 15.3628C16.2705 14.8631 16.3705 14.2635 16.2705 13.6638C16.0705 12.6644 15.3705 11.8649 14.2705 11.665C14.2705 11.5651 14.1705 11.5651 14.0705 11.5651Z" fill="#8A795E"/>
<path d="M17.9704 10.8664C17.5704 10.8664 17.1704 10.4664 17.1704 10.0664C17.1704 9.66636 17.5704 9.26636 17.9704 9.26636C18.3704 9.26636 18.7704 9.66636 18.7704 10.0664C18.7704 10.4664 18.3704 10.8664 17.9704 10.8664Z" fill="#8A795E"/>
</svg>
