<svg width="28" height="28" viewBox="0 0 28 28" fill="none" xmlns="http://www.w3.org/2000/svg">
<path d="M19.942 7.94315C18.342 6.64392 16.242 5.94434 14.242 5.94434C12.142 5.94434 10.142 6.64392 8.54199 7.94315C6.94199 9.14243 6.04199 10.8414 6.04199 12.7403C6.04199 14.4393 6.84199 16.1383 8.14199 17.3376C9.54199 18.5368 11.242 19.2364 13.042 19.3364V22.1347C13.042 22.3346 13.242 22.4345 13.342 22.4345C13.442 22.4345 13.442 22.4345 13.542 22.3346L18.642 18.4369C19.642 17.7373 20.542 16.8379 21.242 15.9384C21.942 15.0389 22.342 13.9396 22.342 12.7403C22.342 10.8414 21.442 9.14243 19.942 7.94315Z" fill="#BBD293"/>
<path d="M16.4413 10.7419C16.4413 10.4421 16.2413 10.2422 16.0413 10.2422C15.8413 10.2422 15.6413 10.4421 15.6413 10.7419C15.6413 11.3415 15.6413 11.8412 15.6413 12.4409C15.6413 12.5408 15.6413 12.6408 15.6413 12.7407C15.5413 12.6408 15.5413 12.5408 15.4413 12.5408C14.9413 11.8412 14.4413 11.2416 13.9413 10.542C13.8413 10.3421 13.6413 10.2422 13.4413 10.3421C13.2413 10.3421 13.0413 10.542 13.1413 10.7419C13.1413 11.8412 13.1413 12.8406 13.1413 13.94C13.1413 14.1399 13.2413 14.2398 13.3413 14.3397C13.6413 14.4397 13.9413 14.2398 13.9413 13.84C13.9413 13.3403 13.9413 12.8406 13.9413 12.241V12.0411C14.0413 12.0411 14.0413 12.1411 14.1413 12.241C14.6413 12.9406 15.1413 13.5402 15.6413 14.2398C15.7413 14.4397 15.9413 14.5396 16.1413 14.4397C16.3413 14.3397 16.4413 14.1399 16.4413 13.94C16.4413 12.8406 16.4413 11.8412 16.4413 10.7419Z" fill="#8A795E"/>
<path d="M18.0417 11.1417C18.1417 11.1417 18.2417 11.1417 18.3417 11.1417C18.6417 11.1417 18.9417 11.1417 19.2417 11.1417C19.3417 11.1417 19.4417 11.1417 19.5417 11.0417C19.7417 10.9418 19.8417 10.7419 19.7417 10.542C19.7417 10.3421 19.5417 10.2422 19.3417 10.2422C18.8417 10.2422 18.2417 10.2422 17.7417 10.2422C17.3417 10.2422 17.2417 10.4421 17.2417 10.7419C17.2417 11.7413 17.2417 12.7407 17.2417 13.7401C17.2417 14.1399 17.4417 14.2398 17.7417 14.2398C18.2417 14.2398 18.7417 14.2398 19.2417 14.2398C19.3417 14.2398 19.4417 14.2398 19.4417 14.2398C19.6417 14.1399 19.7417 13.94 19.7417 13.7401C19.7417 13.6402 19.6417 13.5402 19.5417 13.4403C19.4417 13.4403 19.3417 13.4403 19.2417 13.4403C18.8417 13.4403 18.4417 13.4403 18.1417 13.4403V12.8406C18.2417 12.8406 18.2417 12.8406 18.3417 12.8406C18.7417 12.8406 19.0417 12.8406 19.4417 12.8406C19.7417 12.8406 19.9417 12.6408 19.9417 12.4409C19.9417 12.241 19.7417 12.0411 19.4417 12.0411C19.2417 12.0411 19.0417 12.0411 18.8417 12.0411C17.9417 11.9412 17.9417 11.9412 18.0417 11.1417C18.0417 11.1417 18.0417 11.2416 18.0417 11.1417Z" fill="#8A795E"/>
<path d="M10.742 13.6398C10.642 13.6398 10.542 13.6398 10.542 13.6398H9.442V13.2401C9.442 12.4405 9.442 11.641 9.442 10.8415C9.442 10.5417 9.24199 10.3418 9.04199 10.3418C8.84199 10.3418 8.54199 10.5417 8.54199 10.8415C8.54199 11.8409 8.54199 12.9402 8.54199 13.9397C8.54199 14.1395 8.64199 14.4394 8.94199 14.4394H9.04199C9.342 14.4394 10.442 14.4394 10.742 14.4394C10.942 14.4394 11.142 14.2395 11.142 14.0396C11.142 13.8397 10.942 13.6398 10.742 13.6398Z" fill="#8A795E"/>
<path d="M12.4421 10.7416C12.4421 10.4417 12.3421 10.3418 12.0421 10.3418C11.7421 10.3418 11.6421 10.4417 11.6421 10.7416C11.6421 11.8409 11.6421 12.9402 11.6421 14.0396C11.6421 14.3394 11.7421 14.4394 12.0421 14.4394C12.3421 14.4394 12.4421 14.3394 12.4421 14.0396C12.4421 13.5399 12.4421 12.9402 12.4421 12.4405C12.4421 11.9408 12.4421 11.2413 12.4421 10.7416Z" fill="#8A795E"/>
<path fill-rule="evenodd" clip-rule="evenodd" d="M14 2C7.37203 2 2 7.36968 2 13.9923C2 20.6149 7.37203 25.9845 14 25.9845C20.628 25.9845 26 20.6149 26 13.9923C26 7.36968 20.628 2 14 2ZM0 13.9923C0 6.26399 6.26858 0 14 0C21.7314 0 28 6.26399 28 13.9923C28 21.7205 21.7314 27.9845 14 27.9845C6.26858 27.9845 0 21.7205 0 13.9923Z" fill="#BBD293"/>
</svg>
