<svg width="40" height="53" viewBox="0 0 40 53" fill="none" xmlns="http://www.w3.org/2000/svg">
<path d="M5.01852 21.5021C5.01852 21.2549 5.01852 21.0302 5.01852 20.8279C5.04113 18.5354 4.97331 16.2429 5.08634 13.9504C5.42543 7.29776 10.3083 1.67894 16.864 0.330426C25.2961 -1.42265 33.2986 3.97142 34.7906 12.4446C34.9488 13.3661 34.9714 14.3101 34.994 15.2315C35.0166 17.1195 34.994 19.0074 34.994 20.8953C34.994 21.0976 34.994 21.2774 34.994 21.5021C35.3105 21.5471 35.5592 21.5471 35.8078 21.592C38.3623 22.0415 39.9673 23.952 39.99 26.6265C40.0126 29.1213 39.99 31.616 39.99 34.1108C39.99 38.6733 39.99 43.2357 39.99 47.7982C39.99 50.2705 38.5658 52.1809 36.3052 52.8102C35.8305 52.9451 35.3331 52.99 34.8358 52.99C24.9344 52.99 15.033 53.0125 5.13155 52.99C2.21538 52.99 0 50.8549 0 47.9331C0 40.8309 0 33.6837 0 26.5591C0 24.0643 1.69545 21.7044 5.01852 21.5021ZM31.6031 21.5021C31.6257 21.3673 31.6484 21.2774 31.6484 21.165C31.6484 18.895 31.6936 16.625 31.6257 14.355C31.3771 7.20786 24.5501 2.01607 17.5196 3.56687C12.049 4.80301 8.43202 9.27559 8.36421 14.9169C8.3416 16.9621 8.36421 18.9849 8.36421 21.0302C8.36421 21.1875 8.38681 21.3448 8.40942 21.5021C16.1633 21.5021 23.8719 21.5021 31.6031 21.5021ZM25.0248 34.6277C24.957 34.2906 24.9344 33.8186 24.7987 33.3691C24.1884 31.144 22.1765 29.7281 19.8254 29.818C17.497 29.9079 15.5755 31.5036 15.146 33.7512C14.6713 36.0886 15.779 38.2912 17.9039 39.2351C18.2656 39.3925 18.3787 39.5723 18.3787 39.9543C18.356 40.9657 18.356 41.9771 18.3787 42.9885C18.3787 44.0673 19.0116 44.7191 20.0063 44.7416C21.0235 44.7641 21.6791 44.0898 21.7017 42.9885C21.7017 41.9546 21.7243 40.9433 21.7017 39.9094C21.7017 39.5723 21.7922 39.4149 22.1312 39.2576C24.0075 38.3811 24.9118 36.8528 25.0248 34.6277Z" fill="white"/>
</svg>
