<svg width="149" height="27" viewBox="0 0 149 27" fill="none" xmlns="http://www.w3.org/2000/svg">
<path d="M37.5043 8.24855L36.6952 12.962L35.6543 12.2825C35.6543 12.2825 36.3967 8.42923 36.4399 8.15821L37.5043 8.24855ZM41.2868 7.11341C41.2355 7.10542 41.1829 7.10925 41.1333 7.12462C41.0836 7.13998 41.0381 7.16648 41.0003 7.20208C40.9624 7.23768 40.9331 7.28146 40.9147 7.33008C40.8963 7.37869 40.8892 7.43086 40.894 7.48262V14.2778C40.9242 14.6543 40.8152 15.0289 40.5877 15.3305C40.4352 15.4637 40.2564 15.5634 40.0628 15.623C39.8693 15.6825 39.6653 15.7006 39.4643 15.6761H38.6434L38.3802 14.321L39.209 14.3838C39.5389 14.3838 39.7039 14.2267 39.7039 13.9086V7.36872C39.7084 7.33117 39.7043 7.29309 39.6919 7.25739C39.6794 7.22169 39.6589 7.18932 39.632 7.16277C39.605 7.13622 39.5724 7.1162 39.5365 7.10423C39.5006 7.09227 39.4625 7.08869 39.425 7.09377C39.3891 7.09255 39.3534 7.09893 39.3201 7.11248C39.2868 7.12603 39.2568 7.14645 39.232 7.1724C39.2071 7.19835 39.188 7.22925 39.176 7.26308C39.1639 7.29691 39.1591 7.3329 39.1619 7.36872C39.1619 7.69866 39.1619 7.67509 39.1619 7.8597V8.16607C39.2101 9.69911 39.0515 11.2317 38.6905 12.7224C38.3083 13.9248 37.6915 15.0395 36.8759 16.0021L35.831 15.1851C36.6012 14.3669 37.1795 13.3874 37.524 12.3178C37.8303 11.3044 37.9835 9.61152 37.9835 7.60439C37.9835 7.05842 37.5632 7.0977 37.5632 7.0977H35.8743V5.81722H38.3292C38.3292 5.81722 38.7219 5.85257 38.7219 5.42443V5.03165C38.7252 4.97812 38.7174 4.9245 38.6991 4.87409C38.6808 4.82368 38.6524 4.77755 38.6156 4.73855C38.5788 4.69954 38.5344 4.66848 38.4851 4.64728C38.4359 4.62609 38.3828 4.6152 38.3292 4.6153H36.3652V3.35053H38.4509C38.501 3.35014 38.5504 3.33946 38.5961 3.31917C38.6419 3.29888 38.683 3.26941 38.7169 3.23258C38.7507 3.19575 38.7767 3.15235 38.7931 3.10507C38.8095 3.0578 38.8161 3.00765 38.8123 2.95775V1.98364H40.136V3.04416C40.136 3.04416 40.0888 3.35053 40.4463 3.35053H41.6246C41.6246 3.35053 42.3513 3.29947 42.3513 3.9947C42.3513 4.68993 41.5893 4.59566 41.5893 4.59566H40.568C40.5144 4.59556 40.4613 4.60645 40.4121 4.62764C40.3628 4.64884 40.3184 4.6799 40.2816 4.71891C40.2448 4.75791 40.2164 4.80404 40.1981 4.85445C40.1798 4.90486 40.172 4.95848 40.1752 5.01201V5.49906C40.1752 5.49906 40.1752 5.81722 40.568 5.81722H41.7974C41.8841 5.8084 41.9716 5.81791 42.0543 5.84512C42.137 5.87234 42.213 5.91665 42.2775 5.97518C42.342 6.03371 42.3934 6.10515 42.4284 6.18486C42.4635 6.26456 42.4813 6.35075 42.4809 6.43782C42.4809 7.07806 41.7974 7.09377 41.7974 7.09377L41.2868 7.11341ZM42.5359 10.7624L41.4439 11.0962L40.9333 8.4803L41.9506 8.23677L42.5359 10.7624ZM44.0756 8.54314L43.4393 13.3548L42.3356 12.4788L42.9522 8.33889L44.0756 8.54314ZM47.9642 7.11341C47.9178 7.1105 47.8714 7.11803 47.8284 7.13544C47.7854 7.15285 47.7468 7.17969 47.7155 7.21399C47.6842 7.24829 47.661 7.28918 47.6476 7.33363C47.6342 7.37808 47.631 7.42497 47.6381 7.47084V14.1482V14.5174C47.6637 14.8929 47.5535 15.265 47.3278 15.5661C47.1733 15.7014 46.992 15.8028 46.7958 15.8637C46.5996 15.9246 46.3928 15.9436 46.1888 15.9196H45.3757L45.089 14.5331L45.9335 14.592C46.2634 14.592 46.4284 14.4349 46.4284 14.1168V7.35301C46.4284 7.35301 46.4284 7.09377 46.0945 7.09377C45.7606 7.09377 45.7842 7.35301 45.7842 7.35301V8.16607C45.8339 9.69916 45.6753 11.2319 45.3129 12.7224C44.912 13.959 44.2773 15.1071 43.4432 16.1042L42.3748 15.2637C43.161 14.4345 43.7621 13.4478 44.1384 12.3689C44.4605 11.3712 44.6216 8.12286 44.6216 7.50619C44.6216 7.02699 44.2288 7.09377 44.2288 7.09377H42.909V5.81722H44.8729C44.9227 5.82342 44.9732 5.81886 45.021 5.80384C45.0688 5.78882 45.1128 5.7637 45.1501 5.73017C45.1873 5.69664 45.2169 5.6555 45.2369 5.60952C45.2568 5.56355 45.2667 5.51382 45.2657 5.46371V5.02772C45.2721 4.96873 45.2651 4.90906 45.2451 4.85318C45.2252 4.7973 45.1928 4.74667 45.1505 4.70509C45.1081 4.66351 45.0569 4.63206 45.0007 4.61311C44.9445 4.59416 44.8847 4.58819 44.8258 4.59566H43.1211V3.35053H44.9751C45.0228 3.35675 45.0713 3.35206 45.117 3.33681C45.1626 3.32156 45.2042 3.29615 45.2386 3.2625C45.273 3.22884 45.2994 3.18782 45.3156 3.14252C45.3319 3.09721 45.3377 3.04881 45.3325 3.00095V1.98364H46.6601V3.02845C46.6601 3.02845 46.6601 3.35053 46.9429 3.35053H48.7301C48.8091 3.34674 48.8881 3.36004 48.9615 3.38954C49.0349 3.41904 49.1011 3.46404 49.1555 3.52146C49.21 3.57889 49.2514 3.64739 49.2769 3.72228C49.3025 3.79717 49.3116 3.8767 49.3036 3.95542C49.3144 4.03638 49.3075 4.11871 49.2834 4.19676C49.2594 4.27481 49.2187 4.34673 49.1642 4.40757C49.1097 4.4684 49.0427 4.51672 48.9678 4.54919C48.8928 4.58166 48.8117 4.59751 48.7301 4.59566H47.0568C47.0153 4.58922 46.9728 4.59254 46.9328 4.60533C46.8928 4.61813 46.8563 4.64007 46.8262 4.6694C46.7961 4.69874 46.7732 4.73467 46.7594 4.77436C46.7456 4.81406 46.7412 4.85642 46.7465 4.8981V5.49906C46.7465 5.86828 47.1393 5.83293 47.1393 5.83293H49.1032C49.1872 5.82452 49.2719 5.83473 49.3514 5.86283C49.431 5.89093 49.5033 5.93623 49.5634 5.99549C49.6234 6.05476 49.6696 6.12654 49.6987 6.20571C49.7278 6.28488 49.739 6.3695 49.7317 6.45353C49.7349 6.53821 49.721 6.62266 49.6908 6.70186C49.6607 6.78106 49.615 6.85341 49.5564 6.9146C49.4978 6.97578 49.4274 7.02456 49.3496 7.05804C49.2717 7.09152 49.188 7.10901 49.1032 7.10948L47.9642 7.11341ZM48.4316 13.9282L47.9995 8.63741L49.1504 8.44887L49.6924 13.6061L48.4316 13.9282Z" fill="#BBD293"/>
<path d="M57.2728 12.2628L56.6169 15.9982H55.3403L56.0081 12.1096L57.2728 12.2628Z" fill="#BBD293"/>
<path d="M59.9946 4.18713L61.1415 4.68596L58.0464 9.67825C58.0464 9.67825 57.7282 10.071 58.0699 10.071C58.6355 10.0318 59.9278 9.86679 59.9239 9.83929L59.4918 8.72379L60.5052 8.42134L61.6246 11.1708L60.4816 11.5636L60.242 10.998L56.4399 11.3908C56.4399 11.3908 55.4776 11.489 55.9214 10.7309L58.1917 7.26263L56.4006 7.45509C56.4006 7.45509 55.4461 7.55329 55.6779 6.83449C55.6779 6.79129 57.8853 2.03467 57.8853 2.03467L59.1737 2.37639L57.4729 5.8486C57.4729 5.8486 57.2961 6.19033 57.6929 6.16283C58.0896 6.13534 58.9105 5.99786 58.9105 5.99786" fill="#BBD293"/>
<path d="M57.9482 15.676L57.7793 12.1566L58.9302 12.0034L59.2247 15.5267L57.9482 15.676Z" fill="#BBD293"/>
<path d="M59.9477 14.6195L59.6099 11.8465L60.6586 11.6187L61.0907 14.2974L59.9477 14.6195Z" fill="#BBD293"/>
<path d="M61.1616 3.51142V2.27808H68.7227C68.7227 2.27808 69.4769 2.27808 69.4769 2.84761C69.4769 3.57034 68.7109 3.51142 68.7109 3.51142H61.1616Z" fill="#BBD293"/>
<path d="M64.1116 10.4795H61.4917V9.16761H64.2412C64.2807 9.16711 64.3198 9.15875 64.3561 9.14303C64.3924 9.1273 64.4251 9.10453 64.4526 9.07603C64.48 9.04752 64.5014 9.01386 64.5157 8.97698C64.53 8.94011 64.5368 8.90077 64.5358 8.86124V7.85571H65.8909V8.91623C65.8909 8.91623 65.8909 9.16761 66.1148 9.16761H68.77C68.8584 9.16089 68.9473 9.17296 69.0307 9.20302C69.1141 9.23309 69.1903 9.28047 69.2541 9.34206C69.3179 9.40364 69.3679 9.47804 69.401 9.56035C69.434 9.64266 69.4492 9.73102 69.4456 9.81963C69.4484 9.90875 69.4327 9.99747 69.3997 10.0803C69.3666 10.1631 69.3168 10.2381 69.2534 10.3008C69.19 10.3635 69.1143 10.4124 69.0312 10.4445C68.948 10.4766 68.8591 10.4912 68.77 10.4874C68.77 10.4874 66.7197 10.4874 66.3347 10.4874C65.9498 10.4874 66.158 10.7859 66.158 10.7859L69.4024 16.0492H67.5799L65.8909 12.8401V16.1435H64.5358V12.8362L62.1123 16.1042H60.5137L64.1744 10.8919C64.3158 10.6955 64.4729 10.4795 64.1116 10.4795Z" fill="#BBD293"/>
<path d="M62.2885 8.04802L61.4126 5.31032L62.7049 4.95288L63.7025 7.69059L62.2885 8.04802Z" fill="#BBD293"/>
<path d="M64.6732 7.32546L64.3511 4.73701L65.6748 4.56812L66.0715 7.18406L64.6732 7.32546Z" fill="#BBD293"/>
<path d="M69.2609 4.86263L67.9215 8.13846L66.5664 7.52178L67.9844 4.40308L69.2609 4.86263Z" fill="#BBD293"/>
<path d="M77.0533 3.73939C77.0533 3.73939 77.7446 3.77474 77.3754 3.12272L76.9119 2.16825L78.2945 1.98364L78.7108 2.9224C78.7108 2.9224 79.0525 3.74724 79.6417 3.74724C80.2309 3.74724 80.2859 3.74724 80.2859 3.74724C80.2859 3.74724 81.0361 3.71189 81.0361 4.38748C81.0372 4.48318 81.018 4.57802 80.9798 4.66573C80.9415 4.75345 80.885 4.83203 80.8141 4.89628C80.7432 4.96052 80.6594 5.00896 80.5683 5.0384C80.4773 5.06783 80.381 5.07758 80.2859 5.067H75.1797V3.73939H77.0533ZM75.6039 6.00183H79.7438C79.7438 6.00183 80.498 6.00183 80.498 6.63814C80.498 7.27445 79.7438 7.25874 79.7438 7.25874H75.6039V6.00183ZM75.6039 8.24463H79.7556C79.7556 8.24463 80.5412 8.2132 80.5412 8.88879C80.5412 9.56438 79.7556 9.50939 79.7556 9.50939H75.6039V8.24463ZM75.651 10.6485H79.7124C79.7124 10.6485 80.5294 10.5621 80.5294 11.5165V15.9864H79.1429V15.2951H77.0336V16.1396H75.651V10.6485ZM79.1429 11.8936H77.0336V14.05H79.1429V11.8936ZM87.5013 3.31911V5.70724C87.4707 5.93994 87.5221 6.17606 87.6467 6.37497C87.8069 6.49372 88.0063 6.54708 88.2044 6.52423H88.4794C88.4794 6.52423 89.1746 6.52423 89.1746 7.14483C89.1746 7.76543 88.4794 7.81649 88.4794 7.81649H87.6938C87.2499 7.85039 86.8092 7.71887 86.4565 7.44727C86.1816 7.19982 86.0637 6.72062 86.0637 6.00183V3.69225H83.9388V4.18716C83.96 4.90133 83.826 5.6116 83.546 6.26892C83.0985 7.05245 82.5052 7.74308 81.7981 8.30354L80.6747 7.3098C81.3006 6.88514 81.8218 6.3237 82.1987 5.66796C82.4704 4.88089 82.5852 4.0482 82.5365 3.21699V2.39999H86.6411C86.6411 2.39999 87.5013 2.30573 87.5013 3.31911ZM88.3301 9.72935C88.3301 10.7859 88.2948 11.9761 87.7684 12.8716C87.4364 13.483 86.9802 14.0182 86.429 14.4428C87.0586 14.6325 87.7119 14.7317 88.3694 14.7374C88.4589 14.7303 88.5489 14.7418 88.6337 14.7712C88.7185 14.8006 88.7964 14.8471 88.8624 14.908C88.9284 14.9688 88.9811 15.0426 89.0173 15.1248C89.0534 15.2069 89.0722 15.2957 89.0725 15.3854C89.0725 16.061 88.3262 16.0375 88.3262 16.0375C87.1849 16.0593 86.0537 15.8202 85.0189 15.3383C83.9427 16.0178 81.0557 15.9903 81.0557 15.9903V14.6195C81.9078 14.7015 82.7677 14.6066 83.5813 14.3406C83.1712 13.8739 82.8166 13.3612 82.5248 12.8127C82.2023 12.0792 81.9956 11.3 81.912 10.5031H83.271C83.2848 10.9909 83.3587 11.475 83.491 11.9447C83.7684 12.741 84.3271 13.4087 85.0621 13.8222C85.6394 13.4772 86.1161 12.987 86.4447 12.4003C86.8807 11.489 86.759 9.91003 86.759 9.91003H81.3268V8.64134H86.975C86.975 8.64134 88.3301 8.46066 88.3301 9.72935Z" fill="#BBD293"/>
<path d="M101.772 4.42283C101.772 5.03951 101.096 5.07878 101.096 5.07878H94.957V3.76688H97.1134C97.1134 3.76688 97.7733 3.81795 97.5573 3.39374C97.3412 2.96953 96.9406 2.16825 96.9406 2.16825L98.4332 1.98364L99.0813 3.36232C99.1307 3.49018 99.2212 3.59806 99.3384 3.66912C99.4556 3.74018 99.5931 3.77041 99.7294 3.7551H101.096C101.185 3.75127 101.274 3.76587 101.357 3.79797C101.441 3.83007 101.516 3.87898 101.58 3.94165C101.643 4.00433 101.693 4.07941 101.726 4.1622C101.759 4.245 101.775 4.33372 101.772 4.42283ZM95.448 6.06074H100.641C100.726 6.05472 100.811 6.06724 100.891 6.09745C100.971 6.12767 101.043 6.17484 101.103 6.23573C101.162 6.29661 101.208 6.36974 101.237 6.45007C101.266 6.5304 101.277 6.61601 101.269 6.70098C101.279 6.78302 101.27 6.86629 101.243 6.94423C101.215 7.02217 101.17 7.09266 101.11 7.15015C101.051 7.20764 100.979 7.25056 100.9 7.27554C100.822 7.30051 100.738 7.30686 100.656 7.29409H95.448V6.06074ZM95.448 8.32318H100.609C100.609 8.32318 101.3 8.32318 101.3 8.932C101.3 9.54081 100.609 9.54082 100.609 9.54082H95.448V8.32318ZM95.4951 10.7231H100.303C100.425 10.7098 100.549 10.7243 100.665 10.7655C100.781 10.8068 100.886 10.8737 100.973 10.9613C101.059 11.049 101.125 11.155 101.165 11.2716C101.204 11.3881 101.217 11.5121 101.202 11.6344C101.202 12.4867 101.202 15.9864 101.202 15.9864H99.7215V15.3187H96.972V16.1357H95.5109L95.4951 10.7231ZM99.7215 11.925H96.972V14.1403H99.7215V11.925ZM106.305 1.98364V5.84864C106.3 5.91809 106.31 5.98772 106.335 6.05291C106.359 6.1181 106.397 6.17736 106.446 6.22676C106.495 6.27616 106.554 6.31457 106.619 6.33945C106.684 6.36432 106.754 6.37509 106.823 6.37104H108.465C108.558 6.36144 108.653 6.37307 108.741 6.40505C108.83 6.43703 108.91 6.48854 108.975 6.55574C109.041 6.62295 109.091 6.70411 109.121 6.79319C109.151 6.88227 109.16 6.97695 109.148 7.0702C109.155 7.16465 109.142 7.25946 109.109 7.3484C109.077 7.43734 109.026 7.51841 108.96 7.58628C108.894 7.65416 108.814 7.70731 108.726 7.74224C108.638 7.77718 108.544 7.79311 108.449 7.789H106.752C106.206 7.789 106.289 8.36246 106.289 8.36246V16.1396H104.765V8.24855C104.77 8.18091 104.759 8.11298 104.734 8.05019C104.708 7.98739 104.668 7.93146 104.617 7.88683C104.566 7.84221 104.505 7.81013 104.439 7.79315C104.374 7.77616 104.305 7.77474 104.239 7.789H101.925V6.37104H104.309C104.375 6.37488 104.44 6.36395 104.5 6.33907C104.561 6.31419 104.615 6.276 104.659 6.22733C104.703 6.17865 104.735 6.12075 104.753 6.05792C104.772 5.99508 104.776 5.92892 104.765 5.86435V1.98364H106.305Z" fill="#BBD293"/>
<path d="M125.209 10.1495C125.209 10.1495 126.077 10.1024 126.117 10.7622C126.156 11.5478 125.209 11.7324 125.209 11.7324L122.715 12.569H128.077C128.077 12.569 128.937 12.4826 128.956 13.1464C128.976 13.8102 128.077 13.7828 128.077 13.7828H122.715V14.7215C122.715 15.5752 122.258 16.002 121.344 16.002H118.968V14.7844L120.861 14.8472C120.922 14.8565 120.984 14.8514 121.043 14.8322C121.102 14.813 121.155 14.7803 121.198 14.7367C121.242 14.6931 121.275 14.6398 121.294 14.5812C121.313 14.5227 121.318 14.4604 121.309 14.3994V13.7788H114.777V12.569H121.301C121.342 12.3763 121.428 12.1959 121.552 12.0427C121.729 11.866 121.859 11.8149 122.452 11.6499L123.933 11.2571H117.605V10.1495H125.209ZM127.303 9.5014H116.454V11.7167H115.115V8.93186C115.105 8.84373 115.116 8.7545 115.147 8.67149C115.178 8.58848 115.229 8.51404 115.294 8.45427C115.36 8.39449 115.439 8.35109 115.524 8.3276C115.61 8.30411 115.699 8.3012 115.786 8.31912V2.54519L119.007 2.11313L119.667 3.22471L117.086 3.61749V4.40306H119.392V5.43216H117.086V6.2845H119.392V7.33323H117.086V8.33483H126.643V7.31752H124.467V6.2845H126.627V5.4243H124.467V4.3952H126.627V3.57429H124.298V2.39593H127.067C127.067 2.39593 127.919 2.36058 127.919 3.37789V8.31912C127.919 8.31912 128.638 8.22878 128.638 9.06541V11.7167H127.287L127.303 9.5014ZM122.11 4.10062L120.449 5.10614L119.695 4.10847L121.199 3.3229L120.386 2.53733L121.171 1.83032L122.181 2.78479L123.194 2.07385L123.897 2.82407L122.974 3.44467L123.854 4.25773L122.927 4.89011L122.11 4.10062ZM122.134 7.19183L120.563 8.1188L119.926 7.16826L121.293 6.38269L120.508 5.59712L121.435 4.98045L122.248 5.83672L123.426 5.05115L124.074 5.91528L123.084 6.55159L123.87 7.36858L122.982 8.07167L122.134 7.19183Z" fill="#BBD293"/>
<path d="M139.188 3.53512C139.188 3.53512 138.481 6.4103 138.375 6.79523C138.313 7.14821 138.351 7.51159 138.485 7.84396L139.392 10.7231C139.392 10.7231 139.934 12.2471 138.391 12.687L136.556 12.8009V11.3908H137.621C138.23 11.3594 138.041 10.7074 138.041 10.7074L137.071 8.05214C136.883 7.66863 136.845 7.22875 136.965 6.8188C137.091 6.40637 137.751 3.87684 137.751 3.87684H136.148V16.1396H134.718V2.53745H138.285C139.436 2.53745 139.188 3.53512 139.188 3.53512ZM141.113 10.2399H139.62V8.91234H147.68C147.68 8.91234 148.466 8.87306 148.426 9.59971C148.422 9.69165 148.398 9.78166 148.358 9.86433C148.317 9.947 148.26 10.0206 148.191 10.0808C148.121 10.1409 148.04 10.1864 147.952 10.2144C147.864 10.2425 147.772 10.2525 147.68 10.2439H146.07C146.07 10.2439 145.5 10.2164 145.5 10.8998V14.1403C145.491 14.2127 145.498 14.2862 145.522 14.3552C145.546 14.4241 145.586 14.4865 145.638 14.5376C145.69 14.5886 145.754 14.6268 145.823 14.6492C145.892 14.6716 145.966 14.6776 146.038 14.6666H148.395C148.476 14.6671 148.556 14.6839 148.631 14.716C148.705 14.7481 148.773 14.7948 148.829 14.8535C148.885 14.9121 148.928 14.9814 148.957 15.0573C148.986 15.1331 148.999 15.214 148.996 15.2951C149.005 15.3777 148.996 15.4614 148.97 15.5402C148.944 15.619 148.9 15.6911 148.843 15.7513C148.786 15.8116 148.716 15.8586 148.638 15.889C148.561 15.9195 148.478 15.9326 148.395 15.9275H145.646C145.229 15.9592 144.815 15.8299 144.491 15.5661C144.235 15.3265 144.098 14.8552 144.098 14.156V10.8566C144.107 10.7774 144.098 10.6971 144.073 10.6217C144.047 10.5462 144.004 10.4774 143.949 10.4203C143.893 10.3631 143.826 10.3191 143.751 10.2913C143.676 10.2635 143.596 10.2527 143.517 10.2596C143.006 10.2596 143.01 10.837 143.006 10.8802C142.908 12.1882 142.727 13.0994 142.138 13.9753C141.391 14.9622 140.381 15.7179 139.223 16.1553L138.312 14.8944C139.565 14.4663 140.433 13.9125 140.916 13.2448C141.378 12.5453 141.625 11.7261 141.627 10.888C141.627 10.888 141.749 10.2439 141.113 10.2439V10.2399ZM147.005 7.49046H140.775V6.76773H139.597V3.39764H142.739C143.132 3.39764 142.943 3.08342 142.943 3.08342L142.472 2.16823L143.933 1.98755L144.463 3.05199C144.516 3.15399 144.595 3.2399 144.693 3.30071C144.79 3.36153 144.902 3.39501 145.017 3.39764H147.472C147.566 3.39642 147.659 3.41529 147.745 3.453C147.831 3.49072 147.908 3.5464 147.971 3.61632C148.034 3.68624 148.081 3.76879 148.11 3.85843C148.138 3.94806 148.147 4.04273 148.136 4.13608V6.78345H146.981L147.005 7.49046ZM146.757 4.74097H141.003V6.21784H146.745L146.757 4.74097Z" fill="#BBD293"/>
<path d="M38.883 24.4979H36.8406L36.3103 25.7156H35.6426L37.5279 21.5442H38.235L40.1203 25.7156H39.4172L38.883 24.4979ZM37.8579 22.1177L37.0723 23.9637H38.6435L37.8579 22.1177Z" fill="#BBD293"/>
<path d="M40.6895 22.6558H41.2747V23.0801C41.42 22.9128 41.6019 22.7811 41.8062 22.6953C42.0105 22.6095 42.2318 22.5718 42.4531 22.5851C42.672 22.5744 42.8909 22.6082 43.0964 22.6845C43.3019 22.7609 43.4897 22.8782 43.6485 23.0293C43.8073 23.1805 43.9337 23.3623 44.0201 23.5638C44.1065 23.7653 44.151 23.9822 44.151 24.2015C44.151 24.4207 44.1065 24.6376 44.0201 24.8391C43.9337 25.0406 43.8073 25.2224 43.6485 25.3736C43.4897 25.5247 43.3019 25.642 43.0964 25.7184C42.8909 25.7948 42.672 25.8286 42.4531 25.8178C42.2317 25.832 42.0101 25.7948 41.8057 25.7089C41.6012 25.623 41.4195 25.4909 41.2747 25.3229V25.3229V26.894H40.6895V22.6558ZM42.3745 23.0761C42.2211 23.0671 42.0675 23.0894 41.9231 23.1419C41.7787 23.1944 41.6465 23.2758 41.5347 23.3812C41.4229 23.4865 41.3339 23.6137 41.273 23.7547C41.2121 23.8958 41.1807 24.0478 41.1807 24.2015C41.1807 24.3551 41.2121 24.5071 41.273 24.6482C41.3339 24.7892 41.4229 24.9164 41.5347 25.0217C41.6465 25.1271 41.7787 25.2086 41.9231 25.261C42.0675 25.3135 42.2211 25.3358 42.3745 25.3268C42.6615 25.3098 42.9311 25.1839 43.1283 24.9747C43.3255 24.7655 43.4353 24.4889 43.4353 24.2015C43.4353 23.914 43.3255 23.6374 43.1283 23.4282C42.9311 23.219 42.6615 23.0931 42.3745 23.0761V23.0761Z" fill="#BBD293"/>
<path d="M44.9238 22.6559H45.5169V23.0801C45.663 22.9137 45.845 22.7827 46.0491 22.697C46.2533 22.6113 46.4742 22.573 46.6953 22.5852C46.9142 22.5744 47.1331 22.6082 47.3386 22.6846C47.5441 22.7609 47.732 22.8782 47.8907 23.0294C48.0495 23.1805 48.176 23.3624 48.2623 23.5639C48.3487 23.7654 48.3933 23.9823 48.3933 24.2015C48.3933 24.4208 48.3487 24.6377 48.2623 24.8392C48.176 25.0407 48.0495 25.2225 47.8907 25.3737C47.732 25.5248 47.5441 25.6421 47.3386 25.7185C47.1331 25.7948 46.9142 25.8286 46.6953 25.8178C46.4741 25.8309 46.2529 25.7931 46.0486 25.7073C45.8443 25.6215 45.6625 25.49 45.5169 25.3229V25.3229V26.8941H44.9356L44.9238 22.6559ZM46.6049 23.0762C46.4516 23.0671 46.298 23.0895 46.1536 23.142C46.0092 23.1944 45.877 23.2758 45.7652 23.3812C45.6534 23.4866 45.5643 23.6137 45.5034 23.7548C45.4425 23.8959 45.4111 24.0479 45.4111 24.2015C45.4111 24.3552 45.4425 24.5072 45.5034 24.6482C45.5643 24.7893 45.6534 24.9164 45.7652 25.0218C45.877 25.1272 46.0092 25.2086 46.1536 25.2611C46.298 25.3135 46.4516 25.3359 46.6049 25.3269C46.8919 25.3099 47.1615 25.1839 47.3587 24.9748C47.5559 24.7656 47.6657 24.489 47.6657 24.2015C47.6657 23.9141 47.5559 23.6375 47.3587 23.4283C47.1615 23.2191 46.8919 23.0932 46.6049 23.0762V23.0762Z" fill="#BBD293"/>
<path d="M49.6411 24.3527C49.6689 24.6277 49.8015 24.8814 50.0114 25.0613C50.2213 25.2412 50.4923 25.3334 50.7684 25.3189C50.9677 25.335 51.1674 25.2923 51.3427 25.1959C51.5179 25.0995 51.661 24.9538 51.7542 24.7769H52.3748C52.248 25.0876 52.0299 25.3526 51.7495 25.537C51.469 25.7214 51.1393 25.8166 50.8037 25.8099C49.6254 25.8099 49.0283 25.0597 49.0283 24.1759C49.0283 23.2922 49.6136 22.5419 50.8037 22.5419C51.0318 22.5275 51.2602 22.5631 51.4731 22.6461C51.6861 22.729 51.8783 22.8575 52.0365 23.0224C52.1947 23.1873 52.315 23.3847 52.389 23.6009C52.4631 23.8171 52.4891 24.0469 52.4652 24.2741V24.3527H49.6411ZM51.8367 23.897C51.7998 23.6451 51.6693 23.4164 51.4714 23.2563C51.2734 23.0961 51.0224 23.0164 50.7684 23.0329C50.5105 23.0187 50.2562 23.0985 50.0525 23.2573C49.8489 23.4162 49.7097 23.6435 49.6607 23.897H51.8367Z" fill="#BBD293"/>
<path d="M55.9886 25.3227C55.8429 25.4896 55.661 25.6209 55.4568 25.7067C55.2526 25.7924 55.0314 25.8304 54.8103 25.8176C54.5913 25.8284 54.3724 25.7946 54.1669 25.7183C53.9614 25.6419 53.7736 25.5246 53.6148 25.3735C53.456 25.2223 53.3296 25.0405 53.2432 24.839C53.1568 24.6375 53.1123 24.4206 53.1123 24.2013C53.1123 23.9821 53.1568 23.7652 53.2432 23.5637C53.3296 23.3622 53.456 23.1803 53.6148 23.0292C53.7736 22.878 53.9614 22.7607 54.1669 22.6844C54.3724 22.608 54.5913 22.5742 54.8103 22.585C55.0315 22.572 55.2527 22.6098 55.457 22.6956C55.6612 22.7814 55.8431 22.9129 55.9886 23.0799V23.0799V21.5088H56.5739V25.7155H55.9886V25.3227ZM54.8928 25.3227C55.1161 25.3227 55.3343 25.2564 55.5199 25.1322C55.7054 25.008 55.8499 24.8314 55.935 24.625C56.0201 24.4186 56.0419 24.1915 55.9978 23.9726C55.9536 23.7537 55.8455 23.5529 55.6871 23.3955C55.5286 23.2382 55.327 23.1315 55.1078 23.0889C54.8886 23.0462 54.6617 23.0697 54.4559 23.1562C54.2501 23.2428 54.0745 23.3885 53.9516 23.5749C53.8287 23.7613 53.7639 23.98 53.7655 24.2033C53.7549 24.3539 53.7769 24.5049 53.8299 24.6463C53.8828 24.7876 53.9656 24.9159 54.0725 25.0225C54.1794 25.129 54.308 25.2113 54.4495 25.2638C54.5911 25.3163 54.7422 25.3377 54.8928 25.3267V25.3227Z" fill="#BBD293"/>
<path d="M60.5959 25.7156H60.0106V25.2521C59.8773 25.4375 59.6996 25.5865 59.4937 25.6853C59.2878 25.7842 59.0603 25.8297 58.8323 25.8177C58.0938 25.8177 57.5479 25.5034 57.5479 24.7375V22.6558H58.086V24.6197C58.086 25.0675 58.3609 25.3228 58.9933 25.3228C59.12 25.3354 59.2479 25.3213 59.3689 25.2815C59.4898 25.2416 59.6011 25.1768 59.6954 25.0914C59.7898 25.0059 59.8652 24.9015 59.9168 24.7851C59.9684 24.6687 59.995 24.5428 59.9949 24.4154V22.6558H60.5801L60.5959 25.7156Z" fill="#BBD293"/>
<path d="M67.2496 23.0446C67.1554 22.4632 66.6997 21.9762 65.8238 21.9762C64.8419 21.9762 64.2134 22.5379 64.2134 23.6809C64.1948 23.8933 64.2224 24.1073 64.2943 24.308C64.3662 24.5088 64.4807 24.6916 64.63 24.8439C64.7793 24.9961 64.9598 25.1143 65.1591 25.1902C65.3584 25.2661 65.5718 25.2979 65.7845 25.2834C66.1325 25.3107 66.4777 25.2038 66.7494 24.9847C67.021 24.7656 67.1986 24.4509 67.2457 24.1051H67.8624C67.7957 24.6001 67.5429 25.0512 67.1554 25.3664C66.768 25.6816 66.2749 25.8374 65.7767 25.8019C64.728 25.8019 63.5889 25.2206 63.5889 23.6023C63.5697 23.3108 63.6131 23.0185 63.7162 22.745C63.8192 22.4716 63.9795 22.2234 64.1863 22.0169C64.3931 21.8105 64.6416 21.6507 64.9152 21.5481C65.1889 21.4456 65.4812 21.4027 65.7728 21.4224C66.6133 21.4224 67.7367 21.7877 67.8624 23.0289L67.2496 23.0446Z" fill="#BBD293"/>
<path d="M70.3603 22.5498C71.5387 22.5498 72.1357 23.304 72.1357 24.1838C72.1357 25.0636 71.5505 25.8178 70.3603 25.8178C69.1702 25.8178 68.585 25.0676 68.585 24.1838C68.585 23.3 69.1702 22.5498 70.3603 22.5498ZM70.3603 23.0408C70.1348 23.0431 69.915 23.1121 69.7286 23.2391C69.5422 23.3661 69.3975 23.5454 69.3128 23.7545C69.2281 23.9635 69.2071 24.193 69.2525 24.4139C69.298 24.6349 69.4077 24.8374 69.5681 24.9961C69.7284 25.1548 69.9321 25.2625 70.1534 25.3056C70.3748 25.3488 70.604 25.3255 70.8122 25.2386C71.0204 25.1518 71.1982 25.0053 71.3233 24.8176C71.4484 24.6299 71.5151 24.4093 71.5151 24.1838C71.5258 24.0299 71.5031 23.8756 71.4487 23.7313C71.3943 23.587 71.3093 23.4561 71.1997 23.3476C71.0901 23.2391 70.9584 23.1555 70.8135 23.1026C70.6687 23.0496 70.5141 23.0286 70.3603 23.0408V23.0408Z" fill="#BBD293"/>
<path d="M77.5959 23.7712C77.6073 23.6722 77.5961 23.5718 77.5631 23.4777C77.5302 23.3836 77.4763 23.2982 77.4057 23.2279C77.335 23.1576 77.2493 23.1042 77.155 23.0718C77.0607 23.0393 76.9603 23.0287 76.8614 23.0406C76.3311 23.0406 75.8558 23.292 75.8558 23.8615V25.7155H75.2706V23.7712C75.282 23.6722 75.2708 23.5718 75.2378 23.4777C75.2049 23.3836 75.1511 23.2982 75.0804 23.2279C75.0097 23.1576 74.924 23.1042 74.8297 23.0718C74.7354 23.0393 74.6351 23.0287 74.5361 23.0406C74.4082 23.0279 74.2791 23.0423 74.1571 23.0828C74.0351 23.1234 73.9231 23.1891 73.8282 23.2758C73.7334 23.3625 73.6578 23.4682 73.6066 23.5861C73.5553 23.7039 73.5294 23.8312 73.5305 23.9597V25.7233H72.9492V22.6557H73.5305V23.1152C73.6669 22.9282 73.8481 22.7784 74.0574 22.6796C74.2667 22.5808 74.4975 22.5361 74.7285 22.5496C74.9365 22.5436 75.1424 22.5928 75.3252 22.6921C75.508 22.7915 75.6613 22.9375 75.7694 23.1152C75.9143 22.9277 76.1027 22.7782 76.3182 22.6797C76.5338 22.5811 76.77 22.5365 77.0067 22.5496C77.1566 22.536 77.3077 22.5537 77.4503 22.6019C77.5929 22.65 77.7238 22.7274 77.8348 22.8291C77.9457 22.9308 78.0342 23.0545 78.0945 23.1924C78.1548 23.3303 78.1857 23.4793 78.185 23.6298V25.7155H77.5998L77.5959 23.7712Z" fill="#BBD293"/>
<path d="M79.1275 22.6557H79.7127V23.0799C79.8555 22.9158 80.0336 22.7861 80.2335 22.7004C80.4335 22.6147 80.6502 22.5753 80.8675 22.585C81.0865 22.5742 81.3053 22.608 81.5108 22.6843C81.7163 22.7607 81.9042 22.878 82.063 23.0291C82.2217 23.1803 82.3482 23.3621 82.4345 23.5636C82.5209 23.7651 82.5655 23.9821 82.5655 24.2013C82.5655 24.4205 82.5209 24.6374 82.4345 24.8389C82.3482 25.0404 82.2217 25.2223 82.063 25.3734C81.9042 25.5246 81.7163 25.6419 81.5108 25.7182C81.3053 25.7946 81.0865 25.8284 80.8675 25.8176C80.6494 25.8288 80.4317 25.79 80.2309 25.7042C80.03 25.6185 79.8515 25.488 79.7088 25.3227V25.3227V26.8938H79.1235L79.1275 22.6557ZM80.8086 23.076C80.6552 23.0669 80.5016 23.0893 80.3572 23.1417C80.2128 23.1942 80.0806 23.2756 79.9688 23.381C79.857 23.4864 79.7679 23.6135 79.7071 23.7546C79.6462 23.8956 79.6148 24.0476 79.6148 24.2013C79.6148 24.3549 79.6462 24.5069 79.7071 24.648C79.7679 24.7891 79.857 24.9162 79.9688 25.0216C80.0806 25.127 80.2128 25.2084 80.3572 25.2608C80.5016 25.3133 80.6552 25.3357 80.8086 25.3266C81.0955 25.3096 81.3652 25.1837 81.5624 24.9745C81.7595 24.7653 81.8694 24.4887 81.8694 24.2013C81.8694 23.9138 81.7595 23.6372 81.5624 23.428C81.3652 23.2189 81.0955 23.0929 80.8086 23.076V23.076Z" fill="#BBD293"/>
<path d="M86.4371 25.7156H85.8558V25.2521C85.722 25.437 85.5442 25.5856 85.3384 25.6844C85.1326 25.7831 84.9054 25.829 84.6775 25.8177C83.939 25.8177 83.3931 25.5034 83.3931 24.7375V22.6558H83.9744V24.6197C83.9744 25.0675 84.2493 25.3228 84.8817 25.3228C85.0087 25.336 85.1371 25.3223 85.2585 25.2828C85.3799 25.2432 85.4917 25.1785 85.5865 25.0929C85.6813 25.0074 85.757 24.9029 85.8089 24.7862C85.8607 24.6694 85.8874 24.5431 85.8872 24.4154V22.6558H86.4686L86.4371 25.7156Z" fill="#BBD293"/>
<path d="M87.6431 21.7131H88.2244V22.6558H89.116V23.1114H88.2401V24.9968C88.2401 25.2482 88.4169 25.3268 88.7154 25.3268C88.8472 25.3249 88.9786 25.3118 89.1082 25.2875V25.7785C88.8926 25.8122 88.6742 25.8253 88.4561 25.8177C87.8788 25.8177 87.6509 25.5389 87.6509 25.095V23.1311H87.0186V22.6558H87.6509L87.6431 21.7131Z" fill="#BBD293"/>
<path d="M90.2631 24.3527C90.291 24.6277 90.4236 24.8814 90.6335 25.0613C90.8433 25.2412 91.1144 25.3334 91.3904 25.3189C91.5898 25.335 91.7895 25.2923 91.9647 25.1959C92.14 25.0995 92.2831 24.9538 92.3763 24.7769H92.9969C92.87 25.0876 92.652 25.3526 92.3715 25.537C92.0911 25.7214 91.7614 25.8166 91.4258 25.8099C90.2474 25.8099 89.6504 25.0597 89.6504 24.1759C89.6504 23.2922 90.2356 22.5419 91.4258 22.5419C91.6538 22.5275 91.8823 22.5631 92.0952 22.6461C92.3081 22.729 92.5004 22.8575 92.6586 23.0224C92.8168 23.1873 92.9371 23.3847 93.0111 23.6009C93.0851 23.8171 93.1111 24.0469 93.0873 24.2741V24.3527H90.2631ZM92.4588 23.897C92.4218 23.6451 92.2914 23.4164 92.0934 23.2563C91.8955 23.0961 91.6445 23.0164 91.3904 23.0329C91.1325 23.0187 90.8782 23.0985 90.6746 23.2573C90.471 23.4162 90.3318 23.6435 90.2828 23.897H92.4588Z" fill="#BBD293"/>
<path d="M93.9077 22.6558H94.493V23.2136C94.5887 23.0163 94.7376 22.8497 94.9228 22.7324C95.1081 22.6151 95.3224 22.5519 95.5417 22.5497C95.6542 22.544 95.7668 22.5559 95.8756 22.5851V23.2136C95.7402 23.1753 95.5999 23.1567 95.4592 23.1586C95.3261 23.1481 95.1922 23.167 95.0672 23.214C94.9422 23.2609 94.829 23.3348 94.7357 23.4304C94.6424 23.5259 94.5712 23.6408 94.5272 23.7669C94.4833 23.8931 94.4675 24.0273 94.4812 24.1602V25.7313H93.9077V22.6558Z" fill="#BBD293"/>
<path d="M98.794 21.5442H100.899C102.152 21.5442 102.722 22.3612 102.722 23.571C102.722 24.7807 102.215 25.7156 100.935 25.7156H98.7861L98.794 21.5442ZM100.899 25.1774C101.917 25.1774 102.078 24.3251 102.078 23.5827C102.078 22.8404 101.838 22.0823 100.762 22.0823H99.3792V25.1774H100.899Z" fill="#BBD293"/>
<path d="M104.069 24.3527C104.097 24.6277 104.23 24.8814 104.44 25.0613C104.65 25.2412 104.921 25.3335 105.197 25.3189C105.396 25.3351 105.596 25.2923 105.771 25.1959C105.946 25.0996 106.089 24.9539 106.183 24.7769H106.791C106.664 25.0876 106.446 25.3526 106.166 25.537C105.886 25.7214 105.556 25.8166 105.22 25.8099C104.042 25.8099 103.445 25.0597 103.445 24.1759C103.445 23.2922 104.042 22.5498 105.22 22.5498C106.025 22.5498 106.878 23.0172 106.878 24.282V24.3527H104.069ZM106.265 23.8971C106.228 23.6451 106.098 23.4164 105.9 23.2563C105.702 23.0961 105.451 23.0164 105.197 23.0329C104.938 23.0194 104.684 23.0993 104.48 23.258C104.276 23.4167 104.136 23.6435 104.085 23.8971H106.265Z" fill="#BBD293"/>
<path d="M108.122 24.7454C108.122 25.0204 108.342 25.3582 109.085 25.3582C109.827 25.3582 110.02 25.099 110.02 24.8829C110.02 24.6669 109.91 24.5373 109.442 24.4901L108.476 24.3527C108.261 24.346 108.056 24.2587 107.903 24.108C107.749 23.9574 107.658 23.7545 107.647 23.5396C107.647 22.9151 108.181 22.5537 109.045 22.5537C110.043 22.5537 110.491 22.9858 110.538 23.5828H109.953C109.953 23.2725 109.646 23.0093 109.038 23.0093C108.645 23.0093 108.232 23.1193 108.232 23.4768C108.232 23.681 108.327 23.8028 108.739 23.8695L109.568 23.9834C110.353 24.0934 110.636 24.3762 110.636 24.7926C110.636 25.5074 110.035 25.8374 109.1 25.8374C108.401 25.8374 107.6 25.6567 107.529 24.769L108.122 24.7454Z" fill="#BBD293"/>
<path d="M111.41 21.5088H111.991V22.153H111.41V21.5088ZM111.41 22.6557H111.991V25.7155H111.41V22.6557Z" fill="#BBD293"/>
<path d="M115.676 22.6558H116.261V25.4563C116.261 26.5561 115.735 27 114.482 27C113.822 27 113.06 26.8939 112.938 26.0455H113.523C113.633 26.4383 113.979 26.5444 114.541 26.5444C115.362 26.5444 115.676 26.1241 115.676 25.6213V25.1775C115.544 25.3643 115.366 25.5143 115.16 25.6133C114.954 25.7122 114.726 25.7569 114.497 25.7431C113.681 25.7431 112.82 25.2992 112.82 24.1719C112.82 23.0447 113.673 22.6008 114.49 22.6008C114.713 22.5845 114.938 22.6232 115.143 22.7136C115.349 22.804 115.529 22.9433 115.668 23.1193V23.1193L115.676 22.6558ZM114.549 23.0761C114.4 23.0641 114.251 23.0839 114.111 23.1344C113.972 23.1848 113.844 23.2646 113.738 23.3685C113.631 23.4723 113.548 23.5978 113.494 23.7363C113.44 23.8749 113.417 24.0235 113.425 24.1719C113.442 24.4589 113.568 24.7285 113.777 24.9257C113.986 25.1229 114.263 25.2327 114.551 25.2327C114.838 25.2327 115.115 25.1229 115.324 24.9257C115.533 24.7285 115.659 24.4589 115.676 24.1719C115.683 24.0234 115.658 23.8751 115.604 23.7368C115.549 23.5985 115.466 23.4734 115.359 23.3698C115.253 23.2662 115.125 23.1864 114.986 23.1357C114.846 23.0851 114.697 23.0648 114.549 23.0761V23.0761Z" fill="#BBD293"/>
<path d="M117.172 22.6559H117.758V23.1154C117.892 22.931 118.07 22.7828 118.275 22.6841C118.481 22.5854 118.708 22.5393 118.936 22.5498C119.674 22.5498 120.224 22.864 120.224 23.63V25.7157H119.639V23.7517C119.639 23.3 119.364 23.0447 118.736 23.0447C118.61 23.0361 118.484 23.0534 118.366 23.0955C118.248 23.1376 118.139 23.2036 118.047 23.2895C117.956 23.3754 117.883 23.4792 117.833 23.5945C117.783 23.7099 117.757 23.8343 117.758 23.9599V25.7235H117.172V22.6559Z" fill="#BBD293"/>
<path d="M123.527 21.5442H124.144V25.7156H123.527V21.5442Z" fill="#BBD293"/>
<path d="M125.252 22.6558H125.838V23.1153C125.972 22.9312 126.15 22.7832 126.356 22.6845C126.561 22.5858 126.788 22.5395 127.016 22.5497C127.751 22.5497 128.3 22.864 128.3 23.6299V25.7156H127.715V23.7516C127.715 23.2999 127.44 23.0446 126.812 23.0446C126.685 23.0343 126.558 23.0503 126.439 23.0917C126.319 23.133 126.209 23.1988 126.116 23.2848C126.023 23.3708 125.949 23.4753 125.898 23.5915C125.847 23.7077 125.822 23.8331 125.822 23.9598V25.7234H125.252V22.6558Z" fill="#BBD293"/>
<path d="M129.671 24.7455C129.671 25.0204 129.891 25.3582 130.633 25.3582C131.375 25.3582 131.568 25.099 131.568 24.8829C131.568 24.6669 131.458 24.5373 130.991 24.4902L130.028 24.3527C129.809 24.35 129.6 24.264 129.442 24.1122C129.285 23.9604 129.191 23.7542 129.18 23.5357C129.18 22.9112 129.714 22.5498 130.578 22.5498C131.576 22.5498 132.024 22.9819 132.071 23.5789H131.489C131.47 23.2686 131.179 23.0054 130.57 23.0054C130.197 23.0054 129.765 23.1154 129.765 23.4728C129.765 23.6771 129.859 23.7989 130.272 23.8656L131.101 23.9795C131.886 24.0895 132.173 24.3723 132.173 24.7887C132.173 25.5035 131.568 25.8335 130.637 25.8335C129.934 25.8335 129.137 25.6528 129.066 24.7651L129.671 24.7455Z" fill="#BBD293"/>
<path d="M133.214 21.7131H133.799V22.6558H134.679V23.1114H133.803V24.9968C133.803 25.2482 133.98 25.3268 134.274 25.3268C134.406 25.3249 134.538 25.3117 134.667 25.2875V25.7785C134.45 25.8122 134.231 25.8253 134.011 25.8177C133.434 25.8177 133.206 25.5389 133.206 25.095V23.1311H132.578V22.6558H133.206L133.214 21.7131Z" fill="#BBD293"/>
<path d="M135.351 21.5088H135.936V22.153H135.351V21.5088ZM135.351 22.6557H135.936V25.7155H135.351V22.6557Z" fill="#BBD293"/>
<path d="M137.138 21.7131H137.723V22.6558H138.607V23.1114H137.731V24.9968C137.731 25.2482 137.908 25.3268 138.202 25.3268C138.334 25.3249 138.465 25.3117 138.595 25.2875V25.7785C138.379 25.8122 138.161 25.8253 137.943 25.8177C137.362 25.8177 137.134 25.5389 137.134 25.095V23.1311H136.505V22.6558H137.134L137.138 21.7131Z" fill="#BBD293"/>
<path d="M142.354 25.7156H141.769V25.2521C141.635 25.4373 141.458 25.586 141.252 25.6848C141.046 25.7836 140.819 25.8293 140.591 25.8177C139.852 25.8177 139.306 25.5034 139.306 24.7375V22.6558H139.887V24.6197C139.887 25.0675 140.162 25.3228 140.795 25.3228C140.922 25.3354 141.049 25.3213 141.17 25.2815C141.291 25.2416 141.403 25.1768 141.497 25.0914C141.591 25.0059 141.667 24.9015 141.718 24.7851C141.77 24.6687 141.796 24.5428 141.796 24.4154V22.6558H142.382L142.354 25.7156Z" fill="#BBD293"/>
<path d="M143.556 21.7131H144.141V22.6558H145.017V23.1114H144.141V24.9968C144.141 25.2482 144.318 25.3268 144.613 25.3268C144.745 25.3249 144.876 25.3117 145.006 25.2875V25.7785C144.79 25.8121 144.572 25.8252 144.354 25.8177C143.772 25.8177 143.544 25.5389 143.544 25.095V23.1311H142.928V22.6558H143.556V21.7131Z" fill="#BBD293"/>
<path d="M146.18 24.3527C146.208 24.6277 146.34 24.8815 146.55 25.0614C146.76 25.2413 147.031 25.3335 147.307 25.319C147.506 25.3351 147.706 25.2923 147.881 25.196C148.057 25.0996 148.2 24.9539 148.293 24.7769H148.913C148.787 25.0877 148.568 25.3527 148.288 25.5371C148.008 25.7215 147.678 25.8166 147.342 25.81C146.164 25.81 145.567 25.0597 145.567 24.176C145.567 23.2922 146.152 22.542 147.342 22.542C148.128 22.542 149 23.0094 149 24.2742V24.3527H146.18ZM148.375 23.8971C148.338 23.6452 148.208 23.4164 148.01 23.2563C147.812 23.0962 147.561 23.0165 147.307 23.033C147.049 23.0195 146.794 23.0994 146.59 23.258C146.386 23.4167 146.246 23.6436 146.195 23.8971H148.375Z" fill="#BBD293"/>
<path d="M9.43178 15.8883C9.07359 14.7204 8.39281 13.6775 7.46786 12.8796L6.57624 12.2354L6.18346 11.9526L5.84566 11.7091L5.74747 11.6384L5.35468 11.3673L5.15436 11.222L4.88727 11.0256C3.39469 9.93367 2.28311 9.00277 1.74499 8.23291L0.676619 11.4655L0.539144 11.8819V11.9054L0.34668 12.4711C0.348891 12.5469 0.36077 12.6221 0.38203 12.6949C0.605917 13.4255 1.89818 14.5764 4.70266 16.5442C4.75765 16.5835 4.80085 16.6189 4.85584 16.6542L5.1465 16.8624L5.44109 17.0666C7.28718 18.3942 8.55195 19.4233 9.15291 20.2718C9.16375 20.2904 9.17696 20.3075 9.19218 20.3228C9.79316 18.9193 9.87803 17.3484 9.43178 15.8883V15.8883Z" fill="#BBD293"/>
<path d="M8.8621 21.1475C8.68534 20.4562 7.49128 19.3211 5.28383 17.7578C5.26419 17.8089 5.24848 17.856 5.23277 17.9071C4.08584 21.395 3.7559 23.2057 4.16832 23.7438C4.23459 23.7796 4.30911 23.7972 4.38435 23.7949C5.24848 23.7949 7.071 22.5223 8.8621 21.1475Z" fill="#BBD293"/>
<path d="M5.95546 10.9744C6.68604 10.6759 7.5266 8.18561 8.05686 6.39844H7.54231C3.96404 6.39844 2.22008 6.65375 1.90585 7.23114C1.75659 8.02064 4.4511 9.94528 5.95546 10.9744Z" fill="#BBD293"/>
<path d="M14.6914 5.00015C15.1181 5.60055 15.6851 6.08759 16.3429 6.41892C17.0008 6.75025 17.7296 6.91582 18.4661 6.90122C18.998 6.89396 19.5265 6.81468 20.0372 6.66555C19.9469 6.39453 19.8526 6.10387 19.7544 5.80143L19.613 5.36151C18.8078 2.79662 17.8415 0.168897 17.0049 0C16.1997 0.137475 15.2374 3.14228 14.6914 5.00015Z" fill="#BBD293"/>
<path d="M19.5343 21.3556C19.5095 21.3535 19.4845 21.3535 19.4597 21.3556C18.623 21.3556 16.9576 22.4829 15.1626 23.842L15.3354 23.9637C17.9946 25.9277 19.5814 26.8193 20.3356 26.8193C20.43 26.8195 20.5231 26.7966 20.6066 26.7525C21.1643 26.1751 20.147 23.0721 19.5343 21.3556Z" fill="#BBD293"/>
<path d="M23.7997 17.6007C22.8609 15.0123 22.6213 14.2503 22.26 12.9894L22.0793 12.3806C21.1318 13.1839 20.4045 14.2153 19.9661 15.3776C19.6424 16.1647 19.4808 17.009 19.4908 17.86C19.4887 17.8966 19.4887 17.9333 19.4908 17.9699C19.4908 18.0092 19.4908 18.0485 19.4908 18.0878V18.131C19.514 19.1562 19.7522 20.1652 20.19 21.0926C20.2293 21.2026 20.2725 21.3125 20.3078 21.4186L20.4767 21.996C21.0895 23.8067 21.4587 25.1932 21.4469 26.1281L23.5483 24.5569L24.1689 24.0934L24.5302 23.8224L25.0212 23.4571C25.5868 22.8483 24.7227 20.1577 23.7997 17.6007Z" fill="#BBD293"/>
<path d="M14.6166 19.2463C13.3928 19.2455 12.1939 19.5929 11.1601 20.2479C10.8852 20.4522 10.5906 20.6721 10.2842 20.9078L9.89144 21.2103L9.57328 21.4538L9.47901 21.5284L9.10587 21.8151L8.90948 21.9644L8.64631 22.1608C7.14195 23.292 5.92824 24.0776 5.03662 24.3525L7.80968 26.3165L8.17104 26.5718L8.65417 26.9135C8.72652 26.9364 8.80219 26.947 8.87805 26.9449C9.64005 26.9449 11.1169 26.0454 13.8271 23.9362L13.9764 23.8223L14.2592 23.6023L14.542 23.3824C16.3527 22.0076 17.6843 21.0964 18.6977 20.7743L18.7566 20.7507C17.5941 19.7822 16.1298 19.2501 14.6166 19.2463V19.2463Z" fill="#BBD293"/>
<path d="M12.5504 0.0549898H12.0987H11.482C10.8535 0.176753 10.0837 1.85394 9.03102 5.49898C9.01138 5.56968 8.99174 5.63253 8.97603 5.6993C8.96032 5.76607 8.90926 5.92712 8.8739 6.04102C8.83855 6.15493 8.80713 6.27277 8.77178 6.38275C8.11976 8.58234 7.55415 10.1299 6.94141 10.9626C7.04746 10.9626 7.15351 10.9626 7.25956 10.9626H7.53844C8.85678 10.9266 10.1329 10.4902 11.1973 9.71138C12.2616 8.9326 13.0637 7.84833 13.497 6.60271L13.6502 6.08423C13.713 5.87605 13.7759 5.67181 13.8348 5.46363C13.8348 5.46363 13.8348 5.46363 13.8348 5.44006L13.9605 5.02764C13.9605 4.97658 13.9919 4.92159 14.0037 4.8666C14.0469 4.73305 14.0862 4.59165 14.1294 4.47381C14.1726 4.35598 14.2118 4.19887 14.2551 4.06139C14.2551 4.01426 14.2825 3.96319 14.2983 3.91999C14.8796 2.0739 15.3981 0.74629 15.9519 0L12.5504 0.0549898Z" fill="#BBD293"/>
<path d="M26.1804 6.44948C25.819 6.42198 25.4576 6.40234 25.1041 6.40234C23.8255 6.40998 22.555 6.60585 21.3334 6.98367L20.9013 7.11328L20.591 7.21541C20.5669 7.22559 20.542 7.23348 20.5164 7.23897L20.2611 7.3136C19.6833 7.48503 19.0844 7.57493 18.4818 7.5807C17.7407 7.5843 17.0068 7.43591 16.3254 7.14471C15.986 6.99826 15.6623 6.81798 15.3591 6.60659C15.2845 6.55553 15.206 6.50054 15.1353 6.44555C15.1353 6.44555 15.1353 6.47305 15.1353 6.48483C15.3488 7.68387 15.9469 8.78081 16.839 9.60989C17.7312 10.439 18.869 10.9551 20.0804 11.0804C20.6045 11.1365 21.1341 11.114 21.6515 11.0136C21.8833 10.9547 22.1032 10.8997 22.3036 10.8565C22.9205 10.7092 23.5558 10.6536 24.1889 10.6915C25.1579 10.7722 26.1176 10.9405 27.0563 11.1943L30.0886 7.28611C28.8236 6.8531 27.5117 6.57225 26.1804 6.44948V6.44948Z" fill="#BBD293"/>
</svg>
