<svg width="149" height="27" viewBox="0 0 149 27" fill="none" xmlns="http://www.w3.org/2000/svg">
<path d="M37.1576 8.24855L36.3485 12.962L35.3076 12.2825C35.3076 12.2825 36.05 8.42923 36.0932 8.15821L37.1576 8.24855ZM40.9401 7.11341C40.8888 7.10542 40.8363 7.10925 40.7866 7.12462C40.737 7.13998 40.6915 7.16648 40.6536 7.20208C40.6157 7.23768 40.5864 7.28146 40.568 7.33008C40.5496 7.37869 40.5426 7.43086 40.5474 7.48262V14.2778C40.5775 14.6543 40.4685 15.0289 40.241 15.3305C40.0885 15.4637 39.9097 15.5634 39.7161 15.623C39.5226 15.6825 39.3186 15.7006 39.1176 15.6761H38.2967L38.0335 14.321L38.8623 14.3838C39.1923 14.3838 39.3572 14.2267 39.3572 13.9086V7.36872C39.3618 7.33117 39.3576 7.29309 39.3452 7.25739C39.3327 7.22169 39.3122 7.18932 39.2853 7.16277C39.2584 7.13622 39.2257 7.1162 39.1898 7.10423C39.154 7.09227 39.1158 7.08869 39.0783 7.09377C39.0424 7.09255 39.0067 7.09893 38.9734 7.11248C38.9402 7.12603 38.9101 7.14645 38.8853 7.1724C38.8604 7.19835 38.8414 7.22925 38.8293 7.26308C38.8172 7.29691 38.8124 7.3329 38.8152 7.36872C38.8152 7.69866 38.8152 7.67509 38.8152 7.8597V8.16607C38.8634 9.69911 38.7048 11.2317 38.3438 12.7224C37.9616 13.9248 37.3448 15.0395 36.5292 16.0021L35.4844 15.1851C36.2545 14.3669 36.8328 13.3874 37.1773 12.3178C37.4836 11.3044 37.6368 9.61152 37.6368 7.60439C37.6368 7.05842 37.2165 7.0977 37.2165 7.0977H35.5276V5.81722H37.9825C37.9825 5.81722 38.3753 5.85257 38.3753 5.42443V5.03165C38.3785 4.97812 38.3707 4.9245 38.3524 4.87409C38.3341 4.82368 38.3057 4.77755 38.2689 4.73855C38.2321 4.69954 38.1877 4.66848 38.1384 4.64728C38.0892 4.62609 38.0361 4.6152 37.9825 4.6153H36.0186V3.35053H38.1042C38.1543 3.35014 38.2037 3.33946 38.2495 3.31917C38.2952 3.29888 38.3363 3.26941 38.3702 3.23258C38.4041 3.19575 38.43 3.15235 38.4464 3.10507C38.4628 3.0578 38.4694 3.00765 38.4656 2.95775V1.98364H39.7893V3.04416C39.7893 3.04416 39.7422 3.35053 40.0996 3.35053H41.2779C41.2779 3.35053 42.0046 3.29947 42.0046 3.9947C42.0046 4.68993 41.2426 4.59566 41.2426 4.59566H40.2214C40.1677 4.59556 40.1146 4.60645 40.0654 4.62764C40.0161 4.64884 39.9717 4.6799 39.9349 4.71891C39.8981 4.75791 39.8697 4.80404 39.8514 4.85445C39.8331 4.90486 39.8253 4.95848 39.8286 5.01201V5.49906C39.8286 5.49906 39.8286 5.81722 40.2214 5.81722H41.4508C41.5374 5.8084 41.6249 5.81791 41.7076 5.84512C41.7903 5.87234 41.8664 5.91665 41.9308 5.97518C41.9953 6.03371 42.0467 6.10515 42.0817 6.18486C42.1168 6.26456 42.1347 6.35075 42.1342 6.43782C42.1342 7.07806 41.4508 7.09377 41.4508 7.09377L40.9401 7.11341ZM42.1892 10.7624L41.0973 11.0962L40.5866 8.4803L41.604 8.23677L42.1892 10.7624ZM43.7289 8.54314L43.0926 13.3548L41.9889 12.4788L42.6056 8.33889L43.7289 8.54314ZM47.6175 7.11341C47.5711 7.1105 47.5248 7.11803 47.4817 7.13544C47.4387 7.15285 47.4001 7.17969 47.3688 7.21399C47.3375 7.24829 47.3143 7.28918 47.301 7.33363C47.2876 7.37808 47.2843 7.42497 47.2915 7.47084V14.1482V14.5174C47.317 14.8929 47.2069 15.265 46.9812 15.5661C46.8266 15.7014 46.6453 15.8028 46.4491 15.8637C46.2529 15.9246 46.0461 15.9436 45.8421 15.9196H45.029L44.7423 14.5331L45.5868 14.592C45.9167 14.592 46.0817 14.4349 46.0817 14.1168V7.35301C46.0817 7.35301 46.0817 7.09377 45.7478 7.09377C45.414 7.09377 45.4375 7.35301 45.4375 7.35301V8.16607C45.4872 9.69916 45.3286 11.2319 44.9662 12.7224C44.5653 13.959 43.9306 15.1071 43.0965 16.1042L42.0282 15.2637C42.8143 14.4345 43.4154 13.4478 43.7918 12.3689C44.1138 11.3712 44.2749 8.12286 44.2749 7.50619C44.2749 7.02699 43.8821 7.09377 43.8821 7.09377H42.5623V5.81722H44.5263C44.576 5.82342 44.6265 5.81886 44.6743 5.80384C44.7221 5.78882 44.7661 5.7637 44.8034 5.73017C44.8406 5.69664 44.8703 5.6555 44.8902 5.60952C44.9102 5.56355 44.92 5.51382 44.9191 5.46371V5.02772C44.9255 4.96873 44.9184 4.90906 44.8984 4.85318C44.8785 4.7973 44.8461 4.74667 44.8038 4.70509C44.7615 4.66351 44.7102 4.63206 44.654 4.61311C44.5978 4.59416 44.538 4.58819 44.4791 4.59566H42.7744V3.35053H44.6284C44.6761 3.35675 44.7246 3.35206 44.7703 3.33681C44.8159 3.32156 44.8575 3.29615 44.892 3.2625C44.9264 3.22884 44.9527 3.18782 44.969 3.14252C44.9852 3.09721 44.991 3.04881 44.9858 3.00095V1.98364H46.3134V3.02845C46.3134 3.02845 46.3134 3.35053 46.5962 3.35053H48.3834C48.4624 3.34674 48.5414 3.36004 48.6148 3.38954C48.6882 3.41904 48.7544 3.46404 48.8089 3.52146C48.8633 3.57889 48.9047 3.64739 48.9303 3.72228C48.9558 3.79717 48.9649 3.8767 48.9569 3.95542C48.9677 4.03638 48.9608 4.11871 48.9368 4.19676C48.9127 4.27481 48.872 4.34673 48.8175 4.40757C48.7631 4.4684 48.696 4.51672 48.6211 4.54919C48.5461 4.58166 48.4651 4.59751 48.3834 4.59566H46.7101C46.6686 4.58922 46.6262 4.59254 46.5861 4.60533C46.5461 4.61813 46.5096 4.64007 46.4795 4.6694C46.4494 4.69874 46.4265 4.73467 46.4127 4.77436C46.3989 4.81406 46.3945 4.85642 46.3998 4.8981V5.49906C46.3998 5.86828 46.7926 5.83293 46.7926 5.83293H48.7566C48.8405 5.82452 48.9252 5.83473 49.0048 5.86283C49.0843 5.89093 49.1567 5.93623 49.2167 5.99549C49.2767 6.05476 49.3229 6.12654 49.352 6.20571C49.3811 6.28488 49.3924 6.3695 49.385 6.45353C49.3882 6.53821 49.3743 6.62266 49.3442 6.70186C49.314 6.78106 49.2683 6.85341 49.2097 6.9146C49.1511 6.97578 49.0808 7.02456 49.0029 7.05804C48.9251 7.09152 48.8413 7.10901 48.7566 7.10948L47.6175 7.11341ZM48.0849 13.9282L47.6528 8.63741L48.8037 8.44887L49.3457 13.6061L48.0849 13.9282Z" fill="white"/>
<path d="M56.9262 12.2628L56.2702 15.9982H54.9937L55.6614 12.1096L56.9262 12.2628Z" fill="white"/>
<path d="M59.6479 4.18713L60.7948 4.68596L57.6997 9.67825C57.6997 9.67825 57.3815 10.071 57.7233 10.071C58.2889 10.0318 59.5811 9.86679 59.5772 9.83929L59.1451 8.72379L60.1585 8.42134L61.278 11.1708L60.135 11.5636L59.8954 10.998L56.0932 11.3908C56.0932 11.3908 55.1309 11.489 55.5747 10.7309L57.845 7.26263L56.0539 7.45509C56.0539 7.45509 55.0995 7.55329 55.3312 6.83449C55.3312 6.79129 57.5386 2.03467 57.5386 2.03467L58.827 2.37639L57.1262 5.8486C57.1262 5.8486 56.9495 6.19033 57.3462 6.16283C57.7429 6.13534 58.5638 5.99786 58.5638 5.99786" fill="white"/>
<path d="M57.6015 15.676L57.4326 12.1566L58.5835 12.0034L58.8781 15.5267L57.6015 15.676Z" fill="white"/>
<path d="M59.601 14.6195L59.2632 11.8465L60.3119 11.6187L60.744 14.2974L59.601 14.6195Z" fill="white"/>
<path d="M60.8149 3.51142V2.27808H68.376C68.376 2.27808 69.1302 2.27808 69.1302 2.84761C69.1302 3.57034 68.3643 3.51142 68.3643 3.51142H60.8149Z" fill="white"/>
<path d="M63.7649 10.4795H61.145V9.16761H63.8945C63.9341 9.16711 63.9731 9.15875 64.0094 9.14303C64.0457 9.1273 64.0785 9.10453 64.1059 9.07603C64.1333 9.04752 64.1548 9.01386 64.169 8.97698C64.1833 8.94011 64.1902 8.90077 64.1891 8.86124V7.85571H65.5442V8.91623C65.5442 8.91623 65.5442 9.16761 65.7681 9.16761H68.4233C68.5118 9.16089 68.6006 9.17296 68.684 9.20302C68.7675 9.23309 68.8436 9.28047 68.9074 9.34206C68.9712 9.40364 69.0213 9.47804 69.0543 9.56035C69.0873 9.64266 69.1025 9.73102 69.0989 9.81963C69.1017 9.90875 69.0861 9.99747 69.053 10.0803C69.0199 10.1631 68.9701 10.2381 68.9067 10.3008C68.8433 10.3635 68.7676 10.4124 68.6845 10.4445C68.6013 10.4766 68.5124 10.4912 68.4233 10.4874C68.4233 10.4874 66.373 10.4874 65.9881 10.4874C65.6031 10.4874 65.8113 10.7859 65.8113 10.7859L69.0557 16.0492H67.2332L65.5442 12.8401V16.1435H64.1891V12.8362L61.7656 16.1042H60.167L63.8277 10.8919C63.9691 10.6955 64.1263 10.4795 63.7649 10.4795Z" fill="white"/>
<path d="M61.9418 8.04802L61.0659 5.31032L62.3582 4.95288L63.3559 7.69059L61.9418 8.04802Z" fill="white"/>
<path d="M64.3265 7.32546L64.0044 4.73701L65.3281 4.56812L65.7248 7.18406L64.3265 7.32546Z" fill="white"/>
<path d="M68.9142 4.86263L67.5748 8.13846L66.2197 7.52178L67.6377 4.40308L68.9142 4.86263Z" fill="white"/>
<path d="M76.7066 3.73939C76.7066 3.73939 77.3979 3.77474 77.0287 3.12272L76.5652 2.16825L77.9478 1.98364L78.3641 2.9224C78.3641 2.9224 78.7059 3.74724 79.295 3.74724C79.8842 3.74724 79.9392 3.74724 79.9392 3.74724C79.9392 3.74724 80.6894 3.71189 80.6894 4.38748C80.6906 4.48318 80.6714 4.57802 80.6331 4.66573C80.5948 4.75345 80.5383 4.83203 80.4674 4.89628C80.3965 4.96052 80.3127 5.00896 80.2217 5.0384C80.1306 5.06783 80.0343 5.07758 79.9392 5.067H74.833V3.73939H76.7066ZM75.2572 6.00183H79.3972C79.3972 6.00183 80.1513 6.00183 80.1513 6.63814C80.1513 7.27445 79.3972 7.25874 79.3972 7.25874H75.2572V6.00183ZM75.2572 8.24463H79.4089C79.4089 8.24463 80.1945 8.2132 80.1945 8.88879C80.1945 9.56438 79.4089 9.50939 79.4089 9.50939H75.2572V8.24463ZM75.3043 10.6485H79.3657C79.3657 10.6485 80.1827 10.5621 80.1827 11.5165V15.9864H78.7962V15.2951H76.687V16.1396H75.3043V10.6485ZM78.7962 11.8936H76.687V14.05H78.7962V11.8936ZM87.1547 3.31911V5.70724C87.124 5.93994 87.1754 6.17606 87.3 6.37497C87.4602 6.49372 87.6596 6.54708 87.8577 6.52423H88.1327C88.1327 6.52423 88.8279 6.52423 88.8279 7.14483C88.8279 7.76543 88.1327 7.81649 88.1327 7.81649H87.3471C86.9033 7.85039 86.4625 7.71887 86.1098 7.44727C85.8349 7.19982 85.7171 6.72062 85.7171 6.00183V3.69225H83.5921V4.18716C83.6133 4.90133 83.4793 5.6116 83.1993 6.26892C82.7519 7.05245 82.1585 7.74308 81.4514 8.30354L80.3281 7.3098C80.954 6.88514 81.4751 6.3237 81.8521 5.66796C82.1237 4.88089 82.2385 4.0482 82.1899 3.21699V2.39999H86.2945C86.2945 2.39999 87.1547 2.30573 87.1547 3.31911ZM87.9834 9.72935C87.9834 10.7859 87.9481 11.9761 87.4217 12.8716C87.0897 13.483 86.6335 14.0182 86.0824 14.4428C86.7119 14.6325 87.3652 14.7317 88.0227 14.7374C88.1122 14.7303 88.2022 14.7418 88.287 14.7712C88.3718 14.8006 88.4497 14.8471 88.5157 14.908C88.5817 14.9688 88.6344 15.0426 88.6706 15.1248C88.7067 15.2069 88.7255 15.2957 88.7258 15.3854C88.7258 16.061 87.9795 16.0375 87.9795 16.0375C86.8382 16.0593 85.707 15.8202 84.6723 15.3383C83.596 16.0178 80.7091 15.9903 80.7091 15.9903V14.6195C81.5611 14.7015 82.421 14.6066 83.2347 14.3406C82.8245 13.8739 82.47 13.3612 82.1781 12.8127C81.8557 12.0792 81.649 11.3 81.5653 10.5031H82.9244C82.9381 10.9909 83.012 11.475 83.1443 11.9447C83.4218 12.741 83.9805 13.4087 84.7155 13.8222C85.2927 13.4772 85.7694 12.987 86.0981 12.4003C86.5341 11.489 86.4123 9.91003 86.4123 9.91003H80.9801V8.64134H86.6283C86.6283 8.64134 87.9834 8.46066 87.9834 9.72935Z" fill="white"/>
<path d="M101.425 4.42283C101.425 5.03951 100.75 5.07878 100.75 5.07878H94.6104V3.76688H96.7667C96.7667 3.76688 97.4266 3.81795 97.2106 3.39374C96.9946 2.96953 96.5939 2.16825 96.5939 2.16825L98.0865 1.98364L98.7346 3.36232C98.7841 3.49018 98.8745 3.59806 98.9917 3.66912C99.109 3.74018 99.2464 3.77041 99.3827 3.7551H100.75C100.839 3.75127 100.928 3.76587 101.011 3.79797C101.094 3.83007 101.17 3.87898 101.233 3.94165C101.296 4.00433 101.346 4.07941 101.379 4.1622C101.412 4.245 101.428 4.33372 101.425 4.42283ZM95.1013 6.06074H100.294C100.379 6.05472 100.464 6.06724 100.544 6.09745C100.624 6.12767 100.696 6.17484 100.756 6.23573C100.816 6.29661 100.862 6.36974 100.89 6.45007C100.919 6.5304 100.93 6.61601 100.922 6.70098C100.933 6.78302 100.923 6.86629 100.896 6.94423C100.868 7.02217 100.823 7.09266 100.764 7.15015C100.704 7.20764 100.632 7.25056 100.554 7.27554C100.475 7.30051 100.391 7.30686 100.31 7.29409H95.1013V6.06074ZM95.1013 8.32318H100.263C100.263 8.32318 100.954 8.32318 100.954 8.932C100.954 9.54081 100.263 9.54082 100.263 9.54082H95.1013V8.32318ZM95.1485 10.7231H99.9561C100.079 10.7098 100.202 10.7243 100.318 10.7655C100.434 10.8068 100.54 10.8737 100.626 10.9613C100.713 11.049 100.778 11.155 100.818 11.2716C100.858 11.3881 100.871 11.5121 100.856 11.6344C100.856 12.4867 100.856 15.9864 100.856 15.9864H99.3748V15.3187H96.6253V16.1357H95.1642L95.1485 10.7231ZM99.3748 11.925H96.6253V14.1403H99.3748V11.925ZM105.958 1.98364V5.84864C105.953 5.91809 105.964 5.98772 105.988 6.05291C106.012 6.1181 106.05 6.17736 106.099 6.22676C106.148 6.27616 106.207 6.31457 106.272 6.33945C106.337 6.36432 106.407 6.37509 106.476 6.37104H108.118C108.212 6.36144 108.306 6.37307 108.395 6.40505C108.483 6.43703 108.563 6.48854 108.629 6.55574C108.694 6.62295 108.744 6.70411 108.774 6.79319C108.804 6.88227 108.813 6.97695 108.802 7.0702C108.808 7.16465 108.795 7.25946 108.763 7.3484C108.73 7.43734 108.679 7.51841 108.613 7.58628C108.547 7.65416 108.468 7.70731 108.38 7.74224C108.291 7.77718 108.197 7.79311 108.102 7.789H106.406C105.86 7.789 105.942 8.36246 105.942 8.36246V16.1396H104.418V8.24855C104.423 8.18091 104.413 8.11298 104.387 8.05019C104.361 7.98739 104.321 7.93146 104.27 7.88683C104.219 7.84221 104.158 7.81013 104.093 7.79315C104.027 7.77616 103.958 7.77474 103.892 7.789H101.578V6.37104H103.963C104.028 6.37488 104.093 6.36395 104.154 6.33907C104.214 6.31419 104.269 6.276 104.312 6.22733C104.356 6.17865 104.388 6.12075 104.407 6.05792C104.425 5.99508 104.429 5.92892 104.418 5.86435V1.98364H105.958Z" fill="white"/>
<path d="M124.863 10.1495C124.863 10.1495 125.731 10.1024 125.77 10.7622C125.809 11.5478 124.863 11.7324 124.863 11.7324L122.368 12.569H127.73C127.73 12.569 128.59 12.4826 128.61 13.1464C128.629 13.8102 127.73 13.7828 127.73 13.7828H122.368V14.7215C122.368 15.5752 121.911 16.002 120.998 16.002H118.621V14.7844L120.514 14.8472C120.575 14.8565 120.638 14.8514 120.696 14.8322C120.755 14.813 120.808 14.7803 120.852 14.7367C120.895 14.6931 120.928 14.6398 120.947 14.5812C120.966 14.5227 120.972 14.4604 120.962 14.3994V13.7788H114.43V12.569H120.954C120.996 12.3763 121.082 12.1959 121.206 12.0427C121.382 11.866 121.512 11.8149 122.105 11.6499L123.586 11.2571H117.258V10.1495H124.863ZM126.956 9.5014H116.107V11.7167H114.768V8.93186C114.758 8.84373 114.769 8.7545 114.8 8.67149C114.832 8.58848 114.882 8.51404 114.948 8.45427C115.013 8.39449 115.092 8.35109 115.177 8.3276C115.263 8.30411 115.353 8.3012 115.44 8.31912V2.54519L118.66 2.11313L119.32 3.22471L116.74 3.61749V4.40306H119.045V5.43216H116.74V6.2845H119.045V7.33323H116.74V8.33483H126.296V7.31752H124.12V6.2845H126.28V5.4243H124.12V4.3952H126.28V3.57429H123.951V2.39593H126.72C126.72 2.39593 127.573 2.36058 127.573 3.37789V8.31912C127.573 8.31912 128.292 8.22878 128.292 9.06541V11.7167H126.94L126.956 9.5014ZM121.763 4.10062L120.102 5.10614L119.348 4.10847L120.852 3.3229L120.039 2.53733L120.825 1.83032L121.834 2.78479L122.848 2.07385L123.551 2.82407L122.628 3.44467L123.507 4.25773L122.58 4.89011L121.763 4.10062ZM121.787 7.19183L120.216 8.1188L119.58 7.16826L120.946 6.38269L120.161 5.59712L121.088 4.98045L121.901 5.83672L123.079 5.05115L123.727 5.91528L122.738 6.55159L123.523 7.36858L122.635 8.07167L121.787 7.19183Z" fill="white"/>
<path d="M138.841 3.53512C138.841 3.53512 138.134 6.4103 138.028 6.79523C137.966 7.14821 138.004 7.51159 138.138 7.84396L139.046 10.7231C139.046 10.7231 139.588 12.2471 138.044 12.687L136.21 12.8009V11.3908H137.274C137.883 11.3594 137.695 10.7074 137.695 10.7074L136.724 8.05214C136.536 7.66863 136.499 7.22875 136.618 6.8188C136.744 6.40637 137.404 3.87684 137.404 3.87684H135.801V16.1396H134.372V2.53745H137.938C139.089 2.53745 138.841 3.53512 138.841 3.53512ZM140.766 10.2399H139.274V8.91234H147.333C147.333 8.91234 148.119 8.87306 148.08 9.59971C148.075 9.69165 148.051 9.78166 148.011 9.86433C147.97 9.947 147.914 10.0206 147.844 10.0808C147.774 10.1409 147.693 10.1864 147.605 10.2144C147.518 10.2425 147.425 10.2525 147.333 10.2439H145.723C145.723 10.2439 145.154 10.2164 145.154 10.8998V14.1403C145.144 14.2127 145.152 14.2862 145.176 14.3552C145.2 14.4241 145.239 14.4865 145.291 14.5376C145.344 14.5886 145.407 14.6268 145.476 14.6492C145.546 14.6716 145.619 14.6776 145.692 14.6666H148.048C148.129 14.6671 148.21 14.6839 148.284 14.716C148.359 14.7481 148.426 14.7948 148.482 14.8535C148.538 14.9121 148.582 14.9814 148.611 15.0573C148.639 15.1331 148.652 15.214 148.649 15.2951C148.659 15.3777 148.65 15.4614 148.623 15.5402C148.597 15.619 148.553 15.6911 148.496 15.7513C148.439 15.8116 148.369 15.8586 148.292 15.889C148.214 15.9195 148.131 15.9326 148.048 15.9275H145.299C144.882 15.9592 144.469 15.8299 144.144 15.5661C143.889 15.3265 143.751 14.8552 143.751 14.156V10.8566C143.76 10.7774 143.752 10.6971 143.726 10.6217C143.7 10.5462 143.658 10.4774 143.602 10.4203C143.547 10.3631 143.479 10.3191 143.404 10.2913C143.329 10.2635 143.249 10.2527 143.17 10.2596C142.659 10.2596 142.663 10.837 142.659 10.8802C142.561 12.1882 142.38 13.0994 141.791 13.9753C141.045 14.9622 140.034 15.7179 138.877 16.1553L137.966 14.8944C139.219 14.4663 140.087 13.9125 140.57 13.2448C141.031 12.5453 141.279 11.7261 141.281 10.888C141.281 10.888 141.402 10.2439 140.766 10.2439V10.2399ZM146.658 7.49046H140.428V6.76773H139.25V3.39764H142.392C142.785 3.39764 142.596 3.08342 142.596 3.08342L142.125 2.16823L143.586 1.98755L144.117 3.05199C144.169 3.15399 144.249 3.2399 144.346 3.30071C144.444 3.36153 144.556 3.39501 144.67 3.39764H147.125C147.219 3.39642 147.312 3.41529 147.399 3.453C147.485 3.49072 147.562 3.5464 147.625 3.61632C147.688 3.68624 147.735 3.76879 147.763 3.85843C147.791 3.94806 147.8 4.04273 147.789 4.13608V6.78345H146.634L146.658 7.49046ZM146.41 4.74097H140.656V6.21784H146.399L146.41 4.74097Z" fill="white"/>
<path d="M38.5364 24.4979H36.4939L35.9636 25.7156H35.2959L37.1813 21.5442H37.8883L39.7736 25.7156H39.0706L38.5364 24.4979ZM37.5112 22.1177L36.7256 23.9637H38.2968L37.5112 22.1177Z" fill="white"/>
<path d="M40.3428 22.6558H40.928V23.0801C41.0734 22.9128 41.2552 22.7811 41.4595 22.6953C41.6639 22.6095 41.8852 22.5718 42.1064 22.5851C42.3253 22.5744 42.5442 22.6082 42.7497 22.6845C42.9552 22.7609 43.143 22.8782 43.3018 23.0293C43.4606 23.1805 43.587 23.3623 43.6734 23.5638C43.7598 23.7653 43.8044 23.9822 43.8044 24.2015C43.8044 24.4207 43.7598 24.6376 43.6734 24.8391C43.587 25.0406 43.4606 25.2224 43.3018 25.3736C43.143 25.5247 42.9552 25.642 42.7497 25.7184C42.5442 25.7948 42.3253 25.8286 42.1064 25.8178C41.8851 25.832 41.6635 25.7948 41.459 25.7089C41.2545 25.623 41.0728 25.4909 40.928 25.3229V25.3229V26.894H40.3428V22.6558ZM42.0278 23.0761C41.8744 23.0671 41.7208 23.0894 41.5764 23.1419C41.432 23.1944 41.2999 23.2758 41.1881 23.3812C41.0763 23.4865 40.9872 23.6137 40.9263 23.7547C40.8654 23.8958 40.834 24.0478 40.834 24.2015C40.834 24.3551 40.8654 24.5071 40.9263 24.6482C40.9872 24.7892 41.0763 24.9164 41.1881 25.0217C41.2999 25.1271 41.432 25.2086 41.5764 25.261C41.7208 25.3135 41.8744 25.3358 42.0278 25.3268C42.3148 25.3098 42.5844 25.1839 42.7816 24.9747C42.9788 24.7655 43.0886 24.4889 43.0886 24.2015C43.0886 23.914 42.9788 23.6374 42.7816 23.4282C42.5844 23.219 42.3148 23.0931 42.0278 23.0761V23.0761Z" fill="white"/>
<path d="M44.5771 22.6559H45.1703V23.0801C45.3163 22.9137 45.4983 22.7827 45.7025 22.697C45.9066 22.6113 46.1275 22.573 46.3486 22.5852C46.5676 22.5744 46.7864 22.6082 46.9919 22.6846C47.1974 22.7609 47.3853 22.8782 47.5441 23.0294C47.7029 23.1805 47.8293 23.3624 47.9157 23.5639C48.002 23.7654 48.0466 23.9823 48.0466 24.2015C48.0466 24.4208 48.002 24.6377 47.9157 24.8392C47.8293 25.0407 47.7029 25.2225 47.5441 25.3737C47.3853 25.5248 47.1974 25.6421 46.9919 25.7185C46.7864 25.7948 46.5676 25.8286 46.3486 25.8178C46.1274 25.8309 45.9062 25.7931 45.7019 25.7073C45.4977 25.6215 45.3158 25.49 45.1703 25.3229V25.3229V26.8941H44.5889L44.5771 22.6559ZM46.2583 23.0762C46.1049 23.0671 45.9513 23.0895 45.8069 23.142C45.6625 23.1944 45.5303 23.2758 45.4185 23.3812C45.3067 23.4866 45.2176 23.6137 45.1568 23.7548C45.0959 23.8959 45.0645 24.0479 45.0645 24.2015C45.0645 24.3552 45.0959 24.5072 45.1568 24.6482C45.2176 24.7893 45.3067 24.9164 45.4185 25.0218C45.5303 25.1272 45.6625 25.2086 45.8069 25.2611C45.9513 25.3135 46.1049 25.3359 46.2583 25.3269C46.5452 25.3099 46.8149 25.1839 47.012 24.9748C47.2092 24.7656 47.319 24.489 47.319 24.2015C47.319 23.9141 47.2092 23.6375 47.012 23.4283C46.8149 23.2191 46.5452 23.0932 46.2583 23.0762V23.0762Z" fill="white"/>
<path d="M49.2944 24.3527C49.3222 24.6277 49.4549 24.8814 49.6647 25.0613C49.8746 25.2412 50.1456 25.3334 50.4217 25.3189C50.621 25.335 50.8207 25.2923 50.996 25.1959C51.1713 25.0995 51.3144 24.9538 51.4076 24.7769H52.0282C51.9013 25.0876 51.6832 25.3526 51.4028 25.537C51.1223 25.7214 50.7926 25.8166 50.457 25.8099C49.2787 25.8099 48.6816 25.0597 48.6816 24.1759C48.6816 23.2922 49.2669 22.5419 50.457 22.5419C50.6851 22.5275 50.9135 22.5631 51.1265 22.6461C51.3394 22.729 51.5316 22.8575 51.6898 23.0224C51.848 23.1873 51.9683 23.3847 52.0424 23.6009C52.1164 23.8171 52.1424 24.0469 52.1185 24.2741V24.3527H49.2944ZM51.49 23.897C51.4531 23.6451 51.3226 23.4164 51.1247 23.2563C50.9267 23.0961 50.6757 23.0164 50.4217 23.0329C50.1638 23.0187 49.9095 23.0985 49.7058 23.2573C49.5022 23.4162 49.363 23.6435 49.314 23.897H51.49Z" fill="white"/>
<path d="M55.642 25.3227C55.4962 25.4896 55.3143 25.6209 55.1101 25.7067C54.9059 25.7924 54.6847 25.8304 54.4636 25.8176C54.2446 25.8284 54.0258 25.7946 53.8203 25.7183C53.6148 25.6419 53.4269 25.5246 53.2681 25.3735C53.1094 25.2223 52.9829 25.0405 52.8966 24.839C52.8102 24.6375 52.7656 24.4206 52.7656 24.2013C52.7656 23.9821 52.8102 23.7652 52.8966 23.5637C52.9829 23.3622 53.1094 23.1803 53.2681 23.0292C53.4269 22.878 53.6148 22.7607 53.8203 22.6844C54.0258 22.608 54.2446 22.5742 54.4636 22.585C54.6848 22.572 54.906 22.6098 55.1103 22.6956C55.3145 22.7814 55.4964 22.9129 55.642 23.0799V23.0799V21.5088H56.2272V25.7155H55.642V25.3227ZM54.5461 25.3227C54.7694 25.3227 54.9876 25.2564 55.1732 25.1322C55.3587 25.008 55.5032 24.8314 55.5883 24.625C55.6734 24.4186 55.6952 24.1915 55.6511 23.9726C55.607 23.7537 55.4988 23.5529 55.3404 23.3955C55.1819 23.2382 54.9803 23.1315 54.7612 23.0889C54.542 23.0462 54.3151 23.0697 54.1092 23.1562C53.9034 23.2428 53.7279 23.3885 53.6049 23.5749C53.482 23.7613 53.4172 23.98 53.4188 24.2033C53.4082 24.3539 53.4302 24.5049 53.4832 24.6463C53.5362 24.7876 53.6189 24.9159 53.7258 25.0225C53.8328 25.129 53.9613 25.2113 54.1029 25.2638C54.2444 25.3163 54.3955 25.3377 54.5461 25.3267V25.3227Z" fill="white"/>
<path d="M60.2492 25.7156H59.6639V25.2521C59.5306 25.4375 59.3529 25.5865 59.147 25.6853C58.9411 25.7842 58.7136 25.8297 58.4856 25.8177C57.7471 25.8177 57.2012 25.5034 57.2012 24.7375V22.6558H57.7393V24.6197C57.7393 25.0675 58.0142 25.3228 58.6466 25.3228C58.7733 25.3354 58.9013 25.3213 59.0222 25.2815C59.1431 25.2416 59.2544 25.1768 59.3488 25.0914C59.4431 25.0059 59.5185 24.9015 59.5701 24.7851C59.6217 24.6687 59.6483 24.5428 59.6482 24.4154V22.6558H60.2335L60.2492 25.7156Z" fill="white"/>
<path d="M66.9029 23.0446C66.8087 22.4632 66.353 21.9762 65.4771 21.9762C64.4952 21.9762 63.8667 22.5379 63.8667 23.6809C63.8481 23.8933 63.8757 24.1073 63.9476 24.308C64.0195 24.5088 64.1341 24.6916 64.2834 24.8439C64.4326 24.9961 64.6131 25.1143 64.8124 25.1902C65.0117 25.2661 65.2251 25.2979 65.4379 25.2834C65.7858 25.3107 66.131 25.2038 66.4027 24.9847C66.6744 24.7656 66.8519 24.4509 66.899 24.1051H67.5157C67.449 24.6001 67.1962 25.0512 66.8087 25.3664C66.4213 25.6816 65.9283 25.8374 65.43 25.8019C64.3813 25.8019 63.2422 25.2206 63.2422 23.6023C63.2231 23.3108 63.2665 23.0185 63.3695 22.745C63.4725 22.4716 63.6328 22.2234 63.8396 22.0169C64.0464 21.8105 64.295 21.6507 64.5686 21.5481C64.8422 21.4456 65.1345 21.4027 65.4261 21.4224C66.2666 21.4224 67.39 21.7877 67.5157 23.0289L66.9029 23.0446Z" fill="white"/>
<path d="M70.0137 22.5498C71.192 22.5498 71.7891 23.304 71.7891 24.1838C71.7891 25.0636 71.2038 25.8178 70.0137 25.8178C68.8235 25.8178 68.2383 25.0676 68.2383 24.1838C68.2383 23.3 68.8235 22.5498 70.0137 22.5498ZM70.0137 23.0408C69.7881 23.0431 69.5683 23.1121 69.3819 23.2391C69.1955 23.3661 69.0508 23.5454 68.9661 23.7545C68.8814 23.9635 68.8604 24.193 68.9059 24.4139C68.9513 24.6349 69.0611 24.8374 69.2214 24.9961C69.3817 25.1548 69.5854 25.2625 69.8068 25.3056C70.0282 25.3488 70.2574 25.3255 70.4655 25.2386C70.6737 25.1518 70.8515 25.0053 70.9766 24.8176C71.1017 24.6299 71.1684 24.4093 71.1685 24.1838C71.1791 24.0299 71.1565 23.8756 71.102 23.7313C71.0476 23.587 70.9627 23.4561 70.853 23.3476C70.7434 23.2391 70.6117 23.1555 70.4668 23.1026C70.322 23.0496 70.1674 23.0286 70.0137 23.0408V23.0408Z" fill="white"/>
<path d="M77.2492 23.7712C77.2606 23.6722 77.2494 23.5718 77.2164 23.4777C77.1835 23.3836 77.1297 23.2982 77.059 23.2279C76.9883 23.1576 76.9026 23.1042 76.8083 23.0718C76.714 23.0393 76.6137 23.0287 76.5147 23.0406C75.9844 23.0406 75.5091 23.292 75.5091 23.8615V25.7155H74.9239V23.7712C74.9353 23.6722 74.9241 23.5718 74.8912 23.4777C74.8582 23.3836 74.8044 23.2982 74.7337 23.2279C74.663 23.1576 74.5773 23.1042 74.483 23.0718C74.3888 23.0393 74.2884 23.0287 74.1894 23.0406C74.0615 23.0279 73.9324 23.0423 73.8104 23.0828C73.6885 23.1234 73.5764 23.1891 73.4816 23.2758C73.3867 23.3625 73.3112 23.4682 73.2599 23.5861C73.2086 23.7039 73.1827 23.8312 73.1839 23.9597V25.7233H72.6025V22.6557H73.1839V23.1152C73.3202 22.9282 73.5014 22.7784 73.7107 22.6796C73.92 22.5808 74.1508 22.5361 74.3819 22.5496C74.5898 22.5436 74.7957 22.5928 74.9785 22.6921C75.1614 22.7915 75.3146 22.9375 75.4227 23.1152C75.5676 22.9277 75.756 22.7782 75.9715 22.6797C76.1871 22.5811 76.4234 22.5365 76.66 22.5496C76.8099 22.536 76.961 22.5537 77.1036 22.6019C77.2462 22.65 77.3771 22.7274 77.4881 22.8291C77.599 22.9308 77.6875 23.0545 77.7478 23.1924C77.8081 23.3303 77.839 23.4793 77.8384 23.6298V25.7155H77.2531L77.2492 23.7712Z" fill="white"/>
<path d="M78.7808 22.6557H79.366V23.0799C79.5089 22.9158 79.6869 22.7861 79.8868 22.7004C80.0868 22.6147 80.3035 22.5753 80.5208 22.585C80.7398 22.5742 80.9586 22.608 81.1641 22.6843C81.3696 22.7607 81.5575 22.878 81.7163 23.0291C81.8751 23.1803 82.0015 23.3621 82.0879 23.5636C82.1743 23.7651 82.2188 23.9821 82.2188 24.2013C82.2188 24.4205 82.1743 24.6374 82.0879 24.8389C82.0015 25.0404 81.8751 25.2223 81.7163 25.3734C81.5575 25.5246 81.3696 25.6419 81.1641 25.7182C80.9586 25.7946 80.7398 25.8284 80.5208 25.8176C80.3027 25.8288 80.085 25.79 79.8842 25.7042C79.6834 25.6185 79.5048 25.488 79.3621 25.3227V25.3227V26.8938H78.7769L78.7808 22.6557ZM80.4619 23.076C80.3085 23.0669 80.1549 23.0893 80.0105 23.1417C79.8661 23.1942 79.7339 23.2756 79.6221 23.381C79.5103 23.4864 79.4213 23.6135 79.3604 23.7546C79.2995 23.8956 79.2681 24.0476 79.2681 24.2013C79.2681 24.3549 79.2995 24.5069 79.3604 24.648C79.4213 24.7891 79.5103 24.9162 79.6221 25.0216C79.7339 25.127 79.8661 25.2084 80.0105 25.2608C80.1549 25.3133 80.3085 25.3357 80.4619 25.3266C80.7489 25.3096 81.0185 25.1837 81.2157 24.9745C81.4129 24.7653 81.5227 24.4887 81.5227 24.2013C81.5227 23.9138 81.4129 23.6372 81.2157 23.428C81.0185 23.2189 80.7489 23.0929 80.4619 23.076V23.076Z" fill="white"/>
<path d="M86.0905 25.7156H85.5091V25.2521C85.3754 25.437 85.1975 25.5856 84.9917 25.6844C84.7859 25.7831 84.5588 25.829 84.3308 25.8177C83.5924 25.8177 83.0464 25.5034 83.0464 24.7375V22.6558H83.6277V24.6197C83.6277 25.0675 83.9027 25.3228 84.535 25.3228C84.6621 25.336 84.7904 25.3223 84.9118 25.2828C85.0333 25.2432 85.145 25.1785 85.2398 25.0929C85.3346 25.0074 85.4104 24.9029 85.4622 24.7862C85.514 24.6694 85.5407 24.5431 85.5406 24.4154V22.6558H86.1219L86.0905 25.7156Z" fill="white"/>
<path d="M87.2964 21.7131H87.8777V22.6558H88.7693V23.1114H87.8934V24.9968C87.8934 25.2482 88.0702 25.3268 88.3687 25.3268C88.5005 25.3249 88.6319 25.3118 88.7615 25.2875V25.7785C88.5459 25.8122 88.3276 25.8253 88.1095 25.8177C87.5321 25.8177 87.3043 25.5389 87.3043 25.095V23.1311H86.6719V22.6558H87.3043L87.2964 21.7131Z" fill="white"/>
<path d="M89.9165 24.3527C89.9443 24.6277 90.0769 24.8814 90.2868 25.0613C90.4967 25.2412 90.7677 25.3334 91.0437 25.3189C91.2431 25.335 91.4428 25.2923 91.6181 25.1959C91.7933 25.0995 91.9364 24.9538 92.0296 24.7769H92.6502C92.5233 25.0876 92.3053 25.3526 92.0249 25.537C91.7444 25.7214 91.4147 25.8166 91.0791 25.8099C89.9007 25.8099 89.3037 25.0597 89.3037 24.1759C89.3037 23.2922 89.889 22.5419 91.0791 22.5419C91.3072 22.5275 91.5356 22.5631 91.7485 22.6461C91.9615 22.729 92.1537 22.8575 92.3119 23.0224C92.4701 23.1873 92.5904 23.3847 92.6644 23.6009C92.7385 23.8171 92.7645 24.0469 92.7406 24.2741V24.3527H89.9165ZM92.1121 23.897C92.0752 23.6451 91.9447 23.4164 91.7468 23.2563C91.5488 23.0961 91.2978 23.0164 91.0437 23.0329C90.7859 23.0187 90.5316 23.0985 90.3279 23.2573C90.1243 23.4162 89.9851 23.6435 89.9361 23.897H92.1121Z" fill="white"/>
<path d="M93.561 22.6558H94.1463V23.2136C94.242 23.0163 94.3909 22.8497 94.5762 22.7324C94.7614 22.6151 94.9758 22.5519 95.195 22.5497C95.3075 22.544 95.4201 22.5559 95.5289 22.5851V23.2136C95.3935 23.1753 95.2532 23.1567 95.1125 23.1586C94.9794 23.1481 94.8456 23.167 94.7205 23.214C94.5955 23.2609 94.4823 23.3348 94.389 23.4304C94.2957 23.5259 94.2245 23.6408 94.1806 23.7669C94.1366 23.8931 94.1208 24.0273 94.1345 24.1602V25.7313H93.561V22.6558Z" fill="white"/>
<path d="M98.4473 21.5442H100.553C101.806 21.5442 102.375 22.3612 102.375 23.571C102.375 24.7807 101.868 25.7156 100.588 25.7156H98.4395L98.4473 21.5442ZM100.553 25.1774C101.57 25.1774 101.731 24.3251 101.731 23.5827C101.731 22.8404 101.491 22.0823 100.415 22.0823H99.0326V25.1774H100.553Z" fill="white"/>
<path d="M103.723 24.3527C103.751 24.6277 103.883 24.8814 104.093 25.0613C104.303 25.2412 104.574 25.3335 104.85 25.3189C105.049 25.3351 105.249 25.2923 105.424 25.1959C105.6 25.0996 105.743 24.9539 105.836 24.7769H106.445C106.318 25.0876 106.1 25.3526 105.819 25.537C105.539 25.7214 105.209 25.8166 104.874 25.8099C103.695 25.8099 103.098 25.0597 103.098 24.1759C103.098 23.2922 103.695 22.5498 104.874 22.5498C105.679 22.5498 106.531 23.0172 106.531 24.282V24.3527H103.723ZM105.918 23.8971C105.881 23.6451 105.751 23.4164 105.553 23.2563C105.355 23.0961 105.104 23.0164 104.85 23.0329C104.592 23.0194 104.337 23.0993 104.133 23.258C103.929 23.4167 103.789 23.6435 103.738 23.8971H105.918Z" fill="white"/>
<path d="M107.776 24.7454C107.776 25.0204 107.996 25.3582 108.738 25.3582C109.48 25.3582 109.673 25.099 109.673 24.8829C109.673 24.6669 109.563 24.5373 109.095 24.4901L108.129 24.3527C107.914 24.346 107.71 24.2587 107.556 24.108C107.402 23.9574 107.311 23.7545 107.3 23.5396C107.3 22.9151 107.835 22.5537 108.699 22.5537C109.696 22.5537 110.144 22.9858 110.191 23.5828H109.606C109.606 23.2725 109.3 23.0093 108.691 23.0093C108.298 23.0093 107.886 23.1193 107.886 23.4768C107.886 23.681 107.98 23.8028 108.392 23.8695L109.221 23.9834C110.007 24.0934 110.29 24.3762 110.29 24.7926C110.29 25.5074 109.689 25.8374 108.754 25.8374C108.055 25.8374 107.253 25.6567 107.183 24.769L107.776 24.7454Z" fill="white"/>
<path d="M111.063 21.5088H111.645V22.153H111.063V21.5088ZM111.063 22.6557H111.645V25.7155H111.063V22.6557Z" fill="white"/>
<path d="M115.329 22.6558H115.914V25.4563C115.914 26.5561 115.388 27 114.135 27C113.475 27 112.713 26.8939 112.591 26.0455H113.177C113.287 26.4383 113.632 26.5444 114.194 26.5444C115.015 26.5444 115.329 26.1241 115.329 25.6213V25.1775C115.197 25.3643 115.02 25.5143 114.813 25.6133C114.607 25.7122 114.379 25.7569 114.151 25.7431C113.334 25.7431 112.474 25.2992 112.474 24.1719C112.474 23.0447 113.326 22.6008 114.143 22.6008C114.367 22.5845 114.591 22.6232 114.797 22.7136C115.002 22.804 115.182 22.9433 115.321 23.1193V23.1193L115.329 22.6558ZM114.202 23.0761C114.054 23.0641 113.905 23.0839 113.765 23.1344C113.625 23.1848 113.497 23.2646 113.391 23.3685C113.284 23.4723 113.202 23.5978 113.148 23.7363C113.094 23.8749 113.07 24.0235 113.079 24.1719C113.095 24.4589 113.221 24.7285 113.431 24.9257C113.64 25.1229 113.916 25.2327 114.204 25.2327C114.491 25.2327 114.768 25.1229 114.977 24.9257C115.186 24.7285 115.312 24.4589 115.329 24.1719C115.336 24.0234 115.312 23.8751 115.257 23.7368C115.203 23.5985 115.119 23.4734 115.013 23.3698C114.906 23.2662 114.779 23.1864 114.639 23.1357C114.499 23.0851 114.35 23.0648 114.202 23.0761V23.0761Z" fill="white"/>
<path d="M116.826 22.6559H117.411V23.1154C117.545 22.931 117.723 22.7828 117.929 22.6841C118.134 22.5854 118.361 22.5393 118.589 22.5498C119.328 22.5498 119.878 22.864 119.878 23.63V25.7157H119.292V23.7517C119.292 23.3 119.017 23.0447 118.389 23.0447C118.264 23.0361 118.138 23.0534 118.019 23.0955C117.901 23.1376 117.793 23.2036 117.701 23.2895C117.609 23.3754 117.536 23.4792 117.486 23.5945C117.436 23.7099 117.411 23.8343 117.411 23.9599V25.7235H116.826V22.6559Z" fill="white"/>
<path d="M123.181 21.5442H123.797V25.7156H123.181V21.5442Z" fill="white"/>
<path d="M124.906 22.6558H125.491V23.1153C125.626 22.9312 125.804 22.7832 126.009 22.6845C126.215 22.5858 126.442 22.5395 126.669 22.5497C127.404 22.5497 127.954 22.864 127.954 23.6299V25.7156H127.369V23.7516C127.369 23.2999 127.094 23.0446 126.465 23.0446C126.339 23.0343 126.212 23.0503 126.092 23.0917C125.972 23.133 125.862 23.1988 125.769 23.2848C125.676 23.3708 125.602 23.4753 125.551 23.5915C125.501 23.7077 125.475 23.8331 125.475 23.9598V25.7234H124.906V22.6558Z" fill="white"/>
<path d="M129.324 24.7455C129.324 25.0204 129.544 25.3582 130.286 25.3582C131.029 25.3582 131.221 25.099 131.221 24.8829C131.221 24.6669 131.111 24.5373 130.644 24.4902L129.682 24.3527C129.463 24.35 129.253 24.264 129.096 24.1122C128.938 23.9604 128.844 23.7542 128.833 23.5357C128.833 22.9112 129.367 22.5498 130.231 22.5498C131.229 22.5498 131.677 22.9819 131.724 23.5789H131.143C131.123 23.2686 130.832 23.0054 130.224 23.0054C129.85 23.0054 129.418 23.1154 129.418 23.4728C129.418 23.6771 129.513 23.7989 129.925 23.8656L130.754 23.9795C131.539 24.0895 131.826 24.3723 131.826 24.7887C131.826 25.5035 131.221 25.8335 130.29 25.8335C129.587 25.8335 128.79 25.6528 128.719 24.7651L129.324 24.7455Z" fill="white"/>
<path d="M132.867 21.7131H133.453V22.6558H134.332V23.1114H133.456V24.9968C133.456 25.2482 133.633 25.3268 133.928 25.3268C134.06 25.3249 134.191 25.3117 134.321 25.2875V25.7785C134.104 25.8122 133.884 25.8253 133.665 25.8177C133.087 25.8177 132.859 25.5389 132.859 25.095V23.1311H132.231V22.6558H132.859L132.867 21.7131Z" fill="white"/>
<path d="M135.004 21.5088H135.589V22.153H135.004V21.5088ZM135.004 22.6557H135.589V25.7155H135.004V22.6557Z" fill="white"/>
<path d="M136.791 21.7131H137.376V22.6558H138.26V23.1114H137.384V24.9968C137.384 25.2482 137.561 25.3268 137.856 25.3268C137.987 25.3249 138.119 25.3117 138.248 25.2875V25.7785C138.033 25.8122 137.814 25.8253 137.596 25.8177C137.015 25.8177 136.787 25.5389 136.787 25.095V23.1311H136.159V22.6558H136.787L136.791 21.7131Z" fill="white"/>
<path d="M142.007 25.7156H141.422V25.2521C141.289 25.4373 141.111 25.586 140.905 25.6848C140.699 25.7836 140.472 25.8293 140.244 25.8177C139.505 25.8177 138.959 25.5034 138.959 24.7375V22.6558H139.541V24.6197C139.541 25.0675 139.816 25.3228 140.448 25.3228C140.575 25.3354 140.703 25.3213 140.824 25.2815C140.945 25.2416 141.056 25.1768 141.15 25.0914C141.245 25.0059 141.32 24.9015 141.372 24.7851C141.423 24.6687 141.45 24.5428 141.45 24.4154V22.6558H142.035L142.007 25.7156Z" fill="white"/>
<path d="M143.21 21.7131H143.795V22.6558H144.671V23.1114H143.795V24.9968C143.795 25.2482 143.972 25.3268 144.266 25.3268C144.398 25.3249 144.529 25.3117 144.659 25.2875V25.7785C144.443 25.8121 144.225 25.8252 144.007 25.8177C143.426 25.8177 143.198 25.5389 143.198 25.095V23.1311H142.581V22.6558H143.21V21.7131Z" fill="white"/>
<path d="M145.833 24.3527C145.861 24.6277 145.993 24.8815 146.203 25.0614C146.413 25.2413 146.684 25.3335 146.96 25.319C147.16 25.3351 147.359 25.2923 147.535 25.196C147.71 25.0996 147.853 24.9539 147.946 24.7769H148.567C148.44 25.0877 148.222 25.3527 147.941 25.5371C147.661 25.7215 147.331 25.8166 146.996 25.81C145.817 25.81 145.22 25.0597 145.22 24.176C145.22 23.2922 145.805 22.542 146.996 22.542C147.781 22.542 148.653 23.0094 148.653 24.2742V24.3527H145.833ZM148.029 23.8971C147.992 23.6452 147.861 23.4164 147.663 23.2563C147.465 23.0962 147.214 23.0165 146.96 23.033C146.702 23.0195 146.448 23.0994 146.244 23.258C146.039 23.4167 145.899 23.6436 145.849 23.8971H148.029Z" fill="white"/>
<path d="M9.0851 15.8883C8.72691 14.7204 8.04613 13.6775 7.12118 12.8796L6.22956 12.2354L5.83678 11.9526L5.49898 11.7091L5.40079 11.6384L5.008 11.3673L4.80768 11.222L4.54059 11.0256C3.04801 9.93367 1.93643 9.00277 1.39831 8.23291L0.329939 11.4655L0.192464 11.8819V11.9054L0 12.4711C0.00221112 12.5469 0.0140906 12.6221 0.0353506 12.6949C0.259238 13.4255 1.5515 14.5764 4.35598 16.5442C4.41097 16.5835 4.45417 16.6189 4.50916 16.6542L4.79983 16.8624L5.09441 17.0666C6.9405 18.3942 8.20527 19.4233 8.80623 20.2718C8.81707 20.2904 8.83028 20.3075 8.8455 20.3228C9.44648 18.9193 9.53135 17.3484 9.0851 15.8883V15.8883Z" fill="white"/>
<path d="M8.51542 21.1475C8.33866 20.4562 7.1446 19.3211 4.93715 17.7578C4.91751 17.8089 4.9018 17.856 4.88609 17.9071C3.73916 21.395 3.40922 23.2057 3.82164 23.7438C3.88791 23.7796 3.96243 23.7972 4.03767 23.7949C4.9018 23.7949 6.72432 22.5223 8.51542 21.1475Z" fill="white"/>
<path d="M5.60878 10.9744C6.33936 10.6759 7.17992 8.18561 7.71018 6.39844H7.19563C3.61736 6.39844 1.8734 6.65375 1.55917 7.23114C1.40992 8.02064 4.10442 9.94528 5.60878 10.9744Z" fill="white"/>
<path d="M14.3447 5.00015C14.7714 5.60055 15.3384 6.08759 15.9962 6.41892C16.6541 6.75025 17.3829 6.91582 18.1194 6.90122C18.6513 6.89396 19.1799 6.81468 19.6905 6.66555C19.6002 6.39453 19.5059 6.10387 19.4077 5.80143L19.2663 5.36151C18.4611 2.79662 17.4949 0.168897 16.6582 0C15.853 0.137475 14.8907 3.14228 14.3447 5.00015Z" fill="white"/>
<path d="M19.1876 21.3556C19.1628 21.3535 19.1378 21.3535 19.113 21.3556C18.2763 21.3556 16.6109 22.4829 14.8159 23.842L14.9887 23.9637C17.6479 25.9277 19.2347 26.8193 19.9889 26.8193C20.0833 26.8195 20.1764 26.7966 20.2599 26.7525C20.8177 26.1751 19.8004 23.0721 19.1876 21.3556Z" fill="white"/>
<path d="M23.453 17.6007C22.5142 15.0123 22.2746 14.2503 21.9133 12.9894L21.7326 12.3806C20.7851 13.1839 20.0579 14.2153 19.6194 15.3776C19.2958 16.1647 19.1341 17.009 19.1441 17.86C19.1421 17.8966 19.1421 17.9333 19.1441 17.9699C19.1441 18.0092 19.1441 18.0485 19.1441 18.0878V18.131C19.1673 19.1562 19.4055 20.1652 19.8433 21.0926C19.8826 21.2026 19.9258 21.3125 19.9611 21.4186L20.13 21.996C20.7428 23.8067 21.112 25.1932 21.1002 26.1281L23.2016 24.5569L23.8222 24.0934L24.1836 23.8224L24.6745 23.4571C25.2402 22.8483 24.376 20.1577 23.453 17.6007Z" fill="white"/>
<path d="M14.27 19.2463C13.0461 19.2455 11.8472 19.5929 10.8135 20.2479C10.5385 20.4522 10.2439 20.6721 9.93754 20.9078L9.54476 21.2103L9.2266 21.4538L9.13233 21.5284L8.75919 21.8151L8.5628 21.9644L8.29963 22.1608C6.79527 23.292 5.58156 24.0776 4.68994 24.3525L7.463 26.3165L7.82436 26.5718L8.30749 26.9135C8.37984 26.9364 8.45551 26.947 8.53137 26.9449C9.29337 26.9449 10.7702 26.0454 13.4805 23.9362L13.6297 23.8223L13.9125 23.6023L14.1953 23.3824C16.0061 22.0076 17.3376 21.0964 18.351 20.7743L18.4099 20.7507C17.2474 19.7822 15.7831 19.2501 14.27 19.2463V19.2463Z" fill="white"/>
<path d="M12.2037 0.0549898H11.752H11.1353C10.5069 0.176753 9.737 1.85394 8.68434 5.49898C8.6647 5.56968 8.64506 5.63253 8.62935 5.6993C8.61364 5.76607 8.56258 5.92712 8.52723 6.04102C8.49187 6.15493 8.46045 6.27277 8.4251 6.38275C7.77308 8.58234 7.20747 10.1299 6.59473 10.9626C6.70078 10.9626 6.80683 10.9626 6.91288 10.9626H7.19176C8.5101 10.9266 9.78625 10.4902 10.8506 9.71138C11.9149 8.9326 12.717 7.84833 13.1503 6.60271L13.3035 6.08423C13.3663 5.87605 13.4292 5.67181 13.4881 5.46363C13.4881 5.46363 13.4881 5.46363 13.4881 5.44006L13.6138 5.02764C13.6138 4.97658 13.6452 4.92159 13.657 4.8666C13.7002 4.73305 13.7395 4.59165 13.7827 4.47381C13.8259 4.35598 13.8652 4.19887 13.9084 4.06139C13.9084 4.01426 13.9359 3.96319 13.9516 3.91999C14.5329 2.0739 15.0514 0.74629 15.6052 0L12.2037 0.0549898Z" fill="white"/>
<path d="M25.8337 6.44948C25.4723 6.42198 25.1109 6.40234 24.7574 6.40234C23.4788 6.40998 22.2083 6.60585 20.9867 6.98367L20.5547 7.11328L20.2443 7.21541C20.2203 7.22559 20.1953 7.23348 20.1697 7.23897L19.9144 7.3136C19.3366 7.48503 18.7377 7.57493 18.1351 7.5807C17.3941 7.5843 16.6601 7.43591 15.9787 7.14471C15.6394 6.99826 15.3156 6.81798 15.0125 6.60659C14.9378 6.55553 14.8593 6.50054 14.7886 6.44555C14.7886 6.44555 14.7886 6.47305 14.7886 6.48483C15.0022 7.68387 15.6002 8.78081 16.4924 9.60989C17.3845 10.439 18.5223 10.9551 19.7337 11.0804C20.2578 11.1365 20.7874 11.114 21.3049 11.0136C21.5366 10.9547 21.7566 10.8997 21.9569 10.8565C22.5738 10.7092 23.2091 10.6536 23.8423 10.6915C24.8112 10.7722 25.7709 10.9405 26.7096 11.1943L29.7419 7.28611C28.477 6.8531 27.165 6.57225 25.8337 6.44948V6.44948Z" fill="white"/>
</svg>
