<svg width="210" height="34" viewBox="0 0 210 34" fill="none" xmlns="http://www.w3.org/2000/svg">
<path d="M2.18371 25.5284L4.09446 30.9028L6.00518 25.5284H8.00693V32.9068H6.46012V30.9028L6.55112 27.3502L4.5494 32.8157H3.45753L1.45579 27.3502L1.54678 30.8117V32.8157H0V25.4373H2.18371V25.5284Z" fill="white"/>
<path d="M9.55371 30.0833C9.55371 29.5368 9.64469 29.0813 9.82666 28.6258C10.0086 28.1704 10.3726 27.8971 10.7365 27.6238C11.1005 27.3506 11.6464 27.2595 12.1014 27.3506C12.7383 27.2595 13.4662 27.5327 13.8301 28.0793C14.2851 28.6258 14.558 29.2635 14.649 29.9922V30.4477C14.74 31.1764 14.467 31.9962 13.9211 32.5428C13.4662 32.9982 12.7383 33.2716 12.0104 33.2716C11.2825 33.3627 10.6455 33.0893 10.0996 32.5428C9.73566 31.723 9.55371 30.9032 9.55371 30.0833ZM11.0095 30.1744C11.0095 30.6299 11.1005 31.0854 11.2825 31.4497C11.6464 31.9052 12.2833 31.9962 12.7383 31.6319C12.8293 31.5408 12.9202 31.5408 12.9202 31.4497C13.1932 31.0854 13.2842 30.5388 13.1932 30.0833C13.1932 29.719 13.1022 29.2635 12.9202 28.8991C12.7383 28.6258 12.3743 28.5347 12.1014 28.4436C11.7374 28.4436 11.4645 28.6258 11.2825 28.8991C11.0095 29.2635 10.9185 29.7189 11.0095 30.1744Z" fill="white"/>
<path d="M17.5601 27.35V27.9876C17.9241 27.5321 18.47 27.2589 19.1069 27.2589C19.5619 27.1678 20.0168 27.4411 20.3808 27.8054C20.6537 28.2609 20.8357 28.8074 20.8357 29.354V32.9066H19.3799V29.354C19.3799 29.0807 19.2889 28.8074 19.1979 28.6252C19.0159 28.4431 18.834 28.443 18.561 28.443C18.1971 28.443 17.8331 28.6253 17.6511 28.9896V32.8155H16.1953V27.35H17.6511H17.5601Z" fill="white"/>
<path d="M25.2943 30.2659H22.4736V29.0811H25.2943V30.2659Z" fill="white"/>
<path d="M31.5727 29.9007H28.6611V32.9067H27.1143V25.5283H31.8456V26.8036H28.6611V28.7165H31.5727V29.9007Z" fill="white"/>
<path d="M36.2135 28.717H35.6676C35.2126 28.6259 34.8487 28.8991 34.6667 29.2635V32.9072H33.2109V27.4417H34.5758V28.0793C34.8487 27.6239 35.3036 27.3506 35.8496 27.3506C36.0315 27.3506 36.1225 27.3506 36.3045 27.4417V28.717H36.2135Z" fill="white"/>
<path d="M37.3052 25.8928C37.3052 25.7106 37.3961 25.5284 37.4871 25.3463C37.6691 25.1641 37.8511 25.1641 38.1241 25.1641C38.306 25.1641 38.579 25.2552 38.761 25.3463C38.9429 25.4373 38.9429 25.6195 38.9429 25.8928C38.9429 26.075 38.8519 26.2572 38.761 26.4394C38.579 26.6216 38.397 26.6215 38.1241 26.6215C37.9421 26.6215 37.6691 26.5305 37.4871 26.4394C37.3052 26.3483 37.3052 26.2572 37.3052 25.8928ZM38.9429 32.9069H37.4871V27.4414H38.9429V32.9069Z" fill="white"/>
<path d="M48.6787 29.9008C48.6787 30.7206 48.4967 31.5404 48.0417 32.2692C47.5868 32.9068 46.8589 33.1801 46.131 33.089C45.4031 33.089 44.6752 32.8157 44.2202 32.2692C43.7653 31.6315 43.4924 30.8117 43.5834 29.9919V28.5344C43.5834 27.7146 43.7653 26.8947 44.2202 26.166C44.6752 25.5283 45.4031 25.2551 46.131 25.3462C46.8589 25.3462 47.5868 25.6194 48.0417 26.166C48.4967 26.8036 48.7697 27.6235 48.6787 28.4433V29.9008ZM47.2229 28.2611C47.2229 27.8057 47.1319 27.3502 47.0409 26.8948C46.9499 26.6215 46.5859 26.4393 46.222 26.4393C45.949 26.4393 45.5851 26.5304 45.4941 26.8948C45.4031 27.2591 45.2211 27.7146 45.2211 28.17V29.9008C45.2211 30.3563 45.3121 30.8117 45.4031 31.2672C45.5851 31.5405 45.858 31.7226 46.222 31.7226C46.495 31.7226 46.8589 31.6315 46.9499 31.2672C47.1319 30.9028 47.1319 30.4473 47.1319 29.9919V28.2611H47.2229Z" fill="white"/>
<path d="M53.6823 29.9007C53.3184 30.2651 52.8635 30.4473 52.3175 30.4473C51.7716 30.4473 51.1347 30.2651 50.7707 29.8096C50.3158 29.3541 50.1338 28.7165 50.1338 28.0789C50.1338 27.6234 50.2248 27.168 50.4068 26.7125C50.5887 26.3481 50.9527 25.9838 51.3166 25.8016C51.6806 25.6194 52.1355 25.5283 52.5905 25.5283C53.0454 25.5283 53.5003 25.6194 53.8643 25.9838C54.2283 26.2571 54.5012 26.6214 54.6832 26.9858C54.8652 27.4412 55.0472 27.9878 54.9562 28.5343V29.0809C55.0472 30.174 54.6832 31.176 54.0463 31.9958C53.4094 32.7246 52.4085 33.0889 51.4076 33.18H51.1347V31.9048H51.4076C52.7725 31.6315 53.5004 30.9938 53.6823 29.9007ZM52.5905 29.3541C52.7725 29.3541 53.0454 29.2631 53.2274 29.172C53.4094 29.0809 53.5004 28.8987 53.6823 28.7165V28.0789C53.6823 27.7145 53.5913 27.2591 53.4094 26.8947C53.1364 26.5303 52.6815 26.3481 52.2265 26.6214C52.1355 26.7125 52.0445 26.8036 51.9535 26.8947C51.4986 27.5323 51.4986 28.3522 51.9535 28.9898C52.0445 29.2631 52.3175 29.3541 52.5905 29.3541Z" fill="white"/>
<path d="M56.7764 27.9885C56.7764 27.8063 56.8673 27.6241 56.9583 27.442C57.1403 27.2598 57.3223 27.2598 57.5953 27.2598C57.7772 27.2598 58.0502 27.3509 58.2322 27.442C58.4142 27.5331 58.4141 27.7152 58.4141 27.9885C58.4141 28.1707 58.3232 28.3529 58.2322 28.5351C58.0502 28.7173 57.8682 28.7173 57.5953 28.7173C57.4133 28.7173 57.1403 28.6262 56.9583 28.5351C56.8673 28.3529 56.7764 28.1707 56.7764 27.9885ZM56.7764 32.1788C56.7764 31.9966 56.8673 31.8144 56.9583 31.6322C57.1403 31.45 57.3223 31.45 57.5953 31.45C57.7772 31.45 58.0502 31.5411 58.2322 31.6322C58.4142 31.7233 58.4141 31.9055 58.4141 32.1788C58.4141 32.3609 58.3232 32.5431 58.2322 32.7253C58.0502 32.9075 57.8682 32.9075 57.5953 32.9075C57.4133 32.9075 57.1403 32.8164 56.9583 32.7253C56.8673 32.5431 56.7764 32.3609 56.7764 32.1788Z" fill="white"/>
<path d="M65.0561 29.9008C65.0561 30.7206 64.8741 31.5404 64.4192 32.2692C63.9643 32.9068 63.2363 33.1801 62.5084 33.089C61.7805 33.089 61.0526 32.8157 60.5977 32.2692C60.1428 31.6315 59.8698 30.8117 59.9608 29.9919V28.5344C59.9608 27.7146 60.1428 26.8947 60.5977 26.166C61.0526 25.5283 61.7805 25.2551 62.5084 25.3462C63.2363 25.3462 63.9643 25.6194 64.4192 26.166C64.8741 26.8036 65.1471 27.6235 65.0561 28.4433V29.9008ZM63.6003 28.2611C63.6003 27.8057 63.5093 27.3502 63.4183 26.8948C63.3273 26.6215 62.9634 26.4393 62.5994 26.4393C62.3265 26.4393 61.9625 26.5304 61.8715 26.8948C61.7806 27.2591 61.5986 27.7146 61.5986 28.17V29.9008C61.5986 30.3563 61.6896 30.8117 61.7806 31.2672C61.9625 31.5405 62.2355 31.7226 62.5994 31.7226C62.8724 31.7226 63.2363 31.6315 63.3273 31.2672C63.5093 30.9028 63.5093 30.4473 63.5093 29.9919V28.2611H63.6003Z" fill="white"/>
<path d="M71.5165 29.9008C71.5165 30.7206 71.3346 31.5404 70.8796 32.2692C70.4247 32.9068 69.6968 33.1801 68.9689 33.089C68.241 33.089 67.5131 32.8157 67.0581 32.2692C66.6032 31.6315 66.3303 30.8117 66.4212 29.9919V28.5344C66.4212 27.7146 66.6032 26.8947 67.0581 26.166C67.5131 25.5283 68.241 25.2551 68.9689 25.3462C69.6968 25.3462 70.4247 25.6194 70.8796 26.166C71.3346 26.8036 71.6075 27.6235 71.5165 28.4433V29.9008ZM70.0608 28.2611C70.0608 27.8057 69.9698 27.3502 69.8788 26.8948C69.7878 26.6215 69.4238 26.4393 69.0599 26.4393C68.7869 26.4393 68.423 26.5304 68.332 26.8948C68.241 27.2591 68.059 27.7146 68.059 28.17V29.9008C68.059 30.3563 68.15 30.8117 68.241 31.2672C68.423 31.5405 68.6959 31.7226 69.0599 31.7226C69.3329 31.7226 69.6968 31.6315 69.7878 31.2672C69.9698 30.9028 69.9698 30.4473 69.9698 29.9919V28.2611H70.0608Z" fill="white"/>
<path d="M75.9744 30.2659H73.1538V29.0811H75.9744V30.2659Z" fill="white"/>
<path d="M81.1611 32.9071H79.7053V27.2593L77.9766 27.8059V26.6217L80.9792 25.4375H81.1611V32.9071Z" fill="white"/>
<path d="M88.804 27.4418C88.804 27.8062 88.713 28.0794 88.5311 28.3527C88.3491 28.5349 88.0761 28.8993 87.8032 28.9904C88.1671 29.1725 88.4401 29.4458 88.6221 29.7191C88.804 29.9924 88.986 30.3567 88.895 30.7211C88.895 31.2676 88.713 31.9053 88.2581 32.2696C87.7122 32.7251 87.0753 32.9073 86.3473 32.8162C85.7104 32.8162 84.9825 32.634 84.4366 32.1786C83.9816 31.8142 83.7087 31.1766 83.7997 30.63C83.7997 30.2656 83.8907 29.9013 84.0726 29.628C84.2546 29.3547 84.6186 29.0814 84.8915 28.8992C84.6186 28.717 84.3456 28.5349 84.1636 28.2616C83.9817 27.9884 83.7997 27.624 83.8907 27.3507C83.8907 26.8042 84.0726 26.2576 84.5276 25.8932C84.9825 25.5288 85.6194 25.3467 86.1654 25.3467C86.8023 25.3467 87.3482 25.5288 87.8032 25.8932C88.5311 26.2576 88.804 26.8041 88.804 27.4418ZM87.5302 30.7211C87.5302 30.4478 87.4392 30.1745 87.2572 29.9923C87.0753 29.8102 86.8023 29.7191 86.5293 29.7191C85.9834 29.7191 85.5285 30.1745 85.4375 30.7211C85.4375 31.2676 85.8924 31.7231 86.4383 31.8142C86.7113 31.8142 86.9843 31.7231 87.1662 31.5409C87.4392 31.2676 87.6212 30.9943 87.5302 30.7211ZM87.3482 27.4418C87.3482 27.1685 87.2572 26.8952 87.1662 26.7131C86.9843 26.5309 86.8023 26.4398 86.5293 26.4398C86.3473 26.4398 86.0744 26.5308 85.8924 26.6219C85.7104 26.8041 85.7104 27.0774 85.7104 27.3507C85.7104 27.624 85.8014 27.8973 85.8924 28.0794C86.1654 28.4438 86.6203 28.5349 86.9842 28.2616C87.0752 28.2616 87.0752 28.1705 87.1662 28.0794C87.2572 27.8973 87.3482 27.7151 87.3482 27.4418Z" fill="white"/>
<path d="M90.7148 27.9885C90.7148 27.8063 90.8058 27.6241 90.8968 27.442C91.0788 27.2598 91.2608 27.2598 91.5337 27.2598C91.7157 27.2598 91.9887 27.3509 92.1706 27.442C92.3526 27.5331 92.3526 27.7152 92.3526 27.9885C92.3526 28.1707 92.2616 28.3529 92.1706 28.5351C91.9887 28.7173 91.8067 28.7173 91.5337 28.7173C91.3518 28.7173 91.0788 28.6262 90.8968 28.5351C90.7149 28.444 90.7148 28.1707 90.7148 27.9885ZM90.7148 32.1788C90.7148 31.9966 90.8058 31.8144 90.8968 31.6322C91.0788 31.45 91.2608 31.45 91.5337 31.45C91.7157 31.45 91.9887 31.5411 92.1706 31.6322C92.3526 31.7233 92.3526 31.9055 92.3526 32.1788C92.3526 32.3609 92.2616 32.5431 92.1706 32.7253C91.9887 32.9075 91.8067 32.9075 91.5337 32.9075C91.3518 32.9075 91.0788 32.8164 90.8968 32.7253C90.7149 32.5431 90.7148 32.3609 90.7148 32.1788Z" fill="white"/>
<path d="M98.9043 29.9008C98.9043 30.7206 98.7223 31.5404 98.2674 32.2692C97.8124 32.9068 97.0845 33.1801 96.3566 33.089C95.6287 33.089 94.9008 32.8157 94.4459 32.2692C93.9909 31.6315 93.7179 30.8117 93.8089 29.9919V28.5344C93.8089 27.7146 93.9909 26.8947 94.4459 26.166C94.9008 25.5283 95.6287 25.2551 96.3566 25.3462C97.0845 25.3462 97.8124 25.6194 98.2674 26.166C98.7223 26.8036 98.9952 27.6235 98.9043 28.4433V29.9008ZM97.4484 28.2611C97.4484 27.8057 97.3575 27.3502 97.2665 26.8948C97.1755 26.6215 96.8116 26.4393 96.4476 26.4393C96.1746 26.4393 95.8107 26.5304 95.7197 26.8948C95.6287 27.2591 95.4467 27.7146 95.4467 28.17V29.9008C95.4467 30.3563 95.5377 30.8117 95.6287 31.2672C95.8107 31.5405 96.0837 31.7226 96.4476 31.7226C96.7206 31.7226 97.0845 31.6315 97.1755 31.2672C97.3575 30.9028 97.3575 30.4473 97.3575 29.9919V28.2611H97.4484Z" fill="white"/>
<path d="M105.455 29.9008C105.455 30.7206 105.273 31.5404 104.818 32.2692C104.363 32.9068 103.635 33.1801 102.907 33.089C102.179 33.089 101.452 32.8157 100.997 32.2692C100.542 31.6315 100.269 30.8117 100.36 29.9919V28.5344C100.36 27.7146 100.542 26.8947 100.997 26.166C101.452 25.5283 102.179 25.2551 102.907 25.3462C103.635 25.3462 104.363 25.6194 104.818 26.166C105.273 26.8036 105.546 27.6235 105.455 28.4433V29.9008ZM103.999 28.2611C103.999 27.8057 103.908 27.3502 103.817 26.8948C103.726 26.6215 103.362 26.4393 102.998 26.4393C102.725 26.4393 102.361 26.5304 102.27 26.8948C102.179 27.2591 101.997 27.7146 101.997 28.17V29.9008C101.997 30.3563 102.088 30.8117 102.179 31.2672C102.361 31.5405 102.634 31.7226 102.998 31.7226C103.271 31.7226 103.635 31.6315 103.726 31.2672C103.908 30.9028 103.908 30.4473 103.908 29.9919V28.2611H103.999Z" fill="white"/>
<path d="M111.46 33.0898H110.55L113.007 25.8936H113.917L111.46 33.0898Z" fill="white"/>
<path d="M122.47 27.3513V28.08C122.197 28.6265 121.833 29.082 121.469 29.5374H122.652V30.1751C122.561 30.9038 122.379 31.4504 122.197 31.9059L122.379 32.088C122.652 32.3613 122.924 32.5435 123.197 32.7257C123.561 32.9078 123.925 32.9079 124.38 32.9079H126.109C127.019 32.9079 127.838 32.9079 128.748 32.8168L128.566 33.6366H124.38C123.925 33.6366 123.379 33.5455 122.924 33.4544C122.561 33.2722 122.197 33.09 121.924 32.7257C121.833 32.6346 121.833 32.6346 121.742 32.6346C121.56 32.6346 121.196 33.09 120.832 33.9098L120.195 33.2722C120.65 32.4524 121.014 31.9058 121.469 31.8147C121.651 31.3593 121.833 30.9038 121.924 30.3573H120.559V29.5374C121.014 29.082 121.378 28.6265 121.742 28.08H120.468V27.2601H122.652L122.47 27.3513ZM122.47 26.4403L121.924 27.0779C121.469 26.6225 121.014 26.167 120.468 25.7116L121.105 25.165C121.56 25.5294 122.015 25.9849 122.47 26.4403ZM128.384 31.6325C128.384 32.1791 128.111 32.3613 127.474 32.3613H126.473L126.291 31.5415H127.292C127.474 31.5415 127.565 31.4504 127.565 31.2682V31.1771V26.076H124.016V28.5355C124.016 29.8107 123.834 30.9949 123.379 32.1791L122.743 31.5415C123.106 30.5395 123.197 29.5375 123.197 28.5355V25.3472H128.475V31.5415H128.384V31.6325ZM126.018 26.4403V26.8958H127.201V27.6245H126.018V28.1711H127.201V28.8998H126.018V29.4464H126.928V31.4504H124.198V29.4464H125.108V28.8087H123.925V28.08H125.108V27.5334H123.925V26.8047H125.108V26.3492H126.018V26.4403ZM126.291 29.9018H125.108V30.6306H126.382V29.9018H126.291Z" fill="white"/>
<path d="M134.662 33.818H133.752V29.5367C133.024 30.9942 131.75 32.2695 130.294 33.0893L129.749 32.2695C131.022 31.6318 132.205 30.7209 132.933 29.4456H130.294V28.5347H133.57V27.1683H129.84V26.3485H133.57V25.0732H134.48V26.3485H138.119V27.1683H134.48V28.5347H137.756V29.3545H135.39C136.118 30.5387 137.21 31.4496 138.483 32.0873L137.846 32.9071C136.482 32.0873 135.39 30.9031 134.662 29.4456V33.818Z" fill="white"/>
<path d="M141.123 31.6318C141.214 31.8141 141.305 31.9964 141.305 32.1787C141.305 32.361 141.214 32.4521 141.123 32.7256C140.85 32.999 140.395 32.999 140.122 32.7256C139.849 32.4521 139.849 31.9964 140.122 31.723C140.304 31.5407 140.486 31.5407 140.668 31.5407C140.759 31.4495 140.941 31.5407 141.123 31.6318Z" fill="white"/>
<path d="M142.851 29.7189L142.578 28.808C143.397 27.6238 143.942 26.4396 144.306 25.0732L145.125 25.5287C144.943 26.2574 144.67 26.8951 144.306 27.6238V34.0002H143.488V29.2634C143.215 29.2634 143.033 29.5367 142.851 29.7189ZM148.401 25.6198V26.4396H146.763C146.763 26.804 146.672 27.1683 146.581 27.6238H148.219V28.3525C147.946 30.9942 146.945 32.725 145.398 33.727L144.943 32.9071C145.671 32.3606 146.217 31.7229 146.581 30.9031C146.308 30.5387 145.944 30.2655 145.58 30.0833C145.398 30.3566 145.216 30.6298 145.034 30.9031L144.579 30.0833C145.398 28.9902 145.762 27.7149 145.853 26.4396H145.216V25.6198H148.401ZM147.036 30.1744C147.218 29.6278 147.4 28.9901 147.491 28.4436H146.49C146.399 28.808 146.308 29.1724 146.035 29.4456C146.399 29.6278 146.763 29.9011 147.036 30.1744ZM149.493 25.893V31.7229H148.674V25.893H149.493ZM149.038 33.727L148.856 32.9071C149.129 32.9071 149.493 32.9982 149.766 32.9982C149.948 32.9982 150.039 32.9071 150.039 32.7249V32.6339V25.2554H150.949V32.8161C151.039 33.2715 150.676 33.727 150.221 33.727C150.13 33.727 150.039 33.727 150.039 33.727H149.038Z" fill="white"/>
<path d="M152.769 29.7189L152.496 28.808C153.224 27.6238 153.769 26.4396 154.042 25.0732L154.861 25.5287C154.679 26.1663 154.406 26.804 154.224 27.2594V33.818H153.405V28.8991C153.133 29.1723 152.951 29.4456 152.769 29.7189ZM155.862 31.0853H157.5V31.9051H155.862V33.6358H155.043V25.3465H157.773V28.2615H155.862V29.1724H157.5V29.9922H155.862V31.0853ZM156.863 27.4416V26.1663H155.862V27.4416H156.863ZM160.867 28.9902V29.7189C160.685 30.5387 160.412 31.2675 159.957 31.9051C160.321 32.2695 160.776 32.6338 161.321 32.9071L160.867 33.6358C160.321 33.3626 159.866 32.9982 159.411 32.6339C158.956 33.0893 158.319 33.4537 157.773 33.818L157.227 33.0893C157.773 32.816 158.319 32.4516 158.774 32.0873C158.41 31.4496 158.137 30.7209 158.046 29.9922H157.773V29.1724H160.867V28.9902ZM158.137 28.2615V27.4416H159.866V26.1663H158.137V25.3465H160.776V28.2615H158.137ZM159.411 31.2675C159.684 30.812 159.957 30.3565 160.048 29.81H158.865C158.865 30.3565 159.047 30.9031 159.411 31.2675Z" fill="white"/>
<path d="M169.601 33.7269H168.692V33.0892H164.506V33.7269H163.596V25.4375H169.601V33.7269ZM168.783 28.7168V26.3484H164.506V28.7168H168.783ZM168.783 32.1783V29.5366H164.506V32.1783H168.783Z" fill="white"/>
<path d="M173.969 26.5307V26.2574H172.331V25.6198H173.969V25.0732H174.788V25.6198H176.426V26.2574H174.788V26.5307H176.244V28.6258H174.788V28.8991H176.517V29.5367C176.789 28.9902 176.971 28.3526 176.971 27.806V25.802C177.972 25.802 178.973 25.6197 179.883 25.2554L180.338 25.9842C179.519 26.2574 178.7 26.3485 177.881 26.4396V27.1683H180.611V27.9881H179.701V30.1744H178.882V27.9881H177.881C177.972 28.808 177.699 29.6278 177.244 30.2654L176.517 29.9922C176.517 29.9011 176.607 29.9011 176.607 29.81H174.879V30.3566H174.06V29.7189H172.331V29.0813H174.06V28.4436H172.604V26.3485H174.151V26.5307H173.969ZM174.06 27.2594V26.9862H173.241V27.2594H174.06ZM174.06 27.7149H173.241V27.9881H174.06V27.7149ZM179.61 33.727H178.791V33.3626H174.242V33.6358H173.423V30.0833H179.61V33.727ZM178.7 31.4497V30.9031H174.151V31.4497H178.7ZM178.7 32.6339V32.0873H174.151V32.6339H178.7ZM174.697 27.2594H175.516V26.9862H174.697V27.2594ZM175.516 27.7149H174.697V27.9881H175.516V27.7149Z" fill="white"/>
<path d="M184.523 25.3465C184.341 25.9842 184.068 26.7129 183.795 27.3505V33.727H182.885V28.808C182.703 29.0813 182.339 29.4456 182.157 29.7189L181.884 28.808C182.794 27.7149 183.34 26.4396 183.795 25.0732L184.523 25.3465ZM190.255 30.9942H189.709V31.5407H187.708V32.9071C187.708 33.5448 187.435 33.727 186.798 33.727H185.797L185.615 32.9071H186.525C186.707 32.9071 186.798 32.816 186.798 32.6339V32.5427V31.3586H184.796V30.812H184.159V29.1724H190.164L190.255 30.9942ZM187.617 25.802H190.255V26.6218H184.432V25.802H186.707C186.616 25.6198 186.525 25.4376 186.525 25.1643L187.435 25.0732C187.435 25.3465 187.526 25.5287 187.617 25.802ZM189.527 26.9862V28.8991H184.978V26.9862H189.527ZM189.436 30.7209V29.9922H185.16V30.7209H189.436ZM188.617 27.7149H185.797V28.2615H188.617V27.7149Z" fill="white"/>
<path d="M192.44 33.7269L191.803 33.0892C192.167 32.0872 192.349 30.9941 192.349 29.9921V25.4375H195.26V32.7248C195.26 33.3625 194.987 33.6358 194.441 33.6358H193.622L193.441 32.816H194.168C194.35 32.816 194.441 32.6338 194.441 32.2694V30.6297H193.077C193.077 31.6318 192.895 32.7249 192.44 33.7269ZM194.441 26.2573H193.077V27.6237H194.441V26.2573ZM193.077 29.7188H194.441V28.3524H193.077V29.7188ZM196.716 33.7269H195.897V25.4375H199.81C199.81 26.2573 199.81 27.0772 199.628 27.8059C199.446 28.2614 199.082 28.5346 198.627 28.4435H197.808L197.626 27.7148H198.627C198.718 27.7148 198.809 27.6237 198.809 27.5326C198.9 27.1682 198.991 26.8039 198.9 26.3484H196.716V28.9901H199.81V29.7188C199.628 30.5387 199.355 31.3585 198.991 32.0872C199.355 32.4516 199.81 32.816 200.356 33.0892L199.901 33.818C199.355 33.5447 198.9 33.1803 198.536 32.816C198.172 33.2714 197.717 33.6358 197.171 33.818L196.716 33.0892V33.7269ZM196.716 32.9981C197.171 32.7248 197.626 32.3605 197.99 31.9961C197.444 31.2674 197.08 30.4476 196.807 29.6278H196.716V32.9981ZM198.445 31.2674C198.718 30.7208 198.991 30.1743 199.082 29.6278H197.626C197.808 30.2654 198.081 30.8119 198.445 31.2674Z" fill="white"/>
<path d="M203.449 27.1691C203.722 26.8958 203.995 26.5314 204.268 26.2582H201.811V25.4383H205.269V26.167C204.905 26.7136 204.45 27.2601 203.995 27.7156C204.086 27.8067 204.268 27.8978 204.45 28.1711L204.268 28.3533H205.633V29.082C205.451 29.7196 205.178 30.2662 204.814 30.7216L204.268 30.1751C204.45 29.8107 204.632 29.4464 204.814 28.9909H204.086V32.7257C204.086 33.1811 203.813 33.5455 203.358 33.5455C203.267 33.5455 203.267 33.5455 203.176 33.5455H202.357L202.175 32.8168C202.448 32.8168 202.721 32.9079 202.903 32.9079C203.085 32.9079 203.176 32.8168 203.176 32.6346V32.5435V29.3552C202.812 30.4484 202.357 31.4504 201.811 32.3613L201.538 31.5415C202.084 30.8127 202.539 29.9018 202.812 29.082H201.629V28.2622H203.54C203.085 27.8067 202.63 27.3512 202.084 26.9869L202.63 26.4403C202.903 26.7136 203.176 26.8958 203.449 27.1691ZM209.636 32.6346C209.545 33.2722 209.09 33.5455 208.271 33.5455H207.452L207.27 32.8168H208.18C208.544 32.8168 208.817 32.6346 208.908 32.2702C208.908 32.088 208.999 31.5415 208.999 30.6306H207.725C207.634 31.086 207.452 31.5415 207.27 31.9969C206.815 32.7257 206.087 33.2722 205.269 33.6366L204.723 32.9079C205.451 32.6346 205.996 32.1791 206.451 31.5415C206.633 31.2682 206.724 30.9038 206.906 30.6306H205.542V29.8107H207.088C207.088 29.5374 207.088 29.3553 207.179 29.082H207.998L207.907 29.8107H209.818C209.727 31.4504 209.636 32.3613 209.636 32.6346ZM207.27 25.165C207.179 25.3472 207.179 25.6205 207.088 25.8027H209.818V26.6225H209.181C208.999 27.169 208.726 27.6245 208.362 28.08C208.908 28.2622 209.363 28.5355 210 28.7176L209.454 29.4464C208.817 29.2642 208.271 28.9909 207.725 28.6265C207.179 28.8998 206.633 29.2642 206.087 29.4464L205.542 28.8087C205.996 28.6265 206.542 28.4443 206.997 28.1711C206.724 27.9889 206.451 27.6245 206.269 27.3513L206.906 27.0779C207.088 27.2601 207.361 27.6245 207.634 27.7156C207.907 27.4423 208.18 27.078 208.362 26.7136H206.724C206.451 27.1691 206.087 27.5334 205.724 27.8978L205.178 27.2601C205.815 26.7136 206.269 25.9849 206.542 25.165H207.27Z" fill="white"/>
<path d="M1.45205 0.933695L5.45551 0.0227747C5.91045 -0.0683174 6.36539 0.113844 6.45638 0.569305L8.3671 5.03284C8.54908 5.3972 8.4581 5.94375 8.09415 6.21702L5.72846 8.22106C7.18427 11.2271 9.64095 13.6866 12.6435 15.144L14.6453 12.7757C14.9183 12.5024 15.3732 12.3202 15.8281 12.5023L20.2865 14.4153C20.6505 14.5975 20.9235 15.0529 20.8325 15.4173L19.9226 19.4254C19.8316 19.8808 19.4676 20.1541 19.0127 20.1541C8.91304 20.1541 0.724125 11.9558 0.724125 1.84462C0.633137 1.38916 0.997105 1.02479 1.45205 0.933695Z" fill="white"/>
<path d="M38.5791 12.3206C38.7611 14.4157 38.2151 16.5109 37.0323 18.2416C35.9404 19.608 34.1207 20.4278 32.3919 20.3367C30.5722 20.5189 28.8434 19.6991 27.7516 18.3327C26.5687 16.6019 26.0228 14.5979 26.1138 12.5028V9.04129C26.1138 6.39962 26.6597 4.48669 27.7516 3.12031C28.9344 1.75393 30.6631 0.934109 32.3919 1.0252C34.2117 0.934109 35.9404 1.66286 37.0323 3.02924C38.2151 4.75998 38.7611 6.76397 38.6701 8.85909V12.3206H38.5791ZM34.9396 8.58583C35.0306 7.40163 34.7576 6.21745 34.3027 5.12434C33.9387 4.39561 33.1198 4.03126 32.3009 4.12235C31.4821 4.03126 30.7541 4.4867 30.2992 5.12434C29.8443 6.12635 29.5713 7.12839 29.6623 8.22149V12.7761C29.5713 13.9603 29.8443 15.1445 30.2992 16.2376C30.6632 16.9663 31.4821 17.4218 32.3009 17.4218C33.1198 17.5129 33.8477 17.0574 34.3027 16.4198C34.7576 15.4178 35.0306 14.2335 34.9396 13.1404V8.58583Z" fill="white"/>
<path d="M54.3195 6.30878C54.4105 7.12861 54.1375 8.03956 53.5916 8.6772C53.1366 9.31485 52.4997 9.95248 51.6808 10.3168C52.5907 10.6812 53.3186 11.3188 53.8645 12.0476C54.4105 12.8674 54.6834 13.7783 54.6834 14.7803C54.7744 16.3289 54.1375 17.7864 53.0456 18.6973C50.225 20.6103 46.4945 20.6103 43.6739 18.6973C42.4911 17.6953 41.9451 16.2378 42.0361 14.7803C42.0361 13.7783 42.3091 12.8674 42.855 12.0476C43.4009 11.3188 44.1289 10.6812 45.0387 10.3168C44.2198 9.95248 43.5829 9.40594 43.128 8.6772C42.673 7.94847 42.4001 7.12861 42.4001 6.30878C42.3091 4.85131 42.946 3.48491 43.9469 2.4829C45.1297 1.48089 46.6765 0.934361 48.3143 1.02545C49.8611 0.934361 51.4079 1.48089 52.6817 2.4829C53.8645 3.48491 54.4105 4.85131 54.3195 6.30878ZM51.0439 14.6893C51.1349 13.9605 50.8619 13.2318 50.316 12.6852C49.8611 12.2298 49.1332 11.9565 48.4053 11.9565C47.6774 11.8654 47.0404 12.1387 46.4945 12.6852C46.0396 13.2318 45.7666 13.9605 45.7666 14.6893C45.6756 15.418 45.9486 16.1467 46.4945 16.6933C47.0404 17.2398 47.7684 17.5131 48.4963 17.422C49.2242 17.5131 49.8611 17.2398 50.407 16.6933C50.8619 16.1467 51.0439 15.418 51.0439 14.6893ZM50.771 6.49097C50.771 5.85333 50.589 5.21566 50.134 4.7602C49.2241 3.94037 47.7684 3.94037 46.8585 4.7602C46.0396 5.76222 46.0396 7.21971 46.8585 8.31281C47.3134 8.76827 47.8593 9.04154 48.4963 9.04154C49.1332 9.13263 49.7701 8.85937 50.134 8.31281C50.498 7.76626 50.771 7.12862 50.771 6.49097Z" fill="white"/>
<path d="M70.9712 12.3206C71.1532 14.4157 70.6073 16.5109 69.4244 18.2416C68.3326 19.608 66.5128 20.4278 64.784 20.3367C62.9643 20.5189 61.2355 19.6991 60.1436 18.3327C58.9608 16.6019 58.4149 14.5979 58.5058 12.5028V9.04129C58.5058 6.39962 59.0518 4.48669 60.1436 3.12031C61.3265 1.75393 63.0552 0.934109 64.784 1.0252C66.6038 0.934109 68.3326 1.66286 69.4244 3.02924C70.6073 4.75998 71.1532 6.76397 71.0622 8.85909V12.3206H70.9712ZM67.2407 8.58583C67.3317 7.40163 67.0587 6.21745 66.6038 5.12434C66.2398 4.39561 65.4209 4.03126 64.6021 4.12235C63.7832 4.03126 63.0552 4.4867 62.6003 5.12434C62.1454 6.12635 61.8724 7.12839 61.9634 8.22149V12.7761C61.8724 13.9603 62.1454 15.1445 62.6003 16.2376C62.9643 16.9663 63.7832 17.4218 64.6021 17.4218C65.4209 17.5129 66.1488 17.0574 66.6038 16.4198C67.0587 15.4178 67.3317 14.2335 67.2407 13.1404V8.58583Z" fill="white"/>
<path d="M87.1665 12.3206C87.3485 14.4157 86.8026 16.5109 85.6197 18.2416C84.5279 19.608 82.7081 20.4278 80.9793 20.3367C79.1596 20.5189 77.4308 19.6991 76.339 18.3327C75.1561 16.6019 74.6102 14.5979 74.7012 12.5028V9.04129C74.7012 6.39962 75.2471 4.48669 76.339 3.12031C77.5218 1.75393 79.2506 0.934109 80.9793 1.0252C82.7991 0.934109 84.5279 1.66286 85.6197 3.02924C86.8026 4.75998 87.3485 6.76397 87.2575 8.85909V12.3206H87.1665ZM83.436 8.58583C83.527 7.40163 83.254 6.21745 82.7991 5.12434C82.4352 4.39561 81.6162 4.03126 80.7974 4.12235C79.9785 4.03126 79.2506 4.4867 78.7956 5.12434C78.3407 6.12635 78.0677 7.12839 78.1587 8.22149V12.7761C78.0677 13.9603 78.3407 15.1445 78.7956 16.2376C79.1596 16.9663 79.9785 17.4218 80.7974 17.4218C81.6162 17.5129 82.3442 17.0574 82.7991 16.4198C83.254 15.4178 83.527 14.2335 83.436 13.1404V8.58583Z" fill="white"/>
<path d="M98.176 13.505H90.897V10.499H98.176V13.505Z" fill="white"/>
<path d="M114.19 6.30878C114.281 7.12861 114.008 8.03956 113.462 8.6772C113.007 9.40594 112.37 9.95248 111.551 10.3168C112.461 10.6812 113.189 11.3188 113.735 12.0476C114.281 12.8674 114.554 13.7783 114.554 14.7803C114.645 16.3289 114.008 17.7864 112.916 18.6973C110.096 20.6103 106.365 20.6103 103.544 18.6973C102.362 17.6953 101.816 16.2378 101.907 14.7803C101.907 13.7783 102.18 12.8674 102.726 12.0476C103.272 11.3188 103.999 10.6812 104.909 10.3168C104.09 9.95248 103.453 9.40594 102.999 8.6772C102.544 7.94847 102.271 7.12861 102.271 6.30878C102.18 4.85131 102.817 3.48491 103.817 2.4829C105 1.48089 106.547 0.934361 108.185 1.02545C109.732 0.934361 111.278 1.48089 112.552 2.4829C113.735 3.48491 114.281 4.85131 114.19 6.30878ZM110.915 14.6893C111.006 13.9605 110.733 13.2318 110.187 12.6852C109.732 12.2298 109.004 11.9565 108.276 11.9565C107.548 11.8654 106.911 12.1387 106.365 12.6852C105.91 13.2318 105.637 13.9605 105.637 14.6893C105.546 15.418 105.819 16.1467 106.365 16.6933C106.911 17.2398 107.639 17.5131 108.367 17.422C109.095 17.5131 109.732 17.2398 110.278 16.6933C110.642 16.0556 110.915 15.418 110.915 14.6893ZM110.46 6.49097C110.46 5.85333 110.278 5.21566 109.823 4.7602C108.913 3.94037 107.457 3.94037 106.547 4.7602C105.728 5.76222 105.728 7.21971 106.547 8.31281C107.002 8.76827 107.548 9.04154 108.185 9.04154C108.822 9.13263 109.459 8.85937 109.823 8.31281C110.278 7.76626 110.551 7.12862 110.46 6.49097Z" fill="white"/>
<path d="M130.295 6.30878C130.386 7.12861 130.113 8.03956 129.567 8.6772C129.112 9.40594 128.475 9.95248 127.656 10.3168C128.566 10.6812 129.294 11.3188 129.84 12.0476C130.386 12.8674 130.659 13.7783 130.659 14.7803C130.75 16.3289 130.113 17.7864 129.021 18.6973C126.201 20.6103 122.47 20.6103 119.65 18.6973C118.467 17.6953 117.921 16.2378 118.012 14.7803C118.012 13.7783 118.285 12.8674 118.831 12.0476C119.377 11.3188 120.104 10.6812 121.014 10.3168C120.195 9.95248 119.559 9.40594 119.104 8.6772C118.649 7.94847 118.376 7.12861 118.376 6.30878C118.285 4.85131 118.922 3.48491 119.922 2.4829C121.105 1.48089 122.652 0.934361 124.29 1.02545C125.837 0.934361 127.383 1.48089 128.657 2.4829C129.749 3.48491 130.386 4.85131 130.295 6.30878ZM127.02 14.6893C127.111 13.9605 126.838 13.2318 126.292 12.6852C125.837 12.2298 125.109 11.9565 124.381 11.9565C123.653 11.8654 123.016 12.1387 122.47 12.6852C121.469 13.7783 121.469 15.5091 122.47 16.6022C123.016 17.1487 123.744 17.422 124.472 17.3309C125.2 17.422 125.837 17.1487 126.383 16.6022C126.838 16.1467 127.02 15.418 127.02 14.6893ZM126.656 6.49097C126.656 5.85333 126.474 5.21566 126.019 4.7602C125.109 3.94037 123.653 3.94037 122.743 4.7602C121.924 5.76222 121.924 7.21971 122.743 8.31281C123.198 8.76827 123.744 9.04154 124.381 9.04154C125.018 9.13263 125.655 8.85937 126.019 8.31281C126.474 7.76626 126.747 7.12862 126.656 6.49097Z" fill="white"/>
<path d="M134.844 10.8635L135.845 1.29883H146.309V4.39598H138.848L138.393 8.404C139.212 7.94853 140.213 7.67527 141.214 7.67527C142.76 7.58418 144.307 8.13072 145.399 9.31492C146.491 10.5902 147.037 12.321 146.946 13.9606C146.946 15.0537 146.764 16.1469 146.218 17.1489C145.672 18.0598 144.944 18.7885 144.034 19.335C143.033 19.8816 141.85 20.1549 140.759 20.1549C139.667 20.1549 138.575 19.9727 137.665 19.4262C136.755 18.9707 135.936 18.333 135.39 17.4221C134.844 16.6023 134.571 15.6003 134.48 14.5983H138.12C138.12 15.327 138.484 15.9647 138.939 16.5112C139.485 16.9667 140.122 17.1489 140.85 17.1489C141.578 17.1489 142.305 16.7845 142.851 16.2379C143.306 15.5092 143.579 14.5983 143.579 13.5963C143.579 12.6853 143.306 11.7744 142.76 11.1368C142.214 10.5902 141.396 10.317 140.577 10.317C139.758 10.2259 139.03 10.4991 138.393 11.0457L138.12 11.319L134.844 10.8635Z" fill="white"/>
<path d="M157.955 13.505H150.676V10.499H157.955V13.505Z" fill="white"/>
<path d="M174.606 20.0639H161.777V17.4222L167.782 10.9547C168.51 10.2259 169.147 9.40607 169.693 8.58624C170.057 8.03969 170.33 7.31094 170.33 6.5822C170.33 5.85347 170.148 5.21587 169.693 4.57822C169.238 4.03167 168.601 3.75835 167.964 3.84944C167.236 3.84944 166.508 4.12274 165.962 4.66929C165.416 5.30694 165.143 6.12677 165.234 6.94659H161.504C161.504 5.85349 161.777 4.76036 162.323 3.84944C162.869 2.93852 163.688 2.20982 164.597 1.66327C165.689 1.11672 166.872 0.843418 168.055 0.843418C169.693 0.752326 171.24 1.20779 172.513 2.2098C173.605 3.21181 174.151 4.66927 174.06 6.12674C174.06 7.12876 173.787 8.03971 173.332 8.95063C172.604 10.1348 171.786 11.2279 170.876 12.2299L166.599 16.6935H174.697L174.606 20.0639Z" fill="white"/>
<path d="M190.802 20.0639H177.973V17.4222L183.978 10.9547C184.706 10.2259 185.343 9.40607 185.889 8.58624C186.253 8.03969 186.526 7.31094 186.526 6.5822C186.526 5.85347 186.344 5.21587 185.889 4.57822C185.434 4.03167 184.797 3.75835 184.16 3.84944C183.432 3.84944 182.704 4.12274 182.158 4.66929C181.612 5.30694 181.339 6.12677 181.43 6.94659H177.7C177.7 5.85349 177.973 4.76036 178.519 3.84944C179.065 2.93852 179.883 2.20982 180.793 1.66327C181.885 1.11672 183.068 0.843418 184.251 0.843418C185.889 0.752326 187.435 1.20779 188.709 2.2098C189.801 3.21181 190.347 4.66927 190.256 6.12674C190.256 7.12876 189.983 8.03971 189.528 8.95063C188.8 10.1348 187.981 11.2279 187.071 12.2299L182.795 16.6935H190.893L190.802 20.0639Z" fill="white"/>
<path d="M207.725 20.0639H194.896V17.4222L200.901 10.9547C201.629 10.2259 202.266 9.40607 202.812 8.58624C203.176 8.03969 203.449 7.31094 203.449 6.5822C203.449 5.85347 203.267 5.21587 202.812 4.57822C202.357 4.03167 201.72 3.75835 201.083 3.84944C200.355 3.84944 199.628 4.12274 199.082 4.66929C198.536 5.30694 198.263 6.12677 198.354 6.94659H194.532C194.532 5.85349 194.805 4.76036 195.351 3.84944C195.897 2.93852 196.716 2.20982 197.626 1.66327C198.718 1.11672 199.901 0.843418 201.083 0.843418C202.721 0.752326 204.268 1.20779 205.542 2.2098C206.634 3.21181 207.18 4.66927 207.089 6.12674C207.089 7.12876 206.816 8.03971 206.361 8.95063C205.633 10.1348 204.814 11.2279 203.904 12.2299L199.628 16.6935H207.725V20.0639Z" fill="white"/>
</svg>
