<svg width="28" height="28" viewBox="0 0 28 28" fill="none" xmlns="http://www.w3.org/2000/svg">
<path fill-rule="evenodd" clip-rule="evenodd" d="M14.0005 2C7.37251 2 2.00049 7.36968 2.00049 13.9923C2.00049 20.6149 7.37251 25.9845 14.0005 25.9845C20.6285 25.9845 26.0005 20.6149 26.0005 13.9923C26.0005 7.36968 20.6285 2 14.0005 2ZM0.000488281 13.9923C0.000488281 6.26399 6.26906 0 14.0005 0C21.7319 0 28.0005 6.26399 28.0005 13.9923C28.0005 21.7205 21.7319 27.9845 14.0005 27.9845C6.26906 27.9845 0.000488281 21.7205 0.000488281 13.9923Z" fill="white"/>
<path fill-rule="evenodd" clip-rule="evenodd" d="M14.2138 8.93555C16.1138 8.93555 18.1138 9.03549 20.0138 9.23537C20.5138 9.43525 20.9138 9.83501 21.1138 10.3347C21.3138 11.534 21.4138 12.8332 21.4138 14.0325C21.4138 15.2318 21.3138 16.4311 21.1138 17.6304C21.0138 18.1301 20.6138 18.5298 20.0138 18.7297C18.1138 18.9296 16.2138 19.0295 14.2138 19.0295C12.1138 19.0295 10.0138 18.9296 7.91377 18.7297C7.41377 18.6298 7.01377 18.23 6.81377 17.7303C6.71377 16.4311 6.61377 15.2318 6.61377 14.0325C6.61377 12.8332 6.71377 11.534 6.91377 10.3347C7.11377 9.83501 7.51377 9.33531 8.01377 9.23537C8.91377 9.03549 9.71377 9.03549 10.6138 9.03549H11.2138C12.3138 9.03549 13.3138 9.03549 13.8138 9.03549H14.2138V8.93555Z" fill="white"/>
<path d="M12.4136 16.3312L16.5136 14.0326L12.4136 11.634V16.3312Z" fill="#00E0B8"/>
</svg>
