<svg width="268" height="92" viewBox="0 0 268 92" fill="none" xmlns="http://www.w3.org/2000/svg">
<path d="M243 14H66V34H243V14Z" fill="#00E0B8"/>
<path d="M50.5328 81.4672V33.5328H266.467V81.4672H50.5328Z" fill="white" stroke="#00E0B8" stroke-width="1.06567"/>
<path d="M267.368 33.25H253V81.5427H267.368V33.25Z" fill="#00E0B8"/>
<path d="M46.3032 83.2103C66.9789 83.2103 83.7399 66.5657 83.7399 46.0336C83.7399 25.5015 66.9789 8.85693 46.3032 8.85693C25.6274 8.85693 8.86642 25.5015 8.86642 46.0336C8.86642 66.5657 25.6274 83.2103 46.3032 83.2103Z" fill="white"/>
<path d="M46.285 44.8188C46.5798 44.8161 46.8655 44.9203 47.0884 45.1118C47.3114 45.3034 47.4564 45.5691 47.4962 45.8592H53.6004C53.5376 43.9677 52.7346 42.175 51.362 40.8621C49.9894 39.5492 48.1554 38.8196 46.2496 38.8282C44.3439 38.8368 42.5166 39.583 41.1561 40.9083C39.7956 42.2335 39.009 44.0333 38.9636 45.9253H45.0678C45.0923 45.6222 45.2314 45.3396 45.4573 45.1343C45.6831 44.929 45.9789 44.8163 46.285 44.8188Z" fill="url(#paint0_linear_522_1198)"/>
<path d="M46.285 47.2602C45.9911 47.263 45.7062 47.1597 45.4834 46.9694C45.2606 46.7791 45.115 46.5148 45.0739 46.2258H38.9697C39.0324 48.1173 39.8355 49.91 41.2081 51.2228C42.5807 52.5357 44.4147 53.2654 46.3204 53.2568C48.2262 53.2482 50.0534 52.502 51.414 51.1767C52.7745 49.8515 53.561 48.0517 53.6065 46.1597L47.5083 46.1897C47.4752 46.4874 47.3314 46.762 47.1052 46.96C46.879 47.1579 46.5865 47.265 46.285 47.2602Z" fill="url(#paint1_linear_522_1198)"/>
<path d="M46.176 19.868C40.9633 19.8918 35.8749 21.4502 31.5541 24.346C27.2334 27.2418 23.8745 31.345 21.9021 36.1366C19.9297 40.9282 19.4326 46.1931 20.4735 51.2653C21.5144 56.3376 24.0466 60.9894 27.7498 64.6324C31.4531 68.2754 36.161 70.7461 41.2783 71.7319C46.3956 72.7178 51.6924 72.1744 56.4988 70.1707C61.3051 68.167 65.4052 64.7929 68.2804 60.4751C71.1556 56.1573 72.6769 51.0897 72.6518 45.9133C72.6359 42.4767 71.9385 39.0768 70.5993 35.9079C69.2601 32.739 67.3053 29.8631 64.8467 27.4444C62.3882 25.0258 59.4739 23.1119 56.2703 21.8119C53.0667 20.5119 49.6366 19.8514 46.176 19.868ZM29.8254 62.0601C29.6498 61.8917 29.3773 61.6572 29.0624 61.3264C28.1536 60.3978 27.3289 59.3917 26.5977 58.3196C25.5073 56.7188 24.6395 54.9791 24.0179 53.1478C22.4499 48.6127 22.4265 43.6915 23.9513 39.1419C24.5562 37.3019 25.4098 35.552 26.4887 33.94C27.2046 32.8683 28.0152 31.862 28.911 30.9332C29.2198 30.6024 29.5166 30.3679 29.6619 30.1935L29.9284 29.9409L29.6861 30.2236C29.5347 30.41 29.2925 30.6626 29.0079 31.0234C28.2057 32.0239 27.481 33.0834 26.8399 34.1926C25.8958 35.8252 25.1555 37.5659 24.6356 39.3764C23.3393 43.8121 23.3603 48.5252 24.6962 52.9493C25.2365 54.7573 25.995 56.4938 26.955 58.1211C27.6051 59.2241 28.3401 60.2756 29.1532 61.2663C29.4378 61.6211 29.6801 61.8676 29.8375 62.0601L30.0797 62.3367L29.8254 62.0601ZM31.3333 59.3118L30.8609 58.8427C30.6853 58.6804 30.5339 58.4579 30.3462 58.2414L29.7406 57.5318L29.4318 57.1469L29.1411 56.7079C28.6893 56.066 28.2846 55.3928 27.93 54.6933C27.7483 54.3144 27.5182 53.9356 27.3607 53.4906L26.9065 52.2217C25.5142 48.2725 25.4844 43.9757 26.8217 40.0078C26.9852 39.5628 27.1488 39.1298 27.3062 38.7089C27.4637 38.2879 27.6877 37.903 27.8694 37.5061C28.2204 36.8009 28.6253 36.1234 29.0805 35.4795C29.1774 35.3292 29.2683 35.1788 29.3652 35.0405L29.674 34.6436L30.2433 33.934C30.4006 33.7254 30.5683 33.5246 30.7459 33.3326L31.2182 32.8576L32.0903 31.9916C32.0903 31.9916 31.8178 32.3344 31.3151 32.9478L30.9033 33.4589C30.7459 33.6393 30.6187 33.8679 30.4552 34.1024L29.9344 34.8782L29.668 35.2871L29.4257 35.7381C29.0399 36.3978 28.6999 37.083 28.4084 37.7888C28.257 38.1677 28.0632 38.5465 27.93 38.9615L27.5121 40.2424C26.3873 44.0844 26.4062 48.1676 27.5666 51.9992L27.9845 53.2741C28.1237 53.695 28.3236 54.0679 28.475 54.4467C28.7711 55.1498 29.1171 55.831 29.5105 56.4854L29.7588 56.9364L30.0313 57.3393L30.5339 58.079C30.6974 58.3075 30.8246 58.536 30.9821 58.7164L31.406 59.2216L32.1872 60.1778L31.3333 59.3118ZM33.5679 57.3153L33.1621 56.9244C33.0107 56.78 32.8836 56.5996 32.7261 56.4192L32.2295 55.8179L31.9631 55.4931L31.7148 55.1203C31.3302 54.5766 30.9861 54.0058 30.6853 53.4124C30.5279 53.0876 30.328 52.7689 30.1887 52.4081C30.0495 52.0473 29.9102 51.6804 29.7588 51.3076C29.1865 49.6352 28.8821 47.8839 28.8565 46.1178C28.8698 44.3505 29.1578 42.5959 29.7103 40.9159L30.1342 39.8094C30.2675 39.4486 30.4613 39.1298 30.6127 38.8051C30.9105 38.2087 31.2505 37.634 31.63 37.0852L31.8723 36.7123L32.1387 36.3816C32.3083 36.1651 32.4718 35.9666 32.6292 35.7802C32.7658 35.6026 32.9113 35.432 33.0652 35.269L33.4649 34.8721L34.2158 34.1385L33.5679 34.9623L33.2166 35.3953C33.0834 35.5517 32.9805 35.7501 32.8472 35.9426C32.714 36.135 32.5747 36.3515 32.4294 36.58L32.1993 36.9228L31.9994 37.3077C31.6775 37.8693 31.3942 38.452 31.1516 39.0517C31.0244 39.3764 30.8609 39.6951 30.7519 40.0439C30.6429 40.3927 30.5218 40.7596 30.4068 41.1324C29.47 44.3871 29.4868 47.8395 30.4552 51.0851C30.5763 51.4519 30.6914 51.8127 30.8064 52.1675C30.9215 52.5223 31.085 52.8351 31.2182 53.1598C31.4672 53.7548 31.7544 54.3333 32.0781 54.8917L32.2901 55.2766L32.5142 55.6194L32.9623 56.2448C33.1016 56.4373 33.2106 56.6357 33.3438 56.7921L33.695 57.219L34.3248 58.0489L33.5679 57.3153ZM35.8267 55.3187C35.5701 55.0944 35.333 54.849 35.1181 54.585L34.7064 54.0979L34.4762 53.8393L34.2703 53.5326C33.9441 53.0895 33.6545 52.621 33.4044 52.1315C33.2711 51.8608 33.1076 51.5962 32.9926 51.3076L32.6353 50.3935C32.1513 49.0141 31.8936 47.5664 31.8723 46.1057C31.8839 44.6458 32.1271 43.1967 32.5929 41.812L32.9441 40.8979C33.0592 40.6032 33.2166 40.3386 33.3499 40.074C33.5964 39.5825 33.8798 39.1101 34.1977 38.6608L34.4036 38.3541L34.6216 38.0835L35.0334 37.5903C35.2461 37.3265 35.4789 37.0792 35.7298 36.8507L36.3354 36.2493L35.8085 36.9349C35.5846 37.1907 35.3821 37.4642 35.2029 37.7527L34.8638 38.2759L34.6821 38.5585L34.5186 38.8773C34.2585 39.3407 34.0299 39.8208 33.8343 40.3145C33.7314 40.5792 33.5981 40.8437 33.5134 41.1324C33.4286 41.4211 33.3317 41.7338 33.2409 42.0224C32.4938 44.6876 32.5063 47.5065 33.2772 50.165L33.5618 51.055C33.6526 51.3437 33.7859 51.6083 33.8888 51.8729C34.0907 52.362 34.3233 52.838 34.5852 53.2981L34.7548 53.6168L34.9365 53.8995L35.2817 54.4227C35.4626 54.7062 35.6651 54.9755 35.8872 55.2285C36.2264 55.6675 36.4201 55.9081 36.4201 55.9081L35.8267 55.3187ZM38.0794 53.3222C37.8747 53.1492 37.6844 52.9602 37.5102 52.7569L37.1771 52.378L37.0015 52.1675L36.8319 51.933C36.5717 51.5844 36.3389 51.2165 36.1355 50.8325C36.0125 50.6244 35.9013 50.4095 35.8024 50.189L35.5118 49.4734C35.1262 48.3849 34.9217 47.2414 34.9062 46.0877C34.9254 44.9323 35.1298 43.7874 35.5118 42.696L35.7964 41.9803C35.8933 41.7458 36.0205 41.5353 36.1234 41.3309C36.3238 40.9458 36.5525 40.576 36.8077 40.2243L36.9712 39.9838L37.1529 39.7733L37.4799 39.3945C37.6474 39.1781 37.8338 38.9768 38.037 38.7931L38.5397 38.336L38.14 38.8773C37.9799 39.0849 37.8323 39.3018 37.6979 39.5268L37.4375 39.9417L37.2982 40.1702L37.1771 40.4168C36.9797 40.7815 36.8077 41.1593 36.6624 41.5473C36.5836 41.7518 36.4807 41.9623 36.4141 42.1848L36.2082 42.8824C35.639 44.9574 35.639 47.1458 36.2082 49.2208L36.4201 49.9124C36.4928 50.1409 36.5957 50.3454 36.6745 50.5559C36.8223 50.941 36.9984 51.3149 37.2013 51.6744L37.3285 51.927L37.4678 52.1495L37.7282 52.5644C37.859 52.7993 38.0067 53.0243 38.1702 53.238L38.576 53.7792L38.0794 53.3222ZM47.2115 54.3686C45.4781 54.554 43.7295 54.202 42.2057 53.3609C40.6819 52.5198 39.4577 51.2307 38.7013 49.6709C37.9449 48.111 37.6933 46.3569 37.9812 44.6494C38.2691 42.9418 39.0823 41.3647 40.3091 40.1346C41.5359 38.9045 43.1162 38.0818 44.8328 37.7794C46.5494 37.4771 48.3182 37.71 49.8961 38.446C51.4741 39.1821 52.7839 40.3853 53.6456 41.8903C54.5073 43.3954 54.8786 45.1284 54.7085 46.8514C54.5125 48.7677 53.6607 50.5592 52.2952 51.9272C50.9298 53.2952 49.1333 54.1569 47.2055 54.3686H47.2115ZM55.6896 52.0833L55.514 52.2938L55.187 52.6787C55.013 52.882 54.8248 53.0729 54.6238 53.25L54.1211 53.707L54.5208 53.1598C54.6865 52.9549 54.8363 52.7377 54.9689 52.5103L55.2233 52.0954L55.3626 51.8729L55.4897 51.6203C55.6836 51.2559 55.8554 50.8804 56.0045 50.4957C56.0832 50.2853 56.1801 50.0808 56.2467 49.8523C56.3133 49.6237 56.386 49.3952 56.4526 49.1547C56.7223 48.1193 56.8627 47.0549 56.8705 45.9855C56.8501 44.915 56.6996 43.8509 56.4223 42.8162L56.2104 42.1247C56.1438 41.8961 56.0408 41.6917 55.9621 41.4872C55.8092 41.1023 55.6333 40.7267 55.4352 40.3626L55.3081 40.1161C55.2596 40.0379 55.2112 39.9657 55.1688 39.8876C55.1264 39.8094 54.9871 39.6049 54.9084 39.4786C54.7734 39.2532 54.6216 39.0381 54.4542 38.8352L54.0485 38.2939L54.5572 38.745C54.7612 38.9166 54.9497 39.1058 55.1203 39.3103L55.4534 39.6891L55.6351 39.8996L55.7986 40.1341C56.0588 40.4827 56.2916 40.8506 56.495 41.2346C56.5979 41.4391 56.7312 41.6496 56.8281 41.8781C56.925 42.1066 57.0158 42.3532 57.1187 42.5997C57.924 44.7843 57.9347 47.1796 57.149 49.3712L56.8644 50.0928C56.7736 50.3213 56.6464 50.5318 56.5374 50.7423C56.3401 51.1272 56.1113 51.4953 55.8531 51.8428L55.6896 52.0833ZM58.0029 53.9897L57.5971 54.4828C57.3842 54.7484 57.1492 54.9958 56.8947 55.2225L56.2891 55.8239L56.816 55.1383C57.0365 54.882 57.2389 54.6107 57.4215 54.3265L57.7546 53.7972L57.9423 53.5146C57.9908 53.4124 58.0453 53.3041 58.1058 53.1959C58.3615 52.7332 58.588 52.2552 58.7841 51.7646C58.887 51.494 59.0203 51.2354 59.105 50.9407L59.3836 50.0507C60.1329 47.3855 60.1182 44.5655 59.3412 41.9082L59.0626 41.0181C58.9718 40.7295 58.8386 40.4709 58.7296 40.2063C58.5314 39.7136 58.2987 39.2354 58.0332 38.775L57.8697 38.4623L57.6819 38.1737L57.3428 37.6565C57.1624 37.3707 56.9599 37.0993 56.7372 36.8446L56.2104 36.1651L56.816 36.7665C57.0711 36.9922 57.308 37.2375 57.5245 37.5001L57.9363 37.9873L58.1603 38.2579L58.3662 38.5585C58.6882 39.0054 58.9757 39.4758 59.2261 39.9657C59.3594 40.2303 59.5229 40.4949 59.6379 40.7896C59.753 41.0843 59.8802 41.391 60.0013 41.6977C60.9959 44.4705 61.0109 47.4969 60.0437 50.2792C59.9226 50.5919 59.8014 50.8806 59.6924 51.1933C59.5834 51.506 59.4139 51.7526 59.2867 52.0232C59.0382 52.513 58.7528 52.9834 58.4328 53.4304C58.3682 53.5387 58.3016 53.6409 58.233 53.7371L58.0029 53.9897ZM60.0073 56.2869C59.8723 56.4657 59.7267 56.6364 59.5713 56.7981L59.1716 57.195L58.3965 57.9286L59.0505 57.1108L59.3957 56.6718C59.532 56.4972 59.6574 56.3144 59.7712 56.1245C59.8963 55.9281 60.0356 55.7176 60.189 55.4931L60.4131 55.1443L60.619 54.7594C60.9386 54.1986 61.2217 53.6181 61.4668 53.0215C61.594 52.6968 61.7575 52.378 61.8665 52.0232L62.2056 50.9347C62.6539 49.3121 62.886 47.638 62.8959 45.9554C62.8694 44.2731 62.6231 42.6014 62.1632 40.9821L61.8059 39.9056C61.6969 39.5508 61.5273 39.2321 61.4002 38.9073C61.1493 38.3121 60.8601 37.7336 60.5342 37.1754L60.3283 36.7905L60.0982 36.4477L59.6743 35.8163C59.5592 35.6292 59.4338 35.4485 59.2988 35.2751L58.9476 34.8421L58.2875 34.0242L59.0445 34.7519L59.4502 35.1488C59.6063 35.3095 59.7538 35.4781 59.8923 35.6539L60.3828 36.2553L60.6553 36.5861C60.734 36.7063 60.8188 36.8266 60.8975 36.9529C61.2855 37.4976 61.6316 38.0705 61.9331 38.6668C62.0905 38.9855 62.2843 39.3103 62.4236 39.6651L62.8536 40.7716C64.0479 44.1291 64.065 47.7889 62.902 51.1572C62.7627 51.5361 62.6174 51.909 62.4841 52.2638C62.3509 52.6186 62.1571 52.9493 61.9997 53.2741C61.705 53.8722 61.3649 54.4472 60.9823 54.994L60.7401 55.3668L60.4797 55.6976L60.0073 56.2869ZM61.9089 58.6924L61.4426 59.1615L60.5645 60.0334L61.3396 59.0713L61.7575 58.5661C61.9149 58.3797 62.0421 58.1512 62.1995 57.9226L62.6961 57.1769L62.9686 56.774L63.2108 56.317C63.5922 55.6579 63.9301 54.9749 64.2222 54.2723C64.3735 53.8875 64.5734 53.5086 64.7006 53.0696L65.1124 51.7887C66.2218 47.9568 66.2029 43.8895 65.0578 40.068L64.6339 38.7931C64.5007 38.3781 64.3009 37.9993 64.1434 37.5903C63.8443 36.8897 63.5004 36.2088 63.1139 35.5517C63.0292 35.4014 62.9444 35.251 62.8657 35.1007C62.7869 34.9503 62.6779 34.8301 62.5932 34.6978L62.0845 33.9581C61.9466 33.7378 61.797 33.5251 61.6363 33.3206L61.2185 32.8155C60.7159 32.2141 60.4312 31.8653 60.4312 31.8653L61.3154 32.7253L61.7877 33.1943C61.9711 33.3845 62.143 33.5853 62.3025 33.7957C62.4841 34.0122 62.6779 34.2467 62.9081 34.4993L63.223 34.8842L63.5076 35.3232C63.9602 35.9645 64.365 36.6378 64.7187 37.3378C64.9065 37.7226 65.1305 38.1015 65.294 38.5405C65.4575 38.9795 65.621 39.4005 65.7906 39.8395C67.1746 43.7852 67.1959 48.0762 65.8512 52.0352L65.3606 53.3402C65.2032 53.7612 64.9791 54.14 64.8035 54.543C64.4572 55.2446 64.0626 55.9218 63.6226 56.5696L63.338 57.0086L63.0292 57.3995L62.4599 58.1091C62.2116 58.3135 62.0602 58.53 61.8846 58.7044L61.9089 58.6924ZM66.1479 58.1211C65.4331 59.1936 64.6224 60.2 63.7256 61.1279C63.4107 61.4647 63.12 61.6993 62.9747 61.8676L62.7082 62.1202L62.9444 61.8436C63.1018 61.6572 63.3441 61.3986 63.6226 61.0377C64.4291 60.0424 65.154 58.9846 65.7906 57.8745C66.7358 56.2396 67.478 54.497 68.001 52.6847C69.2995 48.249 69.2764 43.5347 67.9343 39.1118C67.3851 37.3223 66.6227 35.6042 65.6634 33.9941C65.0145 32.8884 64.2795 31.8348 63.4652 30.843C63.1806 30.4882 62.9323 30.2416 62.7809 30.0492L62.5387 29.7725L62.8051 30.0251C62.9747 30.1935 63.2472 30.422 63.5621 30.7588C65.8376 33.0777 67.563 35.8719 68.6126 38.9374C70.1721 43.4739 70.1955 48.3924 68.6792 52.9433C68.072 54.7786 67.2185 56.5242 66.1418 58.1331L66.1479 58.1211Z" fill="url(#paint2_linear_522_1198)"/>
<mask id="path-8-outside-1_522_1198" maskUnits="userSpaceOnUse" x="0" y="0" width="93" height="92" fill="black">
<rect fill="white" width="93" height="92"/>
<path d="M87.6519 40.0078C86.7422 39.6478 85.9291 39.0829 85.2768 38.3575C84.6245 37.6322 84.1508 36.7663 83.893 35.8281C83.6353 34.8899 83.6005 33.905 83.7915 32.9512C83.9824 31.9974 84.3939 31.1007 84.9935 30.3318C85.7645 29.3422 86.2201 28.1465 86.3021 26.898C86.384 25.6495 86.0884 24.4052 85.4533 23.3247C84.8181 22.2442 83.8724 21.3767 82.7374 20.8337C81.6023 20.2906 80.3298 20.0967 79.083 20.2769C78.1143 20.4185 77.1257 20.3342 76.1954 20.0309C75.2651 19.7275 74.4187 19.2133 73.7231 18.5289C73.0275 17.8446 72.5018 17.0089 72.1877 16.0879C71.8735 15.167 71.7795 14.1861 71.913 13.2228C72.0822 11.9833 71.8747 10.7218 71.3171 9.6002C70.7595 8.47858 69.8772 7.54792 68.7834 6.9276C67.6896 6.30728 66.4341 6.02556 65.178 6.11857C63.9218 6.21158 62.7223 6.67508 61.7333 7.44963C60.9651 8.05215 60.0664 8.46913 59.1082 8.66764C58.1499 8.86615 57.1583 8.84077 56.2117 8.5935C55.265 8.34623 54.3891 7.88384 53.6533 7.24282C52.9174 6.6018 52.3416 5.7997 51.9714 4.89983C51.4941 3.74194 50.6793 2.75208 49.6315 2.05724C48.5838 1.36239 47.3509 0.994252 46.091 1.00007C44.8311 1.00588 43.6017 1.3854 42.5605 2.08989C41.5193 2.79437 40.7138 3.79171 40.2474 4.95395C39.8863 5.85383 39.3202 6.65843 38.5935 7.30465C37.8668 7.95087 36.9993 8.42116 36.0589 8.67865C35.1185 8.93614 34.1309 8.97382 33.1733 8.78877C32.2158 8.60371 31.3145 8.20094 30.54 7.61201C29.5436 6.84638 28.3395 6.39385 27.0823 6.31248C25.825 6.23112 24.572 6.52464 23.4839 7.15537C22.3958 7.78611 21.5223 8.72529 20.9755 9.85243C20.4286 10.9796 20.2334 12.2433 20.4148 13.4814C20.555 14.4435 20.4683 15.4248 20.1616 16.3479C19.8548 17.2711 19.3364 18.1109 18.6471 18.8012C17.9579 19.4915 17.1166 20.0134 16.1896 20.3258C15.2627 20.6383 14.2753 20.7327 13.3053 20.6016C12.0567 20.4319 10.7855 20.637 9.65515 21.1906C8.52486 21.7441 7.58716 22.6208 6.96266 23.7079C6.33816 24.7949 6.05541 26.0427 6.15078 27.2906C6.24615 28.5385 6.71527 29.7296 7.49782 30.7106C8.1044 31.4738 8.524 32.3667 8.72348 33.3185C8.92297 34.2704 8.89687 35.2554 8.64727 36.1955C8.39766 37.1357 7.93138 38.0054 7.28523 38.7358C6.63908 39.4663 5.83077 40.0377 4.92412 40.4047C3.75837 40.8793 2.76199 41.6889 2.06282 42.7297C1.36365 43.7706 0.993577 44.9951 1.00008 46.2462C1.00659 47.4974 1.38938 48.718 2.09934 49.7516C2.8093 50.7852 3.81405 51.5846 4.98468 52.0472C5.89427 52.4065 6.70732 52.9707 7.35967 53.6955C8.01201 54.4203 8.48579 55.2857 8.7436 56.2235C9.00141 57.1613 9.0362 58.1457 8.84523 59.0991C8.65425 60.0525 8.24273 60.9488 7.64316 61.7172C6.86959 62.7056 6.41153 63.9012 6.32791 65.1502C6.24428 66.3993 6.53892 67.6446 7.17391 68.726C7.80891 69.8074 8.75521 70.6753 9.89106 71.2182C11.0269 71.761 12.3003 71.954 13.5475 71.7721C14.5168 71.6319 15.5057 71.7172 16.4361 72.0213C17.3665 72.3255 18.213 72.8401 18.9088 73.5247C19.6047 74.2093 20.1308 75.0451 20.4458 75.9662C20.7607 76.8873 20.8558 77.8684 20.7236 78.8322C20.554 80.0711 20.761 81.3321 21.3183 82.4533C21.8755 83.5746 22.7575 84.5048 23.8509 85.1247C24.9444 85.7445 26.1995 86.0257 27.455 85.9321C28.7106 85.8385 29.9093 85.3744 30.8973 84.5994C31.666 83.9969 32.5651 83.5799 33.5238 83.3814C34.4824 83.1829 35.4744 83.2083 36.4215 83.4555C37.3686 83.7028 38.2449 84.1651 38.9814 84.8061C39.7178 85.4471 40.2943 86.2492 40.6653 87.1492C41.1479 88.2945 41.9621 89.2719 43.0046 89.9574C44.047 90.6429 45.2709 91.0057 46.5212 90.9999C47.7715 90.9941 48.992 90.6199 50.028 89.9248C51.0639 89.2297 51.8689 88.2448 52.3408 87.095C52.7033 86.1916 53.2722 85.3842 54.0026 84.7364C54.733 84.0886 55.605 83.6182 56.5497 83.3622C57.4945 83.1063 58.4862 83.0717 59.4467 83.2614C60.4072 83.451 61.3102 83.8596 62.0845 84.455C63.0805 85.22 64.284 85.6722 65.5405 85.7537C66.797 85.8352 68.0494 85.5422 69.1372 84.9123C70.2249 84.2824 71.0985 83.3443 71.6459 82.2182C72.1933 81.0921 72.3897 79.8293 72.2097 78.5916C72.0674 77.6294 72.1523 76.6476 72.4578 75.7235C72.7633 74.7995 73.281 73.9587 73.97 73.2675C74.6589 72.5763 75.5003 72.0537 76.4276 71.741C77.355 71.4282 78.3428 71.3339 79.3131 71.4654C80.5612 71.6354 81.832 71.4307 82.9621 70.8779C84.0922 70.3251 85.03 69.4494 85.655 68.3632C86.28 67.277 86.5637 66.0301 86.4695 64.7825C86.3754 63.535 85.9077 62.344 85.1267 61.3624C84.52 60.5991 84.1001 59.7062 83.9002 58.7542C83.7004 57.8022 83.7259 56.8171 83.9749 55.8766C84.2238 54.9361 84.6894 54.0658 85.3349 53.3345C85.9803 52.6032 86.788 52.0307 87.6943 51.6623C88.867 51.1938 89.8711 50.3866 90.5768 49.3452C91.2825 48.3037 91.6573 47.076 91.6527 45.8208C91.6481 44.5656 91.2644 43.3405 90.5512 42.3042C89.8379 41.2679 88.828 40.4679 87.6519 40.0078ZM83.7339 45.8411C83.7685 53.1926 81.6072 60.3893 77.5231 66.521C73.4391 72.6527 67.6158 77.4441 60.7896 80.2892C53.9634 83.1344 46.4409 83.9055 39.1734 82.5051C31.9059 81.1047 25.2198 77.5956 19.9606 72.4217C14.7013 67.2478 11.1051 60.6413 9.6268 53.4378C8.14846 46.2342 8.85436 38.7571 11.6552 31.9519C14.4561 25.1468 19.2261 19.3192 25.3622 15.2062C31.4982 11.0932 38.7246 8.87939 46.1276 8.84481C56.0541 8.81122 65.5886 12.6896 72.6389 19.6289C79.6892 26.5682 83.6794 36.0017 83.7339 45.8591V45.8411Z"/>
</mask>
<path d="M87.6519 40.0078C86.7422 39.6478 85.9291 39.0829 85.2768 38.3575C84.6245 37.6322 84.1508 36.7663 83.893 35.8281C83.6353 34.8899 83.6005 33.905 83.7915 32.9512C83.9824 31.9974 84.3939 31.1007 84.9935 30.3318C85.7645 29.3422 86.2201 28.1465 86.3021 26.898C86.384 25.6495 86.0884 24.4052 85.4533 23.3247C84.8181 22.2442 83.8724 21.3767 82.7374 20.8337C81.6023 20.2906 80.3298 20.0967 79.083 20.2769C78.1143 20.4185 77.1257 20.3342 76.1954 20.0309C75.2651 19.7275 74.4187 19.2133 73.7231 18.5289C73.0275 17.8446 72.5018 17.0089 72.1877 16.0879C71.8735 15.167 71.7795 14.1861 71.913 13.2228C72.0822 11.9833 71.8747 10.7218 71.3171 9.6002C70.7595 8.47858 69.8772 7.54792 68.7834 6.9276C67.6896 6.30728 66.4341 6.02556 65.178 6.11857C63.9218 6.21158 62.7223 6.67508 61.7333 7.44963C60.9651 8.05215 60.0664 8.46913 59.1082 8.66764C58.1499 8.86615 57.1583 8.84077 56.2117 8.5935C55.265 8.34623 54.3891 7.88384 53.6533 7.24282C52.9174 6.6018 52.3416 5.7997 51.9714 4.89983C51.4941 3.74194 50.6793 2.75208 49.6315 2.05724C48.5838 1.36239 47.3509 0.994252 46.091 1.00007C44.8311 1.00588 43.6017 1.3854 42.5605 2.08989C41.5193 2.79437 40.7138 3.79171 40.2474 4.95395C39.8863 5.85383 39.3202 6.65843 38.5935 7.30465C37.8668 7.95087 36.9993 8.42116 36.0589 8.67865C35.1185 8.93614 34.1309 8.97382 33.1733 8.78877C32.2158 8.60371 31.3145 8.20094 30.54 7.61201C29.5436 6.84638 28.3395 6.39385 27.0823 6.31248C25.825 6.23112 24.572 6.52464 23.4839 7.15537C22.3958 7.78611 21.5223 8.72529 20.9755 9.85243C20.4286 10.9796 20.2334 12.2433 20.4148 13.4814C20.555 14.4435 20.4683 15.4248 20.1616 16.3479C19.8548 17.2711 19.3364 18.1109 18.6471 18.8012C17.9579 19.4915 17.1166 20.0134 16.1896 20.3258C15.2627 20.6383 14.2753 20.7327 13.3053 20.6016C12.0567 20.4319 10.7855 20.637 9.65515 21.1906C8.52486 21.7441 7.58716 22.6208 6.96266 23.7079C6.33816 24.7949 6.05541 26.0427 6.15078 27.2906C6.24615 28.5385 6.71527 29.7296 7.49782 30.7106C8.1044 31.4738 8.524 32.3667 8.72348 33.3185C8.92297 34.2704 8.89687 35.2554 8.64727 36.1955C8.39766 37.1357 7.93138 38.0054 7.28523 38.7358C6.63908 39.4663 5.83077 40.0377 4.92412 40.4047C3.75837 40.8793 2.76199 41.6889 2.06282 42.7297C1.36365 43.7706 0.993577 44.9951 1.00008 46.2462C1.00659 47.4974 1.38938 48.718 2.09934 49.7516C2.8093 50.7852 3.81405 51.5846 4.98468 52.0472C5.89427 52.4065 6.70732 52.9707 7.35967 53.6955C8.01201 54.4203 8.48579 55.2857 8.7436 56.2235C9.00141 57.1613 9.0362 58.1457 8.84523 59.0991C8.65425 60.0525 8.24273 60.9488 7.64316 61.7172C6.86959 62.7056 6.41153 63.9012 6.32791 65.1502C6.24428 66.3993 6.53892 67.6446 7.17391 68.726C7.80891 69.8074 8.75521 70.6753 9.89106 71.2182C11.0269 71.761 12.3003 71.954 13.5475 71.7721C14.5168 71.6319 15.5057 71.7172 16.4361 72.0213C17.3665 72.3255 18.213 72.8401 18.9088 73.5247C19.6047 74.2093 20.1308 75.0451 20.4458 75.9662C20.7607 76.8873 20.8558 77.8684 20.7236 78.8322C20.554 80.0711 20.761 81.3321 21.3183 82.4533C21.8755 83.5746 22.7575 84.5048 23.8509 85.1247C24.9444 85.7445 26.1995 86.0257 27.455 85.9321C28.7106 85.8385 29.9093 85.3744 30.8973 84.5994C31.666 83.9969 32.5651 83.5799 33.5238 83.3814C34.4824 83.1829 35.4744 83.2083 36.4215 83.4555C37.3686 83.7028 38.2449 84.1651 38.9814 84.8061C39.7178 85.4471 40.2943 86.2492 40.6653 87.1492C41.1479 88.2945 41.9621 89.2719 43.0046 89.9574C44.047 90.6429 45.2709 91.0057 46.5212 90.9999C47.7715 90.9941 48.992 90.6199 50.028 89.9248C51.0639 89.2297 51.8689 88.2448 52.3408 87.095C52.7033 86.1916 53.2722 85.3842 54.0026 84.7364C54.733 84.0886 55.605 83.6182 56.5497 83.3622C57.4945 83.1063 58.4862 83.0717 59.4467 83.2614C60.4072 83.451 61.3102 83.8596 62.0845 84.455C63.0805 85.22 64.284 85.6722 65.5405 85.7537C66.797 85.8352 68.0494 85.5422 69.1372 84.9123C70.2249 84.2824 71.0985 83.3443 71.6459 82.2182C72.1933 81.0921 72.3897 79.8293 72.2097 78.5916C72.0674 77.6294 72.1523 76.6476 72.4578 75.7235C72.7633 74.7995 73.281 73.9587 73.97 73.2675C74.6589 72.5763 75.5003 72.0537 76.4276 71.741C77.355 71.4282 78.3428 71.3339 79.3131 71.4654C80.5612 71.6354 81.832 71.4307 82.9621 70.8779C84.0922 70.3251 85.03 69.4494 85.655 68.3632C86.28 67.277 86.5637 66.0301 86.4695 64.7825C86.3754 63.535 85.9077 62.344 85.1267 61.3624C84.52 60.5991 84.1001 59.7062 83.9002 58.7542C83.7004 57.8022 83.7259 56.8171 83.9749 55.8766C84.2238 54.9361 84.6894 54.0658 85.3349 53.3345C85.9803 52.6032 86.788 52.0307 87.6943 51.6623C88.867 51.1938 89.8711 50.3866 90.5768 49.3452C91.2825 48.3037 91.6573 47.076 91.6527 45.8208C91.6481 44.5656 91.2644 43.3405 90.5512 42.3042C89.8379 41.2679 88.828 40.4679 87.6519 40.0078ZM83.7339 45.8411C83.7685 53.1926 81.6072 60.3893 77.5231 66.521C73.4391 72.6527 67.6158 77.4441 60.7896 80.2892C53.9634 83.1344 46.4409 83.9055 39.1734 82.5051C31.9059 81.1047 25.2198 77.5956 19.9606 72.4217C14.7013 67.2478 11.1051 60.6413 9.6268 53.4378C8.14846 46.2342 8.85436 38.7571 11.6552 31.9519C14.4561 25.1468 19.2261 19.3192 25.3622 15.2062C31.4982 11.0932 38.7246 8.87939 46.1276 8.84481C56.0541 8.81122 65.5886 12.6896 72.6389 19.6289C79.6892 26.5682 83.6794 36.0017 83.7339 45.8591V45.8411Z" fill="url(#paint3_linear_522_1198)"/>
<path d="M87.6519 40.0078C86.7422 39.6478 85.9291 39.0829 85.2768 38.3575C84.6245 37.6322 84.1508 36.7663 83.893 35.8281C83.6353 34.8899 83.6005 33.905 83.7915 32.9512C83.9824 31.9974 84.3939 31.1007 84.9935 30.3318C85.7645 29.3422 86.2201 28.1465 86.3021 26.898C86.384 25.6495 86.0884 24.4052 85.4533 23.3247C84.8181 22.2442 83.8724 21.3767 82.7374 20.8337C81.6023 20.2906 80.3298 20.0967 79.083 20.2769C78.1143 20.4185 77.1257 20.3342 76.1954 20.0309C75.2651 19.7275 74.4187 19.2133 73.7231 18.5289C73.0275 17.8446 72.5018 17.0089 72.1877 16.0879C71.8735 15.167 71.7795 14.1861 71.913 13.2228C72.0822 11.9833 71.8747 10.7218 71.3171 9.6002C70.7595 8.47858 69.8772 7.54792 68.7834 6.9276C67.6896 6.30728 66.4341 6.02556 65.178 6.11857C63.9218 6.21158 62.7223 6.67508 61.7333 7.44963C60.9651 8.05215 60.0664 8.46913 59.1082 8.66764C58.1499 8.86615 57.1583 8.84077 56.2117 8.5935C55.265 8.34623 54.3891 7.88384 53.6533 7.24282C52.9174 6.6018 52.3416 5.7997 51.9714 4.89983C51.4941 3.74194 50.6793 2.75208 49.6315 2.05724C48.5838 1.36239 47.3509 0.994252 46.091 1.00007C44.8311 1.00588 43.6017 1.3854 42.5605 2.08989C41.5193 2.79437 40.7138 3.79171 40.2474 4.95395C39.8863 5.85383 39.3202 6.65843 38.5935 7.30465C37.8668 7.95087 36.9993 8.42116 36.0589 8.67865C35.1185 8.93614 34.1309 8.97382 33.1733 8.78877C32.2158 8.60371 31.3145 8.20094 30.54 7.61201C29.5436 6.84638 28.3395 6.39385 27.0823 6.31248C25.825 6.23112 24.572 6.52464 23.4839 7.15537C22.3958 7.78611 21.5223 8.72529 20.9755 9.85243C20.4286 10.9796 20.2334 12.2433 20.4148 13.4814C20.555 14.4435 20.4683 15.4248 20.1616 16.3479C19.8548 17.2711 19.3364 18.1109 18.6471 18.8012C17.9579 19.4915 17.1166 20.0134 16.1896 20.3258C15.2627 20.6383 14.2753 20.7327 13.3053 20.6016C12.0567 20.4319 10.7855 20.637 9.65515 21.1906C8.52486 21.7441 7.58716 22.6208 6.96266 23.7079C6.33816 24.7949 6.05541 26.0427 6.15078 27.2906C6.24615 28.5385 6.71527 29.7296 7.49782 30.7106C8.1044 31.4738 8.524 32.3667 8.72348 33.3185C8.92297 34.2704 8.89687 35.2554 8.64727 36.1955C8.39766 37.1357 7.93138 38.0054 7.28523 38.7358C6.63908 39.4663 5.83077 40.0377 4.92412 40.4047C3.75837 40.8793 2.76199 41.6889 2.06282 42.7297C1.36365 43.7706 0.993577 44.9951 1.00008 46.2462C1.00659 47.4974 1.38938 48.718 2.09934 49.7516C2.8093 50.7852 3.81405 51.5846 4.98468 52.0472C5.89427 52.4065 6.70732 52.9707 7.35967 53.6955C8.01201 54.4203 8.48579 55.2857 8.7436 56.2235C9.00141 57.1613 9.0362 58.1457 8.84523 59.0991C8.65425 60.0525 8.24273 60.9488 7.64316 61.7172C6.86959 62.7056 6.41153 63.9012 6.32791 65.1502C6.24428 66.3993 6.53892 67.6446 7.17391 68.726C7.80891 69.8074 8.75521 70.6753 9.89106 71.2182C11.0269 71.761 12.3003 71.954 13.5475 71.7721C14.5168 71.6319 15.5057 71.7172 16.4361 72.0213C17.3665 72.3255 18.213 72.8401 18.9088 73.5247C19.6047 74.2093 20.1308 75.0451 20.4458 75.9662C20.7607 76.8873 20.8558 77.8684 20.7236 78.8322C20.554 80.0711 20.761 81.3321 21.3183 82.4533C21.8755 83.5746 22.7575 84.5048 23.8509 85.1247C24.9444 85.7445 26.1995 86.0257 27.455 85.9321C28.7106 85.8385 29.9093 85.3744 30.8973 84.5994C31.666 83.9969 32.5651 83.5799 33.5238 83.3814C34.4824 83.1829 35.4744 83.2083 36.4215 83.4555C37.3686 83.7028 38.2449 84.1651 38.9814 84.8061C39.7178 85.4471 40.2943 86.2492 40.6653 87.1492C41.1479 88.2945 41.9621 89.2719 43.0046 89.9574C44.047 90.6429 45.2709 91.0057 46.5212 90.9999C47.7715 90.9941 48.992 90.6199 50.028 89.9248C51.0639 89.2297 51.8689 88.2448 52.3408 87.095C52.7033 86.1916 53.2722 85.3842 54.0026 84.7364C54.733 84.0886 55.605 83.6182 56.5497 83.3622C57.4945 83.1063 58.4862 83.0717 59.4467 83.2614C60.4072 83.451 61.3102 83.8596 62.0845 84.455C63.0805 85.22 64.284 85.6722 65.5405 85.7537C66.797 85.8352 68.0494 85.5422 69.1372 84.9123C70.2249 84.2824 71.0985 83.3443 71.6459 82.2182C72.1933 81.0921 72.3897 79.8293 72.2097 78.5916C72.0674 77.6294 72.1523 76.6476 72.4578 75.7235C72.7633 74.7995 73.281 73.9587 73.97 73.2675C74.6589 72.5763 75.5003 72.0537 76.4276 71.741C77.355 71.4282 78.3428 71.3339 79.3131 71.4654C80.5612 71.6354 81.832 71.4307 82.9621 70.8779C84.0922 70.3251 85.03 69.4494 85.655 68.3632C86.28 67.277 86.5637 66.0301 86.4695 64.7825C86.3754 63.535 85.9077 62.344 85.1267 61.3624C84.52 60.5991 84.1001 59.7062 83.9002 58.7542C83.7004 57.8022 83.7259 56.8171 83.9749 55.8766C84.2238 54.9361 84.6894 54.0658 85.3349 53.3345C85.9803 52.6032 86.788 52.0307 87.6943 51.6623C88.867 51.1938 89.8711 50.3866 90.5768 49.3452C91.2825 48.3037 91.6573 47.076 91.6527 45.8208C91.6481 44.5656 91.2644 43.3405 90.5512 42.3042C89.8379 41.2679 88.828 40.4679 87.6519 40.0078ZM83.7339 45.8411C83.7685 53.1926 81.6072 60.3893 77.5231 66.521C73.4391 72.6527 67.6158 77.4441 60.7896 80.2892C53.9634 83.1344 46.4409 83.9055 39.1734 82.5051C31.9059 81.1047 25.2198 77.5956 19.9606 72.4217C14.7013 67.2478 11.1051 60.6413 9.6268 53.4378C8.14846 46.2342 8.85436 38.7571 11.6552 31.9519C14.4561 25.1468 19.2261 19.3192 25.3622 15.2062C31.4982 11.0932 38.7246 8.87939 46.1276 8.84481C56.0541 8.81122 65.5886 12.6896 72.6389 19.6289C79.6892 26.5682 83.6794 36.0017 83.7339 45.8591V45.8411Z" stroke="white" stroke-width="1.59851" mask="url(#path-8-outside-1_522_1198)"/>
<path d="M22.2497 21.6303L23.2731 20.7643L26.5432 23.6208L24.1815 20.0126L25.2049 19.1406L29.1412 23.675L28.4629 24.2763L25.5016 20.7643L27.924 24.6432L27.3184 25.1603L23.8181 22.1535L26.7976 25.5873L26.192 26.1225L22.2497 21.6303Z" fill="url(#paint4_linear_522_1198)"/>
<path d="M30.213 21.2151L27.936 17.2521L28.7596 16.783L31.0729 20.8062C31.2849 21.1791 31.5211 21.2211 31.7815 21.0768C32.0418 20.9325 32.1206 20.704 31.9086 20.3311L29.5953 16.308L30.3886 15.8569L32.6656 19.826C33.144 20.6559 32.9987 21.3655 32.1932 21.8225C31.3878 22.2796 30.6914 22.045 30.213 21.2151Z" fill="url(#paint5_linear_522_1198)"/>
<path d="M34.7003 18.888L34.5792 18.5633L35.421 18.2566L35.5663 18.6475C35.7116 19.0504 35.9418 19.1286 36.2264 19.0263C36.511 18.9241 36.6382 18.7136 36.4807 18.2987C36.3233 17.8837 36.0265 17.5951 35.2696 17.3004C34.2825 16.9215 33.8707 16.5487 33.6406 15.9052C33.5471 15.7323 33.4941 15.5407 33.4854 15.3447C33.4768 15.1486 33.5129 14.9532 33.5908 14.7728C33.6688 14.5925 33.7868 14.432 33.9359 14.3032C34.085 14.1744 34.2614 14.0807 34.452 14.0289C35.318 13.7162 35.9357 14.071 36.2688 14.9731L36.3536 15.2076L35.5118 15.5083L35.4028 15.2197C35.2575 14.8167 35.0395 14.7265 34.7548 14.8288C34.4702 14.931 34.3673 15.1415 34.5066 15.5264C34.6458 15.9112 34.9547 16.1698 35.7177 16.4645C36.6987 16.8434 37.0984 17.2102 37.3528 17.9078C37.6919 18.8279 37.4133 19.5074 36.5352 19.8262C35.6571 20.1449 35.0273 19.7841 34.7003 18.888Z" fill="url(#paint6_linear_522_1198)"/>
<path d="M38.576 12.9044L39.5021 12.7119L40.7672 18.5632L39.8411 18.7557L38.576 12.9044Z" fill="url(#paint7_linear_522_1198)"/>
<path d="M42.7969 16.8192L42.5668 13.6079C42.5418 13.4201 42.5558 13.2293 42.6079 13.0471C42.6599 12.8649 42.7489 12.6952 42.8694 12.5484C42.99 12.4016 43.1394 12.2809 43.3087 12.1936C43.4779 12.1062 43.6633 12.0542 43.8535 12.0407C44.0438 12.0271 44.2348 12.0523 44.4148 12.1148C44.5949 12.1772 44.7601 12.2755 44.9005 12.4037C45.0409 12.5319 45.1534 12.6873 45.2311 12.8602C45.3088 13.0332 45.3501 13.2201 45.3524 13.4094L45.4009 14.0409L44.5046 14.107L44.4562 13.4155C44.4562 13.0246 44.226 12.8742 43.9414 12.8923C43.6568 12.9103 43.4812 13.0907 43.5115 13.4936L43.7476 16.8312C43.7476 17.2221 43.9778 17.3665 44.2624 17.3424C44.547 17.3184 44.7226 17.156 44.6923 16.741L44.6318 15.827L45.522 15.7668L45.5825 16.6087C45.6075 16.7965 45.5935 16.9873 45.5414 17.1695C45.4894 17.3517 45.4003 17.5214 45.2798 17.6682C45.1593 17.815 45.0099 17.9358 44.8406 18.0231C44.6714 18.1104 44.486 18.1624 44.2958 18.176C44.1055 18.1895 43.9145 18.1643 43.7345 18.1019C43.5544 18.0394 43.3891 17.9411 43.2488 17.8129C43.1084 17.6847 42.9959 17.5294 42.9182 17.3564C42.8405 17.1835 42.7992 16.9966 42.7969 16.8072V16.8192Z" fill="url(#paint8_linear_522_1198)"/>
<path d="M51.8502 12.4595L53.2188 12.7361C54.1514 12.9165 54.5027 13.5179 54.3149 14.462L54.1999 15.0634C54.0061 16.0015 53.449 16.4225 52.5224 16.2361L52.0804 16.1519L51.5959 18.5574L50.6694 18.3769L51.8502 12.4595ZM52.6859 15.3761C52.9827 15.4363 53.1704 15.334 53.2552 14.9131L53.3945 14.2155C53.4792 13.7945 53.346 13.6141 53.0553 13.572L52.6133 13.4818L52.2499 15.2859L52.6859 15.3761Z" fill="url(#paint9_linear_522_1198)"/>
<path d="M57.5124 13.8604L58.8204 14.3655C59.012 14.4024 59.1918 14.4847 59.3444 14.6054C59.4971 14.7261 59.6181 14.8817 59.6972 15.0588C59.7763 15.236 59.8111 15.4295 59.7987 15.6229C59.7863 15.8163 59.727 16.0039 59.6258 16.1696L59.4926 16.5124C59.2685 17.1138 58.9415 17.3844 58.4873 17.3904C58.8749 17.6971 58.8567 18.1662 58.6085 18.7976L58.2269 19.7778C58.1216 20.0023 58.0638 20.2459 58.0574 20.4935L57.1854 20.1627C57.1975 19.9139 57.2614 19.6702 57.3731 19.4471L57.7728 18.4247C57.9726 17.9076 57.8878 17.6791 57.4821 17.5287L57.1793 17.4084L56.2467 19.8139L55.3626 19.4711L57.5124 13.8604ZM57.7788 16.7169C58.1119 16.8431 58.3844 16.777 58.5418 16.332L58.7114 15.899C58.8628 15.5021 58.7962 15.2976 58.4873 15.1533L58.0816 14.9969L57.476 16.5906L57.7788 16.7169Z" fill="url(#paint10_linear_522_1198)"/>
<path d="M60.5585 20.1629L62.1935 17.4687C62.2842 17.2951 62.4098 17.1419 62.5625 17.0184C62.7152 16.8948 62.8917 16.8037 63.0813 16.7506C63.2708 16.6975 63.4693 16.6835 63.6644 16.7095C63.8596 16.7355 64.0474 16.8009 64.2161 16.9018C64.3848 17.0027 64.5309 17.1368 64.6454 17.2959C64.7599 17.455 64.8404 17.6357 64.8818 17.8269C64.9232 18.0181 64.9248 18.2157 64.8863 18.4075C64.8479 18.5993 64.7702 18.7812 64.6582 18.9421L63.0232 21.6362C62.9324 21.8098 62.8069 21.9631 62.6542 22.0866C62.5015 22.2101 62.325 22.3012 62.1354 22.3544C61.9459 22.4075 61.7474 22.4215 61.5522 22.3955C61.3571 22.3695 61.1693 22.304 61.0006 22.2032C60.8319 22.1023 60.6858 21.9682 60.5713 21.8091C60.4568 21.6499 60.3763 21.4692 60.3349 21.278C60.2935 21.0868 60.2919 20.8893 60.3304 20.6975C60.3688 20.5057 60.4465 20.3237 60.5585 20.1629ZM62.1754 21.2032L63.877 18.4069C64.1011 18.04 64.0224 17.8055 63.768 17.6491C63.5137 17.4928 63.2593 17.5349 63.0413 17.9017L61.3397 20.6981C61.1156 21.0649 61.1943 21.2995 61.4487 21.4558C61.703 21.6122 61.9574 21.552 62.1754 21.1852V21.2032Z" fill="url(#paint11_linear_522_1198)"/>
<path d="M67.9404 19.5615L69.0304 20.5057C69.745 21.107 69.7511 21.8167 69.1152 22.5383L67.1168 24.8235C67.0116 24.99 66.8693 25.1304 66.7009 25.2338C66.5325 25.3373 66.3425 25.401 66.1455 25.4202C65.9484 25.4393 65.7496 25.4134 65.5642 25.3444C65.3788 25.2753 65.2118 25.165 65.076 25.022L63.986 24.0778L67.9404 19.5615ZM65.6271 24.3725C65.8572 24.5649 66.0934 24.5709 66.378 24.2462L68.4309 21.9009C68.7156 21.5761 68.6792 21.3416 68.4309 21.1431L68.0676 20.8304L65.2456 24.0598L65.6271 24.3725Z" fill="url(#paint12_linear_522_1198)"/>
<path d="M26.5735 67.3823L27.6393 68.2062L25.4774 71.9587L28.5961 68.9519L29.668 69.7697L25.974 74.5085L25.2655 73.9613L28.0632 70.3531L24.7265 73.5223L24.1209 73.0352L26.3737 69.0361L23.5759 72.6443L22.9219 72.1391L26.5735 67.3823Z" fill="url(#paint13_linear_522_1198)"/>
<path d="M29.2502 74.8452L31.3758 70.792L32.2175 71.225L30.0617 75.3383C29.8618 75.7172 29.9527 75.9397 30.2191 76.078C30.4856 76.2163 30.7157 76.1622 30.9155 75.7834L33.0714 71.67L33.8828 72.085L31.7512 76.1382C31.6752 76.3172 31.5627 76.4787 31.4208 76.6124C31.2789 76.7461 31.1106 76.8492 30.9266 76.9152C30.7426 76.9812 30.5468 77.0086 30.3516 76.9957C30.1564 76.9829 29.9659 76.93 29.7923 76.8405C29.6187 76.7509 29.4656 76.6267 29.3427 76.4755C29.2198 76.3243 29.1298 76.1495 29.0783 75.962C29.0268 75.7746 29.015 75.5786 29.0435 75.3864C29.072 75.1942 29.1404 75.0099 29.2441 74.8452H29.2502Z" fill="url(#paint14_linear_522_1198)"/>
<path d="M34.1735 77.1368L34.2825 76.812L35.1303 77.0947L34.9971 77.4856C34.8639 77.8885 34.9971 78.0869 35.2817 78.1891C35.5663 78.2914 35.7965 78.1891 35.9357 77.7742C36.075 77.3593 36.0145 76.9443 35.5966 76.2407C35.0698 75.3326 34.991 74.7914 35.1969 74.1419C35.2317 73.948 35.3103 73.7644 35.4267 73.6049C35.5432 73.4454 35.6945 73.3142 35.8692 73.2211C36.044 73.1279 36.2378 73.0752 36.436 73.067C36.6342 73.0589 36.8317 73.0953 37.0137 73.1737C37.8857 73.4624 38.1461 74.1239 37.8433 75.032L37.7646 75.2665L36.9107 74.9899L37.0076 74.6952C37.1469 74.2923 37.0076 74.0938 36.7472 73.9856C36.4868 73.8773 36.2506 73.9856 36.1416 74.3825C36.0326 74.7794 36.0932 75.1582 36.505 75.8619C37.0379 76.7699 37.1106 77.2991 36.8865 78.0087C36.8516 78.2031 36.7734 78.3873 36.6575 78.5478C36.5417 78.7082 36.3911 78.8409 36.2169 78.936C36.0427 79.0312 35.8493 79.0864 35.6508 79.0976C35.4523 79.1089 35.2537 79.0759 35.0698 79.001C34.1069 78.7124 33.8404 78.0448 34.1735 77.1368Z" fill="url(#paint15_linear_522_1198)"/>
<path d="M40.1924 74.1235L41.1246 74.298L39.9866 80.1793L39.0545 79.9989L40.1924 74.1235Z" fill="url(#paint16_linear_522_1198)"/>
<path d="M42.8938 79.2054L43.0816 75.9942C43.0789 75.8033 43.1159 75.6139 43.1903 75.4379C43.2646 75.2618 43.3747 75.1029 43.5136 74.971C43.6526 74.8391 43.8174 74.737 43.9978 74.6712C44.1782 74.6053 44.3704 74.5771 44.5623 74.5883C44.7542 74.5995 44.9417 74.6498 45.1131 74.7362C45.2846 74.8225 45.4362 74.943 45.5587 75.0902C45.6811 75.2373 45.7717 75.408 45.8248 75.5914C45.8779 75.7749 45.8923 75.9672 45.8672 76.1565L45.8309 76.7579L44.9346 76.7098L44.977 76.0182C44.977 75.6213 44.8196 75.4469 44.535 75.4168C44.2503 75.3868 44.0566 75.5491 44.0323 75.94L43.8325 79.2776C43.8325 79.6685 43.9899 79.8369 44.2746 79.879C44.5592 79.9211 44.753 79.7527 44.7772 79.3558L44.8317 78.4477L45.7279 78.4958L45.6734 79.3437C45.6681 79.5288 45.6254 79.7109 45.5478 79.8793C45.4703 80.0476 45.3595 80.1988 45.222 80.3238C45.0846 80.4489 44.9232 80.5453 44.7476 80.6073C44.5719 80.6693 44.3855 80.6956 44.1994 80.6847C44.0133 80.6738 43.8313 80.626 43.6642 80.544C43.497 80.462 43.3482 80.3475 43.2264 80.2073C43.1047 80.0671 43.0125 79.904 42.9554 79.7278C42.8983 79.5516 42.8773 79.3658 42.8938 79.1814V79.2054Z" fill="url(#paint17_linear_522_1198)"/>
<path d="M50.7421 74.4426L52.1107 74.178C52.302 74.1191 52.5045 74.1053 52.7021 74.1377C52.8997 74.17 53.0871 74.2476 53.2493 74.3643C53.4114 74.481 53.544 74.6336 53.6365 74.81C53.729 74.9864 53.7788 75.1818 53.7821 75.3807L53.8971 75.9821C54.0849 76.9262 53.7276 77.5276 52.795 77.702L52.3529 77.7862L52.8253 80.1917L51.8927 80.3721L50.7421 74.4426ZM52.6315 76.848C52.9282 76.7879 53.0615 76.6255 52.9767 76.2046L52.8434 75.507C52.7587 75.086 52.5709 74.9838 52.2803 75.0439L51.8382 75.1281L52.1894 76.9322L52.6315 76.848Z" fill="url(#paint18_linear_522_1198)"/>
<path d="M55.29 73.408L56.6101 72.9269C56.7774 72.8265 56.9668 72.7677 57.1619 72.7557C57.357 72.7437 57.5522 72.7788 57.7307 72.858C57.9093 72.9372 58.0658 73.0581 58.187 73.2104C58.3083 73.3628 58.3905 73.542 58.4269 73.7328L58.554 74.0815C58.673 74.2897 58.7208 74.5306 58.6903 74.7681C58.6597 75.0056 58.5524 75.2268 58.3845 75.3985C58.881 75.3985 59.1778 75.7353 59.4139 76.3668L59.7834 77.353C59.8524 77.5907 59.9699 77.8118 60.1285 78.0025L59.2262 78.3332C59.0682 78.1384 58.9527 77.9132 58.8871 77.6717L58.5116 76.6434C58.3179 76.1202 58.0998 76.0119 57.6941 76.1563L57.3913 76.2705L58.2815 78.676L57.3913 79.0008L55.29 73.408ZM57.3974 75.3685C57.7305 75.2482 57.8758 75.0317 57.7062 74.5807L57.5488 74.1477C57.3974 73.7448 57.1975 73.6185 56.8826 73.7328L56.4769 73.8831L57.0825 75.4888L57.3974 75.3685Z" fill="url(#paint19_linear_522_1198)"/>
<path d="M61.9513 75.5971L60.3889 72.8609C60.2819 72.6973 60.2097 72.5138 60.1768 72.3215C60.1438 72.1292 60.1507 71.9323 60.1972 71.7428C60.2436 71.5533 60.3285 71.3752 60.4468 71.2195C60.565 71.0637 60.7141 70.9336 60.8848 70.8372C61.0555 70.7407 61.2442 70.6799 61.4395 70.6585C61.6347 70.6371 61.8322 70.6556 62.02 70.7128C62.2078 70.7699 62.3818 70.8646 62.5314 70.991C62.681 71.1173 62.803 71.2728 62.89 71.4477L64.4584 74.1899C64.5614 74.3538 64.6298 74.5367 64.6597 74.7276C64.6896 74.9184 64.6802 75.1134 64.6322 75.3005C64.5843 75.4877 64.4986 75.6634 64.3804 75.8168C64.2623 75.9702 64.1141 76.0983 63.9447 76.1934C63.7754 76.2884 63.5884 76.3485 63.3951 76.3699C63.2018 76.3913 63.0061 76.3735 62.8198 76.3178C62.6336 76.2621 62.4606 76.1695 62.3114 76.0457C62.1621 75.9218 62.0396 75.7692 61.9513 75.5971ZM63.6651 74.7071L62.03 71.8806C61.8181 71.5078 61.5759 71.4597 61.3094 71.61C61.043 71.7603 60.9642 71.9889 61.1762 72.3617L62.7991 75.2062C63.0171 75.5791 63.2594 75.6271 63.5198 75.4768C63.7802 75.3265 63.877 75.0799 63.6651 74.7071Z" fill="url(#paint20_linear_522_1198)"/>
<path d="M63.8468 69.1024L64.9732 68.2004C65.1144 68.062 65.2858 67.9577 65.4741 67.8954C65.6623 67.8332 65.8625 67.8148 66.0591 67.8415C66.2557 67.8682 66.4435 67.9394 66.608 68.0496C66.7725 68.1598 66.9093 68.306 67.0079 68.477L68.9215 70.8344C69.5271 71.5801 69.4908 72.2777 68.752 72.867L67.6256 73.7691L63.8468 69.1024ZM68.2009 72.2115C68.4371 72.0251 68.4795 71.7905 68.2009 71.4598L66.2388 69.0543C65.9663 68.7236 65.7301 68.7175 65.494 68.904L65.1185 69.2047L67.8194 72.5363L68.2009 72.2115Z" fill="url(#paint21_linear_522_1198)"/>
<path d="M77.7629 39.0938L73.9962 49.7741L77.7084 47.3506L74.8016 58.8006L81.5538 44.043L77.1936 45.9373L77.7629 39.0938Z" fill="#00E0B8"/>
<path d="M14.8434 39.0938L18.6101 49.7741L14.8979 47.3506L17.7986 58.8006L11.0525 44.043L15.4066 45.9373L14.8434 39.0938Z" fill="#00E0B8"/>
<path d="M108.174 44.502C108.02 43.844 107.6 42.78 107.208 41.982L106.046 42.374C106.41 43.2 106.788 44.306 106.928 44.95L108.174 44.502ZM104.31 42.486H102.994C102.868 42.066 102.7 41.576 102.546 41.184L101.188 41.422C101.3 41.744 101.426 42.122 101.524 42.486H100.18V43.76H104.31V42.486ZM98.304 44.628H97.324V43.144H98.304V44.628ZM97.324 50.536V48.828H98.304V50.368L97.324 50.536ZM98.304 47.47H97.324V45.986H98.304V47.47ZM100.012 43.144V41.66H95.532V43.144H96.12V50.746C95.868 50.788 95.63 50.83 95.42 50.858L95.7 52.244C96.498 52.076 97.394 51.894 98.304 51.712V54.232H99.536V43.144H100.012ZM101.608 51.138V50.242H102.91V51.138H101.608ZM102.91 48.268V49.136H101.608V48.268H102.91ZM107.222 47.064C106.998 47.82 106.718 48.548 106.368 49.206C106.284 48.45 106.214 47.596 106.158 46.658H108.468V45.258H106.088C106.032 43.97 106.004 42.584 106.004 41.156H104.59C104.618 42.612 104.646 43.984 104.702 45.258H103.652C103.764 44.866 103.904 44.418 104.044 43.956L102.784 43.774C102.742 44.194 102.616 44.782 102.49 45.258H101.734C101.678 44.81 101.552 44.236 101.412 43.788L100.278 43.984C100.39 44.376 100.488 44.838 100.544 45.258H99.9V46.658H104.772C104.87 48.324 105.024 49.78 105.248 50.956C104.898 51.39 104.534 51.782 104.142 52.132V47.162H100.348V53.252H101.608V52.23H102.91V52.566H103.638C103.33 52.818 103.008 53.028 102.686 53.224C103.008 53.462 103.428 53.882 103.61 54.148C104.31 53.714 104.996 53.154 105.626 52.51C105.99 53.56 106.48 54.162 107.138 54.176C107.628 54.176 108.244 53.686 108.58 51.586C108.356 51.432 107.796 50.998 107.586 50.676C107.516 51.74 107.376 52.356 107.208 52.356C107.012 52.342 106.83 51.95 106.676 51.25C107.418 50.242 108.048 49.038 108.482 47.708L107.222 47.064ZM114.908 41.156C114.852 43.522 115.118 49.794 109.434 52.832C109.994 53.21 110.526 53.742 110.82 54.19C113.732 52.482 115.202 49.948 115.972 47.484C116.784 49.892 118.338 52.622 121.446 54.106C121.67 53.63 122.146 53.07 122.664 52.664C117.778 50.508 116.924 45.23 116.728 43.34C116.784 42.5 116.812 41.744 116.826 41.156H114.908ZM136.216 46.616V44.894H130.714C130.854 43.592 130.868 42.304 130.882 41.156H129.062C129.048 42.304 129.062 43.578 128.922 44.894H123.826V46.616H128.642C128.096 49.024 126.766 51.348 123.56 52.776C124.05 53.126 124.54 53.728 124.806 54.19C127.774 52.762 129.286 50.578 130.042 48.24C131.134 50.942 132.758 52.986 135.292 54.176C135.558 53.7 136.104 52.958 136.524 52.608C133.906 51.544 132.212 49.346 131.288 46.616H136.216ZM141.746 43.41L141.48 43.48H140.402L141.382 42.878C141.144 42.402 140.64 41.674 140.206 41.128L138.904 41.828C139.254 42.318 139.674 42.976 139.94 43.48H137.63V44.978H140.626C139.828 46.462 138.568 47.834 137.266 48.59C137.462 48.912 137.77 49.822 137.854 50.298C138.358 49.962 138.834 49.542 139.324 49.08V54.204H140.85V48.744C141.228 49.248 141.606 49.752 141.844 50.116L142.782 48.73C142.53 48.45 141.592 47.484 141.046 46.994C141.662 46.084 142.18 45.09 142.558 44.04L141.746 43.41ZM147.234 48.8V47.428H148.508V48.8H147.234ZM144.35 48.8V47.428H145.61V48.8H144.35ZM145.61 44.628V45.972H144.35V44.628H145.61ZM148.508 44.628V45.972H147.234V44.628H148.508ZM147.234 43.144V41.128H145.61V43.144H142.838V50.914H144.35V50.27H145.61V54.204H147.234V50.27H148.508V50.774H150.076V43.144H147.234ZM158.588 43.97V44.894H157.44V43.97H158.588ZM155.998 43.97V46.126H160.1V43.97H160.898V44.432C160.898 45.734 161.178 46.266 162.494 46.266H163.502C163.824 46.266 164.174 46.252 164.384 46.182C164.328 45.832 164.286 45.3 164.272 44.922C164.062 44.978 163.698 45.02 163.474 45.02H162.648C162.41 45.02 162.382 44.866 162.382 44.474V43.97H164.258V42.682H162.382V41.268H160.898V42.682H160.1V41.282H158.588V42.682H157.44V41.282H155.998V42.682H155.214V41.31H153.702V42.682H151.784V43.97H153.604C153.422 44.558 152.988 45.16 151.882 45.538C152.204 45.79 152.652 46.28 152.848 46.616C154.36 45.944 154.962 44.964 155.144 43.97H155.998ZM162.522 48.016V49.066H158.77V48.254H157.118V49.066H153.506V48.016H162.522ZM151.966 49.71H153.324V53.392H154.948V50.382H157.118V54.19H158.77V50.382H161.178V51.866C161.178 52.02 161.108 52.062 160.912 52.062C160.716 52.076 159.988 52.076 159.372 52.048C159.568 52.44 159.806 53.042 159.876 53.476C160.856 53.476 161.598 53.476 162.13 53.238C162.662 53.014 162.816 52.622 162.816 51.894V49.71H164.146V46.672H151.966V49.71ZM168.346 41.198C167.646 43.186 166.428 45.174 165.168 46.434C165.448 46.84 165.91 47.75 166.064 48.17C166.372 47.834 166.694 47.456 167.002 47.036V54.19H168.598V44.558C169.116 43.634 169.564 42.654 169.928 41.688L168.346 41.198ZM170.936 47.372C170.614 48.926 170.026 50.508 169.228 51.488C169.634 51.698 170.334 52.118 170.656 52.384C171.44 51.25 172.154 49.486 172.56 47.708L170.936 47.372ZM176.76 45.188C176.69 45.804 176.606 46.392 176.536 46.826L177.95 47.064C178.146 46.252 178.384 44.95 178.552 43.816L177.376 43.592L177.11 43.648H172.294C172.546 42.962 172.77 42.276 172.952 41.562L171.328 41.198C170.852 43.116 170.012 45.048 168.948 46.238C169.326 46.49 169.998 47.036 170.292 47.33C170.754 46.742 171.216 46 171.608 45.188H173.232V52.328C173.232 52.51 173.162 52.566 172.98 52.566C172.784 52.566 172.196 52.566 171.608 52.552C171.86 53 172.112 53.742 172.182 54.232C173.078 54.232 173.75 54.162 174.24 53.896C174.744 53.616 174.884 53.154 174.884 52.356V45.188H176.76ZM175.388 47.736C176.06 49.178 176.648 51.096 176.802 52.342L178.398 51.796C178.202 50.536 177.6 48.674 176.872 47.232L175.388 47.736ZM182.234 41.926V43.62H185.426C185.468 44.096 185.524 44.6 185.622 45.132L184.768 44.978C183.998 48.66 182.332 51.362 179.42 52.832C179.854 53.154 180.638 53.84 180.946 54.19C183.382 52.734 185.062 50.41 186.112 47.274C186.882 49.78 188.366 52.426 191.264 54.176C191.558 53.742 192.244 53.014 192.608 52.72C187.456 49.682 187.078 44.572 187.078 41.926H182.234ZM197.928 43.046V43.774H195.8V43.046H197.928ZM195.8 45.762V44.964H197.928V45.762H195.8ZM199.482 41.702H194.148V54.218H195.8V47.092H199.482V41.702ZM202.044 45.79V44.964H204.256V45.79H202.044ZM204.256 43.046V43.774H202.044V43.046H204.256ZM205.936 41.702H200.462V47.134H204.256V52.174C204.256 52.44 204.158 52.538 203.864 52.538C203.57 52.538 202.534 52.552 201.652 52.496C201.904 52.944 202.17 53.728 202.24 54.204C203.598 54.204 204.522 54.176 205.124 53.896C205.74 53.644 205.936 53.154 205.936 52.202V41.702ZM212.824 50.746C214.56 50.242 215.582 48.94 215.582 47.358C215.582 46.182 215.064 45.44 214.07 45.44C213.328 45.44 212.698 45.916 212.698 46.7C212.698 47.498 213.328 47.946 214.028 47.946C214.084 47.946 214.14 47.946 214.182 47.932C214.098 48.674 213.468 49.276 212.376 49.626L212.824 50.746ZM230.94 49.192V50.116H225.13V49.192H230.94ZM225.13 52.384V51.376H230.94V52.384H225.13ZM223.464 54.246H225.13V53.756H230.94V54.232H232.69V47.806H223.464V54.246ZM230.128 43.746C229.974 44.292 229.722 44.95 229.498 45.468H226.614C226.516 44.964 226.236 44.278 225.9 43.746H230.128ZM231.318 45.468C231.542 45.034 231.78 44.544 232.018 44.026L230.73 43.746H233.628V42.276H229.12C228.98 41.856 228.77 41.38 228.532 40.988L226.796 41.268C226.95 41.562 227.118 41.926 227.23 42.276H222.512V43.746H225.592L224.234 44.012C224.458 44.446 224.668 44.992 224.794 45.468H221.728V46.952H234.286V45.468H231.318ZM239.97 48.058C239.886 47.372 239.69 46.364 239.466 45.566L238.416 45.804C238.486 46.084 238.556 46.392 238.612 46.714L237.506 46.826C238.388 45.846 239.27 44.684 239.928 43.536L238.752 42.892C238.57 43.298 238.332 43.704 238.108 44.096L237.38 44.152C237.87 43.438 238.346 42.57 238.696 41.758L237.408 41.31C237.1 42.374 236.484 43.466 236.288 43.76C236.092 44.054 235.91 44.264 235.7 44.306C235.854 44.642 236.064 45.244 236.134 45.51C236.288 45.426 236.54 45.356 237.366 45.244C237.016 45.734 236.708 46.112 236.568 46.28C236.218 46.686 235.952 46.952 235.658 47.022C235.812 47.344 236.022 47.988 236.092 48.226C236.33 48.114 236.722 48.016 238.794 47.736C238.822 47.946 238.85 48.142 238.864 48.31L239.97 48.058ZM239.34 50.62C238.486 51.432 236.862 52.132 235.308 52.44C235.658 52.762 236.148 53.406 236.4 53.812C238.066 53.35 239.704 52.328 240.684 51.124L239.34 50.62ZM248.3 50.2V48.828H242.882V48.156H241.216V48.828H235.672V50.2H241.216V54.176H242.882V50.2H248.3ZM243.596 51.488C244.842 52.174 246.494 53.224 247.264 53.91L248.328 52.72C247.488 52.048 245.794 51.068 244.576 50.452L243.596 51.488ZM242.518 44.516H241.468V43.578H242.518V44.516ZM242.518 46.63H241.468V45.65H242.518V46.63ZM242.476 42.36L242.924 41.296L241.412 41.044C241.384 41.422 241.286 41.912 241.174 42.36H240.054V47.848H243.988V42.36H242.476ZM246.816 45.986C246.886 46.252 246.956 46.546 247.026 46.854L245.934 46.952C246.844 45.986 247.74 44.796 248.44 43.648L247.236 42.962C247.054 43.34 246.844 43.718 246.648 44.068L245.71 44.152C246.2 43.424 246.704 42.542 247.04 41.674L245.696 41.296C245.388 42.374 244.758 43.494 244.562 43.788C244.38 44.082 244.184 44.292 243.988 44.348C244.142 44.684 244.352 45.3 244.422 45.58C244.59 45.482 244.87 45.412 245.836 45.272C245.472 45.79 245.15 46.182 244.996 46.35C244.646 46.742 244.38 47.008 244.086 47.078C244.24 47.414 244.45 48.072 244.52 48.338C244.758 48.212 245.164 48.128 247.25 47.904C247.278 48.1 247.306 48.282 247.32 48.45L248.44 48.156C248.328 47.498 248.09 46.49 247.852 45.72L246.816 45.986ZM98.934 62.096C99.242 61.83 99.55 61.536 99.844 61.256C100.264 61.522 100.726 61.816 101.174 62.096H98.934ZM101.286 64.686V65.232H98.108V65.148V64.686H101.286ZM98.052 66.786C98.066 66.59 98.08 66.394 98.08 66.212H101.286V66.786H98.052ZM101.678 69.502V70.496H99.088V69.502H101.678ZM101.272 63.076V62.166C101.874 62.558 102.42 62.922 102.798 63.23L103.652 61.83C103.008 61.368 101.846 60.682 100.81 60.08C100.894 59.968 100.978 59.856 101.062 59.73L99.536 59.128C98.64 60.472 97.002 61.62 95.378 62.306C95.658 62.67 96.092 63.51 96.246 63.902L96.568 63.734V65.148C96.568 66.786 96.456 69.292 95.35 71.07C95.756 71.196 96.484 71.504 96.806 71.714C97.212 71 97.506 70.146 97.702 69.264V72.162H99.088V71.728H101.678V72.106H103.134V68.368H97.87C97.898 68.228 97.912 68.074 97.94 67.934H102.798V63.538H96.89C97.408 63.244 97.898 62.894 98.388 62.53V63.076H101.272ZM105.486 60.584H103.918V68.396H105.486V60.584ZM106.452 59.184V70.202C106.452 70.44 106.354 70.51 106.13 70.51C105.906 70.51 105.178 70.51 104.464 70.496C104.688 70.958 104.884 71.7 104.954 72.162C106.074 72.162 106.872 72.106 107.362 71.826C107.88 71.56 108.048 71.112 108.048 70.216V59.184H106.452ZM112.528 59.198C111.828 61.186 110.61 63.174 109.336 64.434C109.63 64.854 110.106 65.806 110.26 66.212C110.54 65.904 110.834 65.554 111.128 65.204V72.204H112.808V62.614C113.326 61.676 113.788 60.682 114.152 59.702L112.528 59.198ZM122.566 63.006V61.424H117.134C117.4 60.85 117.624 60.276 117.82 59.688L116.21 59.282C115.58 61.284 114.474 63.3 113.242 64.56C113.592 64.826 114.25 65.414 114.516 65.722C115.146 64.994 115.79 64.042 116.35 63.006H116.882V72.218H118.59V69.11H122.398V67.57H118.59V65.988H122.216V64.476H118.59V63.006H122.566ZM130.91 64.532V63.076C131.204 62.656 131.484 62.222 131.722 61.788H136.076V60.08H123.938V61.788H129.524C128.222 63.93 126.038 66.1 123.49 67.29C123.854 67.668 124.372 68.354 124.638 68.802C126.318 67.934 127.816 66.716 129.09 65.358V72.19H130.91V64.938C132.422 66.1 134.326 67.696 135.194 68.732L136.608 67.458C135.6 66.352 133.444 64.742 131.946 63.664L130.91 64.532ZM147.164 61.494H140.752V60.78H147.164V61.494ZM147.164 63.314H140.752V62.586H147.164V63.314ZM148.858 59.618H139.128V64.476H148.858V59.618ZM144.994 69.054H149.306V67.612H144.994V66.562H150.188V65.092H137.84V66.562H143.3V70.118C142.404 69.838 141.718 69.32 141.284 68.368C141.396 67.962 141.508 67.542 141.606 67.094L139.94 66.842C139.618 68.718 138.764 70.202 137.336 71.084C137.714 71.322 138.358 71.938 138.596 72.246C139.408 71.686 140.052 70.944 140.556 70.02C141.732 71.644 143.468 72.008 146.03 72.008H150.02C150.104 71.518 150.356 70.79 150.58 70.412C149.586 70.454 146.898 70.454 146.114 70.454C145.736 70.454 145.358 70.44 144.994 70.412V69.054ZM155.536 61.788H157.188V59.156H155.536V59.884H151.77V61.284H155.536V61.788ZM154.458 63.146H155.9V64.07H154.458V63.146ZM157.3 63.146H158.77V64.07H157.3V63.146ZM160.156 63.146H161.668V64.07H160.156V63.146ZM152.988 65.148H163.222V62.082H152.988V65.148ZM159.694 68.564C159.218 68.97 158.602 69.306 157.916 69.586C157.566 69.264 157.048 68.886 156.544 68.564H159.694ZM151.854 68.116H153.422V66.884H156.488C155.844 67.458 154.766 67.948 153.226 68.27C153.548 68.508 154.01 69.068 154.192 69.432C154.528 69.334 154.85 69.236 155.158 69.124C155.578 69.39 156.054 69.754 156.432 70.09C155.144 70.454 153.702 70.65 152.246 70.762C152.498 71.126 152.792 71.784 152.918 72.176C156.81 71.742 160.52 70.664 162.214 67.99L161.164 67.388L160.87 67.458H157.888C158 67.346 158.112 67.234 158.224 67.108L157.146 66.884H162.522V68.116H164.174V65.624H151.854V68.116ZM160.45 59.884V59.156H158.784V61.788H160.45V61.27H164.23V59.884H160.45ZM171.286 67.402H172.728L173.218 62.614L173.288 60.528H170.726L170.782 62.614L171.286 67.402ZM172 71.126C172.826 71.126 173.456 70.566 173.456 69.754C173.456 68.956 172.826 68.368 172 68.368C171.174 68.368 170.544 68.956 170.544 69.754C170.544 70.566 171.174 71.126 172 71.126Z" fill="black"/>
<path d="M99.72 20.26V20.96H105.51V20.26H99.72ZM99.92 23.53V24.13H105.4V23.53H99.92ZM100.07 24.57V25.17H105.24V24.57H100.07ZM99.61 25.61V26.28H105.62V25.61H99.61ZM101.09 22.91V25.81H101.94V22.91H101.09ZM103.25 22.91V25.81H104.1V22.91H103.25ZM102.03 25.79C101.5 26.38 100.43 26.82 99.42 27.09C99.56 27.22 99.79 27.54 99.88 27.69C100.93 27.34 102.1 26.76 102.73 26.01L102.03 25.79ZM103.23 25.92L102.52 26.08C102.98 27.41 103.88 28.38 105.26 28.81C105.37 28.6 105.59 28.3 105.77 28.13C104.51 27.82 103.63 27 103.23 25.92ZM104.98 26.37C104.63 26.62 104 26.98 103.57 27.18L104 27.63C104.44 27.44 105.03 27.16 105.48 26.84L104.98 26.37ZM100.79 21.85H101.67V22.51H100.79V21.85ZM100.09 21.31V23.04H102.4V21.31H100.09ZM103.56 21.85H104.47V22.51H103.56V21.85ZM102.86 21.31V23.04H105.21V21.31H102.86ZM101.94 19.68C102.13 20.02 102.32 20.47 102.38 20.76L103.21 20.49C103.14 20.2 102.94 19.77 102.73 19.44L101.94 19.68ZM100.9 28.83C100.9 28.55 101.66 27.94 101.66 27.94V26.74L100.93 26.71V27.38C100.93 27.86 100.67 28.14 100.5 28.27C100.63 28.39 100.83 28.68 100.9 28.83ZM100.9 28.83C101.07 28.73 101.36 28.64 103.05 28.28C103.02 28.1 103.01 27.79 103.02 27.57L101.22 27.89L100.86 28.16L100.9 28.83ZM96.75 22.61V23.34H99.27V22.61H96.75ZM96.75 23.96V24.69H99.27V23.96H96.75ZM96.34 21.25V22.02H99.57V21.25H96.34ZM97.29 25.32V26.07H98.6V27.53H97.29V28.28H99.3V25.32H97.29ZM96.69 25.32V28.73H97.37V25.32H96.69ZM97.29 19.86C97.53 20.29 97.76 20.87 97.84 21.23L98.55 20.95C98.47 20.6 98.22 20.04 97.97 19.62L97.29 19.86ZM112.78 19.56V23.18H113.65V19.56H112.78ZM110.96 22.63V23.5H115.53V22.63H110.96ZM111.24 20.76V21.59H115.17V20.76H111.24ZM112.26 23.19C112.23 25.64 112.11 27.26 110.84 28.2C111.03 28.34 111.28 28.64 111.39 28.84C112.79 27.75 112.96 25.89 113 23.19H112.26ZM114.29 24.29C114.63 25.08 114.92 26.13 115 26.81L115.71 26.62C115.61 25.95 115.3 24.92 114.94 24.14L114.29 24.29ZM111.37 24.13C111.24 25.01 111.02 25.89 110.63 26.49C110.81 26.57 111.1 26.75 111.23 26.85C111.62 26.2 111.9 25.23 112.05 24.25L111.37 24.13ZM113.51 23.2V27.96C113.51 28.07 113.48 28.1 113.37 28.1C113.26 28.1 112.9 28.1 112.52 28.09C112.62 28.32 112.72 28.64 112.74 28.86C113.32 28.86 113.7 28.85 113.96 28.72C114.22 28.59 114.28 28.36 114.28 27.96V23.2H113.51ZM108.26 19.56V23.18H109.13V19.56H108.26ZM106.47 22.63V23.5H110.68V22.63H106.47ZM106.85 20.76V21.59H110.45V20.76H106.85ZM107.79 23.19C107.75 25.63 107.64 27.27 106.42 28.22C106.61 28.37 106.86 28.67 106.98 28.88C108.34 27.77 108.5 25.88 108.54 23.19H107.79ZM109.72 24.34C109.98 24.88 110.23 25.6 110.3 26.08L110.92 25.85C110.83 25.38 110.58 24.68 110.3 24.14L109.72 24.34ZM106.89 24.15C106.77 24.95 106.58 25.79 106.27 26.36C106.43 26.44 106.74 26.6 106.87 26.7C107.17 26.1 107.42 25.17 107.57 24.28L106.89 24.15ZM109.01 23.2V27.89C109.01 28 108.97 28.03 108.86 28.03C108.75 28.04 108.42 28.04 108.05 28.03C108.15 28.25 108.25 28.58 108.27 28.79C108.84 28.8 109.2 28.78 109.46 28.65C109.7 28.52 109.77 28.3 109.77 27.9V23.2H109.01ZM122.15 23.29V28.82H123.07V23.29H122.15ZM124.91 19.75C123.66 20.09 121.61 20.32 119.89 20.44C119.99 20.65 120.1 20.98 120.12 21.2C121.84 21.11 123.95 20.9 125.34 20.55L124.91 19.75ZM124.45 21.05C124.2 21.76 123.83 22.59 123.46 23.15C123.68 23.23 124.04 23.4 124.22 23.52C124.55 22.94 124.97 22.04 125.27 21.28L124.45 21.05ZM121.86 21.42C122.06 21.96 122.3 22.68 122.39 23.14L123.2 22.87C123.09 22.42 122.86 21.72 122.63 21.19L121.86 21.42ZM120.1 21.8C120.38 22.35 120.7 23.08 120.84 23.54L121.59 23.22C121.44 22.76 121.12 22.06 120.83 21.52L120.1 21.8ZM120.12 24.23V25.08H125.34V24.23H120.12ZM122.04 24.63C121.54 25.73 120.59 26.91 119.72 27.53C119.93 27.7 120.22 28.02 120.38 28.24C121.21 27.49 122.11 26.12 122.6 24.83L122.04 24.63ZM123.18 24.61L122.63 24.81C123.17 26.09 124.15 27.48 125.07 28.2C125.23 27.96 125.51 27.65 125.72 27.49C124.78 26.89 123.73 25.69 123.18 24.61ZM118.76 23.58C118.99 24.28 119.2 25.19 119.28 25.74L119.97 25.53C119.9 25 119.66 24.1 119.42 23.41L118.76 23.58ZM117.79 26.18C117.9 26.88 118 27.8 118.01 28.42L118.71 28.28C118.68 27.68 118.58 26.77 118.46 26.06L117.79 26.18ZM116.77 26.07C116.69 26.91 116.55 27.83 116.31 28.44C116.51 28.5 116.86 28.61 117.02 28.7C117.23 28.06 117.4 27.09 117.5 26.19L116.77 26.07ZM116.59 23.41C116.59 23.23 117.13 22.95 117.13 22.95V22.93C117.77 22.13 118.44 20.97 118.91 19.86L118.06 19.52C117.69 20.6 117.05 21.74 116.84 22.02C116.64 22.33 116.47 22.53 116.3 22.58C116.4 22.81 116.54 23.22 116.59 23.41ZM116.59 23.41C116.77 23.32 117.06 23.26 118.65 23.09C118.66 22.9 118.69 22.57 118.73 22.35L116.97 22.49L116.56 22.74L116.59 23.41ZM116.66 25.69C116.66 25.52 117.21 25.24 117.21 25.24V25.22C118.16 24.23 119.14 22.83 119.88 21.48L119.09 21.01C118.46 22.38 117.44 23.82 117.12 24.18C116.81 24.55 116.59 24.79 116.36 24.85C116.47 25.08 116.61 25.51 116.66 25.69ZM116.66 25.69C116.87 25.58 117.21 25.5 119.42 25.18C119.42 25 119.44 24.66 119.47 24.44L117.03 24.74L116.62 25.02L116.66 25.69ZM118.76 25.98C118.94 26.53 119.15 27.24 119.23 27.71L119.88 27.48C119.79 27.02 119.58 26.33 119.38 25.79L118.76 25.98ZM133.95 21.51C133.78 22.12 133.45 22.99 133.18 23.53L134 23.74C134.28 23.24 134.62 22.43 134.92 21.74L133.95 21.51ZM130.55 21.72C130.77 22.23 130.95 22.93 130.99 23.37L131.88 23.17C131.82 22.73 131.62 22.05 131.39 21.54L130.55 21.72ZM130.3 24.99V28.85H131.22V25.82H134.06V28.81H135V24.99H130.3ZM130.78 27.5V28.35H134.54V27.5H130.78ZM129.73 23.37V24.21H135.61V23.37H129.73ZM129.97 20.67V21.49H135.36V20.67H129.97ZM131.92 19.67C132.1 20.12 132.28 20.71 132.34 21.07L133.3 20.87C133.22 20.52 133.02 19.95 132.82 19.51L131.92 19.67ZM126.72 19.98V28.85H127.59V20.83H129.07V19.98H126.72ZM128.87 19.98V20.24C128.69 20.9 128.34 22.12 128.01 23.01C128.66 23.76 128.83 24.43 128.83 24.95C128.83 25.24 128.77 25.49 128.63 25.59C128.55 25.65 128.45 25.68 128.33 25.68C128.19 25.69 128.02 25.68 127.82 25.67C127.95 25.91 128.03 26.28 128.04 26.51C128.27 26.53 128.52 26.52 128.71 26.5C128.93 26.47 129.12 26.41 129.26 26.3C129.56 26.08 129.69 25.64 129.69 25.04C129.69 24.44 129.54 23.73 128.86 22.91C129.19 22.13 129.53 21.14 129.81 20.3L129.17 19.94L129.03 19.98H128.87ZM140.59 19.6C140.25 21.04 139.66 22.45 138.91 23.35C139.13 23.49 139.51 23.8 139.67 23.96C140.45 22.96 141.12 21.4 141.52 19.81L140.59 19.6ZM140.37 23.93C140.11 25.09 139.66 26.26 139.06 27C139.29 27.12 139.69 27.37 139.87 27.52C140.46 26.69 140.99 25.42 141.29 24.12L140.37 23.93ZM140.63 21.43L140.28 22.31H144.96V21.43H140.63ZM142.01 21.81V27.74C142.01 27.87 141.96 27.91 141.84 27.91C141.7 27.91 141.27 27.92 140.82 27.9C140.96 28.16 141.1 28.58 141.15 28.85C141.78 28.85 142.24 28.82 142.54 28.67C142.86 28.51 142.95 28.24 142.95 27.75V21.81H142.01ZM143.51 24.13C144.03 25.17 144.5 26.57 144.64 27.48L145.54 27.17C145.38 26.25 144.91 24.89 144.36 23.85L143.51 24.13ZM144.69 21.43V21.56C144.61 22.24 144.49 23.1 144.39 23.62L145.2 23.77C145.33 23.2 145.51 22.31 145.64 21.53L144.98 21.4L144.82 21.43H144.69ZM138.52 19.6C137.98 21.08 137.08 22.55 136.12 23.49C136.29 23.71 136.55 24.22 136.64 24.45C137.73 23.32 138.76 21.58 139.41 19.88L138.52 19.6ZM137.52 22.26V28.83H138.42V21.37L138.41 21.36L137.52 22.26ZM153.81 21.19L153.08 21.48C153.53 22.45 154.35 23.46 155.14 24.01C155.28 23.79 155.57 23.46 155.77 23.29C155.01 22.86 154.21 22.01 153.81 21.19ZM147.53 20.78H149.02V22.34H147.53V20.78ZM146.76 19.97V23.14H149.83V19.97H146.76ZM148.13 22.8V27.32H148.95V22.8H148.13ZM146.79 24V27.63H147.53V24H146.79ZM146.34 27.48L146.57 28.37C147.61 28.07 149 27.69 150.3 27.31L150.18 26.49C148.78 26.87 147.3 27.26 146.34 27.48ZM148.48 24.4V25.22H149.9V24.4H148.48ZM150.15 24.27V25.07H155.48V24.27H150.15ZM150.24 20.77V21.6H155.53V20.77H150.24ZM151.36 22.8V23.56H154.01V22.8H151.36ZM151.49 25.92L151.22 26.71H154.36V25.92H151.49ZM151.33 24.82C151.17 25.44 150.95 26.19 150.75 26.71H151.64C151.81 26.22 152.02 25.47 152.2 24.82H151.33ZM154.11 25.92V26.04C154.01 27.3 153.89 27.86 153.69 28.02C153.58 28.1 153.45 28.1 153.23 28.1C152.94 28.1 152.19 28.09 151.49 28.03C151.66 28.26 151.81 28.6 151.83 28.85C152.51 28.89 153.17 28.89 153.5 28.87C153.91 28.86 154.17 28.79 154.4 28.57C154.68 28.3 154.83 27.67 154.95 26.28C154.97 26.17 154.98 25.92 154.98 25.92H154.11ZM152.44 19.69C151.97 21.19 151.03 22.36 149.78 23.08C149.93 23.28 150.16 23.74 150.23 23.94C151.63 23.05 152.7 21.65 153.27 19.9L152.44 19.69ZM160.45 19.57V27.8H161.49V19.57H160.45ZM163.97 24.57V28.83H165.01V24.57H163.97ZM157.44 20.45V23.98H164.61V20.44H163.57V23.06H158.43V20.45H157.44ZM156.96 24.57V28.28H164.46V27.33H158.01V24.57H156.96ZM169.37 19.56V21.43H170.31V19.56H169.37ZM171.68 19.56V21.43H172.62V19.56H171.68ZM172.48 22.27H173.8V23.14H172.48V22.27ZM170.37 22.27H171.68V23.14H170.37V22.27ZM168.3 22.27H169.57V23.14H168.3V22.27ZM167.46 21.64V23.78H174.69V21.64H167.46ZM166.63 24.21V25.93H167.52V24.95H174.45V25.93H175.38V24.21H166.63ZM170.02 24.92C169.59 25.4 168.78 25.85 167.61 26.15C167.8 26.29 168.06 26.6 168.17 26.82C169.46 26.39 170.34 25.85 170.95 25.11L170.02 24.92ZM172.95 25.46V25.59C172 27.06 169.39 27.78 166.86 27.99C167.01 28.2 167.18 28.58 167.25 28.81C169.97 28.5 172.71 27.69 173.92 25.78L173.32 25.41L173.14 25.46H172.95ZM168.8 26.42C169.37 26.74 170.05 27.27 170.4 27.64L171.09 27.19C170.75 26.84 170.06 26.34 169.48 26.03L168.8 26.42ZM169.89 25.46L169.23 26.12H173.2V25.46H169.89ZM166.56 20.16V20.97H169.95V20.16H166.56ZM172.02 20.16V20.96H175.42V20.16H172.02ZM178.73 25.98V27.48C178.73 28.38 179.04 28.64 180.25 28.64C180.5 28.64 181.96 28.64 182.22 28.64C183.22 28.64 183.49 28.31 183.61 26.98C183.35 26.92 182.96 26.79 182.75 26.63C182.7 27.65 182.63 27.79 182.15 27.79C181.8 27.79 180.59 27.79 180.33 27.79C179.76 27.79 179.66 27.75 179.66 27.47V25.98H178.73ZM180.1 25.73C180.56 26.17 181.16 26.8 181.45 27.18L182.14 26.6C181.83 26.23 181.21 25.64 180.75 25.22L180.1 25.73ZM183.56 26.03C183.96 26.69 184.5 27.58 184.74 28.11L185.62 27.66C185.36 27.15 184.8 26.29 184.39 25.66L183.56 26.03ZM177.3 25.82C177.12 26.51 176.78 27.35 176.39 27.88L177.24 28.31C177.62 27.74 177.94 26.84 178.14 26.15L177.3 25.82ZM176.51 21.03V21.84H180.68V21.03H176.51ZM178.27 19.58V25.49H179.17V19.58H178.27ZM178.24 21.55C177.83 22.6 177.05 23.71 176.28 24.27C176.47 24.43 176.75 24.73 176.89 24.94C177.68 24.26 178.46 22.99 178.89 21.76L178.24 21.55ZM179.1 22.28L178.61 22.75C179.02 23.06 179.93 23.86 180.3 24.24L180.81 23.48C180.53 23.27 179.44 22.47 179.1 22.28ZM181.96 22.33H184.18V23.12H181.96V22.33ZM181.96 23.83H184.18V24.63H181.96V23.83ZM181.96 20.84H184.18V21.61H181.96V20.84ZM181.1 20.08V25.38H185.09V20.08H181.1ZM187.36 21.18V22.01H189.55V26.96H187.36V27.8H190.41V21.18H187.36ZM186.8 21.18V28.57H187.67V21.18H186.8ZM187.31 23.91V24.74H189.98V23.91H187.31ZM188.29 19.55C188.22 20.08 188.05 20.84 187.89 21.34L188.65 21.52C188.85 21.06 189.1 20.36 189.31 19.71L188.29 19.55ZM191.79 21.13V22H194.8V21.13H191.79ZM194.47 21.13V21.32C194.35 25.62 194.2 27.31 193.87 27.66C193.76 27.8 193.64 27.83 193.44 27.83C193.2 27.83 192.6 27.82 191.95 27.77C192.12 28.02 192.24 28.42 192.26 28.69C192.83 28.71 193.43 28.73 193.79 28.69C194.17 28.64 194.42 28.54 194.66 28.21C195.07 27.7 195.2 26.13 195.34 21.58C195.35 21.46 195.35 21.13 195.35 21.13H194.47ZM191.92 19.54C191.6 20.9 191.05 22.27 190.37 23.14C190.59 23.26 190.98 23.53 191.15 23.68C191.83 22.73 192.45 21.24 192.83 19.75L191.92 19.54ZM191.45 23.85C191.97 24.58 192.62 25.57 192.91 26.18L193.72 25.69C193.4 25.1 192.72 24.13 192.19 23.43L191.45 23.85ZM198.08 23.93V24.72H204.67V22.37H197.28V23.16H203.74V23.93H198.08ZM197.65 23.93C197.57 24.71 197.42 25.66 197.28 26.3H198.21C198.33 25.69 198.46 24.73 198.55 23.93H197.65ZM197.91 25.5L197.67 26.3H204.38V25.5H197.91ZM204.13 25.5V25.62C204.03 26.85 203.92 27.36 203.76 27.51C203.68 27.59 203.58 27.6 203.41 27.6C203.23 27.61 202.78 27.6 202.32 27.55C202.46 27.79 202.57 28.15 202.59 28.42C203.1 28.44 203.59 28.44 203.85 28.41C204.15 28.39 204.36 28.32 204.54 28.12C204.8 27.86 204.93 27.23 205.05 25.86C205.07 25.74 205.08 25.5 205.08 25.5H204.13ZM200.45 22.56V28.84H201.38V22.56H200.45ZM200.23 25.76C199.47 26.74 197.98 27.66 196.6 28.09C196.81 28.27 197.08 28.61 197.21 28.83C198.61 28.3 200.11 27.26 200.97 26.08L200.23 25.76ZM197.75 20.23V20.97H200.91V20.23H197.75ZM201.88 20.24V20.97H205.58V20.24H201.88ZM197.88 19.48C197.56 20.3 197 21.1 196.4 21.64C196.59 21.79 196.91 22.11 197.05 22.28C197.68 21.65 198.33 20.68 198.72 19.72L197.88 19.48ZM202.01 19.48C201.76 20.2 201.3 20.9 200.75 21.36C200.96 21.48 201.31 21.77 201.47 21.92C202.03 21.39 202.57 20.55 202.88 19.7L202.01 19.48ZM198.44 21.29C198.78 21.6 199.21 22.03 199.41 22.32L200.02 21.77C199.8 21.5 199.36 21.09 199.01 20.8L198.44 21.29ZM202.8 21.33C203.16 21.62 203.61 22.03 203.83 22.31L204.47 21.75C204.23 21.49 203.77 21.1 203.41 20.83L202.8 21.33ZM206.41 23.59V24.62H215.61V23.59H206.41ZM218.8 23.81C218.34 24.59 217.54 25.36 216.78 25.86C216.99 26.02 217.34 26.38 217.49 26.57C218.27 25.97 219.15 25.04 219.71 24.12L218.8 23.81ZM223.84 23.89C222.62 26.31 220.13 27.44 216.48 27.91C216.68 28.16 216.87 28.54 216.96 28.81C220.78 28.24 223.36 26.99 224.75 24.31L223.84 23.89ZM216.55 22.54V23.44H225.41V22.54H216.55ZM221.31 20.51V21.4H224.59V20.51H221.31ZM220.66 19.56V23.05H221.67V19.56H220.66ZM218 20.29V22.99H218.96V20.29H218ZM220.56 23.21V26.51H221.56V23.21H220.56ZM230.59 25.52H231.4L231.63 21.84L231.67 20.52H230.32L230.36 21.84L230.59 25.52ZM231 28.07C231.41 28.07 231.74 27.77 231.74 27.32C231.74 26.86 231.41 26.55 231 26.55C230.58 26.55 230.25 26.86 230.25 27.32C230.25 27.77 230.57 28.07 231 28.07Z" fill="white"/>
<defs>
<linearGradient id="paint0_linear_522_1198" x1="41.3032" y1="39.7681" x2="44.9333" y2="47.8235" gradientUnits="userSpaceOnUse">
<stop stop-color="#FFF176"/>
<stop offset="1" stop-color="#00E0B8"/>
</linearGradient>
<linearGradient id="paint1_linear_522_1198" x1="41.3093" y1="47.0996" x2="44.9393" y2="55.155" gradientUnits="userSpaceOnUse">
<stop stop-color="#FFF176"/>
<stop offset="1" stop-color="#00E0B8"/>
</linearGradient>
<linearGradient id="paint2_linear_522_1198" x1="28.3681" y1="26.8001" x2="63.9908" y2="65.3988" gradientUnits="userSpaceOnUse">
<stop stop-color="#FFF176"/>
<stop offset="1" stop-color="#00E0B8"/>
</linearGradient>
<linearGradient id="paint3_linear_522_1198" x1="15.4906" y1="12.9198" x2="76.7396" y2="79.3027" gradientUnits="userSpaceOnUse">
<stop stop-color="#FFF176"/>
<stop offset="1" stop-color="#00E0B8"/>
</linearGradient>
<linearGradient id="paint4_linear_522_1198" x1="23.3513" y1="20.0653" x2="28.1095" y2="25.119" gradientUnits="userSpaceOnUse">
<stop stop-color="#FFF176"/>
<stop offset="1" stop-color="#00E0B8"/>
</linearGradient>
<linearGradient id="paint5_linear_522_1198" x1="28.7357" y1="16.6775" x2="32.9244" y2="20.3167" gradientUnits="userSpaceOnUse">
<stop stop-color="#FFF176"/>
<stop offset="1" stop-color="#00E0B8"/>
</linearGradient>
<linearGradient id="paint6_linear_522_1198" x1="34.125" y1="14.7151" x2="38.018" y2="17.5032" gradientUnits="userSpaceOnUse">
<stop stop-color="#FFF176"/>
<stop offset="1" stop-color="#00E0B8"/>
</linearGradient>
<linearGradient id="paint7_linear_522_1198" x1="38.9263" y1="13.5124" x2="41.7205" y2="14.6024" gradientUnits="userSpaceOnUse">
<stop stop-color="#FFF176"/>
<stop offset="1" stop-color="#00E0B8"/>
</linearGradient>
<linearGradient id="paint8_linear_522_1198" x1="43.0406" y1="12.8506" x2="46.5203" y2="14.7036" gradientUnits="userSpaceOnUse">
<stop stop-color="#FFF176"/>
<stop offset="1" stop-color="#00E0B8"/>
</linearGradient>
<linearGradient id="paint9_linear_522_1198" x1="51.2599" y1="13.2671" x2="55.0692" y2="15.7504" gradientUnits="userSpaceOnUse">
<stop stop-color="#FFF176"/>
<stop offset="1" stop-color="#00E0B8"/>
</linearGradient>
<linearGradient id="paint10_linear_522_1198" x1="56.0721" y1="14.7389" x2="60.367" y2="17.8314" gradientUnits="userSpaceOnUse">
<stop stop-color="#FFF176"/>
<stop offset="1" stop-color="#00E0B8"/>
</linearGradient>
<linearGradient id="paint11_linear_522_1198" x1="61.0398" y1="17.4532" x2="64.901" y2="20.8077" gradientUnits="userSpaceOnUse">
<stop stop-color="#FFF176"/>
<stop offset="1" stop-color="#00E0B8"/>
</linearGradient>
<linearGradient id="paint12_linear_522_1198" x1="64.8801" y1="20.3383" x2="68.883" y2="24.4464" gradientUnits="userSpaceOnUse">
<stop stop-color="#FFF176"/>
<stop offset="1" stop-color="#00E0B8"/>
</linearGradient>
<linearGradient id="paint13_linear_522_1198" x1="24.0002" y1="68.3261" x2="28.8648" y2="73.2813" gradientUnits="userSpaceOnUse">
<stop stop-color="#FFF176"/>
<stop offset="1" stop-color="#00E0B8"/>
</linearGradient>
<linearGradient id="paint14_linear_522_1198" x1="29.8043" y1="71.614" x2="33.9798" y2="75.128" gradientUnits="userSpaceOnUse">
<stop stop-color="#FFF176"/>
<stop offset="1" stop-color="#00E0B8"/>
</linearGradient>
<linearGradient id="paint15_linear_522_1198" x1="34.6646" y1="73.8651" x2="38.5362" y2="76.5768" gradientUnits="userSpaceOnUse">
<stop stop-color="#FFF176"/>
<stop offset="1" stop-color="#00E0B8"/>
</linearGradient>
<linearGradient id="paint16_linear_522_1198" x1="39.3854" y1="74.9256" x2="42.0645" y2="75.911" gradientUnits="userSpaceOnUse">
<stop stop-color="#FFF176"/>
<stop offset="1" stop-color="#00E0B8"/>
</linearGradient>
<linearGradient id="paint17_linear_522_1198" x1="43.3664" y1="75.394" x2="46.8044" y2="77.2074" gradientUnits="userSpaceOnUse">
<stop stop-color="#FFF176"/>
<stop offset="1" stop-color="#00E0B8"/>
</linearGradient>
<linearGradient id="paint18_linear_522_1198" x1="51.2541" y1="74.9486" x2="54.8636" y2="76.9387" gradientUnits="userSpaceOnUse">
<stop stop-color="#FFF176"/>
<stop offset="1" stop-color="#00E0B8"/>
</linearGradient>
<linearGradient id="paint19_linear_522_1198" x1="56.0634" y1="73.5808" x2="60.2589" y2="77.0772" gradientUnits="userSpaceOnUse">
<stop stop-color="#FFF176"/>
<stop offset="1" stop-color="#00E0B8"/>
</linearGradient>
<linearGradient id="paint20_linear_522_1198" x1="60.8789" y1="71.4086" x2="64.7384" y2="74.6857" gradientUnits="userSpaceOnUse">
<stop stop-color="#FFF176"/>
<stop offset="1" stop-color="#00E0B8"/>
</linearGradient>
<linearGradient id="paint21_linear_522_1198" x1="64.7255" y1="68.6162" x2="68.7806" y2="72.6546" gradientUnits="userSpaceOnUse">
<stop stop-color="#FFF176"/>
<stop offset="1" stop-color="#00E0B8"/>
</linearGradient>
</defs>
</svg>
