<svg width="299" height="92" viewBox="0 0 299 92" fill="none" xmlns="http://www.w3.org/2000/svg">
<path d="M273 13H66V34H273V13Z" fill="#00E0B8"/>
<path d="M51.5328 80.4672V33.5328H297.467V80.4672H51.5328Z" fill="white" stroke="#00E0B8" stroke-width="1.06567"/>
<path d="M298.368 32.8292H284V81.1219H298.368V32.8292Z" fill="#00E0B8"/>
<path d="M46.3032 83.2102C66.9789 83.2102 83.7399 66.5657 83.7399 46.0335C83.7399 25.5014 66.9789 8.85687 46.3032 8.85687C25.6274 8.85687 8.86642 25.5014 8.86642 46.0335C8.86642 66.5657 25.6274 83.2102 46.3032 83.2102Z" fill="white"/>
<path d="M46.285 44.8187C46.5798 44.8161 46.8655 44.9203 47.0884 45.1118C47.3114 45.3033 47.4564 45.569 47.4962 45.8591H53.6004C53.5376 43.9676 52.7346 42.175 51.362 40.8621C49.9894 39.5492 48.1554 38.8195 46.2496 38.8281C44.3439 38.8368 42.5166 39.583 41.1561 40.9082C39.7956 42.2334 39.009 44.0333 38.9636 45.9252H45.0678C45.0923 45.6222 45.2314 45.3396 45.4573 45.1343C45.6831 44.929 45.9789 44.8162 46.285 44.8187Z" fill="url(#paint0_linear_481_757)"/>
<path d="M46.285 47.2603C45.9911 47.2632 45.7062 47.1598 45.4834 46.9695C45.2605 46.7792 45.115 46.5149 45.0738 46.2259H38.9696C39.0324 48.1174 39.8354 49.9101 41.208 51.223C42.5806 52.5359 44.4147 53.2655 46.3204 53.2569C48.2261 53.2483 50.0534 52.5021 51.4139 51.1768C52.7744 49.8516 53.561 48.0518 53.6064 46.1598L47.5083 46.1899C47.4751 46.4875 47.3314 46.7621 47.1052 46.9601C46.8789 47.158 46.5865 47.2651 46.285 47.2603Z" fill="url(#paint1_linear_481_757)"/>
<path d="M46.176 19.868C40.9633 19.8918 35.8749 21.4502 31.5541 24.346C27.2334 27.2418 23.8745 31.345 21.9021 36.1366C19.9297 40.9282 19.4326 46.1931 20.4735 51.2653C21.5144 56.3376 24.0466 60.9894 27.7498 64.6324C31.4531 68.2754 36.161 70.7461 41.2783 71.7319C46.3956 72.7178 51.6924 72.1744 56.4988 70.1707C61.3051 68.167 65.4052 64.7929 68.2804 60.4751C71.1556 56.1573 72.6769 51.0897 72.6518 45.9133C72.6359 42.4767 71.9385 39.0768 70.5993 35.9079C69.2601 32.739 67.3053 29.8631 64.8467 27.4444C62.3882 25.0258 59.4739 23.1119 56.2703 21.8119C53.0667 20.5119 49.6366 19.8514 46.176 19.868ZM29.8254 62.0601C29.6498 61.8917 29.3773 61.6572 29.0624 61.3264C28.1536 60.3978 27.3289 59.3917 26.5977 58.3196C25.5073 56.7188 24.6395 54.9791 24.0179 53.1478C22.4499 48.6127 22.4265 43.6915 23.9513 39.1419C24.5562 37.3019 25.4098 35.552 26.4887 33.94C27.2046 32.8683 28.0152 31.862 28.911 30.9332C29.2198 30.6024 29.5166 30.3679 29.6619 30.1935L29.9284 29.9409L29.6861 30.2236C29.5347 30.41 29.2925 30.6626 29.0079 31.0234C28.2057 32.0239 27.481 33.0834 26.8399 34.1926C25.8958 35.8252 25.1555 37.5659 24.6356 39.3764C23.3393 43.8121 23.3603 48.5252 24.6962 52.9493C25.2365 54.7573 25.995 56.4938 26.955 58.1211C27.6051 59.2241 28.3401 60.2756 29.1532 61.2663C29.4378 61.6211 29.6801 61.8676 29.8375 62.0601L30.0797 62.3367L29.8254 62.0601ZM31.3333 59.3118L30.8609 58.8427C30.6853 58.6804 30.5339 58.4579 30.3462 58.2414L29.7406 57.5318L29.4318 57.1469L29.1411 56.7079C28.6893 56.066 28.2846 55.3928 27.93 54.6933C27.7483 54.3144 27.5182 53.9356 27.3607 53.4906L26.9065 52.2217C25.5142 48.2725 25.4844 43.9757 26.8217 40.0078C26.9852 39.5628 27.1488 39.1298 27.3062 38.7089C27.4637 38.2879 27.6877 37.903 27.8694 37.5061C28.2204 36.8009 28.6253 36.1234 29.0805 35.4795C29.1774 35.3292 29.2683 35.1788 29.3652 35.0405L29.674 34.6436L30.2433 33.934C30.4006 33.7254 30.5683 33.5246 30.7459 33.3326L31.2182 32.8576L32.0903 31.9916C32.0903 31.9916 31.8178 32.3344 31.3151 32.9478L30.9033 33.4589C30.7459 33.6393 30.6187 33.8679 30.4552 34.1024L29.9344 34.8782L29.668 35.2871L29.4257 35.7381C29.0399 36.3978 28.6999 37.083 28.4084 37.7888C28.257 38.1677 28.0632 38.5465 27.93 38.9615L27.5121 40.2424C26.3873 44.0844 26.4062 48.1676 27.5666 51.9992L27.9845 53.2741C28.1237 53.695 28.3236 54.0679 28.475 54.4467C28.7711 55.1498 29.1171 55.831 29.5105 56.4854L29.7588 56.9364L30.0313 57.3393L30.5339 58.079C30.6974 58.3075 30.8246 58.536 30.9821 58.7164L31.406 59.2216L32.1872 60.1778L31.3333 59.3118ZM33.5679 57.3153L33.1621 56.9244C33.0107 56.78 32.8836 56.5996 32.7261 56.4192L32.2295 55.8179L31.9631 55.4931L31.7148 55.1203C31.3302 54.5766 30.9861 54.0058 30.6853 53.4124C30.5279 53.0876 30.328 52.7689 30.1887 52.4081C30.0495 52.0473 29.9102 51.6804 29.7588 51.3076C29.1865 49.6352 28.8821 47.8839 28.8565 46.1178C28.8698 44.3505 29.1578 42.5959 29.7103 40.9159L30.1342 39.8094C30.2675 39.4486 30.4613 39.1298 30.6127 38.8051C30.9105 38.2087 31.2505 37.634 31.63 37.0852L31.8723 36.7123L32.1387 36.3816C32.3083 36.1651 32.4718 35.9666 32.6292 35.7802C32.7658 35.6026 32.9113 35.432 33.0652 35.269L33.4649 34.8721L34.2158 34.1385L33.5679 34.9623L33.2166 35.3953C33.0834 35.5517 32.9805 35.7501 32.8472 35.9426C32.714 36.135 32.5747 36.3515 32.4294 36.58L32.1993 36.9228L31.9994 37.3077C31.6775 37.8693 31.3942 38.452 31.1516 39.0517C31.0244 39.3764 30.8609 39.6951 30.7519 40.0439C30.6429 40.3927 30.5218 40.7596 30.4068 41.1324C29.47 44.3871 29.4868 47.8395 30.4552 51.0851C30.5763 51.4519 30.6914 51.8127 30.8064 52.1675C30.9215 52.5223 31.085 52.8351 31.2182 53.1598C31.4672 53.7548 31.7544 54.3333 32.0781 54.8917L32.2901 55.2766L32.5142 55.6194L32.9623 56.2448C33.1016 56.4373 33.2106 56.6357 33.3438 56.7921L33.695 57.219L34.3248 58.0489L33.5679 57.3153ZM35.8267 55.3187C35.5701 55.0944 35.333 54.849 35.1181 54.585L34.7064 54.0979L34.4762 53.8393L34.2703 53.5326C33.9441 53.0895 33.6545 52.621 33.4044 52.1315C33.2711 51.8608 33.1076 51.5962 32.9926 51.3076L32.6353 50.3935C32.1513 49.0141 31.8936 47.5664 31.8723 46.1057C31.8839 44.6458 32.1271 43.1967 32.5929 41.812L32.9441 40.8979C33.0592 40.6032 33.2166 40.3386 33.3499 40.074C33.5964 39.5825 33.8798 39.1101 34.1977 38.6608L34.4036 38.3541L34.6216 38.0835L35.0334 37.5903C35.2461 37.3265 35.4789 37.0792 35.7298 36.8507L36.3354 36.2493L35.8085 36.9349C35.5846 37.1907 35.3821 37.4642 35.2029 37.7527L34.8638 38.2759L34.6821 38.5585L34.5186 38.8773C34.2585 39.3407 34.0299 39.8208 33.8343 40.3145C33.7314 40.5792 33.5981 40.8437 33.5134 41.1324C33.4286 41.4211 33.3317 41.7338 33.2409 42.0224C32.4938 44.6876 32.5063 47.5065 33.2772 50.165L33.5618 51.055C33.6526 51.3437 33.7859 51.6083 33.8888 51.8729C34.0907 52.362 34.3233 52.838 34.5852 53.2981L34.7548 53.6168L34.9365 53.8995L35.2817 54.4227C35.4626 54.7062 35.6651 54.9755 35.8872 55.2285C36.2264 55.6675 36.4201 55.9081 36.4201 55.9081L35.8267 55.3187ZM38.0794 53.3222C37.8747 53.1492 37.6844 52.9602 37.5102 52.7569L37.1771 52.378L37.0015 52.1675L36.8319 51.933C36.5717 51.5844 36.3389 51.2165 36.1355 50.8325C36.0125 50.6244 35.9013 50.4095 35.8024 50.189L35.5118 49.4734C35.1262 48.3849 34.9217 47.2414 34.9062 46.0877C34.9254 44.9323 35.1298 43.7874 35.5118 42.696L35.7964 41.9803C35.8933 41.7458 36.0205 41.5353 36.1234 41.3309C36.3238 40.9458 36.5525 40.576 36.8077 40.2243L36.9712 39.9838L37.1529 39.7733L37.4799 39.3945C37.6474 39.1781 37.8338 38.9768 38.037 38.7931L38.5397 38.336L38.14 38.8773C37.9799 39.0849 37.8323 39.3018 37.6979 39.5268L37.4375 39.9417L37.2982 40.1702L37.1771 40.4168C36.9797 40.7815 36.8077 41.1593 36.6624 41.5473C36.5836 41.7518 36.4807 41.9623 36.4141 42.1848L36.2082 42.8824C35.639 44.9574 35.639 47.1458 36.2082 49.2208L36.4201 49.9124C36.4928 50.1409 36.5957 50.3454 36.6745 50.5559C36.8223 50.941 36.9984 51.3149 37.2013 51.6744L37.3285 51.927L37.4678 52.1495L37.7282 52.5644C37.859 52.7993 38.0067 53.0243 38.1702 53.238L38.576 53.7792L38.0794 53.3222ZM47.2115 54.3686C45.4781 54.554 43.7295 54.202 42.2057 53.3609C40.6819 52.5198 39.4577 51.2307 38.7013 49.6709C37.9449 48.111 37.6933 46.3569 37.9812 44.6494C38.2691 42.9418 39.0823 41.3647 40.3091 40.1346C41.5359 38.9045 43.1162 38.0818 44.8328 37.7794C46.5494 37.4771 48.3182 37.71 49.8961 38.446C51.4741 39.1821 52.7839 40.3853 53.6456 41.8903C54.5073 43.3954 54.8786 45.1284 54.7085 46.8514C54.5125 48.7677 53.6607 50.5592 52.2952 51.9272C50.9298 53.2952 49.1333 54.1569 47.2055 54.3686H47.2115ZM55.6896 52.0833L55.514 52.2938L55.187 52.6787C55.013 52.882 54.8248 53.0729 54.6238 53.25L54.1211 53.707L54.5208 53.1598C54.6865 52.9549 54.8363 52.7377 54.9689 52.5103L55.2233 52.0954L55.3626 51.8729L55.4897 51.6203C55.6836 51.2559 55.8554 50.8804 56.0045 50.4957C56.0832 50.2853 56.1801 50.0808 56.2467 49.8523C56.3133 49.6237 56.386 49.3952 56.4526 49.1547C56.7223 48.1193 56.8627 47.0549 56.8705 45.9855C56.8501 44.915 56.6996 43.8509 56.4223 42.8162L56.2104 42.1247C56.1438 41.8961 56.0408 41.6917 55.9621 41.4872C55.8092 41.1023 55.6333 40.7267 55.4352 40.3626L55.3081 40.1161C55.2596 40.0379 55.2112 39.9657 55.1688 39.8876C55.1264 39.8094 54.9871 39.6049 54.9084 39.4786C54.7734 39.2532 54.6216 39.0381 54.4542 38.8352L54.0485 38.2939L54.5572 38.745C54.7612 38.9166 54.9497 39.1058 55.1203 39.3103L55.4534 39.6891L55.6351 39.8996L55.7986 40.1341C56.0588 40.4827 56.2916 40.8506 56.495 41.2346C56.5979 41.4391 56.7312 41.6496 56.8281 41.8781C56.925 42.1066 57.0158 42.3532 57.1187 42.5997C57.924 44.7843 57.9347 47.1796 57.149 49.3712L56.8644 50.0928C56.7736 50.3213 56.6464 50.5318 56.5374 50.7423C56.3401 51.1272 56.1113 51.4953 55.8531 51.8428L55.6896 52.0833ZM58.0029 53.9897L57.5971 54.4828C57.3842 54.7484 57.1492 54.9958 56.8947 55.2225L56.2891 55.8239L56.816 55.1383C57.0365 54.882 57.2389 54.6107 57.4215 54.3265L57.7546 53.7972L57.9423 53.5146C57.9908 53.4124 58.0453 53.3041 58.1058 53.1959C58.3615 52.7332 58.588 52.2552 58.7841 51.7646C58.887 51.494 59.0203 51.2354 59.105 50.9407L59.3836 50.0507C60.1329 47.3855 60.1182 44.5655 59.3412 41.9082L59.0626 41.0181C58.9718 40.7295 58.8386 40.4709 58.7296 40.2063C58.5314 39.7136 58.2987 39.2354 58.0332 38.775L57.8697 38.4623L57.6819 38.1737L57.3428 37.6565C57.1624 37.3707 56.9599 37.0993 56.7372 36.8446L56.2104 36.1651L56.816 36.7665C57.0711 36.9922 57.308 37.2375 57.5245 37.5001L57.9363 37.9873L58.1603 38.2579L58.3662 38.5585C58.6882 39.0054 58.9757 39.4758 59.2261 39.9657C59.3594 40.2303 59.5229 40.4949 59.6379 40.7896C59.753 41.0843 59.8802 41.391 60.0013 41.6977C60.9959 44.4705 61.0109 47.4969 60.0437 50.2792C59.9226 50.5919 59.8014 50.8806 59.6924 51.1933C59.5834 51.506 59.4139 51.7526 59.2867 52.0232C59.0382 52.513 58.7528 52.9834 58.4328 53.4304C58.3682 53.5387 58.3016 53.6409 58.233 53.7371L58.0029 53.9897ZM60.0073 56.2869C59.8723 56.4657 59.7267 56.6364 59.5713 56.7981L59.1716 57.195L58.3965 57.9286L59.0505 57.1108L59.3957 56.6718C59.532 56.4972 59.6574 56.3144 59.7712 56.1245C59.8963 55.9281 60.0356 55.7176 60.189 55.4931L60.4131 55.1443L60.619 54.7594C60.9386 54.1986 61.2217 53.6181 61.4668 53.0215C61.594 52.6968 61.7575 52.378 61.8665 52.0232L62.2056 50.9347C62.6539 49.3121 62.886 47.638 62.8959 45.9554C62.8694 44.2731 62.6231 42.6014 62.1632 40.9821L61.8059 39.9056C61.6969 39.5508 61.5273 39.2321 61.4002 38.9073C61.1493 38.3121 60.8601 37.7336 60.5342 37.1754L60.3283 36.7905L60.0982 36.4477L59.6743 35.8163C59.5592 35.6292 59.4338 35.4485 59.2988 35.2751L58.9476 34.8421L58.2875 34.0242L59.0445 34.7519L59.4502 35.1488C59.6063 35.3095 59.7538 35.4781 59.8923 35.6539L60.3828 36.2553L60.6553 36.5861C60.734 36.7063 60.8188 36.8266 60.8975 36.9529C61.2855 37.4976 61.6316 38.0705 61.9331 38.6668C62.0905 38.9855 62.2843 39.3103 62.4236 39.6651L62.8536 40.7716C64.0479 44.1291 64.065 47.7889 62.902 51.1572C62.7627 51.5361 62.6174 51.909 62.4841 52.2638C62.3509 52.6186 62.1571 52.9493 61.9997 53.2741C61.705 53.8722 61.3649 54.4472 60.9823 54.994L60.7401 55.3668L60.4797 55.6976L60.0073 56.2869ZM61.9089 58.6924L61.4426 59.1615L60.5645 60.0334L61.3396 59.0713L61.7575 58.5661C61.9149 58.3797 62.0421 58.1512 62.1995 57.9226L62.6961 57.1769L62.9686 56.774L63.2108 56.317C63.5922 55.6579 63.9301 54.9749 64.2222 54.2723C64.3735 53.8875 64.5734 53.5086 64.7006 53.0696L65.1124 51.7887C66.2218 47.9568 66.2029 43.8895 65.0578 40.068L64.6339 38.7931C64.5007 38.3781 64.3009 37.9993 64.1434 37.5903C63.8443 36.8897 63.5004 36.2088 63.1139 35.5517C63.0292 35.4014 62.9444 35.251 62.8657 35.1007C62.7869 34.9503 62.6779 34.8301 62.5932 34.6978L62.0845 33.9581C61.9466 33.7378 61.797 33.5251 61.6363 33.3206L61.2185 32.8155C60.7159 32.2141 60.4312 31.8653 60.4312 31.8653L61.3154 32.7253L61.7877 33.1943C61.9711 33.3845 62.143 33.5853 62.3025 33.7957C62.4841 34.0122 62.6779 34.2467 62.9081 34.4993L63.223 34.8842L63.5076 35.3232C63.9602 35.9645 64.365 36.6378 64.7187 37.3378C64.9065 37.7226 65.1305 38.1015 65.294 38.5405C65.4575 38.9795 65.621 39.4005 65.7906 39.8395C67.1746 43.7852 67.1959 48.0762 65.8512 52.0352L65.3606 53.3402C65.2032 53.7612 64.9791 54.14 64.8035 54.543C64.4572 55.2446 64.0626 55.9218 63.6226 56.5696L63.338 57.0086L63.0292 57.3995L62.4599 58.1091C62.2116 58.3135 62.0602 58.53 61.8846 58.7044L61.9089 58.6924ZM66.1479 58.1211C65.4331 59.1936 64.6224 60.2 63.7256 61.1279C63.4107 61.4647 63.12 61.6993 62.9747 61.8676L62.7082 62.1202L62.9444 61.8436C63.1018 61.6572 63.3441 61.3986 63.6226 61.0377C64.4291 60.0424 65.154 58.9846 65.7906 57.8745C66.7358 56.2396 67.478 54.497 68.001 52.6847C69.2995 48.249 69.2764 43.5347 67.9343 39.1118C67.3851 37.3223 66.6227 35.6042 65.6634 33.9941C65.0145 32.8884 64.2795 31.8348 63.4652 30.843C63.1806 30.4882 62.9323 30.2416 62.7809 30.0492L62.5387 29.7725L62.8051 30.0251C62.9747 30.1935 63.2472 30.422 63.5621 30.7588C65.8376 33.0777 67.563 35.8719 68.6126 38.9374C70.1721 43.4739 70.1955 48.3924 68.6792 52.9433C68.072 54.7786 67.2185 56.5242 66.1418 58.1331L66.1479 58.1211Z" fill="url(#paint2_linear_481_757)"/>
<mask id="path-8-outside-1_481_757" maskUnits="userSpaceOnUse" x="0" y="0" width="93" height="92" fill="black">
<rect fill="white" width="93" height="92"/>
<path d="M87.6519 40.0078C86.7422 39.6478 85.9291 39.0829 85.2768 38.3575C84.6245 37.6322 84.1508 36.7663 83.893 35.8281C83.6353 34.8899 83.6005 33.905 83.7915 32.9512C83.9824 31.9974 84.3939 31.1007 84.9935 30.3318C85.7645 29.3422 86.2201 28.1465 86.3021 26.898C86.384 25.6495 86.0884 24.4052 85.4533 23.3247C84.8181 22.2442 83.8724 21.3767 82.7374 20.8337C81.6023 20.2906 80.3298 20.0967 79.083 20.2769C78.1143 20.4185 77.1257 20.3342 76.1954 20.0309C75.2651 19.7275 74.4187 19.2133 73.7231 18.5289C73.0275 17.8446 72.5018 17.0089 72.1877 16.0879C71.8735 15.167 71.7795 14.1861 71.913 13.2228C72.0822 11.9833 71.8747 10.7218 71.3171 9.6002C70.7595 8.47858 69.8772 7.54792 68.7834 6.9276C67.6896 6.30728 66.4341 6.02556 65.178 6.11857C63.9218 6.21158 62.7223 6.67508 61.7333 7.44963C60.9651 8.05215 60.0664 8.46913 59.1082 8.66764C58.1499 8.86615 57.1583 8.84077 56.2117 8.5935C55.265 8.34623 54.3891 7.88384 53.6533 7.24282C52.9174 6.6018 52.3416 5.7997 51.9714 4.89983C51.4941 3.74194 50.6793 2.75208 49.6315 2.05724C48.5838 1.36239 47.3509 0.994252 46.091 1.00007C44.8311 1.00588 43.6017 1.3854 42.5605 2.08989C41.5193 2.79437 40.7138 3.79171 40.2474 4.95395C39.8863 5.85383 39.3202 6.65843 38.5935 7.30465C37.8668 7.95087 36.9993 8.42116 36.0589 8.67865C35.1185 8.93614 34.1309 8.97382 33.1733 8.78877C32.2158 8.60371 31.3145 8.20094 30.54 7.61201C29.5436 6.84638 28.3395 6.39385 27.0823 6.31248C25.825 6.23112 24.572 6.52464 23.4839 7.15537C22.3958 7.78611 21.5223 8.72529 20.9755 9.85243C20.4286 10.9796 20.2334 12.2433 20.4148 13.4814C20.555 14.4435 20.4683 15.4248 20.1616 16.3479C19.8548 17.2711 19.3364 18.1109 18.6471 18.8012C17.9579 19.4915 17.1166 20.0134 16.1896 20.3258C15.2627 20.6383 14.2753 20.7327 13.3053 20.6016C12.0567 20.4319 10.7855 20.637 9.65515 21.1906C8.52486 21.7441 7.58716 22.6208 6.96266 23.7079C6.33816 24.7949 6.05541 26.0427 6.15078 27.2906C6.24615 28.5385 6.71527 29.7296 7.49782 30.7106C8.1044 31.4738 8.524 32.3667 8.72348 33.3185C8.92297 34.2704 8.89687 35.2554 8.64727 36.1955C8.39766 37.1357 7.93138 38.0054 7.28523 38.7358C6.63908 39.4663 5.83077 40.0377 4.92412 40.4047C3.75837 40.8793 2.76199 41.6889 2.06282 42.7297C1.36365 43.7706 0.993577 44.9951 1.00008 46.2462C1.00659 47.4974 1.38938 48.718 2.09934 49.7516C2.8093 50.7852 3.81405 51.5846 4.98468 52.0472C5.89427 52.4065 6.70732 52.9707 7.35967 53.6955C8.01201 54.4203 8.48579 55.2857 8.7436 56.2235C9.00141 57.1613 9.0362 58.1457 8.84523 59.0991C8.65425 60.0525 8.24273 60.9488 7.64316 61.7172C6.86959 62.7056 6.41153 63.9012 6.32791 65.1502C6.24428 66.3993 6.53892 67.6446 7.17391 68.726C7.80891 69.8074 8.75521 70.6753 9.89106 71.2182C11.0269 71.761 12.3003 71.954 13.5475 71.7721C14.5168 71.6319 15.5057 71.7172 16.4361 72.0213C17.3665 72.3255 18.213 72.8401 18.9088 73.5247C19.6047 74.2093 20.1308 75.0451 20.4458 75.9662C20.7607 76.8873 20.8558 77.8684 20.7236 78.8322C20.554 80.0711 20.761 81.3321 21.3183 82.4533C21.8755 83.5746 22.7575 84.5048 23.8509 85.1247C24.9444 85.7445 26.1995 86.0257 27.455 85.9321C28.7106 85.8385 29.9093 85.3744 30.8973 84.5994C31.666 83.9969 32.5651 83.5799 33.5238 83.3814C34.4824 83.1829 35.4744 83.2083 36.4215 83.4555C37.3686 83.7028 38.2449 84.1651 38.9814 84.8061C39.7178 85.4471 40.2943 86.2492 40.6653 87.1492C41.1479 88.2945 41.9621 89.2719 43.0046 89.9574C44.047 90.6429 45.2709 91.0057 46.5212 90.9999C47.7715 90.9941 48.992 90.6199 50.028 89.9248C51.0639 89.2297 51.8689 88.2448 52.3408 87.095C52.7033 86.1916 53.2722 85.3842 54.0026 84.7364C54.733 84.0886 55.605 83.6182 56.5497 83.3622C57.4945 83.1063 58.4862 83.0717 59.4467 83.2614C60.4072 83.451 61.3102 83.8596 62.0845 84.455C63.0805 85.22 64.284 85.6722 65.5405 85.7537C66.797 85.8352 68.0494 85.5422 69.1372 84.9123C70.2249 84.2824 71.0985 83.3443 71.6459 82.2182C72.1933 81.0921 72.3897 79.8293 72.2097 78.5916C72.0674 77.6294 72.1523 76.6476 72.4578 75.7235C72.7633 74.7995 73.281 73.9587 73.97 73.2675C74.6589 72.5763 75.5003 72.0537 76.4276 71.741C77.355 71.4282 78.3428 71.3339 79.3131 71.4654C80.5612 71.6354 81.832 71.4307 82.9621 70.8779C84.0922 70.3251 85.03 69.4494 85.655 68.3632C86.28 67.277 86.5637 66.0301 86.4695 64.7825C86.3754 63.535 85.9077 62.344 85.1267 61.3624C84.52 60.5991 84.1001 59.7062 83.9002 58.7542C83.7004 57.8022 83.7259 56.8171 83.9749 55.8766C84.2238 54.9361 84.6894 54.0658 85.3349 53.3345C85.9803 52.6032 86.788 52.0307 87.6943 51.6623C88.867 51.1938 89.8711 50.3866 90.5768 49.3452C91.2825 48.3037 91.6573 47.076 91.6527 45.8208C91.6481 44.5656 91.2644 43.3405 90.5512 42.3042C89.8379 41.2679 88.828 40.4679 87.6519 40.0078ZM83.7339 45.8411C83.7685 53.1926 81.6072 60.3893 77.5231 66.521C73.4391 72.6527 67.6158 77.4441 60.7896 80.2892C53.9634 83.1344 46.4409 83.9055 39.1734 82.5051C31.9059 81.1047 25.2198 77.5956 19.9606 72.4217C14.7013 67.2478 11.1051 60.6413 9.6268 53.4378C8.14846 46.2342 8.85436 38.7571 11.6552 31.9519C14.4561 25.1468 19.2261 19.3192 25.3622 15.2062C31.4982 11.0932 38.7246 8.87939 46.1276 8.84481C56.0541 8.81122 65.5886 12.6896 72.6389 19.6289C79.6892 26.5682 83.6794 36.0017 83.7339 45.8591V45.8411Z"/>
</mask>
<path d="M87.6519 40.0078C86.7422 39.6478 85.9291 39.0829 85.2768 38.3575C84.6245 37.6322 84.1508 36.7663 83.893 35.8281C83.6353 34.8899 83.6005 33.905 83.7915 32.9512C83.9824 31.9974 84.3939 31.1007 84.9935 30.3318C85.7645 29.3422 86.2201 28.1465 86.3021 26.898C86.384 25.6495 86.0884 24.4052 85.4533 23.3247C84.8181 22.2442 83.8724 21.3767 82.7374 20.8337C81.6023 20.2906 80.3298 20.0967 79.083 20.2769C78.1143 20.4185 77.1257 20.3342 76.1954 20.0309C75.2651 19.7275 74.4187 19.2133 73.7231 18.5289C73.0275 17.8446 72.5018 17.0089 72.1877 16.0879C71.8735 15.167 71.7795 14.1861 71.913 13.2228C72.0822 11.9833 71.8747 10.7218 71.3171 9.6002C70.7595 8.47858 69.8772 7.54792 68.7834 6.9276C67.6896 6.30728 66.4341 6.02556 65.178 6.11857C63.9218 6.21158 62.7223 6.67508 61.7333 7.44963C60.9651 8.05215 60.0664 8.46913 59.1082 8.66764C58.1499 8.86615 57.1583 8.84077 56.2117 8.5935C55.265 8.34623 54.3891 7.88384 53.6533 7.24282C52.9174 6.6018 52.3416 5.7997 51.9714 4.89983C51.4941 3.74194 50.6793 2.75208 49.6315 2.05724C48.5838 1.36239 47.3509 0.994252 46.091 1.00007C44.8311 1.00588 43.6017 1.3854 42.5605 2.08989C41.5193 2.79437 40.7138 3.79171 40.2474 4.95395C39.8863 5.85383 39.3202 6.65843 38.5935 7.30465C37.8668 7.95087 36.9993 8.42116 36.0589 8.67865C35.1185 8.93614 34.1309 8.97382 33.1733 8.78877C32.2158 8.60371 31.3145 8.20094 30.54 7.61201C29.5436 6.84638 28.3395 6.39385 27.0823 6.31248C25.825 6.23112 24.572 6.52464 23.4839 7.15537C22.3958 7.78611 21.5223 8.72529 20.9755 9.85243C20.4286 10.9796 20.2334 12.2433 20.4148 13.4814C20.555 14.4435 20.4683 15.4248 20.1616 16.3479C19.8548 17.2711 19.3364 18.1109 18.6471 18.8012C17.9579 19.4915 17.1166 20.0134 16.1896 20.3258C15.2627 20.6383 14.2753 20.7327 13.3053 20.6016C12.0567 20.4319 10.7855 20.637 9.65515 21.1906C8.52486 21.7441 7.58716 22.6208 6.96266 23.7079C6.33816 24.7949 6.05541 26.0427 6.15078 27.2906C6.24615 28.5385 6.71527 29.7296 7.49782 30.7106C8.1044 31.4738 8.524 32.3667 8.72348 33.3185C8.92297 34.2704 8.89687 35.2554 8.64727 36.1955C8.39766 37.1357 7.93138 38.0054 7.28523 38.7358C6.63908 39.4663 5.83077 40.0377 4.92412 40.4047C3.75837 40.8793 2.76199 41.6889 2.06282 42.7297C1.36365 43.7706 0.993577 44.9951 1.00008 46.2462C1.00659 47.4974 1.38938 48.718 2.09934 49.7516C2.8093 50.7852 3.81405 51.5846 4.98468 52.0472C5.89427 52.4065 6.70732 52.9707 7.35967 53.6955C8.01201 54.4203 8.48579 55.2857 8.7436 56.2235C9.00141 57.1613 9.0362 58.1457 8.84523 59.0991C8.65425 60.0525 8.24273 60.9488 7.64316 61.7172C6.86959 62.7056 6.41153 63.9012 6.32791 65.1502C6.24428 66.3993 6.53892 67.6446 7.17391 68.726C7.80891 69.8074 8.75521 70.6753 9.89106 71.2182C11.0269 71.761 12.3003 71.954 13.5475 71.7721C14.5168 71.6319 15.5057 71.7172 16.4361 72.0213C17.3665 72.3255 18.213 72.8401 18.9088 73.5247C19.6047 74.2093 20.1308 75.0451 20.4458 75.9662C20.7607 76.8873 20.8558 77.8684 20.7236 78.8322C20.554 80.0711 20.761 81.3321 21.3183 82.4533C21.8755 83.5746 22.7575 84.5048 23.8509 85.1247C24.9444 85.7445 26.1995 86.0257 27.455 85.9321C28.7106 85.8385 29.9093 85.3744 30.8973 84.5994C31.666 83.9969 32.5651 83.5799 33.5238 83.3814C34.4824 83.1829 35.4744 83.2083 36.4215 83.4555C37.3686 83.7028 38.2449 84.1651 38.9814 84.8061C39.7178 85.4471 40.2943 86.2492 40.6653 87.1492C41.1479 88.2945 41.9621 89.2719 43.0046 89.9574C44.047 90.6429 45.2709 91.0057 46.5212 90.9999C47.7715 90.9941 48.992 90.6199 50.028 89.9248C51.0639 89.2297 51.8689 88.2448 52.3408 87.095C52.7033 86.1916 53.2722 85.3842 54.0026 84.7364C54.733 84.0886 55.605 83.6182 56.5497 83.3622C57.4945 83.1063 58.4862 83.0717 59.4467 83.2614C60.4072 83.451 61.3102 83.8596 62.0845 84.455C63.0805 85.22 64.284 85.6722 65.5405 85.7537C66.797 85.8352 68.0494 85.5422 69.1372 84.9123C70.2249 84.2824 71.0985 83.3443 71.6459 82.2182C72.1933 81.0921 72.3897 79.8293 72.2097 78.5916C72.0674 77.6294 72.1523 76.6476 72.4578 75.7235C72.7633 74.7995 73.281 73.9587 73.97 73.2675C74.6589 72.5763 75.5003 72.0537 76.4276 71.741C77.355 71.4282 78.3428 71.3339 79.3131 71.4654C80.5612 71.6354 81.832 71.4307 82.9621 70.8779C84.0922 70.3251 85.03 69.4494 85.655 68.3632C86.28 67.277 86.5637 66.0301 86.4695 64.7825C86.3754 63.535 85.9077 62.344 85.1267 61.3624C84.52 60.5991 84.1001 59.7062 83.9002 58.7542C83.7004 57.8022 83.7259 56.8171 83.9749 55.8766C84.2238 54.9361 84.6894 54.0658 85.3349 53.3345C85.9803 52.6032 86.788 52.0307 87.6943 51.6623C88.867 51.1938 89.8711 50.3866 90.5768 49.3452C91.2825 48.3037 91.6573 47.076 91.6527 45.8208C91.6481 44.5656 91.2644 43.3405 90.5512 42.3042C89.8379 41.2679 88.828 40.4679 87.6519 40.0078ZM83.7339 45.8411C83.7685 53.1926 81.6072 60.3893 77.5231 66.521C73.4391 72.6527 67.6158 77.4441 60.7896 80.2892C53.9634 83.1344 46.4409 83.9055 39.1734 82.5051C31.9059 81.1047 25.2198 77.5956 19.9606 72.4217C14.7013 67.2478 11.1051 60.6413 9.6268 53.4378C8.14846 46.2342 8.85436 38.7571 11.6552 31.9519C14.4561 25.1468 19.2261 19.3192 25.3622 15.2062C31.4982 11.0932 38.7246 8.87939 46.1276 8.84481C56.0541 8.81122 65.5886 12.6896 72.6389 19.6289C79.6892 26.5682 83.6794 36.0017 83.7339 45.8591V45.8411Z" fill="url(#paint3_linear_481_757)"/>
<path d="M87.6519 40.0078C86.7422 39.6478 85.9291 39.0829 85.2768 38.3575C84.6245 37.6322 84.1508 36.7663 83.893 35.8281C83.6353 34.8899 83.6005 33.905 83.7915 32.9512C83.9824 31.9974 84.3939 31.1007 84.9935 30.3318C85.7645 29.3422 86.2201 28.1465 86.3021 26.898C86.384 25.6495 86.0884 24.4052 85.4533 23.3247C84.8181 22.2442 83.8724 21.3767 82.7374 20.8337C81.6023 20.2906 80.3298 20.0967 79.083 20.2769C78.1143 20.4185 77.1257 20.3342 76.1954 20.0309C75.2651 19.7275 74.4187 19.2133 73.7231 18.5289C73.0275 17.8446 72.5018 17.0089 72.1877 16.0879C71.8735 15.167 71.7795 14.1861 71.913 13.2228C72.0822 11.9833 71.8747 10.7218 71.3171 9.6002C70.7595 8.47858 69.8772 7.54792 68.7834 6.9276C67.6896 6.30728 66.4341 6.02556 65.178 6.11857C63.9218 6.21158 62.7223 6.67508 61.7333 7.44963C60.9651 8.05215 60.0664 8.46913 59.1082 8.66764C58.1499 8.86615 57.1583 8.84077 56.2117 8.5935C55.265 8.34623 54.3891 7.88384 53.6533 7.24282C52.9174 6.6018 52.3416 5.7997 51.9714 4.89983C51.4941 3.74194 50.6793 2.75208 49.6315 2.05724C48.5838 1.36239 47.3509 0.994252 46.091 1.00007C44.8311 1.00588 43.6017 1.3854 42.5605 2.08989C41.5193 2.79437 40.7138 3.79171 40.2474 4.95395C39.8863 5.85383 39.3202 6.65843 38.5935 7.30465C37.8668 7.95087 36.9993 8.42116 36.0589 8.67865C35.1185 8.93614 34.1309 8.97382 33.1733 8.78877C32.2158 8.60371 31.3145 8.20094 30.54 7.61201C29.5436 6.84638 28.3395 6.39385 27.0823 6.31248C25.825 6.23112 24.572 6.52464 23.4839 7.15537C22.3958 7.78611 21.5223 8.72529 20.9755 9.85243C20.4286 10.9796 20.2334 12.2433 20.4148 13.4814C20.555 14.4435 20.4683 15.4248 20.1616 16.3479C19.8548 17.2711 19.3364 18.1109 18.6471 18.8012C17.9579 19.4915 17.1166 20.0134 16.1896 20.3258C15.2627 20.6383 14.2753 20.7327 13.3053 20.6016C12.0567 20.4319 10.7855 20.637 9.65515 21.1906C8.52486 21.7441 7.58716 22.6208 6.96266 23.7079C6.33816 24.7949 6.05541 26.0427 6.15078 27.2906C6.24615 28.5385 6.71527 29.7296 7.49782 30.7106C8.1044 31.4738 8.524 32.3667 8.72348 33.3185C8.92297 34.2704 8.89687 35.2554 8.64727 36.1955C8.39766 37.1357 7.93138 38.0054 7.28523 38.7358C6.63908 39.4663 5.83077 40.0377 4.92412 40.4047C3.75837 40.8793 2.76199 41.6889 2.06282 42.7297C1.36365 43.7706 0.993577 44.9951 1.00008 46.2462C1.00659 47.4974 1.38938 48.718 2.09934 49.7516C2.8093 50.7852 3.81405 51.5846 4.98468 52.0472C5.89427 52.4065 6.70732 52.9707 7.35967 53.6955C8.01201 54.4203 8.48579 55.2857 8.7436 56.2235C9.00141 57.1613 9.0362 58.1457 8.84523 59.0991C8.65425 60.0525 8.24273 60.9488 7.64316 61.7172C6.86959 62.7056 6.41153 63.9012 6.32791 65.1502C6.24428 66.3993 6.53892 67.6446 7.17391 68.726C7.80891 69.8074 8.75521 70.6753 9.89106 71.2182C11.0269 71.761 12.3003 71.954 13.5475 71.7721C14.5168 71.6319 15.5057 71.7172 16.4361 72.0213C17.3665 72.3255 18.213 72.8401 18.9088 73.5247C19.6047 74.2093 20.1308 75.0451 20.4458 75.9662C20.7607 76.8873 20.8558 77.8684 20.7236 78.8322C20.554 80.0711 20.761 81.3321 21.3183 82.4533C21.8755 83.5746 22.7575 84.5048 23.8509 85.1247C24.9444 85.7445 26.1995 86.0257 27.455 85.9321C28.7106 85.8385 29.9093 85.3744 30.8973 84.5994C31.666 83.9969 32.5651 83.5799 33.5238 83.3814C34.4824 83.1829 35.4744 83.2083 36.4215 83.4555C37.3686 83.7028 38.2449 84.1651 38.9814 84.8061C39.7178 85.4471 40.2943 86.2492 40.6653 87.1492C41.1479 88.2945 41.9621 89.2719 43.0046 89.9574C44.047 90.6429 45.2709 91.0057 46.5212 90.9999C47.7715 90.9941 48.992 90.6199 50.028 89.9248C51.0639 89.2297 51.8689 88.2448 52.3408 87.095C52.7033 86.1916 53.2722 85.3842 54.0026 84.7364C54.733 84.0886 55.605 83.6182 56.5497 83.3622C57.4945 83.1063 58.4862 83.0717 59.4467 83.2614C60.4072 83.451 61.3102 83.8596 62.0845 84.455C63.0805 85.22 64.284 85.6722 65.5405 85.7537C66.797 85.8352 68.0494 85.5422 69.1372 84.9123C70.2249 84.2824 71.0985 83.3443 71.6459 82.2182C72.1933 81.0921 72.3897 79.8293 72.2097 78.5916C72.0674 77.6294 72.1523 76.6476 72.4578 75.7235C72.7633 74.7995 73.281 73.9587 73.97 73.2675C74.6589 72.5763 75.5003 72.0537 76.4276 71.741C77.355 71.4282 78.3428 71.3339 79.3131 71.4654C80.5612 71.6354 81.832 71.4307 82.9621 70.8779C84.0922 70.3251 85.03 69.4494 85.655 68.3632C86.28 67.277 86.5637 66.0301 86.4695 64.7825C86.3754 63.535 85.9077 62.344 85.1267 61.3624C84.52 60.5991 84.1001 59.7062 83.9002 58.7542C83.7004 57.8022 83.7259 56.8171 83.9749 55.8766C84.2238 54.9361 84.6894 54.0658 85.3349 53.3345C85.9803 52.6032 86.788 52.0307 87.6943 51.6623C88.867 51.1938 89.8711 50.3866 90.5768 49.3452C91.2825 48.3037 91.6573 47.076 91.6527 45.8208C91.6481 44.5656 91.2644 43.3405 90.5512 42.3042C89.8379 41.2679 88.828 40.4679 87.6519 40.0078ZM83.7339 45.8411C83.7685 53.1926 81.6072 60.3893 77.5231 66.521C73.4391 72.6527 67.6158 77.4441 60.7896 80.2892C53.9634 83.1344 46.4409 83.9055 39.1734 82.5051C31.9059 81.1047 25.2198 77.5956 19.9606 72.4217C14.7013 67.2478 11.1051 60.6413 9.6268 53.4378C8.14846 46.2342 8.85436 38.7571 11.6552 31.9519C14.4561 25.1468 19.2261 19.3192 25.3622 15.2062C31.4982 11.0932 38.7246 8.87939 46.1276 8.84481C56.0541 8.81122 65.5886 12.6896 72.6389 19.6289C79.6892 26.5682 83.6794 36.0017 83.7339 45.8591V45.8411Z" stroke="white" stroke-width="1.59851" mask="url(#path-8-outside-1_481_757)"/>
<path d="M22.2497 21.6299L23.2731 20.7639L26.5432 23.6204L24.1815 20.0122L25.2049 19.1402L29.1412 23.6745L28.4629 24.2759L25.5016 20.7639L27.924 24.6427L27.3184 25.1599L23.8181 22.1531L26.7976 25.5869L26.192 26.1221L22.2497 21.6299Z" fill="url(#paint4_linear_481_757)"/>
<path d="M30.213 21.215L27.936 17.2519L28.7596 16.7829L31.0729 20.806C31.2849 21.1789 31.5211 21.221 31.7815 21.0766C32.0418 20.9323 32.1206 20.7038 31.9086 20.3309L29.5953 16.3078L30.3886 15.8568L32.6656 19.8258C33.144 20.6557 32.9987 21.3653 32.1932 21.8223C31.3878 22.2794 30.6914 22.0448 30.213 21.215Z" fill="url(#paint5_linear_481_757)"/>
<path d="M34.7003 18.8877L34.5792 18.5629L35.421 18.2562L35.5663 18.6471C35.7116 19.05 35.9418 19.1282 36.2264 19.026C36.511 18.9237 36.6382 18.7133 36.4807 18.2983C36.3233 17.8834 36.0265 17.5947 35.2696 17.3C34.2825 16.9212 33.8707 16.5483 33.6406 15.9049C33.5471 15.732 33.4941 15.5404 33.4854 15.3443C33.4768 15.1482 33.5129 14.9528 33.5908 14.7725C33.6688 14.5922 33.7868 14.4316 33.9359 14.3028C34.085 14.174 34.2614 14.0803 34.452 14.0286C35.318 13.7159 35.9357 14.0707 36.2688 14.9727L36.3536 15.2073L35.5118 15.508L35.4028 15.2193C35.2575 14.8164 35.0395 14.7262 34.7548 14.8284C34.4702 14.9306 34.3673 15.1411 34.5066 15.526C34.6458 15.9109 34.9547 16.1695 35.7177 16.4641C36.6987 16.843 37.0984 17.2098 37.3528 17.9074C37.6919 18.8275 37.4133 19.5071 36.5352 19.8258C35.6571 20.1445 35.0273 19.7837 34.7003 18.8877Z" fill="url(#paint6_linear_481_757)"/>
<path d="M38.576 12.9039L39.5021 12.7115L40.7672 18.5628L39.8411 18.7553L38.576 12.9039Z" fill="url(#paint7_linear_481_757)"/>
<path d="M42.7969 16.8189L42.5668 13.6076C42.5418 13.4198 42.5558 13.229 42.6079 13.0468C42.6599 12.8646 42.7489 12.6949 42.8694 12.5481C42.99 12.4013 43.1394 12.2806 43.3087 12.1933C43.4779 12.1059 43.6633 12.0539 43.8535 12.0404C44.0438 12.0268 44.2348 12.052 44.4148 12.1145C44.5949 12.1769 44.7601 12.2752 44.9005 12.4034C45.0409 12.5316 45.1534 12.687 45.2311 12.8599C45.3088 13.0329 45.3501 13.2198 45.3524 13.4091L45.4009 14.0406L44.5046 14.1067L44.4562 13.4152C44.4562 13.0243 44.226 12.8739 43.9414 12.892C43.6568 12.91 43.4812 13.0904 43.5115 13.4933L43.7476 16.8309C43.7476 17.2218 43.9778 17.3662 44.2624 17.3421C44.547 17.318 44.7226 17.1557 44.6923 16.7407L44.6318 15.8267L45.522 15.7665L45.5825 16.6084C45.6075 16.7962 45.5935 16.987 45.5414 17.1692C45.4894 17.3514 45.4003 17.5211 45.2798 17.6679C45.1593 17.8147 45.0099 17.9355 44.8406 18.0228C44.6714 18.1101 44.486 18.1621 44.2958 18.1757C44.1055 18.1892 43.9145 18.164 43.7345 18.1016C43.5544 18.0391 43.3891 17.9408 43.2488 17.8126C43.1084 17.6844 42.9959 17.5291 42.9182 17.3561C42.8405 17.1832 42.7992 16.9963 42.7969 16.8069V16.8189Z" fill="url(#paint8_linear_481_757)"/>
<path d="M51.8502 12.459L53.2188 12.7356C54.1514 12.916 54.5027 13.5174 54.3149 14.4615L54.1999 15.0629C54.0061 16.001 53.449 16.422 52.5224 16.2356L52.0804 16.1514L51.5959 18.5569L50.6694 18.3765L51.8502 12.459ZM52.6859 15.3756C52.9827 15.4358 53.1704 15.3335 53.2552 14.9126L53.3945 14.215C53.4792 13.794 53.346 13.6136 53.0553 13.5715L52.6133 13.4813L52.2499 15.2854L52.6859 15.3756Z" fill="url(#paint9_linear_481_757)"/>
<path d="M57.5124 13.8602L58.8204 14.3653C59.012 14.4022 59.1918 14.4845 59.3444 14.6052C59.4971 14.7259 59.6181 14.8815 59.6972 15.0586C59.7763 15.2358 59.8111 15.4293 59.7987 15.6227C59.7863 15.8161 59.727 16.0037 59.6258 16.1694L59.4926 16.5122C59.2685 17.1136 58.9415 17.3842 58.4873 17.3902C58.8749 17.6969 58.8567 18.166 58.6085 18.7974L58.2269 19.7776C58.1216 20.0021 58.0638 20.2457 58.0574 20.4933L57.1854 20.1625C57.1975 19.9137 57.2614 19.67 57.3731 19.4469L57.7728 18.4246C57.9726 17.9074 57.8878 17.6789 57.4821 17.5285L57.1793 17.4083L56.2467 19.8137L55.3626 19.471L57.5124 13.8602ZM57.7788 16.7167C58.1119 16.843 58.3844 16.7768 58.5418 16.3318L58.7114 15.8988C58.8628 15.5019 58.7962 15.2975 58.4873 15.1531L58.0816 14.9968L57.476 16.5904L57.7788 16.7167Z" fill="url(#paint10_linear_481_757)"/>
<path d="M60.5585 20.1626L62.1935 17.4685C62.2842 17.2949 62.4098 17.1416 62.5625 17.0181C62.7152 16.8946 62.8917 16.8035 63.0813 16.7504C63.2708 16.6972 63.4693 16.6832 63.6644 16.7092C63.8596 16.7353 64.0474 16.8007 64.2161 16.9016C64.3848 17.0024 64.5309 17.1365 64.6454 17.2957C64.7599 17.4548 64.8404 17.6355 64.8818 17.8267C64.9232 18.0179 64.9248 18.2155 64.8863 18.4073C64.8479 18.5991 64.7702 18.781 64.6582 18.9418L63.0232 21.636C62.9324 21.8096 62.8069 21.9628 62.6542 22.0864C62.5015 22.2099 62.325 22.301 62.1354 22.3541C61.9459 22.4072 61.7474 22.4212 61.5522 22.3952C61.3571 22.3692 61.1693 22.3038 61.0006 22.2029C60.8319 22.1021 60.6858 21.9679 60.5713 21.8088C60.4568 21.6497 60.3763 21.469 60.3349 21.2778C60.2935 21.0866 60.2919 20.889 60.3304 20.6972C60.3688 20.5054 60.4465 20.3235 60.5585 20.1626ZM62.1754 21.203L63.877 18.4066C64.1011 18.0398 64.0224 17.8053 63.768 17.6489C63.5137 17.4925 63.2593 17.5346 63.0413 17.9015L61.3397 20.6979C61.1156 21.0647 61.1943 21.2992 61.4487 21.4556C61.703 21.6119 61.9574 21.5518 62.1754 21.185V21.203Z" fill="url(#paint11_linear_481_757)"/>
<path d="M67.9404 19.5612L69.0304 20.5054C69.745 21.1067 69.7511 21.8164 69.1152 22.538L67.1168 24.8232C67.0116 24.9897 66.8693 25.1301 66.7009 25.2335C66.5325 25.337 66.3425 25.4007 66.1455 25.4199C65.9484 25.439 65.7496 25.4131 65.5642 25.3441C65.3788 25.275 65.2118 25.1647 65.076 25.0216L63.986 24.0775L67.9404 19.5612ZM65.6271 24.3722C65.8572 24.5646 66.0934 24.5706 66.378 24.2459L68.4309 21.9006C68.7156 21.5758 68.6792 21.3413 68.4309 21.1428L68.0676 20.8301L65.2456 24.0595L65.6271 24.3722Z" fill="url(#paint12_linear_481_757)"/>
<path d="M26.5735 67.3821L27.6393 68.206L25.4774 71.9586L28.5961 68.9517L29.668 69.7696L25.974 74.5084L25.2655 73.9611L28.0632 70.3529L24.7265 73.5221L24.1209 73.035L26.3737 69.0359L23.5759 72.6441L22.9219 72.139L26.5735 67.3821Z" fill="url(#paint13_linear_481_757)"/>
<path d="M29.2502 74.8451L31.3758 70.7919L32.2175 71.2248L30.0617 75.3382C29.8618 75.7171 29.9527 75.9396 30.2191 76.0779C30.4856 76.2162 30.7157 76.1621 30.9155 75.7832L33.0714 71.6699L33.8828 72.0848L31.7512 76.1381C31.6752 76.3171 31.5627 76.4785 31.4208 76.6123C31.2789 76.746 31.1106 76.8491 30.9266 76.9151C30.7426 76.9811 30.5468 77.0085 30.3516 76.9956C30.1564 76.9828 29.9659 76.9299 29.7923 76.8404C29.6187 76.7508 29.4656 76.6266 29.3427 76.4754C29.2198 76.3242 29.1298 76.1493 29.0783 75.9619C29.0268 75.7745 29.015 75.5785 29.0435 75.3863C29.072 75.1941 29.1404 75.0098 29.2441 74.8451H29.2502Z" fill="url(#paint14_linear_481_757)"/>
<path d="M34.1735 77.1363L34.2825 76.8116L35.1303 77.0942L34.9971 77.4851C34.8639 77.888 34.9971 78.0865 35.2817 78.1887C35.5663 78.291 35.7965 78.1887 35.9357 77.7738C36.075 77.3588 36.0145 76.9439 35.5966 76.2403C35.0698 75.3322 34.991 74.791 35.1969 74.1415C35.2317 73.9476 35.3103 73.764 35.4267 73.6045C35.5432 73.445 35.6945 73.3138 35.8692 73.2206C36.044 73.1275 36.2378 73.0748 36.436 73.0666C36.6342 73.0584 36.8317 73.0949 37.0137 73.1733C37.8857 73.462 38.1461 74.1235 37.8433 75.0315L37.7646 75.2661L36.9107 74.9894L37.0076 74.6948C37.1469 74.2918 37.0076 74.0934 36.7472 73.9852C36.4868 73.8769 36.2506 73.9851 36.1416 74.382C36.0326 74.7789 36.0932 75.1578 36.505 75.8614C37.0379 76.7695 37.1106 77.2987 36.8865 78.0083C36.8516 78.2027 36.7734 78.3869 36.6575 78.5473C36.5417 78.7078 36.3911 78.8404 36.2169 78.9356C36.0427 79.0307 35.8493 79.086 35.6508 79.0972C35.4523 79.1084 35.2537 79.0754 35.0698 79.0006C34.1069 78.7119 33.8404 78.0444 34.1735 77.1363Z" fill="url(#paint15_linear_481_757)"/>
<path d="M40.1924 74.1234L41.1246 74.2978L39.9866 80.1792L39.0544 79.9988L40.1924 74.1234Z" fill="url(#paint16_linear_481_757)"/>
<path d="M42.8938 79.205L43.0816 75.9937C43.0789 75.8029 43.1159 75.6135 43.1903 75.4374C43.2646 75.2614 43.3747 75.1025 43.5136 74.9706C43.6526 74.8387 43.8174 74.7366 43.9978 74.6707C44.1782 74.6049 44.3704 74.5767 44.5623 74.5879C44.7542 74.5991 44.9417 74.6494 45.1131 74.7357C45.2846 74.8221 45.4362 74.9426 45.5587 75.0898C45.6811 75.2369 45.7717 75.4075 45.8248 75.591C45.8779 75.7745 45.8923 75.9668 45.8672 76.1561L45.8309 76.7574L44.9346 76.7094L44.977 76.0178C44.977 75.6209 44.8196 75.4465 44.535 75.4164C44.2503 75.3863 44.0566 75.5487 44.0323 75.9396L43.8325 79.2772C43.8325 79.6681 43.9899 79.8365 44.2746 79.8785C44.5592 79.9206 44.753 79.7523 44.7772 79.3554L44.8317 78.4473L45.7279 78.4954L45.6734 79.3433C45.6681 79.5284 45.6254 79.7105 45.5478 79.8788C45.4703 80.0472 45.3595 80.1984 45.222 80.3234C45.0846 80.4485 44.9232 80.5449 44.7476 80.6068C44.5719 80.6688 44.3855 80.6952 44.1994 80.6843C44.0133 80.6734 43.8313 80.6256 43.6642 80.5436C43.497 80.4616 43.3482 80.347 43.2264 80.2068C43.1047 80.0666 43.0125 79.9036 42.9554 79.7274C42.8983 79.5512 42.8773 79.3654 42.8938 79.181V79.205Z" fill="url(#paint17_linear_481_757)"/>
<path d="M50.7421 74.4421L52.1107 74.1775C52.302 74.1187 52.5045 74.1049 52.7021 74.1372C52.8997 74.1696 53.0871 74.2471 53.2493 74.3638C53.4114 74.4806 53.544 74.6332 53.6365 74.8096C53.729 74.986 53.7788 75.1814 53.7821 75.3803L53.8971 75.9816C54.0849 76.9258 53.7276 77.5272 52.795 77.7015L52.3529 77.7857L52.8253 80.1912L51.8927 80.3716L50.7421 74.4421ZM52.6315 76.8476C52.9282 76.7875 53.0615 76.6251 52.9767 76.2041L52.8434 75.5066C52.7587 75.0856 52.5709 74.9834 52.2803 75.0435L51.8382 75.1277L52.1894 76.9318L52.6315 76.8476Z" fill="url(#paint18_linear_481_757)"/>
<path d="M55.29 73.4079L56.6101 72.9268C56.7774 72.8263 56.9668 72.7676 57.1619 72.7556C57.357 72.7436 57.5522 72.7787 57.7307 72.8579C57.9093 72.937 58.0658 73.058 58.187 73.2103C58.3083 73.3626 58.3905 73.5419 58.4269 73.7326L58.554 74.0814C58.673 74.2896 58.7208 74.5305 58.6903 74.768C58.6597 75.0054 58.5524 75.2266 58.3845 75.3984C58.881 75.3984 59.1778 75.7352 59.4139 76.3666L59.7834 77.3529C59.8524 77.5906 59.9699 77.8116 60.1285 78.0023L59.2262 78.3331C59.0682 78.1383 58.9527 77.9131 58.8871 77.6716L58.5116 76.6432C58.3179 76.1201 58.0998 76.0118 57.6941 76.1561L57.3913 76.2704L58.2815 78.6759L57.3913 79.0006L55.29 73.4079ZM57.3974 75.3683C57.7305 75.2481 57.8758 75.0316 57.7062 74.5806L57.5488 74.1476C57.3974 73.7447 57.1975 73.6184 56.8826 73.7326L56.4769 73.883L57.0825 75.4886L57.3974 75.3683Z" fill="url(#paint19_linear_481_757)"/>
<path d="M61.9513 75.5968L60.3889 72.8606C60.2819 72.6971 60.2097 72.5135 60.1768 72.3212C60.1438 72.129 60.1507 71.932 60.1972 71.7425C60.2436 71.553 60.3285 71.3749 60.4468 71.2192C60.565 71.0635 60.7141 70.9334 60.8848 70.8369C61.0555 70.7405 61.2442 70.6797 61.4395 70.6583C61.6347 70.6369 61.8322 70.6553 62.02 70.7125C62.2078 70.7697 62.3818 70.8644 62.5314 70.9907C62.681 71.1171 62.803 71.2725 62.89 71.4474L64.4584 74.1897C64.5614 74.3536 64.6298 74.5364 64.6597 74.7273C64.6896 74.9182 64.6802 75.1131 64.6322 75.3003C64.5843 75.4875 64.4986 75.6631 64.3804 75.8166C64.2623 75.97 64.1141 76.0981 63.9447 76.1931C63.7754 76.2882 63.5884 76.3482 63.3951 76.3696C63.2018 76.391 63.0061 76.3733 62.8198 76.3176C62.6336 76.2619 62.4606 76.1693 62.3114 76.0454C62.1621 75.9215 62.0396 75.769 61.9513 75.5968ZM63.6651 74.7068L62.03 71.8804C61.8181 71.5075 61.5759 71.4594 61.3094 71.6098C61.043 71.7601 60.9642 71.9886 61.1762 72.3615L62.7991 75.206C63.0171 75.5788 63.2594 75.6269 63.5198 75.4766C63.7802 75.3262 63.877 75.0797 63.6651 74.7068Z" fill="url(#paint20_linear_481_757)"/>
<path d="M63.8468 69.102L64.9732 68.2C65.1144 68.0616 65.2858 67.9572 65.4741 67.895C65.6623 67.8328 65.8625 67.8143 66.0591 67.8411C66.2557 67.8678 66.4435 67.939 66.608 68.0492C66.7725 68.1594 66.9093 68.3056 67.0079 68.4766L68.9215 70.834C69.5271 71.5797 69.4908 72.2772 68.752 72.8666L67.6256 73.7686L63.8468 69.102ZM68.2009 72.2111C68.4371 72.0247 68.4795 71.7901 68.2009 71.4594L66.2388 69.0539C65.9663 68.7231 65.7301 68.7171 65.494 68.9035L65.1185 69.2042L67.8194 72.5358L68.2009 72.2111Z" fill="url(#paint21_linear_481_757)"/>
<path d="M77.7629 39.0938L73.9962 49.7741L77.7084 47.3506L74.8016 58.8006L81.5538 44.043L77.1936 45.9373L77.7629 39.0938Z" fill="#00E0B8"/>
<path d="M14.8434 39.0938L18.6101 49.7741L14.8979 47.3506L17.7986 58.8006L11.0525 44.043L15.4066 45.9373L14.8434 39.0938Z" fill="#00E0B8"/>
<path d="M103.411 46.4515H105.987V47.2915H103.411V46.4515ZM103.411 44.4215H105.987V45.2335H103.411V44.4215ZM103.411 42.3775H105.987V43.1895H103.411V42.3775ZM100.471 49.1395C101.101 49.7275 101.927 50.5815 102.319 51.0855L103.523 50.0775C103.187 49.6855 102.585 49.0975 102.039 48.5935H107.583V41.0615H101.899V48.4675L101.619 48.2155L100.471 49.1395ZM97.7971 48.7615H99.3791V45.8355C99.8831 46.2975 100.401 46.8015 100.723 47.1515L101.591 45.8215C101.269 45.5555 99.9391 44.6035 99.3791 44.2815V43.7635H101.353V42.3495H99.3791V40.3755H97.7971V42.3495H95.5011V43.7635H97.5311C96.9851 44.9815 96.0751 46.1995 95.1511 46.8855C95.4871 47.1515 95.9771 47.6695 96.2151 48.0335C96.7891 47.5295 97.3211 46.8295 97.7971 46.0035V48.7615ZM96.7751 52.6675C97.2651 51.8555 97.6711 50.6095 97.9511 49.6155L96.4671 49.0275C96.2291 50.0215 95.7531 51.1695 95.2491 51.9115L96.7751 52.6675ZM101.003 51.6875C100.247 51.6875 100.107 51.6315 100.107 51.2115V49.3215H98.4691V51.2395C98.4691 52.6955 98.9451 53.1575 100.849 53.1575H103.369C104.909 53.1575 105.371 52.6675 105.581 50.6655C105.119 50.5815 104.419 50.3435 104.083 50.0775C103.999 51.4915 103.901 51.6875 103.243 51.6875H101.003ZM105.189 49.5175C105.735 50.4555 106.505 51.6875 106.841 52.4295L108.395 51.6315C108.017 50.9035 107.205 49.7135 106.645 48.8455L105.189 49.5175ZM119.777 44.8275C119.441 45.9615 118.979 46.9975 118.433 47.9355C118.195 46.8155 117.999 45.4995 117.873 44.0995H122.199V42.4475H120.743L121.415 41.7335C120.925 41.2715 119.903 40.6275 119.133 40.2355L118.125 41.2295C118.699 41.5795 119.399 42.0275 119.917 42.4475H117.775C117.747 41.7615 117.733 41.0755 117.747 40.3755H115.997C115.997 41.0755 116.025 41.7615 116.053 42.4475H110.341V46.5355C110.341 48.3555 110.243 50.7915 109.179 52.4715C109.557 52.6675 110.299 53.2835 110.593 53.6055C111.741 51.8975 112.035 49.1675 112.091 47.1235H113.911C113.869 48.8875 113.813 49.5595 113.673 49.7555C113.561 49.8955 113.449 49.9235 113.253 49.9235C113.029 49.9235 112.553 49.9095 112.049 49.8675C112.301 50.2875 112.483 50.9315 112.511 51.4215C113.155 51.4355 113.757 51.4355 114.121 51.3795C114.541 51.3095 114.821 51.1835 115.087 50.8195C115.409 50.4135 115.493 49.1675 115.535 46.2275C115.535 46.0315 115.549 45.5975 115.549 45.5975H112.091V44.0995H116.151C116.333 46.1995 116.641 48.1595 117.117 49.7415C116.305 50.6515 115.339 51.4215 114.261 52.0095C114.611 52.3315 115.213 53.0175 115.465 53.3815C116.333 52.8495 117.117 52.2195 117.831 51.4775C118.447 52.6255 119.217 53.3255 120.197 53.3255C121.499 53.3255 122.059 52.7095 122.325 50.1195C121.877 49.9375 121.289 49.5735 120.911 49.1815C120.841 50.9315 120.673 51.6315 120.337 51.6315C119.889 51.6315 119.441 51.0435 119.035 50.0355C120.043 48.6775 120.869 47.0535 121.443 45.2335L119.777 44.8275ZM126.987 50.3575C127.197 51.1835 127.309 52.2615 127.267 52.9475L128.709 52.7655C128.723 52.0655 128.569 51.0015 128.331 50.1895L126.987 50.3575ZM129.101 50.2175C129.381 50.9595 129.661 51.9115 129.745 52.5415L131.075 52.2055C130.977 51.5755 130.697 50.6375 130.403 49.9375L129.101 50.2175ZM133.231 46.7595C133.147 47.1655 133.063 47.5575 132.979 47.8935H127.631C128.009 47.5295 128.359 47.1515 128.681 46.7595H133.231ZM132.139 44.2115C132.069 44.6035 131.985 44.9815 131.901 45.3175H129.759C129.997 44.9535 130.221 44.5895 130.431 44.2115H132.139ZM135.989 47.8935H134.491C134.659 47.1375 134.841 46.1575 134.995 45.3175H133.399C133.581 44.5475 133.791 43.5955 133.931 42.7555H131.187C131.481 42.1255 131.747 41.4815 131.985 40.8235L130.319 40.3615C130.067 41.1735 129.745 41.9715 129.353 42.7555H127.323L128.023 42.4615C127.827 41.8875 127.379 41.0475 126.945 40.4175L125.503 40.9775C125.839 41.5235 126.175 42.2095 126.385 42.7555H124.033V44.2115H128.527C127.239 46.2135 125.475 47.9495 123.165 49.0135C123.445 49.3915 123.837 50.0495 124.033 50.4695C124.383 50.2875 124.733 50.1055 125.069 49.8955C124.817 50.9315 124.299 51.9115 123.557 52.5415L124.859 53.3675C125.741 52.6115 126.217 51.4075 126.497 50.2035L125.223 49.7975C125.475 49.6435 125.713 49.4895 125.937 49.3215H134.267C134.099 50.9175 133.917 51.6175 133.693 51.8415C133.553 51.9675 133.427 51.9955 133.231 51.9955C132.965 51.9955 132.433 51.9955 131.873 51.9255C132.125 52.3455 132.293 52.9615 132.321 53.4095C132.993 53.4375 133.623 53.4235 133.987 53.3815C134.421 53.3255 134.729 53.2135 135.037 52.8635C135.471 52.4155 135.709 51.2395 135.947 48.5235L135.989 47.8935ZM133.217 51.3795C133.077 50.8615 132.685 50.0915 132.307 49.5315L131.159 49.9235C131.509 50.5115 131.873 51.3235 131.985 51.8135L133.217 51.3795ZM146.727 48.4115V49.3355H140.917V48.4115H146.727ZM140.917 51.6035V50.5955H146.727V51.6035H140.917ZM139.251 53.4655H140.917V52.9755H146.727V53.4515H148.477V47.0255H139.251V53.4655ZM145.915 42.9655C145.761 43.5115 145.509 44.1695 145.285 44.6875H142.401C142.303 44.1835 142.023 43.4975 141.687 42.9655H145.915ZM147.105 44.6875C147.329 44.2535 147.567 43.7635 147.805 43.2455L146.517 42.9655H149.415V41.4955H144.907C144.767 41.0755 144.557 40.5995 144.319 40.2075L142.583 40.4875C142.737 40.7815 142.905 41.1455 143.017 41.4955H138.299V42.9655H141.379L140.021 43.2315C140.245 43.6655 140.455 44.2115 140.581 44.6875H137.515V46.1715H150.073V44.6875H147.105ZM155.757 47.2775C155.673 46.5915 155.477 45.5835 155.253 44.7855L154.203 45.0235C154.273 45.3035 154.343 45.6115 154.399 45.9335L153.293 46.0455C154.175 45.0655 155.057 43.9035 155.715 42.7555L154.539 42.1115C154.357 42.5175 154.119 42.9235 153.895 43.3155L153.167 43.3715C153.657 42.6575 154.133 41.7895 154.483 40.9775L153.195 40.5295C152.887 41.5935 152.271 42.6855 152.075 42.9795C151.879 43.2735 151.697 43.4835 151.487 43.5255C151.641 43.8615 151.851 44.4635 151.921 44.7295C152.075 44.6455 152.327 44.5755 153.153 44.4635C152.803 44.9535 152.495 45.3315 152.355 45.4995C152.005 45.9055 151.739 46.1715 151.445 46.2415C151.599 46.5635 151.809 47.2075 151.879 47.4455C152.117 47.3335 152.509 47.2355 154.581 46.9555C154.609 47.1655 154.637 47.3615 154.651 47.5295L155.757 47.2775ZM155.127 49.8395C154.273 50.6515 152.649 51.3515 151.095 51.6595C151.445 51.9815 151.935 52.6255 152.187 53.0315C153.853 52.5695 155.491 51.5475 156.471 50.3435L155.127 49.8395ZM164.087 49.4195V48.0475H158.669V47.3755H157.003V48.0475H151.459V49.4195H157.003V53.3955H158.669V49.4195H164.087ZM159.383 50.7075C160.629 51.3935 162.281 52.4435 163.051 53.1295L164.115 51.9395C163.275 51.2675 161.581 50.2875 160.363 49.6715L159.383 50.7075ZM158.305 43.7355H157.255V42.7975H158.305V43.7355ZM158.305 45.8495H157.255V44.8695H158.305V45.8495ZM158.263 41.5795L158.711 40.5155L157.199 40.2635C157.171 40.6415 157.073 41.1315 156.961 41.5795H155.841V47.0675H159.775V41.5795H158.263ZM162.603 45.2055C162.673 45.4715 162.743 45.7655 162.813 46.0735L161.721 46.1715C162.631 45.2055 163.527 44.0155 164.227 42.8675L163.023 42.1815C162.841 42.5595 162.631 42.9375 162.435 43.2875L161.497 43.3715C161.987 42.6435 162.491 41.7615 162.827 40.8935L161.483 40.5155C161.175 41.5935 160.545 42.7135 160.349 43.0075C160.167 43.3015 159.971 43.5115 159.775 43.5675C159.929 43.9035 160.139 44.5195 160.209 44.7995C160.377 44.7015 160.657 44.6315 161.623 44.4915C161.259 45.0095 160.937 45.4015 160.783 45.5695C160.433 45.9615 160.167 46.2275 159.873 46.2975C160.027 46.6335 160.237 47.2915 160.307 47.5575C160.545 47.4315 160.951 47.3475 163.037 47.1235C163.065 47.3195 163.093 47.5015 163.107 47.6695L164.227 47.3755C164.115 46.7175 163.877 45.7095 163.639 44.9395L162.603 45.2055ZM170.695 40.3755C170.639 42.7415 170.905 49.0135 165.221 52.0515C165.781 52.4295 166.313 52.9615 166.607 53.4095C169.519 51.7015 170.989 49.1675 171.759 46.7035C172.571 49.1115 174.125 51.8415 177.233 53.3255C177.457 52.8495 177.933 52.2895 178.451 51.8835C173.565 49.7275 172.711 44.4495 172.515 42.5595C172.571 41.7195 172.599 40.9635 172.613 40.3755H170.695ZM185.017 44.8835L183.561 46.1575C184.527 46.9835 185.717 48.1875 186.571 49.2375L188.069 47.9495C187.355 47.0815 186.011 45.6955 185.017 44.8835ZM196.735 49.7555V51.3235H195.433V49.7555H196.735ZM198.163 48.4255H193.991V53.2555H195.433V52.6675H198.163V48.4255ZM193.991 47.7535H198.135V46.4935H193.991V47.7535ZM193.991 44.6175V45.8775H198.107V44.6175H193.991ZM197.015 42.1675C196.819 41.6355 196.413 40.8795 196.063 40.2915L194.845 40.9075C195.153 41.4255 195.489 42.1395 195.685 42.6575H193.417V43.9875H198.569V42.6575H196.147L197.015 42.1675ZM201.887 46.9695V48.7755H200.585V46.9695H201.887ZM203.301 50.1755V45.5695H199.199V51.0015H200.585V50.1755H203.301ZM203.707 43.3295H198.849V44.7295H203.707V43.3295ZM205.835 40.9775H198.569V42.5035H204.323V51.4915C204.323 51.7295 204.239 51.8135 204.001 51.8135C203.763 51.8135 202.951 51.8275 202.223 51.7855C202.433 52.2195 202.657 52.9755 202.713 53.4375C203.861 53.4375 204.645 53.3955 205.163 53.1295C205.681 52.8495 205.835 52.4015 205.835 51.5195V40.9775ZM216.223 50.9875V48.6635H217.987V50.9875H216.223ZM209.587 48.6635H211.267V50.9875H209.587V48.6635ZM211.267 44.7435V47.0815H209.587V44.7435H211.267ZM214.585 48.6635V50.9875H212.905V48.6635H214.585ZM214.585 44.7435V47.0815H212.905V44.7435H214.585ZM217.987 44.7435V47.0815H216.223V44.7435H217.987ZM216.223 43.1195V40.5015H214.585V43.1195H212.905V40.5015H211.267V43.1195H208.005V53.3955H209.587V52.6255H217.987V53.3815H219.625V43.1195H216.223ZM224.721 43.3155C225.029 43.0495 225.337 42.7555 225.631 42.4755C226.051 42.7415 226.513 43.0355 226.961 43.3155H224.721ZM227.073 45.9055V46.4515H223.895V46.3675V45.9055H227.073ZM223.839 48.0055C223.853 47.8095 223.867 47.6135 223.867 47.4315H227.073V48.0055H223.839ZM227.465 50.7215V51.7155H224.875V50.7215H227.465ZM227.059 44.2955V43.3855C227.661 43.7775 228.207 44.1415 228.585 44.4495L229.439 43.0495C228.795 42.5875 227.633 41.9015 226.597 41.2995C226.681 41.1875 226.765 41.0755 226.849 40.9495L225.323 40.3475C224.427 41.6915 222.789 42.8395 221.165 43.5255C221.445 43.8895 221.879 44.7295 222.033 45.1215L222.355 44.9535V46.3675C222.355 48.0055 222.243 50.5115 221.137 52.2895C221.543 52.4155 222.271 52.7235 222.593 52.9335C222.999 52.2195 223.293 51.3655 223.489 50.4835V53.3815H224.875V52.9475H227.465V53.3255H228.921V49.5875H223.657C223.685 49.4475 223.699 49.2935 223.727 49.1535H228.585V44.7575H222.677C223.195 44.4635 223.685 44.1135 224.175 43.7495V44.2955H227.059ZM231.273 41.8035H229.705V49.6155H231.273V41.8035ZM232.239 40.4035V51.4215C232.239 51.6595 232.141 51.7295 231.917 51.7295C231.693 51.7295 230.965 51.7295 230.251 51.7155C230.475 52.1775 230.671 52.9195 230.741 53.3815C231.861 53.3815 232.659 53.3255 233.149 53.0455C233.667 52.7795 233.835 52.3315 233.835 51.4355V40.4035H232.239ZM238.315 40.4175C237.615 42.4055 236.397 44.3935 235.123 45.6535C235.417 46.0735 235.893 47.0255 236.047 47.4315C236.327 47.1235 236.621 46.7735 236.915 46.4235V53.4235H238.595V43.8335C239.113 42.8955 239.575 41.9015 239.939 40.9215L238.315 40.4175ZM248.353 44.2255V42.6435H242.921C243.187 42.0695 243.411 41.4955 243.607 40.9075L241.997 40.5015C241.367 42.5035 240.261 44.5195 239.029 45.7795C239.379 46.0455 240.037 46.6335 240.303 46.9415C240.933 46.2135 241.577 45.2615 242.137 44.2255H242.669V53.4375H244.377V50.3295H248.185V48.7895H244.377V47.2075H248.003V45.6955H244.377V44.2255H248.353ZM255.661 43.3155H257.943C257.467 43.7635 256.963 44.1835 256.431 44.5895H255.661V43.3155ZM258.713 49.4335H253.897V48.5375H258.713V49.4335ZM253.897 51.6455V50.6935H258.713V51.6455H253.897ZM262.059 46.0595V44.5895H258.811C259.833 43.6515 260.771 42.6155 261.569 41.5095L260.141 40.7815C259.707 41.3975 259.231 41.9855 258.699 42.5595V41.8735H255.661V40.3615H254.009V41.8735H250.719V43.3155H254.009V44.5895H249.515V46.0595H254.275C252.665 47.0115 250.901 47.8095 249.067 48.3835C249.389 48.7195 249.879 49.3915 250.089 49.7555C250.803 49.4895 251.531 49.1815 252.231 48.8735V53.4515H253.897V53.0315H258.713V53.3955H260.449V47.1795H255.367C255.941 46.8155 256.473 46.4515 257.019 46.0595H262.059ZM269.017 44.8835L267.561 46.1575C268.527 46.9835 269.717 48.1875 270.571 49.2375L272.069 47.9495C271.355 47.0815 270.011 45.6955 269.017 44.8835ZM95.6131 63.8635C95.8231 63.7655 96.1451 63.6815 97.2511 63.5555C96.8451 64.1575 96.4951 64.6195 96.2991 64.8295C95.8931 65.3615 95.5851 65.6835 95.2491 65.7675C95.4031 66.1455 95.6411 66.8455 95.7111 67.1115C96.0191 66.9715 96.4811 66.8455 99.2531 66.3975C99.2811 66.5375 99.3091 66.6635 99.3231 66.7755L100.471 66.2995C100.359 65.6135 99.9671 64.5075 99.5611 63.6815L98.4691 64.0875C98.6371 64.4375 98.7911 64.8435 98.9311 65.2495L97.3771 65.4595C98.4411 64.1855 99.4771 62.6175 100.261 61.1055L99.0431 60.3215C98.7491 60.9795 98.3991 61.6375 98.0491 62.2535L97.0691 62.3235C97.7411 61.3295 98.3851 60.1115 98.8751 58.9495L97.5311 58.4035C97.0411 59.8735 96.1871 61.4275 95.9071 61.8055C95.6411 62.2255 95.4171 62.4915 95.1511 62.5615C95.3191 62.9255 95.5431 63.6115 95.6131 63.8915V63.8635ZM95.6551 67.5595C95.5711 68.6795 95.4031 69.9255 95.0951 70.7515C95.4311 70.8215 96.0191 71.0035 96.2851 71.1575C96.5651 70.3175 96.7891 68.9875 96.8871 67.7555L95.6551 67.5595ZM97.1531 67.7415C97.2931 68.6515 97.4331 69.8415 97.4471 70.6535L98.6371 70.3455C98.5951 69.5475 98.4411 68.3715 98.2731 67.4615L97.1531 67.7415ZM106.015 67.4055V66.3415H106.631V67.4055H106.015ZM104.545 67.4055V66.3415H105.119V67.4055H104.545ZM103.047 67.4055V66.3415H103.649V67.4055H103.047ZM106.099 62.1695V63.0935H102.123C102.123 62.8275 102.123 62.5755 102.123 62.3375V62.1695H106.099ZM107.891 65.0115H102.053L102.081 64.3535H107.569V60.8955H102.123V60.4055C104.027 60.2235 106.057 59.9435 107.611 59.4815L106.407 58.3755C105.049 58.8095 102.725 59.1315 100.653 59.2995V62.3515C100.653 64.0595 100.611 66.4955 100.177 68.6515C100.037 68.1195 99.8691 67.5455 99.6731 67.0555L98.6091 67.4055C98.8471 68.1335 99.1271 69.1135 99.2391 69.7295L99.9951 69.4495C99.9111 69.8555 99.7991 70.2335 99.6591 70.5975C100.009 70.7235 100.695 71.1015 100.975 71.3535C101.409 70.1915 101.689 68.7495 101.857 67.3075V71.4375H103.047V68.6935H103.649V71.2555H104.545V68.6935H105.119V71.1855H106.015V68.6935H106.631V70.1215C106.631 70.2335 106.603 70.2615 106.519 70.2615C106.435 70.2615 106.267 70.2615 106.071 70.2475C106.225 70.5695 106.351 71.0175 106.379 71.3535C106.869 71.3535 107.233 71.3395 107.513 71.1435C107.821 70.9475 107.891 70.6675 107.891 70.1355V65.0115ZM118.223 68.9875V66.6635H119.987V68.9875H118.223ZM111.587 66.6635H113.267V68.9875H111.587V66.6635ZM113.267 62.7435V65.0815H111.587V62.7435H113.267ZM116.585 66.6635V68.9875H114.905V66.6635H116.585ZM116.585 62.7435V65.0815H114.905V62.7435H116.585ZM119.987 62.7435V65.0815H118.223V62.7435H119.987ZM118.223 61.1195V58.5015H116.585V61.1195H114.905V58.5015H113.267V61.1195H110.005V71.3955H111.587V70.6255H119.987V71.3815H121.625V61.1195H118.223ZM129.661 61.3155H131.943C131.467 61.7635 130.963 62.1835 130.431 62.5895H129.661V61.3155ZM132.713 67.4335H127.897V66.5375H132.713V67.4335ZM127.897 69.6455V68.6935H132.713V69.6455H127.897ZM136.059 64.0595V62.5895H132.811C133.833 61.6515 134.771 60.6155 135.569 59.5095L134.141 58.7815C133.707 59.3975 133.231 59.9855 132.699 60.5595V59.8735H129.661V58.3615H128.009V59.8735H124.719V61.3155H128.009V62.5895H123.515V64.0595H128.275C126.665 65.0115 124.901 65.8095 123.067 66.3835C123.389 66.7195 123.879 67.3915 124.089 67.7555C124.803 67.4895 125.531 67.1815 126.231 66.8735V71.4515H127.897V71.0315H132.713V71.3955H134.449V65.1795H129.367C129.941 64.8155 130.473 64.4515 131.019 64.0595H136.059ZM143.017 62.8835L141.561 64.1575C142.527 64.9835 143.717 66.1875 144.571 67.2375L146.069 65.9495C145.355 65.0815 144.011 63.6955 143.017 62.8835ZM161.525 60.9935H157.283V60.2095H161.525V60.9935ZM161.525 62.9395H157.283V62.1555H161.525V62.9395ZM163.261 58.9635H155.617V64.1855H163.261V58.9635ZM155.519 59.9295C154.917 59.5515 153.741 58.9215 152.985 58.5295L152.103 59.7335C152.887 60.1955 154.035 60.8815 154.595 61.3015L155.519 59.9295ZM154.721 63.7095C154.105 63.3455 152.929 62.7295 152.159 62.3655L151.305 63.5835C152.117 64.0315 153.279 64.7035 153.811 65.0955L154.721 63.7095ZM154.329 65.7395C153.531 67.3635 152.495 69.0855 151.781 70.1495L153.125 71.2695C153.937 69.9115 154.791 68.3155 155.505 66.8595L154.329 65.7395ZM157.395 69.3655V67.4055H159.383V66.0055H157.395V64.5635H155.757V69.2115C155.757 69.7015 155.533 69.8275 155.267 69.9255C155.491 70.2895 155.687 71.0315 155.757 71.4655C156.093 71.2415 156.611 71.0455 159.509 70.3875C159.425 70.0375 159.313 69.4075 159.285 68.9875L157.395 69.3655ZM161.735 69.9675C161.399 69.9675 161.357 69.8975 161.357 69.4355V67.4195H163.989V66.0195H161.357V64.5075H159.761V69.4495C159.761 70.9195 160.083 71.3815 161.469 71.3815H162.799C163.877 71.3815 164.297 70.8635 164.451 69.0855C164.017 68.9875 163.359 68.7215 163.037 68.4835C162.995 69.7435 162.939 69.9675 162.631 69.9675H161.735ZM174.727 66.4115V67.3355H168.917V66.4115H174.727ZM168.917 69.6035V68.5955H174.727V69.6035H168.917ZM167.251 71.4655H168.917V70.9755H174.727V71.4515H176.477V65.0255H167.251V71.4655ZM173.915 60.9655C173.761 61.5115 173.509 62.1695 173.285 62.6875H170.401C170.303 62.1835 170.023 61.4975 169.687 60.9655H173.915ZM175.105 62.6875C175.329 62.2535 175.567 61.7635 175.805 61.2455L174.517 60.9655H177.415V59.4955H172.907C172.767 59.0755 172.557 58.5995 172.319 58.2075L170.583 58.4875C170.737 58.7815 170.905 59.1455 171.017 59.4955H166.299V60.9655H169.379L168.021 61.2315C168.245 61.6655 168.455 62.2115 168.581 62.6875H165.515V64.1715H178.073V62.6875H175.105ZM182.931 66.9575V68.6655H181.307V66.9575H182.931ZM182.791 63.2475H181.307V61.8195H182.791V63.2475ZM181.307 64.6475H184.261V60.4195H182.497C182.749 59.8595 183.015 59.1735 183.239 58.5155L181.391 58.3615C181.335 58.9635 181.167 59.7475 180.999 60.4195H179.837V70.9335H181.307V70.0655H184.401V65.5575H181.307V64.6475ZM192.213 60.5175V59.0055H184.639V60.5175H187.663V61.7635H185.115V69.2815H186.627V63.2615H187.663V71.4235H189.217V63.2615H190.323V67.7835C190.323 67.9235 190.281 67.9655 190.155 67.9655C190.043 67.9655 189.693 67.9655 189.343 67.9515C189.539 68.3295 189.735 68.9455 189.763 69.3795C190.477 69.3795 190.967 69.3655 191.359 69.1135C191.765 68.8615 191.863 68.4555 191.863 67.8115V61.7635H189.217V60.5175H192.213ZM199.017 62.8835L197.561 64.1575C198.527 64.9835 199.717 66.1875 200.571 67.2375L202.069 65.9495C201.355 65.0815 200.011 63.6955 199.017 62.8835ZM214.571 65.0535H216.041L215.761 65.2775C215.943 65.3475 216.139 65.4455 216.335 65.5295L214.571 65.5435V65.0535ZM210.469 64.0315V63.4995H212.947V64.0315H210.469ZM210.469 62.0295H212.947V62.5475H210.469V62.0295ZM217.175 62.0295V62.5475H214.571V62.0295H217.175ZM214.571 64.0315V63.4995H217.175V64.0315H214.571ZM220.157 67.1535H217.035V66.5935L218.057 66.5655C218.281 66.7195 218.477 66.8875 218.645 67.0275L219.667 66.1735C219.219 65.8375 218.561 65.4175 217.861 65.0535H218.799V61.0215H214.571V60.5175H219.681V59.2575H214.571V58.3755H212.947V59.2575H207.809V60.5175H212.947V61.0215H208.915V65.0535H212.947V65.5575C211.057 65.5575 209.335 65.5715 208.019 65.5575L208.061 66.7475C210.021 66.7335 212.667 66.6915 215.425 66.6355V67.1535H207.431V68.4695H210.231L209.643 68.9595C210.399 69.4775 211.337 70.2755 211.743 70.8215L212.975 69.7575C212.653 69.3795 212.065 68.8895 211.477 68.4695H215.425V69.7715C215.425 69.9535 215.355 69.9955 215.131 70.0095C214.907 70.0095 214.109 70.0095 213.437 69.9815C213.633 70.4015 213.843 70.9895 213.913 71.4375C214.977 71.4375 215.761 71.4235 216.321 71.2135C216.895 70.9895 217.035 70.5975 217.035 69.8275V68.4695H220.157V67.1535ZM225.435 68.7215C224.581 69.2395 222.957 69.7155 221.557 69.9115C221.893 70.2195 222.327 70.7655 222.537 71.1155C223.979 70.7795 225.659 70.0515 226.611 69.2535L225.435 68.7215ZM229.201 69.4215C230.377 69.9115 232.015 70.6535 232.827 71.1155L234.003 70.2055C233.107 69.7575 231.455 69.0575 230.321 68.6375L229.201 69.4215ZM229.789 61.9455C229.593 62.2815 229.299 62.7015 229.075 63.0235L229.579 63.1775H225.757L226.513 62.9955C226.401 62.7015 226.177 62.2955 225.953 61.9455H229.789ZM228.599 66.8875V66.2715H232.799V65.0675H228.599V64.4375H233.457V63.1775H230.755C231.007 62.9255 231.301 62.6175 231.609 62.2815L230.293 61.9455H233.989V60.6435H232.183C232.533 60.1535 232.911 59.5235 233.303 58.8795L231.553 58.4735C231.357 59.0755 230.979 59.9295 230.657 60.4895L231.161 60.6435H229.915V58.3615H228.347V60.6435H227.297V58.3615H225.757V60.6435H224.469L225.141 60.3915C224.959 59.8595 224.497 59.0195 224.077 58.4315L222.649 58.9075C222.971 59.4395 223.335 60.1115 223.545 60.6435H221.641V61.9455H225.211L224.273 62.1555C224.455 62.4635 224.665 62.8555 224.791 63.1775H222.215V64.4375H226.947V65.0675H222.915V66.2715H226.947V66.8875H221.613V68.2595H226.947V71.4515H228.599V68.2595H234.031V66.8875H228.599ZM238.315 67.5875V68.5115H237.181V67.5875H238.315ZM239.603 69.6595V66.4535H235.837V70.1495H237.181V69.6595H239.603ZM241.717 63.6815C242.109 63.8915 242.683 64.2275 242.963 64.4515H241.717V63.6815ZM245.707 62.5055H244.223V63.5695C244.223 65.2775 243.985 67.9795 241.801 69.9955V69.9395V65.8795H243.103V64.4515H242.991C243.439 63.7655 243.817 62.8555 244.139 61.8475H246.701C246.575 62.7295 246.407 63.6255 246.267 64.2415L247.569 64.6195C247.877 63.6115 248.227 62.0155 248.451 60.6295L247.331 60.3215L247.107 60.3915H244.545C244.685 59.8035 244.797 59.2155 244.895 58.6135L243.313 58.3475C243.047 60.2795 242.515 62.2115 241.717 63.4575V60.2795H242.529V58.8795H235.389V60.2795H240.247V64.4515H235.235V65.8795H240.331V69.9115C240.331 70.0655 240.275 70.1075 240.093 70.1215C239.925 70.1215 239.323 70.1215 238.805 70.0935C238.973 70.4295 239.183 70.9055 239.253 71.2695C240.135 71.2695 240.765 71.2555 241.213 71.0735C241.521 70.9475 241.675 70.7795 241.745 70.4995C242.053 70.7795 242.375 71.1855 242.529 71.4795C243.859 70.3455 244.657 69.0015 245.105 67.6715C245.679 69.1695 246.463 70.3315 247.653 71.4095C247.849 70.9615 248.297 70.4715 248.703 70.1775C247.051 68.8335 246.239 67.2375 245.679 64.6055C245.693 64.2415 245.707 63.9195 245.707 63.5975V62.5055ZM238.147 62.8275H237.083V61.9035H238.147V62.8275ZM235.907 60.8255V63.8915H239.407V60.8255H235.907ZM259.623 60.9515H256.305V60.1115H259.623V60.9515ZM259.623 62.9815H256.305V62.1275H259.623V62.9815ZM261.317 58.8375H254.709V64.2415H261.317V58.8375ZM252.245 61.1055V66.2575H251.251V61.1055H252.245ZM253.771 59.5795H249.753V69.0295H251.251V67.7835H253.771V59.5795ZM255.955 69.5335V68.6095H260.057V69.5335H255.955ZM260.057 66.3975V67.2515H255.955V66.3975H260.057ZM254.303 64.9975V71.4375H255.955V70.9335H260.057V71.3675H261.779V64.9975H254.303ZM276.199 65.5295H270.669V63.8915H275.373V62.2955H270.669V60.4615C272.209 60.2795 273.679 60.0415 274.925 59.7195L273.721 58.3335C271.425 58.9355 267.589 59.3135 264.215 59.4535C264.383 59.8175 264.593 60.4895 264.635 60.9235C266.007 60.8675 267.477 60.7835 268.933 60.6575V62.2955H264.355V63.8915H268.933V65.5295H263.403V67.1535H268.933V69.4075C268.933 69.6875 268.807 69.7855 268.485 69.7995C268.177 69.7995 267.001 69.7995 265.965 69.7575C266.231 70.2055 266.553 70.9335 266.651 71.4095C268.079 71.4235 269.087 71.3815 269.759 71.1295C270.417 70.8635 270.669 70.4295 270.669 69.4355V67.1535H276.199V65.5295Z" fill="black"/>
<path d="M96.1 25.335V26.125H104.93V25.335H96.1ZM96.13 20.905V21.665H104.89V20.905H96.13ZM96.54 22.675V23.415H104.52V22.675H96.54ZM97.04 24.025V24.725H104.04V24.025H97.04ZM100.01 23.025V28.475H100.95V23.025H100.01ZM99.13 19.175V21.285H100.01V19.175H99.13ZM101 19.175V21.235H101.9V19.175H101ZM103.32 19.285C103.16 19.735 102.86 20.375 102.6 20.785L103.37 21.035C103.64 20.645 103.99 20.085 104.3 19.535L103.32 19.285ZM102.05 21.615C101.92 21.885 101.66 22.295 101.47 22.575L102.26 22.815C102.49 22.575 102.77 22.235 103.04 21.875L102.05 21.615ZM96.91 19.545C97.22 20.005 97.55 20.635 97.68 21.035L98.53 20.715C98.4 20.315 98.05 19.705 97.72 19.265L96.91 19.545ZM98.12 21.805C98.32 22.115 98.53 22.535 98.61 22.795L99.53 22.565C99.43 22.295 99.21 21.895 99.01 21.605L98.12 21.805ZM98.94 26.555C98.31 26.965 97.08 27.335 96.05 27.495C96.24 27.665 96.5 27.975 96.62 28.185C97.66 27.955 98.93 27.435 99.63 26.875L98.94 26.555ZM101.5 26.975C102.41 27.325 103.65 27.855 104.27 28.175L104.91 27.625C104.24 27.305 103 26.815 102.11 26.495L101.5 26.975ZM106.62 20.685V21.485H108.51V22.765H106.62V23.575H109.35V20.685H106.62ZM106.65 24.375V25.185H108.6V26.685H106.65V27.485H109.45V24.375H106.65ZM106.26 20.685V28.145H107.11V20.685H106.26ZM109.69 19.685V20.545H115.08V19.685H109.69ZM107.47 19.175C107.39 19.695 107.2 20.415 107.03 20.905L107.78 21.055C108.01 20.605 108.29 19.915 108.51 19.305L107.47 19.175ZM111.93 20.075V28.455H112.82V20.075H111.93ZM110.05 21.635V26.945H110.92V22.485H114.37V21.635H110.05ZM113.92 21.635V26.025C113.92 26.125 113.89 26.155 113.79 26.155C113.7 26.165 113.41 26.165 113.09 26.155C113.21 26.385 113.32 26.735 113.35 26.975C113.87 26.975 114.22 26.965 114.48 26.815C114.74 26.675 114.8 26.435 114.8 26.035V21.635H113.92ZM123.41 19.185C121.83 19.645 118.98 19.905 116.59 20.015C116.68 20.225 116.79 20.605 116.82 20.845C119.25 20.755 122.18 20.495 124.1 19.965L123.41 19.185ZM116.64 22.015V22.925H124.48V22.015H116.64ZM115.96 24.355V25.285H125.06V24.355H115.96ZM120.02 20.405V27.245C120.02 27.445 119.93 27.515 119.71 27.525C119.48 27.525 118.67 27.535 117.87 27.505C118.02 27.755 118.2 28.175 118.26 28.445C119.3 28.455 119.99 28.435 120.41 28.285C120.83 28.135 121 27.865 121 27.255V20.405H120.02ZM129.52 19.685V26.615C129.52 27.915 129.91 28.235 131.19 28.235C131.49 28.235 133.29 28.235 133.61 28.235C134.78 28.235 135.1 27.715 135.24 26.265C134.96 26.205 134.55 26.035 134.32 25.885C134.24 27.045 134.14 27.325 133.55 27.325C133.17 27.325 131.59 27.325 131.27 27.325C130.6 27.325 130.49 27.215 130.49 26.625V19.685H129.52ZM129.97 19.685V20.615H133.73V25.115H134.72V19.685H129.97ZM129.93 23.575V24.475H134.08V23.575H129.93ZM131.66 20.035V23.865H132.54V20.035H131.66ZM125.8 24.405L126.04 25.315C126.95 25.055 128.12 24.725 129.22 24.405L129.1 23.535C127.9 23.865 126.64 24.205 125.8 24.405ZM125.96 21.145V22.035H129.02V21.145H125.96ZM127.1 19.185V27.435C127.1 27.555 127.06 27.595 126.94 27.595C126.83 27.605 126.48 27.605 126.13 27.595C126.24 27.835 126.36 28.225 126.39 28.455C127 28.465 127.39 28.435 127.67 28.285C127.94 28.145 128.04 27.905 128.04 27.425V19.185H127.1ZM143.41 19.185C141.83 19.645 138.98 19.905 136.59 20.015C136.68 20.225 136.79 20.605 136.82 20.845C139.25 20.755 142.18 20.495 144.1 19.965L143.41 19.185ZM136.64 22.015V22.925H144.48V22.015H136.64ZM135.96 24.355V25.285H145.06V24.355H135.96ZM140.02 20.405V27.245C140.02 27.445 139.93 27.515 139.71 27.525C139.48 27.525 138.67 27.535 137.87 27.505C138.02 27.755 138.2 28.175 138.26 28.445C139.3 28.455 139.99 28.435 140.41 28.285C140.83 28.135 141 27.865 141 27.255V20.405H140.02ZM147.3 19.195V28.465H148.13V19.195H147.3ZM145.9 22.535V23.415H149.3V22.535H145.9ZM146.72 23.915C146.56 24.755 146.15 25.785 145.74 26.335C145.88 26.595 146.07 27.015 146.15 27.295C146.7 26.595 147.12 25.215 147.33 24.125L146.72 23.915ZM148.61 23.935L148.11 24.285C148.34 24.685 148.84 25.785 149.02 26.275L149.64 25.585C149.49 25.315 148.81 24.185 148.61 23.935ZM145.92 20.005C146.12 20.685 146.33 21.575 146.41 22.155L147.12 21.965C147.03 21.395 146.81 20.525 146.59 19.845L145.92 20.005ZM148.84 19.855C148.7 20.495 148.42 21.415 148.19 21.985L148.79 22.205C149.04 21.685 149.36 20.825 149.63 20.115L148.84 19.855ZM149.62 19.965V20.665H155.02V19.965H149.62ZM149.87 21.185V21.845H154.83V21.185H149.87ZM149.49 22.415V23.115H155.13V22.415H149.49ZM151.81 19.185V22.795H152.72V19.185H151.81ZM153.71 23.635V27.555C153.71 27.665 153.68 27.705 153.55 27.705C153.42 27.705 153.01 27.705 152.59 27.695C152.7 27.905 152.81 28.235 152.85 28.455C153.48 28.465 153.92 28.455 154.22 28.325C154.51 28.205 154.6 27.975 154.6 27.555V23.635H153.71ZM150.51 24.965V25.615H154.12V24.965H150.51ZM150.51 26.245V26.885H154.12V26.245H150.51ZM150.03 23.635V25.455C150.03 26.245 149.97 27.235 149.37 27.965C149.55 28.075 149.9 28.405 150.03 28.575C150.75 27.735 150.89 26.435 150.89 25.475V23.635H150.03ZM150.54 23.635V24.355H153.99V23.635H150.54ZM156.58 19.865C157.12 20.085 157.81 20.445 158.15 20.705L158.66 19.985C158.3 19.735 157.61 19.405 157.07 19.215L156.58 19.865ZM155.84 21.565C156.37 21.765 157.07 22.115 157.41 22.365L157.9 21.645C157.54 21.405 156.84 21.095 156.32 20.915L155.84 21.565ZM156.1 24.605L156.76 25.325C157.38 24.655 158.04 23.885 158.61 23.185L158.1 22.555C157.44 23.315 156.64 24.125 156.1 24.605ZM155.99 25.755V26.615H165.04V25.755H155.99ZM159.98 25.085V28.475H160.95V25.085H159.98ZM159.82 19.135C159.38 20.125 158.62 21.105 157.82 21.735C158.04 21.865 158.41 22.165 158.57 22.335C159.36 21.625 160.19 20.515 160.71 19.405L159.82 19.135ZM159.35 24.085V24.845H164.79V24.085H159.35ZM159.48 21.595V22.205H164.28V21.595H159.48ZM159.48 22.825V23.435H164.29V22.825H159.48ZM161.59 20.585V24.525H162.49V20.585H161.59ZM161.3 19.465C161.49 19.845 161.7 20.365 161.79 20.675L162.75 20.395C162.64 20.085 162.41 19.585 162.21 19.225L161.3 19.465ZM159.97 20.245H159.57L159.04 20.775V25.255H159.97V20.965H164.64V20.245H159.97ZM174.15 19.245C172.97 19.555 170.87 19.765 169.11 19.865C169.21 20.065 169.31 20.375 169.34 20.585C171.12 20.495 173.3 20.295 174.73 19.935L174.15 19.245ZM169.45 20.945C169.69 21.355 169.93 21.925 170.02 22.275L170.78 21.995C170.68 21.645 170.42 21.105 170.17 20.705L169.45 20.945ZM171.39 20.725C171.55 21.165 171.72 21.755 171.77 22.115L172.56 21.915C172.5 21.555 172.32 20.985 172.13 20.555L171.39 20.725ZM173.89 20.425C173.68 20.995 173.27 21.815 172.95 22.315L173.65 22.565C173.99 22.095 174.41 21.345 174.77 20.695L173.89 20.425ZM169.03 22.285V23.905H169.88V23.065H174.13V23.915H175V22.285H169.03ZM169.54 24.105V24.885H173.82V24.105H169.54ZM173.53 24.105V24.225C172.87 26.185 170.92 27.245 168.63 27.625C168.79 27.825 168.98 28.215 169.05 28.445C171.52 27.935 173.6 26.755 174.42 24.295L173.86 24.065L173.7 24.105H173.53ZM170.66 24.795L169.86 25.025C170.72 26.875 172.28 28.005 174.56 28.475C174.68 28.225 174.93 27.855 175.13 27.665C172.96 27.305 171.39 26.315 170.66 24.795ZM165.74 24.345L165.97 25.265C166.83 24.995 167.93 24.655 168.97 24.325L168.84 23.465C167.71 23.805 166.53 24.145 165.74 24.345ZM165.85 21.155V22.025H168.9V21.155H165.85ZM167.03 19.195V27.425C167.03 27.565 166.99 27.605 166.86 27.605C166.74 27.615 166.37 27.615 165.97 27.595C166.09 27.855 166.2 28.245 166.22 28.475C166.87 28.475 167.27 28.445 167.54 28.295C167.81 28.155 167.91 27.905 167.91 27.425V19.195H167.03ZM179.56 24.305V25.145H184.98V24.305H179.56ZM182.96 24.795L182.28 25.055C182.81 26.155 183.75 27.345 184.61 27.995C184.75 27.765 185.05 27.445 185.26 27.275C184.41 26.755 183.46 25.735 182.96 24.795ZM180.74 21.945H183.83V22.815H180.74V21.945ZM180.74 20.345H183.83V21.205H180.74V20.345ZM179.9 19.585V23.575H184.71V19.585H179.9ZM181.62 24.735C181.12 25.765 180.15 26.815 179.19 27.325C179.39 27.495 179.68 27.835 179.82 28.055C180.82 27.425 181.79 26.215 182.33 24.985L181.62 24.735ZM181.86 19.975V23.215H181.81V28.465H182.73V23.215H182.68V19.975H181.86ZM176.28 22.225V22.955H179.28V22.225H176.28ZM176.28 23.555V24.285H179.28V23.555H176.28ZM175.86 20.865V21.635H179.61V20.865H175.86ZM176.69 24.915V25.685H178.52V27.115H176.69V27.885H179.35V24.915H176.69ZM176.27 24.915V28.335H177.09V24.915H176.27ZM176.97 19.505C177.24 19.925 177.56 20.515 177.7 20.885L178.46 20.455C178.3 20.095 177.99 19.555 177.7 19.145L176.97 19.505ZM189.67 25.865C190.8 25.505 191.5 24.635 191.5 23.535C191.5 22.775 191.17 22.285 190.55 22.285C190.09 22.285 189.69 22.575 189.69 23.085C189.69 23.595 190.08 23.875 190.53 23.875C190.74 23.875 190.94 23.815 191.09 23.655L190.54 22.835L190.68 23.735C190.68 24.415 190.23 24.915 189.4 25.215L189.67 25.865ZM199.22 19.885V20.585H205.01V19.885H199.22ZM199.42 23.155V23.755H204.9V23.155H199.42ZM199.57 24.195V24.795H204.74V24.195H199.57ZM199.11 25.235V25.905H205.12V25.235H199.11ZM200.59 22.535V25.435H201.44V22.535H200.59ZM202.75 22.535V25.435H203.6V22.535H202.75ZM201.53 25.415C201 26.005 199.93 26.445 198.92 26.715C199.06 26.845 199.29 27.165 199.38 27.315C200.43 26.965 201.6 26.385 202.23 25.635L201.53 25.415ZM202.73 25.545L202.02 25.705C202.48 27.035 203.38 28.005 204.76 28.435C204.87 28.225 205.09 27.925 205.27 27.755C204.01 27.445 203.13 26.625 202.73 25.545ZM204.48 25.995C204.13 26.245 203.5 26.605 203.07 26.805L203.5 27.255C203.94 27.065 204.53 26.785 204.98 26.465L204.48 25.995ZM200.29 21.475H201.17V22.135H200.29V21.475ZM199.59 20.935V22.665H201.9V20.935H199.59ZM203.06 21.475H203.97V22.135H203.06V21.475ZM202.36 20.935V22.665H204.71V20.935H202.36ZM201.44 19.305C201.63 19.645 201.82 20.095 201.88 20.385L202.71 20.115C202.64 19.825 202.44 19.395 202.23 19.065L201.44 19.305ZM200.4 28.455C200.4 28.175 201.16 27.565 201.16 27.565V26.365L200.43 26.335V27.005C200.43 27.485 200.17 27.765 200 27.895C200.13 28.015 200.33 28.305 200.4 28.455ZM200.4 28.455C200.57 28.355 200.86 28.265 202.55 27.905C202.52 27.725 202.51 27.415 202.52 27.195L200.72 27.515L200.36 27.785L200.4 28.455ZM196.25 22.235V22.965H198.77V22.235H196.25ZM196.25 23.585V24.315H198.77V23.585H196.25ZM195.84 20.875V21.645H199.07V20.875H195.84ZM196.79 24.945V25.695H198.1V27.155H196.79V27.905H198.8V24.945H196.79ZM196.19 24.945V28.355H196.87V24.945H196.19ZM196.79 19.485C197.03 19.915 197.26 20.495 197.34 20.855L198.05 20.575C197.97 20.225 197.72 19.665 197.47 19.245L196.79 19.485ZM205.99 25.785V26.565H215V25.785H205.99ZM207.89 24.055V24.745H212.47V24.055H207.89ZM210.13 25.425V27.505C210.13 27.635 210.09 27.665 209.93 27.675C209.77 27.675 209.19 27.675 208.63 27.655C208.75 27.885 208.89 28.205 208.94 28.455C209.72 28.455 210.24 28.455 210.6 28.335C210.96 28.205 211.06 27.985 211.06 27.535V25.425H210.13ZM212.24 24.055V24.215C211.79 24.605 210.89 25.135 210.13 25.425C210.25 25.535 210.47 25.765 210.57 25.915C211.48 25.565 212.49 25.035 213.21 24.495L212.66 24.005L212.46 24.055H212.24ZM206.19 22.775V24.705H207.09V23.485H213.89V24.705H214.83V22.775H206.19ZM213.39 19.545C213.34 20.695 213.24 22.205 213.11 23.145H214.02C214.13 22.235 214.23 20.725 214.29 19.545H213.39ZM211.87 19.545V20.165H213.76V19.545H211.87ZM208.76 19.255C208.24 19.425 207.37 19.675 206.78 19.775L207.12 20.305C207.72 20.215 208.57 20.055 209.17 19.815L208.76 19.255ZM207.26 20.625V21.235H209.1V20.625H207.26ZM207.3 21.695V22.315H209.14V21.695H207.3ZM211.93 20.625V21.235H213.67V20.625H211.93ZM211.87 21.695V22.315H213.6V21.695H211.87ZM210.93 19.265C210.55 19.775 209.86 20.245 209.18 20.565C209.33 20.665 209.58 20.885 209.69 21.005C210.37 20.645 211.12 20.065 211.57 19.445L210.93 19.265ZM209.37 19.755C210.02 20.065 210.81 20.555 211.19 20.915L211.66 20.485C211.25 20.135 210.46 19.655 209.82 19.365L209.37 19.755ZM210.95 20.955C210.55 21.495 209.81 21.995 209.1 22.315C209.25 22.425 209.49 22.675 209.6 22.795C210.32 22.415 211.11 21.805 211.59 21.145L210.95 20.955ZM209.33 21.445C210.01 21.795 210.83 22.335 211.22 22.725L211.7 22.285C211.29 21.895 210.45 21.385 209.79 21.065L209.33 21.445ZM206.78 19.775L206.99 23.115H207.87L207.68 20.015L206.78 19.775ZM217.28 24.305V28.495H218.22V25.035H222.84V28.495H223.82V24.305H217.28ZM217.76 25.835V26.565H223.12V25.835H217.76ZM217.81 27.385V28.115H223.14V27.385H217.81ZM219.99 23.375C219.9 23.725 219.68 24.245 219.5 24.605L220.27 24.785C220.49 24.475 220.76 24.015 221 23.535L219.99 23.375ZM216.17 19.675V20.415H219.46V19.675H216.17ZM219.23 19.675V22.985C219.23 23.085 219.19 23.125 219.07 23.125C218.95 23.125 218.56 23.125 218.15 23.115C218.25 23.315 218.37 23.595 218.4 23.805C219.02 23.805 219.44 23.805 219.73 23.695C220 23.575 220.09 23.375 220.09 22.985V19.675H219.23ZM220.68 19.675V20.415H224.15V19.675H220.68ZM223.71 19.675V22.965C223.71 23.085 223.67 23.105 223.54 23.115C223.41 23.125 222.97 23.125 222.54 23.105C222.65 23.315 222.76 23.615 222.8 23.835C223.46 23.845 223.91 23.835 224.21 23.715C224.51 23.585 224.6 23.385 224.6 22.975V19.675H223.71ZM220.42 22.625L220.75 23.335C221.51 23.065 222.47 22.705 223.37 22.365L223.22 21.675C222.19 22.045 221.14 22.405 220.42 22.625ZM220.91 20.985C221.38 21.225 221.96 21.625 222.23 21.915L222.73 21.295C222.44 21.015 221.84 20.645 221.38 20.425L220.91 20.985ZM215.92 22.805L216.27 23.585C216.99 23.305 217.87 22.925 218.72 22.575L218.58 21.875C217.59 22.235 216.6 22.605 215.92 22.805ZM216.52 20.985C216.99 21.245 217.55 21.645 217.82 21.935L218.31 21.325C218.04 21.045 217.46 20.675 217 20.435L216.52 20.985ZM226.17 19.875V20.845H234.83V19.875H226.17ZM231.04 22.985C232.19 23.805 233.68 25.005 234.37 25.785L235.16 25.055C234.42 24.275 232.89 23.135 231.76 22.375L231.04 22.985ZM230.76 20.225C229.87 22.055 228.05 23.985 225.89 25.035C226.09 25.255 226.39 25.635 226.54 25.885C228.82 24.685 230.66 22.685 231.8 20.595L230.76 20.225ZM229.98 22.405V28.455H231.01V21.385L229.98 22.405ZM240.5 24.675V25.535H244.24V24.675H240.5ZM238.18 24.985L237.43 25.285C238.39 27.835 240.19 28.345 242.66 28.345H244.83C244.88 28.075 245.04 27.645 245.17 27.425C244.67 27.435 243.09 27.445 242.71 27.435C240.65 27.435 238.94 27.065 238.18 24.985ZM236.97 20.295V21.165H244.14V20.295H236.97ZM236.09 22.375V23.255H244.9V22.375H236.09ZM239.98 19.195V22.855H240.95V19.195H239.98ZM239.98 22.905V27.385L240.95 27.725V22.905H239.98ZM237.58 23.785C237.43 25.225 236.96 26.965 235.78 27.875C235.99 28.015 236.33 28.305 236.49 28.485C237.75 27.465 238.31 25.565 238.56 23.895L237.58 23.785ZM247.38 26.595V27.195H253.7V26.595H247.38ZM253.51 26.595L253.5 26.705C253.37 27.325 253.23 27.655 253.03 27.775C252.92 27.825 252.79 27.835 252.51 27.835C252.18 27.835 251.23 27.825 250.4 27.755C250.53 27.945 250.62 28.205 250.64 28.385C251.45 28.425 252.32 28.435 252.73 28.425C253.19 28.425 253.48 28.405 253.74 28.255C254.02 28.065 254.21 27.695 254.38 26.985C254.41 26.865 254.44 26.595 254.44 26.595H253.51ZM247.83 25.525V26.125H253.84V24.505H246.92V25.095H252.95V25.525H247.83ZM247.42 25.525C247.27 26.075 247.05 26.735 246.85 27.195H247.75C247.93 26.755 248.14 26.115 248.32 25.525H247.42ZM249.31 20.965V21.415H251.66V20.965H249.31ZM249.31 21.805V22.265H251.66V21.805H249.31ZM249 20.035V20.575H251.96V20.035H249ZM249.88 23.145H251.09V23.675H249.88V23.145ZM249.3 22.665V24.155H251.7V22.665H249.3ZM248.1 21.485C248.34 21.885 248.59 22.425 248.7 22.765L249.23 22.565C249.12 22.245 248.85 21.715 248.61 21.325L248.1 21.485ZM246.32 21.345C246.32 21.185 246.8 20.985 246.8 20.985V20.975C247.19 20.645 247.64 20.085 248.01 19.505L247.34 19.305C247.08 19.835 246.61 20.345 246.48 20.475C246.35 20.605 246.23 20.685 246.09 20.715C246.17 20.875 246.28 21.195 246.32 21.345ZM246.32 21.345C246.45 21.285 246.7 21.245 248.05 21.135C248.06 21.005 248.09 20.785 248.12 20.635L246.63 20.715L246.31 20.885L246.32 21.345ZM246.37 22.735C246.37 22.585 246.86 22.395 246.86 22.395V22.385C247.52 21.905 248.22 21.185 248.85 20.405L248.21 20.145C247.71 20.885 246.96 21.605 246.73 21.775C246.51 21.965 246.33 22.095 246.16 22.115C246.23 22.275 246.33 22.595 246.37 22.735ZM246.37 22.735C246.52 22.665 246.8 22.605 248.69 22.395C248.69 22.275 248.71 22.055 248.74 21.905L246.67 22.105L246.35 22.295L246.37 22.735ZM247.24 23.005C247.36 23.395 247.47 23.925 247.49 24.265L248.07 24.135C248.04 23.805 247.92 23.295 247.79 22.895L247.24 23.005ZM246.45 22.885C246.37 23.315 246.24 23.775 246.03 24.135C246.18 24.195 246.44 24.335 246.55 24.425C246.74 24.055 246.94 23.515 247.04 23.025L246.45 22.885ZM248.19 22.885C248.35 23.215 248.51 23.665 248.56 23.955L249.08 23.775C249.02 23.495 248.85 23.055 248.67 22.735L248.19 22.885ZM249.95 19.385C250.14 19.695 250.31 20.115 250.37 20.395L251 20.175C250.94 19.905 250.74 19.495 250.55 19.205L249.95 19.385ZM253.99 21.535C254.23 21.925 254.46 22.445 254.55 22.775L255.09 22.575C255 22.245 254.74 21.745 254.5 21.365L253.99 21.535ZM252.1 21.385C252.1 21.235 252.56 21.035 252.56 21.035V21.025C252.96 20.685 253.42 20.125 253.77 19.545L253.16 19.325C252.88 19.865 252.41 20.405 252.28 20.535C252.14 20.675 252.02 20.755 251.89 20.775C251.96 20.935 252.06 21.245 252.1 21.385ZM252.1 21.385C252.24 21.325 252.49 21.275 253.91 21.155C253.91 21.035 253.94 20.815 253.97 20.655L252.41 20.755L252.09 20.925L252.1 21.385ZM252.13 22.765C252.13 22.615 252.67 22.425 252.67 22.425V22.415C253.36 21.925 254.08 21.185 254.73 20.395L254.11 20.125C253.56 20.885 252.78 21.625 252.53 21.805C252.3 21.995 252.1 22.125 251.93 22.145C252.01 22.315 252.1 22.625 252.13 22.765ZM252.13 22.765C252.3 22.685 252.58 22.635 254.62 22.405C254.62 22.285 254.64 22.055 254.66 21.905L252.45 22.125L252.12 22.315L252.13 22.765ZM253.09 22.995C253.22 23.395 253.32 23.905 253.33 24.245L253.91 24.115C253.89 23.785 253.78 23.275 253.64 22.885L253.09 22.995ZM252.28 22.915C252.21 23.305 252.1 23.735 251.91 24.065C252.06 24.135 252.32 24.275 252.44 24.355C252.62 24.015 252.78 23.495 252.88 23.045L252.28 22.915ZM254.09 22.895C254.25 23.275 254.43 23.775 254.49 24.095L255.02 23.915C254.94 23.605 254.77 23.115 254.58 22.745L254.09 22.895ZM260.86 27.275V28.095H264.09V27.275H260.86ZM261.32 20.175V20.985H263.92V20.175H261.32ZM260.48 24.795V28.445H261.35V25.605H263.6V28.415H264.5V24.795H260.48ZM263.58 20.175V20.335C262.97 22.375 261.29 23.945 259.5 24.615C259.69 24.795 259.93 25.115 260.04 25.335C262 24.505 263.77 22.875 264.52 20.405L263.92 20.145L263.75 20.175H263.58ZM261.44 19.175C261.07 20.385 260.4 21.535 259.59 22.255C259.81 22.395 260.18 22.705 260.33 22.865C261.15 22.035 261.89 20.755 262.34 19.405L261.44 19.175ZM261.34 20.655L260.71 21.115C261.32 22.575 262.64 24.355 264.69 25.205C264.82 24.965 265.09 24.595 265.28 24.415C263.24 23.695 261.92 22.055 261.34 20.655ZM256.31 23.615V27.245H257.09V23.615H256.31ZM257.17 20.405H258.81V21.955H257.17V20.405ZM256.34 19.585V22.775H259.68V19.585H256.34ZM257.75 22.405V26.935H258.59V22.405H257.75ZM255.82 27.115L255.99 28.035C257.08 27.765 258.55 27.415 259.94 27.075L259.85 26.235C258.38 26.575 256.84 26.925 255.82 27.115ZM258.07 24.095V24.935H259.78V24.095H258.07Z" fill="white"/>
<defs>
<linearGradient id="paint0_linear_481_757" x1="41.3032" y1="39.768" x2="44.9333" y2="47.8234" gradientUnits="userSpaceOnUse">
<stop stop-color="#FFF176"/>
<stop offset="1" stop-color="#00E0B8"/>
</linearGradient>
<linearGradient id="paint1_linear_481_757" x1="41.3093" y1="47.0998" x2="44.9393" y2="55.1552" gradientUnits="userSpaceOnUse">
<stop stop-color="#FFF176"/>
<stop offset="1" stop-color="#00E0B8"/>
</linearGradient>
<linearGradient id="paint2_linear_481_757" x1="28.3681" y1="26.8001" x2="63.9908" y2="65.3988" gradientUnits="userSpaceOnUse">
<stop stop-color="#FFF176"/>
<stop offset="1" stop-color="#00E0B8"/>
</linearGradient>
<linearGradient id="paint3_linear_481_757" x1="15.4906" y1="12.9198" x2="76.7396" y2="79.3027" gradientUnits="userSpaceOnUse">
<stop stop-color="#FFF176"/>
<stop offset="1" stop-color="#00E0B8"/>
</linearGradient>
<linearGradient id="paint4_linear_481_757" x1="23.3513" y1="20.0649" x2="28.1095" y2="25.1185" gradientUnits="userSpaceOnUse">
<stop stop-color="#FFF176"/>
<stop offset="1" stop-color="#00E0B8"/>
</linearGradient>
<linearGradient id="paint5_linear_481_757" x1="28.7357" y1="16.6773" x2="32.9244" y2="20.3166" gradientUnits="userSpaceOnUse">
<stop stop-color="#FFF176"/>
<stop offset="1" stop-color="#00E0B8"/>
</linearGradient>
<linearGradient id="paint6_linear_481_757" x1="34.125" y1="14.7148" x2="38.018" y2="17.5029" gradientUnits="userSpaceOnUse">
<stop stop-color="#FFF176"/>
<stop offset="1" stop-color="#00E0B8"/>
</linearGradient>
<linearGradient id="paint7_linear_481_757" x1="38.9263" y1="13.5119" x2="41.7205" y2="14.602" gradientUnits="userSpaceOnUse">
<stop stop-color="#FFF176"/>
<stop offset="1" stop-color="#00E0B8"/>
</linearGradient>
<linearGradient id="paint8_linear_481_757" x1="43.0406" y1="12.8503" x2="46.5203" y2="14.7033" gradientUnits="userSpaceOnUse">
<stop stop-color="#FFF176"/>
<stop offset="1" stop-color="#00E0B8"/>
</linearGradient>
<linearGradient id="paint9_linear_481_757" x1="51.2599" y1="13.2666" x2="55.0692" y2="15.7499" gradientUnits="userSpaceOnUse">
<stop stop-color="#FFF176"/>
<stop offset="1" stop-color="#00E0B8"/>
</linearGradient>
<linearGradient id="paint10_linear_481_757" x1="56.0721" y1="14.7387" x2="60.367" y2="17.8312" gradientUnits="userSpaceOnUse">
<stop stop-color="#FFF176"/>
<stop offset="1" stop-color="#00E0B8"/>
</linearGradient>
<linearGradient id="paint11_linear_481_757" x1="61.0398" y1="17.453" x2="64.901" y2="20.8075" gradientUnits="userSpaceOnUse">
<stop stop-color="#FFF176"/>
<stop offset="1" stop-color="#00E0B8"/>
</linearGradient>
<linearGradient id="paint12_linear_481_757" x1="64.8801" y1="20.338" x2="68.883" y2="24.4461" gradientUnits="userSpaceOnUse">
<stop stop-color="#FFF176"/>
<stop offset="1" stop-color="#00E0B8"/>
</linearGradient>
<linearGradient id="paint13_linear_481_757" x1="24.0002" y1="68.3259" x2="28.8648" y2="73.2812" gradientUnits="userSpaceOnUse">
<stop stop-color="#FFF176"/>
<stop offset="1" stop-color="#00E0B8"/>
</linearGradient>
<linearGradient id="paint14_linear_481_757" x1="29.8043" y1="71.6139" x2="33.9798" y2="75.1279" gradientUnits="userSpaceOnUse">
<stop stop-color="#FFF176"/>
<stop offset="1" stop-color="#00E0B8"/>
</linearGradient>
<linearGradient id="paint15_linear_481_757" x1="34.6646" y1="73.8646" x2="38.5362" y2="76.5764" gradientUnits="userSpaceOnUse">
<stop stop-color="#FFF176"/>
<stop offset="1" stop-color="#00E0B8"/>
</linearGradient>
<linearGradient id="paint16_linear_481_757" x1="39.3853" y1="74.9255" x2="42.0645" y2="75.9109" gradientUnits="userSpaceOnUse">
<stop stop-color="#FFF176"/>
<stop offset="1" stop-color="#00E0B8"/>
</linearGradient>
<linearGradient id="paint17_linear_481_757" x1="43.3664" y1="75.3936" x2="46.8044" y2="77.207" gradientUnits="userSpaceOnUse">
<stop stop-color="#FFF176"/>
<stop offset="1" stop-color="#00E0B8"/>
</linearGradient>
<linearGradient id="paint18_linear_481_757" x1="51.2541" y1="74.9481" x2="54.8636" y2="76.9383" gradientUnits="userSpaceOnUse">
<stop stop-color="#FFF176"/>
<stop offset="1" stop-color="#00E0B8"/>
</linearGradient>
<linearGradient id="paint19_linear_481_757" x1="56.0634" y1="73.5807" x2="60.2589" y2="77.0771" gradientUnits="userSpaceOnUse">
<stop stop-color="#FFF176"/>
<stop offset="1" stop-color="#00E0B8"/>
</linearGradient>
<linearGradient id="paint20_linear_481_757" x1="60.8789" y1="71.4084" x2="64.7384" y2="74.6854" gradientUnits="userSpaceOnUse">
<stop stop-color="#FFF176"/>
<stop offset="1" stop-color="#00E0B8"/>
</linearGradient>
<linearGradient id="paint21_linear_481_757" x1="64.7255" y1="68.6158" x2="68.7806" y2="72.6542" gradientUnits="userSpaceOnUse">
<stop stop-color="#FFF176"/>
<stop offset="1" stop-color="#00E0B8"/>
</linearGradient>
</defs>
</svg>
