<svg width="268" height="92" viewBox="0 0 268 92" fill="none" xmlns="http://www.w3.org/2000/svg">
<path d="M238.375 5.5H66.25V40.375H238.375V5.5Z" fill="#00E0B8"/>
<path d="M50.5328 87.4672V39.5328H266.467V87.4672H50.5328Z" fill="white" stroke="#00E0B8" stroke-width="1.06567"/>
<path d="M267.368 39.25H253V87.5427H267.368V39.25Z" fill="#00E0B8"/>
<path d="M46.3032 83.2103C66.9789 83.2103 83.7399 66.5657 83.7399 46.0336C83.7399 25.5015 66.9789 8.85693 46.3032 8.85693C25.6274 8.85693 8.86642 25.5015 8.86642 46.0336C8.86642 66.5657 25.6274 83.2103 46.3032 83.2103Z" fill="white"/>
<path d="M46.285 44.8187C46.5798 44.816 46.8655 44.9202 47.0884 45.1117C47.3114 45.3032 47.4564 45.569 47.4962 45.859H53.6004C53.5376 43.9675 52.7346 42.1749 51.362 40.862C49.9894 39.5491 48.1554 38.8195 46.2496 38.8281C44.3439 38.8367 42.5166 39.5829 41.1561 40.9081C39.7956 42.2334 39.009 44.0332 38.9636 45.9252H45.0678C45.0923 45.6221 45.2314 45.3395 45.4573 45.1342C45.6831 44.9289 45.9789 44.8162 46.285 44.8187Z" fill="url(#paint0_linear_481_1426)"/>
<path d="M46.285 47.2604C45.9911 47.2633 45.7062 47.1599 45.4834 46.9696C45.2606 46.7793 45.115 46.515 45.0739 46.2261H38.9697C39.0324 48.1175 39.8355 49.9102 41.2081 51.2231C42.5807 52.536 44.4147 53.2656 46.3204 53.257C48.2262 53.2484 50.0534 52.5022 51.414 51.177C52.7745 49.8517 53.561 48.0519 53.6065 46.1599L47.5083 46.19C47.4752 46.4876 47.3314 46.7622 47.1052 46.9602C46.879 47.1582 46.5865 47.2652 46.285 47.2604Z" fill="url(#paint1_linear_481_1426)"/>
<path d="M46.176 19.868C40.9633 19.8918 35.8749 21.4502 31.5541 24.346C27.2334 27.2418 23.8745 31.345 21.9021 36.1366C19.9297 40.9282 19.4326 46.1931 20.4735 51.2653C21.5144 56.3376 24.0466 60.9894 27.7498 64.6324C31.4531 68.2754 36.161 70.7461 41.2783 71.7319C46.3956 72.7178 51.6924 72.1744 56.4988 70.1707C61.3051 68.167 65.4052 64.7929 68.2804 60.4751C71.1556 56.1573 72.6769 51.0897 72.6518 45.9133C72.6359 42.4767 71.9385 39.0768 70.5993 35.9079C69.2601 32.739 67.3053 29.8631 64.8467 27.4444C62.3882 25.0258 59.4739 23.1119 56.2703 21.8119C53.0667 20.5119 49.6366 19.8514 46.176 19.868ZM29.8254 62.0601C29.6498 61.8917 29.3773 61.6572 29.0624 61.3264C28.1536 60.3978 27.3289 59.3917 26.5977 58.3196C25.5073 56.7188 24.6395 54.9791 24.0179 53.1478C22.4499 48.6127 22.4265 43.6915 23.9513 39.1419C24.5562 37.3019 25.4098 35.552 26.4887 33.94C27.2046 32.8683 28.0152 31.862 28.911 30.9332C29.2198 30.6024 29.5166 30.3679 29.6619 30.1935L29.9284 29.9409L29.6861 30.2236C29.5347 30.41 29.2925 30.6626 29.0079 31.0234C28.2057 32.0239 27.481 33.0834 26.8399 34.1926C25.8958 35.8252 25.1555 37.5659 24.6356 39.3764C23.3393 43.8121 23.3603 48.5252 24.6962 52.9493C25.2365 54.7573 25.995 56.4938 26.955 58.1211C27.6051 59.2241 28.3401 60.2756 29.1532 61.2663C29.4378 61.6211 29.6801 61.8676 29.8375 62.0601L30.0797 62.3367L29.8254 62.0601ZM31.3333 59.3118L30.8609 58.8427C30.6853 58.6804 30.5339 58.4579 30.3462 58.2414L29.7406 57.5318L29.4318 57.1469L29.1411 56.7079C28.6893 56.066 28.2846 55.3928 27.93 54.6933C27.7483 54.3144 27.5182 53.9356 27.3607 53.4906L26.9065 52.2217C25.5142 48.2725 25.4844 43.9757 26.8217 40.0078C26.9852 39.5628 27.1488 39.1298 27.3062 38.7089C27.4637 38.2879 27.6877 37.903 27.8694 37.5061C28.2204 36.8009 28.6253 36.1234 29.0805 35.4795C29.1774 35.3292 29.2683 35.1788 29.3652 35.0405L29.674 34.6436L30.2433 33.934C30.4006 33.7254 30.5683 33.5246 30.7459 33.3326L31.2182 32.8576L32.0903 31.9916C32.0903 31.9916 31.8178 32.3344 31.3151 32.9478L30.9033 33.4589C30.7459 33.6393 30.6187 33.8679 30.4552 34.1024L29.9344 34.8782L29.668 35.2871L29.4257 35.7381C29.0399 36.3978 28.6999 37.083 28.4084 37.7888C28.257 38.1677 28.0632 38.5465 27.93 38.9615L27.5121 40.2424C26.3873 44.0844 26.4062 48.1676 27.5666 51.9992L27.9845 53.2741C28.1237 53.695 28.3236 54.0679 28.475 54.4467C28.7711 55.1498 29.1171 55.831 29.5105 56.4854L29.7588 56.9364L30.0313 57.3393L30.5339 58.079C30.6974 58.3075 30.8246 58.536 30.9821 58.7164L31.406 59.2216L32.1872 60.1778L31.3333 59.3118ZM33.5679 57.3153L33.1621 56.9244C33.0107 56.78 32.8836 56.5996 32.7261 56.4192L32.2295 55.8179L31.9631 55.4931L31.7148 55.1203C31.3302 54.5766 30.9861 54.0058 30.6853 53.4124C30.5279 53.0876 30.328 52.7689 30.1887 52.4081C30.0495 52.0473 29.9102 51.6804 29.7588 51.3076C29.1865 49.6352 28.8821 47.8839 28.8565 46.1178C28.8698 44.3505 29.1578 42.5959 29.7103 40.9159L30.1342 39.8094C30.2675 39.4486 30.4613 39.1298 30.6127 38.8051C30.9105 38.2087 31.2505 37.634 31.63 37.0852L31.8723 36.7123L32.1387 36.3816C32.3083 36.1651 32.4718 35.9666 32.6292 35.7802C32.7658 35.6026 32.9113 35.432 33.0652 35.269L33.4649 34.8721L34.2158 34.1385L33.5679 34.9623L33.2166 35.3953C33.0834 35.5517 32.9805 35.7501 32.8472 35.9426C32.714 36.135 32.5747 36.3515 32.4294 36.58L32.1993 36.9228L31.9994 37.3077C31.6775 37.8693 31.3942 38.452 31.1516 39.0517C31.0244 39.3764 30.8609 39.6951 30.7519 40.0439C30.6429 40.3927 30.5218 40.7596 30.4068 41.1324C29.47 44.3871 29.4868 47.8395 30.4552 51.0851C30.5763 51.4519 30.6914 51.8127 30.8064 52.1675C30.9215 52.5223 31.085 52.8351 31.2182 53.1598C31.4672 53.7548 31.7544 54.3333 32.0781 54.8917L32.2901 55.2766L32.5142 55.6194L32.9623 56.2448C33.1016 56.4373 33.2106 56.6357 33.3438 56.7921L33.695 57.219L34.3248 58.0489L33.5679 57.3153ZM35.8267 55.3187C35.5701 55.0944 35.333 54.849 35.1181 54.585L34.7064 54.0979L34.4762 53.8393L34.2703 53.5326C33.9441 53.0895 33.6545 52.621 33.4044 52.1315C33.2711 51.8608 33.1076 51.5962 32.9926 51.3076L32.6353 50.3935C32.1513 49.0141 31.8936 47.5664 31.8723 46.1057C31.8839 44.6458 32.1271 43.1967 32.5929 41.812L32.9441 40.8979C33.0592 40.6032 33.2166 40.3386 33.3499 40.074C33.5964 39.5825 33.8798 39.1101 34.1977 38.6608L34.4036 38.3541L34.6216 38.0835L35.0334 37.5903C35.2461 37.3265 35.4789 37.0792 35.7298 36.8507L36.3354 36.2493L35.8085 36.9349C35.5846 37.1907 35.3821 37.4642 35.2029 37.7527L34.8638 38.2759L34.6821 38.5585L34.5186 38.8773C34.2585 39.3407 34.0299 39.8208 33.8343 40.3145C33.7314 40.5792 33.5981 40.8437 33.5134 41.1324C33.4286 41.4211 33.3317 41.7338 33.2409 42.0224C32.4938 44.6876 32.5063 47.5065 33.2772 50.165L33.5618 51.055C33.6526 51.3437 33.7859 51.6083 33.8888 51.8729C34.0907 52.362 34.3233 52.838 34.5852 53.2981L34.7548 53.6168L34.9365 53.8995L35.2817 54.4227C35.4626 54.7062 35.6651 54.9755 35.8872 55.2285C36.2264 55.6675 36.4201 55.9081 36.4201 55.9081L35.8267 55.3187ZM38.0794 53.3222C37.8747 53.1492 37.6844 52.9602 37.5102 52.7569L37.1771 52.378L37.0015 52.1675L36.8319 51.933C36.5717 51.5844 36.3389 51.2165 36.1355 50.8325C36.0125 50.6244 35.9013 50.4095 35.8024 50.189L35.5118 49.4734C35.1262 48.3849 34.9217 47.2414 34.9062 46.0877C34.9254 44.9323 35.1298 43.7874 35.5118 42.696L35.7964 41.9803C35.8933 41.7458 36.0205 41.5353 36.1234 41.3309C36.3238 40.9458 36.5525 40.576 36.8077 40.2243L36.9712 39.9838L37.1529 39.7733L37.4799 39.3945C37.6474 39.1781 37.8338 38.9768 38.037 38.7931L38.5397 38.336L38.14 38.8773C37.9799 39.0849 37.8323 39.3018 37.6979 39.5268L37.4375 39.9417L37.2982 40.1702L37.1771 40.4168C36.9797 40.7815 36.8077 41.1593 36.6624 41.5473C36.5836 41.7518 36.4807 41.9623 36.4141 42.1848L36.2082 42.8824C35.639 44.9574 35.639 47.1458 36.2082 49.2208L36.4201 49.9124C36.4928 50.1409 36.5957 50.3454 36.6745 50.5559C36.8223 50.941 36.9984 51.3149 37.2013 51.6744L37.3285 51.927L37.4678 52.1495L37.7282 52.5644C37.859 52.7993 38.0067 53.0243 38.1702 53.238L38.576 53.7792L38.0794 53.3222ZM47.2115 54.3686C45.4781 54.554 43.7295 54.202 42.2057 53.3609C40.6819 52.5198 39.4577 51.2307 38.7013 49.6709C37.9449 48.111 37.6933 46.3569 37.9812 44.6494C38.2691 42.9418 39.0823 41.3647 40.3091 40.1346C41.5359 38.9045 43.1162 38.0818 44.8328 37.7794C46.5494 37.4771 48.3182 37.71 49.8961 38.446C51.4741 39.1821 52.7839 40.3853 53.6456 41.8903C54.5073 43.3954 54.8786 45.1284 54.7085 46.8514C54.5125 48.7677 53.6607 50.5592 52.2952 51.9272C50.9298 53.2952 49.1333 54.1569 47.2055 54.3686H47.2115ZM55.6896 52.0833L55.514 52.2938L55.187 52.6787C55.013 52.882 54.8248 53.0729 54.6238 53.25L54.1211 53.707L54.5208 53.1598C54.6865 52.9549 54.8363 52.7377 54.9689 52.5103L55.2233 52.0954L55.3626 51.8729L55.4897 51.6203C55.6836 51.2559 55.8554 50.8804 56.0045 50.4957C56.0832 50.2853 56.1801 50.0808 56.2467 49.8523C56.3133 49.6237 56.386 49.3952 56.4526 49.1547C56.7223 48.1193 56.8627 47.0549 56.8705 45.9855C56.8501 44.915 56.6996 43.8509 56.4223 42.8162L56.2104 42.1247C56.1438 41.8961 56.0408 41.6917 55.9621 41.4872C55.8092 41.1023 55.6333 40.7267 55.4352 40.3626L55.3081 40.1161C55.2596 40.0379 55.2112 39.9657 55.1688 39.8876C55.1264 39.8094 54.9871 39.6049 54.9084 39.4786C54.7734 39.2532 54.6216 39.0381 54.4542 38.8352L54.0485 38.2939L54.5572 38.745C54.7612 38.9166 54.9497 39.1058 55.1203 39.3103L55.4534 39.6891L55.6351 39.8996L55.7986 40.1341C56.0588 40.4827 56.2916 40.8506 56.495 41.2346C56.5979 41.4391 56.7312 41.6496 56.8281 41.8781C56.925 42.1066 57.0158 42.3532 57.1187 42.5997C57.924 44.7843 57.9347 47.1796 57.149 49.3712L56.8644 50.0928C56.7736 50.3213 56.6464 50.5318 56.5374 50.7423C56.3401 51.1272 56.1113 51.4953 55.8531 51.8428L55.6896 52.0833ZM58.0029 53.9897L57.5971 54.4828C57.3842 54.7484 57.1492 54.9958 56.8947 55.2225L56.2891 55.8239L56.816 55.1383C57.0365 54.882 57.2389 54.6107 57.4215 54.3265L57.7546 53.7972L57.9423 53.5146C57.9908 53.4124 58.0453 53.3041 58.1058 53.1959C58.3615 52.7332 58.588 52.2552 58.7841 51.7646C58.887 51.494 59.0203 51.2354 59.105 50.9407L59.3836 50.0507C60.1329 47.3855 60.1182 44.5655 59.3412 41.9082L59.0626 41.0181C58.9718 40.7295 58.8386 40.4709 58.7296 40.2063C58.5314 39.7136 58.2987 39.2354 58.0332 38.775L57.8697 38.4623L57.6819 38.1737L57.3428 37.6565C57.1624 37.3707 56.9599 37.0993 56.7372 36.8446L56.2104 36.1651L56.816 36.7665C57.0711 36.9922 57.308 37.2375 57.5245 37.5001L57.9363 37.9873L58.1603 38.2579L58.3662 38.5585C58.6882 39.0054 58.9757 39.4758 59.2261 39.9657C59.3594 40.2303 59.5229 40.4949 59.6379 40.7896C59.753 41.0843 59.8802 41.391 60.0013 41.6977C60.9959 44.4705 61.0109 47.4969 60.0437 50.2792C59.9226 50.5919 59.8014 50.8806 59.6924 51.1933C59.5834 51.506 59.4139 51.7526 59.2867 52.0232C59.0382 52.513 58.7528 52.9834 58.4328 53.4304C58.3682 53.5387 58.3016 53.6409 58.233 53.7371L58.0029 53.9897ZM60.0073 56.2869C59.8723 56.4657 59.7267 56.6364 59.5713 56.7981L59.1716 57.195L58.3965 57.9286L59.0505 57.1108L59.3957 56.6718C59.532 56.4972 59.6574 56.3144 59.7712 56.1245C59.8963 55.9281 60.0356 55.7176 60.189 55.4931L60.4131 55.1443L60.619 54.7594C60.9386 54.1986 61.2217 53.6181 61.4668 53.0215C61.594 52.6968 61.7575 52.378 61.8665 52.0232L62.2056 50.9347C62.6539 49.3121 62.886 47.638 62.8959 45.9554C62.8694 44.2731 62.6231 42.6014 62.1632 40.9821L61.8059 39.9056C61.6969 39.5508 61.5273 39.2321 61.4002 38.9073C61.1493 38.3121 60.8601 37.7336 60.5342 37.1754L60.3283 36.7905L60.0982 36.4477L59.6743 35.8163C59.5592 35.6292 59.4338 35.4485 59.2988 35.2751L58.9476 34.8421L58.2875 34.0242L59.0445 34.7519L59.4502 35.1488C59.6063 35.3095 59.7538 35.4781 59.8923 35.6539L60.3828 36.2553L60.6553 36.5861C60.734 36.7063 60.8188 36.8266 60.8975 36.9529C61.2855 37.4976 61.6316 38.0705 61.9331 38.6668C62.0905 38.9855 62.2843 39.3103 62.4236 39.6651L62.8536 40.7716C64.0479 44.1291 64.065 47.7889 62.902 51.1572C62.7627 51.5361 62.6174 51.909 62.4841 52.2638C62.3509 52.6186 62.1571 52.9493 61.9997 53.2741C61.705 53.8722 61.3649 54.4472 60.9823 54.994L60.7401 55.3668L60.4797 55.6976L60.0073 56.2869ZM61.9089 58.6924L61.4426 59.1615L60.5645 60.0334L61.3396 59.0713L61.7575 58.5661C61.9149 58.3797 62.0421 58.1512 62.1995 57.9226L62.6961 57.1769L62.9686 56.774L63.2108 56.317C63.5922 55.6579 63.9301 54.9749 64.2222 54.2723C64.3735 53.8875 64.5734 53.5086 64.7006 53.0696L65.1124 51.7887C66.2218 47.9568 66.2029 43.8895 65.0578 40.068L64.6339 38.7931C64.5007 38.3781 64.3009 37.9993 64.1434 37.5903C63.8443 36.8897 63.5004 36.2088 63.1139 35.5517C63.0292 35.4014 62.9444 35.251 62.8657 35.1007C62.7869 34.9503 62.6779 34.8301 62.5932 34.6978L62.0845 33.9581C61.9466 33.7378 61.797 33.5251 61.6363 33.3206L61.2185 32.8155C60.7159 32.2141 60.4312 31.8653 60.4312 31.8653L61.3154 32.7253L61.7877 33.1943C61.9711 33.3845 62.143 33.5853 62.3025 33.7957C62.4841 34.0122 62.6779 34.2467 62.9081 34.4993L63.223 34.8842L63.5076 35.3232C63.9602 35.9645 64.365 36.6378 64.7187 37.3378C64.9065 37.7226 65.1305 38.1015 65.294 38.5405C65.4575 38.9795 65.621 39.4005 65.7906 39.8395C67.1746 43.7852 67.1959 48.0762 65.8512 52.0352L65.3606 53.3402C65.2032 53.7612 64.9791 54.14 64.8035 54.543C64.4572 55.2446 64.0626 55.9218 63.6226 56.5696L63.338 57.0086L63.0292 57.3995L62.4599 58.1091C62.2116 58.3135 62.0602 58.53 61.8846 58.7044L61.9089 58.6924ZM66.1479 58.1211C65.4331 59.1936 64.6224 60.2 63.7256 61.1279C63.4107 61.4647 63.12 61.6993 62.9747 61.8676L62.7082 62.1202L62.9444 61.8436C63.1018 61.6572 63.3441 61.3986 63.6226 61.0377C64.4291 60.0424 65.154 58.9846 65.7906 57.8745C66.7358 56.2396 67.478 54.497 68.001 52.6847C69.2995 48.249 69.2764 43.5347 67.9343 39.1118C67.3851 37.3223 66.6227 35.6042 65.6634 33.9941C65.0145 32.8884 64.2795 31.8348 63.4652 30.843C63.1806 30.4882 62.9323 30.2416 62.7809 30.0492L62.5387 29.7725L62.8051 30.0251C62.9747 30.1935 63.2472 30.422 63.5621 30.7588C65.8376 33.0777 67.563 35.8719 68.6126 38.9374C70.1721 43.4739 70.1955 48.3924 68.6792 52.9433C68.072 54.7786 67.2185 56.5242 66.1418 58.1331L66.1479 58.1211Z" fill="url(#paint2_linear_481_1426)"/>
<mask id="path-8-outside-1_481_1426" maskUnits="userSpaceOnUse" x="0" y="0" width="93" height="92" fill="black">
<rect fill="white" width="93" height="92"/>
<path d="M87.6519 40.0078C86.7422 39.6478 85.9291 39.0829 85.2768 38.3575C84.6245 37.6322 84.1508 36.7663 83.893 35.8281C83.6353 34.8899 83.6005 33.905 83.7915 32.9512C83.9824 31.9974 84.3939 31.1007 84.9935 30.3318C85.7645 29.3422 86.2201 28.1465 86.3021 26.898C86.384 25.6495 86.0884 24.4052 85.4533 23.3247C84.8181 22.2442 83.8724 21.3767 82.7374 20.8337C81.6023 20.2906 80.3298 20.0967 79.083 20.2769C78.1143 20.4185 77.1257 20.3342 76.1954 20.0309C75.2651 19.7275 74.4187 19.2133 73.7231 18.5289C73.0275 17.8446 72.5018 17.0089 72.1877 16.0879C71.8735 15.167 71.7795 14.1861 71.913 13.2228C72.0822 11.9833 71.8747 10.7218 71.3171 9.6002C70.7595 8.47858 69.8772 7.54792 68.7834 6.9276C67.6896 6.30728 66.4341 6.02556 65.178 6.11857C63.9218 6.21158 62.7223 6.67508 61.7333 7.44963C60.9651 8.05215 60.0664 8.46913 59.1082 8.66764C58.1499 8.86615 57.1583 8.84077 56.2117 8.5935C55.265 8.34623 54.3891 7.88384 53.6533 7.24282C52.9174 6.6018 52.3416 5.7997 51.9714 4.89983C51.4941 3.74194 50.6793 2.75208 49.6315 2.05724C48.5838 1.36239 47.3509 0.994252 46.091 1.00007C44.8311 1.00588 43.6017 1.3854 42.5605 2.08989C41.5193 2.79437 40.7138 3.79171 40.2474 4.95395C39.8863 5.85383 39.3202 6.65843 38.5935 7.30465C37.8668 7.95087 36.9993 8.42116 36.0589 8.67865C35.1185 8.93614 34.1309 8.97382 33.1733 8.78877C32.2158 8.60371 31.3145 8.20094 30.54 7.61201C29.5436 6.84638 28.3395 6.39385 27.0823 6.31248C25.825 6.23112 24.572 6.52464 23.4839 7.15537C22.3958 7.78611 21.5223 8.72529 20.9755 9.85243C20.4286 10.9796 20.2334 12.2433 20.4148 13.4814C20.555 14.4435 20.4683 15.4248 20.1616 16.3479C19.8548 17.2711 19.3364 18.1109 18.6471 18.8012C17.9579 19.4915 17.1166 20.0134 16.1896 20.3258C15.2627 20.6383 14.2753 20.7327 13.3053 20.6016C12.0567 20.4319 10.7855 20.637 9.65515 21.1906C8.52486 21.7441 7.58716 22.6208 6.96266 23.7079C6.33816 24.7949 6.05541 26.0427 6.15078 27.2906C6.24615 28.5385 6.71527 29.7296 7.49782 30.7106C8.1044 31.4738 8.524 32.3667 8.72348 33.3185C8.92297 34.2704 8.89687 35.2554 8.64727 36.1955C8.39766 37.1357 7.93138 38.0054 7.28523 38.7358C6.63908 39.4663 5.83077 40.0377 4.92412 40.4047C3.75837 40.8793 2.76199 41.6889 2.06282 42.7297C1.36365 43.7706 0.993577 44.9951 1.00008 46.2462C1.00659 47.4974 1.38938 48.718 2.09934 49.7516C2.8093 50.7852 3.81405 51.5846 4.98468 52.0472C5.89427 52.4065 6.70732 52.9707 7.35967 53.6955C8.01201 54.4203 8.48579 55.2857 8.7436 56.2235C9.00141 57.1613 9.0362 58.1457 8.84523 59.0991C8.65425 60.0525 8.24273 60.9488 7.64316 61.7172C6.86959 62.7056 6.41153 63.9012 6.32791 65.1502C6.24428 66.3993 6.53892 67.6446 7.17391 68.726C7.80891 69.8074 8.75521 70.6753 9.89106 71.2182C11.0269 71.761 12.3003 71.954 13.5475 71.7721C14.5168 71.6319 15.5057 71.7172 16.4361 72.0213C17.3665 72.3255 18.213 72.8401 18.9088 73.5247C19.6047 74.2093 20.1308 75.0451 20.4458 75.9662C20.7607 76.8873 20.8558 77.8684 20.7236 78.8322C20.554 80.0711 20.761 81.3321 21.3183 82.4533C21.8755 83.5746 22.7575 84.5048 23.8509 85.1247C24.9444 85.7445 26.1995 86.0257 27.455 85.9321C28.7106 85.8385 29.9093 85.3744 30.8973 84.5994C31.666 83.9969 32.5651 83.5799 33.5238 83.3814C34.4824 83.1829 35.4744 83.2083 36.4215 83.4555C37.3686 83.7028 38.2449 84.1651 38.9814 84.8061C39.7178 85.4471 40.2943 86.2492 40.6653 87.1492C41.1479 88.2945 41.9621 89.2719 43.0046 89.9574C44.047 90.6429 45.2709 91.0057 46.5212 90.9999C47.7715 90.9941 48.992 90.6199 50.028 89.9248C51.0639 89.2297 51.8689 88.2448 52.3408 87.095C52.7033 86.1916 53.2722 85.3842 54.0026 84.7364C54.733 84.0886 55.605 83.6182 56.5497 83.3622C57.4945 83.1063 58.4862 83.0717 59.4467 83.2614C60.4072 83.451 61.3102 83.8596 62.0845 84.455C63.0805 85.22 64.284 85.6722 65.5405 85.7537C66.797 85.8352 68.0494 85.5422 69.1372 84.9123C70.2249 84.2824 71.0985 83.3443 71.6459 82.2182C72.1933 81.0921 72.3897 79.8293 72.2097 78.5916C72.0674 77.6294 72.1523 76.6476 72.4578 75.7235C72.7633 74.7995 73.281 73.9587 73.97 73.2675C74.6589 72.5763 75.5003 72.0537 76.4276 71.741C77.355 71.4282 78.3428 71.3339 79.3131 71.4654C80.5612 71.6354 81.832 71.4307 82.9621 70.8779C84.0922 70.3251 85.03 69.4494 85.655 68.3632C86.28 67.277 86.5637 66.0301 86.4695 64.7825C86.3754 63.535 85.9077 62.344 85.1267 61.3624C84.52 60.5991 84.1001 59.7062 83.9002 58.7542C83.7004 57.8022 83.7259 56.8171 83.9749 55.8766C84.2238 54.9361 84.6894 54.0658 85.3349 53.3345C85.9803 52.6032 86.788 52.0307 87.6943 51.6623C88.867 51.1938 89.8711 50.3866 90.5768 49.3452C91.2825 48.3037 91.6573 47.076 91.6527 45.8208C91.6481 44.5656 91.2644 43.3405 90.5512 42.3042C89.8379 41.2679 88.828 40.4679 87.6519 40.0078ZM83.7339 45.8411C83.7685 53.1926 81.6072 60.3893 77.5231 66.521C73.4391 72.6527 67.6158 77.4441 60.7896 80.2892C53.9634 83.1344 46.4409 83.9055 39.1734 82.5051C31.9059 81.1047 25.2198 77.5956 19.9606 72.4217C14.7013 67.2478 11.1051 60.6413 9.6268 53.4378C8.14846 46.2342 8.85436 38.7571 11.6552 31.9519C14.4561 25.1468 19.2261 19.3192 25.3622 15.2062C31.4982 11.0932 38.7246 8.87939 46.1276 8.84481C56.0541 8.81122 65.5886 12.6896 72.6389 19.6289C79.6892 26.5682 83.6794 36.0017 83.7339 45.8591V45.8411Z"/>
</mask>
<path d="M87.6519 40.0078C86.7422 39.6478 85.9291 39.0829 85.2768 38.3575C84.6245 37.6322 84.1508 36.7663 83.893 35.8281C83.6353 34.8899 83.6005 33.905 83.7915 32.9512C83.9824 31.9974 84.3939 31.1007 84.9935 30.3318C85.7645 29.3422 86.2201 28.1465 86.3021 26.898C86.384 25.6495 86.0884 24.4052 85.4533 23.3247C84.8181 22.2442 83.8724 21.3767 82.7374 20.8337C81.6023 20.2906 80.3298 20.0967 79.083 20.2769C78.1143 20.4185 77.1257 20.3342 76.1954 20.0309C75.2651 19.7275 74.4187 19.2133 73.7231 18.5289C73.0275 17.8446 72.5018 17.0089 72.1877 16.0879C71.8735 15.167 71.7795 14.1861 71.913 13.2228C72.0822 11.9833 71.8747 10.7218 71.3171 9.6002C70.7595 8.47858 69.8772 7.54792 68.7834 6.9276C67.6896 6.30728 66.4341 6.02556 65.178 6.11857C63.9218 6.21158 62.7223 6.67508 61.7333 7.44963C60.9651 8.05215 60.0664 8.46913 59.1082 8.66764C58.1499 8.86615 57.1583 8.84077 56.2117 8.5935C55.265 8.34623 54.3891 7.88384 53.6533 7.24282C52.9174 6.6018 52.3416 5.7997 51.9714 4.89983C51.4941 3.74194 50.6793 2.75208 49.6315 2.05724C48.5838 1.36239 47.3509 0.994252 46.091 1.00007C44.8311 1.00588 43.6017 1.3854 42.5605 2.08989C41.5193 2.79437 40.7138 3.79171 40.2474 4.95395C39.8863 5.85383 39.3202 6.65843 38.5935 7.30465C37.8668 7.95087 36.9993 8.42116 36.0589 8.67865C35.1185 8.93614 34.1309 8.97382 33.1733 8.78877C32.2158 8.60371 31.3145 8.20094 30.54 7.61201C29.5436 6.84638 28.3395 6.39385 27.0823 6.31248C25.825 6.23112 24.572 6.52464 23.4839 7.15537C22.3958 7.78611 21.5223 8.72529 20.9755 9.85243C20.4286 10.9796 20.2334 12.2433 20.4148 13.4814C20.555 14.4435 20.4683 15.4248 20.1616 16.3479C19.8548 17.2711 19.3364 18.1109 18.6471 18.8012C17.9579 19.4915 17.1166 20.0134 16.1896 20.3258C15.2627 20.6383 14.2753 20.7327 13.3053 20.6016C12.0567 20.4319 10.7855 20.637 9.65515 21.1906C8.52486 21.7441 7.58716 22.6208 6.96266 23.7079C6.33816 24.7949 6.05541 26.0427 6.15078 27.2906C6.24615 28.5385 6.71527 29.7296 7.49782 30.7106C8.1044 31.4738 8.524 32.3667 8.72348 33.3185C8.92297 34.2704 8.89687 35.2554 8.64727 36.1955C8.39766 37.1357 7.93138 38.0054 7.28523 38.7358C6.63908 39.4663 5.83077 40.0377 4.92412 40.4047C3.75837 40.8793 2.76199 41.6889 2.06282 42.7297C1.36365 43.7706 0.993577 44.9951 1.00008 46.2462C1.00659 47.4974 1.38938 48.718 2.09934 49.7516C2.8093 50.7852 3.81405 51.5846 4.98468 52.0472C5.89427 52.4065 6.70732 52.9707 7.35967 53.6955C8.01201 54.4203 8.48579 55.2857 8.7436 56.2235C9.00141 57.1613 9.0362 58.1457 8.84523 59.0991C8.65425 60.0525 8.24273 60.9488 7.64316 61.7172C6.86959 62.7056 6.41153 63.9012 6.32791 65.1502C6.24428 66.3993 6.53892 67.6446 7.17391 68.726C7.80891 69.8074 8.75521 70.6753 9.89106 71.2182C11.0269 71.761 12.3003 71.954 13.5475 71.7721C14.5168 71.6319 15.5057 71.7172 16.4361 72.0213C17.3665 72.3255 18.213 72.8401 18.9088 73.5247C19.6047 74.2093 20.1308 75.0451 20.4458 75.9662C20.7607 76.8873 20.8558 77.8684 20.7236 78.8322C20.554 80.0711 20.761 81.3321 21.3183 82.4533C21.8755 83.5746 22.7575 84.5048 23.8509 85.1247C24.9444 85.7445 26.1995 86.0257 27.455 85.9321C28.7106 85.8385 29.9093 85.3744 30.8973 84.5994C31.666 83.9969 32.5651 83.5799 33.5238 83.3814C34.4824 83.1829 35.4744 83.2083 36.4215 83.4555C37.3686 83.7028 38.2449 84.1651 38.9814 84.8061C39.7178 85.4471 40.2943 86.2492 40.6653 87.1492C41.1479 88.2945 41.9621 89.2719 43.0046 89.9574C44.047 90.6429 45.2709 91.0057 46.5212 90.9999C47.7715 90.9941 48.992 90.6199 50.028 89.9248C51.0639 89.2297 51.8689 88.2448 52.3408 87.095C52.7033 86.1916 53.2722 85.3842 54.0026 84.7364C54.733 84.0886 55.605 83.6182 56.5497 83.3622C57.4945 83.1063 58.4862 83.0717 59.4467 83.2614C60.4072 83.451 61.3102 83.8596 62.0845 84.455C63.0805 85.22 64.284 85.6722 65.5405 85.7537C66.797 85.8352 68.0494 85.5422 69.1372 84.9123C70.2249 84.2824 71.0985 83.3443 71.6459 82.2182C72.1933 81.0921 72.3897 79.8293 72.2097 78.5916C72.0674 77.6294 72.1523 76.6476 72.4578 75.7235C72.7633 74.7995 73.281 73.9587 73.97 73.2675C74.6589 72.5763 75.5003 72.0537 76.4276 71.741C77.355 71.4282 78.3428 71.3339 79.3131 71.4654C80.5612 71.6354 81.832 71.4307 82.9621 70.8779C84.0922 70.3251 85.03 69.4494 85.655 68.3632C86.28 67.277 86.5637 66.0301 86.4695 64.7825C86.3754 63.535 85.9077 62.344 85.1267 61.3624C84.52 60.5991 84.1001 59.7062 83.9002 58.7542C83.7004 57.8022 83.7259 56.8171 83.9749 55.8766C84.2238 54.9361 84.6894 54.0658 85.3349 53.3345C85.9803 52.6032 86.788 52.0307 87.6943 51.6623C88.867 51.1938 89.8711 50.3866 90.5768 49.3452C91.2825 48.3037 91.6573 47.076 91.6527 45.8208C91.6481 44.5656 91.2644 43.3405 90.5512 42.3042C89.8379 41.2679 88.828 40.4679 87.6519 40.0078ZM83.7339 45.8411C83.7685 53.1926 81.6072 60.3893 77.5231 66.521C73.4391 72.6527 67.6158 77.4441 60.7896 80.2892C53.9634 83.1344 46.4409 83.9055 39.1734 82.5051C31.9059 81.1047 25.2198 77.5956 19.9606 72.4217C14.7013 67.2478 11.1051 60.6413 9.6268 53.4378C8.14846 46.2342 8.85436 38.7571 11.6552 31.9519C14.4561 25.1468 19.2261 19.3192 25.3622 15.2062C31.4982 11.0932 38.7246 8.87939 46.1276 8.84481C56.0541 8.81122 65.5886 12.6896 72.6389 19.6289C79.6892 26.5682 83.6794 36.0017 83.7339 45.8591V45.8411Z" fill="url(#paint3_linear_481_1426)"/>
<path d="M87.6519 40.0078C86.7422 39.6478 85.9291 39.0829 85.2768 38.3575C84.6245 37.6322 84.1508 36.7663 83.893 35.8281C83.6353 34.8899 83.6005 33.905 83.7915 32.9512C83.9824 31.9974 84.3939 31.1007 84.9935 30.3318C85.7645 29.3422 86.2201 28.1465 86.3021 26.898C86.384 25.6495 86.0884 24.4052 85.4533 23.3247C84.8181 22.2442 83.8724 21.3767 82.7374 20.8337C81.6023 20.2906 80.3298 20.0967 79.083 20.2769C78.1143 20.4185 77.1257 20.3342 76.1954 20.0309C75.2651 19.7275 74.4187 19.2133 73.7231 18.5289C73.0275 17.8446 72.5018 17.0089 72.1877 16.0879C71.8735 15.167 71.7795 14.1861 71.913 13.2228C72.0822 11.9833 71.8747 10.7218 71.3171 9.6002C70.7595 8.47858 69.8772 7.54792 68.7834 6.9276C67.6896 6.30728 66.4341 6.02556 65.178 6.11857C63.9218 6.21158 62.7223 6.67508 61.7333 7.44963C60.9651 8.05215 60.0664 8.46913 59.1082 8.66764C58.1499 8.86615 57.1583 8.84077 56.2117 8.5935C55.265 8.34623 54.3891 7.88384 53.6533 7.24282C52.9174 6.6018 52.3416 5.7997 51.9714 4.89983C51.4941 3.74194 50.6793 2.75208 49.6315 2.05724C48.5838 1.36239 47.3509 0.994252 46.091 1.00007C44.8311 1.00588 43.6017 1.3854 42.5605 2.08989C41.5193 2.79437 40.7138 3.79171 40.2474 4.95395C39.8863 5.85383 39.3202 6.65843 38.5935 7.30465C37.8668 7.95087 36.9993 8.42116 36.0589 8.67865C35.1185 8.93614 34.1309 8.97382 33.1733 8.78877C32.2158 8.60371 31.3145 8.20094 30.54 7.61201C29.5436 6.84638 28.3395 6.39385 27.0823 6.31248C25.825 6.23112 24.572 6.52464 23.4839 7.15537C22.3958 7.78611 21.5223 8.72529 20.9755 9.85243C20.4286 10.9796 20.2334 12.2433 20.4148 13.4814C20.555 14.4435 20.4683 15.4248 20.1616 16.3479C19.8548 17.2711 19.3364 18.1109 18.6471 18.8012C17.9579 19.4915 17.1166 20.0134 16.1896 20.3258C15.2627 20.6383 14.2753 20.7327 13.3053 20.6016C12.0567 20.4319 10.7855 20.637 9.65515 21.1906C8.52486 21.7441 7.58716 22.6208 6.96266 23.7079C6.33816 24.7949 6.05541 26.0427 6.15078 27.2906C6.24615 28.5385 6.71527 29.7296 7.49782 30.7106C8.1044 31.4738 8.524 32.3667 8.72348 33.3185C8.92297 34.2704 8.89687 35.2554 8.64727 36.1955C8.39766 37.1357 7.93138 38.0054 7.28523 38.7358C6.63908 39.4663 5.83077 40.0377 4.92412 40.4047C3.75837 40.8793 2.76199 41.6889 2.06282 42.7297C1.36365 43.7706 0.993577 44.9951 1.00008 46.2462C1.00659 47.4974 1.38938 48.718 2.09934 49.7516C2.8093 50.7852 3.81405 51.5846 4.98468 52.0472C5.89427 52.4065 6.70732 52.9707 7.35967 53.6955C8.01201 54.4203 8.48579 55.2857 8.7436 56.2235C9.00141 57.1613 9.0362 58.1457 8.84523 59.0991C8.65425 60.0525 8.24273 60.9488 7.64316 61.7172C6.86959 62.7056 6.41153 63.9012 6.32791 65.1502C6.24428 66.3993 6.53892 67.6446 7.17391 68.726C7.80891 69.8074 8.75521 70.6753 9.89106 71.2182C11.0269 71.761 12.3003 71.954 13.5475 71.7721C14.5168 71.6319 15.5057 71.7172 16.4361 72.0213C17.3665 72.3255 18.213 72.8401 18.9088 73.5247C19.6047 74.2093 20.1308 75.0451 20.4458 75.9662C20.7607 76.8873 20.8558 77.8684 20.7236 78.8322C20.554 80.0711 20.761 81.3321 21.3183 82.4533C21.8755 83.5746 22.7575 84.5048 23.8509 85.1247C24.9444 85.7445 26.1995 86.0257 27.455 85.9321C28.7106 85.8385 29.9093 85.3744 30.8973 84.5994C31.666 83.9969 32.5651 83.5799 33.5238 83.3814C34.4824 83.1829 35.4744 83.2083 36.4215 83.4555C37.3686 83.7028 38.2449 84.1651 38.9814 84.8061C39.7178 85.4471 40.2943 86.2492 40.6653 87.1492C41.1479 88.2945 41.9621 89.2719 43.0046 89.9574C44.047 90.6429 45.2709 91.0057 46.5212 90.9999C47.7715 90.9941 48.992 90.6199 50.028 89.9248C51.0639 89.2297 51.8689 88.2448 52.3408 87.095C52.7033 86.1916 53.2722 85.3842 54.0026 84.7364C54.733 84.0886 55.605 83.6182 56.5497 83.3622C57.4945 83.1063 58.4862 83.0717 59.4467 83.2614C60.4072 83.451 61.3102 83.8596 62.0845 84.455C63.0805 85.22 64.284 85.6722 65.5405 85.7537C66.797 85.8352 68.0494 85.5422 69.1372 84.9123C70.2249 84.2824 71.0985 83.3443 71.6459 82.2182C72.1933 81.0921 72.3897 79.8293 72.2097 78.5916C72.0674 77.6294 72.1523 76.6476 72.4578 75.7235C72.7633 74.7995 73.281 73.9587 73.97 73.2675C74.6589 72.5763 75.5003 72.0537 76.4276 71.741C77.355 71.4282 78.3428 71.3339 79.3131 71.4654C80.5612 71.6354 81.832 71.4307 82.9621 70.8779C84.0922 70.3251 85.03 69.4494 85.655 68.3632C86.28 67.277 86.5637 66.0301 86.4695 64.7825C86.3754 63.535 85.9077 62.344 85.1267 61.3624C84.52 60.5991 84.1001 59.7062 83.9002 58.7542C83.7004 57.8022 83.7259 56.8171 83.9749 55.8766C84.2238 54.9361 84.6894 54.0658 85.3349 53.3345C85.9803 52.6032 86.788 52.0307 87.6943 51.6623C88.867 51.1938 89.8711 50.3866 90.5768 49.3452C91.2825 48.3037 91.6573 47.076 91.6527 45.8208C91.6481 44.5656 91.2644 43.3405 90.5512 42.3042C89.8379 41.2679 88.828 40.4679 87.6519 40.0078ZM83.7339 45.8411C83.7685 53.1926 81.6072 60.3893 77.5231 66.521C73.4391 72.6527 67.6158 77.4441 60.7896 80.2892C53.9634 83.1344 46.4409 83.9055 39.1734 82.5051C31.9059 81.1047 25.2198 77.5956 19.9606 72.4217C14.7013 67.2478 11.1051 60.6413 9.6268 53.4378C8.14846 46.2342 8.85436 38.7571 11.6552 31.9519C14.4561 25.1468 19.2261 19.3192 25.3622 15.2062C31.4982 11.0932 38.7246 8.87939 46.1276 8.84481C56.0541 8.81122 65.5886 12.6896 72.6389 19.6289C79.6892 26.5682 83.6794 36.0017 83.7339 45.8591V45.8411Z" stroke="white" stroke-width="1.59851" mask="url(#path-8-outside-1_481_1426)"/>
<path d="M22.2497 21.6299L23.2731 20.764L26.5432 23.6205L24.1815 20.0123L25.2049 19.1403L29.1412 23.6746L28.4629 24.276L25.5016 20.764L27.924 24.6428L27.3184 25.16L23.8181 22.1531L26.7976 25.5869L26.192 26.1222L22.2497 21.6299Z" fill="url(#paint4_linear_481_1426)"/>
<path d="M30.213 21.2149L27.936 17.2519L28.7596 16.7828L31.0729 20.806C31.2849 21.1788 31.5211 21.2209 31.7815 21.0766C32.0418 20.9322 32.1206 20.7037 31.9086 20.3309L29.5953 16.3077L30.3886 15.8567L32.6656 19.8257C33.144 20.6556 32.9987 21.3652 32.1932 21.8223C31.3878 22.2793 30.6914 22.0448 30.213 21.2149Z" fill="url(#paint5_linear_481_1426)"/>
<path d="M34.7003 18.8878L34.5792 18.563L35.421 18.2563L35.5663 18.6472C35.7116 19.0502 35.9418 19.1283 36.2264 19.0261C36.511 18.9239 36.6382 18.7134 36.4807 18.2984C36.3233 17.8835 36.0265 17.5948 35.2696 17.3002C34.2825 16.9213 33.8707 16.5485 33.6406 15.905C33.5471 15.7321 33.4941 15.5405 33.4854 15.3444C33.4768 15.1484 33.5129 14.9529 33.5908 14.7726C33.6688 14.5923 33.7868 14.4317 33.9359 14.3029C34.085 14.1742 34.2614 14.0804 34.452 14.0287C35.318 13.716 35.9357 14.0708 36.2688 14.9729L36.3536 15.2074L35.5118 15.5081L35.4028 15.2194C35.2575 14.8165 35.0395 14.7263 34.7548 14.8285C34.4702 14.9308 34.3673 15.1413 34.5066 15.5261C34.6458 15.911 34.9547 16.1696 35.7177 16.4643C36.6987 16.8431 37.0984 17.21 37.3528 17.9075C37.6919 18.8276 37.4133 19.5072 36.5352 19.8259C35.6571 20.1446 35.0273 19.7838 34.7003 18.8878Z" fill="url(#paint6_linear_481_1426)"/>
<path d="M38.576 12.904L39.5021 12.7115L40.7672 18.5629L39.8411 18.7553L38.576 12.904Z" fill="url(#paint7_linear_481_1426)"/>
<path d="M42.7969 16.819L42.5668 13.6077C42.5418 13.4199 42.5558 13.2291 42.6079 13.0469C42.6599 12.8647 42.7489 12.695 42.8694 12.5482C42.99 12.4014 43.1394 12.2806 43.3087 12.1933C43.4779 12.106 43.6633 12.054 43.8535 12.0404C44.0438 12.0269 44.2348 12.0521 44.4148 12.1145C44.5949 12.177 44.7601 12.2753 44.9005 12.4035C45.0409 12.5317 45.1534 12.687 45.2311 12.86C45.3088 13.0329 45.3501 13.2198 45.3524 13.4092L45.4009 14.0406L44.5046 14.1068L44.4562 13.4152C44.4562 13.0243 44.226 12.874 43.9414 12.892C43.6568 12.9101 43.4812 13.0905 43.5115 13.4934L43.7476 16.831C43.7476 17.2219 43.9778 17.3662 44.2624 17.3422C44.547 17.3181 44.7226 17.1557 44.6923 16.7408L44.6318 15.8267L45.522 15.7666L45.5825 16.6085C45.6075 16.7963 45.5935 16.9871 45.5414 17.1693C45.4894 17.3515 45.4003 17.5212 45.2798 17.668C45.1593 17.8148 45.0099 17.9355 44.8406 18.0228C44.6714 18.1102 44.486 18.1622 44.2958 18.1757C44.1055 18.1893 43.9145 18.1641 43.7345 18.1016C43.5544 18.0392 43.3891 17.9409 43.2488 17.8127C43.1084 17.6845 42.9959 17.5291 42.9182 17.3562C42.8405 17.1832 42.7992 16.9963 42.7969 16.807V16.819Z" fill="url(#paint8_linear_481_1426)"/>
<path d="M51.8502 12.459L53.2188 12.7356C54.1514 12.916 54.5027 13.5174 54.3149 14.4615L54.1999 15.0629C54.0061 16.001 53.449 16.422 52.5224 16.2356L52.0804 16.1514L51.5959 18.5569L50.6694 18.3765L51.8502 12.459ZM52.6859 15.3756C52.9827 15.4358 53.1704 15.3335 53.2552 14.9126L53.3945 14.215C53.4792 13.794 53.346 13.6136 53.0553 13.5715L52.6133 13.4813L52.2499 15.2854L52.6859 15.3756Z" fill="url(#paint9_linear_481_1426)"/>
<path d="M57.5124 13.8602L58.8204 14.3654C59.012 14.4022 59.1918 14.4845 59.3444 14.6053C59.4971 14.726 59.6181 14.8815 59.6972 15.0587C59.7763 15.2359 59.8111 15.4294 59.7987 15.6228C59.7863 15.8162 59.727 16.0037 59.6258 16.1695L59.4926 16.5123C59.2685 17.1136 58.9415 17.3843 58.4873 17.3903C58.8749 17.697 58.8567 18.166 58.6085 18.7975L58.2269 19.7777C58.1216 20.0022 58.0638 20.2458 58.0574 20.4933L57.1854 20.1626C57.1975 19.9137 57.2614 19.6701 57.3731 19.447L57.7728 18.4246C57.9726 17.9074 57.8878 17.6789 57.4821 17.5286L57.1793 17.4083L56.2467 19.8138L55.3626 19.471L57.5124 13.8602ZM57.7788 16.7167C58.1119 16.843 58.3844 16.7769 58.5418 16.3319L58.7114 15.8989C58.8628 15.502 58.7962 15.2975 58.4873 15.1532L58.0816 14.9968L57.476 16.5905L57.7788 16.7167Z" fill="url(#paint10_linear_481_1426)"/>
<path d="M60.5585 20.1625L62.1935 17.4684C62.2842 17.2948 62.4098 17.1415 62.5625 17.018C62.7152 16.8945 62.8917 16.8034 63.0813 16.7502C63.2708 16.6971 63.4693 16.6831 63.6644 16.7091C63.8596 16.7351 64.0474 16.8006 64.2161 16.9014C64.3848 17.0023 64.5309 17.1364 64.6454 17.2955C64.7599 17.4546 64.8404 17.6354 64.8818 17.8266C64.9232 18.0177 64.9248 18.2153 64.8863 18.4071C64.8479 18.5989 64.7702 18.7809 64.6582 18.9417L63.0232 21.6359C62.9324 21.8094 62.8069 21.9627 62.6542 22.0862C62.5015 22.2097 62.325 22.3009 62.1354 22.354C61.9459 22.4071 61.7474 22.4211 61.5522 22.3951C61.3571 22.3691 61.1693 22.3036 61.0006 22.2028C60.8319 22.1019 60.6858 21.9678 60.5713 21.8087C60.4568 21.6496 60.3763 21.4688 60.3349 21.2777C60.2935 21.0865 60.2919 20.8889 60.3304 20.6971C60.3688 20.5053 60.4465 20.3234 60.5585 20.1625ZM62.1754 21.2029L63.877 18.4065C64.1011 18.0397 64.0224 17.8051 63.768 17.6488C63.5137 17.4924 63.2593 17.5345 63.0413 17.9013L61.3397 20.6977C61.1156 21.0646 61.1943 21.2991 61.4487 21.4554C61.703 21.6118 61.9574 21.5517 62.1754 21.1848V21.2029Z" fill="url(#paint11_linear_481_1426)"/>
<path d="M67.9404 19.5612L69.0304 20.5053C69.745 21.1067 69.7511 21.8163 69.1152 22.5379L67.1168 24.8231C67.0116 24.9897 66.8693 25.13 66.7009 25.2335C66.5325 25.3369 66.3425 25.4006 66.1455 25.4198C65.9484 25.439 65.7496 25.413 65.5642 25.344C65.3788 25.275 65.2118 25.1647 65.076 25.0216L63.986 24.0774L67.9404 19.5612ZM65.6271 24.3721C65.8572 24.5646 66.0934 24.5706 66.378 24.2458L68.4309 21.9005C68.7156 21.5758 68.6792 21.3412 68.4309 21.1428L68.0676 20.83L65.2456 24.0594L65.6271 24.3721Z" fill="url(#paint12_linear_481_1426)"/>
<path d="M26.5735 67.3821L27.6393 68.206L25.4774 71.9585L28.5961 68.9516L29.668 69.7695L25.974 74.5083L25.2655 73.9611L28.0632 70.3528L24.7265 73.522L24.1209 73.0349L26.3737 69.0358L23.5759 72.6441L22.9219 72.1389L26.5735 67.3821Z" fill="url(#paint13_linear_481_1426)"/>
<path d="M29.2502 74.8451L31.3758 70.7919L32.2175 71.2248L30.0617 75.3382C29.8618 75.7171 29.9527 75.9396 30.2191 76.0779C30.4856 76.2162 30.7157 76.1621 30.9155 75.7832L33.0714 71.6699L33.8828 72.0848L31.7512 76.1381C31.6752 76.3171 31.5627 76.4785 31.4208 76.6123C31.2789 76.746 31.1106 76.8491 30.9266 76.9151C30.7426 76.9811 30.5468 77.0085 30.3516 76.9956C30.1564 76.9828 29.9659 76.9299 29.7923 76.8404C29.6187 76.7508 29.4656 76.6266 29.3427 76.4754C29.2198 76.3242 29.1298 76.1493 29.0783 75.9619C29.0268 75.7745 29.015 75.5785 29.0435 75.3863C29.072 75.1941 29.1404 75.0098 29.2441 74.8451H29.2502Z" fill="url(#paint14_linear_481_1426)"/>
<path d="M34.1735 77.1364L34.2825 76.8117L35.1303 77.0943L34.9971 77.4852C34.8639 77.8881 34.9971 78.0866 35.2817 78.1888C35.5663 78.291 35.7965 78.1888 35.9357 77.7738C36.075 77.3589 36.0145 76.944 35.5966 76.2404C35.0698 75.3323 34.991 74.7911 35.1969 74.1416C35.2317 73.9476 35.3103 73.764 35.4267 73.6046C35.5432 73.4451 35.6945 73.3138 35.8692 73.2207C36.044 73.1275 36.2378 73.0749 36.436 73.0667C36.6342 73.0585 36.8317 73.095 37.0137 73.1734C37.8857 73.462 38.1461 74.1235 37.8433 75.0316L37.7646 75.2661L36.9107 74.9895L37.0076 74.6948C37.1469 74.2919 37.0076 74.0935 36.7472 73.9852C36.4868 73.877 36.2506 73.9852 36.1416 74.3821C36.0326 74.779 36.0932 75.1579 36.505 75.8615C37.0379 76.7696 37.1106 77.2988 36.8865 78.0084C36.8516 78.2028 36.7734 78.3869 36.6575 78.5474C36.5417 78.7078 36.3911 78.8405 36.2169 78.9357C36.0427 79.0308 35.8493 79.086 35.6508 79.0973C35.4523 79.1085 35.2537 79.0755 35.0698 79.0007C34.1069 78.712 33.8404 78.0445 34.1735 77.1364Z" fill="url(#paint15_linear_481_1426)"/>
<path d="M40.1924 74.1233L41.1246 74.2977L39.9866 80.1791L39.0545 79.9987L40.1924 74.1233Z" fill="url(#paint16_linear_481_1426)"/>
<path d="M42.8938 79.2051L43.0816 75.9938C43.0789 75.8029 43.1159 75.6135 43.1903 75.4375C43.2646 75.2615 43.3747 75.1026 43.5136 74.9706C43.6526 74.8387 43.8174 74.7366 43.9978 74.6708C44.1782 74.605 44.3704 74.5768 44.5623 74.588C44.7542 74.5991 44.9417 74.6495 45.1131 74.7358C45.2846 74.8222 45.4362 74.9427 45.5587 75.0898C45.6811 75.237 45.7717 75.4076 45.8248 75.5911C45.8779 75.7745 45.8923 75.9669 45.8672 76.1561L45.8309 76.7575L44.9346 76.7094L44.977 76.0178C44.977 75.6209 44.8196 75.4465 44.535 75.4165C44.2503 75.3864 44.0566 75.5488 44.0323 75.9396L43.8325 79.2772C43.8325 79.6681 43.9899 79.8365 44.2746 79.8786C44.5592 79.9207 44.753 79.7523 44.7772 79.3554L44.8317 78.4473L45.7279 78.4955L45.6734 79.3434C45.6681 79.5284 45.6254 79.7106 45.5478 79.8789C45.4703 80.0473 45.3595 80.1984 45.222 80.3235C45.0846 80.4485 44.9232 80.5449 44.7476 80.6069C44.5719 80.6689 44.3855 80.6952 44.1994 80.6844C44.0133 80.6735 43.8313 80.6256 43.6642 80.5436C43.497 80.4616 43.3482 80.3471 43.2264 80.2069C43.1047 80.0667 43.0125 79.9037 42.9554 79.7275C42.8983 79.5512 42.8773 79.3654 42.8938 79.181V79.2051Z" fill="url(#paint17_linear_481_1426)"/>
<path d="M50.7421 74.4422L52.1107 74.1776C52.302 74.1187 52.5045 74.1049 52.7021 74.1373C52.8997 74.1696 53.0871 74.2472 53.2493 74.3639C53.4114 74.4806 53.544 74.6332 53.6365 74.8096C53.729 74.9861 53.7788 75.1815 53.7821 75.3803L53.8971 75.9817C54.0849 76.9259 53.7276 77.5272 52.795 77.7016L52.3529 77.7858L52.8253 80.1913L51.8927 80.3717L50.7421 74.4422ZM52.6315 76.8477C52.9282 76.7875 53.0615 76.6252 52.9767 76.2042L52.8434 75.5066C52.7587 75.0857 52.5709 74.9834 52.2803 75.0436L51.8382 75.1278L52.1894 76.9319L52.6315 76.8477Z" fill="url(#paint18_linear_481_1426)"/>
<path d="M55.29 73.4078L56.6101 72.9267C56.7774 72.8262 56.9668 72.7675 57.1619 72.7555C57.357 72.7435 57.5522 72.7786 57.7307 72.8577C57.9093 72.9369 58.0658 73.0578 58.187 73.2102C58.3083 73.3625 58.3905 73.5417 58.4269 73.7325L58.554 74.0813C58.673 74.2895 58.7208 74.5304 58.6903 74.7678C58.6597 75.0053 58.5524 75.2265 58.3845 75.3983C58.881 75.3983 59.1778 75.7351 59.4139 76.3665L59.7834 77.3527C59.8524 77.5904 59.9699 77.8115 60.1285 78.0022L59.2262 78.333C59.0682 78.1382 58.9527 77.9129 58.8871 77.6715L58.5116 76.6431C58.3179 76.1199 58.0998 76.0117 57.6941 76.156L57.3913 76.2703L58.2815 78.6758L57.3913 79.0005L55.29 73.4078ZM57.3974 75.3682C57.7305 75.248 57.8758 75.0315 57.7062 74.5804L57.5488 74.1475C57.3974 73.7445 57.1975 73.6183 56.8826 73.7325L56.4769 73.8829L57.0825 75.4885L57.3974 75.3682Z" fill="url(#paint19_linear_481_1426)"/>
<path d="M61.9513 75.5968L60.3889 72.8606C60.2819 72.6971 60.2097 72.5135 60.1768 72.3212C60.1438 72.129 60.1507 71.932 60.1972 71.7425C60.2436 71.553 60.3285 71.3749 60.4468 71.2192C60.565 71.0635 60.7141 70.9334 60.8848 70.8369C61.0555 70.7405 61.2442 70.6797 61.4395 70.6583C61.6347 70.6369 61.8322 70.6553 62.02 70.7125C62.2078 70.7697 62.3818 70.8644 62.5314 70.9907C62.681 71.1171 62.803 71.2725 62.89 71.4474L64.4584 74.1897C64.5614 74.3536 64.6298 74.5364 64.6597 74.7273C64.6896 74.9182 64.6802 75.1131 64.6322 75.3003C64.5843 75.4875 64.4986 75.6631 64.3804 75.8166C64.2623 75.97 64.1141 76.0981 63.9447 76.1931C63.7754 76.2882 63.5884 76.3482 63.3951 76.3696C63.2018 76.391 63.0061 76.3733 62.8198 76.3176C62.6336 76.2619 62.4606 76.1693 62.3114 76.0454C62.1621 75.9215 62.0396 75.769 61.9513 75.5968ZM63.6651 74.7068L62.03 71.8804C61.8181 71.5075 61.5759 71.4594 61.3094 71.6098C61.043 71.7601 60.9642 71.9886 61.1762 72.3615L62.7991 75.206C63.0171 75.5788 63.2594 75.6269 63.5198 75.4766C63.7802 75.3262 63.877 75.0797 63.6651 74.7068Z" fill="url(#paint20_linear_481_1426)"/>
<path d="M63.8468 69.1019L64.9732 68.1999C65.1144 68.0615 65.2858 67.9572 65.4741 67.895C65.6623 67.8327 65.8625 67.8143 66.0591 67.841C66.2557 67.8677 66.4435 67.9389 66.608 68.0491C66.7725 68.1593 66.9093 68.3055 67.0079 68.4765L68.9215 70.8339C69.5271 71.5796 69.4908 72.2772 68.752 72.8665L67.6256 73.7686L63.8468 69.1019ZM68.2009 72.211C68.4371 72.0246 68.4795 71.7901 68.2009 71.4593L66.2388 69.0538C65.9663 68.7231 65.7301 68.7171 65.494 68.9035L65.1185 69.2042L67.8194 72.5358L68.2009 72.211Z" fill="url(#paint21_linear_481_1426)"/>
<path d="M77.7629 39.0938L73.9962 49.7741L77.7084 47.3506L74.8016 58.8006L81.5538 44.043L77.1936 45.9373L77.7629 39.0938Z" fill="#00E0B8"/>
<path d="M14.8434 39.0938L18.6101 49.7741L14.8979 47.3506L17.7986 58.8006L11.0525 44.043L15.4066 45.9373L14.8434 39.0938Z" fill="#00E0B8"/>
<path d="M99.648 57.502C98.794 58.02 97.17 58.496 95.77 58.692C96.106 59 96.54 59.546 96.75 59.896C98.192 59.56 99.872 58.832 100.824 58.034L99.648 57.502ZM103.414 58.202C104.59 58.692 106.228 59.434 107.04 59.896L108.216 58.986C107.32 58.538 105.668 57.838 104.534 57.418L103.414 58.202ZM104.002 50.726C103.806 51.062 103.512 51.482 103.288 51.804L103.792 51.958H99.97L100.726 51.776C100.614 51.482 100.39 51.076 100.166 50.726H104.002ZM102.812 55.668V55.052H107.012V53.848H102.812V53.218H107.67V51.958H104.968C105.22 51.706 105.514 51.398 105.822 51.062L104.506 50.726H108.202V49.424H106.396C106.746 48.934 107.124 48.304 107.516 47.66L105.766 47.254C105.57 47.856 105.192 48.71 104.87 49.27L105.374 49.424H104.128V47.142H102.56V49.424H101.51V47.142H99.97V49.424H98.682L99.354 49.172C99.172 48.64 98.71 47.8 98.29 47.212L96.862 47.688C97.184 48.22 97.548 48.892 97.758 49.424H95.854V50.726H99.424L98.486 50.936C98.668 51.244 98.878 51.636 99.004 51.958H96.428V53.218H101.16V53.848H97.128V55.052H101.16V55.668H95.826V57.04H101.16V60.232H102.812V57.04H108.244V55.668H102.812ZM112.71 51.216H115.16V52.224H112.71V51.216ZM112.71 48.962H115.16V49.97H112.71V48.962ZM119.29 49.97H116.84V48.962H119.29V49.97ZM119.29 52.224H116.84V51.216H119.29V52.224ZM121.026 53.568V47.618H111.044V53.568H113.27C112.276 54.422 110.89 55.15 109.49 55.556C109.854 55.906 110.344 56.522 110.582 56.928C111.478 56.606 112.332 56.172 113.13 55.626V56.13C113.13 57.026 112.85 58.202 110.512 58.972C110.876 59.28 111.436 59.91 111.66 60.316C114.446 59.294 114.852 57.53 114.852 56.2V55.234H113.662C114.292 54.73 114.88 54.184 115.342 53.568H116.784C117.232 54.198 117.792 54.744 118.422 55.248H117.372V60.176H119.108V55.752C119.836 56.228 120.634 56.606 121.474 56.886C121.726 56.438 122.23 55.794 122.58 55.458C121.138 55.094 119.752 54.408 118.744 53.568H121.026ZM131.848 49.746C131.232 50.362 130.434 50.922 129.538 51.384C129.132 50.95 128.544 50.446 127.956 50.026C128.096 49.928 128.236 49.844 128.362 49.746H131.848ZM133.402 48.206L133.108 48.276H130.154C130.42 48.024 130.672 47.772 130.91 47.52L129.118 47.1C128.18 48.192 126.514 49.382 124.26 50.222C124.624 50.46 125.142 51.034 125.394 51.412C125.842 51.216 126.262 51.006 126.668 50.782C127.158 51.188 127.662 51.65 128.04 52.042C126.752 52.546 125.324 52.896 123.91 53.106C124.204 53.47 124.526 54.156 124.68 54.576C128.712 53.82 132.688 52.084 134.494 48.864L133.402 48.206ZM133.794 54.912C133.192 55.682 132.394 56.326 131.442 56.844C131.008 56.396 130.378 55.878 129.804 55.458C130.07 55.276 130.35 55.094 130.616 54.912H133.794ZM135.194 53.358L134.886 53.442H132.38C132.688 53.134 132.954 52.826 133.234 52.504L131.428 52.084C130.364 53.442 128.432 54.814 125.548 55.71C125.898 56.004 126.374 56.62 126.57 56.998C127.214 56.774 127.816 56.508 128.376 56.228C128.88 56.648 129.44 57.124 129.832 57.53C128.068 58.16 125.982 58.482 123.77 58.636C124.036 59.056 124.316 59.784 124.442 60.246C129.776 59.742 134.368 58.272 136.342 54.016L135.194 53.358ZM142.082 49.494V51.104H149.88V49.494H145.568L147.038 49.074C146.884 48.5 146.604 47.618 146.324 46.946L144.742 47.338C144.98 47.996 145.26 48.892 145.358 49.494H142.082ZM145.372 57.208C145.232 55.794 144.84 53.386 144.42 51.552L142.908 51.888C143.286 53.764 143.622 56.214 143.734 57.67L145.372 57.208ZM140.64 47.198C139.926 49.186 138.708 51.174 137.448 52.434C137.728 52.84 138.19 53.75 138.344 54.17C138.638 53.848 138.932 53.498 139.226 53.134V60.204H140.906V50.516C141.41 49.606 141.844 48.64 142.208 47.688L140.64 47.198ZM147.976 58.062C148.466 56.312 148.984 53.876 149.334 51.776L147.598 51.51C147.402 53.526 146.926 56.242 146.45 58.062H141.578V59.672H150.356V58.062H147.976ZM164.216 52.616V50.894H158.714C158.854 49.592 158.868 48.304 158.882 47.156H157.062C157.048 48.304 157.062 49.578 156.922 50.894H151.826V52.616H156.642C156.096 55.024 154.766 57.348 151.56 58.776C152.05 59.126 152.54 59.728 152.806 60.19C155.774 58.762 157.286 56.578 158.042 54.24C159.134 56.942 160.758 58.986 163.292 60.176C163.558 59.7 164.104 58.958 164.524 58.608C161.906 57.544 160.212 55.346 159.288 52.616H164.216ZM169.144 55.738V57.446H167.52V55.738H169.144ZM169.004 52.028H167.52V50.6H169.004V52.028ZM167.52 53.428H170.474V49.2H168.71C168.962 48.64 169.228 47.954 169.452 47.296L167.604 47.142C167.548 47.744 167.38 48.528 167.212 49.2H166.05V59.714H167.52V58.846H170.614V54.338H167.52V53.428ZM178.426 49.298V47.786H170.852V49.298H173.876V50.544H171.328V58.062H172.84V52.042H173.876V60.204H175.43V52.042H176.536V56.564C176.536 56.704 176.494 56.746 176.368 56.746C176.256 56.746 175.906 56.746 175.556 56.732C175.752 57.11 175.948 57.726 175.976 58.16C176.69 58.16 177.18 58.146 177.572 57.894C177.978 57.642 178.076 57.236 178.076 56.592V50.544H175.43V49.298H178.426ZM181.338 50.222H185.16V53.918H186.798V50.222H190.62V52.154H192.16V49.186H186.798V48.724H191.152V47.548H180.806V48.724H185.16V49.186H179.868V52.154H181.338V50.222ZM181.506 54.38C182.514 54.002 183.732 53.54 184.894 53.092L184.712 52L184.25 52.14L184.838 51.16C184.208 50.88 182.99 50.474 182.15 50.236L181.562 51.146C182.416 51.412 183.606 51.846 184.208 52.154C182.99 52.504 181.814 52.868 180.974 53.064L181.506 54.38ZM190.746 54.436H181.324V55.64H190.746V54.436ZM189.808 50.278C189.08 50.614 187.834 51.09 187.022 51.286L187.526 52.098L187.05 53.022C188.17 53.372 189.724 53.946 190.48 54.324L190.984 53.19C190.256 52.882 188.954 52.42 187.932 52.126C188.744 51.93 189.78 51.636 190.536 51.286L189.808 50.278ZM183.62 58.566C184.068 58.23 184.516 57.852 184.95 57.474H188.03L187.47 57.712C187.764 57.936 188.072 58.188 188.38 58.44L183.62 58.566ZM192.342 56.214H179.672V57.474H182.696C182.304 57.796 181.954 58.048 181.772 58.16C181.464 58.384 181.198 58.538 180.932 58.58C181.114 59.014 181.366 59.798 181.464 60.12C182.052 59.924 182.864 59.91 189.738 59.644C189.962 59.882 190.158 60.092 190.312 60.274L191.824 59.602C191.278 59 190.242 58.16 189.36 57.474H192.342V56.214ZM199.734 50.362H196.906V49.774H199.734V50.362ZM199.734 52H196.906V51.44H199.734V52ZM199.734 53.694H196.906V53.078H199.734V53.694ZM195.254 55.332H196.906V54.954H205.936V53.694H201.33V53.078H204.984V52H201.33V51.44H204.97V50.362H201.33V49.774H205.6V48.5H201.624C201.456 48.038 201.204 47.492 200.952 47.058L199.384 47.492C199.538 47.8 199.692 48.15 199.818 48.5H197.662C197.9 48.15 198.124 47.8 198.334 47.45L196.64 47.128C196.01 48.332 194.876 49.774 193.322 50.88C193.7 51.09 194.232 51.622 194.498 51.972C194.75 51.762 195.002 51.552 195.254 51.328V55.332ZM197.438 57.39C196.57 57.908 194.904 58.37 193.476 58.566C193.812 58.874 194.274 59.462 194.512 59.84C195.982 59.504 197.69 58.762 198.684 57.964L197.438 57.39ZM206.286 57.124V55.794H200.798V55.08H199.146V55.794H193.714V57.124H199.146V60.19H200.798V57.124H206.286ZM201.302 58.23C202.59 58.706 204.396 59.434 205.292 59.868L206.314 58.776C205.348 58.328 203.5 57.67 202.268 57.264L201.302 58.23ZM212.824 56.746C214.56 56.242 215.582 54.94 215.582 53.358C215.582 52.182 215.064 51.44 214.07 51.44C213.328 51.44 212.698 51.916 212.698 52.7C212.698 53.498 213.328 53.946 214.028 53.946C214.084 53.946 214.14 53.946 214.182 53.932C214.098 54.674 213.468 55.276 212.376 55.626L212.824 56.746ZM96.694 66.486V68.166H107.306V66.486H96.694ZM97.66 70.952V72.646H106.2V70.952H97.66ZM95.91 75.67V77.378H108.062V75.67H95.91ZM113.27 65.618L113.032 65.688H109.952V78.19H111.408V67.172H112.472C112.234 68.082 111.912 69.23 111.604 70.07C112.486 71.064 112.696 71.96 112.696 72.646C112.696 73.038 112.626 73.346 112.458 73.472C112.346 73.556 112.206 73.584 112.066 73.584C111.912 73.598 111.702 73.584 111.478 73.57C111.702 73.976 111.814 74.592 111.828 74.998C112.136 75.012 112.458 74.998 112.71 74.97C113.032 74.914 113.298 74.83 113.522 74.662C113.97 74.326 114.166 73.738 114.166 72.828C114.166 71.988 113.97 71.008 113.046 69.888C113.466 68.838 113.97 67.452 114.362 66.262L113.27 65.618ZM116.112 69.762V68.194H117.848V66.808H116.112V65.198H114.474V69.496C114.474 70 114.25 70.126 113.984 70.224C114.208 70.574 114.418 71.33 114.474 71.764C114.782 71.554 115.286 71.372 118.002 70.714C117.918 70.392 117.834 69.818 117.792 69.412L116.112 69.762ZM119.99 74.396H116.434V73.542H119.99V74.396ZM116.434 76.496V75.6H119.99V76.496H116.434ZM117.162 71.12C117.078 71.456 116.952 71.862 116.798 72.254H114.768V78.246H116.434V77.784H119.99V78.19H121.726V72.254H118.492C118.66 72.002 118.828 71.736 119.01 71.484L117.162 71.12ZM120.158 70.042C119.92 70.042 119.878 69.972 119.878 69.538V68.208H122.16V66.822H119.878V65.17H118.254V69.552C118.254 70.98 118.548 71.442 119.864 71.442H120.998C122.006 71.442 122.412 70.952 122.566 69.286C122.118 69.188 121.488 68.936 121.166 68.698C121.124 69.832 121.068 70.042 120.83 70.042H120.158ZM129.076 73.71C128.068 73.85 127.032 74.004 126.08 74.13V72.688H128.866V71.246H126.08V69.846H128.908V68.404H126.08V67.466C127.256 67.116 128.488 66.696 129.538 66.248L128.222 64.974C127.312 65.478 125.842 66.094 124.526 66.486L124.54 66.5L124.484 66.486V74.34C124.078 74.396 123.7 74.438 123.364 74.48L123.616 76.048L124.484 75.908V77.924H126.08V75.656C127.074 75.488 128.138 75.32 129.16 75.138L129.076 73.71ZM133.836 72.8C133.528 73.528 133.108 74.172 132.576 74.718C132.044 74.158 131.61 73.514 131.302 72.8H133.836ZM134.788 71.358L134.508 71.4H130.084C131.54 70.378 131.848 68.74 131.848 67.438V67.088H133.22V68.936C133.22 70.238 133.486 70.784 134.802 70.784H135.6C135.894 70.784 136.202 70.77 136.412 70.686C136.356 70.336 136.314 69.804 136.286 69.412C136.104 69.468 135.782 69.496 135.586 69.496H134.956C134.774 69.496 134.746 69.356 134.746 68.964V65.674H133.22V65.688H131.848V65.674H130.308V67.396C130.308 68.39 130.154 69.566 128.796 70.406C129.076 70.602 129.622 71.092 129.888 71.4H129.398V72.8H130.756L129.902 73.01C130.308 74.018 130.812 74.9 131.442 75.67C130.602 76.216 129.608 76.608 128.502 76.846C128.824 77.196 129.174 77.854 129.342 78.274C130.588 77.924 131.68 77.462 132.604 76.79C133.444 77.434 134.424 77.896 135.572 78.218C135.796 77.784 136.258 77.126 136.608 76.79C135.53 76.566 134.606 76.216 133.836 75.712C134.746 74.704 135.432 73.388 135.81 71.694L134.788 71.358ZM140.416 74.172C139.744 75.054 138.624 76.006 137.574 76.58C137.994 76.832 138.68 77.378 139.03 77.672C140.038 76.986 141.284 75.838 142.11 74.774L140.416 74.172ZM147.948 73.416C148.242 73.78 148.48 74.116 148.662 74.396L150.076 73.542C149.488 72.688 148.34 71.386 147.346 70.392L145.96 71.092C146.254 71.4 146.562 71.736 146.856 72.086L142.908 72.352C144.532 71.554 146.156 70.588 147.64 69.468L146.408 68.362C145.932 68.754 145.442 69.118 144.924 69.482L142.502 69.608C143.328 69.132 144.126 68.6 144.882 68.04L144.126 67.55C145.596 67.228 146.982 66.836 148.144 66.374L146.912 65.058C144.77 65.968 141.242 66.696 138.022 67.13C138.204 67.48 138.428 68.124 138.484 68.544C139.772 68.376 141.13 68.166 142.474 67.9C141.55 68.6 140.612 69.132 140.234 69.314C139.758 69.566 139.436 69.72 139.058 69.776C139.226 70.21 139.464 70.994 139.548 71.316C139.87 71.176 140.346 71.106 142.586 70.952C141.62 71.526 140.808 71.932 140.374 72.114C139.52 72.534 138.988 72.744 138.428 72.828C138.61 73.234 138.848 74.032 138.918 74.326C139.408 74.144 140.038 74.046 143.216 73.794V76.384C143.216 76.552 143.146 76.594 142.908 76.608C142.67 76.608 141.816 76.608 141.102 76.58C141.34 77.014 141.62 77.714 141.704 78.204C142.74 78.204 143.538 78.19 144.126 77.938C144.742 77.672 144.91 77.252 144.91 76.426V73.654L147.948 73.416ZM145.652 74.872C146.73 75.656 148.074 76.79 148.676 77.532L150.146 76.552C149.474 75.782 148.088 74.704 147.01 73.99L145.652 74.872ZM156.838 73.234C156.712 72.478 156.292 71.33 155.858 70.434L154.738 70.868C154.878 71.176 155.018 71.54 155.144 71.904L153.744 72.128C154.808 70.868 155.858 69.342 156.656 67.83L155.284 66.976C154.976 67.676 154.584 68.418 154.206 69.076L153.282 69.146C154.01 68.11 154.71 66.85 155.228 65.66L153.744 65.016C153.24 66.5 152.4 68.054 152.106 68.446C151.826 68.866 151.588 69.132 151.322 69.202C151.49 69.622 151.742 70.35 151.826 70.672C152.022 70.574 152.33 70.504 153.366 70.378C153.002 70.91 152.694 71.288 152.512 71.484C152.092 72.016 151.798 72.31 151.42 72.408C151.616 72.828 151.868 73.584 151.938 73.892C152.246 73.738 152.708 73.584 155.508 73.094C155.564 73.332 155.606 73.528 155.634 73.724L156.838 73.234ZM151.868 74.34C151.784 75.46 151.63 76.706 151.308 77.518C151.644 77.602 152.274 77.798 152.54 77.966C152.834 77.126 153.058 75.796 153.156 74.55L151.868 74.34ZM153.45 74.522C153.59 75.432 153.73 76.622 153.758 77.406L154.99 77.098C154.948 76.3 154.78 75.138 154.612 74.214L153.45 74.522ZM154.976 74.186C155.228 74.914 155.508 75.88 155.62 76.51L156.782 76.076C156.642 75.474 156.348 74.536 156.096 73.808L154.976 74.186ZM162.27 76.496C162.032 76.496 162.004 76.44 162.004 76.006V71.666L162.55 71.596C162.732 72.002 162.886 72.366 162.984 72.688L164.44 72.016C164.104 71.05 163.264 69.622 162.55 68.544L161.206 69.146C161.402 69.496 161.626 69.86 161.85 70.238L158.896 70.518C159.344 69.846 159.806 69.104 160.226 68.306H164.3V66.752H161.01C161.192 66.346 161.36 65.954 161.528 65.548L159.722 65.072C159.54 65.646 159.316 66.206 159.092 66.752H156.712V68.306H158.378C158.028 69.006 157.706 69.538 157.538 69.762C157.188 70.336 156.908 70.672 156.572 70.77C156.768 71.218 157.048 72.044 157.132 72.366C157.328 72.282 157.552 72.212 158.084 72.142C158 74.48 157.72 76.02 155.872 76.972C156.222 77.252 156.698 77.868 156.88 78.274C159.162 77.028 159.54 74.928 159.652 71.932L160.45 71.834V76.006C160.45 77.476 160.73 77.966 162.004 77.966H163.012C164.062 77.966 164.44 77.364 164.58 75.208C164.16 75.11 163.502 74.844 163.18 74.592C163.138 76.23 163.096 76.496 162.844 76.496H162.27ZM168.948 65.198C168.15 67.2 166.764 69.188 165.336 70.42C165.602 70.84 166.064 71.75 166.218 72.156C166.68 71.722 167.114 71.232 167.562 70.672V78.218H169.144V68.376C169.662 67.508 170.124 66.612 170.502 65.716L168.948 65.198ZM173.974 76.426C173.302 76.426 173.204 76.286 173.204 75.46V70.56H178.076V68.964H173.204V65.408H171.594V75.432C171.594 77.336 172.084 77.896 173.806 77.896H176.144C177.838 77.896 178.258 76.93 178.44 74.228C178.006 74.144 177.348 73.822 176.97 73.528C176.844 75.838 176.732 76.426 176.018 76.426H173.974ZM189.99 69.23C189.836 70.448 189.584 71.54 189.248 72.492C188.87 71.498 188.59 70.392 188.394 69.23H189.99ZM184.936 70.812L184.642 70.896H183.48C183.718 70.672 183.928 70.434 184.138 70.182H186.098C185.888 70.56 185.664 70.91 185.426 71.204L184.936 70.812ZM183.13 67.816H184.054C183.844 68.152 183.606 68.446 183.354 68.754H183.13V67.816ZM192.538 69.23V67.69H188.814C189.01 66.962 189.178 66.178 189.318 65.408L187.624 65.142C187.358 66.864 186.91 68.53 186.266 69.86V68.754H185.272C185.86 67.9 186.392 66.962 186.812 65.94L185.286 65.492C185.034 66.122 184.726 66.738 184.376 67.312V66.416H183.13V65.142H181.59V66.416H179.994V67.816H181.59V68.754H179.462V70.182H181.954C181.142 70.882 180.26 71.47 179.294 71.932C179.616 72.226 180.176 72.87 180.4 73.192C180.946 72.884 181.478 72.562 181.968 72.184H183.424C183.046 72.548 182.64 72.898 182.262 73.164V73.934C181.198 74.032 180.218 74.102 179.434 74.172L179.602 75.656C180.372 75.572 181.296 75.488 182.262 75.39V76.594C182.262 76.734 182.206 76.776 182.024 76.79C181.842 76.79 181.24 76.79 180.694 76.776C180.904 77.182 181.114 77.756 181.17 78.19C182.052 78.19 182.71 78.176 183.2 77.952C183.69 77.728 183.816 77.35 183.816 76.622V75.236C184.628 75.166 185.454 75.082 186.266 74.998V73.584C185.454 73.654 184.628 73.724 183.816 73.794V73.444C184.502 72.912 185.202 72.268 185.748 71.638C186.098 71.932 186.49 72.296 186.672 72.506C186.896 72.212 187.106 71.876 187.316 71.54C187.568 72.562 187.89 73.5 188.268 74.368C187.554 75.39 186.574 76.174 185.258 76.762C185.566 77.112 186.056 77.882 186.21 78.274C187.428 77.658 188.394 76.902 189.178 75.978C189.794 76.888 190.578 77.644 191.53 78.218C191.782 77.756 192.3 77.098 192.678 76.762C191.656 76.23 190.83 75.432 190.2 74.438C190.942 73.01 191.418 71.302 191.712 69.23H192.538ZM201.638 66.878C201.442 66.71 201.19 66.514 200.91 66.318C201.176 66.08 201.414 65.814 201.61 65.548L200.518 65.226C200.378 65.422 200.196 65.604 200.014 65.786C199.72 65.618 199.426 65.464 199.16 65.338L198.418 65.982C198.67 66.108 198.908 66.248 199.174 66.402C198.838 66.612 198.474 66.808 198.11 66.948C198.376 67.13 198.782 67.494 198.978 67.69C199.356 67.508 199.734 67.27 200.112 66.99C200.392 67.2 200.658 67.396 200.84 67.578L201.638 66.878ZM196.472 69.664H198.138V69.51C198.348 69.706 198.614 69.972 198.768 70.154H196.5L196.472 69.664ZM195.492 71.358H204.48V73.024H206.132V70.154H205.096C205.222 68.852 205.32 67.074 205.39 65.604H201.876V66.654H203.766L203.738 67.116H201.96V68.152H203.668L203.64 68.628H201.89V69.664H203.542L203.486 70.154H198.95C199.328 69.944 199.706 69.706 200.084 69.426C200.406 69.678 200.686 69.902 200.896 70.112L201.722 69.384C201.512 69.174 201.218 68.964 200.882 68.74C201.162 68.474 201.414 68.194 201.624 67.9L200.532 67.578C200.378 67.774 200.182 67.97 199.972 68.166C199.678 67.998 199.384 67.83 199.104 67.69L198.334 68.348C198.586 68.488 198.852 68.642 199.118 68.81C198.81 69.006 198.474 69.174 198.138 69.342V68.628H196.416L196.388 68.152H198.11V67.116H196.332L196.304 66.71C196.962 66.57 197.662 66.388 198.208 66.178L197.536 65.212C196.794 65.478 195.548 65.856 194.708 65.996L194.96 70.154H193.91V73.024H195.492V71.358ZM206.314 74.34H201.078C202.03 73.864 202.982 73.29 203.752 72.73L202.814 71.876L202.464 71.96H196.374V73.122H200.868C200.364 73.43 199.832 73.738 199.328 73.934V74.34H193.658V75.656H199.328V76.608C199.328 76.776 199.258 76.818 199.034 76.818C198.824 76.832 197.984 76.832 197.326 76.804C197.522 77.196 197.76 77.756 197.83 78.204C198.88 78.204 199.65 78.19 200.224 77.994C200.798 77.77 200.966 77.406 200.966 76.664V75.656H206.314V74.34ZM214.784 75.796H218.396V74.578H214.784V73.878H219.516V72.534H208.47V73.878H213.146V76.51H211.298V74.396H209.702V76.51H207.63V77.882H220.384V76.51H214.784V75.796ZM217.85 67.9C217.682 68.404 217.472 68.838 217.192 69.23C216.8 68.796 216.506 68.362 216.282 67.9H217.85ZM211.76 70.56V70.098H212.138L211.76 70.56ZM209.366 68.418H210.304V69.132H209.366V68.418ZM212.614 68.418V69.132H211.76V68.418H212.614ZM220.328 67.9V66.57H216.828C216.954 66.22 217.08 65.87 217.192 65.506L215.708 65.156C215.386 66.36 214.77 67.494 213.972 68.264V67.438H211.76V66.962H214.182V65.8H211.76V65.128H210.304V65.8H207.756V66.962H210.304V67.438H208.078V70.098H209.716C209.1 70.658 208.26 71.162 207.462 71.456C207.77 71.694 208.19 72.184 208.4 72.506C209.044 72.184 209.73 71.694 210.304 71.12V72.226H211.76V70.798C212.306 71.12 212.936 71.568 213.258 71.89L213.944 70.966C213.65 70.714 213.132 70.378 212.642 70.098H213.972V68.67C214.28 68.978 214.658 69.398 214.826 69.622C215.036 69.44 215.232 69.216 215.428 68.978C215.666 69.398 215.946 69.804 216.254 70.196C215.624 70.7 214.812 71.064 213.86 71.33C214.154 71.61 214.644 72.212 214.784 72.52C215.75 72.184 216.562 71.75 217.262 71.19C217.92 71.764 218.732 72.226 219.684 72.548C219.866 72.17 220.286 71.554 220.594 71.26C219.684 71.022 218.886 70.644 218.256 70.182C218.746 69.552 219.138 68.796 219.404 67.9H220.328ZM230.87 73.836V76.048H225.326V73.836H230.87ZM223.618 78.204H225.326V77.588H230.87V78.148H232.648V72.366H223.618V78.204ZM225.816 69.636C226.642 69.034 227.412 68.376 228.126 67.634C228.952 68.446 229.764 69.09 230.562 69.636H225.816ZM228.126 65.072C226.656 67.256 224.01 68.95 221.434 69.972C221.896 70.392 222.386 71.022 222.652 71.498C223.282 71.204 223.912 70.854 224.528 70.476V71.162H231.528V70.252C232.186 70.63 232.872 70.966 233.544 71.288C233.768 70.77 234.258 70.154 234.692 69.762C232.802 69.076 230.94 68.124 229.148 66.458C229.302 66.262 229.456 66.052 229.61 65.842L228.126 65.072Z" fill="black"/>
<path d="M97.62 11.56V20.84H98.56V11.56H97.62ZM96.73 13.51C96.66 14.33 96.48 15.44 96.23 16.11L96.95 16.36C97.2 15.62 97.38 14.45 97.43 13.61L96.73 13.51ZM98.45 13.47C98.75 14.08 99.07 14.9 99.18 15.39L99.88 15.05C99.75 14.57 99.42 13.79 99.11 13.19L98.45 13.47ZM99.85 13.12V14.01H103.94V16.6H104.87V13.12H99.85ZM99.35 16.1V17H105.63V16.1H99.35ZM101.71 11.56V14.99C101.71 16.71 101.59 18.86 98.96 20.16C99.18 20.34 99.5 20.69 99.63 20.89C102.34 19.38 102.66 16.98 102.66 14.99V11.56H101.71ZM102.69 17.55C103.4 18.59 104.32 19.99 104.74 20.81L105.6 20.32C105.13 19.51 104.19 18.16 103.48 17.16L102.69 17.55ZM110.52 14.78H114.16V15.87H110.52V14.78ZM109.65 14.03V16.61H115.08V14.03H109.65ZM109.29 12.53V13.33H115.45V12.53H109.29ZM111.86 11.57V19.41H112.78V11.57H111.86ZM111.63 16.35C111.08 17.21 110.01 18.06 109.01 18.46C109.21 18.64 109.49 18.96 109.62 19.18C110.65 18.66 111.72 17.66 112.32 16.61L111.63 16.35ZM112.1 16.95C113.08 17.53 114.31 18.43 114.88 19.03L115.5 18.35C114.89 17.75 113.64 16.91 112.67 16.35L112.1 16.95ZM106.75 11.98C107.17 12.48 107.7 13.18 107.94 13.6L108.69 13.1C108.43 12.69 107.91 12.05 107.47 11.56L106.75 11.98ZM106.44 13.88V14.65H108.54V13.88H106.44ZM108.33 18.36L107.7 18.63C108.45 20.4 109.73 20.68 112.07 20.68C113.2 20.68 114.47 20.66 115.46 20.6C115.51 20.34 115.62 19.91 115.76 19.72C114.69 19.82 113.14 19.87 112.08 19.87C110.16 19.86 108.91 19.69 108.33 18.36ZM108.16 16.35V16.5C107.92 18.28 107.25 19.55 106.26 20.23C106.44 20.36 106.76 20.68 106.88 20.87C107.93 20.09 108.7 18.64 109 16.49L108.59 16.33L108.44 16.35H108.16ZM106.61 17.24C106.69 17.16 106.96 17.1 107.21 17.1H108.53V16.35H107L106.61 16.55V17.24ZM106.61 17.23C106.61 17.01 107.28 16.68 107.28 16.68C107.83 16.04 108.7 14.77 109.16 14.09L108.57 13.82L108.31 13.93V13.96C107.98 14.5 107.07 15.83 106.78 16.12C106.6 16.32 106.44 16.39 106.28 16.43C106.37 16.61 106.55 17.03 106.61 17.23ZM116.54 16.76L116.8 17.67C117.84 17.4 119.2 17.03 120.47 16.68L120.35 15.81C118.97 16.18 117.51 16.55 116.54 16.76ZM116.62 13.53V14.41H120.4V13.53H116.62ZM118.13 11.57V19.79C118.13 19.93 118.08 19.98 117.94 19.98C117.81 19.99 117.39 19.99 116.95 19.97C117.07 20.22 117.19 20.6 117.22 20.83C117.92 20.84 118.37 20.81 118.66 20.67C118.96 20.52 119.06 20.28 119.06 19.78V11.57H118.13ZM121.3 11.66V19.06C121.3 20.24 121.59 20.58 122.66 20.58C122.88 20.58 124.03 20.58 124.26 20.58C125.28 20.58 125.52 19.98 125.63 18.29C125.38 18.22 125 18.05 124.78 17.87C124.72 19.35 124.64 19.73 124.19 19.73C123.94 19.73 122.98 19.73 122.77 19.73C122.32 19.73 122.24 19.63 122.24 19.07V11.66H121.3ZM126.45 13.47V14.34H129.9V13.47H126.45ZM127.93 11.56V20.84H128.79V11.56H127.93ZM127.92 14.08C127.63 15.43 126.99 17.1 126.31 17.97C126.46 18.21 126.69 18.64 126.78 18.91C127.5 17.89 128.15 15.92 128.45 14.29L127.92 14.08ZM128.75 14.71L128.31 15.06C128.58 15.5 129.18 16.68 129.4 17.21L129.96 16.56C129.79 16.26 128.97 14.99 128.75 14.71ZM130.76 11.99V12.81H133.91V15.65H130.76V16.48H134.83V11.99H130.76ZM130.83 13.83V14.61H134.36V13.83H130.83ZM132.74 15.99L131.96 16.14C132.46 18.3 133.38 19.97 135.05 20.79C135.2 20.53 135.48 20.16 135.7 19.97C134.11 19.33 133.17 17.83 132.74 15.99ZM134.78 16.7C134.34 17.13 133.58 17.71 133.05 18.02L133.56 18.63C134.11 18.32 134.84 17.83 135.4 17.37L134.78 16.7ZM130.33 20.86C130.54 20.72 130.88 20.6 132.9 20.07C132.88 19.87 132.86 19.49 132.87 19.24L130.67 19.74L130.26 20.06L130.33 20.86ZM130.33 20.86C130.33 20.53 131.21 20.04 131.21 20.04V11.99H130.29V19.39C130.29 19.8 130.1 19.99 129.93 20.09C130.07 20.26 130.27 20.65 130.33 20.86ZM136.49 18.16V18.94H145.5V18.16H136.49ZM138.39 16.43V17.12H142.97V16.43H138.39ZM140.63 17.8V19.88C140.63 20.01 140.59 20.04 140.43 20.05C140.27 20.05 139.69 20.05 139.13 20.03C139.25 20.26 139.39 20.58 139.44 20.83C140.22 20.83 140.74 20.83 141.1 20.71C141.46 20.58 141.56 20.36 141.56 19.91V17.8H140.63ZM142.74 16.43V16.59C142.29 16.98 141.39 17.51 140.63 17.8C140.75 17.91 140.97 18.14 141.07 18.29C141.98 17.94 142.99 17.41 143.71 16.87L143.16 16.38L142.96 16.43H142.74ZM136.69 15.15V17.08H137.59V15.86H144.39V17.08H145.33V15.15H136.69ZM143.89 11.92C143.84 13.07 143.74 14.58 143.61 15.52H144.52C144.63 14.61 144.73 13.1 144.79 11.92H143.89ZM142.37 11.92V12.54H144.26V11.92H142.37ZM139.26 11.63C138.74 11.8 137.87 12.05 137.28 12.15L137.62 12.68C138.22 12.59 139.07 12.43 139.67 12.19L139.26 11.63ZM137.76 13V13.61H139.6V13H137.76ZM137.8 14.07V14.69H139.64V14.07H137.8ZM142.43 13V13.61H144.17V13H142.43ZM142.37 14.07V14.69H144.1V14.07H142.37ZM141.43 11.64C141.05 12.15 140.36 12.62 139.68 12.94C139.83 13.04 140.08 13.26 140.19 13.38C140.87 13.02 141.62 12.44 142.07 11.82L141.43 11.64ZM139.87 12.13C140.52 12.44 141.31 12.93 141.69 13.29L142.16 12.86C141.75 12.51 140.96 12.03 140.32 11.74L139.87 12.13ZM141.45 13.33C141.05 13.87 140.31 14.37 139.6 14.69C139.75 14.8 139.99 15.05 140.1 15.17C140.82 14.79 141.61 14.18 142.09 13.52L141.45 13.33ZM139.83 13.82C140.51 14.17 141.33 14.71 141.72 15.1L142.2 14.66C141.79 14.27 140.95 13.76 140.29 13.44L139.83 13.82ZM137.28 12.15L137.49 15.49H138.37L138.18 12.39L137.28 12.15ZM150.92 14.66H154.33V15.76H150.92V14.66ZM150.92 12.82H154.33V13.9H150.92V12.82ZM150.06 12.01V16.57H155.24V12.01H150.06ZM149.96 17.61V18.47H155.36V17.61H149.96ZM149.22 19.66V20.52H155.7V19.66H149.22ZM146.41 12.19V13.08H149.62V12.19H146.41ZM146.51 15.08V15.96H149.46V15.08H146.51ZM146.3 18.9L146.52 19.86C147.44 19.56 148.61 19.17 149.71 18.8L149.54 17.89C148.37 18.28 147.13 18.67 146.3 18.9ZM147.59 12.54V18.88L148.5 18.72V12.54H147.59ZM152.23 12.37V16.18H152.15V20.06H153.12V16.18H153.04V12.37H152.23ZM160.38 17.86V18.65H164.74V17.86H160.38ZM160.78 14.34V15.15H164.16V14.34H160.78ZM159.95 15.88V20.87H160.73V16.67H164.66V15.88H159.95ZM161.44 16.25V20.6H162.11V16.25H161.44ZM162.84 16.25V20.6H163.5V16.25H162.84ZM164.26 15.88V19.89C164.26 19.97 164.24 20 164.17 20C164.1 20 163.9 20 163.68 19.99C163.78 20.22 163.86 20.56 163.89 20.78C164.28 20.78 164.56 20.77 164.78 20.64C165 20.51 165.04 20.28 165.04 19.9V15.88H164.26ZM162.43 11.51C161.78 12.71 160.44 13.94 159.2 14.51C159.41 14.74 159.65 15.13 159.77 15.39C161.05 14.67 162.43 13.32 163.16 12L162.43 11.51ZM162.84 12.11L162.08 12.39C162.73 13.61 163.87 14.74 165.08 15.27C165.23 15.01 165.52 14.61 165.74 14.41C164.57 14 163.42 13.06 162.84 12.11ZM156.72 14.6V15.33H159.23V14.6H156.72ZM156.72 15.93V16.66H159.23V15.93H156.72ZM156.36 13.24V14.01H159.51V13.24H156.36ZM157.08 17.29V18.06H158.52V19.49H157.08V20.26H159.3V17.29H157.08ZM156.67 17.29V20.71H157.44V17.29H156.67ZM157.2 11.88C157.47 12.3 157.79 12.89 157.93 13.26L158.69 12.83C158.54 12.47 158.22 11.93 157.93 11.52L157.2 11.88ZM170.17 18.24C171.3 17.88 172 17.01 172 15.91C172 15.15 171.67 14.66 171.05 14.66C170.59 14.66 170.19 14.95 170.19 15.46C170.19 15.97 170.58 16.25 171.03 16.25C171.24 16.25 171.44 16.19 171.59 16.03L171.04 15.21L171.18 16.11C171.18 16.79 170.73 17.29 169.9 17.59L170.17 18.24ZM181.54 11.54C181.22 11.91 180.65 12.34 180.13 12.64C180.25 12.81 180.39 13.1 180.44 13.28C181.05 12.99 181.75 12.59 182.28 12.16L181.54 11.54ZM180.35 14.07V14.9H182.1V14.07H180.35ZM180.35 16.06V16.89H182.1V16.06H180.35ZM179.6 18.42L179.77 19.25C180.53 19.08 181.44 18.89 182.33 18.68L182.25 17.9C181.26 18.1 180.28 18.3 179.6 18.42ZM182.51 12.03V13.42C182.51 14.05 182.44 14.81 181.82 15.37C182 15.46 182.32 15.69 182.44 15.82C183.11 15.19 183.25 14.21 183.25 13.44V12.03H182.51ZM182.76 12.03V12.82H184.52V12.03H182.76ZM182.35 15.99V16.77H184.83V15.99H182.35ZM183.17 16.7L182.41 16.88C182.89 18.71 183.8 20.12 185.24 20.83C185.37 20.61 185.63 20.29 185.82 20.12C184.47 19.54 183.58 18.26 183.17 16.7ZM184.62 15.99V16.14C184.21 18.26 183.07 19.52 181.48 20.14C181.65 20.29 181.92 20.64 182.03 20.85C183.7 20.12 184.97 18.66 185.46 16.16L184.95 15.96L184.79 15.99H184.62ZM180.13 12.64V20.82H180.96V12.92L180.13 12.64ZM184.05 12.03V14.39C184.05 15.1 184.19 15.37 184.87 15.37C184.99 15.37 185.29 15.37 185.41 15.37C185.58 15.37 185.78 15.36 185.89 15.32C185.86 15.15 185.85 14.88 185.83 14.69C185.72 14.72 185.52 14.73 185.4 14.73C185.3 14.73 185.04 14.73 184.95 14.73C184.83 14.73 184.81 14.66 184.81 14.4V12.03H184.05ZM177.03 14.1V14.9H179.44V14.1H177.03ZM176.53 15.84V16.65H179.74V15.84H176.53ZM176.65 17.27C176.79 17.84 176.93 18.59 176.97 19.09L177.56 18.89C177.52 18.41 177.37 17.67 177.21 17.1L176.65 17.27ZM176.41 19.68L176.59 20.53C177.45 20.32 178.61 20.03 179.7 19.75L179.65 19C178.45 19.26 177.21 19.53 176.41 19.68ZM179.05 17C178.98 17.53 178.81 18.3 178.68 18.78L179.2 18.97C179.36 18.52 179.53 17.82 179.7 17.21L179.05 17ZM177.82 14.44V19.92L178.55 19.79V14.44H177.82ZM178.08 11.5C177.65 12.45 176.93 13.36 176.24 13.93C176.35 14.16 176.52 14.68 176.57 14.9C177.38 14.17 178.21 13 178.72 11.83L178.08 11.5ZM177.86 12.69C178.5 13.12 179.22 13.75 179.63 14.22L180 13.44C179.6 13 178.87 12.41 178.2 11.99L177.86 12.69ZM190.27 12.58V13.41H195.46V12.58H190.27ZM192.36 17.12V20.86H193.21V17.12H192.36ZM192.12 17C191.65 18.03 190.66 19.12 189.72 19.63C189.92 19.82 190.15 20.15 190.28 20.38C191.24 19.74 192.26 18.53 192.78 17.42L192.12 17ZM193.49 17.04L192.81 17.33C193.38 18.43 194.35 19.66 195.16 20.35C195.3 20.13 195.59 19.81 195.79 19.64C194.97 19.07 194 18 193.49 17.04ZM191.16 14.86H194.49V16.72H191.16V14.86ZM190.42 14.1V17.47H195.27V14.1H190.42ZM191.41 15.22C191.61 15.62 191.78 16.17 191.83 16.53L192.33 16.38C192.27 16.02 192.08 15.49 191.87 15.08L191.41 15.22ZM193.75 15.03C193.66 15.43 193.45 16.03 193.28 16.4L193.73 16.56C193.91 16.21 194.11 15.68 194.3 15.21L193.75 15.03ZM192.36 11.58V14.42H192.42V17.26H193.14V14.42H193.21V11.58H192.36ZM187.1 14.1V14.9H189.63V14.1H187.1ZM186.56 15.84V16.65H189.93V15.84H186.56ZM186.69 17.27C186.85 17.85 187 18.59 187.04 19.09L187.66 18.9C187.6 18.42 187.45 17.68 187.27 17.11L186.69 17.27ZM186.43 19.68L186.62 20.53C187.55 20.32 188.81 20.03 189.99 19.75L189.94 19C188.64 19.27 187.3 19.53 186.43 19.68ZM189.25 17C189.17 17.53 188.99 18.3 188.85 18.78L189.39 18.96C189.55 18.51 189.75 17.81 189.93 17.2L189.25 17ZM187.93 14.44V19.92L188.69 19.78V14.44H187.93ZM188.26 11.5C187.81 12.45 187.02 13.36 186.26 13.93C186.38 14.16 186.57 14.68 186.62 14.89C187.5 14.16 188.41 12.99 188.96 11.83L188.26 11.5ZM188.02 12.69C188.68 13.11 189.44 13.72 189.86 14.18L190.27 13.4C189.84 12.98 189.09 12.41 188.38 12L188.02 12.69ZM196.77 12.41V14.08H197.63V13.16H204.34V14.08H205.24V12.41H196.77ZM200.66 13.8C200.62 14.42 200.54 15.2 200.44 15.71H201.25C201.33 15.22 201.4 14.44 201.45 13.8H200.66ZM198.71 17.66H203.3V18.06H198.71V17.66ZM198.71 18.55H203.3V18.96H198.71V18.55ZM198.71 16.79H203.3V17.17H198.71V16.79ZM197.8 16.27V19.47H204.26V16.27H197.8ZM201.54 19.91C202.7 20.23 203.88 20.61 204.6 20.89L205.24 20.3C204.45 20.02 203.19 19.65 202.03 19.36L201.54 19.91ZM199.03 14.08H203.03L202.92 15.39H198.86L199.03 14.08ZM198.25 13.57L197.95 15.91H203.74L203.96 13.57H198.25ZM199.73 19.37C199.1 19.71 197.72 20.08 196.63 20.24C196.79 20.41 197.02 20.71 197.14 20.89C198.27 20.71 199.64 20.33 200.48 19.88L199.73 19.37ZM196.46 14.37V15.07H198.67V14.98H203.26V15.07H205.57V14.37H203.26V14.46H198.67V14.37H196.46ZM200.18 11.73C200.41 12.08 200.66 12.57 200.74 12.89L201.62 12.62C201.51 12.3 201.25 11.82 201 11.48L200.18 11.73ZM207.34 12.47H208.09V13.29H207.34V12.47ZM206.65 11.85V13.92H208.81V11.85H206.65ZM209.92 12.47H210.69V13.29H209.92V12.47ZM209.23 11.85V13.92H211.41V11.85H209.23ZM211.43 14.54L211.54 15.42L215.7 14.9L215.59 14.03L211.43 14.54ZM213.69 12.1C214.12 12.63 214.58 13.36 214.76 13.83L215.52 13.4C215.33 12.93 214.85 12.23 214.41 11.72L213.69 12.1ZM207.53 16.48H210.5V17.18H207.53V16.48ZM207.53 15.1H210.5V15.8H207.53V15.1ZM206.74 14.39V17.9H211.33V14.39H206.74ZM206.33 18.52V19.36H211.62V18.52H206.33ZM208.6 14.64V17.6H208.54V20.85H209.46V17.6H209.4V14.64H208.6ZM212.31 11.63C212.47 16.93 213.01 20.79 214.73 20.87C215.15 20.88 215.59 20.46 215.81 18.8C215.66 18.71 215.27 18.47 215.11 18.28C215.05 19.23 214.92 19.75 214.74 19.74C213.87 19.68 213.29 16 213.21 11.63H212.31ZM214.65 15.34C214.01 17.34 212.61 19.24 210.83 20.09C211.07 20.26 211.36 20.54 211.52 20.76C213.26 19.8 214.69 17.81 215.37 15.74L214.65 15.34ZM100.14 26.03V26.88H105.5V26.03H100.14ZM100.37 31.21V32.06H105.2V31.21H100.37ZM99.86 33.74V34.61H105.61V33.74H99.86ZM102.29 31.61V34.27H103.24V31.61H102.29ZM101.07 27.13C100.84 27.61 100.41 28.35 100.01 28.96C100.53 29.66 100.99 30.42 101.21 30.94L101.98 30.63C101.77 30.19 101.33 29.51 100.9 28.95C101.23 28.45 101.61 27.85 101.88 27.33L101.07 27.13ZM102.78 27.14C102.55 27.62 102.12 28.35 101.7 28.95C102.24 29.64 102.72 30.39 102.94 30.91L103.7 30.58C103.49 30.15 103.04 29.49 102.6 28.94C102.93 28.45 103.31 27.85 103.59 27.34L102.78 27.14ZM104.5 27.13C104.26 27.61 103.81 28.36 103.38 28.96C103.95 29.65 104.48 30.42 104.72 30.94L105.48 30.59C105.24 30.16 104.76 29.5 104.3 28.95C104.63 28.45 105.02 27.86 105.32 27.34L104.5 27.13ZM98.78 29.58C99.03 30.27 99.29 31.16 99.37 31.7L100.12 31.45C100.02 30.92 99.74 30.04 99.48 29.38L98.78 29.58ZM97.85 32.19C97.97 32.85 98.07 33.73 98.09 34.3L98.83 34.15C98.8 33.58 98.68 32.72 98.56 32.06L97.85 32.19ZM96.77 32.07C96.69 32.91 96.55 33.83 96.31 34.44C96.51 34.51 96.89 34.63 97.07 34.72C97.28 34.08 97.46 33.11 97.56 32.2L96.77 32.07ZM96.59 29.41C96.59 29.23 97.12 28.96 97.12 28.96V28.94C97.78 28.15 98.47 26.99 98.97 25.89L98.13 25.54C97.75 26.62 97.08 27.75 96.86 28.04C96.66 28.35 96.49 28.55 96.3 28.59C96.4 28.82 96.54 29.23 96.59 29.41ZM96.59 29.41C96.77 29.32 97.07 29.25 98.65 29.09C98.66 28.9 98.69 28.57 98.74 28.34L96.98 28.48L96.56 28.74L96.59 29.41ZM96.66 31.69C96.66 31.52 97.21 31.24 97.21 31.24V31.22C98.17 30.24 99.14 28.86 99.88 27.52L99.09 27.05C98.46 28.4 97.44 29.82 97.12 30.18C96.81 30.55 96.59 30.79 96.36 30.84C96.47 31.08 96.61 31.51 96.66 31.69ZM96.66 31.69C96.87 31.58 97.21 31.5 99.43 31.18C99.42 30.99 99.44 30.66 99.47 30.43L97.04 30.74L96.62 31.01L96.66 31.69ZM98.85 31.98C99.04 32.5 99.24 33.19 99.31 33.63L100.01 33.39C99.92 32.95 99.7 32.29 99.51 31.77L98.85 31.98ZM107.28 27.58V28.3H110.04V27.58H107.28ZM107.28 29.06V29.78H110.06V29.06H107.28ZM108.33 26.57V31.11H109.07V26.57H108.33ZM108.56 31.76C108.75 32.17 108.97 32.72 109.06 33.08L109.45 32.92C109.36 32.58 109.13 32.04 108.93 31.63L108.56 31.76ZM107.97 31.9C108.11 32.41 108.25 33.09 108.3 33.54L108.74 33.44C108.68 33 108.53 32.33 108.39 31.82L107.97 31.9ZM107.37 31.98C107.44 32.57 107.47 33.32 107.46 33.82L107.92 33.76C107.91 33.27 107.87 32.52 107.8 31.94L107.37 31.98ZM106.71 31.79C106.64 32.45 106.48 33.4 106.28 33.98L106.82 34.18C107 33.6 107.14 32.63 107.22 31.96L106.71 31.79ZM109.51 30.58V30.72C109.46 33.02 109.4 33.83 109.26 34.01C109.2 34.11 109.13 34.12 109.02 34.12C108.9 34.12 108.66 34.12 108.38 34.09C108.49 34.29 108.56 34.59 108.58 34.8C108.88 34.82 109.19 34.82 109.38 34.79C109.61 34.76 109.77 34.7 109.91 34.5C110.12 34.22 110.19 33.35 110.26 30.91C110.27 30.81 110.27 30.58 110.27 30.58H109.51ZM110.22 25.99H106.81V31.37H109.91V30.58H107.56V26.77H110.22V25.99ZM111.25 29.83H112V30.96H111.25V29.83ZM110.61 29.2V31.58H112.68V29.2H110.61ZM113.73 29.83H114.54V30.96H113.73V29.83ZM113.08 29.2V31.58H115.22V29.2H113.08ZM111.31 31.84C111.11 32.85 110.67 33.75 110.03 34.32C110.22 34.45 110.53 34.72 110.67 34.85C111.35 34.19 111.86 33.15 112.11 31.98L111.31 31.84ZM111.4 27.79V28.53H114.38V27.79H111.4ZM111.23 33.22C111.66 33.5 112.2 33.92 112.45 34.21L112.94 33.58C112.68 33.31 112.13 32.91 111.7 32.66L111.23 33.22ZM113.79 31.79C113.61 32.83 113.22 33.74 112.58 34.31C112.78 34.44 113.13 34.71 113.28 34.85C113.94 34.18 114.42 33.13 114.63 31.93L113.79 31.79ZM113.56 33.47C114.07 33.83 114.72 34.35 115.03 34.7L115.59 34.05C115.27 33.72 114.61 33.23 114.1 32.89L113.56 33.47ZM112.67 25.45C112.14 26.38 111.14 27.35 110.02 27.97C110.2 28.11 110.48 28.4 110.61 28.57C111.8 27.87 112.88 26.87 113.53 25.74L112.67 25.45ZM113.06 25.75L112.42 26.14C113.09 26.99 114.28 27.95 115.31 28.51C115.37 28.28 115.54 27.88 115.69 27.67C114.75 27.25 113.62 26.45 113.06 25.75ZM120.17 32.24C121.3 31.88 122 31.01 122 29.91C122 29.15 121.67 28.66 121.05 28.66C120.59 28.66 120.19 28.95 120.19 29.46C120.19 29.97 120.58 30.25 121.03 30.25C121.24 30.25 121.44 30.19 121.59 30.03L121.04 29.21L121.18 30.11C121.18 30.79 120.73 31.29 119.9 31.59L120.17 32.24ZM131.83 32.9V33.79H134.69V32.9H131.83ZM131.42 26.43V34.56H132.33V27.32H134.17V34.43H135.12V26.43H131.42ZM128.39 27.3V29.26C128.39 30.78 128.18 32.75 126.28 34.11C126.48 34.25 126.83 34.62 126.95 34.82C128.99 33.35 129.34 30.97 129.34 29.27V27.3H128.39ZM127.45 26.87V27.75H130.85V26.87H127.45ZM126.41 29.57V30.47H131.12V29.57H126.41ZM129.08 30.92L128.5 31.46C128.98 32 130.06 33.31 130.5 33.98L131.14 33.18C130.83 32.81 129.48 31.28 129.08 30.92ZM127.45 25.56C127.23 26.75 126.83 27.93 126.26 28.68C126.47 28.8 126.86 29.07 127.03 29.22C127.61 28.37 128.09 27.07 128.36 25.74L127.45 25.56ZM139.72 33.58V34.45H144.39V33.58H139.72ZM139.3 26.56V27.4H142.92V26.56H139.3ZM139.67 25.52C139.09 26.61 137.96 27.87 136.31 28.76C136.52 28.93 136.84 29.27 136.98 29.5C138.74 28.45 139.94 27.1 140.74 25.73L139.67 25.52ZM142.61 26.56V26.72C141.62 29.3 138.94 31.25 136.27 32.02C136.47 32.22 136.71 32.61 136.82 32.87C139.66 31.93 142.41 29.91 143.6 26.85L142.96 26.51L142.79 26.56H142.61ZM138.03 28.52C138.78 29.06 139.7 29.87 140.1 30.42L140.87 29.74C140.42 29.19 139.48 28.43 138.73 27.91L138.03 28.52ZM143.94 30.47V34.86H144.92V30.47H143.94ZM140.13 30.47H139.92L139.18 31.19V34.84H140.13V31.33H144.42V30.47H140.13ZM146.6 31.71V32.5H155.43V31.71H146.6ZM146.63 27.28V28.04H155.39V27.28H146.63ZM147.04 29.05V29.79H155.02V29.05H147.04ZM147.54 30.4V31.1H154.54V30.4H147.54ZM150.51 29.4V34.85H151.45V29.4H150.51ZM149.63 25.55V27.66H150.51V25.55H149.63ZM151.5 25.55V27.61H152.4V25.55H151.5ZM153.82 25.66C153.66 26.11 153.36 26.75 153.1 27.16L153.87 27.41C154.14 27.02 154.49 26.46 154.8 25.91L153.82 25.66ZM152.55 27.99C152.42 28.26 152.16 28.67 151.97 28.95L152.76 29.19C152.99 28.95 153.27 28.61 153.54 28.25L152.55 27.99ZM147.41 25.92C147.72 26.38 148.05 27.01 148.18 27.41L149.03 27.09C148.9 26.69 148.55 26.08 148.22 25.64L147.41 25.92ZM148.62 28.18C148.82 28.49 149.03 28.91 149.11 29.17L150.03 28.94C149.93 28.67 149.71 28.27 149.51 27.98L148.62 28.18ZM149.44 32.93C148.81 33.34 147.58 33.71 146.55 33.87C146.74 34.04 147 34.35 147.12 34.56C148.16 34.33 149.43 33.81 150.13 33.25L149.44 32.93ZM152 33.35C152.91 33.7 154.15 34.23 154.77 34.55L155.41 34C154.74 33.68 153.5 33.19 152.61 32.87L152 33.35ZM157.12 27.06V27.86H159.01V29.14H157.12V29.95H159.85V27.06H157.12ZM157.15 30.75V31.56H159.1V33.06H157.15V33.86H159.95V30.75H157.15ZM156.76 27.06V34.52H157.61V27.06H156.76ZM160.19 26.06V26.92H165.58V26.06H160.19ZM157.97 25.55C157.89 26.07 157.7 26.79 157.53 27.28L158.28 27.43C158.51 26.98 158.79 26.29 159.01 25.68L157.97 25.55ZM162.43 26.45V34.83H163.32V26.45H162.43ZM160.55 28.01V33.32H161.42V28.86H164.87V28.01H160.55ZM164.42 28.01V32.4C164.42 32.5 164.39 32.53 164.29 32.53C164.2 32.54 163.91 32.54 163.59 32.53C163.71 32.76 163.82 33.11 163.85 33.35C164.37 33.35 164.72 33.34 164.98 33.19C165.24 33.05 165.3 32.81 165.3 32.41V28.01H164.42ZM170.57 30.51V30.65C170.43 32.66 170.27 33.52 170.02 33.73C169.9 33.83 169.78 33.84 169.57 33.84C169.31 33.84 168.66 33.84 168.02 33.78C168.21 34.05 168.35 34.46 168.37 34.76C169 34.79 169.62 34.79 169.95 34.76C170.34 34.73 170.59 34.66 170.84 34.39C171.17 34.04 171.35 33.12 171.52 30.93C171.54 30.79 171.55 30.51 171.55 30.51H170.57ZM167.38 28.25C167.25 29.26 167.02 30.56 166.82 31.39H167.8C167.97 30.59 168.19 29.3 168.34 28.25H167.38ZM173.69 25.69V34.84H174.64V25.69H173.69ZM167.5 30.51L167.38 31.39H170.73V30.51H167.5ZM167.85 28.25V29.13H171.47V25.97H167.07V26.85H170.54V28.25H167.85ZM177.56 27.74V28.41H185.27V27.74H177.56ZM179.02 31.07V31.7H184.96V31.07H179.02ZM179.05 32.18V32.83H184.53V32.18H179.05ZM179.43 28.21V30.25H180.23V28.21H179.43ZM181.67 28.21V30.25H182.48V28.21H181.67ZM177.18 27.74V30.02C177.18 31.3 177.1 33.06 176.24 34.32C176.45 34.41 176.84 34.64 177.01 34.79C177.92 33.45 178.07 31.44 178.07 30.03V27.74H177.18ZM177.73 28.92V29.48H183.86V30.03H177.73V30.59H184.78V28.92H177.73ZM184.3 32.18V32.29C184.22 33.47 184.12 33.94 183.99 34.08C183.92 34.15 183.85 34.16 183.72 34.16C183.58 34.16 183.28 34.16 182.95 34.12C183.07 34.32 183.14 34.62 183.16 34.83C183.55 34.85 183.93 34.85 184.14 34.83C184.38 34.8 184.56 34.74 184.73 34.58C184.94 34.35 185.05 33.8 185.15 32.5C185.17 32.39 185.18 32.18 185.18 32.18H184.3ZM178.48 33.03C178.33 33.47 178.06 34.06 177.77 34.4L178.44 34.79C178.74 34.4 178.99 33.79 179.15 33.33L178.48 33.03ZM179.54 33.29C179.65 33.74 179.73 34.33 179.73 34.71L180.48 34.59C180.47 34.22 180.38 33.63 180.25 33.19L179.54 33.29ZM180.84 33.23C181.05 33.62 181.26 34.16 181.34 34.52L182.05 34.28C181.96 33.93 181.74 33.41 181.51 33.03L180.84 33.23ZM182.15 33.11C182.41 33.39 182.7 33.8 182.83 34.06L183.46 33.75C183.33 33.49 183.04 33.11 182.76 32.84L182.15 33.11ZM180.29 27.26C180.49 27.55 180.71 27.94 180.79 28.2L181.55 27.91C181.45 27.66 181.23 27.29 181.01 27.02L180.29 27.26ZM176.51 26.14V26.87H180.7V26.14H176.51ZM178.52 25.56V27.45H179.43V25.56H178.52ZM182.57 25.56V27.45H183.48V25.56H182.57ZM181.21 26.14V26.86H185.44V26.14H181.21ZM178.87 30.39L178.45 32.83H179.27L179.66 30.51L178.87 30.39ZM190.45 25.57V33.8H191.49V25.57H190.45ZM193.97 30.57V34.83H195.01V30.57H193.97ZM187.44 26.45V29.98H194.61V26.44H193.57V29.06H188.43V26.45H187.44ZM186.96 30.57V34.28H194.46V33.33H188.01V30.57H186.96ZM201.29 28.58V29.45H204.75V28.58H201.29ZM197.39 30.42V31.26H198.98V34.83H199.85V30.42H197.39ZM196.98 25.62V29.65C196.98 31.17 196.91 33.05 196.33 34.34C196.53 34.46 196.85 34.73 197 34.91C197.73 33.49 197.82 31.43 197.82 29.65V25.62H196.98ZM204.47 28.58V28.77C204.09 31.34 202.82 33.27 201.16 34.09C201.36 34.27 201.63 34.63 201.76 34.87C203.6 33.81 204.91 31.83 205.38 28.74L204.79 28.56L204.63 28.58H204.47ZM202.42 29.15L201.65 29.33C202.21 31.84 203.23 33.83 205.08 34.82C205.23 34.57 205.52 34.21 205.73 34.03C203.96 33.22 202.91 31.37 202.42 29.15ZM200.8 26.39V29.73C200.8 31.17 200.72 33.09 200.01 34.39C200.24 34.5 200.58 34.75 200.75 34.9C201.57 33.48 201.69 31.39 201.69 29.74V26.39H200.8ZM199.04 25.84V28.56H197.46V29.4H199.9V25.84H199.04ZM200.8 26.15V27.01H205.28V26.15H200.8Z" fill="white"/>
<defs>
<linearGradient id="paint0_linear_481_1426" x1="41.3032" y1="39.768" x2="44.9333" y2="47.8234" gradientUnits="userSpaceOnUse">
<stop stop-color="#FFF176"/>
<stop offset="1" stop-color="#00E0B8"/>
</linearGradient>
<linearGradient id="paint1_linear_481_1426" x1="41.3093" y1="47.0999" x2="44.9393" y2="55.1553" gradientUnits="userSpaceOnUse">
<stop stop-color="#FFF176"/>
<stop offset="1" stop-color="#00E0B8"/>
</linearGradient>
<linearGradient id="paint2_linear_481_1426" x1="28.3681" y1="26.8001" x2="63.9908" y2="65.3988" gradientUnits="userSpaceOnUse">
<stop stop-color="#FFF176"/>
<stop offset="1" stop-color="#00E0B8"/>
</linearGradient>
<linearGradient id="paint3_linear_481_1426" x1="15.4906" y1="12.9198" x2="76.7396" y2="79.3027" gradientUnits="userSpaceOnUse">
<stop stop-color="#FFF176"/>
<stop offset="1" stop-color="#00E0B8"/>
</linearGradient>
<linearGradient id="paint4_linear_481_1426" x1="23.3513" y1="20.065" x2="28.1095" y2="25.1186" gradientUnits="userSpaceOnUse">
<stop stop-color="#FFF176"/>
<stop offset="1" stop-color="#00E0B8"/>
</linearGradient>
<linearGradient id="paint5_linear_481_1426" x1="28.7357" y1="16.6773" x2="32.9244" y2="20.3165" gradientUnits="userSpaceOnUse">
<stop stop-color="#FFF176"/>
<stop offset="1" stop-color="#00E0B8"/>
</linearGradient>
<linearGradient id="paint6_linear_481_1426" x1="34.125" y1="14.7149" x2="38.018" y2="17.503" gradientUnits="userSpaceOnUse">
<stop stop-color="#FFF176"/>
<stop offset="1" stop-color="#00E0B8"/>
</linearGradient>
<linearGradient id="paint7_linear_481_1426" x1="38.9263" y1="13.512" x2="41.7205" y2="14.6021" gradientUnits="userSpaceOnUse">
<stop stop-color="#FFF176"/>
<stop offset="1" stop-color="#00E0B8"/>
</linearGradient>
<linearGradient id="paint8_linear_481_1426" x1="43.0406" y1="12.8504" x2="46.5203" y2="14.7033" gradientUnits="userSpaceOnUse">
<stop stop-color="#FFF176"/>
<stop offset="1" stop-color="#00E0B8"/>
</linearGradient>
<linearGradient id="paint9_linear_481_1426" x1="51.2599" y1="13.2666" x2="55.0692" y2="15.7499" gradientUnits="userSpaceOnUse">
<stop stop-color="#FFF176"/>
<stop offset="1" stop-color="#00E0B8"/>
</linearGradient>
<linearGradient id="paint10_linear_481_1426" x1="56.0721" y1="14.7387" x2="60.367" y2="17.8312" gradientUnits="userSpaceOnUse">
<stop stop-color="#FFF176"/>
<stop offset="1" stop-color="#00E0B8"/>
</linearGradient>
<linearGradient id="paint11_linear_481_1426" x1="61.0398" y1="17.4528" x2="64.901" y2="20.8074" gradientUnits="userSpaceOnUse">
<stop stop-color="#FFF176"/>
<stop offset="1" stop-color="#00E0B8"/>
</linearGradient>
<linearGradient id="paint12_linear_481_1426" x1="64.8801" y1="20.3379" x2="68.883" y2="24.446" gradientUnits="userSpaceOnUse">
<stop stop-color="#FFF176"/>
<stop offset="1" stop-color="#00E0B8"/>
</linearGradient>
<linearGradient id="paint13_linear_481_1426" x1="24.0002" y1="68.3259" x2="28.8648" y2="73.2811" gradientUnits="userSpaceOnUse">
<stop stop-color="#FFF176"/>
<stop offset="1" stop-color="#00E0B8"/>
</linearGradient>
<linearGradient id="paint14_linear_481_1426" x1="29.8043" y1="71.6139" x2="33.9798" y2="75.1279" gradientUnits="userSpaceOnUse">
<stop stop-color="#FFF176"/>
<stop offset="1" stop-color="#00E0B8"/>
</linearGradient>
<linearGradient id="paint15_linear_481_1426" x1="34.6646" y1="73.8647" x2="38.5362" y2="76.5765" gradientUnits="userSpaceOnUse">
<stop stop-color="#FFF176"/>
<stop offset="1" stop-color="#00E0B8"/>
</linearGradient>
<linearGradient id="paint16_linear_481_1426" x1="39.3854" y1="74.9253" x2="42.0645" y2="75.9108" gradientUnits="userSpaceOnUse">
<stop stop-color="#FFF176"/>
<stop offset="1" stop-color="#00E0B8"/>
</linearGradient>
<linearGradient id="paint17_linear_481_1426" x1="43.3664" y1="75.3936" x2="46.8044" y2="77.207" gradientUnits="userSpaceOnUse">
<stop stop-color="#FFF176"/>
<stop offset="1" stop-color="#00E0B8"/>
</linearGradient>
<linearGradient id="paint18_linear_481_1426" x1="51.2541" y1="74.9482" x2="54.8636" y2="76.9384" gradientUnits="userSpaceOnUse">
<stop stop-color="#FFF176"/>
<stop offset="1" stop-color="#00E0B8"/>
</linearGradient>
<linearGradient id="paint19_linear_481_1426" x1="56.0634" y1="73.5806" x2="60.2589" y2="77.077" gradientUnits="userSpaceOnUse">
<stop stop-color="#FFF176"/>
<stop offset="1" stop-color="#00E0B8"/>
</linearGradient>
<linearGradient id="paint20_linear_481_1426" x1="60.8789" y1="71.4084" x2="64.7384" y2="74.6854" gradientUnits="userSpaceOnUse">
<stop stop-color="#FFF176"/>
<stop offset="1" stop-color="#00E0B8"/>
</linearGradient>
<linearGradient id="paint21_linear_481_1426" x1="64.7255" y1="68.6157" x2="68.7806" y2="72.6541" gradientUnits="userSpaceOnUse">
<stop stop-color="#FFF176"/>
<stop offset="1" stop-color="#00E0B8"/>
</linearGradient>
</defs>
</svg>
