<svg width="268" height="92" viewBox="0 0 268 92" fill="none" xmlns="http://www.w3.org/2000/svg">
<path d="M238.375 5.5H66.25V40.375H238.375V5.5Z" fill="#00E0B8"/>
<path d="M50.5328 87.4672V39.5328H266.467V87.4672H50.5328Z" fill="white" stroke="#00E0B8" stroke-width="1.06567"/>
<path d="M267.368 39.25H253V87.5427H267.368V39.25Z" fill="#00E0B8"/>
<path d="M46.3032 83.2103C66.9789 83.2103 83.7399 66.5657 83.7399 46.0336C83.7399 25.5015 66.9789 8.85693 46.3032 8.85693C25.6274 8.85693 8.86642 25.5015 8.86642 46.0336C8.86642 66.5657 25.6274 83.2103 46.3032 83.2103Z" fill="white"/>
<path d="M46.285 44.8188C46.5798 44.8161 46.8655 44.9203 47.0884 45.1118C47.3114 45.3034 47.4564 45.5691 47.4962 45.8592H53.6004C53.5376 43.9677 52.7346 42.175 51.362 40.8621C49.9894 39.5492 48.1554 38.8196 46.2496 38.8282C44.3439 38.8368 42.5166 39.583 41.1561 40.9083C39.7956 42.2335 39.009 44.0333 38.9636 45.9253H45.0678C45.0923 45.6222 45.2314 45.3396 45.4573 45.1343C45.6831 44.929 45.9789 44.8163 46.285 44.8188Z" fill="url(#paint0_linear_496_1710)"/>
<path d="M46.285 47.2602C45.9911 47.263 45.7062 47.1597 45.4834 46.9694C45.2606 46.7791 45.115 46.5148 45.0739 46.2258H38.9697C39.0324 48.1173 39.8355 49.91 41.2081 51.2228C42.5807 52.5357 44.4147 53.2654 46.3204 53.2568C48.2262 53.2482 50.0534 52.502 51.414 51.1767C52.7745 49.8515 53.561 48.0517 53.6065 46.1597L47.5083 46.1897C47.4752 46.4874 47.3314 46.762 47.1052 46.96C46.879 47.1579 46.5865 47.265 46.285 47.2602Z" fill="url(#paint1_linear_496_1710)"/>
<path d="M46.176 19.868C40.9633 19.8918 35.8749 21.4502 31.5541 24.346C27.2334 27.2418 23.8745 31.345 21.9021 36.1366C19.9297 40.9282 19.4326 46.1931 20.4735 51.2653C21.5144 56.3376 24.0466 60.9894 27.7498 64.6324C31.4531 68.2754 36.161 70.7461 41.2783 71.7319C46.3956 72.7178 51.6924 72.1744 56.4988 70.1707C61.3051 68.167 65.4052 64.7929 68.2804 60.4751C71.1556 56.1573 72.6769 51.0897 72.6518 45.9133C72.6359 42.4767 71.9385 39.0768 70.5993 35.9079C69.2601 32.739 67.3053 29.8631 64.8467 27.4444C62.3882 25.0258 59.4739 23.1119 56.2703 21.8119C53.0667 20.5119 49.6366 19.8514 46.176 19.868ZM29.8254 62.0601C29.6498 61.8917 29.3773 61.6572 29.0624 61.3264C28.1536 60.3978 27.3289 59.3917 26.5977 58.3196C25.5073 56.7188 24.6395 54.9791 24.0179 53.1478C22.4499 48.6127 22.4265 43.6915 23.9513 39.1419C24.5562 37.3019 25.4098 35.552 26.4887 33.94C27.2046 32.8683 28.0152 31.862 28.911 30.9332C29.2198 30.6024 29.5166 30.3679 29.6619 30.1935L29.9284 29.9409L29.6861 30.2236C29.5347 30.41 29.2925 30.6626 29.0079 31.0234C28.2057 32.0239 27.481 33.0834 26.8399 34.1926C25.8958 35.8252 25.1555 37.5659 24.6356 39.3764C23.3393 43.8121 23.3603 48.5252 24.6962 52.9493C25.2365 54.7573 25.995 56.4938 26.955 58.1211C27.6051 59.2241 28.3401 60.2756 29.1532 61.2663C29.4378 61.6211 29.6801 61.8676 29.8375 62.0601L30.0797 62.3367L29.8254 62.0601ZM31.3333 59.3118L30.8609 58.8427C30.6853 58.6804 30.5339 58.4579 30.3462 58.2414L29.7406 57.5318L29.4318 57.1469L29.1411 56.7079C28.6893 56.066 28.2846 55.3928 27.93 54.6933C27.7483 54.3144 27.5182 53.9356 27.3607 53.4906L26.9065 52.2217C25.5142 48.2725 25.4844 43.9757 26.8217 40.0078C26.9852 39.5628 27.1488 39.1298 27.3062 38.7089C27.4637 38.2879 27.6877 37.903 27.8694 37.5061C28.2204 36.8009 28.6253 36.1234 29.0805 35.4795C29.1774 35.3292 29.2683 35.1788 29.3652 35.0405L29.674 34.6436L30.2433 33.934C30.4006 33.7254 30.5683 33.5246 30.7459 33.3326L31.2182 32.8576L32.0903 31.9916C32.0903 31.9916 31.8178 32.3344 31.3151 32.9478L30.9033 33.4589C30.7459 33.6393 30.6187 33.8679 30.4552 34.1024L29.9344 34.8782L29.668 35.2871L29.4257 35.7381C29.0399 36.3978 28.6999 37.083 28.4084 37.7888C28.257 38.1677 28.0632 38.5465 27.93 38.9615L27.5121 40.2424C26.3873 44.0844 26.4062 48.1676 27.5666 51.9992L27.9845 53.2741C28.1237 53.695 28.3236 54.0679 28.475 54.4467C28.7711 55.1498 29.1171 55.831 29.5105 56.4854L29.7588 56.9364L30.0313 57.3393L30.5339 58.079C30.6974 58.3075 30.8246 58.536 30.9821 58.7164L31.406 59.2216L32.1872 60.1778L31.3333 59.3118ZM33.5679 57.3153L33.1621 56.9244C33.0107 56.78 32.8836 56.5996 32.7261 56.4192L32.2295 55.8179L31.9631 55.4931L31.7148 55.1203C31.3302 54.5766 30.9861 54.0058 30.6853 53.4124C30.5279 53.0876 30.328 52.7689 30.1887 52.4081C30.0495 52.0473 29.9102 51.6804 29.7588 51.3076C29.1865 49.6352 28.8821 47.8839 28.8565 46.1178C28.8698 44.3505 29.1578 42.5959 29.7103 40.9159L30.1342 39.8094C30.2675 39.4486 30.4613 39.1298 30.6127 38.8051C30.9105 38.2087 31.2505 37.634 31.63 37.0852L31.8723 36.7123L32.1387 36.3816C32.3083 36.1651 32.4718 35.9666 32.6292 35.7802C32.7658 35.6026 32.9113 35.432 33.0652 35.269L33.4649 34.8721L34.2158 34.1385L33.5679 34.9623L33.2166 35.3953C33.0834 35.5517 32.9805 35.7501 32.8472 35.9426C32.714 36.135 32.5747 36.3515 32.4294 36.58L32.1993 36.9228L31.9994 37.3077C31.6775 37.8693 31.3942 38.452 31.1516 39.0517C31.0244 39.3764 30.8609 39.6951 30.7519 40.0439C30.6429 40.3927 30.5218 40.7596 30.4068 41.1324C29.47 44.3871 29.4868 47.8395 30.4552 51.0851C30.5763 51.4519 30.6914 51.8127 30.8064 52.1675C30.9215 52.5223 31.085 52.8351 31.2182 53.1598C31.4672 53.7548 31.7544 54.3333 32.0781 54.8917L32.2901 55.2766L32.5142 55.6194L32.9623 56.2448C33.1016 56.4373 33.2106 56.6357 33.3438 56.7921L33.695 57.219L34.3248 58.0489L33.5679 57.3153ZM35.8267 55.3187C35.5701 55.0944 35.333 54.849 35.1181 54.585L34.7064 54.0979L34.4762 53.8393L34.2703 53.5326C33.9441 53.0895 33.6545 52.621 33.4044 52.1315C33.2711 51.8608 33.1076 51.5962 32.9926 51.3076L32.6353 50.3935C32.1513 49.0141 31.8936 47.5664 31.8723 46.1057C31.8839 44.6458 32.1271 43.1967 32.5929 41.812L32.9441 40.8979C33.0592 40.6032 33.2166 40.3386 33.3499 40.074C33.5964 39.5825 33.8798 39.1101 34.1977 38.6608L34.4036 38.3541L34.6216 38.0835L35.0334 37.5903C35.2461 37.3265 35.4789 37.0792 35.7298 36.8507L36.3354 36.2493L35.8085 36.9349C35.5846 37.1907 35.3821 37.4642 35.2029 37.7527L34.8638 38.2759L34.6821 38.5585L34.5186 38.8773C34.2585 39.3407 34.0299 39.8208 33.8343 40.3145C33.7314 40.5792 33.5981 40.8437 33.5134 41.1324C33.4286 41.4211 33.3317 41.7338 33.2409 42.0224C32.4938 44.6876 32.5063 47.5065 33.2772 50.165L33.5618 51.055C33.6526 51.3437 33.7859 51.6083 33.8888 51.8729C34.0907 52.362 34.3233 52.838 34.5852 53.2981L34.7548 53.6168L34.9365 53.8995L35.2817 54.4227C35.4626 54.7062 35.6651 54.9755 35.8872 55.2285C36.2264 55.6675 36.4201 55.9081 36.4201 55.9081L35.8267 55.3187ZM38.0794 53.3222C37.8747 53.1492 37.6844 52.9602 37.5102 52.7569L37.1771 52.378L37.0015 52.1675L36.8319 51.933C36.5717 51.5844 36.3389 51.2165 36.1355 50.8325C36.0125 50.6244 35.9013 50.4095 35.8024 50.189L35.5118 49.4734C35.1262 48.3849 34.9217 47.2414 34.9062 46.0877C34.9254 44.9323 35.1298 43.7874 35.5118 42.696L35.7964 41.9803C35.8933 41.7458 36.0205 41.5353 36.1234 41.3309C36.3238 40.9458 36.5525 40.576 36.8077 40.2243L36.9712 39.9838L37.1529 39.7733L37.4799 39.3945C37.6474 39.1781 37.8338 38.9768 38.037 38.7931L38.5397 38.336L38.14 38.8773C37.9799 39.0849 37.8323 39.3018 37.6979 39.5268L37.4375 39.9417L37.2982 40.1702L37.1771 40.4168C36.9797 40.7815 36.8077 41.1593 36.6624 41.5473C36.5836 41.7518 36.4807 41.9623 36.4141 42.1848L36.2082 42.8824C35.639 44.9574 35.639 47.1458 36.2082 49.2208L36.4201 49.9124C36.4928 50.1409 36.5957 50.3454 36.6745 50.5559C36.8223 50.941 36.9984 51.3149 37.2013 51.6744L37.3285 51.927L37.4678 52.1495L37.7282 52.5644C37.859 52.7993 38.0067 53.0243 38.1702 53.238L38.576 53.7792L38.0794 53.3222ZM47.2115 54.3686C45.4781 54.554 43.7295 54.202 42.2057 53.3609C40.6819 52.5198 39.4577 51.2307 38.7013 49.6709C37.9449 48.111 37.6933 46.3569 37.9812 44.6494C38.2691 42.9418 39.0823 41.3647 40.3091 40.1346C41.5359 38.9045 43.1162 38.0818 44.8328 37.7794C46.5494 37.4771 48.3182 37.71 49.8961 38.446C51.4741 39.1821 52.7839 40.3853 53.6456 41.8903C54.5073 43.3954 54.8786 45.1284 54.7085 46.8514C54.5125 48.7677 53.6607 50.5592 52.2952 51.9272C50.9298 53.2952 49.1333 54.1569 47.2055 54.3686H47.2115ZM55.6896 52.0833L55.514 52.2938L55.187 52.6787C55.013 52.882 54.8248 53.0729 54.6238 53.25L54.1211 53.707L54.5208 53.1598C54.6865 52.9549 54.8363 52.7377 54.9689 52.5103L55.2233 52.0954L55.3626 51.8729L55.4897 51.6203C55.6836 51.2559 55.8554 50.8804 56.0045 50.4957C56.0832 50.2853 56.1801 50.0808 56.2467 49.8523C56.3133 49.6237 56.386 49.3952 56.4526 49.1547C56.7223 48.1193 56.8627 47.0549 56.8705 45.9855C56.8501 44.915 56.6996 43.8509 56.4223 42.8162L56.2104 42.1247C56.1438 41.8961 56.0408 41.6917 55.9621 41.4872C55.8092 41.1023 55.6333 40.7267 55.4352 40.3626L55.3081 40.1161C55.2596 40.0379 55.2112 39.9657 55.1688 39.8876C55.1264 39.8094 54.9871 39.6049 54.9084 39.4786C54.7734 39.2532 54.6216 39.0381 54.4542 38.8352L54.0485 38.2939L54.5572 38.745C54.7612 38.9166 54.9497 39.1058 55.1203 39.3103L55.4534 39.6891L55.6351 39.8996L55.7986 40.1341C56.0588 40.4827 56.2916 40.8506 56.495 41.2346C56.5979 41.4391 56.7312 41.6496 56.8281 41.8781C56.925 42.1066 57.0158 42.3532 57.1187 42.5997C57.924 44.7843 57.9347 47.1796 57.149 49.3712L56.8644 50.0928C56.7736 50.3213 56.6464 50.5318 56.5374 50.7423C56.3401 51.1272 56.1113 51.4953 55.8531 51.8428L55.6896 52.0833ZM58.0029 53.9897L57.5971 54.4828C57.3842 54.7484 57.1492 54.9958 56.8947 55.2225L56.2891 55.8239L56.816 55.1383C57.0365 54.882 57.2389 54.6107 57.4215 54.3265L57.7546 53.7972L57.9423 53.5146C57.9908 53.4124 58.0453 53.3041 58.1058 53.1959C58.3615 52.7332 58.588 52.2552 58.7841 51.7646C58.887 51.494 59.0203 51.2354 59.105 50.9407L59.3836 50.0507C60.1329 47.3855 60.1182 44.5655 59.3412 41.9082L59.0626 41.0181C58.9718 40.7295 58.8386 40.4709 58.7296 40.2063C58.5314 39.7136 58.2987 39.2354 58.0332 38.775L57.8697 38.4623L57.6819 38.1737L57.3428 37.6565C57.1624 37.3707 56.9599 37.0993 56.7372 36.8446L56.2104 36.1651L56.816 36.7665C57.0711 36.9922 57.308 37.2375 57.5245 37.5001L57.9363 37.9873L58.1603 38.2579L58.3662 38.5585C58.6882 39.0054 58.9757 39.4758 59.2261 39.9657C59.3594 40.2303 59.5229 40.4949 59.6379 40.7896C59.753 41.0843 59.8802 41.391 60.0013 41.6977C60.9959 44.4705 61.0109 47.4969 60.0437 50.2792C59.9226 50.5919 59.8014 50.8806 59.6924 51.1933C59.5834 51.506 59.4139 51.7526 59.2867 52.0232C59.0382 52.513 58.7528 52.9834 58.4328 53.4304C58.3682 53.5387 58.3016 53.6409 58.233 53.7371L58.0029 53.9897ZM60.0073 56.2869C59.8723 56.4657 59.7267 56.6364 59.5713 56.7981L59.1716 57.195L58.3965 57.9286L59.0505 57.1108L59.3957 56.6718C59.532 56.4972 59.6574 56.3144 59.7712 56.1245C59.8963 55.9281 60.0356 55.7176 60.189 55.4931L60.4131 55.1443L60.619 54.7594C60.9386 54.1986 61.2217 53.6181 61.4668 53.0215C61.594 52.6968 61.7575 52.378 61.8665 52.0232L62.2056 50.9347C62.6539 49.3121 62.886 47.638 62.8959 45.9554C62.8694 44.2731 62.6231 42.6014 62.1632 40.9821L61.8059 39.9056C61.6969 39.5508 61.5273 39.2321 61.4002 38.9073C61.1493 38.3121 60.8601 37.7336 60.5342 37.1754L60.3283 36.7905L60.0982 36.4477L59.6743 35.8163C59.5592 35.6292 59.4338 35.4485 59.2988 35.2751L58.9476 34.8421L58.2875 34.0242L59.0445 34.7519L59.4502 35.1488C59.6063 35.3095 59.7538 35.4781 59.8923 35.6539L60.3828 36.2553L60.6553 36.5861C60.734 36.7063 60.8188 36.8266 60.8975 36.9529C61.2855 37.4976 61.6316 38.0705 61.9331 38.6668C62.0905 38.9855 62.2843 39.3103 62.4236 39.6651L62.8536 40.7716C64.0479 44.1291 64.065 47.7889 62.902 51.1572C62.7627 51.5361 62.6174 51.909 62.4841 52.2638C62.3509 52.6186 62.1571 52.9493 61.9997 53.2741C61.705 53.8722 61.3649 54.4472 60.9823 54.994L60.7401 55.3668L60.4797 55.6976L60.0073 56.2869ZM61.9089 58.6924L61.4426 59.1615L60.5645 60.0334L61.3396 59.0713L61.7575 58.5661C61.9149 58.3797 62.0421 58.1512 62.1995 57.9226L62.6961 57.1769L62.9686 56.774L63.2108 56.317C63.5922 55.6579 63.9301 54.9749 64.2222 54.2723C64.3735 53.8875 64.5734 53.5086 64.7006 53.0696L65.1124 51.7887C66.2218 47.9568 66.2029 43.8895 65.0578 40.068L64.6339 38.7931C64.5007 38.3781 64.3009 37.9993 64.1434 37.5903C63.8443 36.8897 63.5004 36.2088 63.1139 35.5517C63.0292 35.4014 62.9444 35.251 62.8657 35.1007C62.7869 34.9503 62.6779 34.8301 62.5932 34.6978L62.0845 33.9581C61.9466 33.7378 61.797 33.5251 61.6363 33.3206L61.2185 32.8155C60.7159 32.2141 60.4312 31.8653 60.4312 31.8653L61.3154 32.7253L61.7877 33.1943C61.9711 33.3845 62.143 33.5853 62.3025 33.7957C62.4841 34.0122 62.6779 34.2467 62.9081 34.4993L63.223 34.8842L63.5076 35.3232C63.9602 35.9645 64.365 36.6378 64.7187 37.3378C64.9065 37.7226 65.1305 38.1015 65.294 38.5405C65.4575 38.9795 65.621 39.4005 65.7906 39.8395C67.1746 43.7852 67.1959 48.0762 65.8512 52.0352L65.3606 53.3402C65.2032 53.7612 64.9791 54.14 64.8035 54.543C64.4572 55.2446 64.0626 55.9218 63.6226 56.5696L63.338 57.0086L63.0292 57.3995L62.4599 58.1091C62.2116 58.3135 62.0602 58.53 61.8846 58.7044L61.9089 58.6924ZM66.1479 58.1211C65.4331 59.1936 64.6224 60.2 63.7256 61.1279C63.4107 61.4647 63.12 61.6993 62.9747 61.8676L62.7082 62.1202L62.9444 61.8436C63.1018 61.6572 63.3441 61.3986 63.6226 61.0377C64.4291 60.0424 65.154 58.9846 65.7906 57.8745C66.7358 56.2396 67.478 54.497 68.001 52.6847C69.2995 48.249 69.2764 43.5347 67.9343 39.1118C67.3851 37.3223 66.6227 35.6042 65.6634 33.9941C65.0145 32.8884 64.2795 31.8348 63.4652 30.843C63.1806 30.4882 62.9323 30.2416 62.7809 30.0492L62.5387 29.7725L62.8051 30.0251C62.9747 30.1935 63.2472 30.422 63.5621 30.7588C65.8376 33.0777 67.563 35.8719 68.6126 38.9374C70.1721 43.4739 70.1955 48.3924 68.6792 52.9433C68.072 54.7786 67.2185 56.5242 66.1418 58.1331L66.1479 58.1211Z" fill="url(#paint2_linear_496_1710)"/>
<mask id="path-8-outside-1_496_1710" maskUnits="userSpaceOnUse" x="0" y="0" width="93" height="92" fill="black">
<rect fill="white" width="93" height="92"/>
<path d="M87.6519 40.0078C86.7422 39.6478 85.9291 39.0829 85.2768 38.3575C84.6245 37.6322 84.1508 36.7663 83.893 35.8281C83.6353 34.8899 83.6005 33.905 83.7915 32.9512C83.9824 31.9974 84.3939 31.1007 84.9935 30.3318C85.7645 29.3422 86.2201 28.1465 86.3021 26.898C86.384 25.6495 86.0884 24.4052 85.4533 23.3247C84.8181 22.2442 83.8724 21.3767 82.7374 20.8337C81.6023 20.2906 80.3298 20.0967 79.083 20.2769C78.1143 20.4185 77.1257 20.3342 76.1954 20.0309C75.2651 19.7275 74.4187 19.2133 73.7231 18.5289C73.0275 17.8446 72.5018 17.0089 72.1877 16.0879C71.8735 15.167 71.7795 14.1861 71.913 13.2228C72.0822 11.9833 71.8747 10.7218 71.3171 9.6002C70.7595 8.47858 69.8772 7.54792 68.7834 6.9276C67.6896 6.30728 66.4341 6.02556 65.178 6.11857C63.9218 6.21158 62.7223 6.67508 61.7333 7.44963C60.9651 8.05215 60.0664 8.46913 59.1082 8.66764C58.1499 8.86615 57.1583 8.84077 56.2117 8.5935C55.265 8.34623 54.3891 7.88384 53.6533 7.24282C52.9174 6.6018 52.3416 5.7997 51.9714 4.89983C51.4941 3.74194 50.6793 2.75208 49.6315 2.05724C48.5838 1.36239 47.3509 0.994252 46.091 1.00007C44.8311 1.00588 43.6017 1.3854 42.5605 2.08989C41.5193 2.79437 40.7138 3.79171 40.2474 4.95395C39.8863 5.85383 39.3202 6.65843 38.5935 7.30465C37.8668 7.95087 36.9993 8.42116 36.0589 8.67865C35.1185 8.93614 34.1309 8.97382 33.1733 8.78877C32.2158 8.60371 31.3145 8.20094 30.54 7.61201C29.5436 6.84638 28.3395 6.39385 27.0823 6.31248C25.825 6.23112 24.572 6.52464 23.4839 7.15537C22.3958 7.78611 21.5223 8.72529 20.9755 9.85243C20.4286 10.9796 20.2334 12.2433 20.4148 13.4814C20.555 14.4435 20.4683 15.4248 20.1616 16.3479C19.8548 17.2711 19.3364 18.1109 18.6471 18.8012C17.9579 19.4915 17.1166 20.0134 16.1896 20.3258C15.2627 20.6383 14.2753 20.7327 13.3053 20.6016C12.0567 20.4319 10.7855 20.637 9.65515 21.1906C8.52486 21.7441 7.58716 22.6208 6.96266 23.7079C6.33816 24.7949 6.05541 26.0427 6.15078 27.2906C6.24615 28.5385 6.71527 29.7296 7.49782 30.7106C8.1044 31.4738 8.524 32.3667 8.72348 33.3185C8.92297 34.2704 8.89687 35.2554 8.64727 36.1955C8.39766 37.1357 7.93138 38.0054 7.28523 38.7358C6.63908 39.4663 5.83077 40.0377 4.92412 40.4047C3.75837 40.8793 2.76199 41.6889 2.06282 42.7297C1.36365 43.7706 0.993577 44.9951 1.00008 46.2462C1.00659 47.4974 1.38938 48.718 2.09934 49.7516C2.8093 50.7852 3.81405 51.5846 4.98468 52.0472C5.89427 52.4065 6.70732 52.9707 7.35967 53.6955C8.01201 54.4203 8.48579 55.2857 8.7436 56.2235C9.00141 57.1613 9.0362 58.1457 8.84523 59.0991C8.65425 60.0525 8.24273 60.9488 7.64316 61.7172C6.86959 62.7056 6.41153 63.9012 6.32791 65.1502C6.24428 66.3993 6.53892 67.6446 7.17391 68.726C7.80891 69.8074 8.75521 70.6753 9.89106 71.2182C11.0269 71.761 12.3003 71.954 13.5475 71.7721C14.5168 71.6319 15.5057 71.7172 16.4361 72.0213C17.3665 72.3255 18.213 72.8401 18.9088 73.5247C19.6047 74.2093 20.1308 75.0451 20.4458 75.9662C20.7607 76.8873 20.8558 77.8684 20.7236 78.8322C20.554 80.0711 20.761 81.3321 21.3183 82.4533C21.8755 83.5746 22.7575 84.5048 23.8509 85.1247C24.9444 85.7445 26.1995 86.0257 27.455 85.9321C28.7106 85.8385 29.9093 85.3744 30.8973 84.5994C31.666 83.9969 32.5651 83.5799 33.5238 83.3814C34.4824 83.1829 35.4744 83.2083 36.4215 83.4555C37.3686 83.7028 38.2449 84.1651 38.9814 84.8061C39.7178 85.4471 40.2943 86.2492 40.6653 87.1492C41.1479 88.2945 41.9621 89.2719 43.0046 89.9574C44.047 90.6429 45.2709 91.0057 46.5212 90.9999C47.7715 90.9941 48.992 90.6199 50.028 89.9248C51.0639 89.2297 51.8689 88.2448 52.3408 87.095C52.7033 86.1916 53.2722 85.3842 54.0026 84.7364C54.733 84.0886 55.605 83.6182 56.5497 83.3622C57.4945 83.1063 58.4862 83.0717 59.4467 83.2614C60.4072 83.451 61.3102 83.8596 62.0845 84.455C63.0805 85.22 64.284 85.6722 65.5405 85.7537C66.797 85.8352 68.0494 85.5422 69.1372 84.9123C70.2249 84.2824 71.0985 83.3443 71.6459 82.2182C72.1933 81.0921 72.3897 79.8293 72.2097 78.5916C72.0674 77.6294 72.1523 76.6476 72.4578 75.7235C72.7633 74.7995 73.281 73.9587 73.97 73.2675C74.6589 72.5763 75.5003 72.0537 76.4276 71.741C77.355 71.4282 78.3428 71.3339 79.3131 71.4654C80.5612 71.6354 81.832 71.4307 82.9621 70.8779C84.0922 70.3251 85.03 69.4494 85.655 68.3632C86.28 67.277 86.5637 66.0301 86.4695 64.7825C86.3754 63.535 85.9077 62.344 85.1267 61.3624C84.52 60.5991 84.1001 59.7062 83.9002 58.7542C83.7004 57.8022 83.7259 56.8171 83.9749 55.8766C84.2238 54.9361 84.6894 54.0658 85.3349 53.3345C85.9803 52.6032 86.788 52.0307 87.6943 51.6623C88.867 51.1938 89.8711 50.3866 90.5768 49.3452C91.2825 48.3037 91.6573 47.076 91.6527 45.8208C91.6481 44.5656 91.2644 43.3405 90.5512 42.3042C89.8379 41.2679 88.828 40.4679 87.6519 40.0078ZM83.7339 45.8411C83.7685 53.1926 81.6072 60.3893 77.5231 66.521C73.4391 72.6527 67.6158 77.4441 60.7896 80.2892C53.9634 83.1344 46.4409 83.9055 39.1734 82.5051C31.9059 81.1047 25.2198 77.5956 19.9606 72.4217C14.7013 67.2478 11.1051 60.6413 9.6268 53.4378C8.14846 46.2342 8.85436 38.7571 11.6552 31.9519C14.4561 25.1468 19.2261 19.3192 25.3622 15.2062C31.4982 11.0932 38.7246 8.87939 46.1276 8.84481C56.0541 8.81122 65.5886 12.6896 72.6389 19.6289C79.6892 26.5682 83.6794 36.0017 83.7339 45.8591V45.8411Z"/>
</mask>
<path d="M87.6519 40.0078C86.7422 39.6478 85.9291 39.0829 85.2768 38.3575C84.6245 37.6322 84.1508 36.7663 83.893 35.8281C83.6353 34.8899 83.6005 33.905 83.7915 32.9512C83.9824 31.9974 84.3939 31.1007 84.9935 30.3318C85.7645 29.3422 86.2201 28.1465 86.3021 26.898C86.384 25.6495 86.0884 24.4052 85.4533 23.3247C84.8181 22.2442 83.8724 21.3767 82.7374 20.8337C81.6023 20.2906 80.3298 20.0967 79.083 20.2769C78.1143 20.4185 77.1257 20.3342 76.1954 20.0309C75.2651 19.7275 74.4187 19.2133 73.7231 18.5289C73.0275 17.8446 72.5018 17.0089 72.1877 16.0879C71.8735 15.167 71.7795 14.1861 71.913 13.2228C72.0822 11.9833 71.8747 10.7218 71.3171 9.6002C70.7595 8.47858 69.8772 7.54792 68.7834 6.9276C67.6896 6.30728 66.4341 6.02556 65.178 6.11857C63.9218 6.21158 62.7223 6.67508 61.7333 7.44963C60.9651 8.05215 60.0664 8.46913 59.1082 8.66764C58.1499 8.86615 57.1583 8.84077 56.2117 8.5935C55.265 8.34623 54.3891 7.88384 53.6533 7.24282C52.9174 6.6018 52.3416 5.7997 51.9714 4.89983C51.4941 3.74194 50.6793 2.75208 49.6315 2.05724C48.5838 1.36239 47.3509 0.994252 46.091 1.00007C44.8311 1.00588 43.6017 1.3854 42.5605 2.08989C41.5193 2.79437 40.7138 3.79171 40.2474 4.95395C39.8863 5.85383 39.3202 6.65843 38.5935 7.30465C37.8668 7.95087 36.9993 8.42116 36.0589 8.67865C35.1185 8.93614 34.1309 8.97382 33.1733 8.78877C32.2158 8.60371 31.3145 8.20094 30.54 7.61201C29.5436 6.84638 28.3395 6.39385 27.0823 6.31248C25.825 6.23112 24.572 6.52464 23.4839 7.15537C22.3958 7.78611 21.5223 8.72529 20.9755 9.85243C20.4286 10.9796 20.2334 12.2433 20.4148 13.4814C20.555 14.4435 20.4683 15.4248 20.1616 16.3479C19.8548 17.2711 19.3364 18.1109 18.6471 18.8012C17.9579 19.4915 17.1166 20.0134 16.1896 20.3258C15.2627 20.6383 14.2753 20.7327 13.3053 20.6016C12.0567 20.4319 10.7855 20.637 9.65515 21.1906C8.52486 21.7441 7.58716 22.6208 6.96266 23.7079C6.33816 24.7949 6.05541 26.0427 6.15078 27.2906C6.24615 28.5385 6.71527 29.7296 7.49782 30.7106C8.1044 31.4738 8.524 32.3667 8.72348 33.3185C8.92297 34.2704 8.89687 35.2554 8.64727 36.1955C8.39766 37.1357 7.93138 38.0054 7.28523 38.7358C6.63908 39.4663 5.83077 40.0377 4.92412 40.4047C3.75837 40.8793 2.76199 41.6889 2.06282 42.7297C1.36365 43.7706 0.993577 44.9951 1.00008 46.2462C1.00659 47.4974 1.38938 48.718 2.09934 49.7516C2.8093 50.7852 3.81405 51.5846 4.98468 52.0472C5.89427 52.4065 6.70732 52.9707 7.35967 53.6955C8.01201 54.4203 8.48579 55.2857 8.7436 56.2235C9.00141 57.1613 9.0362 58.1457 8.84523 59.0991C8.65425 60.0525 8.24273 60.9488 7.64316 61.7172C6.86959 62.7056 6.41153 63.9012 6.32791 65.1502C6.24428 66.3993 6.53892 67.6446 7.17391 68.726C7.80891 69.8074 8.75521 70.6753 9.89106 71.2182C11.0269 71.761 12.3003 71.954 13.5475 71.7721C14.5168 71.6319 15.5057 71.7172 16.4361 72.0213C17.3665 72.3255 18.213 72.8401 18.9088 73.5247C19.6047 74.2093 20.1308 75.0451 20.4458 75.9662C20.7607 76.8873 20.8558 77.8684 20.7236 78.8322C20.554 80.0711 20.761 81.3321 21.3183 82.4533C21.8755 83.5746 22.7575 84.5048 23.8509 85.1247C24.9444 85.7445 26.1995 86.0257 27.455 85.9321C28.7106 85.8385 29.9093 85.3744 30.8973 84.5994C31.666 83.9969 32.5651 83.5799 33.5238 83.3814C34.4824 83.1829 35.4744 83.2083 36.4215 83.4555C37.3686 83.7028 38.2449 84.1651 38.9814 84.8061C39.7178 85.4471 40.2943 86.2492 40.6653 87.1492C41.1479 88.2945 41.9621 89.2719 43.0046 89.9574C44.047 90.6429 45.2709 91.0057 46.5212 90.9999C47.7715 90.9941 48.992 90.6199 50.028 89.9248C51.0639 89.2297 51.8689 88.2448 52.3408 87.095C52.7033 86.1916 53.2722 85.3842 54.0026 84.7364C54.733 84.0886 55.605 83.6182 56.5497 83.3622C57.4945 83.1063 58.4862 83.0717 59.4467 83.2614C60.4072 83.451 61.3102 83.8596 62.0845 84.455C63.0805 85.22 64.284 85.6722 65.5405 85.7537C66.797 85.8352 68.0494 85.5422 69.1372 84.9123C70.2249 84.2824 71.0985 83.3443 71.6459 82.2182C72.1933 81.0921 72.3897 79.8293 72.2097 78.5916C72.0674 77.6294 72.1523 76.6476 72.4578 75.7235C72.7633 74.7995 73.281 73.9587 73.97 73.2675C74.6589 72.5763 75.5003 72.0537 76.4276 71.741C77.355 71.4282 78.3428 71.3339 79.3131 71.4654C80.5612 71.6354 81.832 71.4307 82.9621 70.8779C84.0922 70.3251 85.03 69.4494 85.655 68.3632C86.28 67.277 86.5637 66.0301 86.4695 64.7825C86.3754 63.535 85.9077 62.344 85.1267 61.3624C84.52 60.5991 84.1001 59.7062 83.9002 58.7542C83.7004 57.8022 83.7259 56.8171 83.9749 55.8766C84.2238 54.9361 84.6894 54.0658 85.3349 53.3345C85.9803 52.6032 86.788 52.0307 87.6943 51.6623C88.867 51.1938 89.8711 50.3866 90.5768 49.3452C91.2825 48.3037 91.6573 47.076 91.6527 45.8208C91.6481 44.5656 91.2644 43.3405 90.5512 42.3042C89.8379 41.2679 88.828 40.4679 87.6519 40.0078ZM83.7339 45.8411C83.7685 53.1926 81.6072 60.3893 77.5231 66.521C73.4391 72.6527 67.6158 77.4441 60.7896 80.2892C53.9634 83.1344 46.4409 83.9055 39.1734 82.5051C31.9059 81.1047 25.2198 77.5956 19.9606 72.4217C14.7013 67.2478 11.1051 60.6413 9.6268 53.4378C8.14846 46.2342 8.85436 38.7571 11.6552 31.9519C14.4561 25.1468 19.2261 19.3192 25.3622 15.2062C31.4982 11.0932 38.7246 8.87939 46.1276 8.84481C56.0541 8.81122 65.5886 12.6896 72.6389 19.6289C79.6892 26.5682 83.6794 36.0017 83.7339 45.8591V45.8411Z" fill="url(#paint3_linear_496_1710)"/>
<path d="M87.6519 40.0078C86.7422 39.6478 85.9291 39.0829 85.2768 38.3575C84.6245 37.6322 84.1508 36.7663 83.893 35.8281C83.6353 34.8899 83.6005 33.905 83.7915 32.9512C83.9824 31.9974 84.3939 31.1007 84.9935 30.3318C85.7645 29.3422 86.2201 28.1465 86.3021 26.898C86.384 25.6495 86.0884 24.4052 85.4533 23.3247C84.8181 22.2442 83.8724 21.3767 82.7374 20.8337C81.6023 20.2906 80.3298 20.0967 79.083 20.2769C78.1143 20.4185 77.1257 20.3342 76.1954 20.0309C75.2651 19.7275 74.4187 19.2133 73.7231 18.5289C73.0275 17.8446 72.5018 17.0089 72.1877 16.0879C71.8735 15.167 71.7795 14.1861 71.913 13.2228C72.0822 11.9833 71.8747 10.7218 71.3171 9.6002C70.7595 8.47858 69.8772 7.54792 68.7834 6.9276C67.6896 6.30728 66.4341 6.02556 65.178 6.11857C63.9218 6.21158 62.7223 6.67508 61.7333 7.44963C60.9651 8.05215 60.0664 8.46913 59.1082 8.66764C58.1499 8.86615 57.1583 8.84077 56.2117 8.5935C55.265 8.34623 54.3891 7.88384 53.6533 7.24282C52.9174 6.6018 52.3416 5.7997 51.9714 4.89983C51.4941 3.74194 50.6793 2.75208 49.6315 2.05724C48.5838 1.36239 47.3509 0.994252 46.091 1.00007C44.8311 1.00588 43.6017 1.3854 42.5605 2.08989C41.5193 2.79437 40.7138 3.79171 40.2474 4.95395C39.8863 5.85383 39.3202 6.65843 38.5935 7.30465C37.8668 7.95087 36.9993 8.42116 36.0589 8.67865C35.1185 8.93614 34.1309 8.97382 33.1733 8.78877C32.2158 8.60371 31.3145 8.20094 30.54 7.61201C29.5436 6.84638 28.3395 6.39385 27.0823 6.31248C25.825 6.23112 24.572 6.52464 23.4839 7.15537C22.3958 7.78611 21.5223 8.72529 20.9755 9.85243C20.4286 10.9796 20.2334 12.2433 20.4148 13.4814C20.555 14.4435 20.4683 15.4248 20.1616 16.3479C19.8548 17.2711 19.3364 18.1109 18.6471 18.8012C17.9579 19.4915 17.1166 20.0134 16.1896 20.3258C15.2627 20.6383 14.2753 20.7327 13.3053 20.6016C12.0567 20.4319 10.7855 20.637 9.65515 21.1906C8.52486 21.7441 7.58716 22.6208 6.96266 23.7079C6.33816 24.7949 6.05541 26.0427 6.15078 27.2906C6.24615 28.5385 6.71527 29.7296 7.49782 30.7106C8.1044 31.4738 8.524 32.3667 8.72348 33.3185C8.92297 34.2704 8.89687 35.2554 8.64727 36.1955C8.39766 37.1357 7.93138 38.0054 7.28523 38.7358C6.63908 39.4663 5.83077 40.0377 4.92412 40.4047C3.75837 40.8793 2.76199 41.6889 2.06282 42.7297C1.36365 43.7706 0.993577 44.9951 1.00008 46.2462C1.00659 47.4974 1.38938 48.718 2.09934 49.7516C2.8093 50.7852 3.81405 51.5846 4.98468 52.0472C5.89427 52.4065 6.70732 52.9707 7.35967 53.6955C8.01201 54.4203 8.48579 55.2857 8.7436 56.2235C9.00141 57.1613 9.0362 58.1457 8.84523 59.0991C8.65425 60.0525 8.24273 60.9488 7.64316 61.7172C6.86959 62.7056 6.41153 63.9012 6.32791 65.1502C6.24428 66.3993 6.53892 67.6446 7.17391 68.726C7.80891 69.8074 8.75521 70.6753 9.89106 71.2182C11.0269 71.761 12.3003 71.954 13.5475 71.7721C14.5168 71.6319 15.5057 71.7172 16.4361 72.0213C17.3665 72.3255 18.213 72.8401 18.9088 73.5247C19.6047 74.2093 20.1308 75.0451 20.4458 75.9662C20.7607 76.8873 20.8558 77.8684 20.7236 78.8322C20.554 80.0711 20.761 81.3321 21.3183 82.4533C21.8755 83.5746 22.7575 84.5048 23.8509 85.1247C24.9444 85.7445 26.1995 86.0257 27.455 85.9321C28.7106 85.8385 29.9093 85.3744 30.8973 84.5994C31.666 83.9969 32.5651 83.5799 33.5238 83.3814C34.4824 83.1829 35.4744 83.2083 36.4215 83.4555C37.3686 83.7028 38.2449 84.1651 38.9814 84.8061C39.7178 85.4471 40.2943 86.2492 40.6653 87.1492C41.1479 88.2945 41.9621 89.2719 43.0046 89.9574C44.047 90.6429 45.2709 91.0057 46.5212 90.9999C47.7715 90.9941 48.992 90.6199 50.028 89.9248C51.0639 89.2297 51.8689 88.2448 52.3408 87.095C52.7033 86.1916 53.2722 85.3842 54.0026 84.7364C54.733 84.0886 55.605 83.6182 56.5497 83.3622C57.4945 83.1063 58.4862 83.0717 59.4467 83.2614C60.4072 83.451 61.3102 83.8596 62.0845 84.455C63.0805 85.22 64.284 85.6722 65.5405 85.7537C66.797 85.8352 68.0494 85.5422 69.1372 84.9123C70.2249 84.2824 71.0985 83.3443 71.6459 82.2182C72.1933 81.0921 72.3897 79.8293 72.2097 78.5916C72.0674 77.6294 72.1523 76.6476 72.4578 75.7235C72.7633 74.7995 73.281 73.9587 73.97 73.2675C74.6589 72.5763 75.5003 72.0537 76.4276 71.741C77.355 71.4282 78.3428 71.3339 79.3131 71.4654C80.5612 71.6354 81.832 71.4307 82.9621 70.8779C84.0922 70.3251 85.03 69.4494 85.655 68.3632C86.28 67.277 86.5637 66.0301 86.4695 64.7825C86.3754 63.535 85.9077 62.344 85.1267 61.3624C84.52 60.5991 84.1001 59.7062 83.9002 58.7542C83.7004 57.8022 83.7259 56.8171 83.9749 55.8766C84.2238 54.9361 84.6894 54.0658 85.3349 53.3345C85.9803 52.6032 86.788 52.0307 87.6943 51.6623C88.867 51.1938 89.8711 50.3866 90.5768 49.3452C91.2825 48.3037 91.6573 47.076 91.6527 45.8208C91.6481 44.5656 91.2644 43.3405 90.5512 42.3042C89.8379 41.2679 88.828 40.4679 87.6519 40.0078ZM83.7339 45.8411C83.7685 53.1926 81.6072 60.3893 77.5231 66.521C73.4391 72.6527 67.6158 77.4441 60.7896 80.2892C53.9634 83.1344 46.4409 83.9055 39.1734 82.5051C31.9059 81.1047 25.2198 77.5956 19.9606 72.4217C14.7013 67.2478 11.1051 60.6413 9.6268 53.4378C8.14846 46.2342 8.85436 38.7571 11.6552 31.9519C14.4561 25.1468 19.2261 19.3192 25.3622 15.2062C31.4982 11.0932 38.7246 8.87939 46.1276 8.84481C56.0541 8.81122 65.5886 12.6896 72.6389 19.6289C79.6892 26.5682 83.6794 36.0017 83.7339 45.8591V45.8411Z" stroke="white" stroke-width="1.59851" mask="url(#path-8-outside-1_496_1710)"/>
<path d="M22.2497 21.6303L23.2731 20.7643L26.5432 23.6208L24.1815 20.0126L25.2049 19.1406L29.1412 23.675L28.4629 24.2763L25.5016 20.7643L27.924 24.6432L27.3184 25.1603L23.8181 22.1535L26.7976 25.5873L26.192 26.1225L22.2497 21.6303Z" fill="url(#paint4_linear_496_1710)"/>
<path d="M30.213 21.2151L27.936 17.2521L28.7596 16.783L31.0729 20.8062C31.2849 21.1791 31.5211 21.2211 31.7815 21.0768C32.0418 20.9325 32.1206 20.704 31.9086 20.3311L29.5953 16.308L30.3886 15.8569L32.6656 19.826C33.144 20.6559 32.9987 21.3655 32.1932 21.8225C31.3878 22.2796 30.6914 22.045 30.213 21.2151Z" fill="url(#paint5_linear_496_1710)"/>
<path d="M34.7003 18.888L34.5792 18.5633L35.421 18.2566L35.5663 18.6475C35.7116 19.0504 35.9418 19.1286 36.2264 19.0263C36.511 18.9241 36.6382 18.7136 36.4807 18.2987C36.3233 17.8837 36.0265 17.5951 35.2696 17.3004C34.2825 16.9215 33.8707 16.5487 33.6406 15.9052C33.5471 15.7323 33.4941 15.5407 33.4854 15.3447C33.4768 15.1486 33.5129 14.9532 33.5908 14.7728C33.6688 14.5925 33.7868 14.432 33.9359 14.3032C34.085 14.1744 34.2614 14.0807 34.452 14.0289C35.318 13.7162 35.9357 14.071 36.2688 14.9731L36.3536 15.2076L35.5118 15.5083L35.4028 15.2197C35.2575 14.8167 35.0395 14.7265 34.7548 14.8288C34.4702 14.931 34.3673 15.1415 34.5066 15.5264C34.6458 15.9112 34.9547 16.1698 35.7177 16.4645C36.6987 16.8434 37.0984 17.2102 37.3528 17.9078C37.6919 18.8279 37.4133 19.5074 36.5352 19.8262C35.6571 20.1449 35.0273 19.7841 34.7003 18.888Z" fill="url(#paint6_linear_496_1710)"/>
<path d="M38.576 12.9044L39.5021 12.7119L40.7672 18.5632L39.8411 18.7557L38.576 12.9044Z" fill="url(#paint7_linear_496_1710)"/>
<path d="M42.7969 16.8192L42.5668 13.6079C42.5418 13.4201 42.5558 13.2293 42.6079 13.0471C42.6599 12.8649 42.7489 12.6952 42.8694 12.5484C42.99 12.4016 43.1394 12.2809 43.3087 12.1936C43.4779 12.1062 43.6633 12.0542 43.8535 12.0407C44.0438 12.0271 44.2348 12.0523 44.4148 12.1148C44.5949 12.1772 44.7601 12.2755 44.9005 12.4037C45.0409 12.5319 45.1534 12.6873 45.2311 12.8602C45.3088 13.0332 45.3501 13.2201 45.3524 13.4094L45.4009 14.0409L44.5046 14.107L44.4562 13.4155C44.4562 13.0246 44.226 12.8742 43.9414 12.8923C43.6568 12.9103 43.4812 13.0907 43.5115 13.4936L43.7476 16.8312C43.7476 17.2221 43.9778 17.3665 44.2624 17.3424C44.547 17.3184 44.7226 17.156 44.6923 16.741L44.6318 15.827L45.522 15.7668L45.5825 16.6087C45.6075 16.7965 45.5935 16.9873 45.5414 17.1695C45.4894 17.3517 45.4003 17.5214 45.2798 17.6682C45.1593 17.815 45.0099 17.9358 44.8406 18.0231C44.6714 18.1104 44.486 18.1624 44.2958 18.176C44.1055 18.1895 43.9145 18.1643 43.7345 18.1019C43.5544 18.0394 43.3891 17.9411 43.2488 17.8129C43.1084 17.6847 42.9959 17.5294 42.9182 17.3564C42.8405 17.1835 42.7992 16.9966 42.7969 16.8072V16.8192Z" fill="url(#paint8_linear_496_1710)"/>
<path d="M51.8502 12.4595L53.2188 12.7361C54.1514 12.9165 54.5027 13.5179 54.3149 14.462L54.1999 15.0634C54.0061 16.0015 53.449 16.4225 52.5224 16.2361L52.0804 16.1519L51.5959 18.5574L50.6694 18.3769L51.8502 12.4595ZM52.6859 15.3761C52.9827 15.4363 53.1704 15.334 53.2552 14.9131L53.3945 14.2155C53.4792 13.7945 53.346 13.6141 53.0553 13.572L52.6133 13.4818L52.2499 15.2859L52.6859 15.3761Z" fill="url(#paint9_linear_496_1710)"/>
<path d="M57.5124 13.8604L58.8204 14.3655C59.012 14.4024 59.1918 14.4847 59.3444 14.6054C59.4971 14.7261 59.6181 14.8817 59.6972 15.0588C59.7763 15.236 59.8111 15.4295 59.7987 15.6229C59.7863 15.8163 59.727 16.0039 59.6258 16.1696L59.4926 16.5124C59.2685 17.1138 58.9415 17.3844 58.4873 17.3904C58.8749 17.6971 58.8567 18.1662 58.6085 18.7976L58.2269 19.7778C58.1216 20.0023 58.0638 20.2459 58.0574 20.4935L57.1854 20.1627C57.1975 19.9139 57.2614 19.6702 57.3731 19.4471L57.7728 18.4247C57.9726 17.9076 57.8878 17.6791 57.4821 17.5287L57.1793 17.4084L56.2467 19.8139L55.3626 19.4711L57.5124 13.8604ZM57.7788 16.7169C58.1119 16.8431 58.3844 16.777 58.5418 16.332L58.7114 15.899C58.8628 15.5021 58.7962 15.2976 58.4873 15.1533L58.0816 14.9969L57.476 16.5906L57.7788 16.7169Z" fill="url(#paint10_linear_496_1710)"/>
<path d="M60.5585 20.1629L62.1935 17.4687C62.2842 17.2951 62.4098 17.1419 62.5625 17.0184C62.7152 16.8948 62.8917 16.8037 63.0813 16.7506C63.2708 16.6975 63.4693 16.6835 63.6644 16.7095C63.8596 16.7355 64.0474 16.8009 64.2161 16.9018C64.3848 17.0027 64.5309 17.1368 64.6454 17.2959C64.7599 17.455 64.8404 17.6357 64.8818 17.8269C64.9232 18.0181 64.9248 18.2157 64.8863 18.4075C64.8479 18.5993 64.7702 18.7812 64.6582 18.9421L63.0232 21.6362C62.9324 21.8098 62.8069 21.9631 62.6542 22.0866C62.5015 22.2101 62.325 22.3012 62.1354 22.3544C61.9459 22.4075 61.7474 22.4215 61.5522 22.3955C61.3571 22.3695 61.1693 22.304 61.0006 22.2032C60.8319 22.1023 60.6858 21.9682 60.5713 21.8091C60.4568 21.6499 60.3763 21.4692 60.3349 21.278C60.2935 21.0868 60.2919 20.8893 60.3304 20.6975C60.3688 20.5057 60.4465 20.3237 60.5585 20.1629ZM62.1754 21.2032L63.877 18.4069C64.1011 18.04 64.0224 17.8055 63.768 17.6491C63.5137 17.4928 63.2593 17.5349 63.0413 17.9017L61.3397 20.6981C61.1156 21.0649 61.1943 21.2995 61.4487 21.4558C61.703 21.6122 61.9574 21.552 62.1754 21.1852V21.2032Z" fill="url(#paint11_linear_496_1710)"/>
<path d="M67.9404 19.5615L69.0304 20.5057C69.745 21.107 69.7511 21.8167 69.1152 22.5383L67.1168 24.8235C67.0116 24.99 66.8693 25.1304 66.7009 25.2338C66.5325 25.3373 66.3425 25.401 66.1455 25.4202C65.9484 25.4393 65.7496 25.4134 65.5642 25.3444C65.3788 25.2753 65.2118 25.165 65.076 25.022L63.986 24.0778L67.9404 19.5615ZM65.6271 24.3725C65.8572 24.5649 66.0934 24.5709 66.378 24.2462L68.4309 21.9009C68.7156 21.5761 68.6792 21.3416 68.4309 21.1431L68.0676 20.8304L65.2456 24.0598L65.6271 24.3725Z" fill="url(#paint12_linear_496_1710)"/>
<path d="M26.5735 67.3823L27.6393 68.2062L25.4774 71.9587L28.5961 68.9519L29.668 69.7697L25.974 74.5085L25.2655 73.9613L28.0632 70.3531L24.7265 73.5223L24.1209 73.0352L26.3737 69.0361L23.5759 72.6443L22.9219 72.1391L26.5735 67.3823Z" fill="url(#paint13_linear_496_1710)"/>
<path d="M29.2502 74.8452L31.3758 70.792L32.2175 71.225L30.0617 75.3383C29.8618 75.7172 29.9527 75.9397 30.2191 76.078C30.4856 76.2163 30.7157 76.1622 30.9155 75.7834L33.0714 71.67L33.8828 72.085L31.7512 76.1382C31.6752 76.3172 31.5627 76.4787 31.4208 76.6124C31.2789 76.7461 31.1106 76.8492 30.9266 76.9152C30.7426 76.9812 30.5468 77.0086 30.3516 76.9957C30.1564 76.9829 29.9659 76.93 29.7923 76.8405C29.6187 76.7509 29.4656 76.6267 29.3427 76.4755C29.2198 76.3243 29.1298 76.1495 29.0783 75.962C29.0268 75.7746 29.015 75.5786 29.0435 75.3864C29.072 75.1942 29.1404 75.0099 29.2441 74.8452H29.2502Z" fill="url(#paint14_linear_496_1710)"/>
<path d="M34.1735 77.1368L34.2825 76.812L35.1303 77.0947L34.9971 77.4856C34.8639 77.8885 34.9971 78.0869 35.2817 78.1891C35.5663 78.2914 35.7965 78.1891 35.9357 77.7742C36.075 77.3593 36.0145 76.9443 35.5966 76.2407C35.0698 75.3326 34.991 74.7914 35.1969 74.1419C35.2317 73.948 35.3103 73.7644 35.4267 73.6049C35.5432 73.4454 35.6945 73.3142 35.8692 73.2211C36.044 73.1279 36.2378 73.0752 36.436 73.067C36.6342 73.0589 36.8317 73.0953 37.0137 73.1737C37.8857 73.4624 38.1461 74.1239 37.8433 75.032L37.7646 75.2665L36.9107 74.9899L37.0076 74.6952C37.1469 74.2923 37.0076 74.0938 36.7472 73.9856C36.4868 73.8773 36.2506 73.9856 36.1416 74.3825C36.0326 74.7794 36.0932 75.1582 36.505 75.8619C37.0379 76.7699 37.1106 77.2991 36.8865 78.0087C36.8516 78.2031 36.7734 78.3873 36.6575 78.5478C36.5417 78.7082 36.3911 78.8409 36.2169 78.936C36.0427 79.0312 35.8493 79.0864 35.6508 79.0976C35.4523 79.1089 35.2537 79.0759 35.0698 79.001C34.1069 78.7124 33.8404 78.0448 34.1735 77.1368Z" fill="url(#paint15_linear_496_1710)"/>
<path d="M40.1924 74.1235L41.1246 74.298L39.9866 80.1793L39.0545 79.9989L40.1924 74.1235Z" fill="url(#paint16_linear_496_1710)"/>
<path d="M42.8938 79.2054L43.0816 75.9942C43.0789 75.8033 43.1159 75.6139 43.1903 75.4379C43.2646 75.2618 43.3747 75.1029 43.5136 74.971C43.6526 74.8391 43.8174 74.737 43.9978 74.6712C44.1782 74.6053 44.3704 74.5771 44.5623 74.5883C44.7542 74.5995 44.9417 74.6498 45.1131 74.7362C45.2846 74.8225 45.4362 74.943 45.5587 75.0902C45.6811 75.2373 45.7717 75.408 45.8248 75.5914C45.8779 75.7749 45.8923 75.9672 45.8672 76.1565L45.8309 76.7579L44.9346 76.7098L44.977 76.0182C44.977 75.6213 44.8196 75.4469 44.535 75.4168C44.2503 75.3868 44.0566 75.5491 44.0323 75.94L43.8325 79.2776C43.8325 79.6685 43.9899 79.8369 44.2746 79.879C44.5592 79.9211 44.753 79.7527 44.7772 79.3558L44.8317 78.4477L45.7279 78.4958L45.6734 79.3437C45.6681 79.5288 45.6254 79.7109 45.5478 79.8793C45.4703 80.0476 45.3595 80.1988 45.222 80.3238C45.0846 80.4489 44.9232 80.5453 44.7476 80.6073C44.5719 80.6693 44.3855 80.6956 44.1994 80.6847C44.0133 80.6738 43.8313 80.626 43.6642 80.544C43.497 80.462 43.3482 80.3475 43.2264 80.2073C43.1047 80.0671 43.0125 79.904 42.9554 79.7278C42.8983 79.5516 42.8773 79.3658 42.8938 79.1814V79.2054Z" fill="url(#paint17_linear_496_1710)"/>
<path d="M50.7421 74.4426L52.1107 74.178C52.302 74.1191 52.5045 74.1053 52.7021 74.1377C52.8997 74.17 53.0871 74.2476 53.2493 74.3643C53.4114 74.481 53.544 74.6336 53.6365 74.81C53.729 74.9864 53.7788 75.1818 53.7821 75.3807L53.8971 75.9821C54.0849 76.9262 53.7276 77.5276 52.795 77.702L52.3529 77.7862L52.8253 80.1917L51.8927 80.3721L50.7421 74.4426ZM52.6315 76.848C52.9282 76.7879 53.0615 76.6255 52.9767 76.2046L52.8434 75.507C52.7587 75.086 52.5709 74.9838 52.2803 75.0439L51.8382 75.1281L52.1894 76.9322L52.6315 76.848Z" fill="url(#paint18_linear_496_1710)"/>
<path d="M55.29 73.408L56.6101 72.9269C56.7774 72.8265 56.9668 72.7677 57.1619 72.7557C57.357 72.7437 57.5522 72.7788 57.7307 72.858C57.9093 72.9372 58.0658 73.0581 58.187 73.2104C58.3083 73.3628 58.3905 73.542 58.4269 73.7328L58.554 74.0815C58.673 74.2897 58.7208 74.5306 58.6903 74.7681C58.6597 75.0056 58.5524 75.2268 58.3845 75.3985C58.881 75.3985 59.1778 75.7353 59.4139 76.3668L59.7834 77.353C59.8524 77.5907 59.9699 77.8118 60.1285 78.0025L59.2262 78.3332C59.0682 78.1384 58.9527 77.9132 58.8871 77.6717L58.5116 76.6434C58.3179 76.1202 58.0998 76.0119 57.6941 76.1563L57.3913 76.2705L58.2815 78.676L57.3913 79.0008L55.29 73.408ZM57.3974 75.3685C57.7305 75.2482 57.8758 75.0317 57.7062 74.5807L57.5488 74.1477C57.3974 73.7448 57.1975 73.6185 56.8826 73.7328L56.4769 73.8831L57.0825 75.4888L57.3974 75.3685Z" fill="url(#paint19_linear_496_1710)"/>
<path d="M61.9513 75.5971L60.3889 72.8609C60.2819 72.6973 60.2097 72.5138 60.1768 72.3215C60.1438 72.1292 60.1507 71.9323 60.1972 71.7428C60.2436 71.5533 60.3285 71.3752 60.4468 71.2195C60.565 71.0637 60.7141 70.9336 60.8848 70.8372C61.0555 70.7407 61.2442 70.6799 61.4395 70.6585C61.6347 70.6371 61.8322 70.6556 62.02 70.7128C62.2078 70.7699 62.3818 70.8646 62.5314 70.991C62.681 71.1173 62.803 71.2728 62.89 71.4477L64.4584 74.1899C64.5614 74.3538 64.6298 74.5367 64.6597 74.7276C64.6896 74.9184 64.6802 75.1134 64.6322 75.3005C64.5843 75.4877 64.4986 75.6634 64.3804 75.8168C64.2623 75.9702 64.1141 76.0983 63.9447 76.1934C63.7754 76.2884 63.5884 76.3485 63.3951 76.3699C63.2018 76.3913 63.0061 76.3735 62.8198 76.3178C62.6336 76.2621 62.4606 76.1695 62.3114 76.0457C62.1621 75.9218 62.0396 75.7692 61.9513 75.5971ZM63.6651 74.7071L62.03 71.8806C61.8181 71.5078 61.5759 71.4597 61.3094 71.61C61.043 71.7603 60.9642 71.9889 61.1762 72.3617L62.7991 75.2062C63.0171 75.5791 63.2594 75.6271 63.5198 75.4768C63.7802 75.3265 63.877 75.0799 63.6651 74.7071Z" fill="url(#paint20_linear_496_1710)"/>
<path d="M63.8468 69.1024L64.9732 68.2004C65.1144 68.062 65.2858 67.9577 65.4741 67.8954C65.6623 67.8332 65.8625 67.8148 66.0591 67.8415C66.2557 67.8682 66.4435 67.9394 66.608 68.0496C66.7725 68.1598 66.9093 68.306 67.0079 68.477L68.9215 70.8344C69.5271 71.5801 69.4908 72.2777 68.752 72.867L67.6256 73.7691L63.8468 69.1024ZM68.2009 72.2115C68.4371 72.0251 68.4795 71.7905 68.2009 71.4598L66.2388 69.0543C65.9663 68.7236 65.7301 68.7175 65.494 68.904L65.1185 69.2047L67.8194 72.5363L68.2009 72.2115Z" fill="url(#paint21_linear_496_1710)"/>
<path d="M77.7629 39.0938L73.9962 49.7741L77.7084 47.3506L74.8016 58.8006L81.5538 44.043L77.1936 45.9373L77.7629 39.0938Z" fill="#00E0B8"/>
<path d="M14.8434 39.0938L18.6101 49.7741L14.8979 47.3506L17.7986 58.8006L11.0525 44.043L15.4066 45.9373L14.8434 39.0938Z" fill="#00E0B8"/>
<path d="M98.556 57.25C97.772 57.852 96.54 58.482 95.434 58.888C95.798 59.14 96.4 59.672 96.694 59.98C97.744 59.49 99.116 58.636 100.026 57.88L98.556 57.25ZM100.194 53.54C100.684 53.274 101.174 52.994 101.65 52.686H103.89C103.484 52.952 103.05 53.176 102.616 53.414L100.194 53.54ZM98.416 50.712H101.146V51.426H98.416V50.712ZM98.416 48.822H101.146V49.522H98.416V48.822ZM105.598 49.522H102.756V48.822H105.598V49.522ZM105.598 51.426H102.756V50.712H105.598V51.426ZM106.102 56.718C106.368 57.012 106.578 57.292 106.746 57.516L107.992 56.578C107.418 55.836 106.284 54.758 105.248 54.058L104.072 54.842C104.338 55.052 104.618 55.276 104.898 55.528L100.88 55.668C102.378 55.066 103.904 54.352 105.346 53.512L104.324 52.686H107.236V47.562H96.848V52.686H99.228C98.668 53.022 98.164 53.246 97.926 53.344C97.534 53.526 97.212 53.652 96.904 53.694C97.044 54.086 97.268 54.772 97.338 55.066C97.618 54.954 98.01 54.87 99.914 54.73C99.158 55.052 98.556 55.29 98.206 55.416C97.366 55.71 96.834 55.878 96.288 55.934C96.428 56.312 96.638 57.04 96.694 57.32C97.17 57.152 97.786 57.096 101.16 56.942V58.566C101.16 58.72 101.09 58.748 100.908 58.762C100.712 58.776 100.026 58.776 99.452 58.748C99.69 59.154 99.928 59.77 100.012 60.232C100.922 60.232 101.622 60.218 102.168 59.994C102.728 59.756 102.882 59.378 102.882 58.622V56.872L106.102 56.718ZM103.554 58.076C104.646 58.636 106.088 59.49 106.76 60.064L108.062 59.126C107.292 58.538 105.822 57.726 104.772 57.236L103.554 58.076ZM114.838 54.702C114.6 54.408 113.592 53.372 113.144 52.952V52.504H114.53V51.748H122.454V50.712H119.276V50.236H121.852V49.27H119.276V48.794H122.174V47.786H119.276V47.156H117.61V47.786H114.88V48.794H117.61V49.27H115.132V50.236H117.61V50.712H114.446V50.95H113.144V49.06C113.732 48.92 114.292 48.752 114.796 48.556L113.69 47.282C112.64 47.73 110.988 48.108 109.49 48.318C109.658 48.668 109.868 49.242 109.938 49.592C110.442 49.536 110.974 49.466 111.52 49.382V50.95H109.658V52.504H111.408C110.89 53.89 110.092 55.444 109.294 56.368C109.56 56.788 109.91 57.474 110.064 57.95C110.582 57.278 111.086 56.354 111.52 55.346V60.204H113.144V54.744C113.438 55.206 113.732 55.682 113.886 56.004L114.838 54.702ZM116.798 56.34H120.2V56.928H116.798V56.34ZM116.798 54.786H120.2V55.388H116.798V54.786ZM116.798 53.246H120.2V53.834H116.798V53.246ZM121.782 57.964V52.224H115.314V57.964H116.532C115.832 58.44 114.726 58.958 113.774 59.238C114.082 59.532 114.544 59.98 114.796 60.274C115.916 59.91 117.302 59.238 118.156 58.58L117.218 57.964H119.766L118.898 58.594C119.724 59.112 120.69 59.798 121.208 60.232L122.664 59.448C122.104 59.056 121.138 58.468 120.284 57.964H121.782ZM129.076 52.966C128.544 53.106 128.012 53.232 127.466 53.372V51.342H129.16V49.802H127.466V47.156H125.842V49.802H123.854V51.342H125.842V53.75C125.058 53.946 124.316 54.1 123.728 54.226L124.148 55.822L125.842 55.388V58.426C125.842 58.622 125.772 58.692 125.576 58.692C125.394 58.706 124.82 58.706 124.26 58.678C124.456 59.112 124.68 59.77 124.722 60.176C125.702 60.19 126.388 60.134 126.85 59.896C127.312 59.63 127.466 59.238 127.466 58.426V54.968C128.082 54.814 128.684 54.646 129.286 54.492L129.076 52.966ZM132.618 58.356C132.058 58.356 131.974 58.23 131.974 57.418V47.296H130.308V57.404C130.308 59.28 130.756 59.854 132.408 59.854H134.438C135.978 59.854 136.384 58.958 136.566 56.494C136.118 56.396 135.46 56.088 135.068 55.78C134.97 57.838 134.872 58.356 134.298 58.356H132.618ZM139.548 49.564H148.41V50.712H149.964V48.276H144.854C144.7 47.87 144.448 47.408 144.21 47.03L142.754 47.436C142.894 47.688 143.048 47.982 143.16 48.276H138.05V50.712H139.548V49.564ZM141.088 57.026H146.912V57.474H141.088V57.026ZM141.088 55.808H146.912V56.242H141.088V55.808ZM141.088 54.604H146.912V55.01H141.088V54.604ZM148.606 58.3V53.764H139.478V58.3H141.48C140.472 58.678 139.03 59 137.798 59.168C138.092 59.476 138.484 59.98 138.68 60.302C140.304 60.064 142.264 59.518 143.44 58.916L142.6 58.3H145.162L144.588 58.93C146.198 59.35 147.836 59.91 148.844 60.288L149.978 59.266C149.152 59 147.92 58.636 146.688 58.3H148.606ZM144.518 52.532L144.574 52.084H146.366L146.324 52.532H144.518ZM141.368 52.084H143.216L143.16 52.532H141.312L141.368 52.084ZM143.342 50.852L143.3 51.258H141.466L141.522 50.852H143.342ZM146.436 51.258H144.672L144.7 50.852H146.464L146.436 51.258ZM147.99 51.076L148.088 50.012H140.164L140.024 51.076H137.658V52.266H139.856L139.716 53.358H147.766L147.878 52.266H150.412V51.076H147.99ZM156.138 53.092L154.85 53.414V51.342H156.222V49.802H154.85V47.142H153.198V49.802H151.588V51.342H153.198V53.82C152.526 53.988 151.924 54.128 151.406 54.226L151.84 55.808L153.198 55.472V58.356C153.198 58.566 153.142 58.636 152.932 58.636C152.75 58.636 152.176 58.636 151.63 58.622C151.826 59.056 152.036 59.714 152.106 60.134C153.086 60.134 153.758 60.092 154.22 59.84C154.696 59.574 154.85 59.182 154.85 58.37V55.024C155.354 54.898 155.858 54.758 156.348 54.618L156.138 53.092ZM161.99 53.848C161.57 54.8 160.968 55.626 160.24 56.326C159.54 55.612 158.98 54.772 158.588 53.848H161.99ZM163.04 52.28L162.746 52.35H161.066V50.67H164.202V49.13H161.066V47.128H159.414V49.13H156.404V50.67H159.414V52.35H156.656V53.848H157.384L156.964 53.974C157.468 55.262 158.126 56.368 158.952 57.306C157.972 57.936 156.838 58.384 155.606 58.678C155.914 59.042 156.32 59.742 156.502 60.19C157.86 59.784 159.092 59.224 160.184 58.468C161.15 59.252 162.312 59.826 163.67 60.232C163.908 59.798 164.384 59.126 164.734 58.79C163.488 58.482 162.41 58.02 161.5 57.376C162.676 56.2 163.572 54.674 164.104 52.728L163.04 52.28ZM176.914 53.316C177.446 53.316 178.034 53.288 178.328 53.19C178.272 52.812 178.202 52.21 178.174 51.776C177.866 51.846 177.278 51.888 176.886 51.888H174.842C174.394 51.888 174.31 51.692 174.31 51.174V50.25H177.754V48.822H174.31V47.17H172.658V51.146C172.658 52.7 173.106 53.316 174.786 53.316H176.914ZM167.87 54.814C168.402 55.248 169.046 55.794 169.396 56.158L170.068 55.5V55.962C169.228 56.41 168.402 56.83 167.772 57.11C167.842 56.48 167.87 55.85 167.87 55.318V54.814ZM170.068 53.554V55.136C169.648 54.772 169.046 54.282 168.57 53.946L167.87 54.548V53.554H170.068ZM171.636 52.154H166.33V55.304C166.33 56.522 166.274 58.062 165.532 59.154C165.826 59.35 166.456 59.952 166.694 60.274C167.226 59.546 167.534 58.594 167.688 57.642L168.038 58.622C168.668 58.216 169.368 57.74 170.068 57.236V58.664C170.068 58.846 170.012 58.902 169.83 58.902C169.662 58.902 169.116 58.902 168.612 58.874C168.822 59.238 169.046 59.784 169.116 60.176C169.97 60.176 170.6 60.148 171.048 59.938C171.51 59.714 171.636 59.364 171.636 58.678V52.154ZM169.508 48.668C169.69 49.004 169.886 49.396 170.096 49.802L168.052 49.956C168.668 49.256 169.298 48.444 169.774 47.632L168.094 47.156C167.576 48.262 166.722 49.34 166.442 49.648C166.162 49.956 165.924 50.152 165.672 50.208C165.84 50.628 166.106 51.384 166.19 51.706C166.596 51.538 167.17 51.454 170.712 51.104C170.852 51.44 170.978 51.734 171.062 51.986L172.518 51.398C172.182 50.558 171.44 49.186 170.852 48.178L169.508 48.668ZM174.954 58.664C174.408 58.664 174.31 58.594 174.31 58.104V56.578H177.852V55.108H174.31V53.708H172.658V58.104C172.658 59.63 173.064 60.12 174.716 60.12H176.704C178.034 60.12 178.468 59.574 178.636 57.74C178.202 57.642 177.53 57.39 177.194 57.138C177.124 58.426 177.026 58.664 176.55 58.664H174.954ZM184.824 56.746C186.56 56.242 187.582 54.94 187.582 53.358C187.582 52.182 187.064 51.44 186.07 51.44C185.328 51.44 184.698 51.916 184.698 52.7C184.698 53.498 185.328 53.946 186.028 53.946C186.084 53.946 186.14 53.946 186.182 53.932C186.098 54.674 185.468 55.276 184.376 55.626L184.824 56.746ZM206.342 48.038H203.122C202.996 47.674 202.786 47.268 202.576 46.918L201.19 47.338C201.302 47.534 201.4 47.786 201.498 48.038H198.194V49.228H206.342V48.038ZM198.054 49.48H195.73L196.724 49.074C196.584 48.584 196.234 47.786 195.898 47.212L194.722 47.632C195.03 48.206 195.324 48.962 195.45 49.48H193.462V50.782H198.054V49.48ZM197.606 51.412H194.036V52.672H197.606V51.412ZM194.036 54.562H197.606V53.316H194.036V54.562ZM196.5 56.522V58.174H195.058V56.522H196.5ZM197.69 55.248H193.896V60.036H195.058V59.448H197.69V55.248ZM201.498 55.122H202.982V55.57H201.498V55.122ZM201.498 53.666H202.982V54.128H201.498V53.666ZM199.874 50.474H200.77V51.202H199.874V50.474ZM203.738 50.474H204.676V51.202H203.738V50.474ZM205.53 56.732C205.194 56.97 204.662 57.292 204.172 57.544C203.948 57.292 203.752 57.012 203.584 56.704H206.51V55.57H204.48V55.122H206.034V54.128H204.48V53.666H206.202V52.672H204.48V52.056H205.936V49.606H202.548V52.056H202.982V52.672H201.498V52.056H202.016V49.606H198.684V52.056H200.028V52.672H198.488V53.666H200.028V54.128H198.67V55.122H200.028V55.57H198.04V56.704H200.14C199.426 57.082 198.586 57.376 197.76 57.572C197.984 57.796 198.362 58.342 198.516 58.608C198.964 58.468 199.398 58.286 199.832 58.09C199.776 58.692 199.412 59.07 199.174 59.266C199.398 59.462 199.734 59.952 199.86 60.204C200.112 60.05 200.546 59.91 202.786 59.476C202.744 59.154 202.716 58.622 202.73 58.244L201.106 58.51V57.404C201.442 57.194 201.764 56.956 202.03 56.704H202.212C202.884 58.412 204.046 59.616 205.908 60.176C206.076 59.826 206.454 59.294 206.762 59C206.09 58.846 205.516 58.608 205.012 58.286C205.474 58.076 205.964 57.824 206.37 57.53L205.53 56.732ZM217.948 54.1C217.654 53.526 217.052 52.672 216.478 51.93C216.912 51.286 217.402 50.502 217.822 49.788L216.422 49.466C216.1 50.124 215.498 51.132 214.938 51.944C215.666 52.896 216.324 53.932 216.632 54.646L217.948 54.1ZM214.07 49.438C213.748 50.11 213.174 51.132 212.6 51.972C213.328 52.938 213.944 53.974 214.252 54.702L215.582 54.184C215.288 53.582 214.728 52.714 214.14 51.944C214.588 51.286 215.064 50.502 215.484 49.774L214.07 49.438ZM220.412 54.128C220.09 53.54 219.446 52.686 218.816 51.944C219.278 51.286 219.782 50.516 220.216 49.774L218.788 49.438C218.452 50.11 217.836 51.146 217.248 51.972C218.046 52.924 218.76 53.974 219.096 54.702L220.412 54.128ZM220.37 47.73H212.824V49.214H220.37V47.73ZM212.964 55.388C212.824 54.646 212.446 53.428 212.096 52.504L210.906 52.882C211.018 53.218 211.144 53.596 211.242 53.974L209.772 54.156C210.822 52.924 211.844 51.426 212.628 49.984L211.256 49.144C210.99 49.76 210.654 50.376 210.318 50.964L209.394 51.034C210.094 50.04 210.766 48.836 211.27 47.688L209.828 47.086C209.338 48.57 208.456 50.124 208.162 50.53C207.882 50.95 207.644 51.216 207.364 51.3C207.532 51.678 207.77 52.378 207.854 52.672C208.064 52.574 208.372 52.49 209.422 52.364C209.03 52.924 208.708 53.33 208.54 53.526C208.106 54.044 207.798 54.352 207.448 54.436C207.63 54.856 207.882 55.598 207.966 55.892C208.274 55.738 208.778 55.64 211.578 55.22C211.62 55.444 211.662 55.654 211.69 55.822L212.964 55.388ZM207.994 56.34C207.91 57.516 207.742 58.818 207.406 59.658C207.756 59.77 208.414 59.966 208.708 60.134C209.002 59.238 209.254 57.852 209.352 56.55L207.994 56.34ZM209.59 56.55C209.73 57.46 209.87 58.678 209.884 59.448L211.158 59.196C211.116 58.412 210.948 57.25 210.78 56.312L209.59 56.55ZM211.032 56.242C211.27 56.942 211.536 57.838 211.634 58.426L212.81 58.006C212.684 57.432 212.418 56.564 212.166 55.878L211.032 56.242ZM217.36 58.37V56.438H219.95V54.954H213.16V56.438H215.68V58.37H212.516V59.896H220.524V58.37H217.36ZM222.274 59.266C222.512 58.482 222.694 57.152 222.778 56.228L221.952 55.934C221.854 56.858 221.644 58.146 221.378 58.958L222.274 59.266ZM222.932 56.228C222.988 57.04 223.03 58.104 223.002 58.804L223.73 58.72C223.73 58.02 223.688 56.97 223.618 56.172L222.932 56.228ZM223.758 56.13C223.926 56.844 224.094 57.796 224.136 58.412L224.836 58.272C224.78 57.67 224.598 56.746 224.43 56.018L223.758 56.13ZM223.38 53.232H224.248V54.114H223.38V53.232ZM224.248 49.032V49.956H223.38V49.032H224.248ZM224.248 52.014H223.38V51.188H224.248V52.014ZM229.33 50.222C229.82 49.83 230.282 49.41 230.674 48.962C231.15 49.396 231.682 49.816 232.228 50.222H229.33ZM228.35 55.906C228.098 57.236 227.566 58.454 226.74 59.238C226.908 58.594 226.978 57.25 227.048 54.646C227.062 54.478 227.062 54.114 227.062 54.114H225.508V53.232H226.754V52.014H225.508V51.188H226.712V50.418C227.02 50.67 227.44 51.118 227.636 51.384C227.958 51.188 228.28 50.992 228.602 50.782V51.482H232.718V50.558C233.152 50.852 233.586 51.104 234.02 51.328C234.118 50.908 234.398 50.18 234.636 49.802C233.558 49.396 232.34 48.654 231.5 47.912C231.598 47.772 231.696 47.632 231.78 47.478L230.296 46.96C229.554 48.178 228.196 49.452 226.712 50.278V49.956H225.508V49.032H226.936V47.674H222.092V55.472H225.746C225.718 56.144 225.704 56.704 225.676 57.152C225.55 56.718 225.368 56.2 225.186 55.794L224.598 55.99C224.822 56.55 225.06 57.306 225.158 57.796L225.648 57.614C225.592 58.342 225.536 58.678 225.452 58.818C225.354 58.958 225.256 58.972 225.102 58.972C224.962 58.972 224.668 58.972 224.318 58.93C224.486 59.266 224.626 59.784 224.64 60.162C225.088 60.176 225.522 60.162 225.802 60.106C226.124 60.064 226.362 59.952 226.572 59.644C226.628 59.574 226.67 59.476 226.712 59.336C227.034 59.574 227.552 59.994 227.762 60.232C228.224 59.756 228.63 59.154 228.966 58.454C229.358 58.748 229.736 59.084 229.96 59.322L230.772 58.244C230.492 57.936 229.96 57.53 229.456 57.222C229.568 56.872 229.666 56.508 229.75 56.144L228.35 55.906ZM231.948 53.26H232.83V54.576H231.948V53.26ZM230.87 55.626H233.978V52.224H230.87V55.626ZM228.504 53.26H229.274V54.576H228.504V53.26ZM227.426 55.626H230.422V52.224H227.426V55.626ZM231.766 55.836C231.556 57.236 231.08 58.51 230.268 59.308C230.618 59.518 231.234 59.98 231.472 60.232C231.78 59.896 232.06 59.476 232.298 59.028C232.774 59.392 233.25 59.784 233.516 60.078L234.482 58.944C234.118 58.594 233.446 58.104 232.858 57.712C233.026 57.194 233.152 56.648 233.25 56.088L231.766 55.836ZM241.23 51.664L239.774 52.938C240.74 53.764 241.93 54.968 242.784 56.018L244.282 54.73C243.568 53.862 242.224 52.476 241.23 51.664ZM103.932 68.152H105.584V67.41H108.286V66.094H105.584V65.142H103.932V66.094H102.294V67.41H103.932V68.152ZM96.61 74.76C96.358 75.516 95.952 76.314 95.448 76.846C95.756 77.028 96.274 77.406 96.512 77.616C97.03 77 97.576 76.02 97.87 75.096L96.61 74.76ZM99.886 70C99.788 70.42 99.592 70.98 99.424 71.414H98.528L98.682 71.358C98.584 70.98 98.318 70.42 98.038 70H99.886ZM102.224 74.536V73.29H99.914V72.632H102.364V71.414H100.838C100.992 71.078 101.16 70.7 101.342 70.294L100.138 70H102.14V68.782H99.998C99.872 68.474 99.718 68.152 99.578 67.872H100.138V67.41H101.79V66.094H100.138V65.142H98.486V66.094H95.812V67.41H98.486V67.872H99.116L97.912 68.18C97.996 68.362 98.08 68.572 98.164 68.782H95.84V70H97.73L96.736 70.336C96.946 70.658 97.128 71.05 97.24 71.414H95.672V72.632H98.332V73.29H95.882V74.536H98.332V78.106H99.914V74.536H102.224ZM100.124 75.18C100.474 75.74 100.88 76.538 101.076 77.028L102.196 76.342C101.986 75.866 101.58 75.152 101.188 74.578L100.124 75.18ZM108.37 71.61H104.296V70.056C105.654 69.846 107.096 69.538 108.23 69.16L107.026 67.97C106.004 68.376 104.31 68.768 102.784 68.992V72.73C102.784 74.13 102.714 75.894 101.846 77.14C102.14 77.336 102.77 77.91 102.994 78.204C104.03 76.86 104.268 74.704 104.296 73.038H105.388V78.148H106.956V73.038H108.37V71.61ZM113.676 68.502L113.368 68.558H109.84V70.238H112.766C112.15 72.688 110.946 74.606 109.336 75.698C109.742 75.936 110.4 76.594 110.68 76.986C112.64 75.516 114.152 72.688 114.768 68.908L113.676 68.502ZM120.186 67.592C119.556 68.46 118.59 69.524 117.708 70.364C117.414 69.776 117.162 69.188 116.938 68.558V65.142H115.16V76.076C115.16 76.314 115.076 76.398 114.838 76.398C114.572 76.398 113.83 76.398 113.06 76.37C113.312 76.874 113.606 77.714 113.676 78.232C114.81 78.232 115.65 78.148 116.196 77.854C116.756 77.546 116.938 77.056 116.938 76.09V72.072C118.03 74.158 119.514 75.866 121.488 76.916C121.768 76.426 122.328 75.726 122.734 75.362C120.97 74.592 119.542 73.276 118.478 71.666C119.472 70.868 120.69 69.706 121.726 68.67L120.186 67.592ZM127.536 69.202V68.054H128.586C128.334 68.46 128.082 68.838 127.816 69.202H127.536ZM128.628 73.892H126.374V72.996H128.628V73.892ZM126.374 76.132V75.138H128.628V76.132H126.374ZM135.418 65.856L135.166 65.912H131.134V66.178L129.664 65.772C129.454 66.318 129.244 66.85 128.978 67.34V66.626H127.536V65.268H125.996V66.626H124.162V68.054H125.996V69.202H123.56V70.658H126.542C125.562 71.596 124.442 72.366 123.196 72.968C123.504 73.304 123.98 74.004 124.162 74.354C124.386 74.228 124.624 74.088 124.862 73.934V78.176H126.374V77.462H128.628V77.994H130.21V71.68H127.69C127.998 71.344 128.292 71.022 128.586 70.658H130.672V69.202H129.636C130.224 68.292 130.714 67.284 131.134 66.22V78.204H132.772V67.48H134.55C134.2 68.558 133.724 69.972 133.318 70.98C134.438 72.058 134.76 73.08 134.76 73.85C134.76 74.312 134.662 74.648 134.396 74.802C134.256 74.886 134.046 74.928 133.836 74.928C133.584 74.942 133.29 74.928 132.954 74.9C133.206 75.348 133.36 76.062 133.374 76.51C133.808 76.538 134.27 76.538 134.592 76.496C134.97 76.44 135.32 76.314 135.572 76.118C136.132 75.754 136.356 75.068 136.356 74.018C136.356 73.122 136.118 72.016 134.928 70.77C135.502 69.538 136.118 67.956 136.622 66.612L135.418 65.856ZM149.88 73.276H150.51V72.408H149.88V71.036H142.586V71.974H148.396V72.408H142.194V73.276H148.396V73.794H142.53V74.732H145.316L145.036 74.97C145.54 75.404 146.226 76.062 146.604 76.482L147.5 75.642C147.262 75.404 146.884 75.068 146.506 74.732H149.88V73.276ZM146.31 68.054L147.038 67.76C146.94 67.508 146.716 67.13 146.52 66.822C147.178 66.766 147.808 66.682 148.41 66.584C148.186 67.074 147.864 67.62 147.542 68.054H146.31ZM145.26 67.172C145.414 67.424 145.596 67.774 145.722 68.054H144.014L144.756 67.746C144.644 67.536 144.42 67.256 144.238 66.99C144.84 66.962 145.456 66.92 146.058 66.864L145.26 67.172ZM142.922 67.298C143.076 67.508 143.272 67.816 143.412 68.054H142.726V69.062H145.484V69.622H142.306V70.63H150.468V69.622H147.024V69.062H149.894V68.054H149.012C149.236 67.676 149.46 67.256 149.642 66.892L148.536 66.556C149.18 66.472 149.796 66.346 150.342 66.206L149.404 65.17C147.71 65.59 144.714 65.856 142.166 65.94C142.306 66.234 142.474 66.724 142.516 67.046C142.88 67.032 143.244 67.032 143.622 67.018L142.922 67.298ZM142.138 72.912C141.942 72.604 141.004 71.47 140.64 71.078V70.644H141.942V69.09H140.64V67.074C141.13 66.92 141.578 66.752 141.984 66.57L141.186 65.226C140.262 65.688 138.876 66.108 137.602 66.36C137.756 66.71 137.952 67.27 137.994 67.648C138.4 67.592 138.806 67.508 139.24 67.424V69.09H137.518V70.644H139.002C138.568 71.988 137.91 73.5 137.238 74.396C137.462 74.83 137.798 75.544 137.938 76.062C138.414 75.334 138.848 74.326 139.24 73.248V78.218H140.64V72.814C140.92 73.332 141.2 73.878 141.354 74.256L142.138 72.912ZM142.712 78.022C143.118 77.392 143.44 76.412 143.678 75.628L142.46 75.138C142.25 75.908 141.872 76.86 141.438 77.476L142.712 78.022ZM150.58 77.406C150.314 76.79 149.782 75.838 149.306 75.096L148.088 75.572C148.27 75.88 148.466 76.244 148.648 76.594C148.27 76.51 147.682 76.314 147.402 76.132C147.36 76.79 147.276 76.902 146.968 76.902H145.652C145.218 76.902 145.148 76.86 145.148 76.538V75.138H143.692V76.552C143.692 77.728 144.028 78.106 145.456 78.106H147.136C148.13 78.106 148.508 77.784 148.648 76.608C148.914 77.112 149.166 77.602 149.306 77.98L150.58 77.406ZM153.66 68.194H162.27V70.126H163.992V66.626H159.134C158.98 66.122 158.686 65.492 158.406 65.002L156.726 65.464C156.908 65.828 157.076 66.234 157.216 66.626H152.022V70.126H153.66V68.194ZM158.868 74.242H162.704V72.674H158.868V71.022H161.85V69.426H154.15V71.022H157.132V75.768C156.32 75.348 155.676 74.676 155.256 73.528C155.368 72.996 155.48 72.422 155.55 71.834L153.856 71.68C153.604 74.06 152.904 76.006 151.392 77.14C151.77 77.364 152.484 77.952 152.75 78.246C153.548 77.56 154.164 76.65 154.626 75.558C155.9 77.588 157.818 78.022 160.436 78.022H163.922C164.006 77.518 164.272 76.72 164.524 76.328C163.572 76.356 161.262 76.356 160.52 76.356C159.932 76.356 159.386 76.328 158.868 76.258V74.242ZM170.25 77.196C172.784 77.196 174.254 75.782 174.254 72.338V66.64H172.266V72.52C172.266 74.676 171.482 75.404 170.25 75.404C169.032 75.404 168.29 74.676 168.29 72.52V66.64H166.218V72.338C166.218 75.782 167.73 77.196 170.25 77.196ZM176.747 77H178.819V73.318H180.205C182.431 73.318 184.209 72.254 184.209 69.888C184.209 67.438 182.445 66.64 180.149 66.64H176.747V77ZM178.819 71.68V68.278H179.995C181.423 68.278 182.179 68.684 182.179 69.888C182.179 71.078 181.493 71.68 180.065 71.68H178.819ZM193.232 77.196C195.766 77.196 197.236 75.782 197.236 72.338V66.64H195.248V72.52C195.248 74.676 194.464 75.404 193.232 75.404C192.014 75.404 191.272 74.676 191.272 72.52V66.64H189.2V72.338C189.2 75.782 190.712 77.196 193.232 77.196ZM199.729 77H201.801V73.318H203.187C205.413 73.318 207.191 72.254 207.191 69.888C207.191 67.438 205.427 66.64 203.131 66.64H199.729V77ZM201.801 71.68V68.278H202.977C204.405 68.278 205.161 68.684 205.161 69.888C205.161 71.078 204.475 71.68 203.047 71.68H201.801ZM216.215 77.196C218.749 77.196 220.219 75.782 220.219 72.338V66.64H218.231V72.52C218.231 74.676 217.447 75.404 216.215 75.404C214.997 75.404 214.255 74.676 214.255 72.52V66.64H212.183V72.338C212.183 75.782 213.695 77.196 216.215 77.196ZM222.712 77H224.784V73.318H226.17C228.396 73.318 230.174 72.254 230.174 69.888C230.174 67.438 228.41 66.64 226.114 66.64H222.712V77ZM224.784 71.68V68.278H225.96C227.388 68.278 228.144 68.684 228.144 69.888C228.144 71.078 227.458 71.68 226.03 71.68H224.784ZM232.693 73.472H234.037L234.331 68.306L234.401 66.36H232.329L232.399 68.306L232.693 73.472ZM233.365 77.196C234.093 77.196 234.653 76.608 234.653 75.852C234.653 75.096 234.093 74.508 233.365 74.508C232.637 74.508 232.091 75.096 232.091 75.852C232.091 76.608 232.637 77.196 233.365 77.196Z" fill="black"/>
<path d="M101.84 12.77V18.37H102.76V12.77H101.84ZM104.25 11.76V19.65C104.25 19.84 104.17 19.9 103.98 19.9C103.78 19.91 103.15 19.91 102.46 19.89C102.6 20.16 102.75 20.59 102.8 20.85C103.72 20.86 104.32 20.83 104.69 20.68C105.05 20.52 105.19 20.25 105.19 19.65V11.76H104.25ZM98.2 16.36V17.2H100.54V16.36H98.2ZM100.13 16.36V16.51C100.04 18.84 99.94 19.71 99.76 19.91C99.67 20.01 99.58 20.03 99.42 20.03C99.24 20.03 98.8 20.03 98.34 19.98C98.48 20.21 98.58 20.56 98.6 20.81C99.08 20.83 99.56 20.83 99.82 20.8C100.13 20.76 100.33 20.69 100.51 20.47C100.79 20.14 100.89 19.2 101 16.73C101 16.62 101.01 16.36 101.01 16.36H100.13ZM97.76 12.86H100.02V14.55H97.76V12.86ZM96.9 12.03V15.4H100.93V12.03H96.9ZM97.97 15.11C97.88 16.94 97.7 19.04 96.29 20.19C96.51 20.34 96.79 20.63 96.93 20.86C98.51 19.54 98.78 17.23 98.89 15.11H97.97ZM106.35 17.6V18.48H115.65V17.6H106.35ZM106.74 12.14V13.02H115.27V12.14H106.74ZM108.16 15.73V16.55H113.88V15.73H108.16ZM113.53 13.86V19.75C113.53 19.92 113.47 19.97 113.28 19.97C113.11 19.98 112.46 19.99 111.85 19.96C111.99 20.2 112.13 20.61 112.19 20.86C113.04 20.86 113.62 20.85 113.98 20.7C114.35 20.55 114.47 20.28 114.47 19.76V13.86H113.53ZM107.52 13.86V20.86H108.45V14.72H113.91V13.86H107.52ZM110.48 12.41V17.92H111.43V12.41H110.48ZM116.56 12.29C118.17 13.67 118.42 15.16 118.42 16.94C118.42 18.19 118.33 19.26 118.09 19.57C118.02 19.67 117.93 19.73 117.77 19.74C117.54 19.76 117.17 19.77 116.67 19.73C116.84 20.01 116.94 20.37 116.94 20.68C117.41 20.71 117.85 20.7 118.22 20.62C118.47 20.57 118.67 20.45 118.82 20.25C119.25 19.67 119.36 18.37 119.36 16.97C119.36 15.09 119.13 13.34 117.25 11.76L116.56 12.29ZM118.5 15.14C118.05 16.11 117.13 17.16 116.28 17.67C116.48 17.87 116.71 18.23 116.83 18.47C117.72 17.81 118.68 16.62 119.19 15.55L118.5 15.14ZM119.01 11.78C118.46 12.79 117.32 13.99 116.35 14.61C116.54 14.82 116.79 15.2 116.91 15.45C117.92 14.67 119.09 13.34 119.73 12.23L119.01 11.78ZM119.93 14.51V20.84H120.73V15.23H124.39V20.78H125.22V14.51H119.93ZM120.46 19.61V20.34H124.78V19.61H120.46ZM121.18 18.16V18.86H123.89V18.16H121.18ZM119.7 12.95V13.69H125.56V12.95H119.7ZM121.5 13.44V14.93C121.5 15.69 121.39 16.65 120.66 17.37C120.81 17.45 121.11 17.66 121.22 17.78C122.02 17 122.17 15.83 122.17 14.94V13.44H121.5ZM122.95 13.43V16.65C122.95 17.32 123.11 17.49 123.69 17.49C123.8 17.49 124.25 17.49 124.37 17.49C124.75 17.49 124.96 17.37 125.03 17.05C124.83 17.01 124.58 16.92 124.45 16.82C124.43 16.85 124.4 16.86 124.29 16.86C124.19 16.86 123.86 16.86 123.79 16.86C123.64 16.86 123.62 16.84 123.62 16.64V13.43H122.95ZM120.51 11.89C120.8 12.27 121.13 12.79 121.28 13.11L122.02 12.7C121.86 12.39 121.51 11.9 121.22 11.54L120.51 11.89ZM123.56 11.53C123.35 12.01 122.94 12.68 122.62 13.11L123.35 13.36C123.68 12.96 124.09 12.37 124.43 11.79L123.56 11.53ZM131.44 12.17L131.07 12.87H133.61V12.17H131.44ZM131.12 14.27H134.4V15.19H131.12V14.27ZM130.32 13.58V15.88H135.25V13.58H130.32ZM131.77 16.4C133.05 17.53 133 19.52 132.59 19.91C132.46 20.07 132.31 20.1 132.11 20.1C131.93 20.1 131.68 20.09 131.38 20.06C131.52 20.27 131.59 20.6 131.61 20.81C131.85 20.82 132.09 20.83 132.28 20.83C132.68 20.82 132.93 20.75 133.19 20.47C133.88 19.85 133.9 17.37 132.39 16.06L131.77 16.4ZM132.33 16.84C131.69 17.37 130.43 17.98 129.48 18.25C129.65 18.41 129.84 18.69 129.94 18.88C130.91 18.5 132.19 17.81 132.89 17.22L132.33 16.84ZM132.74 17.75C132.03 18.53 130.57 19.35 129.36 19.7C129.53 19.87 129.72 20.14 129.83 20.34C131.04 19.89 132.52 18.98 133.3 18.14L132.74 17.75ZM126.39 11.99V12.77H129.43V11.99H126.39ZM126.27 15.05V15.85H129.5V15.05H126.27ZM129.18 11.99V12.15C128.89 12.68 128.28 13.42 127.75 13.86C127.9 13.98 128.13 14.22 128.25 14.38C128.88 13.87 129.6 13.07 130.07 12.32L129.53 11.94L129.37 11.99H129.18ZM126.65 13.75C127.4 14.11 128.24 14.74 128.67 15.21L129.24 14.61C128.8 14.16 127.96 13.56 127.21 13.21L126.65 13.75ZM129.24 15.05V15.2C129.15 15.9 128.99 16.8 128.8 17.35L129.45 17.59C129.71 16.97 129.94 16.01 130.06 15.16L129.5 15.01L129.37 15.05H129.24ZM127.56 15.34V19.73C127.56 19.84 127.53 19.87 127.4 19.88C127.27 19.88 126.86 19.89 126.43 19.87C126.56 20.11 126.71 20.51 126.75 20.76C127.33 20.76 127.76 20.75 128.05 20.59C128.35 20.44 128.43 20.17 128.43 19.75V15.34H127.56ZM133.46 12.17V12.33C133.29 12.74 132.95 13.39 132.63 13.79C132.82 13.88 133.11 14.06 133.28 14.18C133.65 13.76 134.1 13.07 134.37 12.51L133.78 12.13L133.65 12.17H133.46ZM131.4 11.53C131.06 12.34 130.39 13.31 129.41 14.03C129.61 14.14 129.91 14.4 130.05 14.59C131.11 13.75 131.8 12.69 132.28 11.68L131.4 11.53ZM132.35 13.93V15.53H133.16V13.93H132.35ZM132.12 15.56C131.57 16.06 130.53 16.58 129.68 16.84C129.86 17 130.1 17.28 130.22 17.48C131.07 17.15 132.16 16.48 132.76 15.86L132.12 15.56ZM134.33 16.99L133.73 17.17C134 18.37 134.51 19.67 135.11 20.38C135.24 20.17 135.53 19.87 135.72 19.73C135.13 19.15 134.6 18.03 134.33 16.99ZM134.9 16.01C134.37 16.43 133.48 16.97 132.89 17.27L133.29 17.84C133.91 17.54 134.77 17.07 135.37 16.61L134.9 16.01ZM140.17 18.24C141.3 17.88 142 17.01 142 15.91C142 15.15 141.67 14.66 141.05 14.66C140.59 14.66 140.19 14.95 140.19 15.46C140.19 15.97 140.58 16.25 141.03 16.25C141.24 16.25 141.44 16.19 141.59 16.03L141.04 15.21L141.18 16.11C141.18 16.79 140.73 17.29 139.9 17.59L140.17 18.24ZM154.29 11.75C153.74 12.55 152.72 13.38 151.85 13.86C152.1 14.03 152.38 14.31 152.53 14.51C153.48 13.93 154.49 13.05 155.18 12.11L154.29 11.75ZM154.58 14.46C153.98 15.32 152.84 16.19 151.87 16.69C152.11 16.86 152.38 17.15 152.53 17.36C153.57 16.75 154.71 15.82 155.45 14.82L154.58 14.46ZM154.77 17.31C154.12 18.45 152.87 19.47 151.61 20.05C151.84 20.24 152.11 20.55 152.26 20.78C153.62 20.07 154.88 18.96 155.64 17.64L154.77 17.31ZM146.52 15.27V16.01H151.99V15.27H146.52ZM147.99 17.09H150.59V17.79H147.99V17.09ZM147.11 16.44V18.43H151.51V16.44H147.11ZM150.1 18.85C150.43 19.34 150.8 20 150.96 20.42L151.67 20.06C151.5 19.66 151.1 19.03 150.77 18.55L150.1 18.85ZM147.89 13.6H150.71V14.11H147.89V13.6ZM147.89 12.52H150.71V13.02H147.89V12.52ZM147 11.91V14.71H151.64V11.91H147ZM148.81 18.08V19.92C148.81 20.01 148.79 20.04 148.67 20.04C148.57 20.05 148.24 20.05 147.88 20.04C147.99 20.26 148.11 20.57 148.15 20.81C148.7 20.81 149.1 20.81 149.38 20.68C149.67 20.56 149.74 20.35 149.74 19.94V18.08H148.81ZM147.45 18.57C147.23 19.08 146.88 19.61 146.5 19.99C146.69 20.11 147.01 20.36 147.16 20.49C147.55 20.08 147.98 19.4 148.24 18.8L147.45 18.57ZM148.64 14.89C148.78 15.14 148.93 15.5 148.99 15.72L149.92 15.51C149.86 15.27 149.69 14.93 149.53 14.7L148.64 14.89ZM157.54 16.17V16.78H164.63V16.17H157.54ZM158.41 19.27V19.7H163.59V19.27H158.41ZM158.41 20.09V20.6H163.59V20.09H158.41ZM156.49 17.4V18.04H165.52V17.4H156.49ZM164.79 11.86V11.96C164.62 12.42 164.36 13.03 164.05 13.66C164.61 14.06 164.85 14.36 164.85 14.62C164.85 14.78 164.8 14.89 164.68 14.95C164.62 14.98 164.52 14.99 164.43 15C164.27 15.01 164.04 15 163.78 14.98C163.91 15.16 164 15.44 164.01 15.64C164.26 15.66 164.55 15.65 164.75 15.63C164.9 15.61 165.08 15.56 165.21 15.48C165.46 15.33 165.6 15.08 165.6 14.71C165.59 14.37 165.36 13.96 164.82 13.53C165.08 13.07 165.35 12.59 165.59 12.09L165.03 11.82L164.92 11.86H164.79ZM162.84 11.86V16.01H163.61V12.52H165.01V11.86H162.84ZM157.91 18.39V20.85H158.78V18.89H163.32V20.84H164.22V18.39H157.91ZM158.8 16.88C158.99 17.08 159.17 17.38 159.23 17.59L160.02 17.35C159.96 17.14 159.76 16.86 159.56 16.65L158.8 16.88ZM162.49 16.56C162.37 16.8 162.14 17.16 161.97 17.41L162.64 17.63C162.83 17.42 163.09 17.13 163.34 16.81L162.49 16.56ZM160.41 15.76C160.55 16.04 160.69 16.42 160.74 16.66L161.67 16.42C161.61 16.19 161.45 15.82 161.29 15.56L160.41 15.76ZM159.87 13.03V13.51H162.05V13.03H159.87ZM159.9 12.11V12.6H161.73V13.95H159.9V14.44H162.47V12.11H159.9ZM161.25 14.48C161.66 14.85 162.1 15.37 162.3 15.74L162.87 15.44C162.67 15.07 162.2 14.56 161.79 14.2L161.25 14.48ZM158.93 13.52C158.56 14.58 157.61 15.29 156.44 15.68C156.58 15.82 156.76 16.12 156.82 16.27C158.09 15.76 159.14 14.92 159.58 13.65L158.93 13.52ZM156.79 13.49C156.79 13.34 157.2 13.15 157.2 13.15V13.13C157.64 12.82 158.11 12.34 158.49 11.83L157.91 11.5C157.61 12.01 157.12 12.51 156.97 12.64C156.83 12.76 156.7 12.84 156.58 12.86C156.65 13.03 156.75 13.34 156.79 13.49ZM156.79 13.49C156.91 13.42 157.17 13.38 158.51 13.27C158.51 13.16 158.53 12.96 158.56 12.82L157.07 12.9L156.78 13.07L156.79 13.49ZM156.76 14.71C156.76 14.57 157.23 14.39 157.23 14.39V14.37C157.95 13.93 158.68 13.28 159.34 12.59L158.79 12.24C158.23 12.95 157.42 13.62 157.17 13.8C156.93 13.97 156.74 14.08 156.56 14.1C156.63 14.27 156.73 14.58 156.76 14.71ZM156.76 14.72C156.91 14.65 157.18 14.59 158.97 14.41C158.97 14.29 158.99 14.08 159.02 13.93L157.06 14.11L156.75 14.29L156.76 14.72ZM159.49 15.9C159.67 15.79 159.97 15.71 162.11 15.24C162.11 15.09 162.12 14.81 162.15 14.63L159.8 15.09L159.45 15.34L159.49 15.9ZM159.49 15.9C159.49 15.64 160.35 15.25 160.35 15.25V12.1H159.57V14.66C159.57 15.04 159.36 15.18 159.2 15.25C159.31 15.4 159.45 15.71 159.49 15.9ZM160.35 11.64C160.5 11.91 160.63 12.27 160.67 12.52L161.46 12.3C161.42 12.06 161.27 11.71 161.1 11.45L160.35 11.64ZM166.62 14.21V14.93H171.06V14.21H166.62ZM166.49 16.09V16.81H171.22V16.09H166.49ZM171.96 16.19V17.02H175.55V16.19H171.96ZM166.63 17.43V18.17H171.11V17.43H166.63ZM173.55 16.54V20.81H174.45V16.54H173.55ZM174.72 13.59C173.99 13.87 172.73 14.15 171.62 14.31C171.73 14.5 171.85 14.82 171.9 15.01C173.07 14.86 174.44 14.61 175.43 14.26L174.72 13.59ZM167.3 15.17C167.51 15.51 167.68 15.99 167.74 16.3L168.5 16.03C168.43 15.72 168.23 15.26 168.02 14.93L167.3 15.17ZM169.63 14.92C169.52 15.29 169.3 15.85 169.13 16.2L169.84 16.4C170.03 16.08 170.25 15.6 170.45 15.14L169.63 14.92ZM168.13 13.66C168.31 14.03 168.53 14.53 168.62 14.84L169.58 14.55C169.47 14.25 169.23 13.76 169.03 13.41L168.13 13.66ZM171.62 14.31V16.98C171.62 18 171.57 19.3 170.96 20.23C171.14 20.34 171.48 20.67 171.61 20.84C172.36 19.8 172.49 18.17 172.49 16.99V14.31H171.62ZM169.65 18.59C169.9 19.01 170.21 19.59 170.34 19.96L171 19.57C170.86 19.21 170.55 18.67 170.27 18.26L169.65 18.59ZM167.28 18.35C167.09 18.92 166.77 19.51 166.4 19.92C166.58 20.03 166.88 20.25 167.02 20.37C167.41 19.91 167.79 19.21 168.02 18.54L167.28 18.35ZM166.59 12.29V13.06H170.8V12.29H166.59ZM168.62 11.55V13.45H169.56V11.55H168.62ZM172.46 11.56V13.66H173.4V11.56H172.46ZM171.21 12.29V13.06H175.48V12.29H171.21ZM168.44 16.52V20.79H169.34V16.52H168.44ZM178.68 16.88H183.42V17.45H178.68V16.88ZM178.68 18.02H183.42V18.61H178.68V18.02ZM178.68 15.74H183.42V16.31H178.68V15.74ZM177.76 15.15V19.2H184.37V15.15H177.76ZM181.88 19.68C182.92 20.04 183.98 20.5 184.59 20.82L185.44 20.3C184.74 19.97 183.57 19.52 182.51 19.17L181.88 19.68ZM179.42 19.2C178.72 19.59 177.52 19.94 176.48 20.15C176.69 20.31 177.02 20.67 177.18 20.85C178.19 20.57 179.47 20.09 180.28 19.59L179.42 19.2ZM180.57 12.21V12.92H184.66V12.21H180.57ZM180.7 11.52C180.47 12.23 180.05 12.92 179.53 13.38C179.73 13.49 180.08 13.72 180.24 13.86C180.77 13.35 181.26 12.54 181.53 11.71L180.7 11.52ZM181.81 12.71V13.04C181.81 13.51 181.54 14.11 179 14.38C179.17 14.56 179.41 14.89 179.5 15.1C182.32 14.72 182.68 13.82 182.68 13.08V12.71H181.81ZM182.58 13.22L181.91 13.36C182.49 14.31 183.61 14.87 185.1 15.07C185.21 14.83 185.44 14.49 185.63 14.31C184.22 14.21 183.09 13.84 182.58 13.22ZM176.66 12.11V12.83H179.14V12.11H176.66ZM176.44 13.67V14.41H179.39V13.67H176.44ZM184.34 12.21V12.33C184.17 12.76 183.89 13.28 183.66 13.62L184.39 13.89C184.69 13.51 185.02 12.91 185.27 12.37L184.63 12.17L184.49 12.21H184.34ZM189.97 16.83C190.15 17.19 190.35 17.68 190.44 17.98L190.94 17.79C190.85 17.52 190.63 17.05 190.45 16.69L189.97 16.83ZM191.25 17.94V20.71H191.93V17.94H191.25ZM188.61 18.09V19.56H190.38V19H189.22V18.09H188.61ZM190.02 17.94V18.85C190.02 19.39 189.88 19.93 188.8 20.25C188.95 20.38 189.15 20.63 189.23 20.79C190.5 20.35 190.68 19.64 190.68 18.87V17.94H190.02ZM187.31 13.26V13.86H189.99V13.26H187.31ZM191.91 13.26V13.86H194.64V13.26H191.91ZM194.31 11.97V19.71C194.31 19.84 194.27 19.89 194.14 19.89C194 19.9 193.59 19.9 193.18 19.88C193.31 20.13 193.42 20.56 193.46 20.81C194.1 20.81 194.54 20.79 194.84 20.64C195.14 20.48 195.22 20.2 195.22 19.71V11.97H194.31ZM187.39 11.97V12.63H189.7V14.47H187.39V15.13H190.59V11.97H187.39ZM194.77 11.97H191.38V15.13H194.77V14.47H192.28V12.63H194.77V11.97ZM186.83 11.97V20.85H187.73V11.97H186.83ZM188.5 16.73C188.5 16.59 188.89 16.4 188.89 16.4V16.39C189.22 16.14 189.6 15.74 189.91 15.32L189.34 15.02C189.12 15.45 188.73 15.86 188.62 15.96C188.51 16.06 188.4 16.12 188.29 16.14C188.37 16.29 188.46 16.6 188.5 16.73ZM188.5 16.74C188.61 16.68 188.84 16.64 189.97 16.57C189.99 16.46 190.05 16.26 190.1 16.12L188.78 16.17L188.49 16.33L188.5 16.74ZM188.45 17.92C188.45 17.78 188.83 17.62 188.83 17.62V17.6C189.48 17.2 190.14 16.61 190.73 15.98L190.23 15.64C189.74 16.28 189.01 16.91 188.8 17.07C188.59 17.23 188.42 17.33 188.26 17.35C188.33 17.5 188.42 17.79 188.45 17.92ZM188.45 17.92C188.59 17.86 188.86 17.8 190.54 17.62C190.52 17.51 190.48 17.31 190.47 17.17L188.72 17.32L188.44 17.5L188.45 17.92ZM192.68 16.84C192.86 17.2 193.08 17.69 193.19 17.99L193.68 17.78C193.57 17.51 193.34 17.04 193.14 16.69L192.68 16.84ZM191.21 16.74C191.21 16.6 191.6 16.41 191.6 16.41V16.4C191.94 16.15 192.32 15.75 192.62 15.33L192.05 15.03C191.83 15.46 191.44 15.87 191.33 15.97C191.23 16.07 191.12 16.13 191 16.15C191.08 16.31 191.17 16.61 191.21 16.74ZM191.21 16.74C191.33 16.69 191.56 16.64 192.68 16.57C192.7 16.46 192.76 16.26 192.81 16.12L191.49 16.18L191.2 16.34L191.21 16.74ZM191.17 17.93C191.17 17.79 191.55 17.63 191.55 17.63V17.61C192.2 17.2 192.87 16.61 193.45 15.97L192.95 15.63C192.47 16.28 191.74 16.92 191.52 17.07C191.32 17.24 191.14 17.34 190.99 17.36C191.05 17.51 191.14 17.8 191.17 17.93ZM191.17 17.93C191.32 17.86 191.58 17.81 193.27 17.63C193.24 17.52 193.21 17.32 193.2 17.18L191.44 17.33L191.16 17.51L191.17 17.93ZM191.75 19V19.56H193.08V19H191.75ZM192.74 18.1V19.85H193.37V18.1H192.74ZM197.03 14.11V14.89H199.35V14.11H197.03ZM196.52 15.81V16.62H199.52V15.81H196.52ZM196.68 17.24C196.82 17.81 196.95 18.56 196.98 19.05L197.55 18.85C197.51 18.37 197.37 17.62 197.23 17.06L196.68 17.24ZM196.38 19.68L196.54 20.53C197.39 20.31 198.56 20 199.66 19.69L199.62 18.94C198.41 19.23 197.17 19.51 196.38 19.68ZM198.9 16.94C198.83 17.47 198.68 18.23 198.56 18.71L199.03 18.91C199.17 18.46 199.33 17.76 199.49 17.15L198.9 16.94ZM197.75 14.43V19.9L198.41 19.77V14.43H197.75ZM198.05 11.5C197.64 12.46 196.94 13.37 196.27 13.93C196.37 14.16 196.53 14.68 196.57 14.9C197.35 14.17 198.14 13.01 198.63 11.84L198.05 11.5ZM197.82 12.69C198.41 13.12 199.07 13.75 199.45 14.22L199.79 13.44C199.41 13 198.75 12.41 198.13 11.99L197.82 12.69ZM202.9 11.61V19.6H203.64V11.61H202.9ZM201.52 13.66V14.37H205.66V13.66H201.52ZM201.54 17.78V18.5H205.42V17.78H201.54ZM201.79 16.37V17.09H205.21V16.37H201.79ZM199.61 12.1V12.97H201.11V12.1H199.61ZM200.91 15.03V15.17C200.76 17.82 200.14 19.51 198.98 20.25C199.14 20.41 199.32 20.69 199.42 20.89C200.78 19.93 201.44 18.21 201.61 15.06L201.17 15.01L201.05 15.03H200.91ZM200.23 16.65L199.6 16.89C200.39 20.07 201.99 20.69 204.03 20.69H205.42C205.46 20.47 205.58 20.1 205.69 19.9C205.33 19.92 204.35 19.92 204.08 19.92C202.37 19.91 200.87 19.4 200.23 16.65ZM201.82 12.32V12.99H204.4V15.06H201.82V15.72H205.07V12.32H201.82ZM200.05 15.03L199.82 15.81H201.15V15.03H200.05ZM199.78 15.99C199.78 15.82 200.36 15.56 200.36 15.56V15.55C200.82 14.72 201.31 13.51 201.67 12.31L201.16 11.98L200.88 12.11V12.16C200.64 13.24 200.13 14.41 199.98 14.72C199.82 15.03 199.56 15.32 199.4 15.37C199.51 15.52 199.71 15.83 199.78 15.99ZM207.36 13.18V14.01H209.55V18.96H207.36V19.8H210.41V13.18H207.36ZM206.8 13.18V20.57H207.67V13.18H206.8ZM207.31 15.91V16.74H209.98V15.91H207.31ZM208.29 11.55C208.22 12.08 208.05 12.84 207.89 13.34L208.65 13.52C208.85 13.06 209.1 12.36 209.31 11.71L208.29 11.55ZM211.79 13.13V14H214.8V13.13H211.79ZM214.47 13.13V13.32C214.35 17.62 214.2 19.31 213.87 19.66C213.76 19.8 213.64 19.83 213.44 19.83C213.2 19.83 212.6 19.82 211.95 19.77C212.12 20.02 212.24 20.42 212.26 20.69C212.83 20.71 213.43 20.73 213.79 20.69C214.17 20.64 214.42 20.54 214.66 20.21C215.07 19.7 215.2 18.13 215.34 13.58C215.35 13.46 215.35 13.13 215.35 13.13H214.47ZM211.92 11.54C211.6 12.9 211.05 14.27 210.37 15.14C210.59 15.26 210.98 15.53 211.15 15.68C211.83 14.73 212.45 13.24 212.83 11.75L211.92 11.54ZM211.45 15.85C211.97 16.58 212.62 17.57 212.91 18.18L213.72 17.69C213.4 17.1 212.72 16.13 212.19 15.43L211.45 15.85ZM96.58 29.91V30.75H105.43V29.91H96.58ZM101.04 31.71V32.53H104.78V31.71H101.04ZM100.61 30.32V34.07H101.57V30.32H100.61ZM98.83 31.93L98.05 32.2C98.85 34.25 100.21 34.67 102.54 34.67H105.33C105.38 34.39 105.53 33.97 105.67 33.76C105.06 33.78 103.04 33.78 102.58 33.78C100.71 33.77 99.41 33.49 98.83 31.93ZM98.21 31.03C97.96 32.44 97.33 33.54 96.29 34.2C96.5 34.34 96.87 34.69 97.01 34.86C98.11 34.07 98.83 32.82 99.15 31.16L98.21 31.03ZM98.49 27.96H103.43V28.64H98.49V27.96ZM98.49 26.64H103.43V27.31H98.49V26.64ZM97.58 25.94V29.33H104.39V25.94H97.58ZM108.18 29.1V29.98H113.83V29.1H108.18ZM108.18 31.26V32.14H113.83V31.26H108.18ZM108.18 33.43V34.31H113.83V33.43H108.18ZM107.54 26.9V34.85H108.5V27.81H113.6V34.81H114.6V26.9H107.54ZM110.43 25.55C110.34 26.05 110.15 26.76 109.97 27.24L110.83 27.4C111.05 26.96 111.32 26.31 111.55 25.68L110.43 25.55ZM119.82 28.64V29.4H124.76V28.64H119.82ZM119.82 30.08V30.83H124.76V30.08H119.82ZM120.26 33.71V34.48H124.32V33.71H120.26ZM119.11 27.18V27.96H125.53V27.18H119.11ZM119.68 31.56V34.84H120.49V32.32H124.03V34.81H124.88V31.56H119.68ZM121.4 25.86C121.66 26.29 121.97 26.87 122.1 27.24L122.94 26.87C122.79 26.51 122.49 25.96 122.21 25.55L121.4 25.86ZM118.46 25.6C117.97 27.07 117.15 28.54 116.28 29.49C116.44 29.71 116.7 30.19 116.78 30.4C117.78 29.27 118.72 27.54 119.31 25.86L118.46 25.6ZM117.64 28.28V34.87H118.51V27.43L118.5 27.42L117.64 28.28ZM128.94 28.39V33.21C128.94 34.33 129.28 34.66 130.46 34.66C130.7 34.66 132.07 34.66 132.33 34.66C133.5 34.66 133.78 34.08 133.9 32.18C133.64 32.11 133.23 31.94 133 31.77C132.93 33.43 132.84 33.77 132.27 33.77C131.96 33.77 130.81 33.77 130.56 33.77C130.03 33.77 129.93 33.69 129.93 33.21V28.39H128.94ZM127.25 29.06C127.12 30.32 126.8 31.86 126.4 32.9L127.36 33.3C127.74 32.19 128.02 30.48 128.17 29.24L127.25 29.06ZM133.5 29.13C134.05 30.31 134.58 31.9 134.76 32.92L135.71 32.54C135.5 31.5 134.96 29.97 134.38 28.78L133.5 29.13ZM129.36 26.46C130.3 27.11 131.51 28.09 132.06 28.71L132.75 27.98C132.16 27.36 130.93 26.44 130 25.83L129.36 26.46ZM142.6 26.04V26.86H144.45V26.04H142.6ZM140.32 26.46V27.25H142.29V26.46H140.32ZM142.7 27.95V28.74H144.41V27.95H142.7ZM142.63 29.81V30.6H144.33V29.81H142.63ZM137.69 27.93V28.72H139.38V27.93H137.69ZM137.74 29.78V30.57H139.42V29.78H137.74ZM143.92 26.04C143.93 27.92 143.85 30.48 143.74 31.98H144.62C144.73 30.5 144.78 27.96 144.79 26.04H143.92ZM139.11 25.61C138.6 25.86 137.85 26.16 137.22 26.37C137.31 26.57 137.41 26.85 137.45 27.04C138.1 26.87 138.89 26.64 139.54 26.38L139.11 25.61ZM139.86 25.64V28.93H141.9V28.18H140.67V25.64H139.86ZM136.43 31.63V32.51H145.58V31.63H136.43ZM141.89 33.18C142.92 33.67 144.03 34.34 144.7 34.8L145.32 34.08C144.63 33.63 143.46 33 142.41 32.52L141.89 33.18ZM139.33 32.57C138.69 33.09 137.47 33.75 136.52 34.12C136.7 34.32 136.94 34.63 137.06 34.83C138.04 34.42 139.27 33.76 140.11 33.16L139.33 32.57ZM137.22 26.37L137.41 31.92H138.26L138.08 26.62L137.22 26.37ZM140.1 29.28C140.03 29.85 139.91 30.42 139.63 30.83C139.8 30.91 140.12 31.11 140.25 31.22C140.54 30.77 140.73 30.08 140.82 29.4L140.1 29.28ZM141.42 28.19V30.79C141.42 30.88 141.39 30.91 141.29 30.91C141.2 30.92 140.9 30.92 140.59 30.91C140.68 31.08 140.77 31.33 140.81 31.52C141.3 31.52 141.66 31.52 141.91 31.41C142.15 31.31 142.22 31.15 142.22 30.79V28.19H141.42ZM150.4 26.15V27.05H155.3V26.15H150.4ZM153.15 29.19V33.68C153.15 33.84 153.09 33.88 152.9 33.89C152.72 33.9 152.05 33.9 151.4 33.87C151.53 34.15 151.66 34.55 151.7 34.82C152.64 34.82 153.24 34.81 153.62 34.67C154 34.52 154.12 34.24 154.12 33.7V29.19H153.15ZM149.96 28.92V29.82H155.57V28.92H149.96ZM147.86 29.87V34.87H148.8V29.09L148.69 29.04L147.86 29.87ZM149 27.72C148.33 28.86 147.23 30.02 146.2 30.75C146.39 30.94 146.72 31.36 146.86 31.55C147.92 30.69 149.12 29.35 149.9 28.06L149 27.72ZM148.61 25.56C148.11 26.27 147.14 27.17 146.31 27.72C146.47 27.91 146.72 28.28 146.85 28.49C147.77 27.84 148.82 26.84 149.52 25.93L148.61 25.56ZM156.64 32.07V32.76H161.25V32.07H156.64ZM156.39 27.27V27.98H161.39V27.27H156.39ZM158.48 26.45V33.73H159.34V26.45H158.48ZM156.36 33.69L156.48 34.5C157.77 34.37 159.58 34.18 161.28 33.98L161.27 33.25C159.48 33.43 157.59 33.59 156.36 33.69ZM157.44 30.32H160.42V30.93H157.44V30.32ZM157.44 29.13H160.42V29.73H157.44V29.13ZM156.67 28.51V31.55H161.21V28.51H156.67ZM160.8 25.64C159.73 25.88 157.95 26.06 156.46 26.13C156.55 26.32 156.64 26.62 156.68 26.82C158.18 26.78 160.02 26.62 161.24 26.36L160.8 25.64ZM161.34 27.87V28.74H164.89V27.87H161.34ZM164.51 27.87V28.08C164.42 32.05 164.32 33.48 164.08 33.79C163.99 33.92 163.89 33.95 163.73 33.95C163.54 33.95 163.12 33.94 162.66 33.9C162.81 34.16 162.91 34.55 162.93 34.81C163.4 34.83 163.87 34.83 164.17 34.79C164.48 34.74 164.7 34.65 164.89 34.35C165.22 33.92 165.31 32.49 165.42 28.31C165.42 28.2 165.42 27.87 165.42 27.87H164.51ZM162.44 25.71C162.43 29.58 162.51 32.59 160.3 34.21C160.52 34.37 160.84 34.69 160.98 34.91C163.33 33.11 163.34 29.81 163.35 25.71H162.44ZM166.79 27.7V28.67H174.51V27.7H166.79ZM174.13 27.7V27.9C173.94 31.75 173.73 33.32 173.36 33.67C173.23 33.8 173.11 33.83 172.9 33.83C172.64 33.83 172.02 33.82 171.36 33.77C171.54 34.04 171.67 34.46 171.68 34.74C172.3 34.77 172.93 34.79 173.29 34.74C173.7 34.7 173.96 34.61 174.22 34.27C174.67 33.76 174.87 32.26 175.09 28.18C175.1 28.04 175.11 27.7 175.11 27.7H174.13ZM169.97 25.58V27.46C169.97 29.47 169.72 32.28 166.49 34.13C166.72 34.3 167.07 34.66 167.22 34.89C170.67 32.86 170.97 29.73 170.97 27.46V25.58H169.97ZM180.59 31.52H181.4L181.63 27.84L181.67 26.52H180.32L180.36 27.84L180.59 31.52ZM181 34.07C181.41 34.07 181.74 33.77 181.74 33.32C181.74 32.86 181.41 32.55 181 32.55C180.58 32.55 180.25 32.86 180.25 33.32C180.25 33.77 180.57 34.07 181 34.07Z" fill="white"/>
<defs>
<linearGradient id="paint0_linear_496_1710" x1="41.3032" y1="39.7681" x2="44.9333" y2="47.8235" gradientUnits="userSpaceOnUse">
<stop stop-color="#FFF176"/>
<stop offset="1" stop-color="#00E0B8"/>
</linearGradient>
<linearGradient id="paint1_linear_496_1710" x1="41.3093" y1="47.0996" x2="44.9393" y2="55.155" gradientUnits="userSpaceOnUse">
<stop stop-color="#FFF176"/>
<stop offset="1" stop-color="#00E0B8"/>
</linearGradient>
<linearGradient id="paint2_linear_496_1710" x1="28.3681" y1="26.8001" x2="63.9908" y2="65.3988" gradientUnits="userSpaceOnUse">
<stop stop-color="#FFF176"/>
<stop offset="1" stop-color="#00E0B8"/>
</linearGradient>
<linearGradient id="paint3_linear_496_1710" x1="15.4906" y1="12.9198" x2="76.7396" y2="79.3027" gradientUnits="userSpaceOnUse">
<stop stop-color="#FFF176"/>
<stop offset="1" stop-color="#00E0B8"/>
</linearGradient>
<linearGradient id="paint4_linear_496_1710" x1="23.3513" y1="20.0653" x2="28.1095" y2="25.119" gradientUnits="userSpaceOnUse">
<stop stop-color="#FFF176"/>
<stop offset="1" stop-color="#00E0B8"/>
</linearGradient>
<linearGradient id="paint5_linear_496_1710" x1="28.7357" y1="16.6775" x2="32.9244" y2="20.3167" gradientUnits="userSpaceOnUse">
<stop stop-color="#FFF176"/>
<stop offset="1" stop-color="#00E0B8"/>
</linearGradient>
<linearGradient id="paint6_linear_496_1710" x1="34.125" y1="14.7151" x2="38.018" y2="17.5032" gradientUnits="userSpaceOnUse">
<stop stop-color="#FFF176"/>
<stop offset="1" stop-color="#00E0B8"/>
</linearGradient>
<linearGradient id="paint7_linear_496_1710" x1="38.9263" y1="13.5124" x2="41.7205" y2="14.6024" gradientUnits="userSpaceOnUse">
<stop stop-color="#FFF176"/>
<stop offset="1" stop-color="#00E0B8"/>
</linearGradient>
<linearGradient id="paint8_linear_496_1710" x1="43.0406" y1="12.8506" x2="46.5203" y2="14.7036" gradientUnits="userSpaceOnUse">
<stop stop-color="#FFF176"/>
<stop offset="1" stop-color="#00E0B8"/>
</linearGradient>
<linearGradient id="paint9_linear_496_1710" x1="51.2599" y1="13.2671" x2="55.0692" y2="15.7504" gradientUnits="userSpaceOnUse">
<stop stop-color="#FFF176"/>
<stop offset="1" stop-color="#00E0B8"/>
</linearGradient>
<linearGradient id="paint10_linear_496_1710" x1="56.0721" y1="14.7389" x2="60.367" y2="17.8314" gradientUnits="userSpaceOnUse">
<stop stop-color="#FFF176"/>
<stop offset="1" stop-color="#00E0B8"/>
</linearGradient>
<linearGradient id="paint11_linear_496_1710" x1="61.0398" y1="17.4532" x2="64.901" y2="20.8077" gradientUnits="userSpaceOnUse">
<stop stop-color="#FFF176"/>
<stop offset="1" stop-color="#00E0B8"/>
</linearGradient>
<linearGradient id="paint12_linear_496_1710" x1="64.8801" y1="20.3383" x2="68.883" y2="24.4464" gradientUnits="userSpaceOnUse">
<stop stop-color="#FFF176"/>
<stop offset="1" stop-color="#00E0B8"/>
</linearGradient>
<linearGradient id="paint13_linear_496_1710" x1="24.0002" y1="68.3261" x2="28.8648" y2="73.2813" gradientUnits="userSpaceOnUse">
<stop stop-color="#FFF176"/>
<stop offset="1" stop-color="#00E0B8"/>
</linearGradient>
<linearGradient id="paint14_linear_496_1710" x1="29.8043" y1="71.614" x2="33.9798" y2="75.128" gradientUnits="userSpaceOnUse">
<stop stop-color="#FFF176"/>
<stop offset="1" stop-color="#00E0B8"/>
</linearGradient>
<linearGradient id="paint15_linear_496_1710" x1="34.6646" y1="73.8651" x2="38.5362" y2="76.5768" gradientUnits="userSpaceOnUse">
<stop stop-color="#FFF176"/>
<stop offset="1" stop-color="#00E0B8"/>
</linearGradient>
<linearGradient id="paint16_linear_496_1710" x1="39.3854" y1="74.9256" x2="42.0645" y2="75.911" gradientUnits="userSpaceOnUse">
<stop stop-color="#FFF176"/>
<stop offset="1" stop-color="#00E0B8"/>
</linearGradient>
<linearGradient id="paint17_linear_496_1710" x1="43.3664" y1="75.394" x2="46.8044" y2="77.2074" gradientUnits="userSpaceOnUse">
<stop stop-color="#FFF176"/>
<stop offset="1" stop-color="#00E0B8"/>
</linearGradient>
<linearGradient id="paint18_linear_496_1710" x1="51.2541" y1="74.9486" x2="54.8636" y2="76.9387" gradientUnits="userSpaceOnUse">
<stop stop-color="#FFF176"/>
<stop offset="1" stop-color="#00E0B8"/>
</linearGradient>
<linearGradient id="paint19_linear_496_1710" x1="56.0634" y1="73.5808" x2="60.2589" y2="77.0772" gradientUnits="userSpaceOnUse">
<stop stop-color="#FFF176"/>
<stop offset="1" stop-color="#00E0B8"/>
</linearGradient>
<linearGradient id="paint20_linear_496_1710" x1="60.8789" y1="71.4086" x2="64.7384" y2="74.6857" gradientUnits="userSpaceOnUse">
<stop stop-color="#FFF176"/>
<stop offset="1" stop-color="#00E0B8"/>
</linearGradient>
<linearGradient id="paint21_linear_496_1710" x1="64.7255" y1="68.6162" x2="68.7806" y2="72.6546" gradientUnits="userSpaceOnUse">
<stop stop-color="#FFF176"/>
<stop offset="1" stop-color="#00E0B8"/>
</linearGradient>
</defs>
</svg>
