<svg width="223" height="21" viewBox="0 0 223 21" fill="none" xmlns="http://www.w3.org/2000/svg">
<mask id="path-1-outside-1_802_882" maskUnits="userSpaceOnUse" x="0.191895" y="-0.394531" width="223" height="22" fill="black">
<rect fill="white" x="0.191895" y="-0.394531" width="223" height="22"/>
<path d="M4.27223 12.6248V14.7186H17.3183V12.6248H4.27223ZM5.25874 8.19557V10.3095H16.352V8.19557H5.25874ZM2.2992 17.1748V19.3291H19.4927V17.1748H2.2992ZM9.48665 9.14181V18.3828H12.0435V9.14181H9.48665ZM5.15807 1.53158V3.76633H11.9227V1.53158H5.15807ZM9.46651 1.53158V2.84022H10.0906C12.1039 5.57829 15.3654 8.43716 18.9088 10.0881C19.2511 9.42368 20.0363 8.3969 20.5195 7.89357C17.0969 6.6252 13.8354 4.08846 12.1039 1.53158H9.46651ZM9.84904 1.53158C8.05721 4.06833 4.39302 6.84667 1.19189 8.1553C1.73548 8.65863 2.3596 9.50421 2.68173 10.1082C5.88286 8.49756 9.60744 5.51789 11.6006 2.73956L9.84904 1.53158Z"/>
<path d="M21.9489 4.14886V6.48427H40.0081V4.14886H21.9489ZM28.5928 8.94049V11.2759H36.3238V8.94049H28.5928ZM35.6997 8.94049V9.32301C35.3977 14.2556 34.995 16.5507 34.391 17.0943C34.1092 17.2956 33.8273 17.3359 33.4045 17.3359C32.8005 17.3359 31.3912 17.3158 29.9819 17.2151C30.4651 17.8594 30.8275 18.866 30.8678 19.5908C32.2167 19.6512 33.5455 19.6512 34.3306 19.5707C35.2769 19.4901 35.9211 19.2888 36.5251 18.6043C37.3707 17.7386 37.7734 15.4837 38.1357 9.96726C38.1961 9.66527 38.2163 8.94049 38.2163 8.94049H35.6997ZM27.0828 5.63869C26.8815 10.1485 26.7808 15.1615 21.6066 17.9198C22.2509 18.4029 22.9958 19.2485 23.3582 19.8928C29.0156 16.6715 29.5189 10.9135 29.7806 5.63869H27.0828ZM29.2571 1.53158C29.7605 2.49796 30.3846 3.8066 30.6262 4.61191L33.1025 3.54487C32.8005 2.75969 32.1965 1.55171 31.6328 0.645734L29.2571 1.53158Z"/>
<path d="M48.323 4.28979V6.64534H59.5974V4.28979H48.323ZM49.5108 7.77278C50.0343 10.4907 50.5577 14.0341 50.6987 16.1279L53.0744 15.4434C52.873 13.41 52.2892 9.94713 51.6852 7.26945L49.5108 7.77278ZM56.2755 7.20906C55.9735 10.3095 55.2286 14.477 54.5038 17.0943L56.5976 17.5372C57.3627 14.9804 58.2284 10.994 58.8122 7.59158L56.2755 7.20906ZM47.5982 16.6916V19.0069H60.2819V16.6916H47.5982ZM52.1482 1.18932C52.5106 2.17583 52.9334 3.52474 53.0744 4.37032L55.4903 3.70593C55.2688 2.84022 54.846 1.59198 54.4635 0.605469L52.1482 1.18932ZM46.2292 0.987994C45.2024 3.867 43.4508 6.72587 41.6389 8.55796C42.0415 9.14181 42.7059 10.4706 42.9274 11.0544C45.1219 8.75929 47.2157 5.13537 48.5042 1.69264L46.2292 0.987994ZM44.1958 6.54467V19.7921H46.6318V4.12872V4.10859L44.1958 6.54467Z"/>
<path d="M70.751 16.9735V19.1076H77.556V16.9735H70.751ZM69.5833 12.1215V19.7921H71.7778V14.2354H76.7909V19.7116H79.0861V12.1215H69.5833ZM68.778 3.12208V5.25617H79.9719V3.12208H68.778ZM68.013 8.65863V10.8128H80.6766V8.65863H68.013ZM76.5292 5.13537C76.2876 6.30308 75.7239 7.91371 75.2809 8.94049L77.2137 9.46394C77.6767 8.51769 78.2405 7.04799 78.7438 5.67896L76.5292 5.13537ZM70.0061 5.75949C70.4088 6.70573 70.7913 7.95397 70.8718 8.77942L72.9455 8.11504C72.8046 7.30972 72.4221 6.12188 71.959 5.19577L70.0061 5.75949ZM72.7845 1.14906C73.026 1.99464 73.2676 3.14221 73.3079 3.82673L75.6031 3.42407C75.5024 2.71942 75.2407 1.63225 74.9387 0.806798L72.7845 1.14906ZM61.8926 5.71922V7.99424H68.0532V5.71922H61.8926ZM63.926 1.18932V14.6784H66.1003V1.18932H63.926ZM61.6912 14.9804L62.4361 17.4366C64.2078 16.7118 66.4426 15.7857 68.5364 14.8797L68.0935 12.6449C65.7581 13.5308 63.2817 14.4569 61.6912 14.9804Z"/>
<path d="M83.4952 2.69929V4.26965H99.2189V2.69929H83.4952ZM84.4414 4.93404V6.36348H98.2727V4.93404H84.4414ZM82.4482 7.04799V8.65863H100.286V7.04799H82.4482ZM87.1593 12.9872V14.0945H95.0313V12.9872H87.1593ZM90.0786 3.6858V8.3365H92.5751V3.6858H90.0786ZM86.052 1.59198C86.4547 2.2161 86.958 3.06168 87.1795 3.60527L89.4142 2.77982C89.1525 2.2765 88.6693 1.49132 88.2062 0.927595L86.052 1.59198ZM94.387 0.887329C94.1857 1.45105 93.7629 2.25637 93.4207 2.84022L95.4944 3.38381C95.9373 2.90062 96.4809 2.19597 97.0446 1.39065L94.387 0.887329ZM95.2729 7.32985L93.3603 7.99424C94.689 10.2894 96.9037 12.2624 99.4404 13.2288C99.7827 12.6449 100.467 11.7994 100.971 11.3363C98.5747 10.6115 96.3802 9.08142 95.2729 7.32985ZM87.4613 11.0746V12.3631H94.4877V14.7186H87.4613V16.0071H96.9238V11.0746H87.4613ZM87.1795 7.39025C86.1124 9.28274 83.9985 10.8531 81.7033 11.7792C82.1865 12.1819 82.9918 13.0677 83.3341 13.5107C85.7299 12.3429 88.0855 10.4102 89.4142 8.0345L87.1795 7.39025ZM88.4478 9.26261V10.4303H94.3065V9.26261H88.4478ZM85.3474 19.9129C85.7903 19.631 86.5151 19.4297 91.0853 18.4633C91.0047 18.0406 90.9443 17.2554 90.9443 16.6916L86.0722 17.5775L85.2668 18.262L85.3474 19.9129ZM85.3474 19.9129C85.3474 19.0875 87.8841 17.6782 87.8841 17.6782V11.0746H85.2467V16.3091C85.2467 17.2352 84.7837 17.7184 84.3407 17.9802C84.7233 18.3828 85.1863 19.3492 85.3474 19.9129ZM98.3734 15.0206C97.3667 15.7655 95.6554 16.752 94.387 17.3359L95.4541 18.3224C96.7829 17.8392 98.4942 17.0339 99.9236 16.2487L98.3734 15.0206ZM90.7631 17.2956C93.3603 18.0204 97.0446 19.2083 98.8767 19.9532L99.8833 18.3224C97.9506 17.5976 94.2461 16.5105 91.7295 15.8863L90.7631 17.2956Z"/>
<path d="M103.568 2.53823V4.67231H119.634V2.53823H103.568ZM102.44 7.14866V9.30288H120.56V7.14866H102.44ZM106.507 13.8932V15.7051H116.553V13.8932H106.507ZM106.507 17.1547V19.1479H116.553V17.1547H106.507ZM104.937 10.5511V19.8324H107.353V12.5443H115.748V19.8122H118.285V10.5511H104.937ZM114.6 4.49112C114.379 5.35683 113.936 6.5648 113.554 7.37012L115.869 7.91371C116.292 7.18892 116.775 6.14201 117.298 5.05484L114.6 4.49112ZM106.044 5.05484C106.487 5.88029 106.89 7.04799 106.99 7.79291L109.507 7.22919C109.366 6.48427 108.943 5.3971 108.42 4.59178L106.044 5.05484ZM109.748 1.06853C110.151 1.83357 110.534 2.90062 110.634 3.58514L113.252 3.08181C113.111 2.3973 112.728 1.41078 112.245 0.686001L109.748 1.06853Z"/>
<path d="M122.493 12.0208V14.014H140.753V12.0208H122.493ZM130.485 11.0544V19.7518H132.921V11.0544H130.485ZM130.868 7.43052H132.358V8.81969H130.868V7.43052ZM130.868 4.41059H132.358V5.77962H130.868V4.41059ZM128.814 2.65902V10.5914H134.492V2.65902H128.814ZM130.787 0.766531C130.727 1.47118 130.505 2.49796 130.304 3.22274L131.895 3.60527C132.197 2.98115 132.579 2.0349 132.962 1.12892L130.787 0.766531ZM138.579 7.91371C138.901 9.04115 139.223 10.4907 139.324 11.4772L140.934 11.0343C140.793 10.0881 140.451 8.63849 140.109 7.53118L138.579 7.91371ZM126.439 7.65198C126.72 8.79956 127.002 10.2894 127.083 11.296L128.714 10.8934C128.593 9.90686 128.291 8.43716 127.989 7.30972L126.439 7.65198ZM123.137 7.20906C123.137 6.84666 124.224 6.28294 124.224 6.28294V6.22254C125.13 5.11524 126.177 3.38381 126.861 1.77318L124.989 1.12892C124.546 2.67916 123.66 4.26965 123.378 4.67231C123.097 5.11524 122.815 5.3971 122.533 5.47763C122.734 5.94068 123.036 6.84666 123.137 7.20906ZM123.137 7.20906C123.459 7.04799 124.023 6.9272 126.58 6.6252C126.6 6.24268 126.66 5.57829 126.761 5.0951L123.902 5.31656L123.097 5.86015L123.137 7.20906ZM123.076 11.1752C123.076 10.833 124.043 10.2693 124.043 10.2693V10.2089C125.674 8.67876 127.385 6.50441 128.633 4.37032L126.922 3.42407C125.955 5.53803 124.264 7.77278 123.761 8.3365C123.258 8.90022 122.875 9.30288 122.452 9.38341C122.694 9.88673 122.996 10.7927 123.076 11.1752ZM123.076 11.1752C123.459 10.9739 124.103 10.8128 127.868 10.3095C127.868 9.94713 127.908 9.26261 127.989 8.79956L123.841 9.26261L123.016 9.8062L123.076 11.1752ZM135.116 7.32985C135.116 6.94733 136.223 6.36348 136.223 6.36348V6.32321C137.149 5.17564 138.236 3.38381 138.921 1.69264L136.988 1.12892C136.505 2.67916 135.619 4.30992 135.337 4.73271C135.055 5.1555 134.774 5.47763 134.492 5.53803C134.713 6.02122 135.015 6.9272 135.116 7.32985ZM135.116 7.32985C135.458 7.16879 136.062 7.00773 138.981 6.6856C139.002 6.28294 139.062 5.55816 139.163 5.05484L135.901 5.35683L135.055 5.90042L135.116 7.32985ZM135.257 11.296C135.257 10.9336 136.263 10.3699 136.263 10.3699V10.3095C137.934 8.81969 139.666 6.6252 140.954 4.53138L139.203 3.54487C138.196 5.65882 136.465 7.85331 135.941 8.41703C135.438 9.00088 135.055 9.36328 134.633 9.46394C134.854 9.96726 135.156 10.9135 135.257 11.296ZM135.257 11.296C135.659 11.1148 136.324 10.9739 140.169 10.5712C140.169 10.2089 140.25 9.50421 140.35 9.02102L136.082 9.38341L135.196 9.927L135.257 11.296ZM127.767 14.5978C126.559 15.7857 124.204 16.7923 121.929 17.2352C122.452 17.6983 123.177 18.6244 123.519 19.2284C125.935 18.564 128.331 17.0943 129.74 15.3427L127.767 14.5978ZM133.928 15.8863C135.72 16.8728 138.116 18.3828 139.243 19.3895L140.793 17.658C139.565 16.6715 137.109 15.2622 135.357 14.3764L133.928 15.8863Z"/>
<path d="M154.524 2.98115V14.2958H156.779V2.98115H154.524ZM158.188 0.947727V16.893C158.188 17.2151 158.047 17.3158 157.725 17.3359C157.383 17.3359 156.356 17.3359 155.289 17.2956C155.611 17.9802 155.933 19.0673 156.034 19.7116C157.665 19.7116 158.792 19.6311 159.517 19.2485C160.262 18.8459 160.503 18.1815 160.503 16.9131V0.947727H158.188ZM145.283 9.72567V11.1551H152.028V9.72567H145.283ZM146.471 17.3158V19.1076H152.148V17.3158H146.471ZM143.894 7.24932V9.58474C143.894 11.9403 143.733 15.5642 142.142 18.1613C142.746 18.3425 143.773 18.7653 144.236 19.0875C145.827 16.3494 146.129 12.3027 146.129 9.58474V7.24932H143.894ZM145.263 7.24932V8.92035H150.719V11.9604H145.223V13.6314H152.913V7.24932H145.263ZM145.545 14.2354V19.7317H147.558V15.8863H151.283V19.6512H153.397V14.2354H145.545ZM148.202 0.887329C146.894 2.79995 144.518 4.47098 142.183 5.4575C142.585 6.00108 143.209 7.22919 143.431 7.77278C146.068 6.42387 148.786 4.22939 150.417 1.75304L148.202 0.887329ZM147.498 3.26301C149.209 4.30992 151.705 5.86015 152.893 6.82653L154.141 4.77298C152.913 3.867 150.316 2.41743 148.665 1.47118L147.498 3.26301ZM146.551 5.17563V6.58494H150.699V5.17563H146.551Z"/>
<path d="M171.738 4.18912L170.61 6.48427H181.401V4.18912H171.738ZM174.395 8.61836V10.8128H180.878V8.61836H174.395ZM174.375 13.0677V15.3226H181.14V13.0677H174.375ZM173.167 4.95417V19.8122H175.643V4.95417H173.167ZM172.201 1.08866C171.275 4.00793 169.684 6.90706 167.912 8.71902C168.436 9.10155 169.362 9.96726 169.744 10.4102C171.597 8.31637 173.409 4.97431 174.536 1.71278L172.201 1.08866ZM166.886 0.987994C165.859 3.867 164.107 6.72587 162.255 8.55796C162.678 9.16195 163.362 10.531 163.584 11.135C165.798 8.83982 167.912 5.1555 169.221 1.73291L166.886 0.987994ZM164.852 6.54467V19.7921H167.288V4.12872L167.268 4.10859L164.852 6.54467Z"/>
<path d="M189.716 3.78647V6.00108H200.971V3.78647H189.716ZM190.079 8.41703V10.6115H198.675V8.41703H190.079ZM194.065 0.907462V9.60487H196.441V0.907462H194.065ZM192.696 10.1686L190.522 10.7927C192.354 15.3226 195.394 18.4231 200.226 19.8324C200.548 19.2083 201.232 18.2419 201.756 17.7587C197.206 16.6312 194.146 13.8932 192.696 10.1686ZM198.434 8.41703V8.79956C197.206 13.4905 193.421 16.4501 188.549 17.5976C189.012 18.101 189.595 19.1277 189.837 19.772C195.192 18.2016 199.239 14.9401 200.85 8.96062L199.3 8.3365L198.877 8.41703H198.434ZM182.509 11.135L183.133 13.4503C185.005 12.9671 187.401 12.3429 189.636 11.739L189.334 9.52434C186.878 10.1485 184.28 10.7726 182.509 11.135ZM182.77 4.73271V6.98759H189.455V4.73271H182.77ZM185.086 0.907462V17.1346C185.086 17.4164 184.985 17.5171 184.703 17.5171C184.441 17.5171 183.596 17.5171 182.811 17.497C183.093 18.1211 183.415 19.0875 183.475 19.7116C184.925 19.7116 185.891 19.631 186.576 19.2687C187.26 18.9063 187.461 18.3023 187.461 17.1547V0.907462H185.086Z"/>
<path d="M209.366 8.1553V17.5775C209.366 17.8191 209.285 17.8996 209.024 17.8996C208.782 17.8996 207.977 17.9198 207.272 17.8795C207.554 18.3828 207.896 19.1881 207.997 19.7518C209.225 19.7518 210.131 19.7116 210.795 19.4096C211.44 19.0875 211.641 18.5841 211.641 17.5775V8.1553H209.366ZM205.098 8.1553V10.1686H210.634V8.1553H205.098ZM213.111 10.3901V16.752C213.111 18.9868 213.715 19.6713 216.09 19.6713C216.574 19.6713 218.446 19.6713 218.969 19.6713C220.862 19.6713 221.506 18.9063 221.768 16.2286C221.124 16.1078 220.157 15.7253 219.654 15.3629C219.553 17.2352 219.412 17.5574 218.748 17.5574C218.285 17.5574 216.775 17.5574 216.433 17.5574C215.647 17.5574 215.507 17.4768 215.507 16.7319V10.3901H213.111ZM208.541 3.10195C209.366 4.61191 210.393 6.66547 210.816 7.91371L212.909 7.04799C212.426 5.84002 211.359 3.84686 210.514 2.3973L208.541 3.10195ZM214.621 3.34354V5.41723H220.479V3.34354H214.621ZM214.641 12.4033V14.5374H220.62V12.4033H214.641ZM203.749 7.51105C203.749 7.10839 205.078 6.38361 205.078 6.38361V6.36348C206.346 5.23603 207.876 3.38381 208.943 1.63225L206.507 0.907462C205.742 2.51809 204.514 4.08846 204.111 4.51125C203.709 4.95417 203.366 5.25617 203.004 5.3367C203.246 5.94068 203.628 7.04799 203.749 7.51105ZM203.749 7.51105C204.373 7.24932 205.299 7.10839 211.48 6.50441C211.339 6.02122 211.138 5.2159 211.037 4.61191L204.776 5.0951L203.668 5.77962L203.749 7.51105ZM203.97 8.1553V12.6852C203.97 14.4569 203.87 16.6715 202.783 18.262C203.246 18.564 204.152 19.4297 204.474 19.8928C205.923 17.9802 206.185 14.92 206.185 12.7255V8.1553H203.97ZM205.722 15.4837L206.427 17.5171C207.675 16.6916 209.084 15.7253 210.453 14.7589L209.99 13.3295C208.4 14.1549 206.809 15.0005 205.722 15.4837ZM205.964 11.8195C206.769 12.4637 207.856 13.3899 208.379 13.9536L209.668 12.7255C209.104 12.202 208.017 11.3363 207.212 10.7323L205.964 11.8195ZM213.111 0.967861V6.6856C213.111 8.96062 213.775 9.82633 216.191 9.82633C216.674 9.82633 218.728 9.82633 219.271 9.82633C220.036 9.82633 220.902 9.78607 221.305 9.66527C221.224 9.10155 221.144 8.2157 221.103 7.59158C220.661 7.71238 219.795 7.75265 219.231 7.75265C218.667 7.75265 216.755 7.75265 216.251 7.75265C215.627 7.75265 215.507 7.49092 215.507 6.746V0.967861H213.111Z"/>
</mask>
<path d="M4.27223 12.6248V14.7186H17.3183V12.6248H4.27223ZM5.25874 8.19557V10.3095H16.352V8.19557H5.25874ZM2.2992 17.1748V19.3291H19.4927V17.1748H2.2992ZM9.48665 9.14181V18.3828H12.0435V9.14181H9.48665ZM5.15807 1.53158V3.76633H11.9227V1.53158H5.15807ZM9.46651 1.53158V2.84022H10.0906C12.1039 5.57829 15.3654 8.43716 18.9088 10.0881C19.2511 9.42368 20.0363 8.3969 20.5195 7.89357C17.0969 6.6252 13.8354 4.08846 12.1039 1.53158H9.46651ZM9.84904 1.53158C8.05721 4.06833 4.39302 6.84667 1.19189 8.1553C1.73548 8.65863 2.3596 9.50421 2.68173 10.1082C5.88286 8.49756 9.60744 5.51789 11.6006 2.73956L9.84904 1.53158Z" fill="black"/>
<path d="M21.9489 4.14886V6.48427H40.0081V4.14886H21.9489ZM28.5928 8.94049V11.2759H36.3238V8.94049H28.5928ZM35.6997 8.94049V9.32301C35.3977 14.2556 34.995 16.5507 34.391 17.0943C34.1092 17.2956 33.8273 17.3359 33.4045 17.3359C32.8005 17.3359 31.3912 17.3158 29.9819 17.2151C30.4651 17.8594 30.8275 18.866 30.8678 19.5908C32.2167 19.6512 33.5455 19.6512 34.3306 19.5707C35.2769 19.4901 35.9211 19.2888 36.5251 18.6043C37.3707 17.7386 37.7734 15.4837 38.1357 9.96726C38.1961 9.66527 38.2163 8.94049 38.2163 8.94049H35.6997ZM27.0828 5.63869C26.8815 10.1485 26.7808 15.1615 21.6066 17.9198C22.2509 18.4029 22.9958 19.2485 23.3582 19.8928C29.0156 16.6715 29.5189 10.9135 29.7806 5.63869H27.0828ZM29.2571 1.53158C29.7605 2.49796 30.3846 3.8066 30.6262 4.61191L33.1025 3.54487C32.8005 2.75969 32.1965 1.55171 31.6328 0.645734L29.2571 1.53158Z" fill="black"/>
<path d="M48.323 4.28979V6.64534H59.5974V4.28979H48.323ZM49.5108 7.77278C50.0343 10.4907 50.5577 14.0341 50.6987 16.1279L53.0744 15.4434C52.873 13.41 52.2892 9.94713 51.6852 7.26945L49.5108 7.77278ZM56.2755 7.20906C55.9735 10.3095 55.2286 14.477 54.5038 17.0943L56.5976 17.5372C57.3627 14.9804 58.2284 10.994 58.8122 7.59158L56.2755 7.20906ZM47.5982 16.6916V19.0069H60.2819V16.6916H47.5982ZM52.1482 1.18932C52.5106 2.17583 52.9334 3.52474 53.0744 4.37032L55.4903 3.70593C55.2688 2.84022 54.846 1.59198 54.4635 0.605469L52.1482 1.18932ZM46.2292 0.987994C45.2024 3.867 43.4508 6.72587 41.6389 8.55796C42.0415 9.14181 42.7059 10.4706 42.9274 11.0544C45.1219 8.75929 47.2157 5.13537 48.5042 1.69264L46.2292 0.987994ZM44.1958 6.54467V19.7921H46.6318V4.12872V4.10859L44.1958 6.54467Z" fill="black"/>
<path d="M70.751 16.9735V19.1076H77.556V16.9735H70.751ZM69.5833 12.1215V19.7921H71.7778V14.2354H76.7909V19.7116H79.0861V12.1215H69.5833ZM68.778 3.12208V5.25617H79.9719V3.12208H68.778ZM68.013 8.65863V10.8128H80.6766V8.65863H68.013ZM76.5292 5.13537C76.2876 6.30308 75.7239 7.91371 75.2809 8.94049L77.2137 9.46394C77.6767 8.51769 78.2405 7.04799 78.7438 5.67896L76.5292 5.13537ZM70.0061 5.75949C70.4088 6.70573 70.7913 7.95397 70.8718 8.77942L72.9455 8.11504C72.8046 7.30972 72.4221 6.12188 71.959 5.19577L70.0061 5.75949ZM72.7845 1.14906C73.026 1.99464 73.2676 3.14221 73.3079 3.82673L75.6031 3.42407C75.5024 2.71942 75.2407 1.63225 74.9387 0.806798L72.7845 1.14906ZM61.8926 5.71922V7.99424H68.0532V5.71922H61.8926ZM63.926 1.18932V14.6784H66.1003V1.18932H63.926ZM61.6912 14.9804L62.4361 17.4366C64.2078 16.7118 66.4426 15.7857 68.5364 14.8797L68.0935 12.6449C65.7581 13.5308 63.2817 14.4569 61.6912 14.9804Z" fill="black"/>
<path d="M83.4952 2.69929V4.26965H99.2189V2.69929H83.4952ZM84.4414 4.93404V6.36348H98.2727V4.93404H84.4414ZM82.4482 7.04799V8.65863H100.286V7.04799H82.4482ZM87.1593 12.9872V14.0945H95.0313V12.9872H87.1593ZM90.0786 3.6858V8.3365H92.5751V3.6858H90.0786ZM86.052 1.59198C86.4547 2.2161 86.958 3.06168 87.1795 3.60527L89.4142 2.77982C89.1525 2.2765 88.6693 1.49132 88.2062 0.927595L86.052 1.59198ZM94.387 0.887329C94.1857 1.45105 93.7629 2.25637 93.4207 2.84022L95.4944 3.38381C95.9373 2.90062 96.4809 2.19597 97.0446 1.39065L94.387 0.887329ZM95.2729 7.32985L93.3603 7.99424C94.689 10.2894 96.9037 12.2624 99.4404 13.2288C99.7827 12.6449 100.467 11.7994 100.971 11.3363C98.5747 10.6115 96.3802 9.08142 95.2729 7.32985ZM87.4613 11.0746V12.3631H94.4877V14.7186H87.4613V16.0071H96.9238V11.0746H87.4613ZM87.1795 7.39025C86.1124 9.28274 83.9985 10.8531 81.7033 11.7792C82.1865 12.1819 82.9918 13.0677 83.3341 13.5107C85.7299 12.3429 88.0855 10.4102 89.4142 8.0345L87.1795 7.39025ZM88.4478 9.26261V10.4303H94.3065V9.26261H88.4478ZM85.3474 19.9129C85.7903 19.631 86.5151 19.4297 91.0853 18.4633C91.0047 18.0406 90.9443 17.2554 90.9443 16.6916L86.0722 17.5775L85.2668 18.262L85.3474 19.9129ZM85.3474 19.9129C85.3474 19.0875 87.8841 17.6782 87.8841 17.6782V11.0746H85.2467V16.3091C85.2467 17.2352 84.7837 17.7184 84.3407 17.9802C84.7233 18.3828 85.1863 19.3492 85.3474 19.9129ZM98.3734 15.0206C97.3667 15.7655 95.6554 16.752 94.387 17.3359L95.4541 18.3224C96.7829 17.8392 98.4942 17.0339 99.9236 16.2487L98.3734 15.0206ZM90.7631 17.2956C93.3603 18.0204 97.0446 19.2083 98.8767 19.9532L99.8833 18.3224C97.9506 17.5976 94.2461 16.5105 91.7295 15.8863L90.7631 17.2956Z" fill="black"/>
<path d="M103.568 2.53823V4.67231H119.634V2.53823H103.568ZM102.44 7.14866V9.30288H120.56V7.14866H102.44ZM106.507 13.8932V15.7051H116.553V13.8932H106.507ZM106.507 17.1547V19.1479H116.553V17.1547H106.507ZM104.937 10.5511V19.8324H107.353V12.5443H115.748V19.8122H118.285V10.5511H104.937ZM114.6 4.49112C114.379 5.35683 113.936 6.5648 113.554 7.37012L115.869 7.91371C116.292 7.18892 116.775 6.14201 117.298 5.05484L114.6 4.49112ZM106.044 5.05484C106.487 5.88029 106.89 7.04799 106.99 7.79291L109.507 7.22919C109.366 6.48427 108.943 5.3971 108.42 4.59178L106.044 5.05484ZM109.748 1.06853C110.151 1.83357 110.534 2.90062 110.634 3.58514L113.252 3.08181C113.111 2.3973 112.728 1.41078 112.245 0.686001L109.748 1.06853Z" fill="black"/>
<path d="M122.493 12.0208V14.014H140.753V12.0208H122.493ZM130.485 11.0544V19.7518H132.921V11.0544H130.485ZM130.868 7.43052H132.358V8.81969H130.868V7.43052ZM130.868 4.41059H132.358V5.77962H130.868V4.41059ZM128.814 2.65902V10.5914H134.492V2.65902H128.814ZM130.787 0.766531C130.727 1.47118 130.505 2.49796 130.304 3.22274L131.895 3.60527C132.197 2.98115 132.579 2.0349 132.962 1.12892L130.787 0.766531ZM138.579 7.91371C138.901 9.04115 139.223 10.4907 139.324 11.4772L140.934 11.0343C140.793 10.0881 140.451 8.63849 140.109 7.53118L138.579 7.91371ZM126.439 7.65198C126.72 8.79956 127.002 10.2894 127.083 11.296L128.714 10.8934C128.593 9.90686 128.291 8.43716 127.989 7.30972L126.439 7.65198ZM123.137 7.20906C123.137 6.84666 124.224 6.28294 124.224 6.28294V6.22254C125.13 5.11524 126.177 3.38381 126.861 1.77318L124.989 1.12892C124.546 2.67916 123.66 4.26965 123.378 4.67231C123.097 5.11524 122.815 5.3971 122.533 5.47763C122.734 5.94068 123.036 6.84666 123.137 7.20906ZM123.137 7.20906C123.459 7.04799 124.023 6.9272 126.58 6.6252C126.6 6.24268 126.66 5.57829 126.761 5.0951L123.902 5.31656L123.097 5.86015L123.137 7.20906ZM123.076 11.1752C123.076 10.833 124.043 10.2693 124.043 10.2693V10.2089C125.674 8.67876 127.385 6.50441 128.633 4.37032L126.922 3.42407C125.955 5.53803 124.264 7.77278 123.761 8.3365C123.258 8.90022 122.875 9.30288 122.452 9.38341C122.694 9.88673 122.996 10.7927 123.076 11.1752ZM123.076 11.1752C123.459 10.9739 124.103 10.8128 127.868 10.3095C127.868 9.94713 127.908 9.26261 127.989 8.79956L123.841 9.26261L123.016 9.8062L123.076 11.1752ZM135.116 7.32985C135.116 6.94733 136.223 6.36348 136.223 6.36348V6.32321C137.149 5.17564 138.236 3.38381 138.921 1.69264L136.988 1.12892C136.505 2.67916 135.619 4.30992 135.337 4.73271C135.055 5.1555 134.774 5.47763 134.492 5.53803C134.713 6.02122 135.015 6.9272 135.116 7.32985ZM135.116 7.32985C135.458 7.16879 136.062 7.00773 138.981 6.6856C139.002 6.28294 139.062 5.55816 139.163 5.05484L135.901 5.35683L135.055 5.90042L135.116 7.32985ZM135.257 11.296C135.257 10.9336 136.263 10.3699 136.263 10.3699V10.3095C137.934 8.81969 139.666 6.6252 140.954 4.53138L139.203 3.54487C138.196 5.65882 136.465 7.85331 135.941 8.41703C135.438 9.00088 135.055 9.36328 134.633 9.46394C134.854 9.96726 135.156 10.9135 135.257 11.296ZM135.257 11.296C135.659 11.1148 136.324 10.9739 140.169 10.5712C140.169 10.2089 140.25 9.50421 140.35 9.02102L136.082 9.38341L135.196 9.927L135.257 11.296ZM127.767 14.5978C126.559 15.7857 124.204 16.7923 121.929 17.2352C122.452 17.6983 123.177 18.6244 123.519 19.2284C125.935 18.564 128.331 17.0943 129.74 15.3427L127.767 14.5978ZM133.928 15.8863C135.72 16.8728 138.116 18.3828 139.243 19.3895L140.793 17.658C139.565 16.6715 137.109 15.2622 135.357 14.3764L133.928 15.8863Z" fill="black"/>
<path d="M154.524 2.98115V14.2958H156.779V2.98115H154.524ZM158.188 0.947727V16.893C158.188 17.2151 158.047 17.3158 157.725 17.3359C157.383 17.3359 156.356 17.3359 155.289 17.2956C155.611 17.9802 155.933 19.0673 156.034 19.7116C157.665 19.7116 158.792 19.6311 159.517 19.2485C160.262 18.8459 160.503 18.1815 160.503 16.9131V0.947727H158.188ZM145.283 9.72567V11.1551H152.028V9.72567H145.283ZM146.471 17.3158V19.1076H152.148V17.3158H146.471ZM143.894 7.24932V9.58474C143.894 11.9403 143.733 15.5642 142.142 18.1613C142.746 18.3425 143.773 18.7653 144.236 19.0875C145.827 16.3494 146.129 12.3027 146.129 9.58474V7.24932H143.894ZM145.263 7.24932V8.92035H150.719V11.9604H145.223V13.6314H152.913V7.24932H145.263ZM145.545 14.2354V19.7317H147.558V15.8863H151.283V19.6512H153.397V14.2354H145.545ZM148.202 0.887329C146.894 2.79995 144.518 4.47098 142.183 5.4575C142.585 6.00108 143.209 7.22919 143.431 7.77278C146.068 6.42387 148.786 4.22939 150.417 1.75304L148.202 0.887329ZM147.498 3.26301C149.209 4.30992 151.705 5.86015 152.893 6.82653L154.141 4.77298C152.913 3.867 150.316 2.41743 148.665 1.47118L147.498 3.26301ZM146.551 5.17563V6.58494H150.699V5.17563H146.551Z" fill="black"/>
<path d="M171.738 4.18912L170.61 6.48427H181.401V4.18912H171.738ZM174.395 8.61836V10.8128H180.878V8.61836H174.395ZM174.375 13.0677V15.3226H181.14V13.0677H174.375ZM173.167 4.95417V19.8122H175.643V4.95417H173.167ZM172.201 1.08866C171.275 4.00793 169.684 6.90706 167.912 8.71902C168.436 9.10155 169.362 9.96726 169.744 10.4102C171.597 8.31637 173.409 4.97431 174.536 1.71278L172.201 1.08866ZM166.886 0.987994C165.859 3.867 164.107 6.72587 162.255 8.55796C162.678 9.16195 163.362 10.531 163.584 11.135C165.798 8.83982 167.912 5.1555 169.221 1.73291L166.886 0.987994ZM164.852 6.54467V19.7921H167.288V4.12872L167.268 4.10859L164.852 6.54467Z" fill="black"/>
<path d="M189.716 3.78647V6.00108H200.971V3.78647H189.716ZM190.079 8.41703V10.6115H198.675V8.41703H190.079ZM194.065 0.907462V9.60487H196.441V0.907462H194.065ZM192.696 10.1686L190.522 10.7927C192.354 15.3226 195.394 18.4231 200.226 19.8324C200.548 19.2083 201.232 18.2419 201.756 17.7587C197.206 16.6312 194.146 13.8932 192.696 10.1686ZM198.434 8.41703V8.79956C197.206 13.4905 193.421 16.4501 188.549 17.5976C189.012 18.101 189.595 19.1277 189.837 19.772C195.192 18.2016 199.239 14.9401 200.85 8.96062L199.3 8.3365L198.877 8.41703H198.434ZM182.509 11.135L183.133 13.4503C185.005 12.9671 187.401 12.3429 189.636 11.739L189.334 9.52434C186.878 10.1485 184.28 10.7726 182.509 11.135ZM182.77 4.73271V6.98759H189.455V4.73271H182.77ZM185.086 0.907462V17.1346C185.086 17.4164 184.985 17.5171 184.703 17.5171C184.441 17.5171 183.596 17.5171 182.811 17.497C183.093 18.1211 183.415 19.0875 183.475 19.7116C184.925 19.7116 185.891 19.631 186.576 19.2687C187.26 18.9063 187.461 18.3023 187.461 17.1547V0.907462H185.086Z" fill="black"/>
<path d="M209.366 8.1553V17.5775C209.366 17.8191 209.285 17.8996 209.024 17.8996C208.782 17.8996 207.977 17.9198 207.272 17.8795C207.554 18.3828 207.896 19.1881 207.997 19.7518C209.225 19.7518 210.131 19.7116 210.795 19.4096C211.44 19.0875 211.641 18.5841 211.641 17.5775V8.1553H209.366ZM205.098 8.1553V10.1686H210.634V8.1553H205.098ZM213.111 10.3901V16.752C213.111 18.9868 213.715 19.6713 216.09 19.6713C216.574 19.6713 218.446 19.6713 218.969 19.6713C220.862 19.6713 221.506 18.9063 221.768 16.2286C221.124 16.1078 220.157 15.7253 219.654 15.3629C219.553 17.2352 219.412 17.5574 218.748 17.5574C218.285 17.5574 216.775 17.5574 216.433 17.5574C215.647 17.5574 215.507 17.4768 215.507 16.7319V10.3901H213.111ZM208.541 3.10195C209.366 4.61191 210.393 6.66547 210.816 7.91371L212.909 7.04799C212.426 5.84002 211.359 3.84686 210.514 2.3973L208.541 3.10195ZM214.621 3.34354V5.41723H220.479V3.34354H214.621ZM214.641 12.4033V14.5374H220.62V12.4033H214.641ZM203.749 7.51105C203.749 7.10839 205.078 6.38361 205.078 6.38361V6.36348C206.346 5.23603 207.876 3.38381 208.943 1.63225L206.507 0.907462C205.742 2.51809 204.514 4.08846 204.111 4.51125C203.709 4.95417 203.366 5.25617 203.004 5.3367C203.246 5.94068 203.628 7.04799 203.749 7.51105ZM203.749 7.51105C204.373 7.24932 205.299 7.10839 211.48 6.50441C211.339 6.02122 211.138 5.2159 211.037 4.61191L204.776 5.0951L203.668 5.77962L203.749 7.51105ZM203.97 8.1553V12.6852C203.97 14.4569 203.87 16.6715 202.783 18.262C203.246 18.564 204.152 19.4297 204.474 19.8928C205.923 17.9802 206.185 14.92 206.185 12.7255V8.1553H203.97ZM205.722 15.4837L206.427 17.5171C207.675 16.6916 209.084 15.7253 210.453 14.7589L209.99 13.3295C208.4 14.1549 206.809 15.0005 205.722 15.4837ZM205.964 11.8195C206.769 12.4637 207.856 13.3899 208.379 13.9536L209.668 12.7255C209.104 12.202 208.017 11.3363 207.212 10.7323L205.964 11.8195ZM213.111 0.967861V6.6856C213.111 8.96062 213.775 9.82633 216.191 9.82633C216.674 9.82633 218.728 9.82633 219.271 9.82633C220.036 9.82633 220.902 9.78607 221.305 9.66527C221.224 9.10155 221.144 8.2157 221.103 7.59158C220.661 7.71238 219.795 7.75265 219.231 7.75265C218.667 7.75265 216.755 7.75265 216.251 7.75265C215.627 7.75265 215.507 7.49092 215.507 6.746V0.967861H213.111Z" fill="black"/>
<path d="M4.27223 12.6248V14.7186H17.3183V12.6248H4.27223ZM5.25874 8.19557V10.3095H16.352V8.19557H5.25874ZM2.2992 17.1748V19.3291H19.4927V17.1748H2.2992ZM9.48665 9.14181V18.3828H12.0435V9.14181H9.48665ZM5.15807 1.53158V3.76633H11.9227V1.53158H5.15807ZM9.46651 1.53158V2.84022H10.0906C12.1039 5.57829 15.3654 8.43716 18.9088 10.0881C19.2511 9.42368 20.0363 8.3969 20.5195 7.89357C17.0969 6.6252 13.8354 4.08846 12.1039 1.53158H9.46651ZM9.84904 1.53158C8.05721 4.06833 4.39302 6.84667 1.19189 8.1553C1.73548 8.65863 2.3596 9.50421 2.68173 10.1082C5.88286 8.49756 9.60744 5.51789 11.6006 2.73956L9.84904 1.53158Z" stroke="url(#paint0_linear_802_882)" mask="url(#path-1-outside-1_802_882)"/>
<path d="M21.9489 4.14886V6.48427H40.0081V4.14886H21.9489ZM28.5928 8.94049V11.2759H36.3238V8.94049H28.5928ZM35.6997 8.94049V9.32301C35.3977 14.2556 34.995 16.5507 34.391 17.0943C34.1092 17.2956 33.8273 17.3359 33.4045 17.3359C32.8005 17.3359 31.3912 17.3158 29.9819 17.2151C30.4651 17.8594 30.8275 18.866 30.8678 19.5908C32.2167 19.6512 33.5455 19.6512 34.3306 19.5707C35.2769 19.4901 35.9211 19.2888 36.5251 18.6043C37.3707 17.7386 37.7734 15.4837 38.1357 9.96726C38.1961 9.66527 38.2163 8.94049 38.2163 8.94049H35.6997ZM27.0828 5.63869C26.8815 10.1485 26.7808 15.1615 21.6066 17.9198C22.2509 18.4029 22.9958 19.2485 23.3582 19.8928C29.0156 16.6715 29.5189 10.9135 29.7806 5.63869H27.0828ZM29.2571 1.53158C29.7605 2.49796 30.3846 3.8066 30.6262 4.61191L33.1025 3.54487C32.8005 2.75969 32.1965 1.55171 31.6328 0.645734L29.2571 1.53158Z" stroke="url(#paint1_linear_802_882)" mask="url(#path-1-outside-1_802_882)"/>
<path d="M48.323 4.28979V6.64534H59.5974V4.28979H48.323ZM49.5108 7.77278C50.0343 10.4907 50.5577 14.0341 50.6987 16.1279L53.0744 15.4434C52.873 13.41 52.2892 9.94713 51.6852 7.26945L49.5108 7.77278ZM56.2755 7.20906C55.9735 10.3095 55.2286 14.477 54.5038 17.0943L56.5976 17.5372C57.3627 14.9804 58.2284 10.994 58.8122 7.59158L56.2755 7.20906ZM47.5982 16.6916V19.0069H60.2819V16.6916H47.5982ZM52.1482 1.18932C52.5106 2.17583 52.9334 3.52474 53.0744 4.37032L55.4903 3.70593C55.2688 2.84022 54.846 1.59198 54.4635 0.605469L52.1482 1.18932ZM46.2292 0.987994C45.2024 3.867 43.4508 6.72587 41.6389 8.55796C42.0415 9.14181 42.7059 10.4706 42.9274 11.0544C45.1219 8.75929 47.2157 5.13537 48.5042 1.69264L46.2292 0.987994ZM44.1958 6.54467V19.7921H46.6318V4.12872V4.10859L44.1958 6.54467Z" stroke="url(#paint2_linear_802_882)" mask="url(#path-1-outside-1_802_882)"/>
<path d="M70.751 16.9735V19.1076H77.556V16.9735H70.751ZM69.5833 12.1215V19.7921H71.7778V14.2354H76.7909V19.7116H79.0861V12.1215H69.5833ZM68.778 3.12208V5.25617H79.9719V3.12208H68.778ZM68.013 8.65863V10.8128H80.6766V8.65863H68.013ZM76.5292 5.13537C76.2876 6.30308 75.7239 7.91371 75.2809 8.94049L77.2137 9.46394C77.6767 8.51769 78.2405 7.04799 78.7438 5.67896L76.5292 5.13537ZM70.0061 5.75949C70.4088 6.70573 70.7913 7.95397 70.8718 8.77942L72.9455 8.11504C72.8046 7.30972 72.4221 6.12188 71.959 5.19577L70.0061 5.75949ZM72.7845 1.14906C73.026 1.99464 73.2676 3.14221 73.3079 3.82673L75.6031 3.42407C75.5024 2.71942 75.2407 1.63225 74.9387 0.806798L72.7845 1.14906ZM61.8926 5.71922V7.99424H68.0532V5.71922H61.8926ZM63.926 1.18932V14.6784H66.1003V1.18932H63.926ZM61.6912 14.9804L62.4361 17.4366C64.2078 16.7118 66.4426 15.7857 68.5364 14.8797L68.0935 12.6449C65.7581 13.5308 63.2817 14.4569 61.6912 14.9804Z" stroke="url(#paint3_linear_802_882)" mask="url(#path-1-outside-1_802_882)"/>
<path d="M83.4952 2.69929V4.26965H99.2189V2.69929H83.4952ZM84.4414 4.93404V6.36348H98.2727V4.93404H84.4414ZM82.4482 7.04799V8.65863H100.286V7.04799H82.4482ZM87.1593 12.9872V14.0945H95.0313V12.9872H87.1593ZM90.0786 3.6858V8.3365H92.5751V3.6858H90.0786ZM86.052 1.59198C86.4547 2.2161 86.958 3.06168 87.1795 3.60527L89.4142 2.77982C89.1525 2.2765 88.6693 1.49132 88.2062 0.927595L86.052 1.59198ZM94.387 0.887329C94.1857 1.45105 93.7629 2.25637 93.4207 2.84022L95.4944 3.38381C95.9373 2.90062 96.4809 2.19597 97.0446 1.39065L94.387 0.887329ZM95.2729 7.32985L93.3603 7.99424C94.689 10.2894 96.9037 12.2624 99.4404 13.2288C99.7827 12.6449 100.467 11.7994 100.971 11.3363C98.5747 10.6115 96.3802 9.08142 95.2729 7.32985ZM87.4613 11.0746V12.3631H94.4877V14.7186H87.4613V16.0071H96.9238V11.0746H87.4613ZM87.1795 7.39025C86.1124 9.28274 83.9985 10.8531 81.7033 11.7792C82.1865 12.1819 82.9918 13.0677 83.3341 13.5107C85.7299 12.3429 88.0855 10.4102 89.4142 8.0345L87.1795 7.39025ZM88.4478 9.26261V10.4303H94.3065V9.26261H88.4478ZM85.3474 19.9129C85.7903 19.631 86.5151 19.4297 91.0853 18.4633C91.0047 18.0406 90.9443 17.2554 90.9443 16.6916L86.0722 17.5775L85.2668 18.262L85.3474 19.9129ZM85.3474 19.9129C85.3474 19.0875 87.8841 17.6782 87.8841 17.6782V11.0746H85.2467V16.3091C85.2467 17.2352 84.7837 17.7184 84.3407 17.9802C84.7233 18.3828 85.1863 19.3492 85.3474 19.9129ZM98.3734 15.0206C97.3667 15.7655 95.6554 16.752 94.387 17.3359L95.4541 18.3224C96.7829 17.8392 98.4942 17.0339 99.9236 16.2487L98.3734 15.0206ZM90.7631 17.2956C93.3603 18.0204 97.0446 19.2083 98.8767 19.9532L99.8833 18.3224C97.9506 17.5976 94.2461 16.5105 91.7295 15.8863L90.7631 17.2956Z" stroke="url(#paint4_linear_802_882)" mask="url(#path-1-outside-1_802_882)"/>
<path d="M103.568 2.53823V4.67231H119.634V2.53823H103.568ZM102.44 7.14866V9.30288H120.56V7.14866H102.44ZM106.507 13.8932V15.7051H116.553V13.8932H106.507ZM106.507 17.1547V19.1479H116.553V17.1547H106.507ZM104.937 10.5511V19.8324H107.353V12.5443H115.748V19.8122H118.285V10.5511H104.937ZM114.6 4.49112C114.379 5.35683 113.936 6.5648 113.554 7.37012L115.869 7.91371C116.292 7.18892 116.775 6.14201 117.298 5.05484L114.6 4.49112ZM106.044 5.05484C106.487 5.88029 106.89 7.04799 106.99 7.79291L109.507 7.22919C109.366 6.48427 108.943 5.3971 108.42 4.59178L106.044 5.05484ZM109.748 1.06853C110.151 1.83357 110.534 2.90062 110.634 3.58514L113.252 3.08181C113.111 2.3973 112.728 1.41078 112.245 0.686001L109.748 1.06853Z" stroke="url(#paint5_linear_802_882)" mask="url(#path-1-outside-1_802_882)"/>
<path d="M122.493 12.0208V14.014H140.753V12.0208H122.493ZM130.485 11.0544V19.7518H132.921V11.0544H130.485ZM130.868 7.43052H132.358V8.81969H130.868V7.43052ZM130.868 4.41059H132.358V5.77962H130.868V4.41059ZM128.814 2.65902V10.5914H134.492V2.65902H128.814ZM130.787 0.766531C130.727 1.47118 130.505 2.49796 130.304 3.22274L131.895 3.60527C132.197 2.98115 132.579 2.0349 132.962 1.12892L130.787 0.766531ZM138.579 7.91371C138.901 9.04115 139.223 10.4907 139.324 11.4772L140.934 11.0343C140.793 10.0881 140.451 8.63849 140.109 7.53118L138.579 7.91371ZM126.439 7.65198C126.72 8.79956 127.002 10.2894 127.083 11.296L128.714 10.8934C128.593 9.90686 128.291 8.43716 127.989 7.30972L126.439 7.65198ZM123.137 7.20906C123.137 6.84666 124.224 6.28294 124.224 6.28294V6.22254C125.13 5.11524 126.177 3.38381 126.861 1.77318L124.989 1.12892C124.546 2.67916 123.66 4.26965 123.378 4.67231C123.097 5.11524 122.815 5.3971 122.533 5.47763C122.734 5.94068 123.036 6.84666 123.137 7.20906ZM123.137 7.20906C123.459 7.04799 124.023 6.9272 126.58 6.6252C126.6 6.24268 126.66 5.57829 126.761 5.0951L123.902 5.31656L123.097 5.86015L123.137 7.20906ZM123.076 11.1752C123.076 10.833 124.043 10.2693 124.043 10.2693V10.2089C125.674 8.67876 127.385 6.50441 128.633 4.37032L126.922 3.42407C125.955 5.53803 124.264 7.77278 123.761 8.3365C123.258 8.90022 122.875 9.30288 122.452 9.38341C122.694 9.88673 122.996 10.7927 123.076 11.1752ZM123.076 11.1752C123.459 10.9739 124.103 10.8128 127.868 10.3095C127.868 9.94713 127.908 9.26261 127.989 8.79956L123.841 9.26261L123.016 9.8062L123.076 11.1752ZM135.116 7.32985C135.116 6.94733 136.223 6.36348 136.223 6.36348V6.32321C137.149 5.17564 138.236 3.38381 138.921 1.69264L136.988 1.12892C136.505 2.67916 135.619 4.30992 135.337 4.73271C135.055 5.1555 134.774 5.47763 134.492 5.53803C134.713 6.02122 135.015 6.9272 135.116 7.32985ZM135.116 7.32985C135.458 7.16879 136.062 7.00773 138.981 6.6856C139.002 6.28294 139.062 5.55816 139.163 5.05484L135.901 5.35683L135.055 5.90042L135.116 7.32985ZM135.257 11.296C135.257 10.9336 136.263 10.3699 136.263 10.3699V10.3095C137.934 8.81969 139.666 6.6252 140.954 4.53138L139.203 3.54487C138.196 5.65882 136.465 7.85331 135.941 8.41703C135.438 9.00088 135.055 9.36328 134.633 9.46394C134.854 9.96726 135.156 10.9135 135.257 11.296ZM135.257 11.296C135.659 11.1148 136.324 10.9739 140.169 10.5712C140.169 10.2089 140.25 9.50421 140.35 9.02102L136.082 9.38341L135.196 9.927L135.257 11.296ZM127.767 14.5978C126.559 15.7857 124.204 16.7923 121.929 17.2352C122.452 17.6983 123.177 18.6244 123.519 19.2284C125.935 18.564 128.331 17.0943 129.74 15.3427L127.767 14.5978ZM133.928 15.8863C135.72 16.8728 138.116 18.3828 139.243 19.3895L140.793 17.658C139.565 16.6715 137.109 15.2622 135.357 14.3764L133.928 15.8863Z" stroke="url(#paint6_linear_802_882)" mask="url(#path-1-outside-1_802_882)"/>
<path d="M154.524 2.98115V14.2958H156.779V2.98115H154.524ZM158.188 0.947727V16.893C158.188 17.2151 158.047 17.3158 157.725 17.3359C157.383 17.3359 156.356 17.3359 155.289 17.2956C155.611 17.9802 155.933 19.0673 156.034 19.7116C157.665 19.7116 158.792 19.6311 159.517 19.2485C160.262 18.8459 160.503 18.1815 160.503 16.9131V0.947727H158.188ZM145.283 9.72567V11.1551H152.028V9.72567H145.283ZM146.471 17.3158V19.1076H152.148V17.3158H146.471ZM143.894 7.24932V9.58474C143.894 11.9403 143.733 15.5642 142.142 18.1613C142.746 18.3425 143.773 18.7653 144.236 19.0875C145.827 16.3494 146.129 12.3027 146.129 9.58474V7.24932H143.894ZM145.263 7.24932V8.92035H150.719V11.9604H145.223V13.6314H152.913V7.24932H145.263ZM145.545 14.2354V19.7317H147.558V15.8863H151.283V19.6512H153.397V14.2354H145.545ZM148.202 0.887329C146.894 2.79995 144.518 4.47098 142.183 5.4575C142.585 6.00108 143.209 7.22919 143.431 7.77278C146.068 6.42387 148.786 4.22939 150.417 1.75304L148.202 0.887329ZM147.498 3.26301C149.209 4.30992 151.705 5.86015 152.893 6.82653L154.141 4.77298C152.913 3.867 150.316 2.41743 148.665 1.47118L147.498 3.26301ZM146.551 5.17563V6.58494H150.699V5.17563H146.551Z" stroke="url(#paint7_linear_802_882)" mask="url(#path-1-outside-1_802_882)"/>
<path d="M171.738 4.18912L170.61 6.48427H181.401V4.18912H171.738ZM174.395 8.61836V10.8128H180.878V8.61836H174.395ZM174.375 13.0677V15.3226H181.14V13.0677H174.375ZM173.167 4.95417V19.8122H175.643V4.95417H173.167ZM172.201 1.08866C171.275 4.00793 169.684 6.90706 167.912 8.71902C168.436 9.10155 169.362 9.96726 169.744 10.4102C171.597 8.31637 173.409 4.97431 174.536 1.71278L172.201 1.08866ZM166.886 0.987994C165.859 3.867 164.107 6.72587 162.255 8.55796C162.678 9.16195 163.362 10.531 163.584 11.135C165.798 8.83982 167.912 5.1555 169.221 1.73291L166.886 0.987994ZM164.852 6.54467V19.7921H167.288V4.12872L167.268 4.10859L164.852 6.54467Z" stroke="url(#paint8_linear_802_882)" mask="url(#path-1-outside-1_802_882)"/>
<path d="M189.716 3.78647V6.00108H200.971V3.78647H189.716ZM190.079 8.41703V10.6115H198.675V8.41703H190.079ZM194.065 0.907462V9.60487H196.441V0.907462H194.065ZM192.696 10.1686L190.522 10.7927C192.354 15.3226 195.394 18.4231 200.226 19.8324C200.548 19.2083 201.232 18.2419 201.756 17.7587C197.206 16.6312 194.146 13.8932 192.696 10.1686ZM198.434 8.41703V8.79956C197.206 13.4905 193.421 16.4501 188.549 17.5976C189.012 18.101 189.595 19.1277 189.837 19.772C195.192 18.2016 199.239 14.9401 200.85 8.96062L199.3 8.3365L198.877 8.41703H198.434ZM182.509 11.135L183.133 13.4503C185.005 12.9671 187.401 12.3429 189.636 11.739L189.334 9.52434C186.878 10.1485 184.28 10.7726 182.509 11.135ZM182.77 4.73271V6.98759H189.455V4.73271H182.77ZM185.086 0.907462V17.1346C185.086 17.4164 184.985 17.5171 184.703 17.5171C184.441 17.5171 183.596 17.5171 182.811 17.497C183.093 18.1211 183.415 19.0875 183.475 19.7116C184.925 19.7116 185.891 19.631 186.576 19.2687C187.26 18.9063 187.461 18.3023 187.461 17.1547V0.907462H185.086Z" stroke="url(#paint9_linear_802_882)" mask="url(#path-1-outside-1_802_882)"/>
<path d="M209.366 8.1553V17.5775C209.366 17.8191 209.285 17.8996 209.024 17.8996C208.782 17.8996 207.977 17.9198 207.272 17.8795C207.554 18.3828 207.896 19.1881 207.997 19.7518C209.225 19.7518 210.131 19.7116 210.795 19.4096C211.44 19.0875 211.641 18.5841 211.641 17.5775V8.1553H209.366ZM205.098 8.1553V10.1686H210.634V8.1553H205.098ZM213.111 10.3901V16.752C213.111 18.9868 213.715 19.6713 216.09 19.6713C216.574 19.6713 218.446 19.6713 218.969 19.6713C220.862 19.6713 221.506 18.9063 221.768 16.2286C221.124 16.1078 220.157 15.7253 219.654 15.3629C219.553 17.2352 219.412 17.5574 218.748 17.5574C218.285 17.5574 216.775 17.5574 216.433 17.5574C215.647 17.5574 215.507 17.4768 215.507 16.7319V10.3901H213.111ZM208.541 3.10195C209.366 4.61191 210.393 6.66547 210.816 7.91371L212.909 7.04799C212.426 5.84002 211.359 3.84686 210.514 2.3973L208.541 3.10195ZM214.621 3.34354V5.41723H220.479V3.34354H214.621ZM214.641 12.4033V14.5374H220.62V12.4033H214.641ZM203.749 7.51105C203.749 7.10839 205.078 6.38361 205.078 6.38361V6.36348C206.346 5.23603 207.876 3.38381 208.943 1.63225L206.507 0.907462C205.742 2.51809 204.514 4.08846 204.111 4.51125C203.709 4.95417 203.366 5.25617 203.004 5.3367C203.246 5.94068 203.628 7.04799 203.749 7.51105ZM203.749 7.51105C204.373 7.24932 205.299 7.10839 211.48 6.50441C211.339 6.02122 211.138 5.2159 211.037 4.61191L204.776 5.0951L203.668 5.77962L203.749 7.51105ZM203.97 8.1553V12.6852C203.97 14.4569 203.87 16.6715 202.783 18.262C203.246 18.564 204.152 19.4297 204.474 19.8928C205.923 17.9802 206.185 14.92 206.185 12.7255V8.1553H203.97ZM205.722 15.4837L206.427 17.5171C207.675 16.6916 209.084 15.7253 210.453 14.7589L209.99 13.3295C208.4 14.1549 206.809 15.0005 205.722 15.4837ZM205.964 11.8195C206.769 12.4637 207.856 13.3899 208.379 13.9536L209.668 12.7255C209.104 12.202 208.017 11.3363 207.212 10.7323L205.964 11.8195ZM213.111 0.967861V6.6856C213.111 8.96062 213.775 9.82633 216.191 9.82633C216.674 9.82633 218.728 9.82633 219.271 9.82633C220.036 9.82633 220.902 9.78607 221.305 9.66527C221.224 9.10155 221.144 8.2157 221.103 7.59158C220.661 7.71238 219.795 7.75265 219.231 7.75265C218.667 7.75265 216.755 7.75265 216.251 7.75265C215.627 7.75265 215.507 7.49092 215.507 6.746V0.967861H213.111Z" stroke="url(#paint10_linear_802_882)" mask="url(#path-1-outside-1_802_882)"/>
<defs>
<linearGradient id="paint0_linear_802_882" x1="36.4503" y1="3.16791" x2="38.5897" y2="29.4128" gradientUnits="userSpaceOnUse">
<stop stop-color="#FFF176"/>
<stop offset="1" stop-color="#00E0B8"/>
</linearGradient>
<linearGradient id="paint1_linear_802_882" x1="36.4503" y1="3.16791" x2="38.5897" y2="29.4128" gradientUnits="userSpaceOnUse">
<stop stop-color="#FFF176"/>
<stop offset="1" stop-color="#00E0B8"/>
</linearGradient>
<linearGradient id="paint2_linear_802_882" x1="36.4503" y1="3.16791" x2="38.5897" y2="29.4128" gradientUnits="userSpaceOnUse">
<stop stop-color="#FFF176"/>
<stop offset="1" stop-color="#00E0B8"/>
</linearGradient>
<linearGradient id="paint3_linear_802_882" x1="36.4503" y1="3.16791" x2="38.5897" y2="29.4128" gradientUnits="userSpaceOnUse">
<stop stop-color="#FFF176"/>
<stop offset="1" stop-color="#00E0B8"/>
</linearGradient>
<linearGradient id="paint4_linear_802_882" x1="36.4503" y1="3.16791" x2="38.5897" y2="29.4128" gradientUnits="userSpaceOnUse">
<stop stop-color="#FFF176"/>
<stop offset="1" stop-color="#00E0B8"/>
</linearGradient>
<linearGradient id="paint5_linear_802_882" x1="36.4503" y1="3.16791" x2="38.5897" y2="29.4128" gradientUnits="userSpaceOnUse">
<stop stop-color="#FFF176"/>
<stop offset="1" stop-color="#00E0B8"/>
</linearGradient>
<linearGradient id="paint6_linear_802_882" x1="36.4503" y1="3.16791" x2="38.5897" y2="29.4128" gradientUnits="userSpaceOnUse">
<stop stop-color="#FFF176"/>
<stop offset="1" stop-color="#00E0B8"/>
</linearGradient>
<linearGradient id="paint7_linear_802_882" x1="36.4503" y1="3.16791" x2="38.5897" y2="29.4128" gradientUnits="userSpaceOnUse">
<stop stop-color="#FFF176"/>
<stop offset="1" stop-color="#00E0B8"/>
</linearGradient>
<linearGradient id="paint8_linear_802_882" x1="36.4503" y1="3.16791" x2="38.5897" y2="29.4128" gradientUnits="userSpaceOnUse">
<stop stop-color="#FFF176"/>
<stop offset="1" stop-color="#00E0B8"/>
</linearGradient>
<linearGradient id="paint9_linear_802_882" x1="36.4503" y1="3.16791" x2="38.5897" y2="29.4128" gradientUnits="userSpaceOnUse">
<stop stop-color="#FFF176"/>
<stop offset="1" stop-color="#00E0B8"/>
</linearGradient>
<linearGradient id="paint10_linear_802_882" x1="36.4503" y1="3.16791" x2="38.5897" y2="29.4128" gradientUnits="userSpaceOnUse">
<stop stop-color="#FFF176"/>
<stop offset="1" stop-color="#00E0B8"/>
</linearGradient>
</defs>
</svg>
