<svg width="241" height="61" viewBox="0 0 241 61" fill="none" xmlns="http://www.w3.org/2000/svg">
<mask id="path-1-outside-1_551_1354" maskUnits="userSpaceOnUse" x="-0.0668488" y="0.408203" width="241" height="61" fill="black">
<rect fill="white" x="-0.0668488" y="0.408203" width="241" height="61"/>
<path d="M65.3972 15.4722V17.0562H55.4372V15.4722H65.3972ZM55.4372 20.9442V19.2162H65.3972V20.9442H55.4372ZM52.5812 24.1362H55.4372V23.2962H65.3972V24.1122H68.3972V13.0962H52.5812V24.1362ZM64.0052 6.1362C63.7412 7.0722 63.3092 8.2002 62.9252 9.0882H57.9812C57.8132 8.2242 57.3332 7.0482 56.7572 6.1362H64.0052ZM66.0452 9.0882C66.4292 8.3442 66.8371 7.5042 67.2451 6.6162L65.0372 6.1362H70.0052V3.6162H62.2771C62.0371 2.8962 61.6772 2.0802 61.2692 1.4082L58.2932 1.8882C58.5572 2.3922 58.8452 3.0162 59.0372 3.6162H50.9492V6.1362H56.2292L53.9011 6.5922C54.2851 7.3362 54.6451 8.2722 54.8611 9.0882H49.6052V11.6322H71.1331V9.0882H66.0452Z"/>
<path d="M80.8772 13.5282C80.7332 12.3522 80.3972 10.6242 80.0132 9.2562L78.2132 9.6642C78.3331 10.1442 78.4531 10.6722 78.5491 11.2242L76.6532 11.4162C78.1652 9.7362 79.6771 7.7442 80.8051 5.7762L78.7892 4.6722C78.4772 5.3682 78.0691 6.0642 77.6852 6.7362L76.4371 6.8322C77.2771 5.6082 78.0931 4.1202 78.6931 2.7282L76.4852 1.9602C75.9572 3.7842 74.9012 5.6562 74.5652 6.1602C74.2292 6.6642 73.9171 7.0242 73.5571 7.0962C73.8211 7.6722 74.1811 8.7042 74.3011 9.1602C74.5651 9.0162 74.9971 8.8962 76.4131 8.7042C75.8131 9.5442 75.2852 10.1922 75.0452 10.4802C74.4452 11.1762 73.9892 11.6322 73.4852 11.7522C73.7492 12.3042 74.1092 13.4082 74.2292 13.8162C74.6372 13.6242 75.3091 13.4562 78.8611 12.9762C78.9091 13.3362 78.9572 13.6722 78.9812 13.9602L80.8772 13.5282ZM79.7971 17.9202C78.3331 19.3122 75.5491 20.5122 72.8851 21.0402C73.4851 21.5922 74.3252 22.6962 74.7572 23.3922C77.6132 22.6002 80.4212 20.8482 82.1012 18.7842L79.7971 17.9202ZM95.1572 17.2002V14.8482H85.8692V13.6962H83.0132V14.8482H73.5092V17.2002H83.0132V24.0162H85.8692V17.2002H95.1572ZM87.0932 19.4082C89.2292 20.5842 92.0611 22.3842 93.3811 23.5602L95.2052 21.5202C93.7652 20.3682 90.8611 18.6882 88.7731 17.6322L87.0932 19.4082ZM85.2451 7.4562H83.4451V5.8482H85.2451V7.4562ZM85.2451 11.0802H83.4451V9.4002H85.2451V11.0802ZM85.1732 3.7602L85.9411 1.9362L83.3492 1.5042C83.3012 2.1522 83.1331 2.9922 82.9411 3.7602H81.0211V13.1682H87.7652V3.7602H85.1732ZM92.6132 9.9762C92.7332 10.4322 92.8531 10.9362 92.9731 11.4642L91.1012 11.6322C92.6612 9.9762 94.1972 7.9362 95.3972 5.9682L93.3331 4.7922C93.0211 5.4402 92.6611 6.0882 92.3251 6.6882L90.7171 6.8322C91.5571 5.5842 92.4211 4.0722 92.9971 2.5842L90.6931 1.9362C90.1651 3.7842 89.0851 5.7042 88.7491 6.2082C88.4371 6.7122 88.1012 7.0722 87.7652 7.1682C88.0292 7.7442 88.3892 8.8002 88.5092 9.2802C88.7972 9.1122 89.2772 8.9922 90.9332 8.7522C90.3092 9.6402 89.7571 10.3122 89.4931 10.6002C88.8931 11.2722 88.4372 11.7282 87.9332 11.8482C88.1972 12.4242 88.5572 13.5522 88.6772 14.0082C89.0852 13.7922 89.7811 13.6482 93.3571 13.2642C93.4051 13.6002 93.4532 13.9122 93.4772 14.2002L95.3972 13.6962C95.2052 12.5682 94.7971 10.8402 94.3891 9.5202L92.6132 9.9762Z"/>
<path d="M118.149 1.8642H115.557V11.3682C115.557 11.6802 115.437 11.7762 115.101 11.7762C114.765 11.8002 113.613 11.8002 112.533 11.7522C112.845 12.3762 113.229 13.3122 113.373 14.0082C115.005 14.0082 116.205 13.9842 117.045 13.6242C117.909 13.2402 118.149 12.6642 118.149 11.4402V1.8642ZM113.445 2.8482H110.901V10.7682H113.445V2.8482ZM115.869 16.8402C114.981 17.4882 113.781 18.2082 112.677 18.7842C112.029 18.2082 111.429 17.5842 110.949 16.8402H115.869ZM99.5732 5.9922C99.7892 5.7042 100.005 5.3682 100.197 5.0322H102.501V5.9922H99.5732ZM116.733 16.8402H119.157V14.5842H110.349C110.109 13.9362 109.773 13.1922 109.413 12.6162L108.861 12.7602C109.101 12.4962 109.173 12.0882 109.173 11.4882V8.7522H104.925V7.9122H109.533V5.9922H104.925V5.0322H108.885V3.2082H104.925V1.6722H102.501V3.2082H101.109C101.253 2.8722 101.373 2.5842 101.493 2.2482L99.4052 1.7202C98.9972 2.9442 98.3252 4.2402 97.5092 5.1522C97.9172 5.3442 98.5411 5.7042 99.0211 5.9922H97.5332V7.9122H102.501V8.7522H98.4931V13.4562H100.653V10.4802H102.501V14.0082H104.925V10.4802H106.893V11.4882C106.893 11.6802 106.821 11.7522 106.605 11.7522C106.437 11.7522 105.885 11.7522 105.333 11.7282C105.549 12.1842 105.885 12.8082 106.005 13.3602C106.269 13.3602 106.533 13.3602 106.773 13.3602H106.749C106.941 13.7442 107.133 14.1522 107.301 14.5842H97.5811V16.8402H104.589C102.525 17.8242 99.8131 18.4962 97.1971 18.8562C97.7011 19.3842 98.3732 20.3202 98.7092 20.9202C99.9332 20.7042 101.181 20.4162 102.357 20.0322V20.1042C102.357 21.3282 101.733 21.9282 101.301 22.2642C101.565 22.6002 101.997 23.4402 102.141 24.0162L102.165 24.2322C102.645 23.9202 103.485 23.6802 109.197 22.3842C109.197 21.8802 109.269 20.8722 109.389 20.2482L104.925 21.1602V19.0242C106.221 18.4482 107.421 17.7762 108.381 16.9842C110.181 20.6802 113.181 22.8402 118.029 23.7762C118.365 23.1042 119.037 22.0722 119.565 21.5202C117.669 21.2562 116.061 20.7762 114.669 20.1042C115.893 19.5282 117.213 18.7842 118.341 18.0402L116.733 16.8402Z"/>
<path d="M126.405 1.7682C125.205 5.1762 123.117 8.5842 120.933 10.7442C121.437 11.4642 122.253 13.0962 122.517 13.7922C122.997 13.2642 123.501 12.6642 124.005 12.0642V24.0642H126.885V7.6242C127.773 6.0162 128.565 4.3122 129.189 2.6322L126.405 1.7682ZM143.613 8.2962V5.5842H134.301C134.757 4.6002 135.141 3.6162 135.477 2.6082L132.717 1.9122C131.637 5.3442 129.741 8.8002 127.629 10.9602C128.229 11.4162 129.357 12.4242 129.813 12.9522C130.893 11.7042 131.997 10.0722 132.957 8.2962H133.869V24.0882H136.797V18.7602H143.325V16.1202H136.797V13.4082H143.013V10.8162H136.797V8.2962H143.613Z"/>
<path d="M152.325 19.4322C150.861 20.3202 148.077 21.1362 145.677 21.4722C146.253 22.0002 146.997 22.9362 147.357 23.5362C149.829 22.9602 152.709 21.7122 154.341 20.3442L152.325 19.4322ZM158.781 20.6322C160.797 21.4722 163.605 22.7442 164.997 23.5362L167.013 21.9762C165.477 21.2082 162.645 20.0082 160.701 19.2882L158.781 20.6322ZM159.789 7.8162C159.453 8.3922 158.949 9.1122 158.565 9.6642L159.429 9.9282H152.877L154.173 9.6162C153.981 9.1122 153.597 8.4162 153.213 7.8162H159.789ZM157.749 16.2882V15.2322H164.949V13.1682H157.749V12.0882H166.077V9.9282H161.445C161.877 9.4962 162.381 8.9682 162.909 8.3922L160.653 7.8162H166.989V5.5842H163.893C164.493 4.7442 165.141 3.6642 165.813 2.5602L162.813 1.8642C162.477 2.8962 161.829 4.3602 161.277 5.3202L162.141 5.5842H160.005V1.6722H157.317V5.5842H155.517V1.6722H152.877V5.5842H150.669L151.821 5.1522C151.509 4.2402 150.717 2.8002 149.997 1.7922L147.549 2.6082C148.101 3.5202 148.725 4.6722 149.085 5.5842H145.821V7.8162H151.941L150.333 8.1762C150.645 8.7042 151.005 9.3762 151.221 9.9282H146.805V12.0882H154.917V13.1682H148.005V15.2322H154.917V16.2882H145.773V18.6402H154.917V24.1122H157.749V18.6402H167.061V16.2882H157.749Z"/>
<path d="M174.717 8.6562H178.917V10.3842H174.717V8.6562ZM174.717 4.7922H178.917V6.5202H174.717V4.7922ZM185.997 6.5202H181.797V4.7922H185.997V6.5202ZM185.997 10.3842H181.797V8.6562H185.997V10.3842ZM188.973 12.6882V2.4882H171.861V12.6882H175.677C173.973 14.1522 171.597 15.4002 169.197 16.0962C169.821 16.6962 170.661 17.7522 171.069 18.4482C172.605 17.8962 174.069 17.1522 175.437 16.2162V17.0802C175.437 18.6162 174.957 20.6322 170.949 21.9522C171.573 22.4802 172.533 23.5602 172.917 24.2562C177.693 22.5042 178.389 19.4802 178.389 17.2002V15.5442H176.349C177.429 14.6802 178.437 13.7442 179.229 12.6882H181.701C182.469 13.7682 183.429 14.7042 184.509 15.5682H182.709V24.0162H185.685V16.4322C186.933 17.2482 188.301 17.8962 189.741 18.3762C190.173 17.6082 191.037 16.5042 191.637 15.9282C189.165 15.3042 186.789 14.1282 185.061 12.6882H188.973Z"/>
<path d="M8.30115 47.8482L6.45315 48.3762V44.8482H8.58915V42.2082H6.45315V37.6962H3.83715V42.2082H1.31715V44.8482H3.83715V49.0722C2.73315 49.3602 1.74915 49.6242 0.933151 49.8162L1.55715 52.5522L3.83715 51.8802V56.8962C3.83715 57.2082 3.74115 57.3042 3.45315 57.3042C3.16515 57.3282 2.34915 57.3282 1.48515 57.2802C1.82115 58.0482 2.15715 59.2242 2.20515 59.9202C3.74115 59.9442 4.79715 59.8482 5.49315 59.3922C6.23715 58.9362 6.45315 58.2402 6.45315 56.9202V51.1122C7.22115 50.9202 7.94115 50.6802 8.68515 50.4642L8.30115 47.8482ZM18.0932 52.2882C17.6612 53.2482 17.1092 54.0642 16.4132 54.7362C15.4772 54.3762 14.5652 54.0402 13.6772 53.7282C13.9892 53.2722 14.3012 52.7922 14.6132 52.2882H18.0932ZM18.4052 42.2082C18.0692 43.1682 17.5172 44.4402 17.0612 45.3042H13.4132L15.1412 44.6802C14.9252 43.9842 14.3972 42.9762 13.8452 42.2082H18.4052ZM23.5892 52.2882V49.8882H21.7412C21.8132 49.5522 21.8852 49.2162 21.9092 48.8802L19.1972 48.4482C19.1252 48.9522 19.0292 49.4322 18.9092 49.8882H15.9332C16.2212 49.3122 16.4852 48.7362 16.7252 48.1842L14.5412 47.7282H23.2292V45.3042H19.7252C20.1572 44.5602 20.6372 43.7202 21.1172 42.8562L18.9332 42.2082H22.7732V39.8082H18.4292C18.1172 39.0642 17.6852 38.2242 17.2772 37.5522L14.1092 38.1042C14.3732 38.6082 14.6612 39.2082 14.8772 39.8082H9.64515V42.2082H13.1252L11.3252 42.8322C11.7812 43.5762 12.2852 44.5842 12.5252 45.3042H9.09315V47.7282H14.0372C13.7492 48.4242 13.4132 49.1442 13.0292 49.8882H8.82915V52.2882H11.6372C11.0372 53.2242 10.4132 54.1122 9.86115 54.8322C11.1332 55.2642 12.5252 55.7682 13.9172 56.3442C12.4532 56.9682 10.6532 57.4002 8.39715 57.6642C8.90115 58.2642 9.45315 59.2722 9.64515 60.0882C12.7412 59.5362 15.1172 58.7922 16.9412 57.6642C18.6932 58.4802 20.2772 59.2962 21.3572 60.0162L23.2052 57.9282C22.1252 57.2562 20.6612 56.5362 19.0772 55.8402C19.9172 54.8562 20.5652 53.6802 21.0692 52.2882H23.5892Z"/>
<path d="M38.6852 45.9522C38.1572 46.4802 37.5332 46.9122 36.8372 47.2962C35.5651 47.0322 34.2211 46.7682 32.9011 46.5522C33.1171 46.3602 33.3092 46.1682 33.5012 45.9522H38.6852ZM47.0372 49.9362C45.2372 49.3122 42.8852 48.6402 40.2932 48.0162C40.9652 47.4642 41.5892 46.7682 42.1172 45.9522H47.0132V43.7202H43.2452C43.3652 43.4322 43.4852 43.1202 43.5812 42.8082L40.7972 42.2562C40.6292 42.7602 40.4371 43.2642 40.2211 43.7202H35.5892C36.0452 43.1922 36.4292 42.6642 36.8132 42.1602L35.0852 41.6322H43.8932V42.9522H46.6532V39.2802H38.0852C37.7972 38.7282 37.4611 38.1282 37.1492 37.6722L34.1252 38.2722C34.2932 38.5842 34.4612 38.9202 34.6292 39.2802H26.1091V42.9522H28.7492V41.6322H33.9571C33.5252 42.3042 33.0212 43.0002 32.4452 43.7202H25.7012V45.9522H30.4771C29.8051 46.6962 29.1091 47.3682 28.4851 47.9202C29.9011 48.1362 31.2452 48.3762 32.5892 48.6402C30.6212 48.9762 28.2931 49.1682 25.5331 49.2402C25.9411 49.8402 26.3012 50.7282 26.5172 51.5922C31.2452 51.3282 34.8212 50.8242 37.5092 49.7202C40.2452 50.3922 42.6212 51.0882 44.3252 51.7842L47.0372 49.9362ZM47.2772 52.3602H37.7252V50.7042H34.8692V52.3602H25.5092V54.7122H30.7411C29.6372 55.9602 27.5012 57.1122 25.4612 57.7842C26.1332 58.2402 27.3092 59.1282 27.8612 59.6802C29.9012 58.7682 32.2532 57.2802 33.6452 55.6482L30.8372 54.7122H34.8692V60.0882H37.7252V54.7122H40.4852L38.8532 56.0802C40.9412 57.1602 43.6292 58.8162 44.9012 59.9682L47.1332 57.9762C45.8852 56.9682 43.6052 55.6482 41.7332 54.7122H47.2772V52.3602Z"/>
<path d="M71.2771 49.2642H61.8451V41.9922H69.8851V39.1602H50.7812V41.9922H58.8692V49.2642H49.5331V52.1682H58.8692V60.0882H61.8451V52.1682H71.2771V49.2642ZM52.2452 43.5282C53.0132 45.1362 53.7572 47.2482 53.9972 48.5202L56.7812 47.6562C56.5172 46.3122 55.6531 44.2962 54.8611 42.7602L52.2452 43.5282ZM66.2612 48.4722C67.0532 47.2482 68.0372 45.3042 68.9012 43.4562L65.8531 42.6882C65.3971 44.2482 64.5331 46.3602 63.7651 47.7522L66.2612 48.4722Z"/>
<path d="M78.6452 51.1842V45.9042H80.9252V43.1922H78.6452V37.9842H75.9812V43.1922H73.4612V45.9042H75.9812V52.3122C74.8292 52.7442 73.8212 53.1522 72.9812 53.4402L74.1331 56.3202C76.2931 55.3122 78.9572 54.0402 81.4532 52.7922L80.7812 50.2962L78.6452 51.1842ZM83.6611 53.9682H90.9812V51.5202H83.6611V53.9682ZM84.8372 46.8882V49.3362H90.4532V46.8882H84.8372ZM95.2292 41.2722H86.6371C87.0211 40.2882 87.3572 39.3282 87.6452 38.3202L85.0052 37.6722C84.1412 40.7922 82.7011 44.0082 80.9731 46.0002C81.6451 46.3362 82.8212 47.0802 83.3492 47.5122C84.0932 46.5042 84.8372 45.2802 85.5092 43.8642H92.4931C92.2771 52.4322 92.0372 56.2722 91.2932 57.0402C91.0052 57.3522 90.7412 57.4242 90.2612 57.4242C89.5652 57.4242 88.0772 57.4242 86.3732 57.2802C86.9012 58.0722 87.3091 59.2962 87.3571 60.0642C88.7971 60.1122 90.3812 60.1362 91.3172 60.0162C92.3252 59.8722 93.0452 59.5842 93.7411 58.6242C94.7012 57.3042 94.9652 53.5362 95.2292 42.6402V41.2722Z"/>
<path d="M111.669 42.8322H114.501V41.5602H119.133V39.3042H114.501V37.6722H111.669V39.3042H108.861V41.5602H111.669V42.8322ZM99.1172 54.1602C98.6852 55.4562 97.9892 56.8242 97.1252 57.7362C97.6532 58.0482 98.5412 58.6962 98.9492 59.0562C99.8372 58.0002 100.773 56.3202 101.277 54.7362L99.1172 54.1602ZM104.733 46.0002C104.565 46.7202 104.229 47.6802 103.941 48.4242H102.405L102.669 48.3282C102.501 47.6802 102.045 46.7202 101.565 46.0002H104.733ZM108.741 53.7762V51.6402H104.781V50.5122H108.981V48.4242H106.365C106.629 47.8482 106.917 47.2002 107.229 46.5042L105.165 46.0002H108.597V43.9122H104.925C104.709 43.3842 104.445 42.8322 104.205 42.3522H105.165V41.5602H107.997V39.3042H105.165V37.6722H102.333V39.3042H97.7491V41.5602H102.333V42.3522H103.413L101.349 42.8802C101.493 43.1922 101.637 43.5522 101.781 43.9122H97.7971V46.0002H101.037L99.3331 46.5762C99.6931 47.1282 100.005 47.8002 100.197 48.4242H97.5092V50.5122H102.069V51.6402H97.8692V53.7762H102.069V59.8962H104.781V53.7762H108.741ZM105.141 54.8802C105.741 55.8402 106.437 57.2082 106.773 58.0482L108.693 56.8722C108.333 56.0562 107.637 54.8322 106.965 53.8482L105.141 54.8802ZM119.277 48.7602H112.293V46.0962C114.621 45.7362 117.093 45.2082 119.037 44.5602L116.973 42.5202C115.221 43.2162 112.317 43.8882 109.701 44.2722V50.6802C109.701 53.0802 109.581 56.1042 108.093 58.2402C108.597 58.5762 109.677 59.5602 110.061 60.0642C111.837 57.7602 112.245 54.0642 112.293 51.2082H114.165V59.9682H116.853V51.2082H119.277V48.7602Z"/>
<path d="M128.061 38.8482H121.917V40.9362H128.061V38.8482ZM127.269 53.2962H137.661V54.3762H127.269V53.2962ZM127.269 50.6562H137.661V51.6882H127.269V50.6562ZM127.269 48.0162H137.661V49.0482H127.269V48.0162ZM140.565 56.0562V46.3122H124.509V56.0562H127.965C126.285 56.8962 123.717 57.6162 121.413 58.0482C122.037 58.5282 123.045 59.5842 123.525 60.1362C125.949 59.4642 129.045 58.2642 131.013 57.0162L128.925 56.0562H135.693L134.229 57.2322C136.605 58.0962 139.101 59.2722 140.469 60.0642L143.037 58.5282C141.621 57.8322 139.269 56.8722 137.061 56.0562H140.565ZM136.413 41.6802V41.2002H139.077C138.813 41.7042 138.501 42.2082 138.237 42.5922L140.445 43.4082C141.213 42.4482 142.029 40.9362 142.653 39.6162L140.709 39.0162L140.277 39.1362H133.461C133.605 38.8002 133.749 38.4402 133.869 38.0802L131.373 37.5282C130.821 39.1602 129.837 40.7442 128.565 41.8002C129.165 42.1362 130.221 42.8322 130.677 43.2642C131.277 42.7122 131.853 41.9922 132.357 41.2002H133.797V41.5602C133.797 42.4482 133.197 43.5282 128.613 44.0082V42.5442H121.365V44.7282H127.725C128.109 45.2322 128.493 45.8322 128.685 46.2882C132.717 45.8322 134.709 44.8962 135.621 43.8402C137.133 45.1602 139.221 45.9282 141.909 46.2642C142.245 45.5682 142.917 44.5362 143.493 43.9842C140.253 43.8162 137.709 43.2162 136.413 41.9442V41.6802Z"/>
<path d="M156.261 41.1522V43.1442H154.485V41.1522H156.261ZM154.485 47.2722V45.1602H156.261V47.2722H154.485ZM161.229 46.9602C161.517 45.1602 161.781 43.0482 161.997 41.2002H162.789C162.741 42.9042 162.645 44.8722 162.285 46.9602H161.229ZM164.973 57.5442C164.829 57.5442 164.685 57.4962 164.637 57.4242C164.565 57.3522 164.541 57.1842 164.541 57.0642V50.3922H163.845C163.941 50.0322 164.037 49.6242 164.133 49.2402H167.421V46.9602H164.541C164.853 44.8722 164.949 42.9042 164.997 41.2002H167.205V38.8002H158.949V41.2002H159.765C159.549 43.8642 159.165 47.1762 158.781 49.2402H161.805C161.349 51.0162 160.677 52.8162 159.693 54.5442C159.165 53.3442 158.109 51.4962 157.293 50.0802L155.541 50.9682C155.877 51.5442 156.213 52.2162 156.549 52.8642L154.485 53.9922V49.5522H158.277V38.8722H152.325V49.4322C151.773 48.3762 150.525 46.0482 150.117 45.4242V45.0882H151.965V42.4962H150.117V37.6722H147.645V42.4962H145.413V45.0882H147.645V45.1842C147.117 48.0402 146.037 51.4482 144.837 53.4642C145.245 54.1362 145.869 55.1682 146.133 55.9362C146.661 55.0002 147.189 53.8002 147.645 52.4562V60.0642H150.117V49.5042C150.501 50.4882 150.885 51.4722 151.101 52.1922L152.325 50.2002V53.7522C152.325 54.9042 151.653 55.8162 151.221 56.2002C151.605 56.5842 152.301 57.5202 152.517 58.0482C152.925 57.5682 153.549 56.9922 157.413 54.6642C157.605 55.0962 157.773 55.5042 157.893 55.8402L159.477 54.9282C158.661 56.2722 157.677 57.5682 156.453 58.7442C157.101 59.0562 158.013 59.7522 158.469 60.1602C160.221 58.3842 161.493 56.4162 162.429 54.3762V57.2082C162.429 58.5282 162.549 58.8882 162.909 59.2722C163.245 59.6322 163.773 59.7762 164.325 59.7762H165.381C165.813 59.7762 166.245 59.6322 166.557 59.4162C166.869 59.1762 167.061 58.8162 167.205 58.3362C167.325 57.7842 167.421 56.4402 167.445 55.2402C166.965 55.0722 166.365 54.7362 166.005 54.4722C166.029 55.5522 166.005 56.5122 165.957 56.8722C165.909 57.1362 165.837 57.3282 165.741 57.4242C165.669 57.5202 165.525 57.5442 165.357 57.5442H164.973Z"/>
<path d="M176.589 40.0722C175.629 39.2562 173.661 38.2962 172.173 37.7442L170.613 39.8802C172.125 40.5042 174.045 41.5602 174.909 42.4002L176.589 40.0722ZM175.293 46.5282C174.261 45.7362 172.173 44.7762 170.589 44.2482L169.125 46.3842C170.709 47.0322 172.749 48.0882 173.709 48.9282L175.293 46.5282ZM174.837 50.1762C173.325 53.0562 171.357 56.1762 169.989 58.0482L172.413 59.8002C173.949 57.4242 175.557 54.5682 176.925 51.9282L174.837 50.1762ZM180.357 41.3682H187.341V46.3122H180.357V41.3682ZM187.557 57.3042C187.149 57.3042 187.077 57.2082 187.077 56.4162V48.9522H190.269V38.7282H177.573V48.9522H179.589C179.445 53.4402 179.109 56.2002 175.005 57.8082C175.629 58.3362 176.421 59.4162 176.733 60.1122C181.509 58.0482 182.181 54.4002 182.397 48.9522H184.221V56.4402C184.221 59.0082 184.749 59.8722 187.053 59.8722H188.901C190.821 59.8722 191.469 58.8162 191.709 55.0482C190.989 54.8322 189.789 54.3762 189.213 53.9202C189.141 56.8002 189.069 57.3042 188.637 57.3042H187.557Z"/>
<path d="M203.997 45.7842C204.453 46.2642 204.933 46.9362 205.149 47.4162C205.317 47.3442 205.485 47.2482 205.653 47.1762C205.365 48.8802 204.789 50.6322 203.997 51.8562V45.7842ZM200.301 51.7122V49.7202H201.669V51.7122H200.301ZM197.061 49.7202H198.429V51.7122H197.037C197.061 51.1602 197.061 50.6322 197.061 50.1282V49.7202ZM199.581 42.0642C199.365 42.6642 199.149 43.2882 198.909 43.8162H196.845C197.133 43.2642 197.397 42.6642 197.661 42.0642H199.581ZM200.301 45.9042H201.669V47.7042H200.301V45.9042ZM197.061 45.9042H198.429V47.7042H197.061V45.9042ZM215.613 53.5842H211.533V51.4242H215.133V49.0242H211.533V46.8642H208.821V49.0242H207.645C207.789 48.5202 207.885 47.9922 207.981 47.4882L205.845 47.0562C208.293 45.7122 209.205 43.7202 209.613 41.2242H212.397C212.301 43.2162 212.181 44.0322 211.965 44.2962C211.797 44.5122 211.605 44.5602 211.317 44.5602C210.981 44.5602 210.333 44.5362 209.589 44.4642C209.949 45.0642 210.189 46.0242 210.237 46.7682C211.197 46.7922 212.133 46.7682 212.661 46.6962C213.261 46.6002 213.717 46.4082 214.125 45.9042C214.653 45.2802 214.845 43.6242 214.965 39.8082C214.989 39.4962 215.013 38.8962 215.013 38.8962H204.357V41.2242H207.045C206.709 42.9762 205.989 44.3682 203.997 45.2802V43.8162H201.309C201.813 42.8322 202.293 41.7282 202.629 40.7922L200.997 39.7842L200.637 39.9042H198.453C198.645 39.3522 198.813 38.7762 198.957 38.2002L196.437 37.6722C195.789 40.4802 194.517 43.2882 192.885 45.0402C193.389 45.3762 194.277 46.0962 194.757 46.5762V50.1282C194.757 52.8162 194.637 56.3922 193.029 58.8642C193.557 59.1042 194.589 59.7522 194.997 60.1362C196.101 58.4082 196.653 56.0802 196.893 53.8242H201.669V57.2802C201.669 57.5922 201.549 57.6882 201.261 57.6882C200.973 57.6882 200.037 57.6882 199.077 57.6402C199.437 58.2882 199.821 59.3682 199.893 60.0642C201.357 60.0642 202.341 59.9922 203.085 59.5842C203.805 59.1762 203.997 58.4562 203.997 57.3282V52.2642C204.597 52.5282 205.461 52.9842 205.869 53.2722C206.229 52.7442 206.541 52.1202 206.829 51.4242H208.821V53.5842H204.381V56.0322H208.821V59.9922H211.533V56.0322H215.613V53.5842Z"/>
<path d="M226.701 50.4402C226.269 49.8162 224.421 47.2962 223.533 46.2162V45.3042H226.797V42.6162H223.533V37.6722H220.797V42.6162H217.557V45.3042H220.485C219.765 48.1362 218.421 51.4002 216.909 53.2962C217.341 54.0162 217.989 55.1442 218.253 55.9602C219.213 54.6642 220.077 52.7922 220.797 50.7522V60.0642H223.533V49.7922C224.133 50.8482 224.709 51.9522 225.045 52.6962L226.701 50.4402ZM239.565 45.7362H230.493V42.3522C233.181 41.8482 236.013 41.1042 238.269 40.1682L235.869 37.9122C233.925 38.8722 230.733 39.7602 227.781 40.3122V47.3922C227.781 50.7762 227.589 55.4082 225.405 58.6002C226.077 58.8642 227.253 59.5842 227.781 60.0162C229.893 56.8962 230.397 52.0722 230.493 48.4242H233.637V60.0642H236.469V48.4242H239.565V45.7362Z"/>
</mask>
<path d="M65.3972 15.4722V17.0562H55.4372V15.4722H65.3972ZM55.4372 20.9442V19.2162H65.3972V20.9442H55.4372ZM52.5812 24.1362H55.4372V23.2962H65.3972V24.1122H68.3972V13.0962H52.5812V24.1362ZM64.0052 6.1362C63.7412 7.0722 63.3092 8.2002 62.9252 9.0882H57.9812C57.8132 8.2242 57.3332 7.0482 56.7572 6.1362H64.0052ZM66.0452 9.0882C66.4292 8.3442 66.8371 7.5042 67.2451 6.6162L65.0372 6.1362H70.0052V3.6162H62.2771C62.0371 2.8962 61.6772 2.0802 61.2692 1.4082L58.2932 1.8882C58.5572 2.3922 58.8452 3.0162 59.0372 3.6162H50.9492V6.1362H56.2292L53.9011 6.5922C54.2851 7.3362 54.6451 8.2722 54.8611 9.0882H49.6052V11.6322H71.1331V9.0882H66.0452Z" stroke="#00E0B8" stroke-width="1.5" stroke-linejoin="round" mask="url(#path-1-outside-1_551_1354)"/>
<path d="M80.8772 13.5282C80.7332 12.3522 80.3972 10.6242 80.0132 9.2562L78.2132 9.6642C78.3331 10.1442 78.4531 10.6722 78.5491 11.2242L76.6532 11.4162C78.1652 9.7362 79.6771 7.7442 80.8051 5.7762L78.7892 4.6722C78.4772 5.3682 78.0691 6.0642 77.6852 6.7362L76.4371 6.8322C77.2771 5.6082 78.0931 4.1202 78.6931 2.7282L76.4852 1.9602C75.9572 3.7842 74.9012 5.6562 74.5652 6.1602C74.2292 6.6642 73.9171 7.0242 73.5571 7.0962C73.8211 7.6722 74.1811 8.7042 74.3011 9.1602C74.5651 9.0162 74.9971 8.8962 76.4131 8.7042C75.8131 9.5442 75.2852 10.1922 75.0452 10.4802C74.4452 11.1762 73.9892 11.6322 73.4852 11.7522C73.7492 12.3042 74.1092 13.4082 74.2292 13.8162C74.6372 13.6242 75.3091 13.4562 78.8611 12.9762C78.9091 13.3362 78.9572 13.6722 78.9812 13.9602L80.8772 13.5282ZM79.7971 17.9202C78.3331 19.3122 75.5491 20.5122 72.8851 21.0402C73.4851 21.5922 74.3252 22.6962 74.7572 23.3922C77.6132 22.6002 80.4212 20.8482 82.1012 18.7842L79.7971 17.9202ZM95.1572 17.2002V14.8482H85.8692V13.6962H83.0132V14.8482H73.5092V17.2002H83.0132V24.0162H85.8692V17.2002H95.1572ZM87.0932 19.4082C89.2292 20.5842 92.0611 22.3842 93.3811 23.5602L95.2052 21.5202C93.7652 20.3682 90.8611 18.6882 88.7731 17.6322L87.0932 19.4082ZM85.2451 7.4562H83.4451V5.8482H85.2451V7.4562ZM85.2451 11.0802H83.4451V9.4002H85.2451V11.0802ZM85.1732 3.7602L85.9411 1.9362L83.3492 1.5042C83.3012 2.1522 83.1331 2.9922 82.9411 3.7602H81.0211V13.1682H87.7652V3.7602H85.1732ZM92.6132 9.9762C92.7332 10.4322 92.8531 10.9362 92.9731 11.4642L91.1012 11.6322C92.6612 9.9762 94.1972 7.9362 95.3972 5.9682L93.3331 4.7922C93.0211 5.4402 92.6611 6.0882 92.3251 6.6882L90.7171 6.8322C91.5571 5.5842 92.4211 4.0722 92.9971 2.5842L90.6931 1.9362C90.1651 3.7842 89.0851 5.7042 88.7491 6.2082C88.4371 6.7122 88.1012 7.0722 87.7652 7.1682C88.0292 7.7442 88.3892 8.8002 88.5092 9.2802C88.7972 9.1122 89.2772 8.9922 90.9332 8.7522C90.3092 9.6402 89.7571 10.3122 89.4931 10.6002C88.8931 11.2722 88.4372 11.7282 87.9332 11.8482C88.1972 12.4242 88.5572 13.5522 88.6772 14.0082C89.0852 13.7922 89.7811 13.6482 93.3571 13.2642C93.4051 13.6002 93.4532 13.9122 93.4772 14.2002L95.3972 13.6962C95.2052 12.5682 94.7971 10.8402 94.3891 9.5202L92.6132 9.9762Z" stroke="#00E0B8" stroke-width="1.5" stroke-linejoin="round" mask="url(#path-1-outside-1_551_1354)"/>
<path d="M118.149 1.8642H115.557V11.3682C115.557 11.6802 115.437 11.7762 115.101 11.7762C114.765 11.8002 113.613 11.8002 112.533 11.7522C112.845 12.3762 113.229 13.3122 113.373 14.0082C115.005 14.0082 116.205 13.9842 117.045 13.6242C117.909 13.2402 118.149 12.6642 118.149 11.4402V1.8642ZM113.445 2.8482H110.901V10.7682H113.445V2.8482ZM115.869 16.8402C114.981 17.4882 113.781 18.2082 112.677 18.7842C112.029 18.2082 111.429 17.5842 110.949 16.8402H115.869ZM99.5732 5.9922C99.7892 5.7042 100.005 5.3682 100.197 5.0322H102.501V5.9922H99.5732ZM116.733 16.8402H119.157V14.5842H110.349C110.109 13.9362 109.773 13.1922 109.413 12.6162L108.861 12.7602C109.101 12.4962 109.173 12.0882 109.173 11.4882V8.7522H104.925V7.9122H109.533V5.9922H104.925V5.0322H108.885V3.2082H104.925V1.6722H102.501V3.2082H101.109C101.253 2.8722 101.373 2.5842 101.493 2.2482L99.4052 1.7202C98.9972 2.9442 98.3252 4.2402 97.5092 5.1522C97.9172 5.3442 98.5411 5.7042 99.0211 5.9922H97.5332V7.9122H102.501V8.7522H98.4931V13.4562H100.653V10.4802H102.501V14.0082H104.925V10.4802H106.893V11.4882C106.893 11.6802 106.821 11.7522 106.605 11.7522C106.437 11.7522 105.885 11.7522 105.333 11.7282C105.549 12.1842 105.885 12.8082 106.005 13.3602C106.269 13.3602 106.533 13.3602 106.773 13.3602H106.749C106.941 13.7442 107.133 14.1522 107.301 14.5842H97.5811V16.8402H104.589C102.525 17.8242 99.8131 18.4962 97.1971 18.8562C97.7011 19.3842 98.3732 20.3202 98.7092 20.9202C99.9332 20.7042 101.181 20.4162 102.357 20.0322V20.1042C102.357 21.3282 101.733 21.9282 101.301 22.2642C101.565 22.6002 101.997 23.4402 102.141 24.0162L102.165 24.2322C102.645 23.9202 103.485 23.6802 109.197 22.3842C109.197 21.8802 109.269 20.8722 109.389 20.2482L104.925 21.1602V19.0242C106.221 18.4482 107.421 17.7762 108.381 16.9842C110.181 20.6802 113.181 22.8402 118.029 23.7762C118.365 23.1042 119.037 22.0722 119.565 21.5202C117.669 21.2562 116.061 20.7762 114.669 20.1042C115.893 19.5282 117.213 18.7842 118.341 18.0402L116.733 16.8402Z" stroke="#00E0B8" stroke-width="1.5" stroke-linejoin="round" mask="url(#path-1-outside-1_551_1354)"/>
<path d="M126.405 1.7682C125.205 5.1762 123.117 8.5842 120.933 10.7442C121.437 11.4642 122.253 13.0962 122.517 13.7922C122.997 13.2642 123.501 12.6642 124.005 12.0642V24.0642H126.885V7.6242C127.773 6.0162 128.565 4.3122 129.189 2.6322L126.405 1.7682ZM143.613 8.2962V5.5842H134.301C134.757 4.6002 135.141 3.6162 135.477 2.6082L132.717 1.9122C131.637 5.3442 129.741 8.8002 127.629 10.9602C128.229 11.4162 129.357 12.4242 129.813 12.9522C130.893 11.7042 131.997 10.0722 132.957 8.2962H133.869V24.0882H136.797V18.7602H143.325V16.1202H136.797V13.4082H143.013V10.8162H136.797V8.2962H143.613Z" stroke="#00E0B8" stroke-width="1.5" stroke-linejoin="round" mask="url(#path-1-outside-1_551_1354)"/>
<path d="M152.325 19.4322C150.861 20.3202 148.077 21.1362 145.677 21.4722C146.253 22.0002 146.997 22.9362 147.357 23.5362C149.829 22.9602 152.709 21.7122 154.341 20.3442L152.325 19.4322ZM158.781 20.6322C160.797 21.4722 163.605 22.7442 164.997 23.5362L167.013 21.9762C165.477 21.2082 162.645 20.0082 160.701 19.2882L158.781 20.6322ZM159.789 7.8162C159.453 8.3922 158.949 9.1122 158.565 9.6642L159.429 9.9282H152.877L154.173 9.6162C153.981 9.1122 153.597 8.4162 153.213 7.8162H159.789ZM157.749 16.2882V15.2322H164.949V13.1682H157.749V12.0882H166.077V9.9282H161.445C161.877 9.4962 162.381 8.9682 162.909 8.3922L160.653 7.8162H166.989V5.5842H163.893C164.493 4.7442 165.141 3.6642 165.813 2.5602L162.813 1.8642C162.477 2.8962 161.829 4.3602 161.277 5.3202L162.141 5.5842H160.005V1.6722H157.317V5.5842H155.517V1.6722H152.877V5.5842H150.669L151.821 5.1522C151.509 4.2402 150.717 2.8002 149.997 1.7922L147.549 2.6082C148.101 3.5202 148.725 4.6722 149.085 5.5842H145.821V7.8162H151.941L150.333 8.1762C150.645 8.7042 151.005 9.3762 151.221 9.9282H146.805V12.0882H154.917V13.1682H148.005V15.2322H154.917V16.2882H145.773V18.6402H154.917V24.1122H157.749V18.6402H167.061V16.2882H157.749Z" stroke="#00E0B8" stroke-width="1.5" stroke-linejoin="round" mask="url(#path-1-outside-1_551_1354)"/>
<path d="M174.717 8.6562H178.917V10.3842H174.717V8.6562ZM174.717 4.7922H178.917V6.5202H174.717V4.7922ZM185.997 6.5202H181.797V4.7922H185.997V6.5202ZM185.997 10.3842H181.797V8.6562H185.997V10.3842ZM188.973 12.6882V2.4882H171.861V12.6882H175.677C173.973 14.1522 171.597 15.4002 169.197 16.0962C169.821 16.6962 170.661 17.7522 171.069 18.4482C172.605 17.8962 174.069 17.1522 175.437 16.2162V17.0802C175.437 18.6162 174.957 20.6322 170.949 21.9522C171.573 22.4802 172.533 23.5602 172.917 24.2562C177.693 22.5042 178.389 19.4802 178.389 17.2002V15.5442H176.349C177.429 14.6802 178.437 13.7442 179.229 12.6882H181.701C182.469 13.7682 183.429 14.7042 184.509 15.5682H182.709V24.0162H185.685V16.4322C186.933 17.2482 188.301 17.8962 189.741 18.3762C190.173 17.6082 191.037 16.5042 191.637 15.9282C189.165 15.3042 186.789 14.1282 185.061 12.6882H188.973Z" stroke="#00E0B8" stroke-width="1.5" stroke-linejoin="round" mask="url(#path-1-outside-1_551_1354)"/>
<path d="M8.30115 47.8482L6.45315 48.3762V44.8482H8.58915V42.2082H6.45315V37.6962H3.83715V42.2082H1.31715V44.8482H3.83715V49.0722C2.73315 49.3602 1.74915 49.6242 0.933151 49.8162L1.55715 52.5522L3.83715 51.8802V56.8962C3.83715 57.2082 3.74115 57.3042 3.45315 57.3042C3.16515 57.3282 2.34915 57.3282 1.48515 57.2802C1.82115 58.0482 2.15715 59.2242 2.20515 59.9202C3.74115 59.9442 4.79715 59.8482 5.49315 59.3922C6.23715 58.9362 6.45315 58.2402 6.45315 56.9202V51.1122C7.22115 50.9202 7.94115 50.6802 8.68515 50.4642L8.30115 47.8482ZM18.0932 52.2882C17.6612 53.2482 17.1092 54.0642 16.4132 54.7362C15.4772 54.3762 14.5652 54.0402 13.6772 53.7282C13.9892 53.2722 14.3012 52.7922 14.6132 52.2882H18.0932ZM18.4052 42.2082C18.0692 43.1682 17.5172 44.4402 17.0612 45.3042H13.4132L15.1412 44.6802C14.9252 43.9842 14.3972 42.9762 13.8452 42.2082H18.4052ZM23.5892 52.2882V49.8882H21.7412C21.8132 49.5522 21.8852 49.2162 21.9092 48.8802L19.1972 48.4482C19.1252 48.9522 19.0292 49.4322 18.9092 49.8882H15.9332C16.2212 49.3122 16.4852 48.7362 16.7252 48.1842L14.5412 47.7282H23.2292V45.3042H19.7252C20.1572 44.5602 20.6372 43.7202 21.1172 42.8562L18.9332 42.2082H22.7732V39.8082H18.4292C18.1172 39.0642 17.6852 38.2242 17.2772 37.5522L14.1092 38.1042C14.3732 38.6082 14.6612 39.2082 14.8772 39.8082H9.64515V42.2082H13.1252L11.3252 42.8322C11.7812 43.5762 12.2852 44.5842 12.5252 45.3042H9.09315V47.7282H14.0372C13.7492 48.4242 13.4132 49.1442 13.0292 49.8882H8.82915V52.2882H11.6372C11.0372 53.2242 10.4132 54.1122 9.86115 54.8322C11.1332 55.2642 12.5252 55.7682 13.9172 56.3442C12.4532 56.9682 10.6532 57.4002 8.39715 57.6642C8.90115 58.2642 9.45315 59.2722 9.64515 60.0882C12.7412 59.5362 15.1172 58.7922 16.9412 57.6642C18.6932 58.4802 20.2772 59.2962 21.3572 60.0162L23.2052 57.9282C22.1252 57.2562 20.6612 56.5362 19.0772 55.8402C19.9172 54.8562 20.5652 53.6802 21.0692 52.2882H23.5892Z" stroke="#00E0B8" stroke-width="1.5" stroke-linejoin="round" mask="url(#path-1-outside-1_551_1354)"/>
<path d="M38.6852 45.9522C38.1572 46.4802 37.5332 46.9122 36.8372 47.2962C35.5651 47.0322 34.2211 46.7682 32.9011 46.5522C33.1171 46.3602 33.3092 46.1682 33.5012 45.9522H38.6852ZM47.0372 49.9362C45.2372 49.3122 42.8852 48.6402 40.2932 48.0162C40.9652 47.4642 41.5892 46.7682 42.1172 45.9522H47.0132V43.7202H43.2452C43.3652 43.4322 43.4852 43.1202 43.5812 42.8082L40.7972 42.2562C40.6292 42.7602 40.4371 43.2642 40.2211 43.7202H35.5892C36.0452 43.1922 36.4292 42.6642 36.8132 42.1602L35.0852 41.6322H43.8932V42.9522H46.6532V39.2802H38.0852C37.7972 38.7282 37.4611 38.1282 37.1492 37.6722L34.1252 38.2722C34.2932 38.5842 34.4612 38.9202 34.6292 39.2802H26.1091V42.9522H28.7492V41.6322H33.9571C33.5252 42.3042 33.0212 43.0002 32.4452 43.7202H25.7012V45.9522H30.4771C29.8051 46.6962 29.1091 47.3682 28.4851 47.9202C29.9011 48.1362 31.2452 48.3762 32.5892 48.6402C30.6212 48.9762 28.2931 49.1682 25.5331 49.2402C25.9411 49.8402 26.3012 50.7282 26.5172 51.5922C31.2452 51.3282 34.8212 50.8242 37.5092 49.7202C40.2452 50.3922 42.6212 51.0882 44.3252 51.7842L47.0372 49.9362ZM47.2772 52.3602H37.7252V50.7042H34.8692V52.3602H25.5092V54.7122H30.7411C29.6372 55.9602 27.5012 57.1122 25.4612 57.7842C26.1332 58.2402 27.3092 59.1282 27.8612 59.6802C29.9012 58.7682 32.2532 57.2802 33.6452 55.6482L30.8372 54.7122H34.8692V60.0882H37.7252V54.7122H40.4852L38.8532 56.0802C40.9412 57.1602 43.6292 58.8162 44.9012 59.9682L47.1332 57.9762C45.8852 56.9682 43.6052 55.6482 41.7332 54.7122H47.2772V52.3602Z" stroke="#00E0B8" stroke-width="1.5" stroke-linejoin="round" mask="url(#path-1-outside-1_551_1354)"/>
<path d="M71.2771 49.2642H61.8451V41.9922H69.8851V39.1602H50.7812V41.9922H58.8692V49.2642H49.5331V52.1682H58.8692V60.0882H61.8451V52.1682H71.2771V49.2642ZM52.2452 43.5282C53.0132 45.1362 53.7572 47.2482 53.9972 48.5202L56.7812 47.6562C56.5172 46.3122 55.6531 44.2962 54.8611 42.7602L52.2452 43.5282ZM66.2612 48.4722C67.0532 47.2482 68.0372 45.3042 68.9012 43.4562L65.8531 42.6882C65.3971 44.2482 64.5331 46.3602 63.7651 47.7522L66.2612 48.4722Z" stroke="#00E0B8" stroke-width="1.5" stroke-linejoin="round" mask="url(#path-1-outside-1_551_1354)"/>
<path d="M78.6452 51.1842V45.9042H80.9252V43.1922H78.6452V37.9842H75.9812V43.1922H73.4612V45.9042H75.9812V52.3122C74.8292 52.7442 73.8212 53.1522 72.9812 53.4402L74.1331 56.3202C76.2931 55.3122 78.9572 54.0402 81.4532 52.7922L80.7812 50.2962L78.6452 51.1842ZM83.6611 53.9682H90.9812V51.5202H83.6611V53.9682ZM84.8372 46.8882V49.3362H90.4532V46.8882H84.8372ZM95.2292 41.2722H86.6371C87.0211 40.2882 87.3572 39.3282 87.6452 38.3202L85.0052 37.6722C84.1412 40.7922 82.7011 44.0082 80.9731 46.0002C81.6451 46.3362 82.8212 47.0802 83.3492 47.5122C84.0932 46.5042 84.8372 45.2802 85.5092 43.8642H92.4931C92.2771 52.4322 92.0372 56.2722 91.2932 57.0402C91.0052 57.3522 90.7412 57.4242 90.2612 57.4242C89.5652 57.4242 88.0772 57.4242 86.3732 57.2802C86.9012 58.0722 87.3091 59.2962 87.3571 60.0642C88.7971 60.1122 90.3812 60.1362 91.3172 60.0162C92.3252 59.8722 93.0452 59.5842 93.7411 58.6242C94.7012 57.3042 94.9652 53.5362 95.2292 42.6402V41.2722Z" stroke="#00E0B8" stroke-width="1.5" stroke-linejoin="round" mask="url(#path-1-outside-1_551_1354)"/>
<path d="M111.669 42.8322H114.501V41.5602H119.133V39.3042H114.501V37.6722H111.669V39.3042H108.861V41.5602H111.669V42.8322ZM99.1172 54.1602C98.6852 55.4562 97.9892 56.8242 97.1252 57.7362C97.6532 58.0482 98.5412 58.6962 98.9492 59.0562C99.8372 58.0002 100.773 56.3202 101.277 54.7362L99.1172 54.1602ZM104.733 46.0002C104.565 46.7202 104.229 47.6802 103.941 48.4242H102.405L102.669 48.3282C102.501 47.6802 102.045 46.7202 101.565 46.0002H104.733ZM108.741 53.7762V51.6402H104.781V50.5122H108.981V48.4242H106.365C106.629 47.8482 106.917 47.2002 107.229 46.5042L105.165 46.0002H108.597V43.9122H104.925C104.709 43.3842 104.445 42.8322 104.205 42.3522H105.165V41.5602H107.997V39.3042H105.165V37.6722H102.333V39.3042H97.7491V41.5602H102.333V42.3522H103.413L101.349 42.8802C101.493 43.1922 101.637 43.5522 101.781 43.9122H97.7971V46.0002H101.037L99.3331 46.5762C99.6931 47.1282 100.005 47.8002 100.197 48.4242H97.5092V50.5122H102.069V51.6402H97.8692V53.7762H102.069V59.8962H104.781V53.7762H108.741ZM105.141 54.8802C105.741 55.8402 106.437 57.2082 106.773 58.0482L108.693 56.8722C108.333 56.0562 107.637 54.8322 106.965 53.8482L105.141 54.8802ZM119.277 48.7602H112.293V46.0962C114.621 45.7362 117.093 45.2082 119.037 44.5602L116.973 42.5202C115.221 43.2162 112.317 43.8882 109.701 44.2722V50.6802C109.701 53.0802 109.581 56.1042 108.093 58.2402C108.597 58.5762 109.677 59.5602 110.061 60.0642C111.837 57.7602 112.245 54.0642 112.293 51.2082H114.165V59.9682H116.853V51.2082H119.277V48.7602Z" stroke="#00E0B8" stroke-width="1.5" stroke-linejoin="round" mask="url(#path-1-outside-1_551_1354)"/>
<path d="M128.061 38.8482H121.917V40.9362H128.061V38.8482ZM127.269 53.2962H137.661V54.3762H127.269V53.2962ZM127.269 50.6562H137.661V51.6882H127.269V50.6562ZM127.269 48.0162H137.661V49.0482H127.269V48.0162ZM140.565 56.0562V46.3122H124.509V56.0562H127.965C126.285 56.8962 123.717 57.6162 121.413 58.0482C122.037 58.5282 123.045 59.5842 123.525 60.1362C125.949 59.4642 129.045 58.2642 131.013 57.0162L128.925 56.0562H135.693L134.229 57.2322C136.605 58.0962 139.101 59.2722 140.469 60.0642L143.037 58.5282C141.621 57.8322 139.269 56.8722 137.061 56.0562H140.565ZM136.413 41.6802V41.2002H139.077C138.813 41.7042 138.501 42.2082 138.237 42.5922L140.445 43.4082C141.213 42.4482 142.029 40.9362 142.653 39.6162L140.709 39.0162L140.277 39.1362H133.461C133.605 38.8002 133.749 38.4402 133.869 38.0802L131.373 37.5282C130.821 39.1602 129.837 40.7442 128.565 41.8002C129.165 42.1362 130.221 42.8322 130.677 43.2642C131.277 42.7122 131.853 41.9922 132.357 41.2002H133.797V41.5602C133.797 42.4482 133.197 43.5282 128.613 44.0082V42.5442H121.365V44.7282H127.725C128.109 45.2322 128.493 45.8322 128.685 46.2882C132.717 45.8322 134.709 44.8962 135.621 43.8402C137.133 45.1602 139.221 45.9282 141.909 46.2642C142.245 45.5682 142.917 44.5362 143.493 43.9842C140.253 43.8162 137.709 43.2162 136.413 41.9442V41.6802Z" stroke="#00E0B8" stroke-width="1.5" stroke-linejoin="round" mask="url(#path-1-outside-1_551_1354)"/>
<path d="M156.261 41.1522V43.1442H154.485V41.1522H156.261ZM154.485 47.2722V45.1602H156.261V47.2722H154.485ZM161.229 46.9602C161.517 45.1602 161.781 43.0482 161.997 41.2002H162.789C162.741 42.9042 162.645 44.8722 162.285 46.9602H161.229ZM164.973 57.5442C164.829 57.5442 164.685 57.4962 164.637 57.4242C164.565 57.3522 164.541 57.1842 164.541 57.0642V50.3922H163.845C163.941 50.0322 164.037 49.6242 164.133 49.2402H167.421V46.9602H164.541C164.853 44.8722 164.949 42.9042 164.997 41.2002H167.205V38.8002H158.949V41.2002H159.765C159.549 43.8642 159.165 47.1762 158.781 49.2402H161.805C161.349 51.0162 160.677 52.8162 159.693 54.5442C159.165 53.3442 158.109 51.4962 157.293 50.0802L155.541 50.9682C155.877 51.5442 156.213 52.2162 156.549 52.8642L154.485 53.9922V49.5522H158.277V38.8722H152.325V49.4322C151.773 48.3762 150.525 46.0482 150.117 45.4242V45.0882H151.965V42.4962H150.117V37.6722H147.645V42.4962H145.413V45.0882H147.645V45.1842C147.117 48.0402 146.037 51.4482 144.837 53.4642C145.245 54.1362 145.869 55.1682 146.133 55.9362C146.661 55.0002 147.189 53.8002 147.645 52.4562V60.0642H150.117V49.5042C150.501 50.4882 150.885 51.4722 151.101 52.1922L152.325 50.2002V53.7522C152.325 54.9042 151.653 55.8162 151.221 56.2002C151.605 56.5842 152.301 57.5202 152.517 58.0482C152.925 57.5682 153.549 56.9922 157.413 54.6642C157.605 55.0962 157.773 55.5042 157.893 55.8402L159.477 54.9282C158.661 56.2722 157.677 57.5682 156.453 58.7442C157.101 59.0562 158.013 59.7522 158.469 60.1602C160.221 58.3842 161.493 56.4162 162.429 54.3762V57.2082C162.429 58.5282 162.549 58.8882 162.909 59.2722C163.245 59.6322 163.773 59.7762 164.325 59.7762H165.381C165.813 59.7762 166.245 59.6322 166.557 59.4162C166.869 59.1762 167.061 58.8162 167.205 58.3362C167.325 57.7842 167.421 56.4402 167.445 55.2402C166.965 55.0722 166.365 54.7362 166.005 54.4722C166.029 55.5522 166.005 56.5122 165.957 56.8722C165.909 57.1362 165.837 57.3282 165.741 57.4242C165.669 57.5202 165.525 57.5442 165.357 57.5442H164.973Z" stroke="#00E0B8" stroke-width="1.5" stroke-linejoin="round" mask="url(#path-1-outside-1_551_1354)"/>
<path d="M176.589 40.0722C175.629 39.2562 173.661 38.2962 172.173 37.7442L170.613 39.8802C172.125 40.5042 174.045 41.5602 174.909 42.4002L176.589 40.0722ZM175.293 46.5282C174.261 45.7362 172.173 44.7762 170.589 44.2482L169.125 46.3842C170.709 47.0322 172.749 48.0882 173.709 48.9282L175.293 46.5282ZM174.837 50.1762C173.325 53.0562 171.357 56.1762 169.989 58.0482L172.413 59.8002C173.949 57.4242 175.557 54.5682 176.925 51.9282L174.837 50.1762ZM180.357 41.3682H187.341V46.3122H180.357V41.3682ZM187.557 57.3042C187.149 57.3042 187.077 57.2082 187.077 56.4162V48.9522H190.269V38.7282H177.573V48.9522H179.589C179.445 53.4402 179.109 56.2002 175.005 57.8082C175.629 58.3362 176.421 59.4162 176.733 60.1122C181.509 58.0482 182.181 54.4002 182.397 48.9522H184.221V56.4402C184.221 59.0082 184.749 59.8722 187.053 59.8722H188.901C190.821 59.8722 191.469 58.8162 191.709 55.0482C190.989 54.8322 189.789 54.3762 189.213 53.9202C189.141 56.8002 189.069 57.3042 188.637 57.3042H187.557Z" stroke="#00E0B8" stroke-width="1.5" stroke-linejoin="round" mask="url(#path-1-outside-1_551_1354)"/>
<path d="M203.997 45.7842C204.453 46.2642 204.933 46.9362 205.149 47.4162C205.317 47.3442 205.485 47.2482 205.653 47.1762C205.365 48.8802 204.789 50.6322 203.997 51.8562V45.7842ZM200.301 51.7122V49.7202H201.669V51.7122H200.301ZM197.061 49.7202H198.429V51.7122H197.037C197.061 51.1602 197.061 50.6322 197.061 50.1282V49.7202ZM199.581 42.0642C199.365 42.6642 199.149 43.2882 198.909 43.8162H196.845C197.133 43.2642 197.397 42.6642 197.661 42.0642H199.581ZM200.301 45.9042H201.669V47.7042H200.301V45.9042ZM197.061 45.9042H198.429V47.7042H197.061V45.9042ZM215.613 53.5842H211.533V51.4242H215.133V49.0242H211.533V46.8642H208.821V49.0242H207.645C207.789 48.5202 207.885 47.9922 207.981 47.4882L205.845 47.0562C208.293 45.7122 209.205 43.7202 209.613 41.2242H212.397C212.301 43.2162 212.181 44.0322 211.965 44.2962C211.797 44.5122 211.605 44.5602 211.317 44.5602C210.981 44.5602 210.333 44.5362 209.589 44.4642C209.949 45.0642 210.189 46.0242 210.237 46.7682C211.197 46.7922 212.133 46.7682 212.661 46.6962C213.261 46.6002 213.717 46.4082 214.125 45.9042C214.653 45.2802 214.845 43.6242 214.965 39.8082C214.989 39.4962 215.013 38.8962 215.013 38.8962H204.357V41.2242H207.045C206.709 42.9762 205.989 44.3682 203.997 45.2802V43.8162H201.309C201.813 42.8322 202.293 41.7282 202.629 40.7922L200.997 39.7842L200.637 39.9042H198.453C198.645 39.3522 198.813 38.7762 198.957 38.2002L196.437 37.6722C195.789 40.4802 194.517 43.2882 192.885 45.0402C193.389 45.3762 194.277 46.0962 194.757 46.5762V50.1282C194.757 52.8162 194.637 56.3922 193.029 58.8642C193.557 59.1042 194.589 59.7522 194.997 60.1362C196.101 58.4082 196.653 56.0802 196.893 53.8242H201.669V57.2802C201.669 57.5922 201.549 57.6882 201.261 57.6882C200.973 57.6882 200.037 57.6882 199.077 57.6402C199.437 58.2882 199.821 59.3682 199.893 60.0642C201.357 60.0642 202.341 59.9922 203.085 59.5842C203.805 59.1762 203.997 58.4562 203.997 57.3282V52.2642C204.597 52.5282 205.461 52.9842 205.869 53.2722C206.229 52.7442 206.541 52.1202 206.829 51.4242H208.821V53.5842H204.381V56.0322H208.821V59.9922H211.533V56.0322H215.613V53.5842Z" stroke="#00E0B8" stroke-width="1.5" stroke-linejoin="round" mask="url(#path-1-outside-1_551_1354)"/>
<path d="M226.701 50.4402C226.269 49.8162 224.421 47.2962 223.533 46.2162V45.3042H226.797V42.6162H223.533V37.6722H220.797V42.6162H217.557V45.3042H220.485C219.765 48.1362 218.421 51.4002 216.909 53.2962C217.341 54.0162 217.989 55.1442 218.253 55.9602C219.213 54.6642 220.077 52.7922 220.797 50.7522V60.0642H223.533V49.7922C224.133 50.8482 224.709 51.9522 225.045 52.6962L226.701 50.4402ZM239.565 45.7362H230.493V42.3522C233.181 41.8482 236.013 41.1042 238.269 40.1682L235.869 37.9122C233.925 38.8722 230.733 39.7602 227.781 40.3122V47.3922C227.781 50.7762 227.589 55.4082 225.405 58.6002C226.077 58.8642 227.253 59.5842 227.781 60.0162C229.893 56.8962 230.397 52.0722 230.493 48.4242H233.637V60.0642H236.469V48.4242H239.565V45.7362Z" stroke="#00E0B8" stroke-width="1.5" stroke-linejoin="round" mask="url(#path-1-outside-1_551_1354)"/>
</svg>
