<svg width="268" height="92" viewBox="0 0 268 92" fill="none" xmlns="http://www.w3.org/2000/svg">
<path d="M238.375 5.5H66.2501V40.375H238.375V5.5Z" fill="#00E0B8"/>
<path d="M50.5329 39.5328H266.467V87.4672H50.5329V39.5328Z" fill="white" stroke="#00E0B8" stroke-width="1.06567"/>
<path d="M267.368 39.25H253V87.5427H267.368V39.25Z" fill="#00E0B8"/>
<path d="M46.3032 83.2103C66.979 83.2103 83.74 66.5657 83.74 46.0336C83.74 25.5015 66.979 8.85693 46.3032 8.85693C25.6275 8.85693 8.86649 25.5015 8.86649 46.0336C8.86649 66.5657 25.6275 83.2103 46.3032 83.2103Z" fill="white"/>
<path d="M46.2851 44.8188C46.5799 44.8161 46.8655 44.9203 47.0885 45.1118C47.3115 45.3034 47.4564 45.5691 47.4962 45.8592H53.6004C53.5377 43.9677 52.7347 42.175 51.362 40.8621C49.9894 39.5492 48.1554 38.8196 46.2497 38.8282C44.3439 38.8368 42.5167 39.583 41.1562 40.9083C39.7956 42.2335 39.0091 44.0333 38.9637 45.9253H45.0679C45.0923 45.6222 45.2315 45.3396 45.4573 45.1343C45.6832 44.929 45.9789 44.8163 46.2851 44.8188V44.8188Z" fill="url(#paint0_linear_507_936)"/>
<path d="M46.2851 47.2602C45.9912 47.263 45.7063 47.1597 45.4835 46.9694C45.2606 46.7791 45.1151 46.5148 45.0739 46.2258H38.9697C39.0325 48.1173 39.8355 49.91 41.2081 51.2228C42.5807 52.5357 44.4148 53.2654 46.3205 53.2568C48.2262 53.2482 50.0535 52.502 51.414 51.1767C52.7745 49.8515 53.5611 48.0517 53.6065 46.1597L47.5084 46.1897C47.4752 46.4874 47.3315 46.762 47.1053 46.96C46.879 47.1579 46.5866 47.265 46.2851 47.2602V47.2602Z" fill="url(#paint1_linear_507_936)"/>
<path d="M46.176 19.868C40.9634 19.8918 35.8749 21.4502 31.5542 24.346C27.2335 27.2418 23.8745 31.345 21.9022 36.1366C19.9298 40.9282 19.4326 46.1931 20.4735 51.2653C21.5144 56.3376 24.0466 60.9894 27.7499 64.6324C31.4531 68.2754 36.1611 70.7461 41.2784 71.7319C46.3957 72.7178 51.6925 72.1744 56.4988 70.1707C61.3052 68.167 65.4052 64.7929 68.2804 60.4751C71.1557 56.1573 72.6769 51.0897 72.6518 45.9133C72.636 42.4767 71.9385 39.0768 70.5993 35.9079C69.2601 32.739 67.3054 29.8631 64.8468 27.4444C62.3882 25.0258 59.4739 23.1119 56.2703 21.8119C53.0668 20.5119 49.6367 19.8514 46.176 19.868V19.868ZM29.8255 62.0601C29.6498 61.8917 29.3773 61.6572 29.0624 61.3264C28.1537 60.3978 27.3289 59.3917 26.5977 58.3196C25.5073 56.7188 24.6396 54.9791 24.018 53.1478C22.45 48.6127 22.4266 43.6915 23.9514 39.1419C24.5563 37.3019 25.4099 35.552 26.4887 33.94C27.2046 32.8683 28.0153 31.862 28.911 30.9332C29.2199 30.6024 29.5166 30.3679 29.662 30.1935L29.9284 29.9409L29.6862 30.2236C29.5348 30.41 29.2926 30.6626 29.0079 31.0234C28.2058 32.0239 27.4811 33.0834 26.84 34.1926C25.8958 35.8252 25.1556 37.5659 24.6357 39.3764C23.3393 43.8121 23.3603 48.5252 24.6962 52.9493C25.2366 54.7573 25.995 56.4938 26.955 58.1211C27.6052 59.2241 28.3401 60.2756 29.1533 61.2663C29.4379 61.6211 29.6801 61.8676 29.8376 62.0601L30.0798 62.3367L29.8255 62.0601ZM31.3333 59.3118L30.861 58.8427C30.6854 58.6804 30.534 58.4579 30.3463 58.2414L29.7407 57.5318L29.4318 57.1469L29.1412 56.7079C28.6894 56.066 28.2846 55.3928 27.93 54.6933C27.7483 54.3144 27.5182 53.9356 27.3608 53.4906L26.9066 52.2217C25.5143 48.2725 25.4844 43.9757 26.8218 40.0078C26.9853 39.5628 27.1488 39.1298 27.3063 38.7089C27.4637 38.2879 27.6878 37.903 27.8695 37.5061C28.2205 36.8009 28.6254 36.1234 29.0806 35.4795C29.1775 35.3292 29.2683 35.1788 29.3652 35.0405L29.6741 34.6436L30.2433 33.934C30.4007 33.7254 30.5684 33.5246 30.7459 33.3326L31.2183 32.8576L32.0903 31.9916C32.0903 31.9916 31.8178 32.3344 31.3152 32.9478L30.9034 33.4589C30.7459 33.6393 30.6188 33.8679 30.4553 34.1024L29.9345 34.8782L29.668 35.2871L29.4258 35.7381C29.0399 36.3978 28.7 37.083 28.4084 37.7888C28.257 38.1677 28.0632 38.5465 27.93 38.9615L27.5122 40.2424C26.3874 44.0844 26.4063 48.1676 27.5667 51.9992L27.9845 53.2741C28.1238 53.695 28.3236 54.0679 28.475 54.4467C28.7711 55.1498 29.1172 55.831 29.5106 56.4854L29.7589 56.9364L30.0314 57.3393L30.534 58.079C30.6975 58.3075 30.8247 58.536 30.9821 58.7164L31.406 59.2216L32.1872 60.1778L31.3333 59.3118ZM33.5679 57.3153L33.1622 56.9244C33.0108 56.78 32.8836 56.5996 32.7262 56.4192L32.2296 55.8179L31.9631 55.4931L31.7149 55.1203C31.3303 54.5766 30.9862 54.0058 30.6854 53.4124C30.5279 53.0876 30.3281 52.7689 30.1888 52.4081C30.0495 52.0473 29.9102 51.6804 29.7589 51.3076C29.1866 49.6352 28.8821 47.8839 28.8565 46.1178C28.8699 44.3505 29.1579 42.5959 29.7104 40.9159L30.1343 39.8094C30.2675 39.4486 30.4613 39.1298 30.6127 38.8051C30.9106 38.2087 31.2506 37.634 31.6301 37.0852L31.8723 36.7123L32.1388 36.3816C32.3083 36.1651 32.4718 35.9666 32.6293 35.7802C32.7658 35.6026 32.9114 35.432 33.0653 35.269L33.465 34.8721L34.2159 34.1385L33.5679 34.9623L33.2167 35.3953C33.0835 35.5517 32.9805 35.7501 32.8473 35.9426C32.7141 36.135 32.5748 36.3515 32.4294 36.58L32.1993 36.9228L31.9995 37.3077C31.6775 37.8693 31.3943 38.452 31.1517 39.0517C31.0245 39.3764 30.861 39.6951 30.752 40.0439C30.643 40.3927 30.5219 40.7596 30.4068 41.1324C29.47 44.3871 29.4868 47.8395 30.4553 51.0851C30.5764 51.4519 30.6914 51.8127 30.8065 52.1675C30.9216 52.5223 31.0851 52.8351 31.2183 53.1598C31.4673 53.7548 31.7545 54.3333 32.0782 54.8917L32.2902 55.2766L32.5142 55.6194L32.9624 56.2448C33.1016 56.4373 33.2106 56.6357 33.3439 56.7921L33.6951 57.219L34.3249 58.0489L33.5679 57.3153ZM35.8267 55.3187C35.5701 55.0944 35.3331 54.849 35.1182 54.585L34.7064 54.0979L34.4763 53.8393L34.2704 53.5326C33.9442 53.0895 33.6546 52.621 33.4044 52.1315C33.2712 51.8608 33.1077 51.5962 32.9926 51.3076L32.6353 50.3935C32.1513 49.0141 31.8937 47.5664 31.8723 46.1057C31.8839 44.6458 32.1271 43.1967 32.593 41.812L32.9442 40.8979C33.0592 40.6032 33.2167 40.3386 33.3499 40.074C33.5965 39.5825 33.8799 39.1101 34.1977 38.6608L34.4036 38.3541L34.6216 38.0835L35.0334 37.5903C35.2462 37.3265 35.479 37.0792 35.7298 36.8507L36.3354 36.2493L35.8086 36.9349C35.5847 37.1907 35.3821 37.4642 35.203 37.7527L34.8639 38.2759L34.6822 38.5585L34.5187 38.8773C34.2585 39.3407 34.0299 39.8208 33.8344 40.3145C33.7314 40.5792 33.5982 40.8437 33.5134 41.1324C33.4286 41.4211 33.3318 41.7338 33.2409 42.0224C32.4938 44.6876 32.5064 47.5065 33.2772 50.165L33.5619 51.055C33.6527 51.3437 33.7859 51.6083 33.8889 51.8729C34.0908 52.362 34.3234 52.838 34.5853 53.2981L34.7549 53.6168L34.9365 53.8995L35.2817 54.4227C35.4627 54.7062 35.6651 54.9755 35.8873 55.2285C36.2264 55.6675 36.4202 55.9081 36.4202 55.9081L35.8267 55.3187ZM38.0795 53.3222C37.8748 53.1492 37.6844 52.9602 37.5102 52.7569L37.1772 52.378L37.0015 52.1675L36.832 51.933C36.5718 51.5844 36.339 51.2165 36.1356 50.8325C36.0125 50.6244 35.9013 50.4095 35.8025 50.189L35.5118 49.4734C35.1263 48.3849 34.9218 47.2414 34.9063 46.0877C34.9254 44.9323 35.1299 43.7874 35.5118 42.696L35.7965 41.9803C35.8933 41.7458 36.0205 41.5353 36.1235 41.3309C36.3238 40.9458 36.5526 40.5759 36.8078 40.2243L36.9713 39.9838L37.1529 39.7733L37.48 39.3945C37.6475 39.1781 37.8339 38.9768 38.0371 38.7931L38.5397 38.336L38.14 38.8773C37.98 39.0849 37.8323 39.3018 37.698 39.5268L37.4376 39.9417L37.2983 40.1702L37.1772 40.4168C36.9798 40.7815 36.8078 41.1593 36.6624 41.5473C36.5837 41.7518 36.4808 41.9623 36.4141 42.1848L36.2082 42.8824C35.639 44.9574 35.639 47.1458 36.2082 49.2208L36.4202 49.9124C36.4929 50.1409 36.5958 50.3454 36.6745 50.5559C36.8223 50.941 36.9984 51.3149 37.2014 51.6744L37.3286 51.927L37.4678 52.1495L37.7282 52.5644C37.859 52.7993 38.0068 53.0243 38.1703 53.238L38.576 53.7792L38.0795 53.3222ZM47.2116 54.3686C45.4782 54.554 43.7295 54.202 42.2057 53.3609C40.6819 52.5198 39.4577 51.2307 38.7013 49.6709C37.9449 48.111 37.6934 46.3569 37.9813 44.6494C38.2692 42.9418 39.0824 41.3647 40.3092 40.1346C41.536 38.9045 43.1162 38.0818 44.8328 37.7794C46.5495 37.4771 48.3182 37.71 49.8962 38.446C51.4742 39.1821 52.784 40.3853 53.6457 41.8903C54.5074 43.3954 54.8787 45.1284 54.7086 46.8514C54.5125 48.7677 53.6607 50.5592 52.2953 51.9272C50.9299 53.2952 49.1334 54.1569 47.2055 54.3686H47.2116ZM55.6896 52.0833L55.514 52.2938L55.187 52.6787C55.013 52.882 54.8248 53.0729 54.6238 53.25L54.1212 53.707L54.5209 53.1598C54.6866 52.9549 54.8364 52.7377 54.969 52.5103L55.2233 52.0954L55.3626 51.8729L55.4898 51.6203C55.6836 51.2559 55.8555 50.8804 56.0045 50.4957C56.0833 50.2853 56.1802 50.0808 56.2468 49.8523C56.3134 49.6237 56.3861 49.3952 56.4527 49.1547C56.7224 48.1193 56.8627 47.0549 56.8705 45.9855C56.8502 44.915 56.6997 43.8509 56.4224 42.8162L56.2104 42.1247C56.1438 41.8961 56.0409 41.6917 55.9622 41.4872C55.8093 41.1023 55.6333 40.7267 55.4353 40.3626L55.3081 40.1161C55.2597 40.0379 55.2112 39.9657 55.1688 39.8876C55.1265 39.8094 54.9872 39.6049 54.9084 39.4786C54.7735 39.2532 54.6217 39.0381 54.4543 38.8352L54.0485 38.2939L54.5572 38.745C54.7613 38.9166 54.9497 39.1058 55.1204 39.3103L55.4535 39.6891L55.6351 39.8996L55.7986 40.1341C56.0588 40.4827 56.2917 40.8506 56.4951 41.2346C56.598 41.4391 56.7312 41.6496 56.8281 41.8781C56.925 42.1066 57.0159 42.3532 57.1188 42.5997C57.924 44.7843 57.9347 47.1796 57.1491 49.3712L56.8645 50.0928C56.7736 50.3213 56.6465 50.5318 56.5374 50.7423C56.3402 51.1272 56.1113 51.4953 55.8531 51.8428L55.6896 52.0833ZM58.0029 53.9897L57.5972 54.4828C57.3842 54.7484 57.1492 54.9958 56.8947 55.2225L56.2892 55.8239L56.816 55.1383C57.0366 54.882 57.2389 54.6107 57.4216 54.3265L57.7547 53.7972L57.9424 53.5146C57.9908 53.4124 58.0453 53.3041 58.1059 53.1959C58.3616 52.7332 58.5881 52.2552 58.7841 51.7646C58.8871 51.494 59.0203 51.2354 59.1051 50.9407L59.3837 50.0507C60.1329 47.3855 60.1182 44.5655 59.3413 41.9082L59.0627 41.0181C58.9719 40.7295 58.8386 40.4709 58.7296 40.2063C58.5315 39.7136 58.2987 39.2354 58.0332 38.775L57.8697 38.4623L57.682 38.1737L57.3429 37.6565C57.1625 37.3707 56.96 37.0993 56.7373 36.8446L56.2104 36.1651L56.816 36.7665C57.0712 36.9922 57.3081 37.2375 57.5245 37.5001L57.9363 37.9873L58.1604 38.2579L58.3663 38.5585C58.6883 39.0054 58.9757 39.4758 59.2262 39.9657C59.3594 40.2303 59.5229 40.4949 59.638 40.7896C59.7531 41.0843 59.8802 41.391 60.0013 41.6977C60.996 44.4705 61.0109 47.4969 60.0437 50.2792C59.9226 50.5919 59.8015 50.8806 59.6925 51.1933C59.5835 51.506 59.4139 51.7526 59.2868 52.0232C59.0383 52.513 58.7528 52.9834 58.4329 53.4304C58.3683 53.5387 58.3017 53.6409 58.2331 53.7371L58.0029 53.9897ZM60.0074 56.2869C59.8724 56.4657 59.7268 56.6364 59.5714 56.7981L59.1717 57.195L58.3966 57.9287L59.0506 57.1108L59.3958 56.6718C59.5321 56.4972 59.6574 56.3144 59.7712 56.1245C59.8964 55.9281 60.0357 55.7176 60.1891 55.4931L60.4131 55.1443L60.619 54.7594C60.9386 54.1986 61.2218 53.6181 61.4668 53.0215C61.594 52.6968 61.7575 52.378 61.8665 52.0232L62.2056 50.9347C62.654 49.3121 62.8861 47.638 62.896 45.9554C62.8695 44.2731 62.6232 42.6014 62.1633 40.9821L61.806 39.9056C61.697 39.5508 61.5274 39.2321 61.4002 38.9073C61.1494 38.3121 60.8601 37.7336 60.5343 37.1754L60.3284 36.7905L60.0982 36.4477L59.6743 35.8163C59.5592 35.6292 59.4339 35.4485 59.2989 35.2751L58.9476 34.8421L58.2876 34.0242L59.0445 34.7519L59.4503 35.1488C59.6063 35.3095 59.7539 35.4781 59.8923 35.6539L60.3829 36.2553L60.6554 36.5861C60.7341 36.7063 60.8189 36.8266 60.8976 36.9529C61.2856 37.4976 61.6317 38.0705 61.9331 38.6668C62.0906 38.9855 62.2844 39.3103 62.4237 39.6651L62.8536 40.7716C64.0479 44.1291 64.065 47.7889 62.9021 51.1572C62.7628 51.5361 62.6174 51.909 62.4842 52.2638C62.351 52.6186 62.1572 52.9493 61.9997 53.2741C61.7051 53.8722 61.365 54.4472 60.9824 54.994L60.7401 55.3668L60.4798 55.6976L60.0074 56.2869ZM61.9089 58.6924L61.4426 59.1615L60.5645 60.0334L61.3397 59.0713L61.7575 58.5661C61.915 58.3797 62.0421 58.1512 62.1996 57.9226L62.6962 57.1769L62.9687 56.774L63.2109 56.317C63.5923 55.6579 63.9301 54.9749 64.2222 54.2723C64.3736 53.8875 64.5735 53.5086 64.7006 53.0696L65.1124 51.7887C66.2219 47.9568 66.2029 43.8895 65.0579 40.068L64.634 38.7931C64.5008 38.3781 64.3009 37.9993 64.1435 37.5903C63.8444 36.8897 63.5005 36.2088 63.114 35.5517C63.0292 35.4014 62.9445 35.251 62.8657 35.1007C62.787 34.9503 62.678 34.8301 62.5932 34.6978L62.0845 33.9581C61.9466 33.7378 61.7971 33.5251 61.6364 33.3206L61.2186 32.8155C60.7159 32.2141 60.4313 31.8653 60.4313 31.8653L61.3155 32.7253L61.7878 33.1943C61.9712 33.3845 62.1431 33.5853 62.3025 33.7957C62.4842 34.0122 62.678 34.2467 62.9081 34.4993L63.223 34.8842L63.5076 35.3232C63.9603 35.9645 64.3651 36.6378 64.7188 37.3378C64.9065 37.7226 65.1306 38.1015 65.2941 38.5405C65.4576 38.9795 65.6211 39.4005 65.7907 39.8395C67.1746 43.7852 67.1959 48.0762 65.8512 52.0352L65.3607 53.3402C65.2033 53.7612 64.9792 54.14 64.8036 54.543C64.4573 55.2446 64.0627 55.9218 63.6227 56.5696L63.3381 57.0086L63.0292 57.3995L62.46 58.1091C62.2117 58.3135 62.0603 58.53 61.8847 58.7044L61.9089 58.6924ZM66.148 58.1211C65.4332 59.1936 64.6224 60.2 63.7256 61.1279C63.4107 61.4647 63.1201 61.6993 62.9747 61.8676L62.7083 62.1202L62.9444 61.8436C63.1019 61.6572 63.3441 61.3986 63.6227 61.0377C64.4291 60.0424 65.1541 58.9846 65.7907 57.8745C66.7359 56.2396 67.4781 54.497 68.001 52.6847C69.2995 48.249 69.2764 43.5347 67.9344 39.1118C67.3851 37.3223 66.6228 35.6042 65.6635 33.9941C65.0146 32.8884 64.2796 31.8348 63.4652 30.843C63.1806 30.4882 62.9323 30.2416 62.7809 30.0492L62.5387 29.7725L62.8052 30.0251C62.9747 30.1935 63.2472 30.422 63.5621 30.7588C65.8376 33.0777 67.5631 35.8719 68.6126 38.9374C70.1722 43.4739 70.1956 48.3924 68.6793 52.9433C68.072 54.7786 67.2186 56.5242 66.1419 58.1331L66.148 58.1211Z" fill="url(#paint2_linear_507_936)"/>
<mask id="path-8-outside-1_507_936" maskUnits="userSpaceOnUse" x="6.10352e-05" y="0" width="93" height="92" fill="black">
<rect fill="white" x="6.10352e-05" width="93" height="92"/>
<path d="M87.652 40.0078C86.7423 39.6478 85.9292 39.0829 85.2769 38.3575C84.6246 37.6322 84.1509 36.7663 83.8931 35.8281C83.6353 34.8899 83.6006 33.905 83.7915 32.9512C83.9825 31.9974 84.394 31.1007 84.9935 30.3318V30.3318C85.7645 29.3422 86.2202 28.1465 86.3021 26.898C86.3841 25.6495 86.0885 24.4052 85.4534 23.3247C84.8182 22.2442 83.8724 21.3767 82.7374 20.8337C81.6024 20.2906 80.3299 20.0967 79.0831 20.2769V20.2769C78.1144 20.4185 77.1258 20.3342 76.1955 20.0309C75.2652 19.7275 74.4188 19.2133 73.7232 18.5289C73.0276 17.8446 72.5019 17.0089 72.1877 16.0879C71.8736 15.167 71.7795 14.1861 71.9131 13.2228C72.0823 11.9833 71.8747 10.7218 71.3171 9.6002C70.7595 8.47858 69.8772 7.54792 68.7834 6.9276C67.6896 6.30728 66.4342 6.02556 65.178 6.11857C63.9219 6.21158 62.7224 6.67508 61.7333 7.44963V7.44963C60.9652 8.05215 60.0665 8.46913 59.1082 8.66764C58.15 8.86615 57.1584 8.84077 56.2117 8.5935C55.2651 8.34623 54.3892 7.88384 53.6533 7.24282C52.9174 6.6018 52.3417 5.7997 51.9714 4.89983V4.89983C51.4941 3.74194 50.6793 2.75208 49.6316 2.05724C48.5839 1.36239 47.351 0.994252 46.0911 1.00007C44.8312 1.00588 43.6018 1.3854 42.5606 2.08989C41.5194 2.79437 40.7139 3.79171 40.2475 4.95395V4.95395C39.8864 5.85383 39.3203 6.65843 38.5936 7.30465C37.8669 7.95087 36.9993 8.42116 36.059 8.67865C35.1186 8.93614 34.1309 8.97382 33.1734 8.78877C32.2159 8.60371 31.3146 8.20094 30.5401 7.61201C29.5436 6.84638 28.3396 6.39385 27.0823 6.31248C25.8251 6.23112 24.5721 6.52464 23.484 7.15537C22.3959 7.78611 21.5224 8.72529 20.9756 9.85243C20.4287 10.9796 20.2334 12.2433 20.4148 13.4814C20.555 14.4435 20.4684 15.4248 20.1616 16.3479C19.8549 17.2711 19.3365 18.1109 18.6472 18.8012C17.9579 19.4915 17.1167 20.0134 16.1897 20.3258C15.2627 20.6383 14.2753 20.7327 13.3054 20.6016V20.6016C12.0567 20.4319 10.7855 20.637 9.65522 21.1906C8.52492 21.7441 7.58722 22.6208 6.96272 23.7079C6.33822 24.7949 6.05547 26.0427 6.15084 27.2906C6.24621 28.5385 6.71533 29.7296 7.49788 30.7106V30.7106C8.10446 31.4738 8.52406 32.3667 8.72354 33.3185C8.92303 34.2704 8.89694 35.2554 8.64733 36.1955C8.39772 37.1357 7.93144 38.0054 7.28529 38.7358C6.63914 39.4663 5.83083 40.0377 4.92418 40.4047V40.4047C3.75843 40.8793 2.76205 41.6889 2.06288 42.7297C1.36371 43.7706 0.993638 44.9951 1.00015 46.2462C1.00665 47.4974 1.38944 48.718 2.0994 49.7516C2.80936 50.7852 3.81411 51.5846 4.98474 52.0472V52.0472C5.89433 52.4065 6.70738 52.9707 7.35973 53.6955C8.01207 54.4203 8.48585 55.2857 8.74366 56.2235C9.00147 57.1613 9.03626 58.1457 8.84529 59.0991C8.65431 60.0525 8.24279 60.9488 7.64322 61.7172C6.86965 62.7056 6.41159 63.9012 6.32797 65.1502C6.24434 66.3993 6.53898 67.6446 7.17398 68.726C7.80897 69.8073 8.75527 70.6753 9.89112 71.2182C11.027 71.761 12.3004 71.954 13.5476 71.7721V71.7721C14.5169 71.6319 15.5057 71.7172 16.4361 72.0213C17.3665 72.3255 18.2131 72.8401 18.9089 73.5247C19.6047 74.2093 20.1309 75.0451 20.4458 75.9662C20.7608 76.8873 20.8559 77.8684 20.7237 78.8322V78.8322C20.554 80.0711 20.7611 81.3321 21.3183 82.4533C21.8756 83.5746 22.7575 84.5048 23.851 85.1247C24.9445 85.7445 26.1995 86.0257 27.4551 85.9321C28.7106 85.8385 29.9093 85.3744 30.8974 84.5994V84.5994C31.6661 83.9969 32.5652 83.5799 33.5238 83.3814C34.4825 83.1829 35.4745 83.2083 36.4216 83.4555C37.3687 83.7028 38.245 84.1651 38.9815 84.8061C39.7179 85.4471 40.2943 86.2492 40.6653 87.1492C41.148 88.2945 41.9622 89.2719 43.0046 89.9574C44.0471 90.6429 45.271 91.0057 46.5213 90.9999C47.7716 90.9941 48.992 90.6199 50.028 89.9248C51.064 89.2297 51.8689 88.2448 52.3408 87.095C52.7034 86.1916 53.2722 85.3842 54.0027 84.7364C54.7331 84.0886 55.605 83.6182 56.5498 83.3622C57.4945 83.1063 58.4863 83.0717 59.4468 83.2614C60.4073 83.451 61.3103 83.8596 62.0846 84.455V84.455C63.0806 85.22 64.284 85.6723 65.5405 85.7537C66.7971 85.8352 68.0495 85.5422 69.1372 84.9123C70.225 84.2824 71.0986 83.3443 71.646 82.2182C72.1934 81.0921 72.3897 79.8293 72.2098 78.5916V78.5916C72.0675 77.6294 72.1524 76.6476 72.4579 75.7235C72.7634 74.7995 73.2811 73.9587 73.97 73.2675C74.659 72.5763 75.5004 72.0537 76.4277 71.741C77.355 71.4282 78.3429 71.3339 79.3132 71.4654V71.4654C80.5613 71.6354 81.832 71.4307 82.9621 70.8779C84.0922 70.3251 85.03 69.4494 85.6551 68.3632C86.2801 67.277 86.5637 66.0301 86.4696 64.7825C86.3755 63.535 85.9078 62.344 85.1267 61.3624V61.3624C84.52 60.5991 84.1002 59.7062 83.9003 58.7542C83.7004 57.8022 83.726 56.8171 83.9749 55.8766C84.2239 54.9361 84.6894 54.0658 85.3349 53.3345C85.9804 52.6032 86.7881 52.0307 87.6944 51.6623C88.867 51.1938 89.8712 50.3866 90.5768 49.3452C91.2825 48.3037 91.6573 47.076 91.6528 45.8208C91.6482 44.5656 91.2645 43.3405 90.5512 42.3042C89.838 41.2679 88.828 40.4679 87.652 40.0078ZM83.7339 45.8411C83.7686 53.1926 81.6072 60.3893 77.5232 66.521C73.4391 72.6527 67.6158 77.4441 60.7897 80.2892C53.9635 83.1344 46.441 83.9055 39.1735 82.5051C31.906 81.1047 25.2199 77.5956 19.9606 72.4217C14.7014 67.2478 11.1052 60.6413 9.62686 53.4378C8.14852 46.2342 8.85442 38.7571 11.6553 31.9519C14.4562 25.1468 19.2262 19.3192 25.3622 15.2062C31.4982 11.0932 38.7246 8.87939 46.1276 8.84481C56.0541 8.81122 65.5887 12.6896 72.639 19.6289C79.6893 26.5682 83.6794 36.0017 83.7339 45.8591V45.8411Z"/>
</mask>
<path d="M87.652 40.0078C86.7423 39.6478 85.9292 39.0829 85.2769 38.3575C84.6246 37.6322 84.1509 36.7663 83.8931 35.8281C83.6353 34.8899 83.6006 33.905 83.7915 32.9512C83.9825 31.9974 84.394 31.1007 84.9935 30.3318V30.3318C85.7645 29.3422 86.2202 28.1465 86.3021 26.898C86.3841 25.6495 86.0885 24.4052 85.4534 23.3247C84.8182 22.2442 83.8724 21.3767 82.7374 20.8337C81.6024 20.2906 80.3299 20.0967 79.0831 20.2769V20.2769C78.1144 20.4185 77.1258 20.3342 76.1955 20.0309C75.2652 19.7275 74.4188 19.2133 73.7232 18.5289C73.0276 17.8446 72.5019 17.0089 72.1877 16.0879C71.8736 15.167 71.7795 14.1861 71.9131 13.2228C72.0823 11.9833 71.8747 10.7218 71.3171 9.6002C70.7595 8.47858 69.8772 7.54792 68.7834 6.9276C67.6896 6.30728 66.4342 6.02556 65.178 6.11857C63.9219 6.21158 62.7224 6.67508 61.7333 7.44963V7.44963C60.9652 8.05215 60.0665 8.46913 59.1082 8.66764C58.15 8.86615 57.1584 8.84077 56.2117 8.5935C55.2651 8.34623 54.3892 7.88384 53.6533 7.24282C52.9174 6.6018 52.3417 5.7997 51.9714 4.89983V4.89983C51.4941 3.74194 50.6793 2.75208 49.6316 2.05724C48.5839 1.36239 47.351 0.994252 46.0911 1.00007C44.8312 1.00588 43.6018 1.3854 42.5606 2.08989C41.5194 2.79437 40.7139 3.79171 40.2475 4.95395V4.95395C39.8864 5.85383 39.3203 6.65843 38.5936 7.30465C37.8669 7.95087 36.9993 8.42116 36.059 8.67865C35.1186 8.93614 34.1309 8.97382 33.1734 8.78877C32.2159 8.60371 31.3146 8.20094 30.5401 7.61201C29.5436 6.84638 28.3396 6.39385 27.0823 6.31248C25.8251 6.23112 24.5721 6.52464 23.484 7.15537C22.3959 7.78611 21.5224 8.72529 20.9756 9.85243C20.4287 10.9796 20.2334 12.2433 20.4148 13.4814C20.555 14.4435 20.4684 15.4248 20.1616 16.3479C19.8549 17.2711 19.3365 18.1109 18.6472 18.8012C17.9579 19.4915 17.1167 20.0134 16.1897 20.3258C15.2627 20.6383 14.2753 20.7327 13.3054 20.6016V20.6016C12.0567 20.4319 10.7855 20.637 9.65522 21.1906C8.52492 21.7441 7.58722 22.6208 6.96272 23.7079C6.33822 24.7949 6.05547 26.0427 6.15084 27.2906C6.24621 28.5385 6.71533 29.7296 7.49788 30.7106V30.7106C8.10446 31.4738 8.52406 32.3667 8.72354 33.3185C8.92303 34.2704 8.89694 35.2554 8.64733 36.1955C8.39772 37.1357 7.93144 38.0054 7.28529 38.7358C6.63914 39.4663 5.83083 40.0377 4.92418 40.4047V40.4047C3.75843 40.8793 2.76205 41.6889 2.06288 42.7297C1.36371 43.7706 0.993638 44.9951 1.00015 46.2462C1.00665 47.4974 1.38944 48.718 2.0994 49.7516C2.80936 50.7852 3.81411 51.5846 4.98474 52.0472V52.0472C5.89433 52.4065 6.70738 52.9707 7.35973 53.6955C8.01207 54.4203 8.48585 55.2857 8.74366 56.2235C9.00147 57.1613 9.03626 58.1457 8.84529 59.0991C8.65431 60.0525 8.24279 60.9488 7.64322 61.7172C6.86965 62.7056 6.41159 63.9012 6.32797 65.1502C6.24434 66.3993 6.53898 67.6446 7.17398 68.726C7.80897 69.8073 8.75527 70.6753 9.89112 71.2182C11.027 71.761 12.3004 71.954 13.5476 71.7721V71.7721C14.5169 71.6319 15.5057 71.7172 16.4361 72.0213C17.3665 72.3255 18.2131 72.8401 18.9089 73.5247C19.6047 74.2093 20.1309 75.0451 20.4458 75.9662C20.7608 76.8873 20.8559 77.8684 20.7237 78.8322V78.8322C20.554 80.0711 20.7611 81.3321 21.3183 82.4533C21.8756 83.5746 22.7575 84.5048 23.851 85.1247C24.9445 85.7445 26.1995 86.0257 27.4551 85.9321C28.7106 85.8385 29.9093 85.3744 30.8974 84.5994V84.5994C31.6661 83.9969 32.5652 83.5799 33.5238 83.3814C34.4825 83.1829 35.4745 83.2083 36.4216 83.4555C37.3687 83.7028 38.245 84.1651 38.9815 84.8061C39.7179 85.4471 40.2943 86.2492 40.6653 87.1492C41.148 88.2945 41.9622 89.2719 43.0046 89.9574C44.0471 90.6429 45.271 91.0057 46.5213 90.9999C47.7716 90.9941 48.992 90.6199 50.028 89.9248C51.064 89.2297 51.8689 88.2448 52.3408 87.095C52.7034 86.1916 53.2722 85.3842 54.0027 84.7364C54.7331 84.0886 55.605 83.6182 56.5498 83.3622C57.4945 83.1063 58.4863 83.0717 59.4468 83.2614C60.4073 83.451 61.3103 83.8596 62.0846 84.455V84.455C63.0806 85.22 64.284 85.6723 65.5405 85.7537C66.7971 85.8352 68.0495 85.5422 69.1372 84.9123C70.225 84.2824 71.0986 83.3443 71.646 82.2182C72.1934 81.0921 72.3897 79.8293 72.2098 78.5916V78.5916C72.0675 77.6294 72.1524 76.6476 72.4579 75.7235C72.7634 74.7995 73.2811 73.9587 73.97 73.2675C74.659 72.5763 75.5004 72.0537 76.4277 71.741C77.355 71.4282 78.3429 71.3339 79.3132 71.4654V71.4654C80.5613 71.6354 81.832 71.4307 82.9621 70.8779C84.0922 70.3251 85.03 69.4494 85.6551 68.3632C86.2801 67.277 86.5637 66.0301 86.4696 64.7825C86.3755 63.535 85.9078 62.344 85.1267 61.3624V61.3624C84.52 60.5991 84.1002 59.7062 83.9003 58.7542C83.7004 57.8022 83.726 56.8171 83.9749 55.8766C84.2239 54.9361 84.6894 54.0658 85.3349 53.3345C85.9804 52.6032 86.7881 52.0307 87.6944 51.6623C88.867 51.1938 89.8712 50.3866 90.5768 49.3452C91.2825 48.3037 91.6573 47.076 91.6528 45.8208C91.6482 44.5656 91.2645 43.3405 90.5512 42.3042C89.838 41.2679 88.828 40.4679 87.652 40.0078ZM83.7339 45.8411C83.7686 53.1926 81.6072 60.3893 77.5232 66.521C73.4391 72.6527 67.6158 77.4441 60.7897 80.2892C53.9635 83.1344 46.441 83.9055 39.1735 82.5051C31.906 81.1047 25.2199 77.5956 19.9606 72.4217C14.7014 67.2478 11.1052 60.6413 9.62686 53.4378C8.14852 46.2342 8.85442 38.7571 11.6553 31.9519C14.4562 25.1468 19.2262 19.3192 25.3622 15.2062C31.4982 11.0932 38.7246 8.87939 46.1276 8.84481C56.0541 8.81122 65.5887 12.6896 72.639 19.6289C79.6893 26.5682 83.6794 36.0017 83.7339 45.8591V45.8411Z" fill="url(#paint3_linear_507_936)"/>
<path d="M87.652 40.0078C86.7423 39.6478 85.9292 39.0829 85.2769 38.3575C84.6246 37.6322 84.1509 36.7663 83.8931 35.8281C83.6353 34.8899 83.6006 33.905 83.7915 32.9512C83.9825 31.9974 84.394 31.1007 84.9935 30.3318V30.3318C85.7645 29.3422 86.2202 28.1465 86.3021 26.898C86.3841 25.6495 86.0885 24.4052 85.4534 23.3247C84.8182 22.2442 83.8724 21.3767 82.7374 20.8337C81.6024 20.2906 80.3299 20.0967 79.0831 20.2769V20.2769C78.1144 20.4185 77.1258 20.3342 76.1955 20.0309C75.2652 19.7275 74.4188 19.2133 73.7232 18.5289C73.0276 17.8446 72.5019 17.0089 72.1877 16.0879C71.8736 15.167 71.7795 14.1861 71.9131 13.2228C72.0823 11.9833 71.8747 10.7218 71.3171 9.6002C70.7595 8.47858 69.8772 7.54792 68.7834 6.9276C67.6896 6.30728 66.4342 6.02556 65.178 6.11857C63.9219 6.21158 62.7224 6.67508 61.7333 7.44963V7.44963C60.9652 8.05215 60.0665 8.46913 59.1082 8.66764C58.15 8.86615 57.1584 8.84077 56.2117 8.5935C55.2651 8.34623 54.3892 7.88384 53.6533 7.24282C52.9174 6.6018 52.3417 5.7997 51.9714 4.89983V4.89983C51.4941 3.74194 50.6793 2.75208 49.6316 2.05724C48.5839 1.36239 47.351 0.994252 46.0911 1.00007C44.8312 1.00588 43.6018 1.3854 42.5606 2.08989C41.5194 2.79437 40.7139 3.79171 40.2475 4.95395V4.95395C39.8864 5.85383 39.3203 6.65843 38.5936 7.30465C37.8669 7.95087 36.9993 8.42116 36.059 8.67865C35.1186 8.93614 34.1309 8.97382 33.1734 8.78877C32.2159 8.60371 31.3146 8.20094 30.5401 7.61201C29.5436 6.84638 28.3396 6.39385 27.0823 6.31248C25.8251 6.23112 24.5721 6.52464 23.484 7.15537C22.3959 7.78611 21.5224 8.72529 20.9756 9.85243C20.4287 10.9796 20.2334 12.2433 20.4148 13.4814C20.555 14.4435 20.4684 15.4248 20.1616 16.3479C19.8549 17.2711 19.3365 18.1109 18.6472 18.8012C17.9579 19.4915 17.1167 20.0134 16.1897 20.3258C15.2627 20.6383 14.2753 20.7327 13.3054 20.6016V20.6016C12.0567 20.4319 10.7855 20.637 9.65522 21.1906C8.52492 21.7441 7.58722 22.6208 6.96272 23.7079C6.33822 24.7949 6.05547 26.0427 6.15084 27.2906C6.24621 28.5385 6.71533 29.7296 7.49788 30.7106V30.7106C8.10446 31.4738 8.52406 32.3667 8.72354 33.3185C8.92303 34.2704 8.89694 35.2554 8.64733 36.1955C8.39772 37.1357 7.93144 38.0054 7.28529 38.7358C6.63914 39.4663 5.83083 40.0377 4.92418 40.4047V40.4047C3.75843 40.8793 2.76205 41.6889 2.06288 42.7297C1.36371 43.7706 0.993638 44.9951 1.00015 46.2462C1.00665 47.4974 1.38944 48.718 2.0994 49.7516C2.80936 50.7852 3.81411 51.5846 4.98474 52.0472V52.0472C5.89433 52.4065 6.70738 52.9707 7.35973 53.6955C8.01207 54.4203 8.48585 55.2857 8.74366 56.2235C9.00147 57.1613 9.03626 58.1457 8.84529 59.0991C8.65431 60.0525 8.24279 60.9488 7.64322 61.7172C6.86965 62.7056 6.41159 63.9012 6.32797 65.1502C6.24434 66.3993 6.53898 67.6446 7.17398 68.726C7.80897 69.8073 8.75527 70.6753 9.89112 71.2182C11.027 71.761 12.3004 71.954 13.5476 71.7721V71.7721C14.5169 71.6319 15.5057 71.7172 16.4361 72.0213C17.3665 72.3255 18.2131 72.8401 18.9089 73.5247C19.6047 74.2093 20.1309 75.0451 20.4458 75.9662C20.7608 76.8873 20.8559 77.8684 20.7237 78.8322V78.8322C20.554 80.0711 20.7611 81.3321 21.3183 82.4533C21.8756 83.5746 22.7575 84.5048 23.851 85.1247C24.9445 85.7445 26.1995 86.0257 27.4551 85.9321C28.7106 85.8385 29.9093 85.3744 30.8974 84.5994V84.5994C31.6661 83.9969 32.5652 83.5799 33.5238 83.3814C34.4825 83.1829 35.4745 83.2083 36.4216 83.4555C37.3687 83.7028 38.245 84.1651 38.9815 84.8061C39.7179 85.4471 40.2943 86.2492 40.6653 87.1492C41.148 88.2945 41.9622 89.2719 43.0046 89.9574C44.0471 90.6429 45.271 91.0057 46.5213 90.9999C47.7716 90.9941 48.992 90.6199 50.028 89.9248C51.064 89.2297 51.8689 88.2448 52.3408 87.095C52.7034 86.1916 53.2722 85.3842 54.0027 84.7364C54.7331 84.0886 55.605 83.6182 56.5498 83.3622C57.4945 83.1063 58.4863 83.0717 59.4468 83.2614C60.4073 83.451 61.3103 83.8596 62.0846 84.455V84.455C63.0806 85.22 64.284 85.6723 65.5405 85.7537C66.7971 85.8352 68.0495 85.5422 69.1372 84.9123C70.225 84.2824 71.0986 83.3443 71.646 82.2182C72.1934 81.0921 72.3897 79.8293 72.2098 78.5916V78.5916C72.0675 77.6294 72.1524 76.6476 72.4579 75.7235C72.7634 74.7995 73.2811 73.9587 73.97 73.2675C74.659 72.5763 75.5004 72.0537 76.4277 71.741C77.355 71.4282 78.3429 71.3339 79.3132 71.4654V71.4654C80.5613 71.6354 81.832 71.4307 82.9621 70.8779C84.0922 70.3251 85.03 69.4494 85.6551 68.3632C86.2801 67.277 86.5637 66.0301 86.4696 64.7825C86.3755 63.535 85.9078 62.344 85.1267 61.3624V61.3624C84.52 60.5991 84.1002 59.7062 83.9003 58.7542C83.7004 57.8022 83.726 56.8171 83.9749 55.8766C84.2239 54.9361 84.6894 54.0658 85.3349 53.3345C85.9804 52.6032 86.7881 52.0307 87.6944 51.6623C88.867 51.1938 89.8712 50.3866 90.5768 49.3452C91.2825 48.3037 91.6573 47.076 91.6528 45.8208C91.6482 44.5656 91.2645 43.3405 90.5512 42.3042C89.838 41.2679 88.828 40.4679 87.652 40.0078ZM83.7339 45.8411C83.7686 53.1926 81.6072 60.3893 77.5232 66.521C73.4391 72.6527 67.6158 77.4441 60.7897 80.2892C53.9635 83.1344 46.441 83.9055 39.1735 82.5051C31.906 81.1047 25.2199 77.5956 19.9606 72.4217C14.7014 67.2478 11.1052 60.6413 9.62686 53.4378C8.14852 46.2342 8.85442 38.7571 11.6553 31.9519C14.4562 25.1468 19.2262 19.3192 25.3622 15.2062C31.4982 11.0932 38.7246 8.87939 46.1276 8.84481C56.0541 8.81122 65.5887 12.6896 72.639 19.6289C79.6893 26.5682 83.6794 36.0017 83.7339 45.8591V45.8411Z" stroke="white" stroke-width="1.59851" mask="url(#path-8-outside-1_507_936)"/>
<path d="M22.2498 21.6303L23.2732 20.7643L26.5433 23.6208L24.1815 20.0126L25.205 19.1406L29.1412 23.675L28.463 24.2763L25.5017 20.7643L27.924 24.6432L27.3184 25.1603L23.8182 22.1535L26.7976 25.5873L26.1921 26.1225L22.2498 21.6303Z" fill="url(#paint4_linear_507_936)"/>
<path d="M30.2131 21.2151L27.9361 17.2521L28.7597 16.783L31.073 20.8062C31.2849 21.1791 31.5211 21.2211 31.7815 21.0768C32.0419 20.9325 32.1206 20.704 31.9087 20.3311L29.5954 16.308L30.3887 15.8569L32.6657 19.826C33.1441 20.6559 32.9987 21.3655 32.1933 21.8225C31.3879 22.2796 30.6915 22.045 30.2131 21.2151Z" fill="url(#paint5_linear_507_936)"/>
<path d="M34.7004 18.888L34.5793 18.5633L35.421 18.2566L35.5664 18.6475C35.7117 19.0504 35.9418 19.1286 36.2264 19.0263C36.5111 18.9241 36.6382 18.7136 36.4808 18.2987C36.3233 17.8837 36.0266 17.5951 35.2696 17.3004C34.2825 16.9215 33.8708 16.5487 33.6406 15.9052C33.5471 15.7323 33.4941 15.5407 33.4855 15.3447C33.4769 15.1486 33.5129 14.9532 33.5909 14.7728C33.6689 14.5925 33.7868 14.432 33.9359 14.3032C34.085 14.1744 34.2615 14.0807 34.4521 14.0289C35.3181 13.7162 35.9358 14.071 36.2688 14.9731L36.3536 15.2076L35.5119 15.5083L35.4029 15.2197C35.2575 14.8167 35.0395 14.7265 34.7549 14.8288C34.4703 14.931 34.3673 15.1415 34.5066 15.5264C34.6459 15.9112 34.9547 16.1698 35.7178 16.4645C36.6988 16.8434 37.0985 17.2102 37.3528 17.9078C37.6919 18.8279 37.4134 19.5074 36.5353 19.8262C35.6572 20.1449 35.0274 19.7841 34.7004 18.888Z" fill="url(#paint6_linear_507_936)"/>
<path d="M38.5761 12.9044L39.5022 12.7119L40.7673 18.5632L39.8412 18.7557L38.5761 12.9044Z" fill="url(#paint7_linear_507_936)"/>
<path d="M42.7969 16.8192L42.5668 13.6079C42.5419 13.4201 42.5559 13.2293 42.6079 13.0471C42.66 12.8649 42.749 12.6952 42.8695 12.5484C42.99 12.4016 43.1395 12.2809 43.3087 12.1936C43.4779 12.1062 43.6634 12.0542 43.8536 12.0407C44.0438 12.0271 44.2348 12.0523 44.4149 12.1148C44.5949 12.1772 44.7602 12.2755 44.9006 12.4037C45.041 12.5319 45.1535 12.6873 45.2312 12.8602C45.3089 13.0332 45.3502 13.2201 45.3525 13.4094L45.4009 14.0409L44.5047 14.107L44.4562 13.4155C44.4562 13.0246 44.2261 12.8742 43.9415 12.8923C43.6569 12.9103 43.4812 13.0907 43.5115 13.4936L43.7477 16.8312C43.7477 17.2221 43.9778 17.3665 44.2624 17.3424C44.5471 17.3184 44.7227 17.156 44.6924 16.741L44.6318 15.827L45.522 15.7668L45.5826 16.6087C45.6075 16.7965 45.5935 16.9873 45.5415 17.1695C45.4894 17.3517 45.4004 17.5214 45.2799 17.6682C45.1594 17.815 45.0099 17.9358 44.8407 18.0231C44.6715 18.1104 44.486 18.1624 44.2958 18.176C44.1056 18.1895 43.9146 18.1643 43.7345 18.1019C43.5545 18.0394 43.3892 17.9411 43.2488 17.8129C43.1084 17.6847 42.9959 17.5294 42.9182 17.3564C42.8405 17.1835 42.7992 16.9966 42.7969 16.8072V16.8192Z" fill="url(#paint8_linear_507_936)"/>
<path d="M51.8503 12.4595L53.2189 12.7361C54.1515 12.9165 54.5027 13.5179 54.315 14.462L54.1999 15.0634C54.0062 16.0015 53.449 16.4225 52.5225 16.2361L52.0804 16.1519L51.596 18.5574L50.6694 18.3769L51.8503 12.4595ZM52.686 15.3761C52.9827 15.4363 53.1705 15.334 53.2552 14.9131L53.3945 14.2155C53.4793 13.7945 53.3461 13.6141 53.0554 13.572L52.6133 13.4818L52.25 15.2859L52.686 15.3761Z" fill="url(#paint9_linear_507_936)"/>
<path d="M57.5124 13.8604L58.8205 14.3655C59.0121 14.4024 59.1918 14.4847 59.3445 14.6054C59.4972 14.7261 59.6182 14.8817 59.6973 15.0588C59.7764 15.236 59.8112 15.4295 59.7988 15.6229C59.7863 15.8163 59.727 16.0039 59.6259 16.1696L59.4927 16.5124C59.2686 17.1138 58.9416 17.3844 58.4874 17.3904C58.875 17.6971 58.8568 18.1662 58.6085 18.7976L58.227 19.7778C58.1216 20.0023 58.0639 20.2459 58.0574 20.4935L57.1854 20.1627C57.1976 19.9139 57.2615 19.6702 57.3731 19.4471L57.7728 18.4247C57.9727 17.9076 57.8879 17.6791 57.4821 17.5287L57.1794 17.4084L56.2468 19.8139L55.3626 19.4711L57.5124 13.8604ZM57.7789 16.7169C58.1119 16.8431 58.3845 16.777 58.5419 16.332L58.7115 15.899C58.8629 15.5021 58.7962 15.2976 58.4874 15.1533L58.0817 14.9969L57.4761 16.5906L57.7789 16.7169Z" fill="url(#paint10_linear_507_936)"/>
<path d="M60.5585 20.1629L62.1936 17.4687C62.2843 17.2951 62.4099 17.1419 62.5626 17.0184C62.7152 16.8948 62.8918 16.8037 63.0813 16.7506C63.2708 16.6975 63.4693 16.6835 63.6645 16.7095C63.8597 16.7355 64.0474 16.8009 64.2161 16.9018C64.3849 17.0027 64.531 17.1368 64.6455 17.2959C64.76 17.455 64.8404 17.6357 64.8819 17.8269C64.9233 18.0181 64.9248 18.2157 64.8864 18.4075C64.8479 18.5993 64.7703 18.7812 64.6583 18.9421L63.0232 21.6362C62.9325 21.8098 62.8069 21.9631 62.6543 22.0866C62.5016 22.2101 62.325 22.3012 62.1355 22.3544C61.946 22.4075 61.7475 22.4215 61.5523 22.3955C61.3571 22.3695 61.1694 22.304 61.0007 22.2032C60.8319 22.1023 60.6858 21.9682 60.5713 21.8091C60.4568 21.6499 60.3764 21.4692 60.335 21.278C60.2935 21.0868 60.292 20.8893 60.3304 20.6975C60.3689 20.5057 60.4465 20.3237 60.5585 20.1629V20.1629ZM62.1754 21.2032L63.8771 18.4069C64.1012 18.04 64.0224 17.8055 63.7681 17.6491C63.5137 17.4928 63.2594 17.5349 63.0414 17.9017L61.3397 20.6981C61.1157 21.0649 61.1944 21.2995 61.4487 21.4558C61.7031 21.6122 61.9574 21.552 62.1754 21.1852V21.2032Z" fill="url(#paint11_linear_507_936)"/>
<path d="M67.9405 19.5615L69.0305 20.5057C69.7451 21.107 69.7511 21.8167 69.1153 22.5383L67.1169 24.8235C67.0116 24.99 66.8694 25.1304 66.701 25.2338C66.5326 25.3373 66.3426 25.401 66.1455 25.4202C65.9485 25.4393 65.7496 25.4134 65.5643 25.3444C65.3789 25.2753 65.2119 25.165 65.0761 25.022L63.9861 24.0778L67.9405 19.5615ZM65.6272 24.3725C65.8573 24.5649 66.0935 24.5709 66.3781 24.2462L68.431 21.9009C68.7156 21.5761 68.6793 21.3416 68.431 21.1431L68.0676 20.8304L65.2457 24.0598L65.6272 24.3725Z" fill="url(#paint12_linear_507_936)"/>
<path d="M26.5736 67.3823L27.6394 68.2062L25.4775 71.9587L28.5962 68.9519L29.6681 69.7697L25.974 74.5085L25.2655 73.9613L28.0633 70.3531L24.7266 73.5223L24.121 73.0352L26.3737 69.0361L23.576 72.6443L22.9219 72.1391L26.5736 67.3823Z" fill="url(#paint13_linear_507_936)"/>
<path d="M29.2502 74.8452L31.3758 70.792L32.2176 71.225L30.0617 75.3383C29.8619 75.7172 29.9527 75.9397 30.2192 76.078C30.4856 76.2163 30.7157 76.1622 30.9156 75.7834L33.0714 71.67L33.8829 72.085L31.7513 76.1382C31.6753 76.3172 31.5628 76.4787 31.4209 76.6124C31.279 76.7461 31.1107 76.8492 30.9267 76.9152C30.7426 76.9812 30.5469 77.0086 30.3516 76.9957C30.1564 76.9829 29.966 76.93 29.7924 76.8405C29.6187 76.7509 29.4657 76.6267 29.3428 76.4755C29.2199 76.3243 29.1299 76.1495 29.0784 75.962C29.0269 75.7746 29.015 75.5786 29.0436 75.3864C29.0721 75.1942 29.1404 75.0099 29.2442 74.8452H29.2502Z" fill="url(#paint14_linear_507_936)"/>
<path d="M34.1736 77.1368L34.2826 76.812L35.1304 77.0947L34.9972 77.4856C34.8639 77.8885 34.9972 78.0869 35.2818 78.1891C35.5664 78.2914 35.7965 78.1891 35.9358 77.7742C36.0751 77.3593 36.0145 76.9443 35.5967 76.2407C35.0698 75.3326 34.9911 74.7914 35.197 74.1419C35.2318 73.948 35.3104 73.7644 35.4268 73.6049C35.5432 73.4454 35.6945 73.3142 35.8693 73.2211C36.0441 73.1279 36.2379 73.0752 36.4361 73.067C36.6342 73.0589 36.8317 73.0953 37.0137 73.1737C37.8858 73.4624 38.1462 74.1239 37.8434 75.032L37.7646 75.2665L36.9108 74.9899L37.0077 74.6952C37.147 74.2923 37.0077 74.0938 36.7473 73.9856C36.4869 73.8773 36.2507 73.9856 36.1417 74.3825C36.0327 74.7794 36.0932 75.1582 36.505 75.8619C37.0379 76.7699 37.1106 77.2991 36.8866 78.0087C36.8517 78.2031 36.7735 78.3873 36.6576 78.5478C36.5417 78.7082 36.3912 78.8409 36.217 78.936C36.0428 79.0312 35.8493 79.0864 35.6508 79.0976C35.4523 79.1089 35.2538 79.0759 35.0698 79.001C34.107 78.7124 33.8405 78.0448 34.1736 77.1368Z" fill="url(#paint15_linear_507_936)"/>
<path d="M40.1925 74.1235L41.1246 74.298L39.9867 80.1793L39.0545 79.9989L40.1925 74.1235Z" fill="url(#paint16_linear_507_936)"/>
<path d="M42.8939 79.2054L43.0816 75.9942C43.079 75.8033 43.116 75.6139 43.1903 75.4379C43.2647 75.2618 43.3748 75.1029 43.5137 74.971C43.6526 74.8391 43.8175 74.737 43.9979 74.6712C44.1783 74.6053 44.3705 74.5771 44.5624 74.5883C44.7542 74.5995 44.9418 74.6498 45.1132 74.7362C45.2846 74.8225 45.4363 74.943 45.5587 75.0902C45.6812 75.2373 45.7718 75.408 45.8249 75.5914C45.8779 75.7749 45.8924 75.9672 45.8673 76.1565L45.831 76.7579L44.9347 76.7098L44.9771 76.0182C44.9771 75.6213 44.8196 75.4469 44.535 75.4168C44.2504 75.3868 44.0566 75.5491 44.0324 75.94L43.8325 79.2776C43.8325 79.6685 43.99 79.8369 44.2746 79.879C44.5592 79.9211 44.753 79.7527 44.7773 79.3558L44.8318 78.4477L45.728 78.4958L45.6735 79.3437C45.6681 79.5288 45.6254 79.7109 45.5479 79.8793C45.4703 80.0476 45.3596 80.1988 45.2221 80.3238C45.0846 80.4489 44.9233 80.5453 44.7476 80.6073C44.572 80.6693 44.3856 80.6956 44.1995 80.6847C44.0134 80.6738 43.8314 80.626 43.6642 80.544C43.4971 80.462 43.3482 80.3475 43.2265 80.2073C43.1047 80.0671 43.0126 79.904 42.9554 79.7278C42.8983 79.5516 42.8774 79.3658 42.8939 79.1814V79.2054Z" fill="url(#paint17_linear_507_936)"/>
<path d="M50.7422 74.4426L52.1108 74.178C52.3021 74.1191 52.5046 74.1053 52.7022 74.1377C52.8998 74.17 53.0871 74.2476 53.2493 74.3643C53.4115 74.481 53.5441 74.6336 53.6366 74.81C53.7291 74.9864 53.7789 75.1818 53.7821 75.3807L53.8972 75.9821C54.0849 76.9262 53.7276 77.5276 52.7951 77.702L52.353 77.7862L52.8253 80.1917L51.8928 80.3721L50.7422 74.4426ZM52.6316 76.848C52.9283 76.7879 53.0615 76.6255 52.9767 76.2046L52.8435 75.507C52.7587 75.086 52.571 74.9838 52.2803 75.0439L51.8382 75.1281L52.1895 76.9322L52.6316 76.848Z" fill="url(#paint18_linear_507_936)"/>
<path d="M55.29 73.408L56.6102 72.9269C56.7775 72.8265 56.9668 72.7677 57.162 72.7557C57.3571 72.7437 57.5523 72.7788 57.7308 72.858C57.9093 72.9372 58.0659 73.0581 58.1871 73.2104C58.3083 73.3628 58.3906 73.542 58.4269 73.7328L58.5541 74.0815C58.6731 74.2897 58.7209 74.5306 58.6903 74.7681C58.6598 75.0056 58.5525 75.2268 58.3845 75.3985V75.3985C58.8811 75.3985 59.1778 75.7353 59.414 76.3668L59.7834 77.353C59.8524 77.5907 59.9699 77.8118 60.1286 78.0025L59.2263 78.3332C59.0683 78.1384 58.9528 77.9132 58.8872 77.6717L58.5117 76.6434C58.3179 76.1202 58.0999 76.0119 57.6942 76.1563L57.3914 76.2705L58.2816 78.676L57.3914 79.0008L55.29 73.408ZM57.3974 75.3685C57.7305 75.2482 57.8759 75.0317 57.7063 74.5807L57.5488 74.1477C57.3974 73.7448 57.1976 73.6185 56.8827 73.7328L56.477 73.8831L57.0825 75.4888L57.3974 75.3685Z" fill="url(#paint19_linear_507_936)"/>
<path d="M61.9514 75.5971L60.389 72.8609C60.282 72.6973 60.2098 72.5138 60.1768 72.3215C60.1438 72.1292 60.1508 71.9323 60.1972 71.7428C60.2437 71.5533 60.3286 71.3752 60.4468 71.2195C60.5651 71.0637 60.7141 70.9336 60.8849 70.8372C61.0556 70.7407 61.2443 70.6799 61.4395 70.6585C61.6347 70.6371 61.8323 70.6556 62.0201 70.7128C62.2078 70.7699 62.3819 70.8646 62.5315 70.991C62.6811 71.1173 62.8031 71.2728 62.89 71.4477L64.4585 74.1899C64.5614 74.3538 64.6299 74.5367 64.6598 74.7276C64.6897 74.9184 64.6803 75.1134 64.6323 75.3005C64.5843 75.4877 64.4987 75.6634 64.3805 75.8168C64.2623 75.9702 64.1141 76.0983 63.9448 76.1934C63.7754 76.2884 63.5885 76.3485 63.3952 76.3699C63.2018 76.3913 63.0061 76.3735 62.8199 76.3178C62.6336 76.2621 62.4607 76.1695 62.3114 76.0457C62.1622 75.9218 62.0397 75.7692 61.9514 75.5971V75.5971ZM63.6652 74.7071L62.0301 71.8806C61.8182 71.5078 61.5759 71.4597 61.3095 71.61C61.043 71.7603 60.9643 71.9889 61.1762 72.3617L62.7992 75.2062C63.0172 75.5791 63.2594 75.6271 63.5198 75.4768C63.7802 75.3265 63.8771 75.0799 63.6652 74.7071V74.7071Z" fill="url(#paint20_linear_507_936)"/>
<path d="M63.8469 69.1024L64.9732 68.2004C65.1145 68.062 65.2859 67.9577 65.4741 67.8954C65.6624 67.8332 65.8626 67.8148 66.0592 67.8415C66.2557 67.8682 66.4435 67.9394 66.608 68.0496C66.7725 68.1598 66.9094 68.306 67.008 68.477L68.9216 70.8344C69.5272 71.5801 69.4908 72.2777 68.752 72.867L67.6257 73.7691L63.8469 69.1024ZM68.201 72.2115C68.4371 72.0251 68.4795 71.7905 68.201 71.4598L66.2389 69.0543C65.9664 68.7236 65.7302 68.7175 65.494 68.904L65.1186 69.2047L67.8194 72.5363L68.201 72.2115Z" fill="url(#paint21_linear_507_936)"/>
<path d="M77.7629 39.0938L73.9962 49.7741L77.7084 47.3506L74.8017 58.8006L81.5539 44.043L77.1937 45.9373L77.7629 39.0938Z" fill="#00E0B8"/>
<path d="M14.8435 39.0938L18.6102 49.7741L14.898 47.3506L17.7987 58.8006L11.0526 44.043L15.4067 45.9373L14.8435 39.0938Z" fill="#00E0B8"/>
<path d="M100.74 52.966L99.1441 53.372V51.37H100.726V49.802H99.1441V47.156H97.4501V49.802H95.6441V51.37H97.4501V53.778C96.7361 53.96 96.0501 54.114 95.4901 54.226L95.9521 55.878L97.4501 55.5V58.272C97.4501 58.482 97.3801 58.552 97.1841 58.552C97.0021 58.552 96.4141 58.552 95.8541 58.524C96.0641 58.972 96.3021 59.658 96.3441 60.092C97.3521 60.092 98.0241 60.05 98.5001 59.784C98.9761 59.532 99.1441 59.112 99.1441 58.286V55.038C99.7461 54.884 100.348 54.716 100.95 54.548L100.74 52.966ZM108.524 48.206H100.95V49.872H104.492V58.006C104.492 58.272 104.38 58.356 104.1 58.356C103.82 58.356 102.77 58.37 101.902 58.314C102.168 58.79 102.49 59.616 102.56 60.134C103.862 60.134 104.8 60.106 105.43 59.798C106.074 59.504 106.298 59.014 106.298 58.034V49.872H108.524V48.206ZM117.078 50.138V51.314H114.418C114.726 50.978 115.034 50.586 115.314 50.138H117.078ZM113.354 51.314V52.714H122.356V51.314H118.73V50.138H121.782V48.724H118.73V47.156H117.078V48.724H116.098C116.252 48.374 116.406 48.01 116.518 47.646L114.978 47.282C114.572 48.514 113.858 49.746 112.99 50.53C113.368 50.712 114.026 51.048 114.362 51.314H113.354ZM115.986 56.032V54.744H119.766V56.032H115.986ZM121.418 57.81V53.428H114.39V57.852H115.986V57.432H119.766V57.81H121.418ZM112.668 49.536C112.458 48.934 112.122 48.01 111.856 47.268L110.33 47.716C110.582 48.458 110.918 49.438 111.1 50.054L112.668 49.536ZM113.032 53.33L112.794 53.4H111.996C112.332 52.448 112.696 51.356 112.99 50.404H109.546V51.888H111.03C110.694 52.938 110.316 54.044 109.994 54.828H111.87C111.646 55.654 111.352 56.508 111.016 57.18C110.498 57.418 109.868 57.95 109.294 58.678L110.4 60.274C110.722 59.476 111.184 58.524 111.506 58.524C111.786 58.524 112.29 58.986 112.864 59.308C113.872 59.896 115.048 60.05 116.896 60.05C118.534 60.05 120.984 59.952 122.16 59.882C122.188 59.434 122.44 58.622 122.636 58.174C121.082 58.398 118.576 58.538 116.966 58.538C115.328 58.538 114.026 58.454 113.074 57.88C112.808 57.726 112.598 57.572 112.416 57.446C112.976 56.368 113.438 54.996 113.732 53.638L113.032 53.33ZM136.482 51.216C136.034 50.334 135.026 49.116 134.144 48.234L132.968 48.934C133.248 49.228 133.528 49.564 133.794 49.914L130.784 50.138C131.428 49.382 132.086 48.486 132.576 47.59L130.84 47.198C130.392 48.332 129.58 49.466 129.314 49.774C129.062 50.096 128.81 50.292 128.558 50.362C128.754 50.74 129.02 51.468 129.118 51.762C129.552 51.594 130.21 51.524 134.704 51.146C134.914 51.468 135.082 51.762 135.194 52.014L136.482 51.216ZM125.212 54.156C125.268 53.638 125.324 53.092 125.38 52.546H128.264V47.87H123.77V49.382H126.724V51.034H124.036C123.924 52.532 123.714 54.436 123.476 55.64H126.724C126.598 57.488 126.444 58.272 126.22 58.51C126.08 58.65 125.968 58.678 125.744 58.678C125.492 58.678 124.918 58.678 124.358 58.622C124.61 59.028 124.792 59.672 124.82 60.134C125.506 60.162 126.136 60.162 126.528 60.106C126.976 60.05 127.312 59.924 127.606 59.546C128.012 59.098 128.208 57.824 128.376 54.8C128.404 54.59 128.418 54.156 128.418 54.156H125.212ZM133.122 58.062V56.564H135.026L133.752 57.096C133.906 57.362 134.088 57.684 134.256 57.992L133.122 58.062ZM130.336 55.234V53.932H131.554V55.234H130.336ZM134.368 53.932V55.234H133.122V53.932H134.368ZM136.706 59.658C136.468 58.804 135.768 57.544 135.138 56.564H135.866V52.588H133.122V51.468H131.554V52.588H128.894V56.564H131.554V58.146C130.364 58.216 129.272 58.272 128.39 58.3L128.586 59.924C130.308 59.812 132.66 59.63 134.942 59.448C135.068 59.77 135.152 60.05 135.222 60.288L136.706 59.658ZM150.216 52.616V50.894H144.714C144.854 49.592 144.868 48.304 144.882 47.156H143.062C143.048 48.304 143.062 49.578 142.922 50.894H137.826V52.616H142.642C142.096 55.024 140.766 57.348 137.56 58.776C138.05 59.126 138.54 59.728 138.806 60.19C141.774 58.762 143.286 56.578 144.042 54.24C145.134 56.942 146.758 58.986 149.292 60.176C149.558 59.7 150.104 58.958 150.524 58.608C147.906 57.544 146.212 55.346 145.288 52.616H150.216ZM154.528 47.198C153.828 49.186 152.61 51.174 151.336 52.434C151.63 52.854 152.106 53.806 152.26 54.212C152.54 53.904 152.834 53.554 153.128 53.204V60.204H154.808V50.614C155.326 49.676 155.788 48.682 156.152 47.702L154.528 47.198ZM164.566 51.006V49.424H159.134C159.4 48.85 159.624 48.276 159.82 47.688L158.21 47.282C157.58 49.284 156.474 51.3 155.242 52.56C155.592 52.826 156.25 53.414 156.516 53.722C157.146 52.994 157.79 52.042 158.35 51.006H158.882V60.218H160.59V57.11H164.398V55.57H160.59V53.988H164.216V52.476H160.59V51.006H164.566ZM174.45 51.174H169.55V49.284H174.45V51.174ZM176.144 47.688H167.94V52.756H176.144V47.688ZM169.676 55.514V57.922H167.59V55.514H169.676ZM166.008 60.218H167.59V59.518H169.676V60.148H171.342V53.918H166.008V60.218ZM174.128 57.922V55.514H176.354V57.922H174.128ZM172.532 53.918V60.218H174.128V59.518H176.354V60.162H178.034V53.918H172.532ZM185.734 50.362H182.906V49.774H185.734V50.362ZM185.734 52H182.906V51.44H185.734V52ZM185.734 53.694H182.906V53.078H185.734V53.694ZM181.254 55.332H182.906V54.954H191.936V53.694H187.33V53.078H190.984V52H187.33V51.44H190.97V50.362H187.33V49.774H191.6V48.5H187.624C187.456 48.038 187.204 47.492 186.952 47.058L185.384 47.492C185.538 47.8 185.692 48.15 185.818 48.5H183.662C183.9 48.15 184.124 47.8 184.334 47.45L182.64 47.128C182.01 48.332 180.876 49.774 179.322 50.88C179.7 51.09 180.232 51.622 180.498 51.972C180.75 51.762 181.002 51.552 181.254 51.328V55.332ZM183.438 57.39C182.57 57.908 180.904 58.37 179.476 58.566C179.812 58.874 180.274 59.462 180.512 59.84C181.982 59.504 183.69 58.762 184.684 57.964L183.438 57.39ZM192.286 57.124V55.794H186.798V55.08H185.146V55.794H179.714V57.124H185.146V60.19H186.798V57.124H192.286ZM187.302 58.23C188.59 58.706 190.396 59.434 191.292 59.868L192.314 58.776C191.348 58.328 189.5 57.67 188.268 57.264L187.302 58.23ZM198.824 56.746C200.56 56.242 201.582 54.94 201.582 53.358C201.582 52.182 201.064 51.44 200.07 51.44C199.328 51.44 198.698 51.916 198.698 52.7C198.698 53.498 199.328 53.946 200.028 53.946C200.084 53.946 200.14 53.946 200.182 53.932C200.098 54.674 199.468 55.276 198.376 55.626L198.824 56.746ZM217.164 49.494H210.752V48.78H217.164V49.494ZM217.164 51.314H210.752V50.586H217.164V51.314ZM218.858 47.618H209.128V52.476H218.858V47.618ZM214.994 57.054H219.306V55.612H214.994V54.562H220.188V53.092H207.84V54.562H213.3V58.118C212.404 57.838 211.718 57.32 211.284 56.368C211.396 55.962 211.508 55.542 211.606 55.094L209.94 54.842C209.618 56.718 208.764 58.202 207.336 59.084C207.714 59.322 208.358 59.938 208.596 60.246C209.408 59.686 210.052 58.944 210.556 58.02C211.732 59.644 213.468 60.008 216.03 60.008H220.02C220.104 59.518 220.356 58.79 220.58 58.412C219.586 58.454 216.898 58.454 216.114 58.454C215.736 58.454 215.358 58.44 214.994 58.412V57.054ZM223.604 47.142C223.142 48.01 222.162 49.116 221.294 49.802C221.56 50.096 221.938 50.726 222.12 51.076C223.184 50.222 224.346 48.906 225.102 47.688L223.604 47.142ZM225.172 51.258H229.932V48.01H228.756V49.998H228.112V47.156H226.908V49.998H226.278V48.01H225.172V50.544L223.828 50.068C223.198 51.44 222.176 52.868 221.196 53.806C221.462 54.142 221.924 54.968 222.078 55.318C222.344 55.038 222.624 54.73 222.89 54.394V60.218H224.402V52.21C224.682 51.748 224.948 51.258 225.172 50.796V51.258ZM232.676 51.3C232.55 52.574 232.354 53.722 232.06 54.744C231.78 53.792 231.57 52.756 231.43 51.664C231.472 51.552 231.514 51.426 231.542 51.3H232.676ZM234.524 51.3V49.9H231.92C232.102 49.088 232.256 48.248 232.368 47.394L230.856 47.156C230.66 48.892 230.324 50.6 229.75 51.902H225.018V53.246H229.484C229.75 53.582 230.072 54.002 230.198 54.24C230.324 54.072 230.436 53.89 230.548 53.694C230.744 54.744 230.982 55.738 231.304 56.62C230.926 57.306 230.478 57.908 229.918 58.412L229.876 57.684L228.224 57.866V56.998H230.17V55.794H228.224V54.912C228.826 54.828 229.4 54.716 229.904 54.576L229.092 53.512C228.084 53.806 226.418 54.03 225.004 54.142C225.144 54.436 225.312 54.898 225.354 55.206C225.816 55.178 226.32 55.136 226.838 55.094V55.794H224.906V56.998H226.838V58.006C226.152 58.076 225.522 58.146 225.004 58.188L225.34 59.49C226.446 59.336 227.86 59.14 229.26 58.93C229.12 59.042 228.966 59.126 228.812 59.224C229.12 59.476 229.68 60.036 229.876 60.316C230.73 59.728 231.43 59.014 232.004 58.188C232.452 58.986 233.026 59.658 233.726 60.162C233.95 59.742 234.44 59.14 234.776 58.846C233.964 58.356 233.32 57.6 232.83 56.676C233.488 55.192 233.866 53.414 234.104 51.3H234.524ZM242.924 54.17H244.492V55.024H242.924V54.17ZM248.314 55.024H246.046V54.17H247.768V52.952H246.046V52.21H244.492V52.952H242.924V52.21H241.412V52.952H239.718V54.17H241.412V55.024H239.228V56.242H241.72C241.118 56.662 240.222 57.04 239.354 57.306C239.718 57.53 240.306 58.034 240.6 58.314C241.524 57.922 242.658 57.264 243.358 56.62L242.28 56.242H245.024L244.198 56.788C245.052 57.208 245.948 57.824 246.452 58.244L247.936 57.558C247.39 57.166 246.494 56.662 245.654 56.242H248.314V55.024ZM246.606 48.64V49.27H245.318V48.64H246.606ZM247.152 52.014C247.53 52.014 247.95 51.986 248.174 51.916C248.132 51.608 248.09 51.146 248.062 50.796C247.838 50.866 247.376 50.88 247.11 50.88H245.668C245.374 50.88 245.318 50.74 245.318 50.362V50.278H248.006V47.618H244.016V50.334C244.016 51.538 244.31 52.014 245.584 52.014H247.152ZM242.154 48.626V49.256H240.88V48.626H242.154ZM240.88 50.936V50.264H243.54V47.604H239.592V50.278C239.592 50.838 239.354 51.076 239.13 51.188C239.34 51.482 239.606 52.084 239.676 52.42C239.942 52.28 240.404 52.182 243.19 51.748C243.218 51.454 243.33 50.922 243.456 50.586L240.88 50.936ZM238.668 49.536C238.458 48.906 238.094 47.94 237.828 47.184L236.316 47.59C236.568 48.36 236.932 49.382 237.114 50.026L238.668 49.536ZM238.262 53.442L238.024 53.484H237.87C238.192 52.504 238.528 51.384 238.808 50.404H235.574V51.888H236.792C236.47 52.98 236.12 54.1 235.812 54.926H237.506C237.268 55.92 236.862 56.928 236.316 57.67C235.994 57.936 235.644 58.286 235.308 58.692L236.414 60.274C236.764 59.476 237.268 58.524 237.576 58.524C237.87 58.524 238.374 58.986 238.948 59.308C239.97 59.896 241.146 60.05 242.994 60.05C244.632 60.05 247.11 59.952 248.258 59.882C248.286 59.434 248.552 58.622 248.734 58.174C247.18 58.398 244.688 58.538 243.078 58.538C241.454 58.538 240.138 58.454 239.172 57.88C238.752 57.628 238.458 57.404 238.206 57.25C238.696 56.242 239.018 55.038 239.214 53.834L238.262 53.442ZM100.166 69.174C100.46 69.496 100.782 69.874 100.95 70.098C101.062 70 101.188 69.888 101.3 69.79V73.416H102.196C102.098 75.026 101.776 76.132 100.138 76.818C100.166 76.678 100.166 76.524 100.166 76.356V69.174ZM102.798 70.49H105.892V72.044H102.798V70.49ZM97.5901 69.818C97.8561 70.14 98.1081 70.448 98.2341 70.672L98.6961 70.294V71.638C98.2761 71.946 97.8981 72.24 97.5621 72.478C97.5761 71.834 97.5901 71.246 97.5901 70.7V69.818ZM98.6961 67.13V69.216C98.4581 68.964 98.2061 68.712 97.9821 68.488L97.5901 68.768V67.13H98.6961ZM106.424 76.566C106.214 76.566 106.186 76.524 106.186 76.118V73.416H107.488V69.846L108.65 69.118C108.132 68.04 106.9 66.416 105.878 65.24L104.674 65.982C105.43 66.906 106.298 68.11 106.858 69.09H101.972C102.784 68.138 103.484 66.976 103.96 65.758L102.42 65.352C101.958 66.584 101.132 67.774 100.166 68.586V65.632H96.1761V70.7C96.1761 72.73 96.1201 75.544 95.3641 77.462C95.7141 77.588 96.3721 77.952 96.6521 78.19C97.1701 76.86 97.4081 75.04 97.5201 73.346L97.8981 74.046C98.1501 73.794 98.4301 73.514 98.6961 73.234V76.328C98.6961 76.496 98.6541 76.552 98.5001 76.552C98.3461 76.552 97.9261 76.552 97.4921 76.538C97.6741 76.944 97.8561 77.658 97.8981 78.064C98.7101 78.064 99.2561 78.022 99.6481 77.756C99.9141 77.588 100.054 77.322 100.124 76.972C100.46 77.308 100.838 77.854 101.006 78.218C103.218 77.28 103.708 75.684 103.862 73.416H104.59V76.132C104.59 77.574 104.856 78.064 106.144 78.064H107.124C108.132 78.064 108.538 77.532 108.678 75.474C108.244 75.348 107.558 75.082 107.264 74.844C107.222 76.37 107.166 76.566 106.942 76.566H106.424ZM114.026 69.678C114.488 69.678 115.02 69.65 115.272 69.566C115.23 69.23 115.174 68.614 115.146 68.236C114.852 68.306 114.348 68.334 113.998 68.334H111.982C111.618 68.334 111.548 68.194 111.548 67.774V67.522H115.16V66.192H111.548V65.24H110.12V67.76C110.12 69.202 110.526 69.678 112.038 69.678H114.026ZM115.608 75.516C115.37 75.264 114.362 74.466 113.76 74.004H115.622V72.632H113.452V71.666C114.18 71.582 114.88 71.47 115.496 71.33L114.782 70C113.494 70.322 111.548 70.546 109.84 70.63C109.994 70.994 110.176 71.512 110.218 71.89C110.778 71.876 111.366 71.848 111.982 71.806V72.632H109.686V74.004H111.45C110.862 74.746 110.106 75.474 109.392 75.908C109.602 76.3 109.896 76.944 110.022 77.392C110.736 76.902 111.408 76.132 111.982 75.32V78.204H113.452V75.208C113.928 75.768 114.432 76.398 114.684 76.804L115.608 75.516ZM117.358 75.418C116.826 76.034 115.72 76.776 114.754 77.182C115.118 77.476 115.566 77.938 115.832 78.246C116.84 77.812 118.016 77.014 118.716 76.286L117.358 75.418ZM120.494 70.098H117.61V69.244H120.494V70.098ZM120.494 72.142H117.61V71.246H120.494V72.142ZM120.494 74.186H117.61V73.29H120.494V74.186ZM122.062 67.998H119.556C119.668 67.718 119.78 67.424 119.878 67.116H122.356V65.688H115.692V67.116H118.128C118.072 67.41 118.016 67.704 117.946 67.998H116.112V75.418H122.062V67.998ZM119.29 76.314C120.06 76.888 121.082 77.7 121.53 78.232L122.804 77.336C122.272 76.804 121.25 76.034 120.466 75.516L119.29 76.314ZM136.37 67.354V65.66H123.672V67.354H128.754C128.656 67.844 128.544 68.348 128.404 68.824H124.33V78.218H126.052V70.378H127.55V77.784H129.202V70.378H130.742V77.784H132.408V70.378H134.06V76.44C134.06 76.636 134.004 76.692 133.808 76.692C133.612 76.692 132.996 76.706 132.436 76.678C132.646 77.084 132.898 77.742 132.968 78.19C133.906 78.19 134.606 78.148 135.11 77.91C135.614 77.644 135.754 77.238 135.754 76.454V68.824H130.224C130.392 68.362 130.56 67.872 130.728 67.354H136.37ZM147.836 72.128V75.796H144.882V71.4H149.138V66.318H147.29V69.79H144.882V65.142H143.034V69.79H140.724V66.318H138.96V71.4H143.034V75.796H140.094V72.142H138.218V77.448H147.836V78.204H149.712V72.128H147.836ZM153.576 75.306V72.562H155.802V75.306H153.576ZM155.802 71.12H153.576V68.852H155.802V71.12ZM160.24 67.298C160.45 66.71 160.646 66.122 160.786 65.52L159.204 65.156C158.798 66.794 158.126 68.488 157.314 69.664V67.396H155.144C155.382 66.794 155.634 66.094 155.872 65.394L154.052 65.142C153.996 65.8 153.828 66.696 153.646 67.396H152.064V77.798H153.576V76.776H157.314V70.238C157.692 70.49 158.168 70.812 158.392 71.022C158.826 70.42 159.26 69.65 159.624 68.81H162.62C162.466 73.752 162.284 75.852 161.878 76.3C161.696 76.482 161.542 76.538 161.262 76.538C160.898 76.538 160.072 76.538 159.176 76.454C159.47 76.916 159.694 77.616 159.722 78.078C160.548 78.106 161.388 78.12 161.92 78.05C162.48 77.952 162.872 77.798 163.264 77.28C163.838 76.538 163.992 74.312 164.174 68.054C164.188 67.858 164.188 67.298 164.188 67.298H160.24ZM161.864 73.682C161.43 72.87 160.506 71.54 159.806 70.574L158.504 71.316C159.19 72.338 160.058 73.71 160.45 74.55L161.864 73.682ZM174.296 67.074H175.654V68.446C175.654 69.678 175.906 70.21 177.222 70.21H177.88C178.132 70.21 178.44 70.182 178.65 70.112C178.594 69.762 178.552 69.258 178.524 68.88C178.342 68.936 178.034 68.964 177.866 68.964H177.39C177.236 68.964 177.222 68.824 177.222 68.46V65.632H172.784V67.214C172.784 68.012 172.672 68.936 171.664 69.636C171.972 69.818 172.602 70.35 172.812 70.63C174.044 69.748 174.296 68.362 174.296 67.256V67.074ZM171.846 68.502C171.454 68.124 170.894 67.718 170.264 67.312C170.656 66.78 171.02 66.234 171.328 65.646L169.774 65.17C169.536 65.646 169.256 66.108 168.92 66.514C168.192 66.136 167.436 65.772 166.75 65.478L165.826 66.556C166.512 66.85 167.226 67.228 167.926 67.634C167.156 68.348 166.288 68.964 165.364 69.412C165.7 69.678 166.302 70.28 166.568 70.602C167.506 70.042 168.43 69.328 169.256 68.474C169.914 68.922 170.46 69.37 170.852 69.748L171.846 68.502ZM166.26 74.592C166.26 75.334 166.12 76.202 165.252 76.874C165.504 77.014 165.966 77.434 166.148 77.644C167.156 76.846 167.38 75.6 167.38 74.634V73.234H166.26V74.592ZM171.692 72.842V71.344H171.02L171.678 70.812C171.468 70.476 170.992 69.958 170.628 69.594L169.634 70.364C169.9 70.658 170.222 71.022 170.432 71.344H169.354V69.972H167.87V71.344H165.63V72.842H167.87V77.994H169.354V72.842H171.692ZM177.026 70.742L176.746 70.798H172.084V72.282H176.102C175.808 73.038 175.43 73.724 174.954 74.312C174.436 73.766 174.002 73.136 173.68 72.464L172.336 72.856C172.742 73.794 173.288 74.648 173.918 75.39C173.344 75.88 172.686 76.286 171.972 76.566L171.902 75.698C171.762 75.754 171.552 75.768 171.412 75.768H171.188C171.062 75.768 171.048 75.67 171.048 75.348V73.29H169.83V75.32C169.83 76.454 170.026 76.874 171.09 76.874H171.426H171.454C171.762 77.21 172.126 77.756 172.294 78.12C173.33 77.714 174.254 77.196 175.052 76.496C175.822 77.126 176.676 77.616 177.656 77.98C177.922 77.56 178.412 76.944 178.79 76.622C177.824 76.328 176.928 75.908 176.172 75.362C177.054 74.228 177.712 72.828 178.062 71.05L177.026 70.742ZM192.412 72.31H186.882V70.672H191.586V69.076H186.882V67.242C188.422 67.06 189.892 66.822 191.138 66.5L189.934 65.114C187.638 65.716 183.802 66.094 180.428 66.234C180.596 66.598 180.806 67.27 180.848 67.704C182.22 67.648 183.69 67.564 185.146 67.438V69.076H180.568V70.672H185.146V72.31H179.616V73.934H185.146V76.188C185.146 76.468 185.02 76.566 184.698 76.58C184.39 76.58 183.214 76.58 182.178 76.538C182.444 76.986 182.766 77.714 182.864 78.19C184.292 78.204 185.3 78.162 185.972 77.91C186.63 77.644 186.882 77.21 186.882 76.216V73.934H192.412V72.31ZM194.974 68.656C195.282 68.236 195.576 67.802 195.842 67.326C196.388 67.732 196.934 68.208 197.368 68.656H194.974ZM197.438 69.93V68.74C197.536 68.852 197.634 68.964 197.718 69.062L198.306 67.69C197.886 67.228 197.2 66.626 196.472 66.136C196.542 65.968 196.626 65.786 196.696 65.618L195.66 65.058C195.114 66.332 194.176 67.55 193.266 68.306C193.434 68.712 193.7 69.65 193.784 70.014C193.98 69.832 194.162 69.636 194.358 69.412V69.93H195.198V71.064H193.672V72.394H195.198V75.992C194.554 76.118 193.98 76.23 193.504 76.314L193.77 77.742C194.932 77.448 196.486 77.07 197.942 76.692L197.858 75.432L196.5 75.726V72.394H197.858V71.064H196.5V69.93H197.438ZM197.354 75.39C197.522 74.788 197.718 73.864 197.928 73.052L196.962 72.758C196.906 73.444 196.738 74.466 196.584 75.11L197.354 75.39ZM193.658 73.346C193.84 74.116 194.008 75.11 194.05 75.782L194.96 75.46C194.904 74.816 194.722 73.836 194.526 73.066L193.658 73.346ZM200.686 66.668V67.746H199.664V66.668H200.686ZM199.664 69.72V68.698H200.686V69.72H199.664ZM201.862 70.77V65.604H198.32V78.204H199.664V70.77H201.862ZM202.898 73.402H201.4V72.282H202.898V73.402ZM202.898 75.418H201.4V74.298H202.898V75.418ZM204.004 71.386H200.35V76.314H204.004V71.386ZM203.64 69.72V68.698H204.746V69.72H203.64ZM204.746 66.668V67.746H203.64V66.668H204.746ZM206.132 65.604H202.478V70.77H204.746V76.636C204.746 76.832 204.69 76.902 204.494 76.902C204.326 76.902 203.752 76.916 203.206 76.874C203.402 77.238 203.57 77.854 203.626 78.232C204.536 78.232 205.152 78.204 205.558 77.98C205.992 77.742 206.132 77.378 206.132 76.636V65.604Z" fill="black"/>
<path d="M96.4101 15.59V16.62H105.61V15.59H96.4101ZM108.34 16.25V17H113.67V16.25H108.34ZM108.34 17.86V18.6H113.67V17.86H108.34ZM108.34 19.49V20.32H113.69V19.49H108.34ZM106.51 12.93V13.81H115.51V12.93H106.51ZM107.58 14.6V20.84H108.53V15.43H113.41V20.84H114.39V14.6H107.58ZM110.52 13.42C110.44 13.89 110.27 14.55 110.1 15.01L111.02 15.13C111.22 14.7 111.49 14.08 111.7 13.47L110.52 13.42ZM112.89 11.54C112.67 11.99 112.28 12.62 111.96 13.03L112.79 13.29C113.14 12.91 113.58 12.35 113.95 11.8L112.89 11.54ZM108.17 11.88C108.53 12.26 108.93 12.81 109.1 13.15L109.98 12.7C109.78 12.36 109.38 11.86 109.01 11.51L108.17 11.88ZM120.73 12.25V13.11H124.64V12.25H120.73ZM120.3 15.76V16.66H125.64V15.76H120.3ZM122.53 14.69V19.77C122.53 19.91 122.48 19.96 122.32 19.96C122.16 19.96 121.59 19.96 121.04 19.95C121.17 20.2 121.32 20.59 121.37 20.85C122.16 20.85 122.67 20.83 123.03 20.69C123.39 20.55 123.51 20.29 123.51 19.78V14.69H122.53ZM124.28 12.25V12.45C123.94 13.12 123.21 14.12 122.53 14.69C122.69 14.82 122.96 15.06 123.08 15.23C123.94 14.59 124.82 13.55 125.4 12.66L124.75 12.19L124.53 12.25H124.28ZM116.57 17.03C117.71 17.97 119.22 19.31 119.92 20.17L120.54 19.39C119.82 18.55 118.27 17.26 117.14 16.37L116.57 17.03ZM116.57 17.03L117.43 17.31C117.83 15.84 118.29 13.48 118.48 11.63L117.55 11.58C117.41 13.34 116.97 15.66 116.57 17.03ZM119.19 12.99V14.01C119.19 15.75 118.99 18.36 116.35 20.21C116.56 20.36 116.88 20.67 117.02 20.87C119.84 18.84 120.08 15.96 120.08 14.02V12.99H119.19ZM116.33 13.81L116.42 14.72C117.56 14.65 119.13 14.55 120.63 14.45L120.64 13.6C119.06 13.69 117.43 13.77 116.33 13.81ZM127.36 13.18V14.01H129.55V18.96H127.36V19.8H130.41V13.18H127.36ZM126.8 13.18V20.57H127.67V13.18H126.8ZM127.31 15.91V16.74H129.98V15.91H127.31ZM128.29 11.55C128.22 12.08 128.05 12.84 127.89 13.34L128.65 13.52C128.85 13.06 129.1 12.36 129.31 11.71L128.29 11.55ZM131.79 13.13V14H134.8V13.13H131.79ZM134.47 13.13V13.32C134.35 17.62 134.2 19.31 133.87 19.66C133.76 19.8 133.64 19.83 133.44 19.83C133.2 19.83 132.6 19.82 131.95 19.77C132.12 20.02 132.24 20.42 132.26 20.69C132.83 20.71 133.43 20.73 133.79 20.69C134.17 20.64 134.42 20.54 134.66 20.21C135.07 19.7 135.2 18.13 135.34 13.58C135.35 13.46 135.35 13.13 135.35 13.13H134.47ZM131.92 11.54C131.6 12.9 131.05 14.27 130.37 15.14C130.59 15.26 130.98 15.53 131.15 15.68C131.83 14.73 132.45 13.24 132.83 11.75L131.92 11.54ZM131.45 15.85C131.97 16.58 132.62 17.57 132.91 18.18L133.72 17.69C133.4 17.1 132.72 16.13 132.19 15.43L131.45 15.85ZM137.09 12.43V13.27H145V12.43H137.09ZM136.52 14.75V15.6H145.48V14.75H136.52ZM138.44 18.04V18.77H143.6V18.04H138.44ZM138.45 19.7V20.5H143.61V19.7H138.45ZM137.84 16.37V20.86H138.79V17.16H143.27V20.84H144.26V16.37H137.84ZM142.71 13.25C142.56 13.73 142.28 14.42 142.05 14.86L142.94 15.08C143.19 14.67 143.48 14.05 143.75 13.48L142.71 13.25ZM138.39 13.48C138.65 13.93 138.88 14.55 138.94 14.95L139.92 14.72C139.84 14.32 139.6 13.73 139.31 13.29L138.39 13.48ZM140.25 11.64C140.46 12.01 140.67 12.53 140.72 12.87L141.74 12.66C141.66 12.32 141.46 11.83 141.21 11.47L140.25 11.64ZM146.49 17.14V17.93H155.49V17.14H146.49ZM150.54 16.59V20.82H151.49V16.59H150.54ZM150.47 14.74H151.52V15.63H150.47V14.74ZM150.47 13.19H151.52V14.07H150.47V13.19ZM149.65 12.48V16.34H152.36V12.48H149.65ZM150.65 11.51C150.62 11.85 150.51 12.37 150.4 12.72L151.04 12.87C151.18 12.57 151.35 12.1 151.52 11.66L150.65 11.51ZM154.47 15.08C154.64 15.6 154.81 16.28 154.88 16.74L155.53 16.54C155.45 16.11 155.27 15.43 155.09 14.91L154.47 15.08ZM148.54 14.91C148.67 15.46 148.82 16.17 148.87 16.65L149.53 16.48C149.47 16.02 149.32 15.31 149.16 14.76L148.54 14.91ZM146.82 14.59C146.82 14.43 147.29 14.2 147.29 14.2V14.18C147.73 13.61 148.23 12.74 148.57 11.91L147.83 11.65C147.59 12.44 147.13 13.27 146.99 13.48C146.85 13.7 146.71 13.85 146.58 13.88C146.66 14.07 146.78 14.44 146.82 14.59ZM146.82 14.59C146.97 14.51 147.23 14.46 148.52 14.3C148.52 14.15 148.54 13.88 148.58 13.68L147.16 13.81L146.81 14.04L146.82 14.59ZM146.8 16.56C146.8 16.41 147.23 16.18 147.23 16.18V16.16C148.02 15.38 148.84 14.27 149.46 13.17L148.78 12.79C148.28 13.87 147.43 15.01 147.18 15.3C146.94 15.59 146.75 15.8 146.56 15.84C146.65 16.04 146.77 16.4 146.8 16.56ZM146.8 16.56C146.98 16.47 147.28 16.4 149.16 16.14C149.16 15.99 149.17 15.71 149.2 15.53L147.14 15.77L146.78 16L146.8 16.56ZM152.69 14.67C152.69 14.51 153.16 14.27 153.16 14.27V14.25C153.62 13.66 154.13 12.75 154.48 11.88L153.71 11.64C153.46 12.45 153 13.31 152.85 13.53C152.71 13.75 152.58 13.92 152.44 13.94C152.53 14.14 152.65 14.51 152.69 14.67ZM152.69 14.67C152.85 14.6 153.12 14.53 154.59 14.35C154.6 14.19 154.62 13.9 154.65 13.7L153.03 13.87L152.67 14.09L152.69 14.67ZM152.78 16.65C152.78 16.49 153.22 16.26 153.22 16.26V16.23C154.02 15.47 154.85 14.35 155.49 13.27L154.78 12.88C154.28 13.96 153.42 15.08 153.16 15.37C152.92 15.67 152.72 15.86 152.53 15.91C152.62 16.11 152.74 16.49 152.78 16.65ZM152.78 16.65C152.96 16.56 153.27 16.5 155.17 16.28C155.17 16.13 155.2 15.85 155.23 15.65L153.14 15.86L152.76 16.08L152.78 16.65ZM149.3 18.25C148.66 18.91 147.41 19.49 146.26 19.75C146.47 19.93 146.75 20.29 146.89 20.53C148.08 20.18 149.36 19.42 150.08 18.55L149.3 18.25ZM152.07 18.76C153.04 19.28 154.29 20.07 154.89 20.6L155.5 19.91C154.86 19.39 153.58 18.64 152.63 18.16L152.07 18.76ZM156.67 12.25V13.22H165.33V12.25H156.67ZM161.54 15.36C162.69 16.18 164.18 17.38 164.87 18.16L165.66 17.43C164.92 16.65 163.39 15.51 162.26 14.75L161.54 15.36ZM161.26 12.6C160.37 14.43 158.55 16.36 156.39 17.41C156.59 17.63 156.89 18.01 157.04 18.26C159.32 17.06 161.16 15.06 162.3 12.97L161.26 12.6ZM160.48 14.78V20.83H161.51V13.76L160.48 14.78ZM166.59 13.04V13.95H175.42V13.04H166.59ZM169.76 16.24V17.12H175.02V16.24H169.76ZM169.37 19.72V20.6H175.4V19.72H169.37ZM171.92 14.43V20.19H172.87V14.43H171.92ZM169.82 11.56C169.27 13.6 168.12 15.83 166.31 17.06C166.46 17.28 166.69 17.69 166.79 17.95C168.84 16.51 170.08 14.14 170.8 11.8L169.82 11.56ZM167.83 15.71V20.82H168.78V15.71H167.83ZM179.81 13.07V13.95H185.35V13.07H179.81ZM180 15.32V16.18H184.35V15.32H180ZM182.08 11.56V15.8H183.01V11.56H182.08ZM181.11 15.98L180.26 16.23C181.15 18.54 182.72 20.15 185.12 20.85C185.25 20.61 185.52 20.23 185.73 20.04C183.42 19.45 181.85 17.98 181.11 15.98ZM184.26 15.32V15.48C183.59 17.88 181.58 19.4 179.23 19.98C179.41 20.18 179.64 20.58 179.74 20.83C182.28 20.08 184.38 18.45 185.21 15.54L184.61 15.29L184.44 15.32H184.26ZM176.32 16.76L176.58 17.67C177.49 17.42 178.66 17.1 179.76 16.77L179.64 15.91C178.44 16.24 177.18 16.57 176.32 16.76ZM176.45 13.53V14.41H179.67V13.53H176.45ZM177.68 11.56V19.75C177.68 19.9 177.63 19.95 177.49 19.95C177.36 19.95 176.93 19.95 176.49 19.94C176.61 20.19 176.74 20.57 176.77 20.81C177.47 20.81 177.91 20.78 178.21 20.64C178.51 20.49 178.61 20.25 178.61 19.76V11.56H177.68ZM186.94 12.36C187.6 12.66 188.43 13.14 188.82 13.49L189.37 12.7C188.95 12.37 188.11 11.93 187.47 11.67L186.94 12.36ZM186.38 15.07C187.03 15.35 187.85 15.82 188.24 16.15L188.77 15.37C188.35 15.04 187.52 14.61 186.89 14.36L186.38 15.07ZM186.73 20.08L187.53 20.72C188.12 19.77 188.79 18.57 189.32 17.51L188.63 16.89C188.04 18.03 187.26 19.32 186.73 20.08ZM191.89 11.56V16.3H192.85V11.56H191.89ZM189.39 15.71V16.61H195.39V15.71H189.39ZM189.82 13.18V14.08H195V13.18H189.82ZM193.01 17.93C193.69 18.83 194.41 20.06 194.66 20.84L195.5 20.41C195.21 19.61 194.47 18.44 193.77 17.56L193.01 17.93ZM189.91 20.55C190.21 20.41 190.69 20.33 194.37 19.87C194.33 19.67 194.3 19.3 194.31 19.05L190.38 19.48L189.88 19.8L189.91 20.55ZM189.91 20.55C189.91 20.36 190.55 20.03 190.55 20.03V20.01C191.32 19.03 192.16 17.62 192.76 16.23L191.75 15.9C191.29 17.21 190.48 18.6 190.23 18.95C189.99 19.32 189.8 19.55 189.58 19.6C189.7 19.87 189.86 20.34 189.91 20.55ZM200.17 18.24C201.3 17.88 202 17.01 202 15.91C202 15.15 201.67 14.66 201.05 14.66C200.59 14.66 200.19 14.95 200.19 15.46C200.19 15.97 200.58 16.25 201.03 16.25C201.24 16.25 201.44 16.19 201.59 16.03L201.04 15.21L201.18 16.11C201.18 16.79 200.73 17.29 199.9 17.59L200.17 18.24ZM209.32 14.7V20.53H210.26V14.7H209.32ZM211.68 14.7V20.53H212.62V14.7H211.68ZM210.38 12.45C210.28 13.13 210.06 14.07 209.84 14.7L210.78 14.82C211.02 14.24 211.31 13.35 211.55 12.53L210.38 12.45ZM206.99 14.25V20.85H207.96V15.14H214.52V14.25H206.99ZM214.09 14.25V19.76C214.09 19.9 214.05 19.94 213.9 19.94C213.76 19.95 213.27 19.96 212.78 19.94C212.91 20.17 213.05 20.56 213.09 20.81C213.79 20.81 214.3 20.79 214.63 20.65C214.96 20.5 215.05 20.25 215.05 19.77V14.25H214.09ZM206.5 12.02V12.98H215.53V12.02H206.5ZM216.59 13.04V13.95H225.42V13.04H216.59ZM219.76 16.24V17.12H225.02V16.24H219.76ZM219.37 19.72V20.6H225.4V19.72H219.37ZM221.92 14.43V20.19H222.87V14.43H221.92ZM219.82 11.56C219.27 13.6 218.12 15.83 216.31 17.06C216.46 17.28 216.69 17.69 216.79 17.95C218.84 16.51 220.08 14.14 220.8 11.8L219.82 11.56ZM217.83 15.71V20.82H218.78V15.71H217.83ZM96.5001 27.17V28.05H100.62V27.17H96.5001ZM98.0501 29.31V30.17H99.7501V29.31H98.0501ZM97.4101 27.64C97.3801 30.47 97.3501 32.77 96.2601 34.12C96.5001 34.27 96.8101 34.59 96.9601 34.82C98.1901 33.28 98.3001 30.73 98.3301 27.64H97.4101ZM99.4101 29.31V29.49C99.3201 32.43 99.2301 33.45 99.0501 33.7C98.9701 33.8 98.8901 33.84 98.7601 33.83C98.6201 33.83 98.3401 33.83 98.0301 33.8C98.1501 34.03 98.2501 34.4 98.2601 34.66C98.6401 34.68 99.0001 34.67 99.2201 34.64C99.4901 34.6 99.6701 34.52 99.8401 34.27C100.11 33.91 100.2 32.81 100.29 29.7C100.3 29.59 100.3 29.31 100.3 29.31H99.4101ZM101.86 30.04C102.46 30.46 103.23 31.07 103.59 31.46L104.24 30.77C103.85 30.38 103.07 29.81 102.47 29.42L101.86 30.04ZM101.23 32.85C102.17 33.36 103.41 34.14 103.99 34.69L104.64 33.87C104.02 33.35 102.75 32.6 101.83 32.14L101.23 32.85ZM97.6601 25.84C97.9801 26.28 98.3201 26.87 98.4401 27.26L99.3201 26.89C99.1801 26.51 98.8301 25.94 98.5001 25.52L97.6601 25.84ZM103.33 26.23L102.59 26.49C103.13 27.77 104.1 29.09 105.09 29.76C105.25 29.52 105.55 29.18 105.77 29C104.81 28.46 103.82 27.3 103.33 26.23ZM102.73 25.51C102.28 27.07 101.38 28.36 100.22 29.09C100.45 29.28 100.73 29.59 100.87 29.84C102.17 28.92 103.08 27.51 103.6 25.77L102.73 25.51ZM110.61 31.31V32H114.35V31.31H110.61ZM109.7 26.3V27H115.28V26.3H109.7ZM110.01 27.54V28.2H114.99V27.54H110.01ZM109.45 28.77V29.47H115.59V28.77H109.45ZM110.61 32.62V33.31H114.37V32.62H110.61ZM114.11 29.97V33.88C114.11 34 114.06 34.04 113.93 34.04C113.8 34.05 113.32 34.05 112.85 34.03C112.96 34.26 113.08 34.61 113.12 34.84C113.82 34.84 114.29 34.83 114.6 34.7C114.92 34.57 115 34.33 115 33.89V29.97H114.11ZM112.01 25.56V29H112.95V25.56H112.01ZM107.78 25.55V34.82H108.66V25.55H107.78ZM106.75 27.51C106.68 28.32 106.49 29.43 106.25 30.11L107.01 30.38C107.25 29.61 107.43 28.44 107.49 27.62L106.75 27.51ZM108.58 27.23C108.82 27.73 109.1 28.41 109.21 28.81L109.87 28.47C109.75 28.09 109.46 27.44 109.21 26.95L108.58 27.23ZM110.06 29.97V31.8C110.06 32.58 110 33.58 109.44 34.31C109.63 34.43 109.99 34.77 110.12 34.95C110.81 34.09 110.95 32.78 110.95 31.82V29.97H110.06ZM110.57 29.97V30.65H114.6V29.97H110.57ZM120.46 26.7V27.53H124.06V26.7H120.46ZM121.43 32.02V32.75H124.77V32.02H121.43ZM121.39 33.64V34.43H124.74V33.64H121.39ZM120 28.64V29.49H125.69V28.64H120ZM121.93 25.57V29.16H122.87V25.57H121.93ZM121.07 30.37V34.81H121.98V31.16H124.2V34.77H125.15V30.37H121.07ZM124.7 26.07C123.8 28.33 122.11 29.95 119.84 30.87C119.99 31.08 120.21 31.51 120.28 31.72C122.71 30.64 124.53 28.84 125.56 26.3L124.7 26.07ZM118.77 29.59C119 30.28 119.22 31.2 119.29 31.75L120.01 31.52C119.94 30.99 119.7 30.1 119.46 29.41L118.77 29.59ZM117.87 32.18C117.98 32.88 118.07 33.8 118.09 34.42L118.84 34.27C118.81 33.66 118.7 32.76 118.59 32.05L117.87 32.18ZM116.77 32.07C116.69 32.91 116.55 33.83 116.31 34.44C116.51 34.5 116.88 34.62 117.06 34.71C117.27 34.08 117.45 33.11 117.55 32.2L116.77 32.07ZM116.57 29.4C116.57 29.23 117.12 28.95 117.12 28.95V28.93C117.76 28.12 118.44 26.97 118.92 25.86L118.07 25.52C117.69 26.6 117.05 27.73 116.84 28.02C116.64 28.33 116.47 28.53 116.28 28.57C116.39 28.8 116.53 29.22 116.57 29.4ZM116.57 29.4C116.75 29.32 117.05 29.25 118.62 29.08C118.62 28.9 118.66 28.56 118.71 28.33L116.97 28.47L116.55 28.73L116.57 29.4ZM116.65 31.68C116.65 31.51 117.21 31.23 117.21 31.23V31.21C118.16 30.23 119.15 28.85 119.89 27.51L119.09 27.02C118.46 28.38 117.43 29.8 117.11 30.16C116.8 30.53 116.58 30.77 116.34 30.83C116.45 31.06 116.6 31.5 116.65 31.68ZM116.65 31.68C116.86 31.58 117.2 31.49 119.44 31.17C119.43 30.98 119.45 30.65 119.49 30.41L117.03 30.72L116.61 30.99L116.65 31.68ZM118.92 31.98C119.14 32.6 119.37 33.42 119.46 33.95L120.16 33.71C120.06 33.18 119.81 32.39 119.59 31.77L118.92 31.98ZM127.02 26.38V27.19H135.04V26.38H127.02ZM127.52 27.9V28.66H134.62V27.9H127.52ZM126.61 29.41V30.22H135.37V29.41H126.61ZM130.49 25.56V30.06H131.45V25.56H130.49ZM130.33 29.62C129.48 30.63 127.78 31.61 126.29 32.08C126.49 32.27 126.77 32.62 126.91 32.85C128.44 32.29 130.15 31.2 131.15 30L130.33 29.62ZM131.69 29.87L130.84 30.09C131.6 32.27 132.95 33.84 135.08 34.55C135.22 34.3 135.5 33.93 135.71 33.73C133.69 33.15 132.33 31.74 131.69 29.87ZM134.39 30.52C133.87 31.03 132.98 31.69 132.32 32.1L132.93 32.6C133.61 32.23 134.47 31.64 135.17 31.09L134.39 30.52ZM128.44 34.84C128.7 34.67 129.11 34.54 131.93 33.66C131.88 33.46 131.8 33.08 131.78 32.82L128.77 33.69L128.35 34.03L128.44 34.84ZM128.44 34.84C128.44 34.53 129.46 33.99 129.46 33.99V31.28H128.48V33.27C128.48 33.69 128.23 33.89 128.04 33.99C128.19 34.19 128.38 34.61 128.44 34.84ZM140.24 28.38C140.43 28.69 140.6 29.11 140.65 29.39L141.51 29.18C141.45 28.9 141.25 28.49 141.05 28.19L140.24 28.38ZM139.71 26.25V26.93H144.82V26.25H139.71ZM139.69 30.58V31.26H144.9V30.58H139.69ZM139.34 29.3V29.99H145.3V29.3H139.34ZM139.14 27.57V28.28H145.41V27.57H139.14ZM139.27 31.88V32.59H145.36V31.88H139.27ZM141.79 25.56V28.02H142.73V25.56H141.79ZM141.8 29.63V33.58H142.73V29.63H141.8ZM143.37 28.15C143.27 28.44 143.07 28.88 142.92 29.18L143.67 29.4C143.85 29.14 144.07 28.77 144.29 28.38L143.37 28.15ZM136.74 25.98C137.16 26.48 137.69 27.18 137.93 27.6L138.67 27.1C138.42 26.69 137.9 26.05 137.46 25.56L136.74 25.98ZM136.44 27.88V28.65H138.46V27.88H136.44ZM138.33 32.36L137.7 32.63C138.45 34.4 139.73 34.68 142.07 34.68C143.2 34.68 144.47 34.66 145.46 34.6C145.51 34.34 145.62 33.91 145.76 33.72C144.69 33.82 143.14 33.87 142.08 33.87C140.16 33.86 138.91 33.69 138.33 32.36ZM138.1 30.35V30.5C137.88 32.27 137.23 33.54 136.27 34.23C136.46 34.36 136.77 34.68 136.9 34.86C137.92 34.08 138.65 32.62 138.95 30.49L138.54 30.33L138.38 30.35H138.1ZM136.61 31.24C136.69 31.16 136.96 31.1 137.2 31.1H138.51L138.52 30.35H137L136.61 30.55V31.24ZM136.61 31.24C136.61 31.02 137.27 30.7 137.27 30.7C137.79 30.05 138.61 28.76 139.04 28.09L138.45 27.84L138.19 27.94V27.97C137.89 28.51 137.04 29.84 136.76 30.14C136.6 30.33 136.44 30.4 136.28 30.44C136.38 30.62 136.55 31.04 136.61 31.24ZM152.6 26.04V26.86H154.45V26.04H152.6ZM150.32 26.46V27.25H152.29V26.46H150.32ZM152.7 27.95V28.74H154.41V27.95H152.7ZM152.63 29.81V30.6H154.33V29.81H152.63ZM147.69 27.93V28.72H149.38V27.93H147.69ZM147.74 29.78V30.57H149.42V29.78H147.74ZM153.92 26.04C153.93 27.92 153.85 30.48 153.74 31.98H154.62C154.73 30.5 154.78 27.96 154.79 26.04H153.92ZM149.11 25.61C148.6 25.86 147.85 26.16 147.22 26.37C147.31 26.57 147.41 26.85 147.45 27.04C148.1 26.87 148.89 26.64 149.54 26.38L149.11 25.61ZM149.86 25.64V28.93H151.9V28.18H150.67V25.64H149.86ZM146.43 31.63V32.51H155.58V31.63H146.43ZM151.89 33.18C152.92 33.67 154.03 34.34 154.7 34.8L155.32 34.08C154.63 33.63 153.46 33 152.41 32.52L151.89 33.18ZM149.33 32.57C148.69 33.09 147.47 33.75 146.52 34.12C146.7 34.32 146.94 34.63 147.06 34.83C148.04 34.42 149.27 33.76 150.11 33.16L149.33 32.57ZM147.22 26.37L147.41 31.92H148.26L148.08 26.62L147.22 26.37ZM150.1 29.28C150.03 29.85 149.91 30.42 149.63 30.83C149.8 30.91 150.12 31.11 150.25 31.22C150.54 30.77 150.73 30.08 150.82 29.4L150.1 29.28ZM151.42 28.19V30.79C151.42 30.88 151.39 30.91 151.29 30.91C151.2 30.92 150.9 30.92 150.59 30.91C150.68 31.08 150.77 31.33 150.81 31.52C151.3 31.52 151.66 31.52 151.91 31.41C152.15 31.31 152.22 31.15 152.22 30.79V28.19H151.42ZM158.71 25.64V31.3H159.69V25.64H158.71ZM162.3 25.64V31.3H163.29V25.64H162.3ZM156.46 30.69V31.61H165.57V30.69H156.46ZM156.84 27.6V28.51H165.23V27.6H156.84ZM161.79 32.56C162.71 33.26 163.92 34.24 164.5 34.84L165.42 34.28C164.78 33.67 163.53 32.73 162.64 32.08L161.79 32.56ZM159.17 32.11C158.63 32.82 157.53 33.67 156.56 34.19C156.78 34.35 157.13 34.65 157.32 34.85C158.32 34.28 159.44 33.36 160.17 32.49L159.17 32.11ZM170.14 26.46V31.51H171.01V26.46H170.14ZM170.71 29.99V30.72H175.65V29.99H170.71ZM170.71 27.68V28.28H174.3V27.68H170.71ZM170.14 31.23V31.98H174.77V31.23H170.14ZM174.54 31.23V31.36C174.45 33.17 174.36 33.84 174.2 34.01C174.13 34.1 174.04 34.11 173.9 34.11C173.74 34.11 173.38 34.11 172.98 34.07C173.1 34.28 173.18 34.6 173.2 34.83C173.66 34.85 174.09 34.85 174.32 34.82C174.59 34.79 174.78 34.73 174.94 34.53C175.18 34.25 175.29 33.49 175.38 31.58C175.39 31.46 175.4 31.23 175.4 31.23H174.54ZM169.66 32.34C169.52 33.07 169.21 33.79 168.68 34.21L169.37 34.65C169.96 34.17 170.23 33.37 170.4 32.56L169.66 32.34ZM170.69 32.63C170.84 33.17 170.93 33.88 170.92 34.33L171.66 34.18C171.66 33.73 171.56 33.03 171.39 32.49L170.69 32.63ZM171.84 32.54C172.05 32.98 172.26 33.57 172.32 33.95L172.99 33.74C172.91 33.37 172.7 32.79 172.46 32.36L171.84 32.54ZM172.95 32.41C173.21 32.76 173.48 33.22 173.59 33.54L174.21 33.27C174.09 32.96 173.81 32.51 173.54 32.18L172.95 32.41ZM170.73 26.46V27.14H173.9V28.84H170.73V29.51H174.79V26.46H170.73ZM171.94 25.55C171.87 25.9 171.7 26.4 171.55 26.76L172.37 26.93C172.56 26.62 172.82 26.17 173.04 25.69L171.94 25.55ZM167.19 26.53V27.41H168.64V31.2H167.19V32.08H169.49V26.53H167.19ZM166.69 26.53V32.96H167.54V26.53H166.69Z" fill="white"/>
<defs>
<linearGradient id="paint0_linear_507_936" x1="41.3033" y1="39.7681" x2="44.9333" y2="47.8235" gradientUnits="userSpaceOnUse">
<stop stop-color="#FFF176"/>
<stop offset="1" stop-color="#00E0B8"/>
</linearGradient>
<linearGradient id="paint1_linear_507_936" x1="41.3094" y1="47.0996" x2="44.9394" y2="55.155" gradientUnits="userSpaceOnUse">
<stop stop-color="#FFF176"/>
<stop offset="1" stop-color="#00E0B8"/>
</linearGradient>
<linearGradient id="paint2_linear_507_936" x1="28.3682" y1="26.8001" x2="63.9909" y2="65.3988" gradientUnits="userSpaceOnUse">
<stop stop-color="#FFF176"/>
<stop offset="1" stop-color="#00E0B8"/>
</linearGradient>
<linearGradient id="paint3_linear_507_936" x1="15.4906" y1="12.9198" x2="76.7397" y2="79.3027" gradientUnits="userSpaceOnUse">
<stop stop-color="#FFF176"/>
<stop offset="1" stop-color="#00E0B8"/>
</linearGradient>
<linearGradient id="paint4_linear_507_936" x1="23.3513" y1="20.0653" x2="28.1096" y2="25.119" gradientUnits="userSpaceOnUse">
<stop stop-color="#FFF176"/>
<stop offset="1" stop-color="#00E0B8"/>
</linearGradient>
<linearGradient id="paint5_linear_507_936" x1="28.7358" y1="16.6775" x2="32.9244" y2="20.3167" gradientUnits="userSpaceOnUse">
<stop stop-color="#FFF176"/>
<stop offset="1" stop-color="#00E0B8"/>
</linearGradient>
<linearGradient id="paint6_linear_507_936" x1="34.125" y1="14.7151" x2="38.0181" y2="17.5032" gradientUnits="userSpaceOnUse">
<stop stop-color="#FFF176"/>
<stop offset="1" stop-color="#00E0B8"/>
</linearGradient>
<linearGradient id="paint7_linear_507_936" x1="38.9263" y1="13.5124" x2="41.7206" y2="14.6024" gradientUnits="userSpaceOnUse">
<stop stop-color="#FFF176"/>
<stop offset="1" stop-color="#00E0B8"/>
</linearGradient>
<linearGradient id="paint8_linear_507_936" x1="43.0407" y1="12.8506" x2="46.5204" y2="14.7036" gradientUnits="userSpaceOnUse">
<stop stop-color="#FFF176"/>
<stop offset="1" stop-color="#00E0B8"/>
</linearGradient>
<linearGradient id="paint9_linear_507_936" x1="51.26" y1="13.2671" x2="55.0693" y2="15.7504" gradientUnits="userSpaceOnUse">
<stop stop-color="#FFF176"/>
<stop offset="1" stop-color="#00E0B8"/>
</linearGradient>
<linearGradient id="paint10_linear_507_936" x1="56.0721" y1="14.7389" x2="60.3671" y2="17.8314" gradientUnits="userSpaceOnUse">
<stop stop-color="#FFF176"/>
<stop offset="1" stop-color="#00E0B8"/>
</linearGradient>
<linearGradient id="paint11_linear_507_936" x1="61.0398" y1="17.4532" x2="64.901" y2="20.8077" gradientUnits="userSpaceOnUse">
<stop stop-color="#FFF176"/>
<stop offset="1" stop-color="#00E0B8"/>
</linearGradient>
<linearGradient id="paint12_linear_507_936" x1="64.8802" y1="20.3383" x2="68.883" y2="24.4464" gradientUnits="userSpaceOnUse">
<stop stop-color="#FFF176"/>
<stop offset="1" stop-color="#00E0B8"/>
</linearGradient>
<linearGradient id="paint13_linear_507_936" x1="24.0003" y1="68.3261" x2="28.8649" y2="73.2813" gradientUnits="userSpaceOnUse">
<stop stop-color="#FFF176"/>
<stop offset="1" stop-color="#00E0B8"/>
</linearGradient>
<linearGradient id="paint14_linear_507_936" x1="29.8044" y1="71.614" x2="33.9798" y2="75.128" gradientUnits="userSpaceOnUse">
<stop stop-color="#FFF176"/>
<stop offset="1" stop-color="#00E0B8"/>
</linearGradient>
<linearGradient id="paint15_linear_507_936" x1="34.6646" y1="73.8651" x2="38.5362" y2="76.5768" gradientUnits="userSpaceOnUse">
<stop stop-color="#FFF176"/>
<stop offset="1" stop-color="#00E0B8"/>
</linearGradient>
<linearGradient id="paint16_linear_507_936" x1="39.3854" y1="74.9256" x2="42.0646" y2="75.911" gradientUnits="userSpaceOnUse">
<stop stop-color="#FFF176"/>
<stop offset="1" stop-color="#00E0B8"/>
</linearGradient>
<linearGradient id="paint17_linear_507_936" x1="43.3665" y1="75.394" x2="46.8044" y2="77.2074" gradientUnits="userSpaceOnUse">
<stop stop-color="#FFF176"/>
<stop offset="1" stop-color="#00E0B8"/>
</linearGradient>
<linearGradient id="paint18_linear_507_936" x1="51.2542" y1="74.9486" x2="54.8636" y2="76.9387" gradientUnits="userSpaceOnUse">
<stop stop-color="#FFF176"/>
<stop offset="1" stop-color="#00E0B8"/>
</linearGradient>
<linearGradient id="paint19_linear_507_936" x1="56.0635" y1="73.5808" x2="60.259" y2="77.0772" gradientUnits="userSpaceOnUse">
<stop stop-color="#FFF176"/>
<stop offset="1" stop-color="#00E0B8"/>
</linearGradient>
<linearGradient id="paint20_linear_507_936" x1="60.8789" y1="71.4086" x2="64.7385" y2="74.6857" gradientUnits="userSpaceOnUse">
<stop stop-color="#FFF176"/>
<stop offset="1" stop-color="#00E0B8"/>
</linearGradient>
<linearGradient id="paint21_linear_507_936" x1="64.7256" y1="68.6162" x2="68.7807" y2="72.6546" gradientUnits="userSpaceOnUse">
<stop stop-color="#FFF176"/>
<stop offset="1" stop-color="#00E0B8"/>
</linearGradient>
</defs>
</svg>
