<svg width="268" height="92" viewBox="0 0 268 92" fill="none" xmlns="http://www.w3.org/2000/svg">
<path d="M238.375 5.5H66.25V40.375H238.375V5.5Z" fill="#00E0B8"/>
<path d="M50.5328 39.5328H266.467V87.4672H50.5328V39.5328Z" fill="white" stroke="#00E0B8" stroke-width="1.06567"/>
<path d="M267.368 39.25H253V87.5427H267.368V39.25Z" fill="#00E0B8"/>
<path d="M46.3032 83.2098C66.9789 83.2098 83.7399 66.5652 83.7399 46.0331C83.7399 25.501 66.9789 8.85645 46.3032 8.85645C25.6274 8.85645 8.86642 25.501 8.86642 46.0331C8.86642 66.5652 25.6274 83.2098 46.3032 83.2098Z" fill="white"/>
<path d="M46.285 44.8188C46.5798 44.8161 46.8655 44.9203 47.0884 45.1118C47.3114 45.3034 47.4564 45.5691 47.4962 45.8592H53.6004C53.5376 43.9677 52.7346 42.175 51.362 40.8621C49.9894 39.5492 48.1554 38.8196 46.2496 38.8282C44.3439 38.8368 42.5166 39.583 41.1561 40.9083C39.7956 42.2335 39.009 44.0333 38.9636 45.9253H45.0678C45.0923 45.6222 45.2314 45.3396 45.4573 45.1343C45.6831 44.929 45.9789 44.8163 46.285 44.8188V44.8188Z" fill="url(#paint0_linear_522_1407)"/>
<path d="M46.285 47.2607C45.9911 47.2635 45.7062 47.1602 45.4834 46.9699C45.2606 46.7796 45.115 46.5153 45.0739 46.2263H38.9697C39.0324 48.1178 39.8355 49.9104 41.2081 51.2233C42.5807 52.5362 44.4147 53.2659 46.3204 53.2573C48.2262 53.2487 50.0534 52.5025 51.414 51.1772C52.7745 49.852 53.561 48.0521 53.6065 46.1602L47.5083 46.1902C47.4752 46.4878 47.3314 46.7625 47.1052 46.9604C46.879 47.1584 46.5865 47.2655 46.285 47.2607V47.2607Z" fill="url(#paint1_linear_522_1407)"/>
<path d="M46.176 19.8675C40.9633 19.8913 35.8749 21.4497 31.5541 24.3455C27.2334 27.2413 23.8745 31.3445 21.9021 36.1361C19.9297 40.9278 19.4326 46.1926 20.4735 51.2648C21.5144 56.3371 24.0466 60.9889 27.7498 64.6319C31.4531 68.275 36.161 70.7456 41.2783 71.7314C46.3956 72.7173 51.6924 72.174 56.4988 70.1702C61.3051 68.1665 65.4052 64.7924 68.2804 60.4746C71.1556 56.1568 72.6769 51.0892 72.6518 45.9128C72.6359 42.4762 71.9385 39.0763 70.5993 35.9074C69.2601 32.7385 67.3053 29.8626 64.8467 27.4439C62.3882 25.0253 59.4738 23.1114 56.2703 21.8114C53.0667 20.5114 49.6366 19.8509 46.176 19.8675V19.8675ZM29.8254 62.0596C29.6498 61.8912 29.3773 61.6567 29.0624 61.3259C28.1536 60.3974 27.3289 59.3912 26.5977 58.3191C25.5073 56.7183 24.6395 54.9787 24.0179 53.1473C22.4499 48.6122 22.4265 43.691 23.9513 39.1414C24.5562 37.3014 25.4098 35.5515 26.4887 33.9395C27.2046 32.8678 28.0152 31.8615 28.911 30.9327C29.2198 30.6019 29.5166 30.3674 29.6619 30.193L29.9284 29.9404L29.6861 30.2231C29.5347 30.4095 29.2925 30.6621 29.0079 31.0229C28.2057 32.0235 27.481 33.0829 26.8399 34.1921C25.8958 35.8247 25.1555 37.5655 24.6356 39.3759C23.3393 43.8116 23.3603 48.5247 24.6962 52.9488C25.2365 54.7568 25.995 56.4933 26.955 58.1206C27.6051 59.2236 28.3401 60.2751 29.1532 61.2658C29.4378 61.6206 29.6801 61.8672 29.8375 62.0596L30.0797 62.3362L29.8254 62.0596ZM31.3333 59.3113L30.8609 58.8423C30.6853 58.6799 30.5339 58.4574 30.3462 58.2409L29.7406 57.5313L29.4318 57.1464L29.1411 56.7074C28.6893 56.0655 28.2846 55.3923 27.93 54.6928C27.7483 54.3139 27.5182 53.9351 27.3607 53.4901L26.9065 52.2212C25.5142 48.272 25.4844 43.9752 26.8217 40.0074C26.9853 39.5623 27.1488 39.1294 27.3062 38.7084C27.4637 38.2874 27.6877 37.9026 27.8694 37.5057C28.2204 36.8004 28.6253 36.1229 29.0805 35.479C29.1774 35.3287 29.2683 35.1784 29.3652 35.04L29.674 34.6431L30.2433 33.9335C30.4006 33.7249 30.5683 33.5242 30.7459 33.3321L31.2182 32.8571L32.0903 31.9911C32.0903 31.9911 31.8178 32.3339 31.3151 32.9473L30.9033 33.4584C30.7459 33.6388 30.6187 33.8674 30.4552 34.1019L29.9344 34.8777L29.668 35.2866L29.4257 35.7376C29.0399 36.3973 28.6999 37.0825 28.4084 37.7883C28.257 38.1672 28.0632 38.546 27.93 38.961L27.5121 40.2419C26.3873 44.0839 26.4062 48.1671 27.5666 51.9987L27.9845 53.2736C28.1237 53.6945 28.3236 54.0674 28.475 54.4462C28.7711 55.1493 29.1171 55.8305 29.5105 56.4849L29.7588 56.9359L30.0313 57.3388L30.5339 58.0785C30.6974 58.307 30.8246 58.5355 30.9821 58.716L31.406 59.2211L32.1872 60.1773L31.3333 59.3113ZM33.5679 57.3148L33.1621 56.9239C33.0107 56.7796 32.8836 56.5991 32.7261 56.4187L32.2295 55.8174L31.9631 55.4926L31.7148 55.1198C31.3302 54.5762 30.9861 54.0053 30.6853 53.4119C30.5279 53.0871 30.328 52.7684 30.1887 52.4076C30.0495 52.0468 29.9102 51.6799 29.7588 51.3071C29.1865 49.6347 28.8821 47.8834 28.8565 46.1173C28.8698 44.35 29.1578 42.5954 29.7103 40.9154L30.1342 39.8089C30.2675 39.4481 30.4613 39.1294 30.6127 38.8046C30.9105 38.2082 31.2505 37.6335 31.63 37.0847L31.8723 36.7118L32.1387 36.3811C32.3083 36.1646 32.4718 35.9662 32.6292 35.7797C32.7658 35.6021 32.9113 35.4315 33.0652 35.2686L33.4649 34.8717L34.2158 34.138L33.5679 34.9619L33.2166 35.3948C33.0834 35.5512 32.9805 35.7497 32.8472 35.9421C32.714 36.1345 32.5747 36.351 32.4294 36.5795L32.1993 36.9223L31.9994 37.3072C31.6775 37.8688 31.3942 38.4515 31.1516 39.0512C31.0244 39.3759 30.8609 39.6946 30.7519 40.0434C30.6429 40.3922 30.5218 40.7591 30.4068 41.1319C29.47 44.3866 29.4868 47.839 30.4552 51.0846C30.5763 51.4514 30.6914 51.8122 30.8064 52.167C30.9215 52.5219 31.085 52.8346 31.2182 53.1593C31.4672 53.7543 31.7544 54.3328 32.0781 54.8913L32.2901 55.2761L32.5142 55.6189L32.9623 56.2443C33.1016 56.4368 33.2106 56.6352 33.3438 56.7916L33.695 57.2186L34.3248 58.0484L33.5679 57.3148ZM35.8267 55.3182C35.5701 55.094 35.333 54.8485 35.1181 54.5845L34.7064 54.0974L34.4762 53.8389L34.2703 53.5322C33.9441 53.089 33.6545 52.6205 33.4044 52.131C33.2711 51.8604 33.1076 51.5958 32.9926 51.3071L32.6353 50.393C32.1513 49.0136 31.8936 47.5659 31.8723 46.1053C31.8839 44.6453 32.1271 43.1962 32.5929 41.8115L32.9441 40.8974C33.0592 40.6027 33.2166 40.3381 33.3499 40.0735C33.5964 39.582 33.8798 39.1096 34.1977 38.6603L34.4036 38.3536L34.6216 38.083L35.0334 37.5899C35.2461 37.326 35.4789 37.0787 35.7298 36.8502L36.3354 36.2488L35.8085 36.9344C35.5846 37.1902 35.3821 37.4637 35.2029 37.7522L34.8638 38.2754L34.6821 38.5581L34.5186 38.8768C34.2585 39.3402 34.0299 39.8203 33.8343 40.3141C33.7314 40.5787 33.5981 40.8433 33.5134 41.1319C33.4286 41.4206 33.3317 41.7333 33.2409 42.0219C32.4938 44.6871 32.5063 47.506 33.2772 50.1645L33.5618 51.0545C33.6526 51.3432 33.7859 51.6078 33.8888 51.8724C34.0907 52.3615 34.3233 52.8375 34.5852 53.2976L34.7548 53.6164L34.9365 53.899L35.2817 54.4222C35.4626 54.7057 35.6651 54.9751 35.8872 55.228C36.2264 55.667 36.4201 55.9076 36.4201 55.9076L35.8267 55.3182ZM38.0794 53.3217C37.8747 53.1487 37.6844 52.9597 37.5102 52.7564L37.1771 52.3775L37.0015 52.167L36.8319 51.9325C36.5717 51.5839 36.3389 51.216 36.1355 50.832C36.0125 50.6239 35.9013 50.409 35.8024 50.1885L35.5118 49.4729C35.1262 48.3844 34.9217 47.2409 34.9062 46.0872C34.9254 44.9319 35.1298 43.7869 35.5118 42.6955L35.7964 41.9798C35.8933 41.7453 36.0205 41.5348 36.1234 41.3304C36.3238 40.9453 36.5525 40.5755 36.8077 40.2238L36.9712 39.9833L37.1529 39.7728L37.4799 39.394C37.6474 39.1776 37.8338 38.9764 38.037 38.7926L38.5397 38.3355L38.14 38.8768C37.9799 39.0845 37.8323 39.3013 37.6979 39.5263L37.4375 39.9412L37.2982 40.1697L37.1771 40.4163C36.9797 40.781 36.8077 41.1588 36.6624 41.5469C36.5836 41.7513 36.4807 41.9618 36.4141 42.1843L36.2082 42.8819C35.639 44.9569 35.639 47.1453 36.2082 49.2203L36.4201 49.9119C36.4928 50.1404 36.5957 50.3449 36.6745 50.5554C36.8223 50.9405 36.9984 51.3144 37.2013 51.6739L37.3285 51.9265L37.4678 52.149L37.7282 52.564C37.859 52.7988 38.0067 53.0239 38.1702 53.2375L38.576 53.7787L38.0794 53.3217ZM47.2115 54.3681C45.4781 54.5536 43.7295 54.2016 42.2057 53.3604C40.6819 52.5193 39.4577 51.2302 38.7013 49.6704C37.9449 48.1105 37.6933 46.3564 37.9812 44.6489C38.2691 42.9413 39.0823 41.3642 40.3091 40.1341C41.5359 38.904 43.1162 38.0813 44.8328 37.779C46.5494 37.4766 48.3182 37.7095 49.8961 38.4455C51.4741 39.1816 52.7839 40.3848 53.6456 41.8898C54.5073 43.3949 54.8786 45.1279 54.7085 46.8509C54.5125 48.7672 53.6607 50.5588 52.2952 51.9267C50.9298 53.2947 49.1333 54.1564 47.2055 54.3681H47.2115ZM55.6896 52.0828L55.514 52.2933L55.187 52.6782C55.013 52.8816 54.8248 53.0725 54.6238 53.2495L54.1211 53.7066L54.5208 53.1593C54.6865 52.9544 54.8363 52.7373 54.9689 52.5098L55.2233 52.0949L55.3626 51.8724L55.4897 51.6198C55.6836 51.2554 55.8554 50.8799 56.0045 50.4952C56.0832 50.2848 56.1801 50.0803 56.2467 49.8518C56.3133 49.6233 56.386 49.3947 56.4526 49.1542C56.7223 48.1188 56.8627 47.0544 56.8705 45.985C56.8501 44.9145 56.6996 43.8504 56.4223 42.8158L56.2104 42.1242C56.1438 41.8956 56.0408 41.6912 55.9621 41.4867C55.8092 41.1018 55.6333 40.7263 55.4352 40.3622L55.3081 40.1156C55.2596 40.0374 55.2112 39.9653 55.1688 39.8871C55.1264 39.8089 54.9871 39.6044 54.9084 39.4781C54.7734 39.2527 54.6216 39.0376 54.4542 38.8347L54.0485 38.2934L54.5572 38.7445C54.7612 38.9161 54.9497 39.1053 55.1203 39.3098L55.4534 39.6886L55.6351 39.8991L55.7986 40.1336C56.0588 40.4822 56.2916 40.8501 56.495 41.2342C56.5979 41.4386 56.7312 41.6491 56.8281 41.8776C56.925 42.1061 57.0158 42.3527 57.1187 42.5993C57.924 44.7838 57.9347 47.1791 57.149 49.3707L56.8644 50.0923C56.7736 50.3208 56.6464 50.5313 56.5374 50.7418C56.3401 51.1267 56.1113 51.4948 55.8531 51.8423L55.6896 52.0828ZM58.0029 53.9892L57.5971 54.4823C57.3842 54.7479 57.1492 54.9953 56.8947 55.222L56.2891 55.8234L56.816 55.1378C57.0365 54.8815 57.2389 54.6102 57.4215 54.326L57.7546 53.7968L57.9423 53.5141C57.9908 53.4119 58.0453 53.3036 58.1058 53.1954C58.3615 52.7327 58.588 52.2547 58.7841 51.7641C58.887 51.4935 59.0203 51.2349 59.105 50.9403L59.3836 50.0502C60.1329 47.385 60.1182 44.5651 59.3412 41.9077L59.0626 41.0177C58.9718 40.729 58.8386 40.4704 58.7296 40.2058C58.5314 39.7131 58.2987 39.2349 58.0332 38.7746L57.8697 38.4618L57.6819 38.1732L57.3428 37.656C57.1624 37.3702 56.9599 37.0988 56.7372 36.8441L56.2104 36.1646L56.816 36.766C57.0711 36.9917 57.308 37.237 57.5245 37.4996L57.9363 37.9868L58.1603 38.2574L58.3662 38.5581C58.6882 39.0049 58.9757 39.4753 59.2261 39.9653C59.3594 40.2299 59.5229 40.4945 59.6379 40.7891C59.753 41.0838 59.8802 41.3905 60.0013 41.6972C60.9959 44.47 61.0109 47.4964 60.0437 50.2787C59.9226 50.5915 59.8014 50.8801 59.6924 51.1928C59.5834 51.5055 59.4139 51.7521 59.2867 52.0227C59.0382 52.5125 58.7528 52.9829 58.4328 53.4299C58.3682 53.5382 58.3016 53.6404 58.233 53.7366L58.0029 53.9892ZM60.0073 56.2864C59.8723 56.4653 59.7267 56.636 59.5713 56.7976L59.1716 57.1945L58.3965 57.9282L59.0505 57.1103L59.3957 56.6713C59.532 56.4967 59.6574 56.3139 59.7712 56.1241C59.8963 55.9276 60.0356 55.7171 60.189 55.4926L60.4131 55.1438L60.619 54.759C60.9386 54.1982 61.2217 53.6177 61.4668 53.021C61.594 52.6963 61.7575 52.3775 61.8665 52.0227L62.2056 50.9342C62.6539 49.3116 62.886 47.6375 62.8959 45.9549C62.8694 44.2726 62.6231 42.6009 62.1632 40.9816L61.8059 39.9051C61.6969 39.5503 61.5273 39.2316 61.4002 38.9069C61.1493 38.3116 60.8601 37.7331 60.5342 37.1749L60.3283 36.79L60.0982 36.4472L59.6743 35.8158C59.5592 35.6287 59.4338 35.4481 59.2988 35.2746L58.9476 34.8416L58.2875 34.0237L59.0445 34.7514L59.4502 35.1483C59.6063 35.309 59.7538 35.4776 59.8923 35.6534L60.3828 36.2548L60.6553 36.5856C60.734 36.7058 60.8188 36.8261 60.8975 36.9524C61.2855 37.4971 61.6316 38.07 61.9331 38.6663C62.0905 38.985 62.2843 39.3098 62.4236 39.6646L62.8536 40.7711C64.0479 44.1286 64.065 47.7884 62.902 51.1568C62.7627 51.5356 62.6174 51.9085 62.4842 52.2633C62.3509 52.6181 62.1571 52.9488 61.9997 53.2736C61.705 53.8717 61.3649 54.4467 60.9823 54.9935L60.7401 55.3663L60.4797 55.6971L60.0073 56.2864ZM61.9089 58.6919L61.4426 59.161L60.5645 60.033L61.3396 59.0708L61.7575 58.5656C61.9149 58.3792 62.0421 58.1507 62.1995 57.9222L62.6961 57.1765L62.9686 56.7735L63.2108 56.3165C63.5922 55.6574 63.9301 54.9745 64.2222 54.2718C64.3735 53.887 64.5734 53.5081 64.7006 53.0691L65.1124 51.7882C66.2218 47.9563 66.2029 43.889 65.0579 40.0675L64.6339 38.7926C64.5007 38.3777 64.3009 37.9988 64.1434 37.5899C63.8443 36.8892 63.5004 36.2083 63.1139 35.5512C63.0292 35.4009 62.9444 35.2505 62.8657 35.1002C62.7869 34.9498 62.6779 34.8296 62.5932 34.6973L62.0845 33.9576C61.9466 33.7374 61.797 33.5246 61.6363 33.3201L61.2185 32.815C60.7159 32.2136 60.4312 31.8648 60.4312 31.8648L61.3154 32.7248L61.7877 33.1938C61.9711 33.384 62.143 33.5848 62.3025 33.7952C62.4841 34.0117 62.6779 34.2462 62.9081 34.4988L63.223 34.8837L63.5076 35.3227C63.9602 35.964 64.365 36.6373 64.7187 37.3373C64.9065 37.7222 65.1305 38.101 65.294 38.54C65.4575 38.979 65.621 39.4 65.7906 39.839C67.1746 43.7847 67.1959 48.0757 65.8512 52.0347L65.3606 53.3397C65.2032 53.7607 64.9791 54.1395 64.8035 54.5425C64.4572 55.2441 64.0626 55.9213 63.6226 56.5691L63.338 57.0081L63.0292 57.399L62.4599 58.1086C62.2116 58.3131 62.0602 58.5295 61.8846 58.7039L61.9089 58.6919ZM66.1479 58.1206C65.4331 59.1931 64.6224 60.1995 63.7256 61.1275C63.4107 61.4642 63.12 61.6988 62.9747 61.8671L62.7082 62.1197L62.9444 61.8431C63.1018 61.6567 63.3441 61.3981 63.6226 61.0373C64.4291 60.0419 65.154 58.9842 65.7906 57.874C66.7358 56.2391 67.478 54.4965 68.001 52.6842C69.2995 48.2485 69.2764 43.5342 67.9343 39.1113C67.3851 37.3218 66.6227 35.6038 65.6634 33.9937C65.0145 32.888 64.2795 31.8344 63.4652 30.8425C63.1806 30.4877 62.9323 30.2411 62.7809 30.0487L62.5387 29.7721L62.8051 30.0246C62.9747 30.193 63.2472 30.4215 63.5621 30.7583C65.8376 33.0772 67.563 35.8714 68.6126 38.9369C70.1721 43.4734 70.1955 48.3919 68.6792 52.9428C68.072 54.7781 67.2185 56.5237 66.1418 58.1326L66.1479 58.1206Z" fill="url(#paint2_linear_522_1407)"/>
<mask id="path-8-outside-1_522_1407" maskUnits="userSpaceOnUse" x="0" y="0" width="93" height="92" fill="black">
<rect fill="white" width="93" height="92"/>
<path d="M87.6519 40.0078C86.7422 39.6478 85.9291 39.0829 85.2768 38.3575C84.6245 37.6322 84.1508 36.7663 83.893 35.8281C83.6353 34.8899 83.6005 33.905 83.7915 32.9512C83.9824 31.9974 84.3939 31.1007 84.9935 30.3318V30.3318C85.7645 29.3422 86.2201 28.1465 86.3021 26.898C86.384 25.6495 86.0884 24.4052 85.4533 23.3247C84.8181 22.2442 83.8724 21.3767 82.7374 20.8337C81.6023 20.2906 80.3298 20.0967 79.083 20.2769V20.2769C78.1143 20.4185 77.1257 20.3342 76.1954 20.0309C75.2651 19.7275 74.4187 19.2133 73.7231 18.5289C73.0275 17.8446 72.5018 17.0089 72.1877 16.0879C71.8735 15.167 71.7795 14.1861 71.913 13.2228C72.0822 11.9833 71.8747 10.7218 71.3171 9.6002C70.7595 8.47858 69.8772 7.54792 68.7834 6.9276C67.6896 6.30728 66.4341 6.02556 65.178 6.11857C63.9218 6.21158 62.7223 6.67508 61.7333 7.44963V7.44963C60.9651 8.05215 60.0664 8.46913 59.1082 8.66764C58.1499 8.86615 57.1583 8.84077 56.2117 8.5935C55.265 8.34623 54.3891 7.88384 53.6533 7.24282C52.9174 6.6018 52.3416 5.7997 51.9714 4.89983V4.89983C51.4941 3.74194 50.6793 2.75208 49.6315 2.05724C48.5838 1.36239 47.3509 0.994252 46.091 1.00007C44.8311 1.00588 43.6017 1.3854 42.5605 2.08989C41.5193 2.79437 40.7138 3.79171 40.2474 4.95395V4.95395C39.8863 5.85383 39.3202 6.65843 38.5935 7.30465C37.8668 7.95087 36.9993 8.42116 36.0589 8.67865C35.1185 8.93614 34.1309 8.97382 33.1733 8.78877C32.2158 8.60371 31.3145 8.20094 30.54 7.61201C29.5436 6.84638 28.3395 6.39385 27.0823 6.31248C25.825 6.23112 24.572 6.52464 23.4839 7.15537C22.3958 7.78611 21.5223 8.72529 20.9755 9.85243C20.4286 10.9796 20.2334 12.2433 20.4148 13.4814C20.555 14.4435 20.4683 15.4248 20.1616 16.3479C19.8548 17.2711 19.3364 18.1109 18.6471 18.8012C17.9579 19.4915 17.1166 20.0134 16.1896 20.3258C15.2627 20.6383 14.2753 20.7327 13.3053 20.6016V20.6016C12.0567 20.4319 10.7855 20.637 9.65515 21.1906C8.52486 21.7441 7.58716 22.6208 6.96266 23.7079C6.33816 24.7949 6.05541 26.0427 6.15078 27.2906C6.24615 28.5385 6.71527 29.7296 7.49782 30.7106V30.7106C8.1044 31.4738 8.524 32.3667 8.72348 33.3185C8.92296 34.2704 8.89687 35.2554 8.64727 36.1955C8.39766 37.1357 7.93137 38.0054 7.28523 38.7358C6.63908 39.4663 5.83077 40.0377 4.92412 40.4047V40.4047C3.75837 40.8793 2.76199 41.6889 2.06282 42.7297C1.36365 43.7706 0.993577 44.9951 1.00008 46.2462C1.00659 47.4974 1.38938 48.718 2.09934 49.7516C2.8093 50.7852 3.81405 51.5846 4.98468 52.0472V52.0472C5.89427 52.4065 6.70732 52.9707 7.35967 53.6955C8.01201 54.4203 8.48579 55.2857 8.7436 56.2235C9.00141 57.1613 9.0362 58.1457 8.84523 59.0991C8.65425 60.0525 8.24273 60.9488 7.64316 61.7172C6.86959 62.7056 6.41153 63.9012 6.32791 65.1502C6.24428 66.3993 6.53892 67.6446 7.17391 68.726C7.80891 69.8073 8.75521 70.6753 9.89106 71.2182C11.0269 71.761 12.3003 71.954 13.5475 71.7721V71.7721C14.5168 71.6319 15.5057 71.7172 16.4361 72.0213C17.3665 72.3255 18.213 72.8401 18.9088 73.5247C19.6047 74.2093 20.1308 75.0451 20.4458 75.9662C20.7607 76.8873 20.8558 77.8684 20.7236 78.8322V78.8322C20.554 80.0711 20.761 81.3321 21.3183 82.4533C21.8755 83.5746 22.7575 84.5048 23.8509 85.1247C24.9444 85.7445 26.1995 86.0257 27.455 85.9321C28.7106 85.8385 29.9093 85.3744 30.8973 84.5994V84.5994C31.666 83.9969 32.5651 83.5799 33.5238 83.3814C34.4824 83.1829 35.4744 83.2083 36.4215 83.4555C37.3686 83.7028 38.245 84.1651 38.9814 84.8061C39.7178 85.4471 40.2943 86.2492 40.6653 87.1492C41.1479 88.2945 41.9621 89.2719 43.0046 89.9574C44.047 90.6429 45.2709 91.0057 46.5212 90.9999C47.7715 90.9941 48.992 90.6199 50.028 89.9248C51.0639 89.2297 51.8689 88.2448 52.3408 87.095C52.7033 86.1916 53.2722 85.3842 54.0026 84.7364C54.733 84.0886 55.605 83.6182 56.5497 83.3622C57.4945 83.1063 58.4862 83.0717 59.4467 83.2614C60.4072 83.451 61.3102 83.8596 62.0845 84.455V84.455C63.0805 85.22 64.284 85.6723 65.5405 85.7537C66.797 85.8352 68.0494 85.5422 69.1372 84.9123C70.2249 84.2824 71.0985 83.3443 71.6459 82.2182C72.1933 81.0921 72.3897 79.8293 72.2097 78.5916V78.5916C72.0674 77.6294 72.1523 76.6476 72.4578 75.7235C72.7633 74.7995 73.281 73.9587 73.97 73.2675C74.6589 72.5763 75.5003 72.0537 76.4276 71.741C77.355 71.4282 78.3428 71.3339 79.3131 71.4654V71.4654C80.5612 71.6354 81.832 71.4307 82.9621 70.8779C84.0922 70.3251 85.03 69.4494 85.655 68.3632C86.28 67.277 86.5637 66.0301 86.4695 64.7825C86.3754 63.535 85.9077 62.344 85.1267 61.3624V61.3624C84.52 60.5991 84.1001 59.7062 83.9002 58.7542C83.7004 57.8022 83.7259 56.8171 83.9749 55.8766C84.2238 54.9361 84.6894 54.0658 85.3349 53.3345C85.9803 52.6032 86.788 52.0307 87.6943 51.6623C88.867 51.1938 89.8711 50.3866 90.5768 49.3452C91.2825 48.3037 91.6573 47.076 91.6527 45.8208C91.6481 44.5656 91.2644 43.3405 90.5512 42.3042C89.8379 41.2679 88.828 40.4679 87.6519 40.0078ZM83.7339 45.8411C83.7685 53.1926 81.6072 60.3893 77.5231 66.521C73.4391 72.6527 67.6158 77.4441 60.7896 80.2892C53.9634 83.1344 46.4409 83.9055 39.1734 82.5051C31.9059 81.1047 25.2198 77.5956 19.9606 72.4217C14.7013 67.2478 11.1051 60.6413 9.6268 53.4378C8.14846 46.2342 8.85436 38.7571 11.6552 31.9519C14.4561 25.1468 19.2261 19.3192 25.3622 15.2062C31.4982 11.0932 38.7246 8.87939 46.1276 8.84481C56.0541 8.81122 65.5886 12.6896 72.6389 19.6289C79.6892 26.5682 83.6794 36.0017 83.7339 45.8591V45.8411Z"/>
</mask>
<path d="M87.6519 40.0078C86.7422 39.6478 85.9291 39.0829 85.2768 38.3575C84.6245 37.6322 84.1508 36.7663 83.893 35.8281C83.6353 34.8899 83.6005 33.905 83.7915 32.9512C83.9824 31.9974 84.3939 31.1007 84.9935 30.3318V30.3318C85.7645 29.3422 86.2201 28.1465 86.3021 26.898C86.384 25.6495 86.0884 24.4052 85.4533 23.3247C84.8181 22.2442 83.8724 21.3767 82.7374 20.8337C81.6023 20.2906 80.3298 20.0967 79.083 20.2769V20.2769C78.1143 20.4185 77.1257 20.3342 76.1954 20.0309C75.2651 19.7275 74.4187 19.2133 73.7231 18.5289C73.0275 17.8446 72.5018 17.0089 72.1877 16.0879C71.8735 15.167 71.7795 14.1861 71.913 13.2228C72.0822 11.9833 71.8747 10.7218 71.3171 9.6002C70.7595 8.47858 69.8772 7.54792 68.7834 6.9276C67.6896 6.30728 66.4341 6.02556 65.178 6.11857C63.9218 6.21158 62.7223 6.67508 61.7333 7.44963V7.44963C60.9651 8.05215 60.0664 8.46913 59.1082 8.66764C58.1499 8.86615 57.1583 8.84077 56.2117 8.5935C55.265 8.34623 54.3891 7.88384 53.6533 7.24282C52.9174 6.6018 52.3416 5.7997 51.9714 4.89983V4.89983C51.4941 3.74194 50.6793 2.75208 49.6315 2.05724C48.5838 1.36239 47.3509 0.994252 46.091 1.00007C44.8311 1.00588 43.6017 1.3854 42.5605 2.08989C41.5193 2.79437 40.7138 3.79171 40.2474 4.95395V4.95395C39.8863 5.85383 39.3202 6.65843 38.5935 7.30465C37.8668 7.95087 36.9993 8.42116 36.0589 8.67865C35.1185 8.93614 34.1309 8.97382 33.1733 8.78877C32.2158 8.60371 31.3145 8.20094 30.54 7.61201C29.5436 6.84638 28.3395 6.39385 27.0823 6.31248C25.825 6.23112 24.572 6.52464 23.4839 7.15537C22.3958 7.78611 21.5223 8.72529 20.9755 9.85243C20.4286 10.9796 20.2334 12.2433 20.4148 13.4814C20.555 14.4435 20.4683 15.4248 20.1616 16.3479C19.8548 17.2711 19.3364 18.1109 18.6471 18.8012C17.9579 19.4915 17.1166 20.0134 16.1896 20.3258C15.2627 20.6383 14.2753 20.7327 13.3053 20.6016V20.6016C12.0567 20.4319 10.7855 20.637 9.65515 21.1906C8.52486 21.7441 7.58716 22.6208 6.96266 23.7079C6.33816 24.7949 6.05541 26.0427 6.15078 27.2906C6.24615 28.5385 6.71527 29.7296 7.49782 30.7106V30.7106C8.1044 31.4738 8.524 32.3667 8.72348 33.3185C8.92296 34.2704 8.89687 35.2554 8.64727 36.1955C8.39766 37.1357 7.93137 38.0054 7.28523 38.7358C6.63908 39.4663 5.83077 40.0377 4.92412 40.4047V40.4047C3.75837 40.8793 2.76199 41.6889 2.06282 42.7297C1.36365 43.7706 0.993577 44.9951 1.00008 46.2462C1.00659 47.4974 1.38938 48.718 2.09934 49.7516C2.8093 50.7852 3.81405 51.5846 4.98468 52.0472V52.0472C5.89427 52.4065 6.70732 52.9707 7.35967 53.6955C8.01201 54.4203 8.48579 55.2857 8.7436 56.2235C9.00141 57.1613 9.0362 58.1457 8.84523 59.0991C8.65425 60.0525 8.24273 60.9488 7.64316 61.7172C6.86959 62.7056 6.41153 63.9012 6.32791 65.1502C6.24428 66.3993 6.53892 67.6446 7.17391 68.726C7.80891 69.8073 8.75521 70.6753 9.89106 71.2182C11.0269 71.761 12.3003 71.954 13.5475 71.7721V71.7721C14.5168 71.6319 15.5057 71.7172 16.4361 72.0213C17.3665 72.3255 18.213 72.8401 18.9088 73.5247C19.6047 74.2093 20.1308 75.0451 20.4458 75.9662C20.7607 76.8873 20.8558 77.8684 20.7236 78.8322V78.8322C20.554 80.0711 20.761 81.3321 21.3183 82.4533C21.8755 83.5746 22.7575 84.5048 23.8509 85.1247C24.9444 85.7445 26.1995 86.0257 27.455 85.9321C28.7106 85.8385 29.9093 85.3744 30.8973 84.5994V84.5994C31.666 83.9969 32.5651 83.5799 33.5238 83.3814C34.4824 83.1829 35.4744 83.2083 36.4215 83.4555C37.3686 83.7028 38.245 84.1651 38.9814 84.8061C39.7178 85.4471 40.2943 86.2492 40.6653 87.1492C41.1479 88.2945 41.9621 89.2719 43.0046 89.9574C44.047 90.6429 45.2709 91.0057 46.5212 90.9999C47.7715 90.9941 48.992 90.6199 50.028 89.9248C51.0639 89.2297 51.8689 88.2448 52.3408 87.095C52.7033 86.1916 53.2722 85.3842 54.0026 84.7364C54.733 84.0886 55.605 83.6182 56.5497 83.3622C57.4945 83.1063 58.4862 83.0717 59.4467 83.2614C60.4072 83.451 61.3102 83.8596 62.0845 84.455V84.455C63.0805 85.22 64.284 85.6723 65.5405 85.7537C66.797 85.8352 68.0494 85.5422 69.1372 84.9123C70.2249 84.2824 71.0985 83.3443 71.6459 82.2182C72.1933 81.0921 72.3897 79.8293 72.2097 78.5916V78.5916C72.0674 77.6294 72.1523 76.6476 72.4578 75.7235C72.7633 74.7995 73.281 73.9587 73.97 73.2675C74.6589 72.5763 75.5003 72.0537 76.4276 71.741C77.355 71.4282 78.3428 71.3339 79.3131 71.4654V71.4654C80.5612 71.6354 81.832 71.4307 82.9621 70.8779C84.0922 70.3251 85.03 69.4494 85.655 68.3632C86.28 67.277 86.5637 66.0301 86.4695 64.7825C86.3754 63.535 85.9077 62.344 85.1267 61.3624V61.3624C84.52 60.5991 84.1001 59.7062 83.9002 58.7542C83.7004 57.8022 83.7259 56.8171 83.9749 55.8766C84.2238 54.9361 84.6894 54.0658 85.3349 53.3345C85.9803 52.6032 86.788 52.0307 87.6943 51.6623C88.867 51.1938 89.8711 50.3866 90.5768 49.3452C91.2825 48.3037 91.6573 47.076 91.6527 45.8208C91.6481 44.5656 91.2644 43.3405 90.5512 42.3042C89.8379 41.2679 88.828 40.4679 87.6519 40.0078ZM83.7339 45.8411C83.7685 53.1926 81.6072 60.3893 77.5231 66.521C73.4391 72.6527 67.6158 77.4441 60.7896 80.2892C53.9634 83.1344 46.4409 83.9055 39.1734 82.5051C31.9059 81.1047 25.2198 77.5956 19.9606 72.4217C14.7013 67.2478 11.1051 60.6413 9.6268 53.4378C8.14846 46.2342 8.85436 38.7571 11.6552 31.9519C14.4561 25.1468 19.2261 19.3192 25.3622 15.2062C31.4982 11.0932 38.7246 8.87939 46.1276 8.84481C56.0541 8.81122 65.5886 12.6896 72.6389 19.6289C79.6892 26.5682 83.6794 36.0017 83.7339 45.8591V45.8411Z" fill="url(#paint3_linear_522_1407)"/>
<path d="M87.6519 40.0078C86.7422 39.6478 85.9291 39.0829 85.2768 38.3575C84.6245 37.6322 84.1508 36.7663 83.893 35.8281C83.6353 34.8899 83.6005 33.905 83.7915 32.9512C83.9824 31.9974 84.3939 31.1007 84.9935 30.3318V30.3318C85.7645 29.3422 86.2201 28.1465 86.3021 26.898C86.384 25.6495 86.0884 24.4052 85.4533 23.3247C84.8181 22.2442 83.8724 21.3767 82.7374 20.8337C81.6023 20.2906 80.3298 20.0967 79.083 20.2769V20.2769C78.1143 20.4185 77.1257 20.3342 76.1954 20.0309C75.2651 19.7275 74.4187 19.2133 73.7231 18.5289C73.0275 17.8446 72.5018 17.0089 72.1877 16.0879C71.8735 15.167 71.7795 14.1861 71.913 13.2228C72.0822 11.9833 71.8747 10.7218 71.3171 9.6002C70.7595 8.47858 69.8772 7.54792 68.7834 6.9276C67.6896 6.30728 66.4341 6.02556 65.178 6.11857C63.9218 6.21158 62.7223 6.67508 61.7333 7.44963V7.44963C60.9651 8.05215 60.0664 8.46913 59.1082 8.66764C58.1499 8.86615 57.1583 8.84077 56.2117 8.5935C55.265 8.34623 54.3891 7.88384 53.6533 7.24282C52.9174 6.6018 52.3416 5.7997 51.9714 4.89983V4.89983C51.4941 3.74194 50.6793 2.75208 49.6315 2.05724C48.5838 1.36239 47.3509 0.994252 46.091 1.00007C44.8311 1.00588 43.6017 1.3854 42.5605 2.08989C41.5193 2.79437 40.7138 3.79171 40.2474 4.95395V4.95395C39.8863 5.85383 39.3202 6.65843 38.5935 7.30465C37.8668 7.95087 36.9993 8.42116 36.0589 8.67865C35.1185 8.93614 34.1309 8.97382 33.1733 8.78877C32.2158 8.60371 31.3145 8.20094 30.54 7.61201C29.5436 6.84638 28.3395 6.39385 27.0823 6.31248C25.825 6.23112 24.572 6.52464 23.4839 7.15537C22.3958 7.78611 21.5223 8.72529 20.9755 9.85243C20.4286 10.9796 20.2334 12.2433 20.4148 13.4814C20.555 14.4435 20.4683 15.4248 20.1616 16.3479C19.8548 17.2711 19.3364 18.1109 18.6471 18.8012C17.9579 19.4915 17.1166 20.0134 16.1896 20.3258C15.2627 20.6383 14.2753 20.7327 13.3053 20.6016V20.6016C12.0567 20.4319 10.7855 20.637 9.65515 21.1906C8.52486 21.7441 7.58716 22.6208 6.96266 23.7079C6.33816 24.7949 6.05541 26.0427 6.15078 27.2906C6.24615 28.5385 6.71527 29.7296 7.49782 30.7106V30.7106C8.1044 31.4738 8.524 32.3667 8.72348 33.3185C8.92296 34.2704 8.89687 35.2554 8.64727 36.1955C8.39766 37.1357 7.93137 38.0054 7.28523 38.7358C6.63908 39.4663 5.83077 40.0377 4.92412 40.4047V40.4047C3.75837 40.8793 2.76199 41.6889 2.06282 42.7297C1.36365 43.7706 0.993577 44.9951 1.00008 46.2462C1.00659 47.4974 1.38938 48.718 2.09934 49.7516C2.8093 50.7852 3.81405 51.5846 4.98468 52.0472V52.0472C5.89427 52.4065 6.70732 52.9707 7.35967 53.6955C8.01201 54.4203 8.48579 55.2857 8.7436 56.2235C9.00141 57.1613 9.0362 58.1457 8.84523 59.0991C8.65425 60.0525 8.24273 60.9488 7.64316 61.7172C6.86959 62.7056 6.41153 63.9012 6.32791 65.1502C6.24428 66.3993 6.53892 67.6446 7.17391 68.726C7.80891 69.8073 8.75521 70.6753 9.89106 71.2182C11.0269 71.761 12.3003 71.954 13.5475 71.7721V71.7721C14.5168 71.6319 15.5057 71.7172 16.4361 72.0213C17.3665 72.3255 18.213 72.8401 18.9088 73.5247C19.6047 74.2093 20.1308 75.0451 20.4458 75.9662C20.7607 76.8873 20.8558 77.8684 20.7236 78.8322V78.8322C20.554 80.0711 20.761 81.3321 21.3183 82.4533C21.8755 83.5746 22.7575 84.5048 23.8509 85.1247C24.9444 85.7445 26.1995 86.0257 27.455 85.9321C28.7106 85.8385 29.9093 85.3744 30.8973 84.5994V84.5994C31.666 83.9969 32.5651 83.5799 33.5238 83.3814C34.4824 83.1829 35.4744 83.2083 36.4215 83.4555C37.3686 83.7028 38.245 84.1651 38.9814 84.8061C39.7178 85.4471 40.2943 86.2492 40.6653 87.1492C41.1479 88.2945 41.9621 89.2719 43.0046 89.9574C44.047 90.6429 45.2709 91.0057 46.5212 90.9999C47.7715 90.9941 48.992 90.6199 50.028 89.9248C51.0639 89.2297 51.8689 88.2448 52.3408 87.095C52.7033 86.1916 53.2722 85.3842 54.0026 84.7364C54.733 84.0886 55.605 83.6182 56.5497 83.3622C57.4945 83.1063 58.4862 83.0717 59.4467 83.2614C60.4072 83.451 61.3102 83.8596 62.0845 84.455V84.455C63.0805 85.22 64.284 85.6723 65.5405 85.7537C66.797 85.8352 68.0494 85.5422 69.1372 84.9123C70.2249 84.2824 71.0985 83.3443 71.6459 82.2182C72.1933 81.0921 72.3897 79.8293 72.2097 78.5916V78.5916C72.0674 77.6294 72.1523 76.6476 72.4578 75.7235C72.7633 74.7995 73.281 73.9587 73.97 73.2675C74.6589 72.5763 75.5003 72.0537 76.4276 71.741C77.355 71.4282 78.3428 71.3339 79.3131 71.4654V71.4654C80.5612 71.6354 81.832 71.4307 82.9621 70.8779C84.0922 70.3251 85.03 69.4494 85.655 68.3632C86.28 67.277 86.5637 66.0301 86.4695 64.7825C86.3754 63.535 85.9077 62.344 85.1267 61.3624V61.3624C84.52 60.5991 84.1001 59.7062 83.9002 58.7542C83.7004 57.8022 83.7259 56.8171 83.9749 55.8766C84.2238 54.9361 84.6894 54.0658 85.3349 53.3345C85.9803 52.6032 86.788 52.0307 87.6943 51.6623C88.867 51.1938 89.8711 50.3866 90.5768 49.3452C91.2825 48.3037 91.6573 47.076 91.6527 45.8208C91.6481 44.5656 91.2644 43.3405 90.5512 42.3042C89.8379 41.2679 88.828 40.4679 87.6519 40.0078ZM83.7339 45.8411C83.7685 53.1926 81.6072 60.3893 77.5231 66.521C73.4391 72.6527 67.6158 77.4441 60.7896 80.2892C53.9634 83.1344 46.4409 83.9055 39.1734 82.5051C31.9059 81.1047 25.2198 77.5956 19.9606 72.4217C14.7013 67.2478 11.1051 60.6413 9.6268 53.4378C8.14846 46.2342 8.85436 38.7571 11.6552 31.9519C14.4561 25.1468 19.2261 19.3192 25.3622 15.2062C31.4982 11.0932 38.7246 8.87939 46.1276 8.84481C56.0541 8.81122 65.5886 12.6896 72.6389 19.6289C79.6892 26.5682 83.6794 36.0017 83.7339 45.8591V45.8411Z" stroke="white" stroke-width="1.59851" mask="url(#path-8-outside-1_522_1407)"/>
<path d="M22.2497 21.6303L23.2731 20.7643L26.5432 23.6208L24.1815 20.0126L25.2049 19.1406L29.1412 23.675L28.4629 24.2763L25.5016 20.7643L27.924 24.6432L27.3184 25.1603L23.8181 22.1535L26.7976 25.5873L26.192 26.1225L22.2497 21.6303Z" fill="url(#paint4_linear_522_1407)"/>
<path d="M30.213 21.2147L27.936 17.2516L28.7596 16.7826L31.0729 20.8057C31.2849 21.1786 31.5211 21.2207 31.7815 21.0763C32.0418 20.932 32.1206 20.7035 31.9086 20.3306L29.5953 16.3075L30.3886 15.8564L32.6656 19.8255C33.144 20.6554 32.9987 21.365 32.1932 21.822C31.3878 22.2791 30.6914 22.0445 30.213 21.2147Z" fill="url(#paint5_linear_522_1407)"/>
<path d="M34.7003 18.8875L34.5792 18.5628L35.421 18.2561L35.5663 18.647C35.7116 19.0499 35.9418 19.1281 36.2264 19.0258C36.511 18.9236 36.6382 18.7131 36.4807 18.2982C36.3233 17.8832 36.0265 17.5946 35.2696 17.2999C34.2825 16.921 33.8707 16.5482 33.6406 15.9047C33.5471 15.7319 33.4941 15.5402 33.4854 15.3442C33.4768 15.1481 33.5129 14.9527 33.5908 14.7724C33.6688 14.592 33.7868 14.4315 33.9359 14.3027C34.085 14.1739 34.2614 14.0802 34.452 14.0285C35.318 13.7157 35.9357 14.0706 36.2688 14.9726L36.3536 15.2072L35.5118 15.5078L35.4028 15.2192C35.2575 14.8163 35.0395 14.7261 34.7548 14.8283C34.4702 14.9305 34.3673 15.141 34.5066 15.5259C34.6458 15.9108 34.9547 16.1693 35.7177 16.464C36.6987 16.8429 37.0984 17.2097 37.3528 17.9073C37.6919 18.8274 37.4133 19.5069 36.5352 19.8257C35.6571 20.1444 35.0273 19.7836 34.7003 18.8875Z" fill="url(#paint6_linear_522_1407)"/>
<path d="M38.576 12.9044L39.5021 12.7119L40.7672 18.5632L39.8411 18.7557L38.576 12.9044Z" fill="url(#paint7_linear_522_1407)"/>
<path d="M42.7969 16.8192L42.5668 13.6079C42.5418 13.4201 42.5558 13.2293 42.6079 13.0471C42.6599 12.8649 42.7489 12.6952 42.8694 12.5484C42.99 12.4016 43.1394 12.2809 43.3087 12.1936C43.4779 12.1062 43.6633 12.0542 43.8535 12.0407C44.0438 12.0271 44.2348 12.0523 44.4148 12.1148C44.5949 12.1772 44.7601 12.2755 44.9005 12.4037C45.0409 12.5319 45.1534 12.6873 45.2311 12.8602C45.3088 13.0332 45.3501 13.2201 45.3524 13.4094L45.4009 14.0409L44.5046 14.107L44.4562 13.4155C44.4562 13.0246 44.226 12.8742 43.9414 12.8923C43.6568 12.9103 43.4812 13.0907 43.5115 13.4936L43.7476 16.8312C43.7476 17.2221 43.9778 17.3665 44.2624 17.3424C44.547 17.3184 44.7226 17.156 44.6923 16.741L44.6318 15.827L45.522 15.7668L45.5825 16.6087C45.6075 16.7965 45.5935 16.9873 45.5414 17.1695C45.4894 17.3517 45.4003 17.5214 45.2798 17.6682C45.1593 17.815 45.0099 17.9358 44.8406 18.0231C44.6714 18.1104 44.486 18.1624 44.2958 18.176C44.1055 18.1895 43.9145 18.1643 43.7345 18.1019C43.5544 18.0394 43.3891 17.9411 43.2488 17.8129C43.1084 17.6847 42.9959 17.5294 42.9182 17.3564C42.8405 17.1835 42.7992 16.9966 42.7969 16.8072V16.8192Z" fill="url(#paint8_linear_522_1407)"/>
<path d="M51.8502 12.459L53.2188 12.7356C54.1514 12.916 54.5027 13.5174 54.3149 14.4615L54.1999 15.0629C54.0061 16.001 53.449 16.422 52.5224 16.2356L52.0804 16.1514L51.5959 18.5569L50.6694 18.3765L51.8502 12.459ZM52.6859 15.3756C52.9827 15.4358 53.1704 15.3335 53.2552 14.9126L53.3945 14.215C53.4792 13.794 53.346 13.6136 53.0553 13.5715L52.6133 13.4813L52.2499 15.2854L52.6859 15.3756Z" fill="url(#paint9_linear_522_1407)"/>
<path d="M57.5124 13.8604L58.8204 14.3655C59.012 14.4024 59.1918 14.4847 59.3444 14.6054C59.4971 14.7261 59.6181 14.8817 59.6972 15.0588C59.7763 15.236 59.8111 15.4295 59.7987 15.6229C59.7863 15.8163 59.727 16.0039 59.6258 16.1696L59.4926 16.5124C59.2685 17.1138 58.9415 17.3844 58.4873 17.3904C58.8749 17.6971 58.8567 18.1662 58.6085 18.7976L58.2269 19.7778C58.1216 20.0023 58.0638 20.2459 58.0574 20.4935L57.1854 20.1627C57.1975 19.9139 57.2614 19.6702 57.3731 19.4471L57.7728 18.4247C57.9726 17.9076 57.8878 17.6791 57.4821 17.5287L57.1793 17.4084L56.2467 19.8139L55.3626 19.4711L57.5124 13.8604ZM57.7788 16.7169C58.1119 16.8431 58.3844 16.777 58.5418 16.332L58.7114 15.899C58.8628 15.5021 58.7962 15.2976 58.4873 15.1533L58.0816 14.9969L57.476 16.5906L57.7788 16.7169Z" fill="url(#paint10_linear_522_1407)"/>
<path d="M60.5585 20.1624L62.1935 17.4682C62.2842 17.2947 62.4098 17.1414 62.5625 17.0179C62.7152 16.8944 62.8917 16.8032 63.0813 16.7501C63.2708 16.697 63.4693 16.683 63.6644 16.709C63.8596 16.735 64.0474 16.8005 64.2161 16.9013C64.3848 17.0022 64.5309 17.1363 64.6454 17.2954C64.7599 17.4545 64.8404 17.6353 64.8818 17.8264C64.9232 18.0176 64.9248 18.2152 64.8863 18.407C64.8479 18.5988 64.7702 18.7808 64.6582 18.9416L63.0232 21.6357C62.9324 21.8093 62.8069 21.9626 62.6542 22.0861C62.5015 22.2096 62.325 22.3007 62.1354 22.3539C61.9459 22.407 61.7474 22.421 61.5522 22.395C61.3571 22.369 61.1693 22.3035 61.0006 22.2027C60.8319 22.1018 60.6858 21.9677 60.5713 21.8086C60.4568 21.6495 60.3763 21.4687 60.3349 21.2775C60.2935 21.0864 60.2919 20.8888 60.3304 20.697C60.3688 20.5052 60.4465 20.3232 60.5585 20.1624V20.1624ZM62.1754 21.2028L63.877 18.4064C64.1011 18.0395 64.0224 17.805 63.768 17.6487C63.5137 17.4923 63.2593 17.5344 63.0413 17.9012L61.3397 20.6976C61.1156 21.0644 61.1943 21.299 61.4487 21.4553C61.703 21.6117 61.9574 21.5516 62.1754 21.1847V21.2028Z" fill="url(#paint11_linear_522_1407)"/>
<path d="M67.9404 19.5615L69.0304 20.5057C69.745 21.107 69.7511 21.8167 69.1152 22.5383L67.1168 24.8235C67.0116 24.99 66.8693 25.1304 66.7009 25.2338C66.5325 25.3373 66.3425 25.401 66.1455 25.4202C65.9484 25.4393 65.7496 25.4134 65.5642 25.3444C65.3788 25.2753 65.2118 25.165 65.076 25.022L63.986 24.0778L67.9404 19.5615ZM65.6271 24.3725C65.8572 24.5649 66.0934 24.5709 66.378 24.2462L68.4309 21.9009C68.7156 21.5761 68.6792 21.3416 68.4309 21.1431L68.0676 20.8304L65.2456 24.0598L65.6271 24.3725Z" fill="url(#paint12_linear_522_1407)"/>
<path d="M26.5735 67.3818L27.6393 68.2057L25.4774 71.9582L28.5961 68.9514L29.668 69.7693L25.974 74.508L25.2655 73.9608L28.0632 70.3526L24.7265 73.5218L24.1209 73.0347L26.3737 69.0356L23.5759 72.6438L22.9219 72.1387L26.5735 67.3818Z" fill="url(#paint13_linear_522_1407)"/>
<path d="M29.2502 74.8452L31.3758 70.792L32.2175 71.225L30.0617 75.3383C29.8618 75.7172 29.9527 75.9397 30.2191 76.078C30.4856 76.2163 30.7157 76.1622 30.9155 75.7834L33.0714 71.67L33.8828 72.085L31.7512 76.1382C31.6752 76.3172 31.5627 76.4787 31.4208 76.6124C31.2789 76.7461 31.1106 76.8492 30.9266 76.9152C30.7426 76.9812 30.5468 77.0086 30.3516 76.9957C30.1564 76.9829 29.9659 76.93 29.7923 76.8405C29.6187 76.7509 29.4656 76.6267 29.3427 76.4755C29.2198 76.3243 29.1298 76.1495 29.0783 75.962C29.0268 75.7746 29.015 75.5786 29.0435 75.3864C29.072 75.1942 29.1404 75.0099 29.2441 74.8452H29.2502Z" fill="url(#paint14_linear_522_1407)"/>
<path d="M34.1735 77.1363L34.2825 76.8115L35.1303 77.0942L34.9971 77.4851C34.8639 77.888 34.9971 78.0864 35.2817 78.1887C35.5663 78.2909 35.7965 78.1887 35.9357 77.7737C36.075 77.3588 36.0145 76.9438 35.5966 76.2402C35.0698 75.3322 34.991 74.7909 35.1969 74.1415C35.2317 73.9475 35.3103 73.7639 35.4267 73.6044C35.5432 73.4449 35.6945 73.3137 35.8692 73.2206C36.044 73.1274 36.2378 73.0748 36.436 73.0666C36.6342 73.0584 36.8317 73.0949 37.0137 73.1733C37.8857 73.4619 38.1461 74.1234 37.8433 75.0315L37.7646 75.266L36.9107 74.9894L37.0076 74.6947C37.1469 74.2918 37.0076 74.0933 36.7472 73.9851C36.4868 73.8768 36.2506 73.9851 36.1416 74.382C36.0326 74.7789 36.0932 75.1578 36.505 75.8614C37.0379 76.7694 37.1106 77.2986 36.8865 78.0083C36.8516 78.2026 36.7734 78.3868 36.6575 78.5473C36.5417 78.7077 36.3911 78.8404 36.2169 78.9355C36.0427 79.0307 35.8493 79.0859 35.6508 79.0971C35.4523 79.1084 35.2537 79.0754 35.0698 79.0005C34.1069 78.7119 33.8404 78.0443 34.1735 77.1363Z" fill="url(#paint15_linear_522_1407)"/>
<path d="M40.1924 74.123L41.1246 74.2975L39.9866 80.1788L39.0545 79.9984L40.1924 74.123Z" fill="url(#paint16_linear_522_1407)"/>
<path d="M42.8938 79.2045L43.0816 75.9932C43.0789 75.8023 43.1159 75.6129 43.1903 75.4369C43.2646 75.2608 43.3747 75.1019 43.5136 74.97C43.6526 74.8381 43.8174 74.736 43.9978 74.6702C44.1782 74.6044 44.3704 74.5762 44.5623 74.5873C44.7542 74.5985 44.9417 74.6488 45.1131 74.7352C45.2846 74.8215 45.4362 74.9421 45.5587 75.0892C45.6811 75.2364 45.7717 75.407 45.8248 75.5905C45.8779 75.7739 45.8923 75.9663 45.8672 76.1555L45.8309 76.7569L44.9346 76.7088L44.977 76.0172C44.977 75.6203 44.8196 75.4459 44.535 75.4158C44.2503 75.3858 44.0566 75.5481 44.0323 75.939L43.8325 79.2766C43.8325 79.6675 43.9899 79.8359 44.2746 79.878C44.5592 79.9201 44.753 79.7517 44.7772 79.3548L44.8317 78.4467L45.7279 78.4949L45.6734 79.3428C45.6681 79.5278 45.6254 79.7099 45.5478 79.8783C45.4703 80.0466 45.3595 80.1978 45.222 80.3229C45.0846 80.4479 44.9232 80.5443 44.7476 80.6063C44.5719 80.6683 44.3855 80.6946 44.1994 80.6837C44.0133 80.6729 43.8313 80.625 43.6642 80.543C43.497 80.461 43.3482 80.3465 43.2264 80.2063C43.1047 80.0661 43.0125 79.9031 42.9554 79.7268C42.8983 79.5506 42.8773 79.3648 42.8938 79.1804V79.2045Z" fill="url(#paint17_linear_522_1407)"/>
<path d="M50.7421 74.4421L52.1107 74.1775C52.302 74.1186 52.5045 74.1048 52.7021 74.1372C52.8997 74.1695 53.0871 74.2471 53.2493 74.3638C53.4114 74.4805 53.544 74.6331 53.6365 74.8095C53.729 74.9859 53.7788 75.1813 53.7821 75.3802L53.8971 75.9816C54.0849 76.9257 53.7276 77.5271 52.795 77.7015L52.3529 77.7857L52.8253 80.1912L51.8927 80.3716L50.7421 74.4421ZM52.6315 76.8476C52.9282 76.7874 53.0615 76.625 52.9767 76.2041L52.8434 75.5065C52.7587 75.0856 52.5709 74.9833 52.2803 75.0434L51.8382 75.1276L52.1894 76.9318L52.6315 76.8476Z" fill="url(#paint18_linear_522_1407)"/>
<path d="M55.29 73.4075L56.6101 72.9264C56.7774 72.826 56.9668 72.7672 57.1619 72.7552C57.357 72.7432 57.5522 72.7783 57.7307 72.8575C57.9093 72.9367 58.0658 73.0576 58.187 73.2099C58.3083 73.3623 58.3905 73.5415 58.4269 73.7323L58.554 74.081C58.673 74.2892 58.7208 74.5301 58.6903 74.7676C58.6597 75.0051 58.5524 75.2263 58.3845 75.398V75.398C58.881 75.398 59.1778 75.7348 59.4139 76.3663L59.7834 77.3525C59.8524 77.5902 59.9699 77.8113 60.1285 78.002L59.2262 78.3327C59.0682 78.138 58.9527 77.9127 58.8871 77.6712L58.5116 76.6429C58.3179 76.1197 58.0999 76.0114 57.6941 76.1558L57.3913 76.27L58.2815 78.6755L57.3913 79.0003L55.29 73.4075ZM57.3974 75.368C57.7305 75.2477 57.8758 75.0312 57.7062 74.5802L57.5488 74.1472C57.3974 73.7443 57.1975 73.618 56.8826 73.7323L56.4769 73.8826L57.0825 75.4883L57.3974 75.368Z" fill="url(#paint19_linear_522_1407)"/>
<path d="M61.9513 75.5966L60.3889 72.8604C60.2819 72.6968 60.2097 72.5133 60.1768 72.321C60.1438 72.1287 60.1507 71.9318 60.1972 71.7423C60.2436 71.5528 60.3285 71.3747 60.4468 71.219C60.565 71.0632 60.7141 70.9332 60.8848 70.8367C61.0555 70.7402 61.2442 70.6795 61.4395 70.6581C61.6347 70.6367 61.8322 70.6551 62.02 70.7123C62.2078 70.7694 62.3818 70.8641 62.5314 70.9905C62.681 71.1169 62.803 71.2723 62.89 71.4472L64.4584 74.1894C64.5614 74.3533 64.6298 74.5362 64.6597 74.7271C64.6896 74.9179 64.6802 75.1129 64.6322 75.3001C64.5843 75.4873 64.4986 75.6629 64.3804 75.8163C64.2623 75.9698 64.1141 76.0979 63.9447 76.1929C63.7754 76.288 63.5884 76.348 63.3951 76.3694C63.2018 76.3908 63.0061 76.373 62.8198 76.3173C62.6336 76.2616 62.4606 76.169 62.3114 76.0452C62.1621 75.9213 62.0396 75.7687 61.9513 75.5966V75.5966ZM63.6651 74.7066L62.03 71.8801C61.8181 71.5073 61.5759 71.4592 61.3094 71.6095C61.043 71.7599 60.9642 71.9884 61.1762 72.3612L62.7991 75.2057C63.0171 75.5786 63.2594 75.6267 63.5198 75.4763C63.7802 75.326 63.877 75.0794 63.6651 74.7066V74.7066Z" fill="url(#paint20_linear_522_1407)"/>
<path d="M63.8468 69.1019L64.9732 68.1999C65.1144 68.0615 65.2858 67.9572 65.4741 67.895C65.6623 67.8327 65.8625 67.8143 66.0591 67.841C66.2557 67.8677 66.4435 67.9389 66.608 68.0491C66.7725 68.1593 66.9093 68.3055 67.0079 68.4765L68.9215 70.8339C69.5271 71.5796 69.4908 72.2772 68.752 72.8665L67.6256 73.7686L63.8468 69.1019ZM68.2009 72.211C68.4371 72.0246 68.4795 71.7901 68.2009 71.4593L66.2388 69.0538C65.9663 68.7231 65.7301 68.7171 65.494 68.9035L65.1185 69.2042L67.8194 72.5358L68.2009 72.211Z" fill="url(#paint21_linear_522_1407)"/>
<path d="M77.7629 39.0938L73.9962 49.7741L77.7084 47.3506L74.8016 58.8006L81.5538 44.043L77.1936 45.9373L77.7629 39.0938Z" fill="#00E0B8"/>
<path d="M14.8434 39.0938L18.6101 49.7741L14.8979 47.3506L17.7986 58.8006L11.0525 44.043L15.4066 45.9373L14.8434 39.0938Z" fill="#00E0B8"/>
<path d="M97.548 49.564H106.41V50.712H107.964V48.276H102.854C102.7 47.87 102.448 47.408 102.21 47.03L100.754 47.436C100.894 47.688 101.048 47.982 101.16 48.276H96.05V50.712H97.548V49.564ZM99.088 57.026H104.912V57.474H99.088V57.026ZM99.088 55.808H104.912V56.242H99.088V55.808ZM99.088 54.604H104.912V55.01H99.088V54.604ZM106.606 58.3V53.764H97.478V58.3H99.48C98.472 58.678 97.03 59 95.798 59.168C96.092 59.476 96.484 59.98 96.68 60.302C98.304 60.064 100.264 59.518 101.44 58.916L100.6 58.3H103.162L102.588 58.93C104.198 59.35 105.836 59.91 106.844 60.288L107.978 59.266C107.152 59 105.92 58.636 104.688 58.3H106.606ZM102.518 52.532L102.574 52.084H104.366L104.324 52.532H102.518ZM99.368 52.084H101.216L101.16 52.532H99.312L99.368 52.084ZM101.342 50.852L101.3 51.258H99.466L99.522 50.852H101.342ZM104.436 51.258H102.672L102.7 50.852H104.464L104.436 51.258ZM105.99 51.076L106.088 50.012H98.164L98.024 51.076H95.658V52.266H97.856L97.716 53.358H105.766L105.878 52.266H108.412V51.076H105.99ZM122.426 49.69C122.216 49.032 121.586 48.066 121.04 47.338L119.78 47.996C120.312 48.738 120.872 49.774 121.096 50.418L122.426 49.69ZM115.412 49.452H114.67V48.542H115.412V49.452ZM116.658 47.506H113.494V50.502H116.658V47.506ZM111.758 49.452H111.03V48.542H111.758V49.452ZM112.976 47.506H109.84V50.502H112.976V47.506ZM111.352 54.128H112.514V54.884H111.352V54.128ZM111.352 52.252H112.514V52.98H111.352V52.252ZM115.104 52.98H113.914V52.252H115.104V52.98ZM115.104 54.884H113.914V54.128H115.104V54.884ZM116.896 58.258V56.802H113.998V56.102H116.546V51.034H109.98V56.102H112.416V56.802H109.434V58.258H112.416V60.218H113.998V58.258H116.896ZM120.984 52.462C120.718 53.316 120.34 54.17 119.878 54.968C119.766 54.212 119.668 53.358 119.584 52.434L122.608 52.056L122.44 50.53L119.458 50.894C119.388 49.746 119.346 48.5 119.332 47.226H117.75C117.778 48.598 117.834 49.886 117.904 51.076L116.686 51.23L116.854 52.77L118.016 52.63C118.156 54.212 118.352 55.598 118.618 56.732C117.806 57.656 116.854 58.426 115.804 58.916C116.238 59.224 116.728 59.7 117.008 60.078C117.778 59.644 118.492 59.084 119.136 58.412C119.612 59.546 120.256 60.19 121.096 60.232C121.698 60.246 122.412 59.7 122.762 57.264C122.496 57.11 121.824 56.69 121.558 56.326C121.488 57.586 121.334 58.244 121.11 58.244C120.816 58.216 120.55 57.768 120.312 56.984C121.138 55.822 121.81 54.506 122.244 53.162L120.984 52.462ZM127.368 48.836C126.808 48.374 125.674 47.73 124.904 47.324L124.106 48.542C124.89 49.004 125.996 49.718 126.528 50.194L127.368 48.836ZM126.626 52.462C126.066 52.028 124.946 51.412 124.19 51.062L123.42 52.308C124.218 52.728 125.31 53.4 125.842 53.862L126.626 52.462ZM125.954 54.492C125.24 56.102 124.344 57.838 123.686 58.874L124.932 60.022C125.66 58.664 126.416 57.082 127.046 55.626L125.954 54.492ZM134.676 47.156C133.038 47.744 130.378 48.248 127.984 48.556V52.098C127.984 54.254 127.872 57.348 126.472 59.49C126.85 59.616 127.508 60.022 127.802 60.288C129.258 57.992 129.496 54.45 129.496 52.098V49.816C131.736 49.536 134.144 49.102 136.006 48.514L134.676 47.156ZM135.474 52.868C135.194 53.232 134.746 53.694 134.312 54.1C134.13 53.358 133.99 52.546 133.906 51.72C134.578 51.58 135.25 51.398 135.838 51.188L134.55 49.886C133.542 50.292 131.918 50.67 130.434 50.88L130.448 50.894H130.434V57.726C130.434 58.286 130.154 58.58 129.888 58.72C130.126 59.042 130.406 59.7 130.504 60.078C130.784 59.826 131.232 59.56 133.794 58.482C133.668 58.174 133.528 57.6 133.458 57.18L131.89 57.796V52.098C132.1 52.056 132.324 52.028 132.534 51.986C132.954 55.43 133.696 58.342 135.558 59.938C135.81 59.49 136.37 58.832 136.734 58.524C135.81 57.866 135.18 56.788 134.718 55.5C135.306 55.108 135.964 54.576 136.65 54.1L135.474 52.868ZM142.236 49.452H140.318L141.242 48.864C140.976 48.36 140.458 47.59 139.996 47.03L138.75 47.716C139.128 48.248 139.576 48.934 139.842 49.452H137.476V50.768H142.236V49.452ZM141.788 51.398H138.008V52.658H141.788V51.398ZM138.008 54.534H141.788V53.274H138.008V54.534ZM140.626 56.536V58.104H139.212V56.536H140.626ZM141.886 55.206H137.98V60.036H139.212V59.448H141.886V55.206ZM145.61 50.964H147.094V51.58H145.61V50.964ZM145.61 49.312H147.094V49.858H145.61V49.312ZM148.242 54.436V55.08H147.122V54.436H148.242ZM147.122 56.802V56.102H148.242V56.802H147.122ZM144.532 56.102H145.596V56.802H144.532V56.102ZM145.596 54.436V55.08H144.532V54.436H145.596ZM150.51 52.756V51.58H148.648V50.964H149.978V49.858H148.648V49.312H150.202V48.136H148.648V47.156H147.094V48.136H145.61V47.156H144.098V48.136H142.516V49.312H144.098V49.858H142.852V50.964H144.098V51.58H142.278V52.756H145.596V53.274H142.992V56.802H142.25V57.964H142.992V60.232H144.532V57.964H148.242V58.692C148.242 58.846 148.186 58.902 147.99 58.902C147.808 58.902 147.206 58.902 146.632 58.888C146.828 59.252 147.024 59.826 147.08 60.218C148.046 60.218 148.732 60.204 149.208 59.98C149.698 59.756 149.824 59.406 149.824 58.706V57.964H150.496V56.802H149.824V53.274H147.122V52.756H150.51ZM155.144 55.738V57.446H153.52V55.738H155.144ZM155.004 52.028H153.52V50.6H155.004V52.028ZM153.52 53.428H156.474V49.2H154.71C154.962 48.64 155.228 47.954 155.452 47.296L153.604 47.142C153.548 47.744 153.38 48.528 153.212 49.2H152.05V59.714H153.52V58.846H156.614V54.338H153.52V53.428ZM164.426 49.298V47.786H156.852V49.298H159.876V50.544H157.328V58.062H158.84V52.042H159.876V60.204H161.43V52.042H162.536V56.564C162.536 56.704 162.494 56.746 162.368 56.746C162.256 56.746 161.906 56.746 161.556 56.732C161.752 57.11 161.948 57.726 161.976 58.16C162.69 58.16 163.18 58.146 163.572 57.894C163.978 57.642 164.076 57.236 164.076 56.592V50.544H161.43V49.298H164.426ZM171.062 52.322C170.656 51.72 169.83 50.852 169.102 50.166C169.34 49.48 169.536 48.738 169.69 47.982L168.01 47.716C167.646 49.9 166.792 51.818 165.434 52.938C165.812 53.204 166.456 53.792 166.736 54.086C167.422 53.456 167.996 52.644 168.472 51.706C169.046 52.35 169.634 53.036 169.942 53.54L171.062 52.322ZM172.84 56.172H177.334V54.59H172.84V53.036C173.162 53.316 173.526 53.638 173.694 53.848C174.296 53.302 174.814 52.616 175.248 51.832C176.046 52.616 176.844 53.484 177.278 54.086L178.44 52.868C177.894 52.21 176.83 51.188 175.934 50.376C176.214 49.662 176.438 48.878 176.606 48.066L174.94 47.786C174.604 49.606 173.918 51.216 172.84 52.294V47.282H171.118V54.59H166.708V56.172H171.118V58.132H165.7V59.728H178.384V58.132H172.84V56.172ZM186.896 55.668H190.312V56.27H186.896V55.668ZM190.312 51.314V51.902H186.896V51.314H190.312ZM190.312 53.316H186.896V52.756H190.312V53.316ZM186.896 54.198H190.312V54.772H186.896V54.198ZM181.24 50.67C181.576 50.25 181.926 49.802 182.248 49.312C182.864 49.732 183.508 50.222 183.984 50.67H181.24ZM192.538 57.684V56.27H191.74V50.264H188.926L189.052 49.662H192.272V48.332H189.332C189.388 47.968 189.458 47.604 189.514 47.24L187.89 47.184C187.862 47.534 187.82 47.926 187.778 48.332H185.132V49.662H187.596C187.568 49.872 187.526 50.068 187.498 50.264H185.552V56.27H184.684V57.684H186.518C185.986 58.034 185.286 58.384 184.642 58.664L184.558 57.432L182.92 57.74V54.492H184.502V53.078H182.92V52.056H184.054V50.74C184.166 50.838 184.264 50.936 184.348 51.034L185.006 49.69C184.516 49.228 183.732 48.64 182.934 48.15C183.032 47.968 183.116 47.8 183.2 47.618L182.024 47.058C181.408 48.346 180.33 49.578 179.322 50.334C179.504 50.74 179.812 51.664 179.896 52.028C180.12 51.832 180.344 51.622 180.568 51.398V52.056H181.59V53.078H179.798V54.492H181.59V57.992C180.848 58.118 180.162 58.244 179.616 58.328L179.924 59.812C181.142 59.546 182.696 59.196 184.208 58.832L184.11 58.874C184.432 59.21 184.95 59.924 185.16 60.26C186.14 59.742 187.456 58.874 188.31 58.146L187.33 57.684H189.612L188.94 58.496C189.864 59.042 191.026 59.84 191.614 60.33L192.58 58.944C192.118 58.58 191.306 58.118 190.536 57.684H192.538ZM179.91 55.276C180.106 56.032 180.288 57.026 180.344 57.698L181.38 57.376C181.31 56.746 181.1 55.738 180.89 54.982L179.91 55.276ZM183.928 57.516C184.138 56.928 184.362 55.99 184.614 55.178L183.48 54.856C183.396 55.57 183.2 56.578 183.018 57.208L183.928 57.516ZM198.824 56.746C200.56 56.242 201.582 54.94 201.582 53.358C201.582 52.182 201.064 51.44 200.07 51.44C199.328 51.44 198.698 51.916 198.698 52.7C198.698 53.498 199.328 53.946 200.028 53.946C200.084 53.946 200.14 53.946 200.182 53.932C200.098 54.674 199.468 55.276 198.376 55.626L198.824 56.746ZM216.8 53.68H217.766L217.654 53.736C217.808 53.876 217.976 54.03 218.144 54.198L216.8 54.212V53.68ZM213.622 52.756V52.182H215.19V52.756H213.622ZM213.622 50.74H215.19V51.314H213.622V50.74ZM218.396 50.74V51.314H216.8V50.74H218.396ZM218.396 52.756H216.8V52.182H218.396V52.756ZM218.76 55.346L219.18 55.332C219.306 55.5 219.432 55.654 219.516 55.794L220.706 55.136C220.412 54.716 219.894 54.17 219.376 53.68H219.992V49.83H216.8V49.298H220.398V48.094H216.8V47.24H215.19V48.094H211.774L211.928 47.688L210.346 47.184C209.632 49.186 208.428 51.174 207.168 52.434C207.448 52.826 207.896 53.75 208.05 54.156C208.372 53.82 208.694 53.442 209.002 53.036V60.19H210.584V50.572C210.934 49.942 211.256 49.284 211.536 48.64V49.298H215.19V49.83H212.096V53.68H215.19V54.24C213.804 54.254 212.53 54.268 211.536 54.268L211.676 55.514C213.16 55.486 215.134 55.444 217.164 55.388V55.99H211.242V57.25H213.188L212.474 57.698C213.09 58.272 213.79 59.084 214.112 59.616L215.428 58.776C215.134 58.342 214.574 57.754 214.042 57.25H217.164V58.65C217.164 58.804 217.094 58.86 216.884 58.874C216.688 58.874 215.974 58.874 215.33 58.846C215.526 59.252 215.722 59.812 215.792 60.232C216.8 60.232 217.542 60.232 218.074 60.022C218.62 59.812 218.76 59.434 218.76 58.692V57.25H220.538V55.99H218.76V55.346ZM233.04 47.226C231.318 47.618 228.49 47.926 226.04 48.052C226.194 48.388 226.39 48.934 226.418 49.298C228.924 49.186 231.906 48.92 234.02 48.444L233.04 47.226ZM231.024 50.964C230.926 50.488 230.688 49.732 230.45 49.144L229.162 49.438C229.372 50.04 229.582 50.838 229.666 51.328L231.024 50.964ZM227.37 52.826H232.83V53.75H234.37V51.468H232.914C233.292 50.852 233.67 50.124 234.048 49.41L232.508 48.962C232.27 49.718 231.822 50.74 231.416 51.468H227.496L228.546 51.09C228.406 50.614 228.056 49.886 227.748 49.326L226.488 49.746C226.768 50.278 227.062 50.978 227.188 51.468H225.9V53.736H227.37V52.826ZM225.662 53.036L224.542 53.358V51.328H225.746V49.788H224.542V47.156H223.002V49.788H221.504V51.328H223.002V53.764C222.372 53.932 221.812 54.072 221.336 54.184L221.7 55.766L223.002 55.402V58.454C223.002 58.636 222.946 58.692 222.778 58.692C222.61 58.706 222.134 58.706 221.616 58.678C221.826 59.126 222.008 59.812 222.05 60.218C222.946 60.232 223.562 60.176 223.968 59.91C224.402 59.644 224.542 59.224 224.542 58.454V54.94C224.976 54.814 225.438 54.688 225.872 54.548L225.662 53.036ZM231.514 55.374C231.122 56.046 230.59 56.592 229.932 57.068C229.33 56.592 228.826 56.032 228.462 55.374H231.514ZM232.606 53.96L232.34 54.016H226.628V55.374H227.748L226.964 55.598C227.398 56.466 227.93 57.222 228.574 57.838C227.622 58.272 226.544 58.566 225.354 58.748C225.62 59.084 225.956 59.784 226.082 60.204C227.482 59.924 228.77 59.49 229.876 58.86C230.87 59.504 232.06 59.952 233.46 60.232C233.656 59.784 234.104 59.112 234.454 58.79C233.25 58.622 232.2 58.314 231.29 57.88C232.312 56.998 233.11 55.836 233.586 54.338L232.606 53.96ZM244.94 55.192V56.116H239.13V55.192H244.94ZM239.13 58.384V57.376H244.94V58.384H239.13ZM237.464 60.246H239.13V59.756H244.94V60.232H246.69V53.806H237.464V60.246ZM244.128 49.746C243.974 50.292 243.722 50.95 243.498 51.468H240.614C240.516 50.964 240.236 50.278 239.9 49.746H244.128ZM245.318 51.468C245.542 51.034 245.78 50.544 246.018 50.026L244.73 49.746H247.628V48.276H243.12C242.98 47.856 242.77 47.38 242.532 46.988L240.796 47.268C240.95 47.562 241.118 47.926 241.23 48.276H236.512V49.746H239.592L238.234 50.012C238.458 50.446 238.668 50.992 238.794 51.468H235.728V52.952H248.286V51.468H245.318ZM99.97 72.058C99.886 71.372 99.69 70.364 99.466 69.566L98.416 69.804C98.486 70.084 98.556 70.392 98.612 70.714L97.506 70.826C98.388 69.846 99.27 68.684 99.928 67.536L98.752 66.892C98.57 67.298 98.332 67.704 98.108 68.096L97.38 68.152C97.87 67.438 98.346 66.57 98.696 65.758L97.408 65.31C97.1 66.374 96.484 67.466 96.288 67.76C96.092 68.054 95.91 68.264 95.7 68.306C95.854 68.642 96.064 69.244 96.134 69.51C96.288 69.426 96.54 69.356 97.366 69.244C97.016 69.734 96.708 70.112 96.568 70.28C96.218 70.686 95.952 70.952 95.658 71.022C95.812 71.344 96.022 71.988 96.092 72.226C96.33 72.114 96.722 72.016 98.794 71.736C98.822 71.946 98.85 72.142 98.864 72.31L99.97 72.058ZM99.34 74.62C98.486 75.432 96.862 76.132 95.308 76.44C95.658 76.762 96.148 77.406 96.4 77.812C98.066 77.35 99.704 76.328 100.684 75.124L99.34 74.62ZM108.3 74.2V72.828H102.882V72.156H101.216V72.828H95.672V74.2H101.216V78.176H102.882V74.2H108.3ZM103.596 75.488C104.842 76.174 106.494 77.224 107.264 77.91L108.328 76.72C107.488 76.048 105.794 75.068 104.576 74.452L103.596 75.488ZM102.518 68.516H101.468V67.578H102.518V68.516ZM102.518 70.63H101.468V69.65H102.518V70.63ZM102.476 66.36L102.924 65.296L101.412 65.044C101.384 65.422 101.286 65.912 101.174 66.36H100.054V71.848H103.988V66.36H102.476ZM106.816 69.986C106.886 70.252 106.956 70.546 107.026 70.854L105.934 70.952C106.844 69.986 107.74 68.796 108.44 67.648L107.236 66.962C107.054 67.34 106.844 67.718 106.648 68.068L105.71 68.152C106.2 67.424 106.704 66.542 107.04 65.674L105.696 65.296C105.388 66.374 104.758 67.494 104.562 67.788C104.38 68.082 104.184 68.292 103.988 68.348C104.142 68.684 104.352 69.3 104.422 69.58C104.59 69.482 104.87 69.412 105.836 69.272C105.472 69.79 105.15 70.182 104.996 70.35C104.646 70.742 104.38 71.008 104.086 71.078C104.24 71.414 104.45 72.072 104.52 72.338C104.758 72.212 105.164 72.128 107.25 71.904C107.278 72.1 107.306 72.282 107.32 72.45L108.44 72.156C108.328 71.498 108.09 70.49 107.852 69.72L106.816 69.986ZM114.908 65.156C114.852 67.522 115.118 73.794 109.434 76.832C109.994 77.21 110.526 77.742 110.82 78.19C113.732 76.482 115.202 73.948 115.972 71.484C116.784 73.892 118.338 76.622 121.446 78.106C121.67 77.63 122.146 77.07 122.664 76.664C117.778 74.508 116.924 69.23 116.728 67.34C116.784 66.5 116.812 65.744 116.826 65.156H114.908ZM127.648 75.502C126.794 76.02 125.17 76.496 123.77 76.692C124.106 77 124.54 77.546 124.75 77.896C126.192 77.56 127.872 76.832 128.824 76.034L127.648 75.502ZM131.414 76.202C132.59 76.692 134.228 77.434 135.04 77.896L136.216 76.986C135.32 76.538 133.668 75.838 132.534 75.418L131.414 76.202ZM132.002 68.726C131.806 69.062 131.512 69.482 131.288 69.804L131.792 69.958H127.97L128.726 69.776C128.614 69.482 128.39 69.076 128.166 68.726H132.002ZM130.812 73.668V73.052H135.012V71.848H130.812V71.218H135.67V69.958H132.968C133.22 69.706 133.514 69.398 133.822 69.062L132.506 68.726H136.202V67.424H134.396C134.746 66.934 135.124 66.304 135.516 65.66L133.766 65.254C133.57 65.856 133.192 66.71 132.87 67.27L133.374 67.424H132.128V65.142H130.56V67.424H129.51V65.142H127.97V67.424H126.682L127.354 67.172C127.172 66.64 126.71 65.8 126.29 65.212L124.862 65.688C125.184 66.22 125.548 66.892 125.758 67.424H123.854V68.726H127.424L126.486 68.936C126.668 69.244 126.878 69.636 127.004 69.958H124.428V71.218H129.16V71.848H125.128V73.052H129.16V73.668H123.826V75.04H129.16V78.232H130.812V75.04H136.244V73.668H130.812ZM140.71 69.216H143.16V70.224H140.71V69.216ZM140.71 66.962H143.16V67.97H140.71V66.962ZM147.29 67.97H144.84V66.962H147.29V67.97ZM147.29 70.224H144.84V69.216H147.29V70.224ZM149.026 71.568V65.618H139.044V71.568H141.27C140.276 72.422 138.89 73.15 137.49 73.556C137.854 73.906 138.344 74.522 138.582 74.928C139.478 74.606 140.332 74.172 141.13 73.626V74.13C141.13 75.026 140.85 76.202 138.512 76.972C138.876 77.28 139.436 77.91 139.66 78.316C142.446 77.294 142.852 75.53 142.852 74.2V73.234H141.662C142.292 72.73 142.88 72.184 143.342 71.568H144.784C145.232 72.198 145.792 72.744 146.422 73.248H145.372V78.176H147.108V73.752C147.836 74.228 148.634 74.606 149.474 74.886C149.726 74.438 150.23 73.794 150.58 73.458C149.138 73.094 147.752 72.408 146.744 71.568H149.026ZM161.948 72.1C161.654 71.526 161.052 70.672 160.478 69.93C160.912 69.286 161.402 68.502 161.822 67.788L160.422 67.466C160.1 68.124 159.498 69.132 158.938 69.944C159.666 70.896 160.324 71.932 160.632 72.646L161.948 72.1ZM158.07 67.438C157.748 68.11 157.174 69.132 156.6 69.972C157.328 70.938 157.944 71.974 158.252 72.702L159.582 72.184C159.288 71.582 158.728 70.714 158.14 69.944C158.588 69.286 159.064 68.502 159.484 67.774L158.07 67.438ZM164.412 72.128C164.09 71.54 163.446 70.686 162.816 69.944C163.278 69.286 163.782 68.516 164.216 67.774L162.788 67.438C162.452 68.11 161.836 69.146 161.248 69.972C162.046 70.924 162.76 71.974 163.096 72.702L164.412 72.128ZM164.37 65.73H156.824V67.214H164.37V65.73ZM156.964 73.388C156.824 72.646 156.446 71.428 156.096 70.504L154.906 70.882C155.018 71.218 155.144 71.596 155.242 71.974L153.772 72.156C154.822 70.924 155.844 69.426 156.628 67.984L155.256 67.144C154.99 67.76 154.654 68.376 154.318 68.964L153.394 69.034C154.094 68.04 154.766 66.836 155.27 65.688L153.828 65.086C153.338 66.57 152.456 68.124 152.162 68.53C151.882 68.95 151.644 69.216 151.364 69.3C151.532 69.678 151.77 70.378 151.854 70.672C152.064 70.574 152.372 70.49 153.422 70.364C153.03 70.924 152.708 71.33 152.54 71.526C152.106 72.044 151.798 72.352 151.448 72.436C151.63 72.856 151.882 73.598 151.966 73.892C152.274 73.738 152.778 73.64 155.578 73.22C155.62 73.444 155.662 73.654 155.69 73.822L156.964 73.388ZM151.994 74.34C151.91 75.516 151.742 76.818 151.406 77.658C151.756 77.77 152.414 77.966 152.708 78.134C153.002 77.238 153.254 75.852 153.352 74.55L151.994 74.34ZM153.59 74.55C153.73 75.46 153.87 76.678 153.884 77.448L155.158 77.196C155.116 76.412 154.948 75.25 154.78 74.312L153.59 74.55ZM155.032 74.242C155.27 74.942 155.536 75.838 155.634 76.426L156.81 76.006C156.684 75.432 156.418 74.564 156.166 73.878L155.032 74.242ZM161.36 76.37V74.438H163.95V72.954H157.16V74.438H159.68V76.37H156.516V77.896H164.524V76.37H161.36ZM166.274 77.266C166.512 76.482 166.694 75.152 166.778 74.228L165.952 73.934C165.854 74.858 165.644 76.146 165.378 76.958L166.274 77.266ZM166.932 74.228C166.988 75.04 167.03 76.104 167.002 76.804L167.73 76.72C167.73 76.02 167.688 74.97 167.618 74.172L166.932 74.228ZM167.758 74.13C167.926 74.844 168.094 75.796 168.136 76.412L168.836 76.272C168.78 75.67 168.598 74.746 168.43 74.018L167.758 74.13ZM167.38 71.232H168.248V72.114H167.38V71.232ZM168.248 67.032V67.956H167.38V67.032H168.248ZM168.248 70.014H167.38V69.188H168.248V70.014ZM173.33 68.222C173.82 67.83 174.282 67.41 174.674 66.962C175.15 67.396 175.682 67.816 176.228 68.222H173.33ZM172.35 73.906C172.098 75.236 171.566 76.454 170.74 77.238C170.908 76.594 170.978 75.25 171.048 72.646C171.062 72.478 171.062 72.114 171.062 72.114H169.508V71.232H170.754V70.014H169.508V69.188H170.712V68.418C171.02 68.67 171.44 69.118 171.636 69.384C171.958 69.188 172.28 68.992 172.602 68.782V69.482H176.718V68.558C177.152 68.852 177.586 69.104 178.02 69.328C178.118 68.908 178.398 68.18 178.636 67.802C177.558 67.396 176.34 66.654 175.5 65.912C175.598 65.772 175.696 65.632 175.78 65.478L174.296 64.96C173.554 66.178 172.196 67.452 170.712 68.278V67.956H169.508V67.032H170.936V65.674H166.092V73.472H169.746C169.718 74.144 169.704 74.704 169.676 75.152C169.55 74.718 169.368 74.2 169.186 73.794L168.598 73.99C168.822 74.55 169.06 75.306 169.158 75.796L169.648 75.614C169.592 76.342 169.536 76.678 169.452 76.818C169.354 76.958 169.256 76.972 169.102 76.972C168.962 76.972 168.668 76.972 168.318 76.93C168.486 77.266 168.626 77.784 168.64 78.162C169.088 78.176 169.522 78.162 169.802 78.106C170.124 78.064 170.362 77.952 170.572 77.644C170.628 77.574 170.67 77.476 170.712 77.336C171.034 77.574 171.552 77.994 171.762 78.232C172.224 77.756 172.63 77.154 172.966 76.454C173.358 76.748 173.736 77.084 173.96 77.322L174.772 76.244C174.492 75.936 173.96 75.53 173.456 75.222C173.568 74.872 173.666 74.508 173.75 74.144L172.35 73.906ZM175.948 71.26H176.83V72.576H175.948V71.26ZM174.87 73.626H177.978V70.224H174.87V73.626ZM172.504 71.26H173.274V72.576H172.504V71.26ZM171.426 73.626H174.422V70.224H171.426V73.626ZM175.766 73.836C175.556 75.236 175.08 76.51 174.268 77.308C174.618 77.518 175.234 77.98 175.472 78.232C175.78 77.896 176.06 77.476 176.298 77.028C176.774 77.392 177.25 77.784 177.516 78.078L178.482 76.944C178.118 76.594 177.446 76.104 176.858 75.712C177.026 75.194 177.152 74.648 177.25 74.088L175.766 73.836Z" fill="black"/>
<path d="M96.6 17.71V18.5H105.43V17.71H96.6ZM96.63 13.28V14.04H105.39V13.28H96.63ZM97.04 15.05V15.79H105.02V15.05H97.04ZM97.54 16.4V17.1H104.54V16.4H97.54ZM100.51 15.4V20.85H101.45V15.4H100.51ZM99.63 11.55V13.66H100.51V11.55H99.63ZM101.5 11.55V13.61H102.4V11.55H101.5ZM103.82 11.66C103.66 12.11 103.36 12.75 103.1 13.16L103.87 13.41C104.14 13.02 104.49 12.46 104.8 11.91L103.82 11.66ZM102.55 13.99C102.42 14.26 102.16 14.67 101.97 14.95L102.76 15.19C102.99 14.95 103.27 14.61 103.54 14.25L102.55 13.99ZM97.41 11.92C97.72 12.38 98.05 13.01 98.18 13.41L99.03 13.09C98.9 12.69 98.55 12.08 98.22 11.64L97.41 11.92ZM98.62 14.18C98.82 14.49 99.03 14.91 99.11 15.17L100.03 14.94C99.93 14.67 99.71 14.27 99.51 13.98L98.62 14.18ZM99.44 18.93C98.81 19.34 97.58 19.71 96.55 19.87C96.74 20.04 97 20.35 97.12 20.56C98.16 20.33 99.43 19.81 100.13 19.25L99.44 18.93ZM102 19.35C102.91 19.7 104.15 20.23 104.77 20.55L105.41 20C104.74 19.68 103.5 19.19 102.61 18.87L102 19.35ZM107.12 13.06V13.86H109.01V15.14H107.12V15.95H109.85V13.06H107.12ZM107.15 16.75V17.56H109.1V19.06H107.15V19.86H109.95V16.75H107.15ZM106.76 13.06V20.52H107.61V13.06H106.76ZM110.19 12.06V12.92H115.58V12.06H110.19ZM107.97 11.55C107.89 12.07 107.7 12.79 107.53 13.28L108.28 13.43C108.51 12.98 108.79 12.29 109.01 11.68L107.97 11.55ZM112.43 12.45V20.83H113.32V12.45H112.43ZM110.55 14.01V19.32H111.42V14.86H114.87V14.01H110.55ZM114.42 14.01V18.4C114.42 18.5 114.39 18.53 114.29 18.53C114.2 18.54 113.91 18.54 113.59 18.53C113.71 18.76 113.82 19.11 113.85 19.35C114.37 19.35 114.72 19.34 114.98 19.19C115.24 19.05 115.3 18.81 115.3 18.41V14.01H114.42ZM118.46 13.89C119.15 14.24 120 14.79 120.41 15.18L121.07 14.58C120.65 14.19 119.78 13.67 119.1 13.35L118.46 13.89ZM123.04 12.37V12.51C121.99 14.43 119.19 15.72 116.59 16.17C116.76 16.38 116.95 16.75 117.03 17C119.79 16.41 122.69 15.05 123.99 12.69L123.38 12.32L123.22 12.37H123.04ZM119.77 12.37V13.15H123.26V12.37H119.77ZM120.43 11.54C119.74 12.37 118.46 13.27 116.67 13.88C116.88 14.03 117.17 14.36 117.31 14.58C119.17 13.84 120.51 12.87 121.48 11.76L120.43 11.54ZM119.78 17.61C120.49 18.01 121.37 18.63 121.77 19.06L122.51 18.47C122.07 18.03 121.18 17.45 120.47 17.07L119.78 17.61ZM124.41 15.93V16.07C123.39 18.52 120.51 19.65 117.38 20C117.54 20.22 117.72 20.6 117.79 20.86C121.13 20.39 124.15 19.16 125.39 16.22L124.77 15.89L124.6 15.93H124.41ZM121.29 15.93V16.73H124.66V15.93H121.29ZM122.05 14.98C121.28 15.93 119.8 16.94 117.69 17.58C117.89 17.75 118.16 18.09 118.27 18.32C120.47 17.53 122.03 16.46 123.09 15.22L122.05 14.98ZM128.64 11.52C128.18 12.86 127.37 14.15 126.44 14.95C126.68 15.09 127.08 15.4 127.26 15.56C128.17 14.67 129.06 13.25 129.6 11.77L128.64 11.52ZM128.65 12.72L128.19 13.64H135.06V12.72H128.65ZM128.06 15.03V18.17H129.01V15.92H134.83V15.03H128.06ZM126.44 17.7V18.61H135.56V17.7H126.44ZM131.04 13.2V20.85H132.01V13.2H131.04ZM137.7 15.67V16.42H140.2V15.67H137.7ZM136.76 12.55V13.36H139.85V12.55H136.76ZM136.35 14.21V15.03H141.22V14.21H136.35ZM138 11.56V14.63H138.88V11.56H138ZM140.54 11.8C139.71 13.87 138.18 15.52 136.26 16.48C136.45 16.65 136.78 17.02 136.91 17.2C138.85 16.1 140.46 14.34 141.41 12.06L140.54 11.8ZM138.42 17.23V19.88C138.42 19.99 138.38 20.02 138.25 20.03C138.12 20.03 137.69 20.04 137.24 20.02C137.36 20.26 137.48 20.59 137.52 20.83C138.16 20.83 138.61 20.83 138.92 20.69C139.23 20.57 139.31 20.34 139.31 19.9V17.23H138.42ZM139.95 15.67V15.83C139.63 16.26 138.98 16.87 138.42 17.23C138.56 17.34 138.78 17.57 138.88 17.72C139.55 17.31 140.32 16.64 140.85 16.03L140.32 15.62L140.14 15.67H139.95ZM136.35 18.08L136.46 18.93C137.71 18.79 139.51 18.57 141.2 18.36L141.19 17.55C139.43 17.75 137.57 17.96 136.35 18.08ZM142.03 13.41V14.29H145.64V13.41H142.03ZM142.24 11.56C141.96 13.29 141.43 14.95 140.6 15.98C140.82 16.13 141.21 16.47 141.37 16.64C142.24 15.47 142.85 13.64 143.2 11.71L142.24 11.56ZM144.09 13.92C143.73 17 142.81 18.96 140.47 20.03C140.65 20.23 140.93 20.66 141.03 20.88C143.55 19.6 144.6 17.45 145.06 14.01L144.09 13.92ZM142.53 14.12L141.68 14.26C142.17 17.28 143.08 19.66 145.07 20.84C145.21 20.58 145.51 20.21 145.73 20.02C143.88 19.05 142.96 16.78 142.53 14.12ZM146.49 18.16V18.94H155.5V18.16H146.49ZM148.39 16.43V17.12H152.97V16.43H148.39ZM150.63 17.8V19.88C150.63 20.01 150.59 20.04 150.43 20.05C150.27 20.05 149.69 20.05 149.13 20.03C149.25 20.26 149.39 20.58 149.44 20.83C150.22 20.83 150.74 20.83 151.1 20.71C151.46 20.58 151.56 20.36 151.56 19.91V17.8H150.63ZM152.74 16.43V16.59C152.29 16.98 151.39 17.51 150.63 17.8C150.75 17.91 150.97 18.14 151.07 18.29C151.98 17.94 152.99 17.41 153.71 16.87L153.16 16.38L152.96 16.43H152.74ZM146.69 15.15V17.08H147.59V15.86H154.39V17.08H155.33V15.15H146.69ZM153.89 11.92C153.84 13.07 153.74 14.58 153.61 15.52H154.52C154.63 14.61 154.73 13.1 154.79 11.92H153.89ZM152.37 11.92V12.54H154.26V11.92H152.37ZM149.26 11.63C148.74 11.8 147.87 12.05 147.28 12.15L147.62 12.68C148.22 12.59 149.07 12.43 149.67 12.19L149.26 11.63ZM147.76 13V13.61H149.6V13H147.76ZM147.8 14.07V14.69H149.64V14.07H147.8ZM152.43 13V13.61H154.17V13H152.43ZM152.37 14.07V14.69H154.1V14.07H152.37ZM151.43 11.64C151.05 12.15 150.36 12.62 149.68 12.94C149.83 13.04 150.08 13.26 150.19 13.38C150.87 13.02 151.62 12.44 152.07 11.82L151.43 11.64ZM149.87 12.13C150.52 12.44 151.31 12.93 151.69 13.29L152.16 12.86C151.75 12.51 150.96 12.03 150.32 11.74L149.87 12.13ZM151.45 13.33C151.05 13.87 150.31 14.37 149.6 14.69C149.75 14.8 149.99 15.05 150.1 15.17C150.82 14.79 151.61 14.18 152.09 13.52L151.45 13.33ZM149.83 13.82C150.51 14.17 151.33 14.71 151.72 15.1L152.2 14.66C151.79 14.27 150.95 13.76 150.29 13.44L149.83 13.82ZM147.28 12.15L147.49 15.49H148.37L148.18 12.39L147.28 12.15ZM160.14 12.03V12.88H165.5V12.03H160.14ZM160.37 17.21V18.06H165.2V17.21H160.37ZM159.86 19.74V20.61H165.61V19.74H159.86ZM162.29 17.61V20.27H163.24V17.61H162.29ZM161.07 13.13C160.84 13.61 160.41 14.35 160.01 14.96C160.53 15.66 160.99 16.42 161.21 16.94L161.98 16.63C161.77 16.19 161.33 15.51 160.9 14.95C161.23 14.45 161.61 13.85 161.88 13.33L161.07 13.13ZM162.78 13.14C162.55 13.62 162.12 14.35 161.7 14.95C162.24 15.64 162.72 16.39 162.94 16.91L163.7 16.58C163.49 16.15 163.04 15.49 162.6 14.94C162.93 14.45 163.31 13.85 163.59 13.34L162.78 13.14ZM164.5 13.13C164.26 13.61 163.81 14.36 163.38 14.96C163.95 15.65 164.48 16.42 164.72 16.94L165.48 16.59C165.24 16.16 164.76 15.5 164.3 14.95C164.63 14.45 165.02 13.86 165.32 13.34L164.5 13.13ZM158.78 15.58C159.03 16.27 159.29 17.16 159.37 17.7L160.12 17.45C160.02 16.92 159.74 16.04 159.48 15.38L158.78 15.58ZM157.85 18.19C157.97 18.85 158.07 19.73 158.09 20.3L158.83 20.15C158.8 19.58 158.68 18.72 158.56 18.06L157.85 18.19ZM156.77 18.07C156.69 18.91 156.55 19.83 156.31 20.44C156.51 20.51 156.89 20.63 157.07 20.72C157.28 20.08 157.46 19.11 157.56 18.2L156.77 18.07ZM156.59 15.41C156.59 15.23 157.12 14.96 157.12 14.96V14.94C157.78 14.15 158.47 12.99 158.97 11.89L158.13 11.54C157.75 12.62 157.08 13.75 156.86 14.04C156.66 14.35 156.49 14.55 156.3 14.59C156.4 14.82 156.54 15.23 156.59 15.41ZM156.59 15.41C156.77 15.32 157.07 15.25 158.65 15.09C158.66 14.9 158.69 14.57 158.74 14.34L156.98 14.48L156.56 14.74L156.59 15.41ZM156.66 17.69C156.66 17.52 157.21 17.24 157.21 17.24V17.22C158.17 16.24 159.14 14.86 159.88 13.52L159.09 13.05C158.46 14.4 157.44 15.82 157.12 16.18C156.81 16.55 156.59 16.79 156.36 16.84C156.47 17.08 156.61 17.51 156.66 17.69ZM156.66 17.69C156.87 17.58 157.21 17.5 159.43 17.18C159.42 16.99 159.44 16.66 159.47 16.43L157.04 16.74L156.62 17.01L156.66 17.69ZM158.85 17.98C159.04 18.5 159.24 19.19 159.31 19.63L160.01 19.39C159.92 18.95 159.7 18.29 159.51 17.77L158.85 17.98ZM167.28 13.58V14.3H170.04V13.58H167.28ZM167.28 15.06V15.78H170.06V15.06H167.28ZM168.33 12.57V17.11H169.07V12.57H168.33ZM168.56 17.76C168.75 18.17 168.97 18.72 169.06 19.08L169.45 18.92C169.36 18.58 169.13 18.04 168.93 17.63L168.56 17.76ZM167.97 17.9C168.11 18.41 168.25 19.09 168.3 19.54L168.74 19.44C168.68 19 168.53 18.33 168.39 17.82L167.97 17.9ZM167.37 17.98C167.44 18.57 167.47 19.32 167.46 19.82L167.92 19.76C167.91 19.27 167.87 18.52 167.8 17.94L167.37 17.98ZM166.71 17.79C166.64 18.45 166.48 19.4 166.28 19.98L166.82 20.18C167 19.6 167.14 18.63 167.22 17.96L166.71 17.79ZM169.51 16.58V16.72C169.46 19.02 169.4 19.83 169.26 20.01C169.2 20.11 169.13 20.12 169.02 20.12C168.9 20.12 168.66 20.12 168.38 20.09C168.49 20.29 168.56 20.59 168.58 20.8C168.88 20.82 169.19 20.82 169.38 20.79C169.61 20.76 169.77 20.7 169.91 20.5C170.12 20.22 170.19 19.35 170.26 16.91C170.27 16.81 170.27 16.58 170.27 16.58H169.51ZM170.22 11.99H166.81V17.37H169.91V16.58H167.56V12.77H170.22V11.99ZM171.25 15.83H172V16.96H171.25V15.83ZM170.61 15.2V17.58H172.68V15.2H170.61ZM173.73 15.83H174.54V16.96H173.73V15.83ZM173.08 15.2V17.58H175.22V15.2H173.08ZM171.31 17.84C171.11 18.85 170.67 19.75 170.03 20.32C170.22 20.45 170.53 20.72 170.67 20.85C171.35 20.19 171.86 19.15 172.11 17.98L171.31 17.84ZM171.4 13.79V14.53H174.38V13.79H171.4ZM171.23 19.22C171.66 19.5 172.2 19.92 172.45 20.21L172.94 19.58C172.68 19.31 172.13 18.91 171.7 18.66L171.23 19.22ZM173.79 17.79C173.61 18.83 173.22 19.74 172.58 20.31C172.78 20.44 173.13 20.71 173.28 20.85C173.94 20.18 174.42 19.13 174.63 17.93L173.79 17.79ZM173.56 19.47C174.07 19.83 174.72 20.35 175.03 20.7L175.59 20.05C175.27 19.72 174.61 19.23 174.1 18.89L173.56 19.47ZM172.67 11.45C172.14 12.38 171.14 13.35 170.02 13.97C170.2 14.11 170.48 14.4 170.61 14.57C171.8 13.87 172.88 12.87 173.53 11.74L172.67 11.45ZM173.06 11.75L172.42 12.14C173.09 12.99 174.28 13.95 175.31 14.51C175.37 14.28 175.54 13.88 175.69 13.67C174.75 13.25 173.62 12.45 173.06 11.75ZM180.17 18.24C181.3 17.88 182 17.01 182 15.91C182 15.15 181.67 14.66 181.05 14.66C180.59 14.66 180.19 14.95 180.19 15.46C180.19 15.97 180.58 16.25 181.03 16.25C181.24 16.25 181.44 16.19 181.59 16.03L181.04 15.21L181.18 16.11C181.18 16.79 180.73 17.29 179.9 17.59L180.17 18.24ZM189.72 12.26V12.96H195.51V12.26H189.72ZM189.92 15.53V16.13H195.4V15.53H189.92ZM190.07 16.57V17.17H195.24V16.57H190.07ZM189.61 17.61V18.28H195.62V17.61H189.61ZM191.09 14.91V17.81H191.94V14.91H191.09ZM193.25 14.91V17.81H194.1V14.91H193.25ZM192.03 17.79C191.5 18.38 190.43 18.82 189.42 19.09C189.56 19.22 189.79 19.54 189.88 19.69C190.93 19.34 192.1 18.76 192.73 18.01L192.03 17.79ZM193.23 17.92L192.52 18.08C192.98 19.41 193.88 20.38 195.26 20.81C195.37 20.6 195.59 20.3 195.77 20.13C194.51 19.82 193.63 19 193.23 17.92ZM194.98 18.37C194.63 18.62 194 18.98 193.57 19.18L194 19.63C194.44 19.44 195.03 19.16 195.48 18.84L194.98 18.37ZM190.79 13.85H191.67V14.51H190.79V13.85ZM190.09 13.31V15.04H192.4V13.31H190.09ZM193.56 13.85H194.47V14.51H193.56V13.85ZM192.86 13.31V15.04H195.21V13.31H192.86ZM191.94 11.68C192.13 12.02 192.32 12.47 192.38 12.76L193.21 12.49C193.14 12.2 192.94 11.77 192.73 11.44L191.94 11.68ZM190.9 20.83C190.9 20.55 191.66 19.94 191.66 19.94V18.74L190.93 18.71V19.38C190.93 19.86 190.67 20.14 190.5 20.27C190.63 20.39 190.83 20.68 190.9 20.83ZM190.9 20.83C191.07 20.73 191.36 20.64 193.05 20.28C193.02 20.1 193.01 19.79 193.02 19.57L191.22 19.89L190.86 20.16L190.9 20.83ZM186.75 14.61V15.34H189.27V14.61H186.75ZM186.75 15.96V16.69H189.27V15.96H186.75ZM186.34 13.25V14.02H189.57V13.25H186.34ZM187.29 17.32V18.07H188.6V19.53H187.29V20.28H189.3V17.32H187.29ZM186.69 17.32V20.73H187.37V17.32H186.69ZM187.29 11.86C187.53 12.29 187.76 12.87 187.84 13.23L188.55 12.95C188.47 12.6 188.22 12.04 187.97 11.62L187.29 11.86ZM200.59 11.6C200.25 13.04 199.66 14.45 198.91 15.35C199.13 15.49 199.51 15.8 199.67 15.96C200.45 14.96 201.12 13.4 201.52 11.81L200.59 11.6ZM200.37 15.93C200.11 17.09 199.66 18.26 199.06 19C199.29 19.12 199.69 19.37 199.87 19.52C200.46 18.69 200.99 17.42 201.29 16.12L200.37 15.93ZM200.63 13.43L200.28 14.31H204.96V13.43H200.63ZM202.01 13.81V19.74C202.01 19.87 201.96 19.91 201.84 19.91C201.7 19.91 201.27 19.92 200.82 19.9C200.96 20.16 201.1 20.58 201.15 20.85C201.78 20.85 202.24 20.82 202.54 20.67C202.86 20.51 202.95 20.24 202.95 19.75V13.81H202.01ZM203.51 16.13C204.03 17.17 204.5 18.57 204.64 19.48L205.54 19.17C205.38 18.25 204.91 16.89 204.36 15.85L203.51 16.13ZM204.69 13.43V13.56C204.61 14.24 204.49 15.1 204.39 15.62L205.2 15.77C205.33 15.2 205.51 14.31 205.64 13.53L204.98 13.4L204.82 13.43H204.69ZM198.52 11.6C197.98 13.08 197.08 14.55 196.12 15.49C196.29 15.71 196.55 16.22 196.64 16.45C197.73 15.32 198.76 13.58 199.41 11.88L198.52 11.6ZM197.52 14.26V20.83H198.42V13.37L198.41 13.36L197.52 14.26ZM212.6 12.04V12.86H214.45V12.04H212.6ZM210.32 12.46V13.25H212.29V12.46H210.32ZM212.7 13.95V14.74H214.41V13.95H212.7ZM212.63 15.81V16.6H214.33V15.81H212.63ZM207.69 13.93V14.72H209.38V13.93H207.69ZM207.74 15.78V16.57H209.42V15.78H207.74ZM213.92 12.04C213.93 13.92 213.85 16.48 213.74 17.98H214.62C214.73 16.5 214.78 13.96 214.79 12.04H213.92ZM209.11 11.61C208.6 11.86 207.85 12.16 207.22 12.37C207.31 12.57 207.41 12.85 207.45 13.04C208.1 12.87 208.89 12.64 209.54 12.38L209.11 11.61ZM209.86 11.64V14.93H211.9V14.18H210.67V11.64H209.86ZM206.43 17.63V18.51H215.58V17.63H206.43ZM211.89 19.18C212.92 19.67 214.03 20.34 214.7 20.8L215.32 20.08C214.63 19.63 213.46 19 212.41 18.52L211.89 19.18ZM209.33 18.57C208.69 19.09 207.47 19.75 206.52 20.12C206.7 20.32 206.94 20.63 207.06 20.83C208.04 20.42 209.27 19.76 210.11 19.16L209.33 18.57ZM207.22 12.37L207.41 17.92H208.26L208.08 12.62L207.22 12.37ZM210.1 15.28C210.03 15.85 209.91 16.42 209.63 16.83C209.8 16.91 210.12 17.11 210.25 17.22C210.54 16.77 210.73 16.08 210.82 15.4L210.1 15.28ZM211.42 14.19V16.79C211.42 16.88 211.39 16.91 211.29 16.91C211.2 16.92 210.9 16.92 210.59 16.91C210.68 17.08 210.77 17.33 210.81 17.52C211.3 17.52 211.66 17.52 211.91 17.41C212.15 17.31 212.22 17.15 212.22 16.79V14.19H211.42ZM216.6 17.71V18.5H225.43V17.71H216.6ZM216.63 13.28V14.04H225.39V13.28H216.63ZM217.04 15.05V15.79H225.02V15.05H217.04ZM217.54 16.4V17.1H224.54V16.4H217.54ZM220.51 15.4V20.85H221.45V15.4H220.51ZM219.63 11.55V13.66H220.51V11.55H219.63ZM221.5 11.55V13.61H222.4V11.55H221.5ZM223.82 11.66C223.66 12.11 223.36 12.75 223.1 13.16L223.87 13.41C224.14 13.02 224.49 12.46 224.8 11.91L223.82 11.66ZM222.55 13.99C222.42 14.26 222.16 14.67 221.97 14.95L222.76 15.19C222.99 14.95 223.27 14.61 223.54 14.25L222.55 13.99ZM217.41 11.92C217.72 12.38 218.05 13.01 218.18 13.41L219.03 13.09C218.9 12.69 218.55 12.08 218.22 11.64L217.41 11.92ZM218.62 14.18C218.82 14.49 219.03 14.91 219.11 15.17L220.03 14.94C219.93 14.67 219.71 14.27 219.51 13.98L218.62 14.18ZM219.44 18.93C218.81 19.34 217.58 19.71 216.55 19.87C216.74 20.04 217 20.35 217.12 20.56C218.16 20.33 219.43 19.81 220.13 19.25L219.44 18.93ZM222 19.35C222.91 19.7 224.15 20.23 224.77 20.55L225.41 20C224.74 19.68 223.5 19.19 222.61 18.87L222 19.35ZM98.45 28.32H103.54V29.25H98.45V28.32ZM98.45 26.67H103.54V27.59H98.45V26.67ZM97.51 25.89V30.02H104.52V25.89H97.51ZM102.22 29.51L101.42 29.81C102.21 30.98 103.58 31.93 105.03 32.4C105.17 32.15 105.45 31.78 105.66 31.59C104.26 31.23 102.9 30.45 102.22 29.51ZM99.81 29.51C99.11 30.44 97.74 31.27 96.39 31.66C96.6 31.85 96.88 32.2 97.02 32.44C98.42 31.94 99.83 30.97 100.64 29.84L99.81 29.51ZM99.03 31.3V31.92C99.03 32.62 98.84 33.54 97.12 34.14C97.33 34.33 97.64 34.67 97.77 34.91C99.74 34.15 100 32.91 100 31.95V31.3H99.03ZM100.51 26.3V29.65H101.46V26.3H100.51ZM102.15 31.31V34.82H103.13V31.31H102.15ZM107.12 25.98V26.68H114.84V25.98H107.12ZM110.5 26.22V30.11H111.42V26.22H110.5ZM106.68 27.3V29.51H107.58V28.02H114.38V29.51H115.33V27.3H106.68ZM107.64 29.6L107.9 30.29C108.55 30.16 109.3 30 110.07 29.83L110.04 29.26C109.14 29.4 108.28 29.53 107.64 29.6ZM107.93 28.59C108.55 28.72 109.36 28.96 109.78 29.14L110.04 28.6C109.61 28.42 108.8 28.22 108.19 28.11L107.93 28.59ZM113.69 28.05C113.22 28.22 112.42 28.51 111.87 28.63L112.19 29.09C112.74 28.98 113.52 28.8 114.08 28.56L113.69 28.05ZM111.73 29.74C112.51 29.86 113.53 30.1 114.08 30.3L114.27 29.68C113.72 29.49 112.7 29.28 111.93 29.19L111.73 29.74ZM106.6 30.4V31.15H115.41V30.4H106.6ZM109.54 32.28V34.77H110.4V32.28H109.54ZM111.73 32.28V34.77H112.59V32.28H111.73ZM107.36 31.76V34.82H108.26V32.52H114.17V31.76H107.36ZM113.95 31.76V33.94C113.95 34.03 113.92 34.06 113.81 34.06C113.71 34.07 113.38 34.07 113.02 34.06C113.13 34.28 113.26 34.6 113.3 34.84C113.84 34.84 114.23 34.84 114.51 34.7C114.8 34.57 114.86 34.35 114.86 33.95V31.76H113.95ZM110.52 30.69C110.46 31.12 110.29 31.73 110.14 32.15L110.97 32.23C111.15 31.85 111.37 31.28 111.56 30.71L110.52 30.69ZM116.61 27.17V28.09H125.42V27.17H116.61ZM121.39 27.98L120.64 28.2C121.47 30.75 122.91 32.95 125 33.99C125.16 33.73 125.47 33.35 125.7 33.15C123.65 32.28 122.13 30.23 121.39 27.98ZM124.23 28.46C123.71 29.2 122.8 30.15 122.14 30.72L122.82 31.24C123.5 30.69 124.39 29.81 125.05 29.05L124.23 28.46ZM122.26 26.19C122.89 26.51 123.69 27.01 124.08 27.36L124.68 26.68C124.26 26.35 123.44 25.89 122.83 25.59L122.26 26.19ZM117.06 29.08C117.68 29.65 118.39 30.45 118.69 31L119.46 30.43C119.13 29.89 118.39 29.12 117.78 28.58L117.06 29.08ZM120.49 25.58V33.63C120.49 33.82 120.42 33.87 120.23 33.88C120.03 33.88 119.39 33.89 118.73 33.86C118.88 34.15 119.02 34.59 119.07 34.86C119.96 34.86 120.58 34.84 120.95 34.67C121.32 34.51 121.46 34.24 121.46 33.63V25.58H120.49ZM116.36 33L116.96 33.86C118.11 33.18 119.64 32.25 121.02 31.37L120.74 30.58C119.17 31.48 117.41 32.47 116.36 33ZM126.67 26.25V27.22H135.33V26.25H126.67ZM131.54 29.36C132.69 30.18 134.18 31.38 134.87 32.16L135.66 31.43C134.92 30.65 133.39 29.51 132.26 28.75L131.54 29.36ZM131.26 26.6C130.37 28.43 128.55 30.36 126.39 31.41C126.59 31.63 126.89 32.01 127.04 32.26C129.32 31.06 131.16 29.06 132.3 26.97L131.26 26.6ZM130.48 28.78V34.83H131.51V27.76L130.48 28.78ZM142.93 31.08V33.57C142.93 34.45 143.1 34.73 143.92 34.73C144.07 34.73 144.58 34.73 144.75 34.73C145.41 34.73 145.65 34.37 145.73 32.96C145.48 32.89 145.09 32.75 144.91 32.59C144.89 33.72 144.84 33.87 144.65 33.87C144.53 33.87 144.15 33.87 144.07 33.87C143.87 33.87 143.84 33.84 143.84 33.57V31.08H142.93ZM141.38 29.17H143.97V30.57H141.38V29.17ZM140.53 28.36V31.37H144.87V28.36H140.53ZM141.28 31.08C141.21 32.56 141.01 33.55 139.64 34.1C139.84 34.28 140.1 34.63 140.2 34.86C141.83 34.16 142.14 32.9 142.23 31.08H141.28ZM137.33 25.92V26.78H139.36V25.92H137.33ZM136.92 25.92V29.53C136.92 31 136.87 33.02 136.27 34.42C136.48 34.5 136.85 34.69 137.01 34.83C137.64 33.35 137.73 31.09 137.73 29.53V25.92H136.92ZM138.77 25.92V33.71C138.77 33.84 138.73 33.88 138.61 33.89C138.49 33.89 138.14 33.89 137.76 33.88C137.87 34.11 137.98 34.52 138 34.75C138.62 34.75 139 34.73 139.27 34.57C139.53 34.43 139.61 34.16 139.61 33.73V25.92H138.77ZM141.36 25.71C140.98 26.72 140.3 27.67 139.52 28.28C139.71 28.44 140.04 28.8 140.17 28.98C141 28.26 141.77 27.13 142.24 25.94L141.36 25.71ZM137.53 31.06L137.97 31.83C138.43 31.42 138.91 31 139.39 30.56L139.13 30C138.54 30.42 137.94 30.83 137.53 31.06ZM137.5 28.33C137.83 28.65 138.23 29.11 138.43 29.4L139.01 28.92C138.8 28.65 138.4 28.24 138.05 27.92L137.5 28.33ZM142.97 26.05C143.71 26.93 144.57 28.15 144.93 28.91L145.68 28.43C145.3 27.66 144.41 26.5 143.65 25.64L142.97 26.05ZM150.91 27.71V28.55H154.24V27.71H150.91ZM151.87 25.58V28.91C151.87 30.8 151.71 32.79 150.1 34.32C150.33 34.44 150.67 34.72 150.83 34.9C152.56 33.23 152.74 31 152.74 28.91V25.58H151.87ZM146.5 26.59V27.41H150.82V26.59H146.5ZM146.36 32.33V33.17H150.92V32.33H146.36ZM148.23 25.57V28.4H149.12V25.57H148.23ZM148.32 28.4V31.25H148.23V34.84H149.11V31.25H149.03V28.4H148.32ZM147.47 30.17H149.91V30.95H147.47V30.17ZM147.47 28.76H149.91V29.53H147.47V28.76ZM146.73 28.08V31.63H150.68V28.08H146.73ZM153.62 27.71V33.61C153.62 34.2 153.66 34.39 153.81 34.55C153.97 34.72 154.19 34.78 154.42 34.78C154.54 34.78 154.76 34.78 154.9 34.78C155.09 34.78 155.29 34.73 155.43 34.62C155.57 34.51 155.66 34.35 155.72 34.08C155.76 33.84 155.8 33.19 155.81 32.65C155.59 32.57 155.31 32.42 155.14 32.28C155.15 32.84 155.13 33.31 155.12 33.51C155.1 33.64 155.06 33.74 155.03 33.8C155 33.84 154.93 33.86 154.87 33.86C154.8 33.86 154.73 33.86 154.68 33.86C154.62 33.86 154.57 33.83 154.53 33.79C154.51 33.76 154.49 33.69 154.49 33.62V27.71H153.62ZM157.33 31.66H158.1L158.26 27.66L158.29 26.46H157.13L157.16 27.66L157.33 31.66ZM157.71 34.14C158.15 34.14 158.48 33.8 158.48 33.33C158.48 32.85 158.15 32.52 157.71 32.52C157.28 32.52 156.94 32.85 156.94 33.33C156.94 33.8 157.28 34.14 157.71 34.14Z" fill="white"/>
<defs>
<linearGradient id="paint0_linear_522_1407" x1="41.3032" y1="39.7681" x2="44.9333" y2="47.8235" gradientUnits="userSpaceOnUse">
<stop stop-color="#FFF176"/>
<stop offset="1" stop-color="#00E0B8"/>
</linearGradient>
<linearGradient id="paint1_linear_522_1407" x1="41.3093" y1="47.1001" x2="44.9393" y2="55.1555" gradientUnits="userSpaceOnUse">
<stop stop-color="#FFF176"/>
<stop offset="1" stop-color="#00E0B8"/>
</linearGradient>
<linearGradient id="paint2_linear_522_1407" x1="28.3681" y1="26.7996" x2="63.9908" y2="65.3983" gradientUnits="userSpaceOnUse">
<stop stop-color="#FFF176"/>
<stop offset="1" stop-color="#00E0B8"/>
</linearGradient>
<linearGradient id="paint3_linear_522_1407" x1="15.4906" y1="12.9198" x2="76.7396" y2="79.3027" gradientUnits="userSpaceOnUse">
<stop stop-color="#FFF176"/>
<stop offset="1" stop-color="#00E0B8"/>
</linearGradient>
<linearGradient id="paint4_linear_522_1407" x1="23.3513" y1="20.0653" x2="28.1095" y2="25.119" gradientUnits="userSpaceOnUse">
<stop stop-color="#FFF176"/>
<stop offset="1" stop-color="#00E0B8"/>
</linearGradient>
<linearGradient id="paint5_linear_522_1407" x1="28.7357" y1="16.677" x2="32.9244" y2="20.3163" gradientUnits="userSpaceOnUse">
<stop stop-color="#FFF176"/>
<stop offset="1" stop-color="#00E0B8"/>
</linearGradient>
<linearGradient id="paint6_linear_522_1407" x1="34.125" y1="14.7147" x2="38.018" y2="17.5028" gradientUnits="userSpaceOnUse">
<stop stop-color="#FFF176"/>
<stop offset="1" stop-color="#00E0B8"/>
</linearGradient>
<linearGradient id="paint7_linear_522_1407" x1="38.9263" y1="13.5124" x2="41.7205" y2="14.6024" gradientUnits="userSpaceOnUse">
<stop stop-color="#FFF176"/>
<stop offset="1" stop-color="#00E0B8"/>
</linearGradient>
<linearGradient id="paint8_linear_522_1407" x1="43.0406" y1="12.8506" x2="46.5203" y2="14.7036" gradientUnits="userSpaceOnUse">
<stop stop-color="#FFF176"/>
<stop offset="1" stop-color="#00E0B8"/>
</linearGradient>
<linearGradient id="paint9_linear_522_1407" x1="51.2599" y1="13.2666" x2="55.0692" y2="15.7499" gradientUnits="userSpaceOnUse">
<stop stop-color="#FFF176"/>
<stop offset="1" stop-color="#00E0B8"/>
</linearGradient>
<linearGradient id="paint10_linear_522_1407" x1="56.0721" y1="14.7389" x2="60.367" y2="17.8314" gradientUnits="userSpaceOnUse">
<stop stop-color="#FFF176"/>
<stop offset="1" stop-color="#00E0B8"/>
</linearGradient>
<linearGradient id="paint11_linear_522_1407" x1="61.0398" y1="17.4527" x2="64.901" y2="20.8072" gradientUnits="userSpaceOnUse">
<stop stop-color="#FFF176"/>
<stop offset="1" stop-color="#00E0B8"/>
</linearGradient>
<linearGradient id="paint12_linear_522_1407" x1="64.8801" y1="20.3383" x2="68.883" y2="24.4464" gradientUnits="userSpaceOnUse">
<stop stop-color="#FFF176"/>
<stop offset="1" stop-color="#00E0B8"/>
</linearGradient>
<linearGradient id="paint13_linear_522_1407" x1="24.0002" y1="68.3256" x2="28.8648" y2="73.2808" gradientUnits="userSpaceOnUse">
<stop stop-color="#FFF176"/>
<stop offset="1" stop-color="#00E0B8"/>
</linearGradient>
<linearGradient id="paint14_linear_522_1407" x1="29.8043" y1="71.614" x2="33.9798" y2="75.128" gradientUnits="userSpaceOnUse">
<stop stop-color="#FFF176"/>
<stop offset="1" stop-color="#00E0B8"/>
</linearGradient>
<linearGradient id="paint15_linear_522_1407" x1="34.6646" y1="73.8646" x2="38.5362" y2="76.5764" gradientUnits="userSpaceOnUse">
<stop stop-color="#FFF176"/>
<stop offset="1" stop-color="#00E0B8"/>
</linearGradient>
<linearGradient id="paint16_linear_522_1407" x1="39.3854" y1="74.9251" x2="42.0645" y2="75.9106" gradientUnits="userSpaceOnUse">
<stop stop-color="#FFF176"/>
<stop offset="1" stop-color="#00E0B8"/>
</linearGradient>
<linearGradient id="paint17_linear_522_1407" x1="43.3664" y1="75.393" x2="46.8044" y2="77.2064" gradientUnits="userSpaceOnUse">
<stop stop-color="#FFF176"/>
<stop offset="1" stop-color="#00E0B8"/>
</linearGradient>
<linearGradient id="paint18_linear_522_1407" x1="51.2541" y1="74.9481" x2="54.8636" y2="76.9382" gradientUnits="userSpaceOnUse">
<stop stop-color="#FFF176"/>
<stop offset="1" stop-color="#00E0B8"/>
</linearGradient>
<linearGradient id="paint19_linear_522_1407" x1="56.0634" y1="73.5803" x2="60.2589" y2="77.0767" gradientUnits="userSpaceOnUse">
<stop stop-color="#FFF176"/>
<stop offset="1" stop-color="#00E0B8"/>
</linearGradient>
<linearGradient id="paint20_linear_522_1407" x1="60.8789" y1="71.4081" x2="64.7384" y2="74.6852" gradientUnits="userSpaceOnUse">
<stop stop-color="#FFF176"/>
<stop offset="1" stop-color="#00E0B8"/>
</linearGradient>
<linearGradient id="paint21_linear_522_1407" x1="64.7255" y1="68.6157" x2="68.7806" y2="72.6541" gradientUnits="userSpaceOnUse">
<stop stop-color="#FFF176"/>
<stop offset="1" stop-color="#00E0B8"/>
</linearGradient>
</defs>
</svg>
